<?xml version="1.0" encoding="utf-8"?>
<!-- Generator: Adobe Illustrator 19.0.0, SVG Export Plug-In . SVG Version: 6.00 Build 0)  -->
<svg version="1.1" id="Layer_1" xmlns="http://www.w3.org/2000/svg" xmlns:xlink="http://www.w3.org/1999/xlink" x="0px" y="0px"
	 viewBox="0 0 85 50" style="enable-background:new 0 0 85 50;" xml:space="preserve">
<style type="text/css">
	.st0{fill-rule:evenodd;clip-rule:evenodd;fill:#6B923D;}
</style>
<g id="XMLID_6378_">
	<g id="XMLID_6684_">
		<path id="XMLID_6954_" class="st0" d="M44.4,22.2c0.2-0.1,0.4-0.3,0.5-0.7C44.7,21.6,44.5,21.8,44.4,22.2z"/>
		<path id="XMLID_6953_" class="st0" d="M44.5,22.5"/>
		<path id="XMLID_6952_" class="st0" d="M44.5,22.8c-0.2,0-0.2,0.4-0.3,0.6C44.4,23.5,44.4,23,44.5,22.8z"/>
		<path id="XMLID_6951_" class="st0" d="M44,25.3c-0.1,0-0.2,0.2-0.2,0.3C43.9,25.7,43.9,25.4,44,25.3z"/>
		<path id="XMLID_6950_" class="st0" d="M43.8,25.8"/>
		<path id="XMLID_6949_" class="st0" d="M44.4,24.6"/>
		<path id="XMLID_6948_" class="st0" d="M43.6,26.9c0.4,0.2,0.5-0.9,0.6-1C43.9,26,43.8,26.6,43.6,26.9z"/>
		<path id="XMLID_6947_" class="st0" d="M45.7,24.4c-0.2,0-0.2,0.4-0.3,0.6C45.6,25,45.6,24.5,45.7,24.4z"/>
		<path id="XMLID_6946_" class="st0" d="M45.2,26.2c-0.2-0.1-0.2,0.3-0.3,0.4C45.2,26.7,45.1,26.3,45.2,26.2z"/>
		<path id="XMLID_6945_" class="st0" d="M46.1,24.1c-0.2-0.1-0.2,0.3-0.3,0.4C46.1,24.6,46,24.2,46.1,24.1z"/>
		<path id="XMLID_6944_" class="st0" d="M45.5,26.1c0.3,0,0.1-0.3,0.1-0.4C45.8,25,45.6,25.4,45.5,26.1z"/>
		<path id="XMLID_6943_" class="st0" d="M45.3,26.9c-0.1,0.2,0.1,0.3-0.1,0.6C45.3,27.5,45.6,26.8,45.3,26.9z"/>
		<path id="XMLID_6942_" class="st0" d="M45.2,27.6c-0.2,0.2,0,0.3-0.1,0.5C45.3,28.2,45.6,27.5,45.2,27.6z"/>
		<path id="XMLID_6941_" class="st0" d="M45.4,28.4c-0.1,0-0.2,0.2-0.2,0.3C45.3,28.7,45.3,28.5,45.4,28.4z"/>
		<path id="XMLID_6940_" class="st0" d="M45.2,30.4"/>
		<path id="XMLID_6939_" class="st0" d="M47.9,24.1c-0.2-0.1-0.2,0.4-0.3,0.5C47.8,24.7,47.8,24.3,47.9,24.1z"/>
		<path id="XMLID_6938_" class="st0" d="M47.7,24.8c-0.2-0.1-0.2,0.3-0.3,0.4C47.6,25.3,47.6,24.9,47.7,24.8z"/>
		<path id="XMLID_6937_" class="st0" d="M47.4,25.5c-0.2-0.1-0.2,0.4-0.3,0.5C47.3,26.1,47.3,25.7,47.4,25.5z"/>
		<path id="XMLID_6936_" class="st0" d="M46.6,28c0,0.3-0.1,0.6-0.2,1C46.6,28.9,46.8,28.1,46.6,28z"/>
		<path id="XMLID_6935_" class="st0" d="M47.1,27.4"/>
		<path id="XMLID_6934_" class="st0" d="M46.5,30.9"/>
		<path id="XMLID_6933_" class="st0" d="M46.5,31.4c-0.2,0-0.1,0.2-0.1,0.3C46.5,31.6,46.4,31.5,46.5,31.4z"/>
		<path id="XMLID_6932_" class="st0" d="M49.7,24.8"/>
		<path id="XMLID_6931_" class="st0" d="M49.3,25.8c-0.2-0.1-0.2,0.3-0.3,0.4C49.2,26.4,49.2,25.9,49.3,25.8z"/>
		<path id="XMLID_6930_" class="st0" d="M50.5,23.6"/>
		<path id="XMLID_6929_" class="st0" d="M53.2,16.5c0.3-0.1,0.5-0.2,0.8-0.2C53.8,16,53.3,16.3,53.2,16.5z"/>
		<path id="XMLID_6928_" class="st0" d="M48.8,29.2"/>
		<path id="XMLID_6927_" class="st0" d="M50.6,24.6"/>
		<path id="XMLID_6926_" class="st0" d="M50.5,24.9c-0.2,0.2-0.1,0.5-0.4,0.7C50.4,25.7,50.6,25.1,50.5,24.9z"/>
		<path id="XMLID_6925_" class="st0" d="M50.1,25.7c0,0.4-0.2,0.9-0.4,1.4C49.8,27.2,50.4,25.9,50.1,25.7z"/>
		<path id="XMLID_6924_" class="st0" d="M49.5,28.2c0.4,0.1,0-0.4,0.3-0.7C49.7,27.2,49.3,28.2,49.5,28.2z"/>
		<path id="XMLID_6923_" class="st0" d="M49.4,28.3c-0.2-0.1-0.2,0.4-0.3,0.5C49.3,28.9,49.3,28.5,49.4,28.3z"/>
		<path id="XMLID_6922_" class="st0" d="M49,29.4c0,0-0.2,0.1-0.2,0.2C48.8,29.8,49.2,29.4,49,29.4z"/>
		<path id="XMLID_6921_" class="st0" d="M48.6,31.3c0.2-0.5,0-0.7,0.3-1.5C48.4,30,48.6,30.9,48.6,31.3z"/>
		<path id="XMLID_6920_" class="st0" d="M49.4,29.9c0-1,0.3-1,0.7-2.1C49.6,28.2,49.1,29.4,49.4,29.9z"/>
		<path id="XMLID_6919_" class="st0" d="M48.6,31.4c0.1,0.2-0.2,0.6,0.2,0.7C48.7,31.9,48.8,31.5,48.6,31.4z"/>
		<path id="XMLID_6918_" class="st0" d="M49.3,30c0,0.1,0,0.1-0.1,0.2c0.1,0,0.1,0,0.2,0.1c0-0.1,0-0.1,0.1-0.2
			C49.4,30,49.4,30,49.3,30z"/>
		<path id="XMLID_6917_" class="st0" d="M49.3,30.3c-0.3,0,0,0.3-0.2,0.5C49.4,30.8,49.3,30.4,49.3,30.3z"/>
		<path id="XMLID_6916_" class="st0" d="M49.3,30.9"/>
		<path id="XMLID_6915_" class="st0" d="M51,27.1c-0.3,0.2-0.4,1-0.7,1.5C50.7,28.4,50.8,27.6,51,27.1z"/>
		<path id="XMLID_6914_" class="st0" d="M50.4,28.8c-0.2,0-0.2,0.4-0.3,0.6C50.3,29.5,50.3,29,50.4,28.8z"/>
		<path id="XMLID_6913_" class="st0" d="M52.4,23.5c0.2,0,0.3-0.2,0.5-0.4C52.7,23.1,52.5,23.3,52.4,23.5z"/>
		<path id="XMLID_6912_" class="st0" d="M48.9,33.3c-0.2-0.1-0.2,0.4-0.2,0.5C49.1,33.7,48.7,33.4,48.9,33.3z"/>
		<path id="XMLID_6911_" class="st0" d="M51.9,26.2c0.1,0,0.2,0,0.3-0.2C52,25.9,52,26.1,51.9,26.2z"/>
		<path id="XMLID_6910_" class="st0" d="M52.6,25.2c-0.2,0-0.2,0.4-0.3,0.6C52.4,25.8,52.4,25.3,52.6,25.2z"/>
		<path id="XMLID_6909_" class="st0" d="M50.9,29.8c-0.3,0-0.1,0.4-0.2,0.6C51,30.4,50.7,30,50.9,29.8z"/>
		<path id="XMLID_6908_" class="st0" d="M51.8,27.6"/>
		<path id="XMLID_6907_" class="st0" d="M53.1,25.2c-0.2,0-0.2,0.5-0.4,0.7C52.9,26,52.9,25.4,53.1,25.2z"/>
		<path id="XMLID_6906_" class="st0" d="M53.4,24.5c-0.2-0.1-0.2,0.3-0.3,0.4C53.4,25,53.3,24.6,53.4,24.5z"/>
		<path id="XMLID_6905_" class="st0" d="M50.4,32.5c-0.1-0.1-0.3,0.5,0,0.3C50.3,32.9,50.4,32.5,50.4,32.5z"/>
		<path id="XMLID_6904_" class="st0" d="M53.7,24.1c0.3-0.2,0.4-0.6,0.6-0.8C54,23.3,53.8,23.7,53.7,24.1z"/>
		<path id="XMLID_6903_" class="st0" d="M51.9,29.8c0.6-1.7,1.2-3.6,2.5-5.8C53,25.7,52,28,51.9,29.8z"/>
		<path id="XMLID_6902_" class="st0" d="M51.3,30.6c0.1,0.2-0.1,0.5,0,0.6c0.1,0,0.1-0.2,0.3-0.1C51.4,31,51.6,30.6,51.3,30.6z"/>
		<path id="XMLID_6901_" class="st0" d="M51.2,31.9c0.2,0.1,0.2-0.4,0.3-0.5C51.1,31.3,51.4,31.6,51.2,31.9z"/>
		<path id="XMLID_6900_" class="st0" d="M50.6,33.3c0,0.2,0,0.3,0,0.4C50.9,33.8,50.9,33.3,50.6,33.3z"/>
		<path id="XMLID_6899_" class="st0" d="M53.7,25.7c0.2,0.1,0.3-0.2,0.4-0.5C53.7,25.2,54,25.5,53.7,25.7z"/>
		<path id="XMLID_6898_" class="st0" d="M54.6,24.3c-0.5,0.2-0.6,1.2-0.2,0.2C54.4,24.5,54.6,24.5,54.6,24.3z"/>
		<path id="XMLID_6897_" class="st0" d="M52.8,31.1c-0.3,0.2-0.2,0.9,0,1.2C52.9,31.9,52.7,31.5,52.8,31.1z"/>
		<path id="XMLID_6896_" class="st0" d="M55.2,25.6"/>
		<path id="XMLID_6895_" class="st0" d="M55.9,25.4c0.3,0,0.4-0.5,0.5-0.9C56.2,24.6,56.1,25.1,55.9,25.4z"/>
		<path id="XMLID_6894_" class="st0" d="M55.9,26.2c0.2-0.1,0.4-0.1,0.5-0.5C56.1,25.8,56,25.9,55.9,26.2z"/>
		<path id="XMLID_6893_" class="st0" d="M57.3,24.1"/>
		<path id="XMLID_6892_" class="st0" d="M57.7,23.3c0.3,0.3,0.2-0.3,0.4-0.2C58.1,22.8,57.7,23,57.7,23.3z"/>
		<path id="XMLID_6891_" class="st0" d="M57.8,23.4c0,0-0.2,0.1-0.2,0.2C57.6,23.7,58,23.4,57.8,23.4z"/>
		<path id="XMLID_6890_" class="st0" d="M60.3,22.4c0.2,0.1,0.3-0.2,0.4-0.5C60.3,21.9,60.6,22.2,60.3,22.4z"/>
		<path id="XMLID_6889_" class="st0" d="M60.8,21.7"/>
		<path id="XMLID_6886_" class="st0" d="M60.4,23.6c0.4,0.1,0.4-0.6,0.6-1C60.9,22.2,60.6,23.6,60.4,23.6z"/>
		<path id="XMLID_6882_" class="st0" d="M61.1,23"/>
		<path id="XMLID_6880_" class="st0" d="M62.2,22c-0.2-0.1-0.2,0.3-0.3,0.4C62.1,22.5,62.1,22.1,62.2,22z"/>
		<path id="XMLID_6877_" class="st0" d="M58.1,38.8c0,0.2,0,0.3,0.3,0.4C58.4,39,58.4,38.9,58.1,38.8z"/>
		<path id="XMLID_6876_" class="st0" d="M61.8,37.4c-0.2,0-0.1,0.2-0.1,0.3C61.9,37.7,61.8,37.5,61.8,37.4z"/>
		<path id="XMLID_6875_" class="st0" d="M70.6,16.9c-0.1,0.2,0.5,0.4,0.4,0C70.9,17,70.8,17,70.6,16.9z"/>
		<path id="XMLID_6874_" class="st0" d="M69.8,20.4c0,0.1,0,0.2,0.2,0.3C70,20.6,70,20.5,69.8,20.4z"/>
		<path id="XMLID_6871_" class="st0" d="M71.5,16.6c0,0.2,0.2,0.3,0.3,0.2C71.8,16.7,71.6,16.6,71.5,16.6z"/>
		<path id="XMLID_6870_" class="st0" d="M71.5,17c-0.1,0.3,0.2,0.2,0.4,0.5C71.9,17.3,71.8,17.1,71.5,17z"/>
		<path id="XMLID_6869_" class="st0" d="M72.1,16.3c0.2,0.5,1.8,0.6,2.1,1.4c0.3-0.2-1.3-1.3-1.2-0.9C72.9,16.4,72.6,16.5,72.1,16.3
			z"/>
		<path id="XMLID_6867_" class="st0" d="M72.2,17c0,0.2,0.1,0.3,0.3,0.3C72.5,17.1,72.4,17,72.2,17z"/>
		<path id="XMLID_6866_" class="st0" d="M72.7,17.3c-0.2,0,0,0.1,0.2,0.2C73,17.5,72.8,17.3,72.7,17.3z"/>
		<path id="XMLID_6865_" class="st0" d="M65.2,39.7c-0.2,0-0.2,0.4-0.3,0.6C65.1,40.3,65.1,39.8,65.2,39.7z"/>
		<path id="XMLID_6863_" class="st0" d="M73.6,17.8c-0.1,0.2,0.4,0.2,0.5,0.3C74,17.9,73.7,17.7,73.6,17.8z"/>
		<path id="XMLID_6862_" class="st0" d="M64.8,41.9c-0.1-0.1-0.3,0.5,0,0.3C64.8,42.2,64.8,41.9,64.8,41.9z"/>
		<path id="XMLID_6861_" class="st0" d="M74.9,16.5c-0.2,0.3,0.3,0.3,0.5,0.4C75.4,16.7,75,16.7,74.9,16.5z"/>
		<path id="XMLID_6860_" class="st0" d="M73.6,19.9c0,0.2,0.2,0.3,0.4,0.5C74,20.1,73.8,20,73.6,19.9z"/>
		<path id="XMLID_6859_" class="st0" d="M74.4,18.3c-0.2,0,0,0.1,0.2,0.2C74.8,18.5,74.6,18.4,74.4,18.3z"/>
		<path id="XMLID_6858_" class="st0" d="M66.7,40.1c-0.2-0.1-0.2,0.4-0.3,0.5C66.6,40.7,66.6,40.3,66.7,40.1z"/>
		<path id="XMLID_6855_" class="st0" d="M66.3,41.2"/>
		<path id="XMLID_6854_" class="st0" d="M69,35.2c0,0-0.2,0.1-0.2,0.2C68.8,35.6,69.2,35.2,69,35.2z"/>
		<path id="XMLID_6853_" class="st0" d="M68.8,36.1c-0.2-0.1-0.2,0.3-0.3,0.4C68.8,36.7,68.7,36.3,68.8,36.1z"/>
		<path id="XMLID_6852_" class="st0" d="M68.5,36.8c0.1,0.2-0.1,0.4-0.2,0.7C68.6,37.6,68.8,36.9,68.5,36.8z"/>
		<path id="XMLID_6851_" class="st0" d="M68.4,37.7c-0.3,0,0,0.2-0.1,0.4C68.4,38.1,68.4,37.7,68.4,37.7z"/>
		<path id="XMLID_6850_" class="st0" d="M67.8,39.4"/>
		<path id="XMLID_6849_" class="st0" d="M67.7,39.4c0,0.1,0,0.1-0.1,0.2c0.1,0,0.1,0,0.2,0.1c0-0.1,0-0.1,0.1-0.2
			C67.8,39.5,67.7,39.5,67.7,39.4z"/>
		<path id="XMLID_6848_" class="st0" d="M67.8,39.8c-0.1,0-0.2,0.2-0.2,0.3C67.7,40.1,67.7,39.9,67.8,39.8z"/>
		<path id="XMLID_6847_" class="st0" d="M66.8,42.1c0.4-0.3,0.4-1.1,0.8-1.7C67.3,40.3,67,41.6,66.8,42.1z"/>
		<path id="XMLID_6846_" class="st0" d="M75.3,20.8c0,0.1,0.1,0.2,0.3,0.3C75.6,21,75.5,20.9,75.3,20.8z"/>
		<path id="XMLID_6845_" class="st0" d="M70.1,35.2"/>
		<path id="XMLID_6844_" class="st0" d="M69.4,37.5c0.3,0,0.5-1.3,0.8-1.8C69.7,35.8,69.8,36.9,69.4,37.5z"/>
		<path id="XMLID_6843_" class="st0" d="M68.3,41.8"/>
		<path id="XMLID_6842_" class="st0" d="M71.4,34.8"/>
		<path id="XMLID_6841_" class="st0" d="M70.9,36.8"/>
		<path id="XMLID_6840_" class="st0" d="M70.3,40.9c0,0.3,0.5,0,0.7-0.1c0-0.2-0.1-0.3-0.2-0.2c1-1.4,1.9-2.8,2.5-4.7
			C72.2,37.7,71.5,39.6,70.3,40.9z"/>
		<path id="XMLID_6839_" class="st0" d="M74.3,31.1c-0.2-0.1-0.2,0.3-0.3,0.4C74.2,31.6,74.2,31.2,74.3,31.1z"/>
		<path id="XMLID_6838_" class="st0" d="M74.2,31.7"/>
		<path id="XMLID_6837_" class="st0" d="M73.5,33.4"/>
		<path id="XMLID_6836_" class="st0" d="M73.7,33.7c0,0.1,0,0.3-0.1,0.5C73.7,34.3,74,33.7,73.7,33.7z"/>
		<path id="XMLID_6835_" class="st0" d="M73.6,34.3c0,0.1,0,0.1,0.1,0.1C73.2,35.3,74,34.6,73.6,34.3z"/>
		<path id="XMLID_6834_" class="st0" d="M78.7,21.2c0,0.2,0,0.5,0.1,0.7C79,21.8,78.9,21.3,78.7,21.2z"/>
		<path id="XMLID_6833_" class="st0" d="M73.4,35c-0.1,0.1,0,0.2,0,0.3C73.1,36.2,73.7,35.4,73.4,35z"/>
		<path id="XMLID_6832_" class="st0" d="M78.8,22c0,0.1,0.2,0.2,0.1,0.3C79.2,22.4,79.1,22.1,78.8,22z"/>
		<path id="XMLID_6831_" class="st0" d="M72.4,39.3c0.2,0,0.3-0.2,0.4-0.4C72.6,38.9,72.5,39.1,72.4,39.3z"/>
		<path id="XMLID_6830_" class="st0" d="M72.8,38.8c0.2,0,0.3-0.1,0.3-0.3C73,38.5,72.9,38.7,72.8,38.8z"/>
		<path id="XMLID_6829_" class="st0" d="M76.2,30.6"/>
		<path id="XMLID_6828_" class="st0" d="M74.6,35.7c0.2,0,0.3-0.3,0.5-0.5C74.8,35.2,74.7,35.5,74.6,35.7z"/>
		<path id="XMLID_6827_" class="st0" d="M74.2,37.1c0.2-0.1,0.4-0.4,0.5-0.8C74.5,36.4,74.3,36.8,74.2,37.1z"/>
		<path id="XMLID_6826_" class="st0" d="M76.7,31.4c-0.2,0-0.2,0.4-0.3,0.6C76.6,32,76.6,31.5,76.7,31.4z"/>
		<path id="XMLID_6825_" class="st0" d="M76.3,32.3"/>
		<path id="XMLID_6824_" class="st0" d="M79.5,25.6"/>
		<path id="XMLID_6823_" class="st0" d="M79.6,26c-0.2-0.1-0.4,0.5,0,0.4C79.7,26.2,79.5,26.1,79.6,26z"/>
		<path id="XMLID_6822_" class="st0" d="M79.1,27.4c0.1,0,0.1-0.1,0.2-0.2c0.1,0.1,0,0.2,0,0.3c0.2,0,0.3-0.5,0.2-0.6
			C79.3,27,79.2,27.1,79.1,27.4z"/>
		<path id="XMLID_6821_" class="st0" d="M79,28.6c0.2,0,0.1-0.5,0.3-0.8C78.9,27.7,79.1,28.4,79,28.6z"/>
		<path id="XMLID_6820_" class="st0" d="M76.9,34.3c0.3-0.4,0.5-0.6,0.4-0.9C77.3,33.7,76.8,33.7,76.9,34.3z"/>
		<path id="XMLID_6819_" class="st0" d="M79.1,28.8"/>
		<path id="XMLID_6790_" class="st0" d="M72.2,14.2c1.1,0.1,2.1,0.7,3,1.4c2.9,2,6,7.9,5.7,11.6c-0.2,2.2-0.8,4.8-1.9,7
			c-0.9,1.8-3.7,5.1-5.4,6.4c-2.6,1.9-5.5,3.3-9,3.4c-2.6,0.6-5.2,0-7.7-0.6c-4.4-1.1-8.7-4.3-10.8-7.1c-1.8-2.4-2.5-4.5-2.9-7.1
			c-0.5-2.2-0.1-4,0.1-6c0.6-6,9.1-16.1,17.8-11.8c1-1.3,0.3-2.9-0.1-4c0.8,0.2,0.9,0.5,1.3,1c0.2,0.3,0.5,0.5,0.6,0.7
			c0.3,0.9-0.3,2.1,0.1,3c0.4-0.1,0.8,0.5,1.4,0.4c-0.3-1.1,0.1-2,0.5-3.9c0.7-0.4,1.5,0.1,2.2,0.5c0,1.1,0.6,2.4-0.4,3.9
			c1.5,0.8,3.1,0.3,4.4,0.8c1.1-0.2,1.6-1.5,2.8-1.4C73.5,13.4,72.7,13.4,72.2,14.2L72.2,14.2z M45,19.7c0.7-1.8,2.4-3.1,3.6-3.9
			c-0.3,0.7-1.5,1.1-2,1.9c0.4,0,0.6-0.5,0.9-0.7c0.1,0.1,0,0.2-0.1,0.2c0,0.3,0.2,0,0.4,0.1c-1,0.5-1.9,1.2-2.6,2.4
			c-1.1,0.9-0.7,0.9-1.2,2.4c0.4-0.3,0.9-1.3,1-1.7c0.4-0.2,0.6-0.6,0.9-0.9c0.2,0.2-0.2,0.3-0.2,0.5c0.1,0,0.2-0.1,0.4-0.1
			c-0.2,0.5-0.7,0.6-0.8,1.3c-0.1,0.1-0.3,0-0.3,0.2c-0.1-0.5,0.6-0.7,0.7-1.3c-0.7,0.6-1.4,2.1-1.8,2.8c0.4,0.2,0.3-0.5,0.6-0.6
			c-0.6,1.5-1,3.4-1,4.8c0.2,0.2,0.3-0.1,0.4,0c-0.4,1.4-0.2,2.5,0.1,3.6c0.3-0.5-0.2-1.3,0-2c0.3,0.8,0.1,1.9,0.3,2.9
			c0.1,0.4-0.1,0.7,0.2,1.2c0.2,0.6,0.4,0.9,0.6,1.3c0,0,0.2-0.1,0.2,0c0.1,0.1,0.2,0.7,0.2,0.7c0,0.1,0.1,0,0.1-0.1
			c0,0,0.1,0.3,0.2,0.4c0,0.1,0.2,0.1,0.2,0.1c0.2,0.3,0.2,0.6,0.3,0.8c0.3,0.3,0.4,0,0.3,0.4c0.6,0.1,0.7,1,1.3,1.3
			c1.7,1.9,3.9,3.4,6.2,4.5c1.2,0.5,2.1,0.7,3.4,1c1.4,0.3,3.1,1,4.5,0.7c1.2,0.3,2.6,0.1,3.7-0.1c1.1-0.2,2-0.5,2.9-0.9
			c0.9,0.2,4.5-1.9,5.2-2.7c0.3-0.4,1.1-0.7,1.1-1.1c0.6-0.1,0.9-0.9,1.5-1.6c0.9-1,2-2.5,2.8-4c-0.1-0.2-0.1-0.5,0.2-0.6
			c0.1-0.2-0.3-0.1-0.4-0.1c0.1-0.2,0.1-0.3,0.2-0.5c0,1.1,0.5-1.3,0.2-0.7c0.2-0.4,0.1-0.3,0.5-0.4c0-0.3-0.2-0.1-0.3-0.3
			c0.1-0.3,0.5,0.3,0.5-0.1c-0.3,0-0.4-0.7,0.1-0.9c0.2,0.1-0.1-0.9-0.1-0.6c0-0.1,0.2-0.1,0.3-0.1c0.1-0.1-0.1-0.2-0.1-0.3
			c0-0.1,0.2-0.1,0.2-0.2c0.1-0.7-0.1-1.4,0.3-2.4c-0.3-1.3-0.4-2.6-1-3.7c0-0.1,0.1-0.2,0.1-0.3c-0.7-0.8-1.2-1.6-1.5-2.5
			c-0.9-1.1-1.8-2.4-3-3.1c-0.6-0.1-2.6-0.8-3.4-1.1c-0.4,0-0.9,0.4-0.9,0.8c0.4,0,0.7,0,1.2,0.2c-0.6,0.1-1.1-0.3-1.6,0.1
			c0.3,0,0.9,0.1,1.1,0.3c-0.7-0.1-1.6-0.5-1.8,0.4c0.7,0.1,1.4,0,2.2,0.4c-0.4,0.1-0.5,0.1-1.1-0.1c0.3,0.5,1.4,0.7,1.8,1.1
			c-1.2-0.3-2.7-1.4-3.9-1c0.6,0.4,2.3,0.2,2.7,0.9c0.4,0,0-0.1,0.4,0.1c0.5,0.4,1.8,0.4,2.2,0.9c-0.2,0.2-0.3-0.2-0.6-0.2
			c0,0.2,0.3,0.2,0.3,0.4c-1.3-0.7-3.6-2.1-5-1.8c1,0.3,2.2,1.1,2.8,1.3c-0.4,0.4-0.7-0.2-0.9-0.4c-0.6-0.3-1.3-0.3-2.1-0.6
			c-0.3,0.1,0.7,0.3,0.8,0.5c-0.1-0.4,0,0,0.3-0.1c0,0.2,0,0.2,0.2,0.4c-0.2,0.2-0.4-0.2-0.6-0.2c0,0.5,0.7,0.6,1,0.9
			c0.6,0.5,1.2,1.1,1.7,1.6c-0.2,0.2-0.3-0.3-0.5-0.1c-0.1-0.1,0.2-0.3-0.2-0.4c0,0.1,0.1,0.1,0,0.2C71,21.2,71,21.1,70.8,21
			c0.6,0.2-0.5-0.8-0.8-0.9c-0.3-0.2-0.9-0.1-1-0.4c-0.2-0.2,0.3,0.5,0.6,0.6c0,0.1-0.1,0-0.2,0c0.3,1.4,2,2.3,2.7,3.6
			c-0.7-0.5-0.9-1.3-1.6-1.5c0.6,0.9,1.5,1.4,1.7,2.3c-0.3,0-0.7-0.1-0.8-0.4c-1.8-0.2-2.8-1-3.4-2.3c-0.3,0.2-0.2,0.1-0.5-0.1
			c0.5-0.1-0.1-0.6-0.5-0.7c0.5,0.6,0.7,1,0.9,1.7c-0.3-0.3-0.2-0.7-0.6-0.9c0,0,0,0.2,0,0.2c-0.2-0.2,0-0.3,0-0.4
			c0,0-0.5,0-0.4-0.4c-0.3,0,0,0.3,0,0.4c-0.2-0.1-0.5-0.8-0.8-1c-0.3,0.3,0.2,0.9,0.4,1.3c-0.6-0.2-0.2-1.5-1.4-1.7
			c0.2,0.6,0.4,1.2,0.7,1.8c-0.2,0.1-0.3,0.3-0.2,0.5c-0.2-0.2-0.2-0.5-0.2-0.8c-0.1,0-0.1,0.1-0.2,0.2c-0.4-0.3,0-1.1-0.6-1.3
			c0.1,0.8,0.3,1.6,0.3,2.5c-0.4-0.6-0.2-1.4-0.9-1.9c0.2,0.4,0.1,0.8,0.3,1.2c-0.6-0.1-0.2-1.4-0.8-1.8c0,0.4,0.1,0.8,0.1,1.2
			c-0.3-0.6-0.2-1.3-0.5-1.9c-0.2,0.3-0.2,0.8-0.2,1.6C62.9,21.6,63,21.3,63,21c-0.4,0.3-0.3,1.3-0.6,1.7c0-0.7,0.2-1.4,0.3-2.1
			c-0.4,0.3-0.3,1.1-0.4,1.3c-0.3-0.3,0.1-0.9,0.2-1.4c-0.6,0.2-0.5,1.2-1,1.5c-0.2-0.1,0.2-0.3,0.2-0.6c-0.2,0.1-0.6,0.6-0.2,0.7
			c-0.1,0.1-0.2,0-0.3,0c0-0.7,0.5-0.9,0.7-1.6c-0.4,0-0.5,0.8-0.9,0.8c-0.1-0.1,0.1-0.2,0.2-0.2c-0.2-0.3-0.4,0.2-0.7,0.6
			c-0.3,0.3-0.5,0.2-0.5,0.7c-0.2-0.6-0.5,0.4-0.5,0.8c-0.1-0.1,0-0.3,0-0.4c-0.2,0.1-0.4,0.3-0.5,0.7c0.3-1.5,1.8-2,2.2-3.2
			c-0.8,0.4-1.6,1.4-2,2c-0.1,0,0-0.1,0-0.2c-0.5,1.3-2.1,3.3-2.6,5.5c-0.3-0.2,0-0.3,0.1-0.5c0.1-0.3,0-0.6,0.1-0.8
			c0.1-0.2,0.3-0.3,0.4-0.5c0.2-0.4,0.3-1,0.6-1.5c0.3-0.6,0.8-1.2,1.1-1.8c-0.1-0.3-0.4,0.4-0.6,0.5c0.4-0.8,1.6-1.7,2-2.5
			c-0.6,0.4-1.1,0.7-1.5,1.4c-0.1-0.5-0.7,0.3-1,0.6c-0.2-0.2,0.2-0.2,0.2-0.5c-0.3,0.3-0.8,0.2-1,0.8c0.3,0,0.5-0.7,0.7-0.3
			c0.1,0.3-0.6,0.5-0.7,0.9c-0.2-0.4,0.5-0.5,0.6-1c-0.9,0.6-1.8,1.3-2.4,2.6c-0.5-0.2,0.3-0.7,0.5-1c0.1-0.1-0.1-0.3-0.1-0.3
			c0.3-0.4,0.8-0.7,1.1-1.1c-0.8-0.3-1.6,0.8-2.3,1.3c-0.1-0.3,0.5-0.6,0.6-1c-0.4,0.1-0.4,0-0.9-0.1c-0.1,0.7-1.2,1.4-1.3,2.1
			c-0.1,0.1-0.1-0.1-0.3-0.1c-0.5,0.8-1,1.5-1.4,2.3c0.3-1.2,1.3-2.3,1.9-3.3c0.4,0.1,0.7-0.6,1-0.9c-0.5-0.3-0.8,0-1,0.2
			c0.1-0.4,0.5-0.7,0.9-1c0.2,0.4,0.4,0.1,0.7-0.2c-0.2-0.1-0.3,0.1-0.4,0.3c-0.1-0.3,0.3-0.6,0.6-0.6c0.1,0.1,0,0.1,0,0.1
			c1-0.3,2.3-2.4,3-3.4c-0.4,0-0.2,0.3-0.5-0.1c-0.1,0.1-0.2,0.2,0,0.2c-1.3,0.8-2.8,1.2-3.7,2.4c-0.2,0-0.1-0.1-0.1-0.3
			c-0.3,0.5-0.8,0.7-1.4,1.1c-0.2,0.3,0,0.3,0,0.5c-0.3-0.6-0.7,0.5-1,0.8c-0.2-0.4,0.2-0.3,0.3-0.5c0.8-1.1,2-2.2,3.1-2.6
			c0.3-0.4,0.8-0.7,1.3-0.7c0.2-0.4,0.6-0.3,0.8-0.7c-0.5,0.1-1,0.4-1.5,0.6c0.1-0.4,1.1-0.6,1.5-0.9c-0.4-0.2-0.4,0.3-0.8,0.1
			c0.7-0.2,1.4-0.9,2.2-0.4c0.1-0.2,0.2-0.4,0.5-0.4c0-0.3-0.4-0.1-0.5,0.1c-0.4-0.4-1,0-1.4,0.1c-0.2-0.4,0.5-0.3,0.8-0.3
			c-0.4-0.3-1.6,0-1.7,0.5c-0.6-0.3-0.9,0.1-1.3,0.1c0.3-0.3,0.7-0.3,1-0.5c-0.3-0.4-0.8,0.3-1.2,0.2c-0.1,0-0.1-0.1-0.2-0.2
			c0.4-0.4,0.9-0.7,1.5-0.6c-0.5,0.1-0.9,0.2-1.3,0.4c0.5,0.3,1.3-0.3,1.9-0.3c-0.3-0.3-0.9-0.3-1.4-0.6c-0.7-0.4-0.9-1.3-1.4-1.4
			c0.1-0.1,0.2-0.1,0.2-0.2c-0.3-0.2-0.3-0.5-0.6-0.7c0.1-0.3-0.2-1.2-0.1-1.5c0.3,0.1,0.7,0.8,1.1,1.1c0.2-0.1,0.4-0.1,0.5-0.3
			c1.7-0.4,4.5-0.7,5.7,1c0.2-0.5-0.7-1.1-1.5-1.2c0.1-0.3,0.6,0.3,0.6-0.1c-0.5-0.1-1.2-0.8-2-0.7c0.9-0.2,1.8,0.7,2.4,0.8
			c-0.4-0.9-1.2-0.9-2.1-1.2c0.8-0.1,2.3,0.6,2.8,1.2c0.4-0.7-1.5-1-2.3-1.4c0.9,0.1,1.4,0.3,2.3,0.7c-0.4-0.7-1.3-0.6-2.1-1
			c0.8,0,2.2,0.6,2.4,0.9c0-0.1,0.1-0.2,0.2-0.2c-0.5-0.7-1.4-0.9-2.3-1c-0.2,0-0.1-0.1-0.1-0.3c-0.4,0-0.7-0.2-1.1-0.2
			c-0.5,0-1,0.3-1.5,0.4c-1,0.1-1.8,0.1-2.7,0.5c-3.1,1.3-6.3,4.4-7.8,7.5C45.1,19.2,44.6,19.6,45,19.7L45,19.7L45,19.7z M54.1,13.9
			c0.7,0.8,2.1,1,3.1,0.2c-0.5,0-0.9,0.4-1.5,0.4c-0.2-0.2,0.4,0,0.3-0.3c-0.2-0.2-0.3,0-0.5-0.1c0.1-0.1,0.6-0.1,0.6,0.1
			c0.2,0,0-0.1,0.1-0.2c1,0,2-0.1,2.9-0.2C57.9,13.2,55.5,13.1,54.1,13.9L54.1,13.9L54.1,13.9z M66.3,20.9c-0.1,0.2,0.2,0.3,0.5,0.4
			C66.8,21.1,66.6,21,66.3,20.9L66.3,20.9L66.3,20.9z M71.4,23.7c-0.3-0.5-0.8-1-1.4-1.4C70.1,23,70.6,23.4,71.4,23.7L71.4,23.7
			L71.4,23.7z M70.1,21.7c-0.4,0.2,0.2,0.6,0.5,0.7C70.7,22,70.2,21.9,70.1,21.7L70.1,21.7L70.1,21.7z M69.2,19.5
			c-0.1,0.2,0.2,0.3,0.5,0.4C69.6,19.7,69.5,19.6,69.2,19.5L69.2,19.5L69.2,19.5z M46.5,17.9c-0.1,0-0.2,0-0.3,0.2
			C46.3,18.1,46.4,18.1,46.5,17.9L46.5,17.9L46.5,17.9z M60.3,13.7c0.1,0.5,0.2,0.9,0.4,1.3c-0.8-0.1-1-0.7-1.7-0.9
			c-1.4-0.4-3.1,1.3-4.5,0.7c-0.5-0.2-0.4-0.7-1.2-0.9c0.3,1,1.2,1.6,2.2,1.7c0.7,0.1,1.3-0.3,1.9-0.2c1,0.1,1.9,0.6,2.2,1.7
			c-2,0.4-2.9,3.4-4.5,4.7c1.6-0.6,2.7-2.3,4.3-3.1c0.4,0.2,0.5-0.2,0.9,0.1c-1.1,0.3-2,0.9-2.7,1.8c-1,0.5-1.7,1.4-2.8,1.6
			c0.2,0.2,0.7,0,1-0.1c1.4-0.4,3-1.5,4.2-2.4c1-0.4,1.9-0.9,3.2-0.3c0.3,0.2,0.6,0.5,1,0.6c0.4,0.1,1,0,1.5,0.2
			c0.5,0.1,1,0.2,1.5,0.5c1.2,0.6,1.3,1.9,2.4,2.5c-0.3-0.6-0.8-1-1.2-1.6c-0.3-0.6-0.3-0.9-0.9-1.2c-0.1,0-0.1-0.2-0.1-0.3
			c-0.3-0.2-0.8-0.2-1.2-0.5c0.6-0.3,1.3,0.1,1.6,0.3c0.7,0.4,0.8,1.1,1.1,1.7c0.1,0.2,0.4,0.3,0.5,0.6c0.5-1.3-0.6-2.7-2.2-3.1
			c-0.4-0.4-0.6-0.8-0.6-1.3c0.2-0.2,0.6,0,0.8-0.1c0.1-0.4,1-0.3,0.7-0.7c1.1-0.4,2.2-0.9,2.9-2.2c-0.1-0.4-0.6,0.1-1,0.3
			c-0.4,0.2-0.9,0.2-1.2,0.5c-0.6-0.1-1,0.3-1.5,0.3c0.2-0.5,1.2-0.7,1.9-0.7c0.4-0.2,0.7-0.5,1.1-0.6c-1.6-0.2-3.7,0-4.8,1.4
			c0,0.4,0.5,0.6,0.6,1c-0.4,2.8-3.5,2-4.3,0.3c0.3-0.1,0-0.3,0.3-0.4c0.3,1.1,2.5,2.4,3.2,0.7c-0.4,0.1-0.8,0.1-1.2,0.3
			c-1-0.2-1-0.8-1.2-1.4c-0.1,0.2-0.3,0.3-0.4,0c-0.3-1,0.8-1.2,1.2-2.2c-1.1-0.5-1.3-2-1.2-3.2c-0.7,1.3-0.4,2.8-0.4,4
			c-0.7-1.5-0.5-2.7,0.1-4.4c-0.3-0.4,0-1-0.2-1.4c-0.2,0.4,0,1.3-0.4,2.1C61.3,12.1,60.4,12.7,60.3,13.7L60.3,13.7L60.3,13.7z
			 M57.9,16.1c-0.8-0.2-1.9,0.2-2.5,0.1c0.6,0.5,1.6,0.5,2.1,0.2c0.5,0.5,0.8,0.3,1.4,0.8C59.4,16.5,58.4,16.2,57.9,16.1L57.9,16.1
			L57.9,16.1z M57.2,17.7c-0.2,0-0.3,0.2-0.5,0.1C56.7,18,57.2,18,57.2,17.7L57.2,17.7L57.2,17.7z M61.8,8.1c0-0.2-0.1-0.3-0.3-0.3
			C61.5,7.9,61.6,8,61.8,8.1L61.8,8.1L61.8,8.1z M59.9,13.7c0.3,0-0.1-0.6-0.3-0.4C59.6,13.4,59.9,13.5,59.9,13.7L59.9,13.7
			L59.9,13.7z M60.6,11.7C60.5,12.1,61.2,11.8,60.6,11.7L60.6,11.7L60.6,11.7z M62.5,9.4c0.2-0.3-0.2-0.3-0.1-0.6
			C62.1,8.9,62.2,9.4,62.5,9.4L62.5,9.4L62.5,9.4z M62.4,10.9c0.4-0.2-0.3-0.9,0.2-1.2c-0.1,0-0.2-0.1-0.2-0.2
			C62.2,9.8,62.5,10.5,62.4,10.9L62.4,10.9L62.4,10.9z M64.1,13.1c-0.4,0-0.5-0.2-0.9-0.4c0.2,0.4,0.4,1.2,0.8,1.3
			C63.9,13.6,64.1,13.5,64.1,13.1L64.1,13.1L64.1,13.1z M65.3,9.5c-0.1,0.2-0.2,0.2-0.2,0.3c0.3,0.2,0.4,0.3,0.6,0.7
			c0.7,0,1.1-1,0.9-1.3C66.1,8.7,64.7,9,65.3,9.5L65.3,9.5L65.3,9.5z M64.9,11.7c0.1,0.3-0.2,1.1,0.2,0.9c0,0.3-0.7,0.6-0.8,1.4
			c0.8,0.3,1.4,0.2,1.9,0c-0.2-0.4,0.1-0.4,0.3-1c-0.4,0.2-0.4-0.2-1.1-0.3c0.2-0.4,0.7,0,1.1,0c0.5-0.7,0.6-0.8,0.5-1.7
			c-0.1,0.7-0.8,0.9-1.6,0.6c0.3-0.4,0.7-0.3,1.1-0.3c-0.1-0.3,0.6-0.7,0.5-1.2c-0.3,0.4-0.8,0.6-1.2,0.9c-0.3-0.2-0.4-0.6-0.9-0.8
			c-0.1,0.4-0.2,0.8-0.2,1.2C64.7,11.6,64.9,11.6,64.9,11.7L64.9,11.7L64.9,11.7z M63.3,17.2c0.6,0.5,1-0.1,1.7,0.1
			c0.2-0.5-0.1-0.8,0.1-1.3c0.4-0.5,0.8-0.9,1-1.5c-0.5,0-1.1,0-1.8-0.4c0.1,0.3-0.5,0.8-0.4,1.1c-0.4,0.2-0.9,0.5-1,1.1
			C63.3,16.6,63.4,16.9,63.3,17.2L63.3,17.2L63.3,17.2z M61.7,19.8c0.1,0.4-0.5,0.3-0.5,0.9c0.5,0.1,0.6-0.8,1-0.8
			C62.2,19.6,61.9,19.9,61.7,19.8L61.7,19.8L61.7,19.8z M62.9,19.8c-0.4,0-0.2,0.4-0.4,0.6c0.1,0,0.2-0.2,0.3-0.1
			C62.9,20.1,62.9,20,62.9,19.8L62.9,19.8L62.9,19.8z M69.5,14.1c-0.8-0.4-2,0-2.9-0.5c-0.2,0.7-0.2,0.5-0.3,1.1
			C67.3,14.4,68.4,14.2,69.5,14.1L69.5,14.1L69.5,14.1z M64.5,21.5c0.2-0.3-0.1-1.1-0.5-0.9C63.9,21,64.4,21.1,64.5,21.5L64.5,21.5
			L64.5,21.5z M68.9,18.9c-0.4,0.1-0.9-0.3-1.6-0.4C67.3,18.6,68.6,19.5,68.9,18.9L68.9,18.9L68.9,18.9z M73.1,15.6
			c0.5,0.2,1.1,0.3,1.5,0.6c-0.2-0.4-1.1-0.9-2.1-1.2c-0.8-0.3-0.9-0.3-1.2,0c-0.1,0.1,0,0.2,0.1,0.3C71.9,15.1,72.5,15.4,73.1,15.6
			L73.1,15.6L73.1,15.6z M80,29.8c-0.1,0-0.1-0.1-0.1-0.1c-0.2-0.1-0.3,0.4,0,0.3C79.9,30,79.9,29.9,80,29.8L80,29.8L80,29.8z
			 M79.3,31.6L79.3,31.6C79.2,32,79.9,31.7,79.3,31.6z"/>
		<path id="XMLID_6789_" class="st0" d="M72.7,19c0-0.1,0-0.1,0.1-0.2c0.1,0,0.1,0.1,0.1,0.1c0.3,0-0.1-0.3-0.3-0.3
			C72.4,18.8,72.5,18.9,72.7,19z"/>
		<path id="XMLID_6788_" class="st0" d="M56.8,23.8c0.6-0.4,1-1.1,1.5-1.7C57.7,22.5,57.3,23.2,56.8,23.8z"/>
		<path id="XMLID_6787_" class="st0" d="M55.7,24.7c0.3,0.1,0.6-1,1.1-1.2c-0.6,0.1-1.3,1.7-2.1,2c-0.5,1.4-1.3,2-1.3,3.2
			c0.6-1.2,1.2-2.7,2.2-3.8c0.1,0.1,0,0.3,0.2,0.2C55.8,24.9,55.8,24.7,55.7,24.7z"/>
		<path id="XMLID_6784_" class="st0" d="M46.2,19.1c0.7-0.7,1.7-1.6,2.2-2.1c-0.2,0-0.3,0.2-0.5,0.2c0.3-0.5,0.7-0.1,1-0.5
			c-0.1-0.1-0.2,0-0.3,0c0.5-0.5,1.3-0.6,1.8-1.2c0.2,0.1,0.5,0.3,0.6,0c-0.3,0-0.4,0-0.4-0.3c0.5,0,1.1-0.6,1.9-0.6
			c-0.2,0.3-1,0.3-0.6,0.5c-0.2,0.1-0.9,0.1-0.8,0.3c0.5-0.1,1.3-0.4,1.7-0.2c-0.3,0.1-1,0.1-1,0.4c0.5,0.1,1.4-0.6,1.7,0
			c-0.7-0.3-3,0.8-2,0c-0.4,0.2-1.1,0.1-1.5,0.7c0.4-0.1,0.7-0.6,1.2-0.4c-1,0.6-2,0.8-2.7,1.4c-0.2,0.1-0.1,0.2-0.3,0.3
			c0,0-0.1-0.1-0.2,0c0,0,0.2,0,0.2,0c-0.2,0.5-1.1,1.1-1.5,1.5c0-0.2,0.4-0.3,0.2-0.5C46.6,18.7,46.3,19.5,46.2,19.1L46.2,19.1z
			 M47,18.5c0.4,0,0.6-0.6,0.9-0.7l0,0C47.7,17.7,47.2,18.2,47,18.5z"/>
		<path id="XMLID_6783_" class="st0" d="M46.1,19.8c0.2,0,0.3-0.3,0.5-0.4C46.5,19.3,46.1,19.5,46.1,19.8z"/>
		<path id="XMLID_6782_" class="st0" d="M47.8,16.9"/>
		<path id="XMLID_6781_" class="st0" d="M44,28.4c0.5-0.4,0-1.1,0.3-1.7c-0.2-0.5-0.1,0.2-0.3,0.6C44.3,27.5,43.9,28,44,28.4z"/>
		<path id="XMLID_6780_" class="st0" d="M49.1,14.1c0,0.3,0.4,0,0.5-0.1C49.5,13.7,49.3,14.3,49.1,14.1z"/>
		<path id="XMLID_6779_" class="st0" d="M48.9,15.8c0.4-0.1,0.7-0.3,1-0.7C49.6,15.3,49.1,15.3,48.9,15.8z"/>
		<path id="XMLID_6778_" class="st0" d="M49.7,13.9c0.2,0,0.4-0.2,0.6-0.2C50.3,13.6,49.7,13.7,49.7,13.9z"/>
		<path id="XMLID_6777_" class="st0" d="M45.1,26.9c-0.1-0.2-0.2,0.7-0.2,0.9C45,28,45,27.1,45.1,26.9z"/>
		<path id="XMLID_6776_" class="st0" d="M45.4,26.7"/>
		<path id="XMLID_6775_" class="st0" d="M50.8,13.3c0,0.3,0.3,0,0.4,0C51.2,13.1,50.9,13.3,50.8,13.3z"/>
		<path id="XMLID_6774_" class="st0" d="M46.9,26.7C46.8,26.7,46.8,26.8,46.9,26.7C46.5,27.6,47.1,27.2,46.9,26.7z"/>
		<path id="XMLID_6773_" class="st0" d="M46.5,29.7c0.1-0.2,0-0.2-0.1-0.1c0,0.6-0.1,1.1-0.1,1.7C46.5,30.9,46.4,30.1,46.5,29.7z"/>
		<path id="XMLID_6772_" class="st0" d="M52.8,16"/>
		<path id="XMLID_6771_" class="st0" d="M46.3,33.3c-0.2,0,0.4,0.9,0.4,1.3c0.3-0.1-0.2-0.5,0-0.9C46.3,33.8,46.5,33.5,46.3,33.3z"
			/>
		<path id="XMLID_6770_" class="st0" d="M48.9,28"/>
		<path id="XMLID_6769_" class="st0" d="M53.2,17.9"/>
		<path id="XMLID_6768_" class="st0" d="M53.7,17c-0.2,0.1,0.7-0.1,1-0.3C54.5,16.5,54,16.9,53.7,17z"/>
		<path id="XMLID_6767_" class="st0" d="M53.2,18.2c0,0.3,0.3,0,0.4,0C53.6,17.8,53.3,18.4,53.2,18.2z"/>
		<path id="XMLID_6766_" class="st0" d="M51.3,23.1c0.4-0.2,0.2-0.4,0.5-0.8C51.7,22.1,51.4,22.7,51.3,23.1z"/>
		<path id="XMLID_6765_" class="st0" d="M55,14c-0.1,0.2,0.2-0.1,0.4,0.1C55.4,13.9,55,14,55,14z"/>
		<path id="XMLID_6764_" class="st0" d="M51.3,23.8c1.4-1.3,3.2-2.7,4.9-4.2c-0.4-0.1-0.6,0.4-0.9,0.6
			C54.1,21.3,52.4,22.3,51.3,23.8z"/>
		<path id="XMLID_6763_" class="st0" d="M53.7,20.7c0.4,0,1.2-0.6,1.6-1C54.8,20,54.2,20.3,53.7,20.7z"/>
		<path id="XMLID_6762_" class="st0" d="M54.4,19.1"/>
		<path id="XMLID_6761_" class="st0" d="M48.1,36.1c-0.4,0.1,0.1,0.5,0,0.8C48.3,36.8,47.9,36.4,48.1,36.1z"/>
		<path id="XMLID_6760_" class="st0" d="M50.8,30.6c-0.4,0.5,0,1.3-0.2,1.9C51,32,50.6,31.2,50.8,30.6z"/>
		<path id="XMLID_6759_" class="st0" d="M48.3,37.2"/>
		<path id="XMLID_6758_" class="st0" d="M55.7,17.6c-0.1,0.5,0.4-0.1,0.5,0C56.2,17.2,56,17.9,55.7,17.6z"/>
		<path id="XMLID_6757_" class="st0" d="M52.7,26.2C52.7,26,52.5,26.2,52.7,26.2c0,0.2-0.1,0.2-0.2,0.2
			C52.5,26.6,52.9,26.3,52.7,26.2z"/>
		<path id="XMLID_6756_" class="st0" d="M51.7,28.7c-0.4,0.4-0.2,1.2-0.3,1.7C51.7,30,51.6,29.2,51.7,28.7z"/>
		<path id="XMLID_6755_" class="st0" d="M52,30.4c-0.1-0.3-0.1,0.3-0.2,0.5C52.1,30.8,51.8,30.5,52,30.4z"/>
		<path id="XMLID_6754_" class="st0" d="M51.2,32.1c-0.1,0.3,0.2,0.4,0,0.8C51.3,33.1,51.5,32.2,51.2,32.1z"/>
		<path id="XMLID_6753_" class="st0" d="M55.3,25.9c-0.4,0-0.2,0.3-0.3,0.5C55.3,26.3,55,26,55.3,25.9z"/>
		<path id="XMLID_6752_" class="st0" d="M54.7,26.9c0.1,0.3,0-0.3,0.2-0.3C55.1,26.3,54.5,26.8,54.7,26.9z"/>
		<path id="XMLID_6751_" class="st0" d="M52.7,32.3c0.2,2.8,1,5.4,2.7,7.5c-0.2-0.7-0.9-1.4-1.3-2.3c-0.4-0.9-0.6-1.8-0.9-2.6
			C53.1,34,53,33.1,52.7,32.3z"/>
		<path id="XMLID_6750_" class="st0" d="M54.1,30.1c0-0.3-0.4,0.7-0.1,0.7C54,30.6,54.1,30.3,54.1,30.1z"/>
		<path id="XMLID_6749_" class="st0" d="M56,26.5c-0.2-0.3-0.7,0.9-0.8,1.2c-0.7,2-0.6,4.7-0.6,6.5C54.9,32,54.5,29.1,56,26.5z"/>
		<path id="XMLID_6748_" class="st0" d="M54,31.2c-0.3,0.6-0.3,1.7,0,2.2C53.9,32.7,53.9,32,54,31.2z"/>
		<path id="XMLID_6747_" class="st0" d="M54,33.8c-0.3,0,0.1,1,0.1,1.4C54.4,34.9,53.8,34.3,54,33.8z"/>
		<path id="XMLID_6746_" class="st0" d="M56,30.1c0.2-0.5,0.4-1.7,0.5-2.5C56.2,28.5,56.1,29.3,56,30.1z"/>
		<path id="XMLID_6745_" class="st0" d="M56.5,37.6c0.2-0.8-0.3-1.9-0.4-2.8C56,35.2,56.4,36.8,56.5,37.6z"/>
		<path id="XMLID_6744_" class="st0" d="M56.4,38.5c-0.3,0,0.1,0.9,0.2,0.4C56.3,38.8,56.5,38.6,56.4,38.5z"/>
		<path id="XMLID_6743_" class="st0" d="M63.3,21.3c-0.1,0-0.1,0.2,0,0.2C63.2,22.3,63.5,21.6,63.3,21.3z"/>
		<path id="XMLID_6742_" class="st0" d="M56.6,39.1c0.3,1.5,1.8,2.4,2.7,3.6c-0.1-0.4-0.3-0.6-0.5-0.8C58,40.9,57.2,40.1,56.6,39.1z
			"/>
		<path id="XMLID_6741_" class="st0" d="M57.7,37.7c0-0.2,0.1,0.7,0.4,0.9C58,38.2,57.9,37.9,57.7,37.7z"/>
		<path id="XMLID_6740_" class="st0" d="M63.8,22.2c-0.4,0.3,0.1,0.8,0,1.2C64,23.4,63.7,22.5,63.8,22.2z"/>
		<path id="XMLID_6739_" class="st0" d="M58.6,39.5c0-0.1-0.1-0.1-0.2-0.2c0.4,1.1,1.5,2.9,2.6,3.3c-0.8-0.5-1-1.2-1.3-2
			c-0.1-0.2,0.1,0.5,0.2,0.7c-0.4,0-0.5-0.6-0.6-0.7C59.1,40.3,58.8,40,58.6,39.5z"/>
		<path id="XMLID_6738_" class="st0" d="M65.4,23.1"/>
		<path id="XMLID_6737_" class="st0" d="M60.7,38.8c-0.2,0.1,0,0.7-0.1,1C61,39.6,60.7,39.1,60.7,38.8z"/>
		<path id="XMLID_6736_" class="st0" d="M67.1,22.2c-0.2,0,0.1,0.5,0.3,0.6C67.6,22.4,67,22.5,67.1,22.2z"/>
		<path id="XMLID_6735_" class="st0" d="M61.7,37.3"/>
		<path id="XMLID_6734_" class="st0" d="M67.4,23.2"/>
		<path id="XMLID_6733_" class="st0" d="M60.9,39.9c-0.3,0.9,0.4,2.1,0.8,3.1C61.6,42.2,60.8,41.1,60.9,39.9z"/>
		<path id="XMLID_6732_" class="st0" d="M62,38.8c-0.1,0.2,0.1,1.7,0.3,2.3C62.3,40.9,62,39.4,62,38.8z"/>
		<path id="XMLID_6731_" class="st0" d="M71.1,15.7c-0.1,0.4,0.8,0.3,1,0.2c0.2,0.2,1.1,0.5,1.5,0.6c0.3,0.1,0.2,0.2,0.1-0.1
			C72.8,16,71.8,15.5,71.1,15.7z"/>
		<path id="XMLID_6730_" class="st0" d="M63.5,35.9c-0.3,0.1,0,0.6-0.1,0.9C63.7,36.7,63.3,36.2,63.5,35.9z"/>
		<path id="XMLID_6729_" class="st0" d="M63.5,37.6c-0.2,1.5-0.2,3.6,0,5.1c0.3,0,0.1-0.5,0.1-0.7c0-0.7,0-1.8-0.1-2.7
			C63.6,38.6,63.5,38.1,63.5,37.6z"/>
		<path id="XMLID_6728_" class="st0" d="M72.6,17.6c0.8,0.7,1.9,1.2,2.3,2.1c-0.1,0.1-0.1-0.1-0.3-0.1c0.8,0.4,1.2,1.8,1.8,2.7
			c0-0.4-0.3-0.7-0.4-1c0.1-0.3,0.2,0.3,0.3-0.1c-1-0.7-1.1-1.7-2.1-2.4c0-0.1,0.1-0.2,0.2-0.2c-0.8-0.4-1.3-1.1-2.4-1.5
			C72,17.4,72.2,17.5,72.6,17.6c-0.1,0.1-0.2,0.1-0.4,0.1C72.2,17.9,72.8,17.9,72.6,17.6z"/>
		<path id="XMLID_6727_" class="st0" d="M72.3,21.4c0.1,0.2,0.2,0.4,0.5,0.5C72.7,21.7,72.5,21.5,72.3,21.4z"/>
		<path id="XMLID_6726_" class="st0" d="M64.8,41c-0.2,0.6,0,1.1,0.1,0.1C64.9,41.1,65.1,40.6,64.8,41z"/>
		<path id="XMLID_6725_" class="st0" d="M74.3,16.7c-0.3-0.1,0.1,0.2,0,0.3C74.5,16.8,75.5,17.5,74.3,16.7
			C74.3,16.8,74.3,16.8,74.3,16.7z"/>
		<path id="XMLID_6724_" class="st0" d="M64.8,42.4c-0.1-0.3-0.1,0.4-0.1,0.6C64.9,42.9,64.7,42.5,64.8,42.4z"/>
		<path id="XMLID_6723_" class="st0" d="M73.2,20.9"/>
		<path id="XMLID_6722_" class="st0" d="M78.3,24.1c0.3,0.1,0.4,0.4,0.3,0.7c0.5-0.1,0.1-0.6,0.2-1c-0.2,0,0,0.1-0.1,0.3
			c-0.4-0.1-0.4-0.7-0.5-1.2c0.2,0,0.3,0.6,0.3,1c0.3-0.1,0.1-0.5,0.3-0.5c-0.8-2.2-2.1-4.2-3.9-6.1c0.5,1.2,2.6,2.8,2.6,4.2
			c0.1,0.2,0.2,0.5,0.5,0.4c-0.4,0.7,0.6,1.4,0.3,2.3c0.5,0.3,0,1.1,0.5,1.4c-0.4,0,0,0.7,0,0.4c0,0-0.2,0.1-0.2,0.2
			c0,0.3,0.2,0.7,0.1,1c-0.1,0.6-0.5,1.2-0.3,1.8c-0.5,0.8-0.2,1.4-0.7,2.3c0.1,0,0.1,0,0.1-0.1c0.1,0,0.1,0.1,0.1,0.1
			c0.2,0,0.3-0.6,0.4-0.1c0.2-0.2,0.3-0.8,0.5-1.5c0-0.2,0.4-0.6,0.1-0.7c-0.1,1-0.3,1.3-0.8,2.1c-0.1-0.3,0.2-0.8,0.2-1.2
			c0.1,0.1,0,0.2,0,0.3c0.4-0.3,0-0.6,0-0.9c0.1-0.2,0.2,0,0.3-0.1c0-0.1,0.1-0.6,0.2-0.7c0,0-0.2,0.1-0.2,0.2
			c-0.1-0.2,0.1-0.2,0.1-0.4c0.3-0.9,0-2.5,0.3-3.4c-0.1,0-0.2,0-0.4,0C78.6,24.7,78.4,24.4,78.3,24.1z"/>
		<path id="XMLID_6721_" class="st0" d="M74.1,19.8"/>
		<path id="XMLID_6720_" class="st0" d="M75.5,16.9c-0.3,0.3,0.8,0.6,0.3,0.3C75.6,17.2,75.8,17,75.5,16.9z"/>
		<path id="XMLID_6719_" class="st0" d="M74.3,20.6c-0.3,0.2,0.3,0.6,0.3,1C74.9,21.4,74.3,20.9,74.3,20.6z"/>
		<path id="XMLID_6718_" class="st0" d="M76.7,18.2c-0.1,0.3-0.2-0.1-0.7-0.2c1,1.1,1.9,2.2,2.5,3.5c0.2-0.5-0.7-1.1-0.7-1.9
			c-0.5-0.3-0.6-0.8-1-1.1C77.2,19,76.7,18.4,76.7,18.2z"/>
		<path id="XMLID_6717_" class="st0" d="M70.8,32.2c-0.2,0.1-0.2,0.9-0.2,1.2c-0.2,0.4-0.1,0.7,0.1,0.1
			C70.6,33.1,70.8,32.6,70.8,32.2z"/>
		<path id="XMLID_6716_" class="st0" d="M75.2,22.9"/>
		<path id="XMLID_6715_" class="st0" d="M72.3,29.8"/>
		<path id="XMLID_6714_" class="st0" d="M68.1,41c0.2,0.4,0.3-0.3,0.5-0.2c0-0.9,0.4-1.1,0.6-2c0.3-1.3-0.2,0.5-0.3,0.8
			C68.5,40.3,68.4,40.5,68.1,41z"/>
		<path id="XMLID_6713_" class="st0" d="M72.4,31.1c-0.2-0.2,0,0.6,0,1.1c0,0.4-0.3,1.2-0.1,0.6C72.7,32.1,72.4,31.7,72.4,31.1z"/>
		<path id="XMLID_6712_" class="st0" d="M69,41.3"/>
		<path id="XMLID_6711_" class="st0" d="M76.4,21.5c-0.1-0.3-0.1,0.5,0.2,0.5C76.7,21.7,76.5,21.6,76.4,21.5z"/>
		<path id="XMLID_6708_" class="st0" d="M70.1,39.2c-0.2,0.4-0.4,0.6-0.7,0.8c0.6-0.6,1.1-1.8,1.4-2.3c0,0.2-0.3,0.4-0.1,0.5
			c0.2-0.1,0.2-0.8,0.6-0.6c-0.6,0.9-0.7,2-1.3,2.4C70,39.7,70.3,39.3,70.1,39.2L70.1,39.2z M70.4,38.9L70.4,38.9
			C70.9,38.6,70.6,38,70.4,38.9z"/>
		<path id="XMLID_6707_" class="st0" d="M72.4,33.2c-0.2-0.1,0.1,0.2-0.1,0.4C72.5,33.7,72.4,33.3,72.4,33.2z"/>
		<path id="XMLID_6706_" class="st0" d="M76.6,22.2c0.1,0.3,0.4,0.4,0.6,0.7C77.2,22.4,76.9,22.3,76.6,22.2z"/>
		<path id="XMLID_6705_" class="st0" d="M76.6,22.5c-0.3,0,0.1,0.3-0.1,0.5C76.8,23,76.6,22.6,76.6,22.5z"/>
		<path id="XMLID_6704_" class="st0" d="M72.3,33.7c-0.3,1.1-0.3,2.2-1,3.6c0.1,0.3,0.2-0.8,0.5-0.2c0.1-0.2-0.1-0.2-0.2-0.3
			c0.1-0.2,0.1-0.3,0.2-0.5c0.1,0,0,0.1,0,0.2C72.1,35.7,72.3,34.7,72.3,33.7z"/>
		<path id="XMLID_6703_" class="st0" d="M76.2,24.8c-0.1-0.1,0.2,1.7,0.2,0.8C76.5,25.3,76.4,25.2,76.2,24.8z"/>
		<path id="XMLID_6702_" class="st0" d="M77.4,23c-0.2-0.2,0.3,0.3,0.2,0.5C77.9,23.4,77.6,23,77.4,23z"/>
		<path id="XMLID_6701_" class="st0" d="M76.5,26.7"/>
		<path id="XMLID_6700_" class="st0" d="M71.1,40.6c0.5-0.2,0.8-0.8,1.3-1.1C72.1,39.3,71.4,40.2,71.1,40.6z"/>
		<path id="XMLID_6699_" class="st0" d="M77.4,26.3c-0.2-0.1,0.1,0.2-0.1,0.4C77.5,26.7,77.4,26.4,77.4,26.3z"/>
		<path id="XMLID_6698_" class="st0" d="M73.8,36.4c0.1,0,0.2-0.1,0.3-0.2C74.2,36,73.9,36.3,73.8,36.4z"/>
		<path id="XMLID_6697_" class="st0" d="M72.5,40.2c0.4,0.2,1-0.7,1.3-1.3C73.4,39.3,73,39.9,72.5,40.2z"/>
		<path id="XMLID_6696_" class="st0" d="M79.2,23.1c-0.2,0.3,0.2,1,0.2,1.6c-0.1,0.2,0,0.2,0.1,0.1C79.5,24.1,79.4,23.6,79.2,23.1z"
			/>
		<path id="XMLID_6695_" class="st0" d="M73.5,38c0.3-0.1,0.4-0.5,0.6-0.8C73.9,37.3,73.7,37.8,73.5,38z"/>
		<path id="XMLID_6694_" class="st0" d="M76.3,31.7C75.6,32.5,76,33.8,75,35c0,0.2,0.3-0.1,0.1,0.4C75.8,34.3,75.8,33,76.3,31.7z"/>
		<path id="XMLID_6693_" class="st0" d="M77.1,29.5"/>
		<path id="XMLID_6692_" class="st0" d="M74.9,35.9C74.6,35.9,74.7,36.6,74.9,35.9C75,35.9,75,35.8,74.9,35.9z"/>
		<path id="XMLID_6691_" class="st0" d="M73.8,38.8c0.4,0.2,0.3-0.6,0.7-0.4c0-0.1-0.2-0.2-0.1-0.4C74.2,38.2,74,38.6,73.8,38.8z"/>
		<path id="XMLID_6690_" class="st0" d="M74.4,37.9c0.4-0.2,0.6-0.7,0.9-1.2C74.9,37,74.7,37.6,74.4,37.9z"/>
		<path id="XMLID_6689_" class="st0" d="M79.7,24.7"/>
		<path id="XMLID_6688_" class="st0" d="M77.7,30.9c-0.2-0.1-0.2,0.6-0.3,1c-0.1,0.3-0.5,0.8-0.1,0.9C77.3,32.2,77.6,31.5,77.7,30.9
			z"/>
		<path id="XMLID_6687_" class="st0" d="M76,36c-0.1,0-0.1,0.1-0.2,0c0.2-0.1,0.3-0.4,0.4-0.7c0.1,0,0,0.1,0,0.2
			c0.1-0.3,0.5-0.7,0.7-1.1c-0.7,0.5,0.3-1.4,0.3-1.5c-0.4-0.3-0.4,1.2-0.6,1.7c-0.1,0.3-0.5,0.5-0.7,0.9c-0.2,0.4-0.7,1.1-0.3,1.4
			C75.3,36.4,75.8,36.4,76,36z"/>
		<path id="XMLID_6686_" class="st0" d="M77.7,32.3c0.1-0.1,0.3,0,0.3,0.1c0.1,0,0.2-0.3,0.3-0.6c-0.1,0-0.1,0-0.1,0.1
			c-0.1,0-0.1,0-0.2-0.1c0,0.1,0.2,0.2,0.1,0.3c-0.3-0.1-0.2-0.3-0.1-0.5c-0.3,0.2-0.4,0.9-0.6,1.4C77.6,32.9,77.6,32.4,77.7,32.3z"
			/>
		<path id="XMLID_6685_" class="st0" d="M77.8,32.8C77.7,32.8,77.7,32.8,77.8,32.8C77.2,33.4,78.3,32.5,77.8,32.8z"/>
	</g>
	<g id="XMLID_6433_">
		<path id="XMLID_6683_" class="st0" d="M7.5,28.1c0.1,0,0.2-0.1,0.2-0.3C7.5,27.9,7.5,27.9,7.5,28.1z"/>
		<path id="XMLID_6682_" class="st0" d="M7.5,31.5c0.1,0,0.2-0.1,0.2-0.3C7.5,31.3,7.5,31.3,7.5,31.5z"/>
		<path id="XMLID_6681_" class="st0" d="M8.1,34.7c0.1,0.2,0.3,0.5,0.3,0.8C8.6,35.3,8.4,34.7,8.1,34.7z"/>
		<path id="XMLID_6680_" class="st0" d="M11.9,29.9c-0.2,0-0.2,0.5,0.1,0.4C11.9,30.2,11.9,30,11.9,29.9z"/>
		<path id="XMLID_6679_" class="st0" d="M11.9,30.7"/>
		<path id="XMLID_6678_" class="st0" d="M12.5,29.6c0.1,0.6,0.6,0.6,1.1,0.4c0-0.4-0.9,0.3-0.7-0.4C12.7,29.5,12.7,29.6,12.5,29.6z"
			/>
		<path id="XMLID_6677_" class="st0" d="M14.7,32.4c0.5,0.3,0,1-0.5,1.1c-0.2-0.1-0.2-0.3-0.1-0.5c-0.4,0-0.2,0.4-0.2,0.6
			c-0.1,0.2-0.3-0.2-0.4,0.1c-0.2,0-0.1-0.3-0.3-0.4c0.3-0.3,0.6-0.5,0.8-0.8c0.2,0.1,0.7-0.1,0.8-0.4c-0.5-0.1-1,0.3-1.4,0.7
			c-0.2,0.2-0.5,0.3-0.4,0.7c0.1,1,2,0.2,2.2-0.3C15.2,33.1,15.5,32.2,14.7,32.4z"/>
		<path id="XMLID_6676_" class="st0" d="M16.2,15.6c-0.2,0,0.1,0.1,0.2,0.1C16.5,15.7,16.3,15.6,16.2,15.6z"/>
		<path id="XMLID_6675_" class="st0" d="M16.1,29.2c0.3,0.4,0.6,1,1.1,1.3c-0.7,0.8-0.1,2,0.8,1.9c0.7-0.1,0.5-0.9,1.2-1.1
			C18.6,31,18.4,32,18,32.1c-0.6-0.1-1-0.3-1-1c0-0.4,0.3-0.4,0.5-0.5C17,30.1,16.7,29.5,16.1,29.2z"/>
		<path id="XMLID_6674_" class="st0" d="M16.6,14.6c0.1,0.2,0.6,0,0.8,0.1C17.3,14.4,16.9,14.6,16.6,14.6z"/>
		<path id="XMLID_6671_" class="st0" d="M17.5,38c-0.8-0.3-0.9-1.3-0.3-1.8c-0.1,0.7-0.4,1.4,0.4,1.5c0-0.1,0.1-0.2,0.2-0.3
			c-0.7-0.2-0.4-1.9,0.4-1.8C18.7,36.5,18.3,37.6,17.5,38L17.5,38z M17.8,37.1c0.4,0,0.3-0.9,0.2-1.2l0,0
			C17.6,36.1,17.5,36.9,17.8,37.1z"/>
		<path id="XMLID_6670_" class="st0" d="M17.2,16.2c0.1,0.4,0.9,0.2,1.3,0.4C18.2,16.2,17.5,16.4,17.2,16.2z"/>
		<path id="XMLID_6669_" class="st0" d="M17.7,40c0.3,0,0-0.4,0.2-0.6C17.7,39.5,17.7,39.7,17.7,40z"/>
		<path id="XMLID_6668_" class="st0" d="M19.7,30.1c-0.3-0.4-0.9-0.6-1.2-1.1c0.3-0.7,1.9-0.8,1.2-2c0.1,0.7-0.1,1.3-1.1,1.3
			C17.9,29.1,19,29.8,19.7,30.1z"/>
		<path id="XMLID_6667_" class="st0" d="M19.7,30.6c0.2,0.6,1,0.8,1.5,1.1c-0.3-0.4-0.7-0.6-1.2-0.7c-0.1-0.9,1.1-0.9,0.7-1.8
			C20.6,29.8,20,30.1,19.7,30.6z"/>
		<path id="XMLID_6666_" class="st0" d="M20.3,28.7c0.1,0.1,0.1,0.4,0.4,0.4C20.6,28.8,20.5,28.7,20.3,28.7z"/>
		<path id="XMLID_6665_" class="st0" d="M20.6,38.6c0.1-0.1,0.2-0.2,0.2-0.4C20.6,38.2,20.5,38.4,20.6,38.6z"/>
		<path id="XMLID_6664_" class="st0" d="M23.1,30.2c-0.5,0.1-1,1-1.3,1.6C22.5,31.2,22.7,30.7,23.1,30.2z"/>
		<path id="XMLID_6663_" class="st0" d="M22,26.9c0.4,0.1,1-0.4,1-1.1C22.7,26.3,22.4,26.7,22,26.9z"/>
		<path id="XMLID_6662_" class="st0" d="M22,28.1c0.6-0.2,1-0.6,1.3-1.2C22.8,27.3,22.4,27.6,22,28.1z"/>
		<path id="XMLID_6661_" class="st0" d="M22.4,28.9c0.5,0.1,0.8-0.7,0.9-1.3C22.9,28,22.8,28.7,22.4,28.9z"/>
		<path id="XMLID_6660_" class="st0" d="M22.5,37.2"/>
		<path id="XMLID_6659_" class="st0" d="M22.7,13.6c0.2,0.3,0.4,0.5,0.4,0.8C23.4,14.2,23.1,13.7,22.7,13.6z"/>
		<path id="XMLID_6658_" class="st0" d="M23.7,27.5c0.3-0.2,0.1-0.7,0.3-1c0,0.4,0.2,1,0.2,1.6c0.3-0.2,0-0.5,0-0.8
			c-0.1-0.8,0-1.7-0.1-2.7c-0.1,0.5-0.3,1.2-0.3,1.6c0,0.2,0.1,0.1,0.1,0.1C23.7,26.6,23.8,27.1,23.7,27.5z"/>
		<path id="XMLID_6657_" class="st0" d="M24.2,28.4c0.1,0.1,0.1,0.2,0.1,0.4C24.4,28.7,24.4,28.2,24.2,28.4z"/>
		<path id="XMLID_6656_" class="st0" d="M24.4,29.3c-0.1,0-0.1,0.2-0.1,0.4C24.5,29.6,24.4,29.4,24.4,29.3z"/>
		<path id="XMLID_6655_" class="st0" d="M24.5,29.8c-0.2,0,0,0.3-0.1,0.4C24.6,30.3,24.5,29.9,24.5,29.8z"/>
		<path id="XMLID_6654_" class="st0" d="M24.6,27.6c-0.2,0,0,0.3-0.1,0.4C24.7,28.1,24.6,27.8,24.6,27.6z"/>
		<path id="XMLID_6653_" class="st0" d="M25,28.1c0.4-0.2,0-1.5,0.1-0.3C25,27.9,25,28,25,28.1z"/>
		<path id="XMLID_6652_" class="st0" d="M25.1,26.3c-0.2,0,0,0.4-0.1,0.6C25.3,26.9,25.1,26.5,25.1,26.3z"/>
		<path id="XMLID_6651_" class="st0" d="M25.2,29.5"/>
		<path id="XMLID_6650_" class="st0" d="M25.4,30.9"/>
		<path id="XMLID_6649_" class="st0" d="M25.7,34.4c0.1,1.5,0.1,2.8,0.7,4.1C26.2,37.5,25.8,35.5,25.7,34.4z"/>
		<path id="XMLID_6648_" class="st0" d="M26.5,25.5c-0.3-1-0.4-2.3-0.4-3.4c-0.2,0.6-0.2,1.4-0.1,2.1C26.1,24.6,26.2,25.2,26.5,25.5
			z"/>
		<path id="XMLID_6647_" class="st0" d="M26.3,29.9c-0.2,0.4,0.1,0.9,0.2,1.3C26.6,30.8,26.3,30.3,26.3,29.9z"/>
		<path id="XMLID_6646_" class="st0" d="M26.7,25.7c-0.1-0.2-0.2,0-0.3,0C26.5,25.8,26.6,25.7,26.7,25.7z"/>
		<path id="XMLID_6645_" class="st0" d="M28,28.5c-0.6-0.8-1.3-1.7-1.3-2.8C26.2,26.4,27.4,28,28,28.5z"/>
		<path id="XMLID_6644_" class="st0" d="M27,33.5c0.2-0.5-0.5-1.2-0.3-1.8c-0.2,0-0.2,0.1-0.2,0.2C26.6,32.5,26.8,33,27,33.5z"/>
		<path id="XMLID_6643_" class="st0" d="M26.8,30.5"/>
		<path id="XMLID_6642_" class="st0" d="M27,30.1c0,0.1,0.2,0.1,0.3,0.1c0-0.2-0.2-0.2-0.1-0.4C27,29.6,27.3,30.1,27,30.1z"/>
		<path id="XMLID_6641_" class="st0" d="M27.4,34.2"/>
		<path id="XMLID_6640_" class="st0" d="M27.6,24.8"/>
		<path id="XMLID_6639_" class="st0" d="M27.7,14c0.1,0.2,0.2,0,0.3,0C27.9,13.8,27.8,14,27.7,14z"/>
		<path id="XMLID_6638_" class="st0" d="M28.3,32.6c0,0.2,0.3,0,0.4,0c-0.1-0.1,0-0.3-0.3-0.3C28.4,32.4,28.4,32.6,28.3,32.6z"/>
		<path id="XMLID_6637_" class="st0" d="M28.6,34.9c0.3,0.1,0.2-0.2,0.2-0.4C28.6,34.6,28.6,34.7,28.6,34.9z"/>
		<path id="XMLID_6636_" class="st0" d="M29,34.5c0,0.4,0.4-0.1,0.7,0c0.2-0.5-0.1-1-0.1-1.4C29.5,33.6,29.9,34.5,29,34.5z"/>
		<path id="XMLID_6635_" class="st0" d="M30.1,15.2c0.2,0.3,0.6-0.1,0.9,0C30.8,14.9,30.4,15.2,30.1,15.2z"/>
		<path id="XMLID_6634_" class="st0" d="M30.5,33.2c0.2,0.2,0.8,0.3,0.8-0.1C31.1,33.4,30.6,33,30.5,33.2z"/>
		<path id="XMLID_6633_" class="st0" d="M30.9,31c0.2,0.6,1,1.4,0.5,2.2C32.3,32.8,31.4,31.4,30.9,31z"/>
		<path id="XMLID_6632_" class="st0" d="M31.3,31c-0.3,0.2,0.5,0.1,0.6,0.1C32.2,31,31.5,31.1,31.3,31z"/>
		<path id="XMLID_6631_" class="st0" d="M31.9,15.5c-0.2,0,0.1,0.1,0.2,0.1C32.2,15.6,32,15.5,31.9,15.5z"/>
		<path id="XMLID_6630_" class="st0" d="M33.4,36.6c0.2,0,0.2-0.2,0.2-0.4C33.5,36.3,33.4,36.4,33.4,36.6z"/>
		<path id="XMLID_6629_" class="st0" d="M35.6,28.4c0.3,0.3,0.8,0.5,0.8,1.1c-0.6,0-0.7-0.6-1.1-0.8c-0.3,0-0.9,0.1-0.9-0.2
			C34.6,28.4,35,28.3,35.6,28.4c-0.4-0.6-1-0.2-1.4-0.1c-0.1,0.3,0.2,0.3,0.2,0.6c0.8-0.2,1.2,0.1,1.5,0.6c-0.5,0.1-0.5-0.4-1-0.4
			c0.2,0.6,1.3,0.9,1.9,0.4c0-0.2-0.1-0.8-0.4-0.6C36.3,28.9,36,28.2,35.6,28.4z"/>
		<path id="XMLID_6628_" class="st0" d="M36,26.9c0.2,0,0.2-0.3,0.4-0.4C36.2,26.3,36,26.8,36,26.9z"/>
		<path id="XMLID_6627_" class="st0" d="M36,28.1c0.3,0,0.3-0.3,0.4-0.6C36.2,27.6,36.1,27.8,36,28.1z"/>
		<path id="XMLID_6626_" class="st0" d="M36.4,26.2c0,0.1,0,0.1,0,0.2c0.1,0,0.1,0,0.2,0c0-0.1,0-0.1,0-0.2
			C36.5,26.2,36.4,26.2,36.4,26.2z"/>
		<path id="XMLID_6625_" class="st0" d="M36.6,23.2c-0.3,0.1-0.1,0.5,0,0.6C36.9,23.8,36.5,23.5,36.6,23.2z"/>
		<path id="XMLID_6624_" class="st0" d="M36.5,26.1c0.2-0.1,0.2-0.3,0.4-0.4C36.8,25.5,36.4,26,36.5,26.1z"/>
		<path id="XMLID_6623_" class="st0" d="M36.4,27.4c0.2-0.1,0.2-0.3,0.2-0.5C36.5,26.9,36.5,27.1,36.4,27.4z"/>
		<path id="XMLID_6622_" class="st0" d="M36.8,28.2"/>
		<path id="XMLID_6621_" class="st0" d="M36.8,30.2c0.2-0.2,0.3-0.4,0.4-0.7C36.9,29.6,36.9,30,36.8,30.2z"/>
		<path id="XMLID_6620_" class="st0" d="M37.4,28.6c0,0.2-0.5,0.8-0.1,0.8C37.4,29.2,37.5,29,37.4,28.6z"/>
		<path id="XMLID_6619_" class="st0" d="M37.7,26.3c0.2,0.2,0.1,0.6,0.1,0.9C38,27.2,38,26.3,37.7,26.3z"/>
		<path id="XMLID_6588_" class="st0" d="M41.5,23.3c1.4,5.2,0.2,7.5-1.7,11.8c-2.4,4-5.4,6.5-7.9,7.6c-0.7,0.3-1.3,0.5-2,0.8
			c-2.7,1.1-6.2,1.2-9.1,0.8c-3-0.3-8.8-2.8-11.6-5.9c-3.1-3.1-3.5-6.8-3.7-8.8c-0.1-1,0-2.3,0.1-3.1c0.2-1.4,0.9-3.4,1.6-4.8
			c3.4-6.3,9.8-10.6,17-9.7c1.6,0.2,3.4,0.7,4.9,1.2c4,1.2,8.4,2.2,10.7,6.2C40.8,21,41.1,21.9,41.5,23.3L41.5,23.3z M6.5,26.5
			c0.2-0.2,0.5-0.5,0.2-0.7c0.1,0,0.2-0.1,0.3-0.4c0.1,0.2,0,0.7-0.2,1c0.2,0.3,0.2-0.4,0.4-0.4c-0.1,1.4-0.7,2.6-0.5,4.4
			c0.1,0,0.1-0.2,0.1-0.4c0.2,0.4-0.1,0.7-0.1,1.1c0.2,0.3,0.2-0.4,0.3-0.5c0,0.7,0.3,1.5,0.4,2.4c0.1,0.3,0,0.7,0.2,1
			c0,0,0.2-0.1,0.2-0.1c0.2,0.2-0.3,0.4,0.1,0.2c-0.2,0.3,0,0.4,0.2,0.6C7.8,37,9.5,37.8,10.7,39c-0.1-0.6-1-1.2-1.2-2
			c0.8,0.8,1.7,2.4,2.8,3.2c-0.3-0.5-0.6-0.7-0.9-1.2c-2.9-2.9-4.5-9.4-3.2-13.8c0.3-0.9,1-2.7,1.5-3.4c1.7-2.3,3.9-4.5,8.2-4.3
			c-0.8-0.1-1.7-0.3-2.7-0.1c-0.5,0.1-1.2,0.2-1.5,0.4c0,0-0.2,0.3-0.4,0.4c-0.3,0.2-0.5,0.1-0.8,0.3c0,0,0,0.2,0,0.2
			c-0.2,0.1-0.5,0-0.7,0.2c1.3-1,3-1.7,4.9-1.8c0.1,0.3-0.2,0.2-0.4,0.2c0.5,0.3,1.8-0.2,2.1,0.3c0.1,0,0.1-0.2,0-0.2
			c0.4-0.2,1.3,0.3,1.8,0c0.1,0.2,0.3,0.1,0.6,0.2c0.4,0.1,0.8,0.5,1,0.3c-0.5-0.4-1.5-0.4-2-0.8c-0.3,0.3-1.6-0.3-2.2,0.2
			c-0.2-0.1,0.2-0.4,0.4-0.4c0.4,0,0.5,0.2,0.9,0.1c0-0.2-0.4-0.1-0.4-0.3c0.4-0.2,1.4,0.1,1.7,0.5c0.2,0,0-0.3-0.2-0.2
			c0.5-0.2,0.6,0.2,1.1,0.2c-0.8-0.9-2.1-1.4-3.8-1.5c0.5-0.4,1.4,0.5,1.7,0c0.1,0,0.1,0.2,0,0.2c0.8,0,1.4,0.6,2.2,0.9
			c-0.1-0.8-1.7-1-2.5-1.4c0.6-0.1,1.4,0.4,2,0.6c-0.4-0.4-0.5-0.6-1-1c0.7,0.2,1.2,0.7,1.9,0.9c-0.1-0.2-0.3-0.3-0.4-0.4
			c0.3-0.2,0.2-0.1,0-0.4c0.6,0.2,1,0.7,1.5,1c-0.3-0.5-0.6-0.9-1.1-1.3c0.4,0.2,1.2,0.8,1.5,1.4c0.1-0.9-0.9-1.5-1.3-2.2
			c0.6,0.1,1.4,0.8,1.5,1.7c0.1-0.9-0.7-1.6-1.2-2.2c0.4,0.1,1,0.9,1.3,1.5c0.2-0.1-0.1-0.3-0.1-0.5c0.3-0.1,0,0.4,0.4,0.3
			c0.2-0.4-0.1-0.7,0.1-1.1c0.1,0.4,0.2,0.7,0.4,1c0.3,0.1,0.1-0.4,0.2-0.6c0.2,0,0.2,0.2,0.3,0c0.3,0.2-0.3,0.8,0.3,0.7
			c-0.1-0.5,0-1.1-0.2-1.5c0.4,0.7,0.4,1.2,0.3,1.7c0.1,0.2,0.1,0.2,0.3,0.1c0,0.3-0.3,0.2-0.1,0.4c0.4,0,0.1-0.6,0.4-0.7
			c-0.1-0.3-0.1,0.2-0.3,0.2c-0.1-0.2,0.2-0.6,0.4-0.7c-0.1-0.5,0-0.9,0.3-1.3c-1.3-0.6-2.4-0.5-3.9-0.4c0,0.3,0.2,0.2,0.3,0.4
			c-0.2-0.2-0.4-0.2-0.5-0.4c-5.8,0.4-8.8,2.5-12.5,7c-0.8,1-1.4,2-2,3.1c-0.8,1.7-1.5,3.5-1.4,6.4c0,0.4,0.2,0,0.1-0.2
			c0-0.1,0.2-0.1,0.2-0.2c0-0.5,0-1.1,0.2-1.3c-0.1,0.8-0.1,2.2-0.1,2.8c0,0.1-0.1,0-0.1,0c-0.1,0.1-0.2,1,0.1,1
			c-0.1-0.3-0.1-0.5,0-0.7c0.3,0-0.1,0.7,0.3,0.5c-0.2-1.5,0.1-2.7,0.1-4c-0.1,0.1-0.2,0.1-0.2-0.1c0.2-0.4,0.4,0.4,0.4,0.1
			C7.1,26.5,6.6,26.6,6.5,26.5L6.5,26.5L6.5,26.5z M22.1,16.7c0.2,0.1,0.2,0.2,0.3,0.4c0.3-0.1,0-0.5,0-0.5c-0.3-0.6-1.5-1-2.1-1.3
			C21.1,15.8,21.2,16.2,22.1,16.7L22.1,16.7L22.1,16.7z M7,32.5c0-0.1,0-0.3-0.1-0.3c-0.1-0.3-0.1-0.5-0.2-1c-0.2,0.3-0.1,1,0.1,1.3
			C6.9,32.5,7,32.5,7,32.5L7,32.5L7,32.5z M5.9,29.5C5.9,30.3,6.3,29.6,5.9,29.5C5.8,29.5,5.9,29.5,5.9,29.5L5.9,29.5L5.9,29.5z
			 M7.2,34.3c0.1,0.6,0.4,0.8,0.5,1.3c0.3-0.2-0.4-0.8-0.2-1.3c-0.1,0-0.1,0.1-0.2,0.1c0.2-0.3-0.4-0.9-0.2-1.2
			c-0.7-0.3-0.8-1.3-1-2.1c-0.1,0.6,0,1.7,0.4,2.2c0.1,0,0.1-0.2,0.1-0.3c0.2,0.3,0.3,0.6,0.4,1c-0.1,0-0.1-0.1-0.1-0.2
			C6.7,34,7,34.3,7.2,34.3L7.2,34.3L7.2,34.3z M6.8,27c-0.3-0.1-0.2,0.2-0.2,0.4C6.8,27.3,6.8,27.2,6.8,27L6.8,27L6.8,27z M8.3,31.6
			c0.5,3.2,2.1,6.2,4.6,8.4c1.1,1,2.1,1.9,3.5,2.6c1.8,0.9,4.4,1.5,6.7,1.6c2.8,0.1,5.2-0.4,7.4-1.4c1.4-0.6,3.1-1.3,5.1-3.1
			c0.9-0.9,2.6-2.9,3.2-4c1.4-2.4,2.8-5.9,2.6-8.9c-0.2-3.2-1.3-5.5-3.6-7.8c-1.8-1.9-4.7-2.8-7.3-2.3c-2,0.3-3.5,1.9-5.5,2.1
			c-0.9,0.1-1.9-0.1-2.7-0.2c-1.6-0.2-2.6-0.7-4.3-0.6c-0.3,0-0.7,0.1-1,0.1c-1.3,0.1-2.5,0.3-3.6,0.8c-2.8,1.4-4.6,4.3-5.3,7.8
			c-0.2,0.9-0.2,2.1-0.2,3C8.1,30.4,8.1,30.8,8.3,31.6L8.3,31.6z M13.2,41c0.2-0.1-0.1-0.4-0.3-0.4C13,40.8,13.2,40.8,13.2,41
			L13.2,41L13.2,41z M13.9,41.5c-0.1-0.2-0.4-0.2-0.4-0.4C13.3,41.1,13.7,41.4,13.9,41.5L13.9,41.5L13.9,41.5z M19.2,16.7
			c-0.1,0-0.1,0-0.2,0c0,0.2,0.1,0.2,0.3,0.2C19.3,16.8,19.2,16.8,19.2,16.7L19.2,16.7L19.2,16.7z M21.9,17.6
			c0.3-0.5-0.6-0.7-0.9-0.9C21.3,17,21.7,17.2,21.9,17.6L21.9,17.6L21.9,17.6z M22.6,16.9c0.1-0.3-0.3-1-0.7-1.1
			C22.2,16.1,22.4,16.5,22.6,16.9L22.6,16.9L22.6,16.9z M25.8,17.9c-0.3-0.5-1,0-1.5,0c1-0.8,2.3,0.2,3.2-0.4
			c-0.1,0-1.4-1.2-3.2-0.7c-1.2,0.3-1.5,0.6-2.1,1.2c1.3,0.4,2.9,0.6,4.1,0.1C26.4,17.8,25.7,17.6,25.8,17.9L25.8,17.9L25.8,17.9z
			 M22.9,16.7c0.2,0,0.2-0.4,0.1-0.5C22.8,16.2,23,16.5,22.9,16.7L22.9,16.7L22.9,16.7z M23.8,15.5c-0.2,0.1-0.2,0.4-0.3,0.6
			C23.9,16.2,23.8,15.8,23.8,15.5L23.8,15.5L23.8,15.5z M24.1,14.8C24,14.8,24,14.8,24.1,14.8c-0.3-0.1-0.2,0.3,0,0.2
			C24.1,14.9,24.1,14.9,24.1,14.8L24.1,14.8L24.1,14.8z M24.2,15.2c-0.3-0.1-0.1,0.4-0.2,0.5C24.1,15.6,24.2,15.4,24.2,15.2
			L24.2,15.2L24.2,15.2z M24.3,15.8c-0.3-0.1-0.2,0.2-0.2,0.4C24.3,16.1,24.3,16,24.3,15.8L24.3,15.8L24.3,15.8z M24.7,15.4
			c-0.1-0.2,0.1-0.6-0.2-0.5C24.6,15.1,24.4,15.5,24.7,15.4L24.7,15.4L24.7,15.4z M25.8,14.7c-0.2,0.3-0.1,0.5-0.3,1
			c0.1,0.2,0.1-0.6,0.3-0.6c0.2,0,0.2,0.1,0.4,0.1c0.2,0.2-0.2-0.2-0.3-0.3c0.3-0.2,0.4-0.7,0.5-1.1c0,0.1,0.3,0.7-0.1,0.7
			c0.1,0.2,0.2,0,0.3,0c0,0.3-0.4,0.2-0.4,0.5c0.3-0.2,0.6-0.5,0.8-0.8c0.2,0,0.5,0.2,0.3-0.1c0.5,0.2,0.8-0.3,1.3-0.4
			c0-0.3-0.4-0.2-0.5-0.4c-0.3,0.1-0.5,0.3-0.6,0.6c-0.2-0.1,0-0.5,0.3-0.4c-0.2-0.2-0.1-0.1-0.2-0.4c-0.5,0-0.7,0.4-0.8,0.9
			c-0.2-0.3,0.1-0.8,0.4-0.9c0-0.2-0.3-0.2-0.5-0.2C26.7,13.6,26.1,14.1,25.8,14.7c0.2-0.7,1-1.6,0.3-1.8
			C26.1,13.5,25.3,14.4,25.8,14.7L25.8,14.7L25.8,14.7z M26.3,15.6c-0.3,0.1-0.4,0.5-0.7,0.5c0,0.3,0.3-0.2,0.3,0.1
			C26.1,16.1,26.2,15.9,26.3,15.6L26.3,15.6L26.3,15.6z M26.6,16c-0.2,0-0.3,0.3-0.5,0.3c0,0.3,0.3,0.2,0.5,0.2
			C26.4,16.3,26.6,16.2,26.6,16L26.6,16L26.6,16z M29,13.8c-0.6,0.1-1.2,0.8-1.8,0.6C27.1,14.5,27,15,26.6,15
			c0.2,0.2,0.2,0.1,0.1,0.4c0.1-0.1,0.3-0.2,0.5-0.3c0-0.1-0.1-0.1-0.2-0.1C27.6,14.5,28.6,14.4,29,13.8L29,13.8L29,13.8z
			 M27.3,16.3c-0.1-0.3-0.4,0.1-0.5,0.1c0,0.2,0,0.4,0.3,0.4c-0.1-0.1-0.1-0.2-0.2-0.3C26.9,16.3,27.2,16.5,27.3,16.3L27.3,16.3
			L27.3,16.3z M27.7,15c0,0.1-0.3,0.1-0.3,0c0,0.2-0.3,0.4-0.4,0.7c0.4,0,0.3-0.1,0.7-0.1c0.3-0.8,1.6-1.1,2.8-1.3
			c-0.3-0.2-0.6-0.3-1-0.4c-0.3,0.5-1.4,0.5-1.7,0.7c0,0,0.1,0.2-0.3,0.2C27.6,15,27.7,15,27.7,15L27.7,15L27.7,15z M27.4,16.1
			c0.1,0.3,0.6-0.3,0.9-0.4c0.3,0-0.1,0.1-0.2,0.2c0.6,0.1,1.1-0.5,1.8-0.6c0.2,0.5-0.8,0.4-1.3,0.7c1,0.1,1.8-0.2,2.9-0.4
			c-0.9,0.3-1.8,0.6-2.7,1c0.6,0.2,1.1-0.3,1.7-0.4c3.8-0.5,7.3,1.1,9.3,4.1c-1-2.8-3.8-4.1-4.6-4.6c-1.6-0.7-4.2-1.4-6-0.4
			c0.3-0.3,0.9-0.5,1.3-0.6c0-0.2-0.4,0-0.6-0.1c-0.2,0.3-1,0.3-0.8,0.7C28.4,15.2,27.8,15.7,27.4,16.1L27.4,16.1L27.4,16.1z
			 M27.7,16.9c-0.1,0-0.2,0.1-0.4,0.2c0,0.1,0.1,0.1,0.1,0.3c0.1,0,0.1-0.1,0.3-0.1C27.6,17.1,27.8,17.1,27.7,16.9L27.7,16.9
			L27.7,16.9z M28.2,16.8c0-0.2-0.3,0-0.4,0C27.9,17.1,28,16.7,28.2,16.8L28.2,16.8L28.2,16.8z M29.2,14
			C29.8,13.7,28.9,14.1,29.2,14L29.2,14z"/>
		<path id="XMLID_6587_" class="st0" d="M8,35.1"/>
		<path id="XMLID_6586_" class="st0" d="M9.4,37.8c-0.1-0.1-0.4-1.1-0.6-1.7c-0.1-0.2-0.2-0.4-0.4-0.4C8.7,36.4,9,37.2,9.4,37.8z"/>
		<path id="XMLID_6585_" class="st0" d="M6.3,26.1c0-0.1,0.3-0.3,0.3-0.1c0.1-0.9,0.4-1.7,0.9-2.4c-0.4,0-0.5,0.7-0.6,0.9
			c0,0.1-0.1,0-0.1,0c-0.4,0.7-0.5,1.2-0.6,2.3C6.2,27,6.4,26.1,6.3,26.1z"/>
		<path id="XMLID_6584_" class="st0" d="M6.9,29.7c0.4-0.2,0,0.1,0,0.3c0.1,0,0.1,0,0.2,0c0.1,2.1,0.5,3,1.1,4.7
			c0.1,0,0.1,0,0.1-0.1c0-0.1,0.1-0.1,0.1-0.3c-0.3,0.2,0,0-0.1-0.4c0,0-0.2,0-0.2,0C8,33.7,8,33.1,8,33.1c0,0-0.2,0.1-0.2,0.1
			c0,0,0.2-0.7,0-0.2c-0.2-0.3,0.4-0.5-0.4-0.6c0.4,0,0.3-0.7,0-0.8c0,0.2,0.2,0.3,0.1,0.5c-0.4-1.3-0.1-2.5,0-3.9
			c-0.3,0.1-0.1-0.3-0.3-0.4c0.2-1,0.3-2,0.5-2.7c-0.3-0.2-0.2,0.8-0.4,0.9c0.3,0.6-0.4,1.5-0.1,2.2c-0.2,0.1-0.2,0.2-0.2,0.5
			c0.2,0,0.1-0.3,0.2-0.4c0.3,0-0.2,0.4,0.1,0.4c0,0.1-0.1,0-0.3,0C6.9,29.4,7.4,29.2,6.9,29.7z"/>
		<path id="XMLID_6583_" class="st0" d="M7,25.2c0.4-0.3,0.2-0.8,0.6-1.2C7.4,24,7.2,24.8,7,25.2z"/>
		<path id="XMLID_6582_" class="st0" d="M7.4,23.4c0.5-0.1,0.7-1.6,0.4-0.5C7.7,23.1,7.4,23.1,7.4,23.4z"/>
		<path id="XMLID_6581_" class="st0" d="M8.1,23.7C8,24,8.3,23.4,8.4,23.3C8.3,23.1,8,23.5,8.1,23.7z"/>
		<path id="XMLID_6580_" class="st0" d="M8.5,23"/>
		<path id="XMLID_6579_" class="st0" d="M9.6,21c0.1,0.2,0.3-0.3,0.4-0.3C9.9,20.5,9.8,21,9.6,21z"/>
		<path id="XMLID_6531_" class="st0" d="M12.8,22.4c2-3.1,4.5-4.3,8-3.2c1.4,0.2,2.4,1.1,2.9,3.1c0-0.1,0-0.3,0.1-0.3
			c0.1,0.3,0.1,0.4-0.1,0.4c0.3,0,0.2,1.2,0,0.6c0,0.7-0.2,1.2-0.3,1.8c0,0,0-0.2-0.1-0.2C23,25,23,25.5,22.5,25.6
			c-0.1,0-0.5-0.1-0.5-0.2c-0.5-0.4-0.6-1.6-0.7-2.3c-0.6-0.4-0.2-1.2-0.8-1.4c-0.8-0.3-1.1,0.2-1.1,0.9c0,0.5,0.3,0.9,0.2,1.3
			c-0.1,0.4-0.5,0.5-0.9,0.5c-0.6-0.4-0.6-1.4-1.4-1.6c-0.3,0.2-0.2,0.8-0.5,1c-0.4,0-0.8,0-1.3,0c-0.2,0.9,0.6,1.1,0.3,2.2
			c-0.2,0.2-0.6,0.3-0.9,0.5c-0.8-0.3-1.4,1-1,1.6c0.6,0.3,1.2,0.6,1.3,1.5c-0.1,0.4-0.5,0.4-0.5,0.8c0,0.3,0.1,0.6,0.4,0.7
			c1-0.1,1.2,1.1,1.1,1.8c0.4,0.3,0.2,1.3,0.5,1.7c0.4,0.1,0.6,0.5,1.1,0.5c0.3-0.2,0.6-0.3,1.1-0.4c-0.2,1.2,0.9,1.5,1.6,0.9
			c0-0.4,0.2-0.6,0.1-1.1c0.3,0,0.4-0.3,0.7-0.3c0.3,0.2,0.3,0.6,0.9,0.5c0.7-0.6,0.9-1.7,1.2-2.6c0.1-0.4-0.2-1.7,0.4-2.1
			c0,1.1-0.2,2-0.4,2.7C23,33.3,23,33.7,22.9,34c-0.2,0.4-0.7,0.7-0.8,1.1c-0.7,0.1-0.8-0.3-1.3-0.4c-0.4,0.3-0.3,1.1-0.6,1.4
			c-0.5,0-0.5,0.1-1,0.2c-0.5-0.2-0.8-0.6-0.9-1.3c-0.4,0.2-0.7,0.5-1.4,0.4c0-0.4-0.5-0.3-0.6-0.5c-0.1-0.1,0.1-0.3,0-0.4
			c0,0-0.2,0-0.2,0c-0.2-0.4,0.1-1.1-0.4-1.3c-0.1-0.8,0-1.4-0.5-1.8c-0.7,0-1.1-0.6-1-1.3c-0.4,0.5-1.7,0.6-2.2,0
			c0.4,0.1,0.9,0.3,1.3,0.2c0.4-0.1,0.5-0.4,0.8-0.5c0.1,0,0.1,0.2,0.2,0.3c0.7-0.9-0.3-1.6-1-1.9c-0.2-0.7,0-1.3,0.3-1.8
			c0-0.1-0.2-0.2,0-0.3c0,0.1,0,0.2,0.1,0.2c0.4-0.2,0.9-0.2,1.3-0.3c0.5-0.5,0.1-1.2,0-1.9c-0.2-0.2-0.2,0.1-0.4-0.1
			c-0.1-0.6-0.6-0.7-0.9-1.1c0.2,1,0.8,1.1,1,2.3c-0.3,0-0.2-0.4-0.4-0.6c-0.1-0.1-0.3-0.1-0.4-0.2c-0.2-0.2,0-0.3-0.2-0.4
			c-0.3-0.1-1-0.2-1.2,0.4c0.1,0.2,0.2,0.5,0.5,0.5c-0.1-0.1-0.1-0.2,0-0.4c0.3,0,0.8-0.1,0.8,0.3c-0.3,0-0.5-0.2-0.5,0.1
			c0.1,0.6,0.5,0.5,1,0.4c-0.2,0.7-1.2,0.2-1.3,0.1c0,0.1,0.3,0.4,0.1,0.5c0-0.2-0.3-0.5-0.4-0.4c0,0.4,0.2,1.1,0,1.6
			c-0.1-0.5,0-1.2-0.4-1.3c0.1,0.1,0.1-0.4,0-0.4c-0.5,0.6-0.1,1.6-0.4,2.4c-0.1-0.5,0.1-0.8-0.2-1.2c-0.1,1-0.3,1.8,0,2.4
			c0.4-0.6,1.7-0.2,2.2,0.2c-0.5,0-0.9-0.4-1.3-0.4c-0.6,0-0.8,0.6-1.2,0.7c0,1.1,0.1,1.6,0,2.3c-0.1-0.8-0.1-1.7-0.1-2.5
			c-0.1,0-0.1,0.1-0.2,0.1c0.1-0.9-0.1-1.5,0.3-2c0,0.1,0,0.3,0.1,0.4c0-0.3,0.1-0.5,0-0.6c-0.1,0-0.2,0.4-0.3,0.1
			c0.1-0.4,0-0.8,0.3-1.3c-0.2,0-0.3,0-0.4-0.1c0.1,2-0.5,4.9,0.3,6.5c-0.5,0.1,0.3,0.7-0.1,0.9c0-0.2,0-0.4-0.2-0.4
			c0.1,0.2,0.1,0.8,0.4,0.5c0.1,0.3-0.3,0.1-0.1,0.4c0.4-0.3-0.1-1,0.1-1.3c0.4,0.6,0.2,1.1,0,1.6c0.2,0.2,0.1,0.6,0.3,1
			c0.1,0.2,0.4,0.4,0.6,0.7c0.4,0.6,0.7,1.7,1.3,1.5c0,0.2-0.1,0.4,0.2,0.4c0-0.2-0.4-0.5-0.2-0.6c0,0.2,0.1,0.2,0.1,0
			c0.5,0,0.2,0.9,0.6,0.6c-0.1,0.4,0.4,0.7,0.5,0.6c-0.2-0.3-0.7-0.9-0.7-1.2c0.4,0.6,1,1.1,1.5,1.6c0.1,0.1,0,0.5,0.4,0.4
			c-0.3-0.3-0.5-0.6-0.5-1c-0.7-0.5-1-1.3-1.3-2.1c0-0.3,1.5,2.9,1.6,2c0,0.2,0,0.3-0.1,0.4c0.1,0,0.2,0,0.3-0.1
			c0.1,0.5,0,0.9,0.4,1.2c0-0.2-0.1-0.2-0.2-0.3c0.5-0.1,0.6,0.8,1.1,0.5c-0.4-0.3-1-0.6-0.8-0.9c0.7,0.6,1.3,1.7,2.4,1.6
			c-0.3-0.3-1.1-0.5-1.1-0.9c0.1,0.4,0.4,0,0.5-0.2c0.1,0.3-0.1,0.3-0.1,0.5c0.2,0.2,0.6,0.4,0.8,0.4c-0.2,0.2,0.5,0.3,0.7,0.2
			c-0.2-0.3-0.4,0-0.6-0.2c0.1-0.3,0.3,0,0.4-0.3c-0.2,0.1-0.3,0-0.3-0.3c0.3-0.1,0.1,0.3,0.4,0.2c0.2-0.5,0.1-0.8,0.5-0.8
			c-0.1,0-0.2,0.5-0.1,0.4c0.2-0.3,0.3-0.6,0.5-0.8c-0.1,0.5-0.8,1.2-0.5,1.4c0.3-0.2,0.6-1,0.9-1c-0.2,0.3-0.5,0.5-0.5,1
			c0.1,0,0.1,0.1,0.3,0.1c0.9-0.6,1.1-1.9,1.6-2.9c-0.2,0.8-0.6,1.7-0.7,2.2c0.4-0.3,0.6-0.9,0.9-1.3c0.1,0.7-0.7,1-0.6,1.5
			c0.9-0.7,1-2.1,1.6-3.1c-0.1,0.5-0.3,1.1-0.5,1.6c-0.2,0.5-0.6,1-0.6,1.4c0.3-0.6,0.8-1,0.9-1.9c0.1-0.1,0.4,0,0.4-0.3
			c0.4-1.1-0.3-1.7,0.4-2.4c0,0.4-0.1,0.6-0.2,0.8c0.3,0.6,0,1.1-0.1,2c-0.2,0.7-0.4,1-0.7,1.5c-0.7,0.9-2.1,1.6-4,1.4
			c-0.9-0.3-2-0.4-3.4-1.3c-1.1-1.3-2.9-1.9-3.4-3.7c-0.7-0.4-0.7-1-0.9-1.8c-0.3-1.1-0.9-1.9-1-3.1c0-0.4-0.1-1-0.1-1.3
			C10.3,27.7,11.5,24.4,12.8,22.4L12.8,22.4z M20.6,40.6c0.2-0.1,0-0.2,0-0.3C20.4,40.4,20.6,40.5,20.6,40.6L20.6,40.6L20.6,40.6z
			 M21,40.8c-0.4-0.1-0.7-0.3-1.1-0.4C20.2,40.7,20.6,41,21,40.8L21,40.8L21,40.8z M11.1,27.6c-0.3,0-0.2,0.5-0.3,0.7
			C11.1,28.3,11,27.9,11.1,27.6L11.1,27.6L11.1,27.6z M11.1,28.6c-0.5,0.3-0.1,0.9,0,1.3C11.2,29.7,11,29.2,11.1,28.6L11.1,28.6
			L11.1,28.6z M11,30.1c-0.4,0.8,0.2,2,0.4,2.9C11.5,32.1,11,31,11,30.1L11,30.1L11,30.1z M12,25.6c-0.1,0.1-0.1,0.3-0.2,0.4
			C12.1,26.1,11.9,25.7,12,25.6L12,25.6L12,25.6z M12.6,23.8c-0.2,0-0.2,0.1-0.2,0.3C12.5,24,12.6,23.9,12.6,23.8L12.6,23.8
			L12.6,23.8z M13.2,22.6C12.8,22.8,13.1,23.2,13.2,22.6L13.2,22.6L13.2,22.6z M13.7,22.8C14,22.5,13.4,22.5,13.7,22.8L13.7,22.8
			L13.7,22.8z M14.3,22.3c-0.2,0.1-0.4,0.3-0.2,0.4C14.2,22.6,14.2,22.4,14.3,22.3L14.3,22.3L14.3,22.3z M14.6,22.5
			c-0.3,0-0.2,0.2-0.2,0.4C14.5,22.9,14.6,22.7,14.6,22.5L14.6,22.5L14.6,22.5z M14.9,23.2c-0.2,0.4-0.2,0-0.2-0.4
			c-0.2,0-0.1,0.2-0.3,0.2c0.2,0.3,0.2,0.7,0.6,0.8C15.1,23.5,15,23.4,14.9,23.2L14.9,23.2L14.9,23.2z M14.9,21.2
			c-0.2,0-0.1,0.4-0.4,0.4C14.6,21.7,14.9,21.4,14.9,21.2L14.9,21.2L14.9,21.2z M14.6,22.3C14.9,22.1,14.4,21.9,14.6,22.3L14.6,22.3
			L14.6,22.3z M15.1,22.3c-0.2-0.3-0.2,0.2-0.4,0.2C14.9,22.9,15,22.5,15.1,22.3L15.1,22.3L15.1,22.3z M15.1,21.9
			c-0.1,0-0.1-0.1-0.3-0.1c0,0.2,0.2,0.1,0.2,0.4c0.1-0.1,0.2-0.1,0.2,0c0.1-0.1,0.2-0.3,0.1-0.4C15.2,21.8,15.1,21.8,15.1,21.9
			L15.1,21.9L15.1,21.9z M15.5,22.4c-0.8-0.6-0.5,1.8,0.3,0.7c0.2,0,0.1,0.3,0.2,0.4c0.8-0.1,0.9-1.1,0.5-1.7c0-0.1,0.2-0.1,0.3-0.1
			c-0.2-0.2,0.1-0.5,0-0.8c-0.4,0.1-0.2,1.9-1,1.7c0.3,0,0.2-0.5,0.4-0.7C15.9,21.6,15.4,22,15.5,22.4L15.5,22.4L15.5,22.4z
			 M15.8,20.7c-0.2,0.1-0.2,0.2-0.3,0.4C15.6,21,15.9,21,15.8,20.7L15.8,20.7L15.8,20.7z M16.2,21.4c-0.1-0.3-0.3,0.2-0.4,0.2
			C15.9,21.8,16,21.4,16.2,21.4L16.2,21.4L16.2,21.4z M16.8,39.9c0.1-0.3-0.2-0.2-0.4-0.2C16.5,39.9,16.6,39.9,16.8,39.9L16.8,39.9
			L16.8,39.9z M17.4,20c-0.1-0.2-0.4,0.2-0.6,0.2C17,20.5,17.1,19.9,17.4,20L17.4,20L17.4,20z M17,21.4c-0.2,0.3-0.2,0.7-0.1,1.1
			C17.2,22.4,17,21.7,17,21.4L17,21.4L17,21.4z M17.6,19.5c-0.1-0.3-0.4,0.1-0.6,0C17.1,19.8,17.3,19.5,17.6,19.5L17.6,19.5
			L17.6,19.5z M17.7,20.8c-0.2,0-0.3-0.2-0.5-0.1c0,0.6,0.1,1,0.5,1.2C17.5,21.7,17.6,21.1,17.7,20.8L17.7,20.8L17.7,20.8z
			 M18.3,22.7c-0.5,0.1-0.7-0.7-1.2-0.8c0,0.1,0,0.3,0,0.4c0.9,0.2,0.9,1.2,1.5,1.6c0.5,0,0.5-0.8,0.4-1.3c-0.2,0-0.2,0.2-0.3,0.4
			c-0.1-0.1-0.3-0.1-0.4-0.2c0.8,0,0.1-0.6,0.3-1.2c-0.2-0.2-0.5-0.3-0.8-0.2C17.8,22.1,18,22.4,18.3,22.7L18.3,22.7L18.3,22.7z
			 M18.1,20.7c-0.2-0.1-0.2-0.4-0.5-0.4C17.8,20.4,17.8,20.8,18.1,20.7L18.1,20.7L18.1,20.7z M18.2,19.8c-0.1-0.2-0.2,0-0.3,0
			C18,20,18.1,19.8,18.2,19.8L18.2,19.8L18.2,19.8z M18.1,20.5c0.3,0,0.2-0.4-0.1-0.4C18,20.3,18.1,20.3,18.1,20.5L18.1,20.5
			L18.1,20.5z M18.5,20.3c-0.1-0.1,0-0.3-0.3-0.3C18.2,20.2,18.3,20.3,18.5,20.3L18.5,20.3L18.5,20.3z M18.3,20.7
			c0.2,0,0.1-0.4-0.1-0.3C18.2,20.6,18.3,20.6,18.3,20.7L18.3,20.7L18.3,20.7z M18.8,21.2c0-0.1-0.1-0.2-0.3-0.2
			C18.5,21.1,18.6,21.2,18.8,21.2L18.8,21.2L18.8,21.2z M18.6,20C18.9,20.3,18.9,19.7,18.6,20L18.6,20L18.6,20z M19,20.3
			c0-0.1-0.1-0.1-0.2-0.1C18.5,20.3,19,20.4,19,20.3L19,20.3L19,20.3z M19.3,21.4c-0.4-0.1-0.2,0.4-0.5,0.4c0,0.1,0,0.1,0.1,0.1
			c0.2,0-0.1,0.2,0.1,0.4C19.1,22.1,19.2,21.7,19.3,21.4L19.3,21.4L19.3,21.4z M19.2,20.5c-0.1,0-0.1,0.1-0.3,0.1
			c0,0.2,0,0.4,0.3,0.4C19.4,20.7,19.2,20.7,19.2,20.5L19.2,20.5L19.2,20.5z M19.4,20.9c-0.1,0-0.1,0.1-0.3,0.1
			c0,0.2,0.1,0.2,0.3,0.2C19.4,21.1,19.4,21,19.4,20.9L19.4,20.9L19.4,20.9z M19.9,20.6c-0.1,0.1-0.1,0.3-0.4,0.3
			c0.1,0.3,0.9-0.1,1-0.4c-0.2,0-0.2,0.1-0.2,0.2c-0.3-0.2-0.4-0.1-0.7-0.4C19.7,20.4,19.6,20.6,19.9,20.6L19.9,20.6L19.9,20.6z
			 M20.3,21.3c0.1-0.3-0.4,0-0.3-0.4C19.8,21,20,21.4,20.3,21.3L20.3,21.3L20.3,21.3z M21.3,21.4c-0.4,0.3-0.6-0.4-0.8-0.5
			c0.1,0,0-0.1-0.1-0.1c0.1,0.3,0.3,0.9,0.6,0.8c-0.2,0.4,0.3,0.7-0.1,1c0.9,0.4,0.4,2.6,1.4,2.6c0.4,0,0.4-0.3,0.7-0.6
			c-0.2-0.3-0.3,0.3-0.5,0.3c0.1-0.5,0.3-0.5,0.6-0.6C23.1,24,23,24.1,23,24.2c-0.4-0.2,0.3-1,0-1.3c0-0.1,0-0.2,0-0.4
			c0-0.1-0.1,0-0.1,0.1c0.2,0.7-0.2,0.9-0.4,1.3c-0.3,0.1-0.2,0-0.5,0c0.2-0.4-0.3-0.6-0.4-0.8c0-0.1,0-0.4,0-0.5
			c0-0.1-0.2-0.2-0.2-0.3c-0.1-0.6,0.2-1.3-0.1-2c-0.2,0.1,0,0.5,0,0.7c-0.2-0.1-0.2-0.3-0.2-0.5c-0.1-0.1-0.1,0.5-0.3,0.6
			C21.1,21.2,21,21.4,21.3,21.4L21.3,21.4L21.3,21.4z M22,40c-0.3,0.3-0.7,0.4-0.9,0.7C21.3,40.8,22,40.5,22,40L22,40L22,40z
			 M21.2,20.3c0.2,0,0.2-0.2,0.1-0.4C21.2,19.9,21.2,20.1,21.2,20.3L21.2,20.3L21.2,20.3z M22.2,21.4c0-0.4-0.9-0.3-0.5,0.1
			c0.2-0.1,0.2-0.1,0.1-0.3C22,21.2,21.8,21.6,22.2,21.4L22.2,21.4L22.2,21.4z M22,21.8c0.2,0.4-0.1,0.1-0.3,0.3
			c-0.1,0.3,0.1,0.4,0.2,0.5c0.3-0.2,0.5,0.1,0.7,0.1C22.5,22.3,22.5,21.8,22,21.8L22,21.8L22,21.8z M22.5,23.1
			c-0.3,0.1-0.2-0.2-0.4-0.2c-0.1,0.4,0.1,0.5,0.1,0.8C22.5,23.7,22.6,23.4,22.5,23.1L22.5,23.1L22.5,23.1z M22.6,21.8
			c0.1-0.2,0-0.3-0.3-0.3C22.5,21.6,22.4,21.9,22.6,21.8L22.6,21.8L22.6,21.8z M11.5,28.7c0.2,0.2,0,0.7,0.4,0.7l0,0
			C11.6,29.3,12,28.6,11.5,28.7z"/>
		<path id="XMLID_6530_" class="st0" d="M11.8,32.2c-0.2,0,0.1,0.2,0,0.4C12,32.6,11.8,32.3,11.8,32.2z"/>
		<path id="XMLID_6529_" class="st0" d="M13.7,36.7c-0.2-0.2,0,0.1,0,0.3c-0.3,0-0.2-0.3-0.4-0.4c-0.2,0.1,0.2,0.4,0.2,0.6
			c0.1-0.1,0.2-0.1,0.4-0.1C13.9,37,13.8,36.9,13.7,36.7z"/>
		<path id="XMLID_6528_" class="st0" d="M13.5,16.1c1,0,1.7-1.2,3.1-1.3c0-0.1-0.2-0.1-0.3-0.1c0-0.1,0.1-0.1,0.2-0.1
			c-0.7,0-1.4,0.7-2.2,0.8C14.4,15.7,13.8,16,13.5,16.1z"/>
		<path id="XMLID_6527_" class="st0" d="M15.2,23.2c0.1,0.2,0.1-0.4,0.2-0.4C15.6,22.5,15.1,22.9,15.2,23.2z"/>
		<path id="XMLID_6526_" class="st0" d="M16.6,25.2c0,0.5,0.1,1,0.4,1.3c-0.2,0.3-0.6,0.3-0.8,0.5c0,0.5,0.2,0.8,0.4,1.2
			c0.3-0.3-0.2-0.6-0.2-1c0.2-0.4,0.5-0.1,0.8-0.4c-0.2-0.6-0.3-1-0.4-1.5c1-0.6,2.3,2.3,3.2,0.2C19,27.3,17.7,24.4,16.6,25.2z"/>
		<path id="XMLID_6525_" class="st0" d="M17.7,14.4c0.2,0,0.8,0.2,1.3,0.1c0,0,0.6-0.3,0.9-0.3c0.4,0.1,0.6,0.4,0.9,0.6
			c0.1-0.2-0.4-0.4-0.6-0.5c0-0.2,0.2-0.2,0.4-0.2c0.2-0.3-0.7,0.3-0.7-0.2C19.3,14.5,18.5,14.2,17.7,14.4z"/>
		<path id="XMLID_6524_" class="st0" d="M18.1,14.9c0,0.2,0.4,0.1,0.4,0.3C18.8,15,18.2,15,18.1,14.9z"/>
		<path id="XMLID_6523_" class="st0" d="M18.1,22.2c0.2,0,0.1-0.3,0.3-0.3C18.3,21.7,18,22,18.1,22.2z"/>
		<path id="XMLID_6522_" class="st0" d="M18.2,32.9c0.2,0.3,0.4,0.6,0.7,0.9c0.9,0.1,0.8-0.9,1.2-1.3c0.2,0,0.2,0.2,0.4,0.1
			c-0.1-0.2-0.4-0.3-0.6-0.2c-0.1,0.5-0.4,0.8-0.5,1.3C18.7,33.7,18.7,33.1,18.2,32.9z"/>
		<path id="XMLID_6521_" class="st0" d="M18.2,39.4c0.2,0.4,0.9-0.2,0.9-0.6c-0.3,0.2-0.2,0.1-0.2-0.3
			C18.7,38.5,18.8,39.5,18.2,39.4z"/>
		<path id="XMLID_6520_" class="st0" d="M18.8,39.9c-0.2,0,0,0.2,0.2,0.2c0-0.2,0.1-0.2,0.2-0.2C19.1,39.6,18.8,40.2,18.8,39.9z"/>
		<path id="XMLID_6519_" class="st0" d="M19,39.5c0.1,0.1,0.1,0.3,0.4,0.3c-0.2-0.2,0-0.3,0.1-0.4C19.6,39.1,19.3,39.6,19,39.5z"/>
		<path id="XMLID_6518_" class="st0" d="M19.3,13.8c0,0.1,0.3,0,0.3,0.2C19.8,14,19.5,13.7,19.3,13.8z"/>
		<path id="XMLID_6517_" class="st0" d="M19.7,38.9c0-0.3-0.2,0.3,0,0.2C19.8,39.3,19.7,39.1,19.7,38.9z"/>
		<path id="XMLID_6516_" class="st0" d="M20.5,38.9C20.5,38.9,20.4,38.8,20.5,38.9C20.2,39.5,20.8,38.4,20.5,38.9z"/>
		<path id="XMLID_6515_" class="st0" d="M20.6,13.8c0.2,0.3,0.6,0.4,0.8,0.7C21.4,14.3,20.9,13.9,20.6,13.8z"/>
		<path id="XMLID_6514_" class="st0" d="M20.9,38.7"/>
		<path id="XMLID_6513_" class="st0" d="M21.5,38.9"/>
		<path id="XMLID_6512_" class="st0" d="M21.6,29.4c0.3,0.2,0.5-0.3,0.8-0.3C22.1,28.9,21.8,29.4,21.6,29.4z"/>
		<path id="XMLID_6511_" class="st0" d="M22.8,31.2c-0.3,0.9-0.6,1.7-1.1,2.5C22.3,33.2,22.9,32.2,22.8,31.2z"/>
		<path id="XMLID_6510_" class="st0" d="M21.9,30.7c0.5-0.1,1.1-0.9,1.3-1.6C22.6,29.5,22.6,30.4,21.9,30.7z"/>
		<path id="XMLID_6509_" class="st0" d="M22.7,38.4c0.3,0,0.1-0.4,0.3-0.5C22.9,37.7,22.7,38.2,22.7,38.4z"/>
		<path id="XMLID_6508_" class="st0" d="M23.1,37.4C23.1,37.4,23,37.4,23.1,37.4C22.8,38.1,23.4,36.9,23.1,37.4z"/>
		<path id="XMLID_6507_" class="st0" d="M23.4,17.9c0.3-0.1,0.3-0.4,0.4-0.5c0.1,0,0.1,0.2,0.1,0.3c0.5-0.4,1.8-0.6,2.4-0.2
			C25.9,16.7,23.2,17,23.4,17.9z"/>
		<path id="XMLID_6506_" class="st0" d="M24.9,23.4c-0.2-0.1-0.3,0.3-0.3-0.1c-0.2,0.2-0.1,0.9-0.1,1.7c0,0.7-0.1,1.7,0,1.9
			c0.1,0.1,0-0.7,0.3-0.7c-0.3-0.5-0.1-1.5,0-2.2c0.2,0.3,0.1,0.9,0.2,1.3C25,24.9,25,23.9,24.9,23.4z"/>
		<path id="XMLID_6505_" class="st0" d="M25.4,37c0.3-0.5-0.7-2.3,0.2-2.8c0-0.4-0.3-0.1-0.4-0.1c0.1,0.9-0.3,1.6-0.4,2.2
			c0.4,0.1,0.2-0.5,0.4-0.6c0.3,1.2,0.3,2.6,1,3c0-0.3-0.2-0.6-0.3-0.9c0-0.1-0.2-0.1-0.2-0.1C25.6,37.5,25.7,36.9,25.4,37z"/>
		<path id="XMLID_6504_" class="st0" d="M25.8,27.6c-0.1,0-0.1,0.2-0.1,0.3c-0.4-1-0.4-2.3-0.4-3.7c0.3-0.2,0.1,0.6,0.3,0.3
			c0,0.3,0.1,1,0.3,1.6c0.3-0.1-0.1-0.3,0-0.4c0.3,0.2,0.7,1.1,0.4,1.3C26,26.8,26,26.5,26,26.2c0,0.8,0.5,1.9,0.6,2.9
			c0.2,0.1,0.1,0.3,0.3,0.1c-0.2,0.2,0,0.4,0,0.6c0.5-0.3,0-0.7-0.1-1c-0.1-0.2,0-0.5-0.1-0.7c0-0.1-0.2,0.2-0.1,0.3
			c-0.3-0.2-0.1-1-0.2-1.4c0.3,0.8,0.6,1.6,1.3,2.2c-0.3-0.7-0.7-1-0.7-1.7c-0.1,0-0.2,0-0.3,0c-0.5-1.8-1.2-3.8-0.9-6.1
			c-0.4,0.7-0.2,2.3-0.1,3.1c-0.4-0.5-0.1-1.1-0.4-1.5c-0.2,0.7-0.1,1.8-0.2,2.6c0,0.1,0,0.2-0.2,0.2c0,0.1,0.2,0.1,0.3,0.1
			c-0.1,1.7,0.4,2.4,0.6,3.9c0.2,0,0-1.2-0.2-1.4C25.7,28.1,25.8,27.9,25.8,27.6z"/>
		<path id="XMLID_6503_" class="st0" d="M25.1,29c0.3-0.3-0.1-0.8,0.1-0.9C24.9,27.9,25.1,28.8,25.1,29z"/>
		<path id="XMLID_6502_" class="st0" d="M25.4,30.2"/>
		<path id="XMLID_6501_" class="st0" d="M26,29.9c0.1,0.9,0,1.4,0.1,2.3c0.3-0.5,0.1,0.4,0.4,0.4c-0.2-0.5-0.6-1.5-0.3-1.9
			C26,30.5,26.3,29.9,26,29.9z"/>
		<path id="XMLID_6465_" class="st0" d="M26.6,38.2c0.4,0.2,0.8,1,1.3,0.9c-0.6-0.4-1.1-0.8-1.4-1.4c0.6,0.3,1.1,1.4,1.6,1.2
			c-0.3-0.2-0.9-0.5-0.8-0.9c0.3,0.6,0.9,0.8,1.4,1.2c-0.1,0-0.2,0-0.2,0.1c0.2,0,0.3-0.1,0.4-0.2c-0.5-0.4-1.1-0.7-1.5-1.2
			c0.4,0,0.4,0.5,0.7,0.1c0.2,0.6,0.8,0.8,1.3,1.1c0.2-0.4,0.5-0.1,0.8-0.4c-0.2-0.2-0.7-0.4-0.5-0.7c0.2,0.3,0.3,0.6,0.7,0.6
			c0-0.1-0.4-0.6-0.2-0.4c0.1,0.2,0.7,0.3,0.4,0.5c-0.2-0.4-0.7,0.3-1,0.4c0.3-0.1,0.2,0.2,0.4,0.3c0.7-0.5,1.6-0.6,1.7-1.3
			c0.4,0.5,1-0.7,1.3-0.6c-0.5,0.5-1.1,0.8-1.4,1.4c0.6-0.1,0.8-0.3,1.3-0.6c-0.1,0-0.2,0-0.2-0.1c0.5,0.4,0.7-0.7,1.1-0.4
			c-0.3,0.3-1,0.7-1.1,1c1.3-0.7,2.3-2.1,3.1-2.9c-0.1,0-0.1,0.1,0,0.1c0.3-0.2,0.5-1,0.8-0.6c-0.2-0.4,0.2-0.3,0.2-0.6
			c-0.2,0.1-0.1,0-0.4,0c0.2,0.4-0.5,0.4-0.4,0.9c-0.5-0.2-0.5,0.8-1,0.5c1.3-0.9,1.5-2.3,2.2-3.6c0.1,0.2,0.2-0.2,0.4-0.3
			c-0.1,0-0.2-0.1-0.3-0.2c0.3-0.3,0.2-1,0.3-1.3c0,0.4,0.2,0.1,0.3,0.4c0.3-0.3-0.2-0.6,0-0.7c0.1,0.2,0.5-0.6,0.1-0.6
			c0,0.2-0.1,0.2-0.2,0.3c0-0.2,0.1-0.2,0-0.4c0.3-0.1,0.3,0.1,0.4-0.2c0-0.3,0.2-0.5-0.1-0.5c0.1,0.2-0.1,0.7-0.2,0.4
			c0.2-0.2-0.2,0-0.2,0.1c0.1-0.4,0.5-0.8,0.1-1.1c-0.1,0.4,0.2,0.7-0.1,0.7c0-0.1,0.1-0.5-0.1-0.4c0,1-0.7,1.6-0.7,2.2
			c-0.4-0.4,0.5-0.9,0.4-1.6c0.2,0,0.2-0.2,0.3-0.4c-0.1-0.7,0-1.5-0.3-2.2c0.2,0.2,0.5,0.7,0.4,0.9c0-0.2-0.1-0.2-0.2-0.3
			c0.1,0.3-0.1,0.5,0.2,0.6c0-0.4,0,0.1,0.2,0.1c0-0.6,0.1-1.5,0.1-2.2c0-0.4-0.1-1.2-0.4-1.3c0.1,0.1,0.2,2.4,0.1,1.2
			c-0.1-0.5-0.3-1.3-0.2-1.8c-0.1-0.1-0.3-0.5-0.1-0.5c0,0.1,0,0.2,0.1,0.2c0-0.6-0.5-0.7-0.5-1.3c-0.1,0-0.2,0-0.3,0
			c-0.2-1.1-0.6-0.9-1-1.8c-0.2,0.3-0.4-0.3-0.5,0c0.3-0.1,0.1,0.3,0.4,0.2c0.1,0.8,0.8,1,0.9,1.8c-0.6-0.6-1-1.6-1.6-2.2
			c0,0.3,0.1,0.6,0.3,0.8c-0.6-0.2-0.2-0.9-0.8-1c-0.1,0.3,0.4,0.7,0,0.7c-0.2-0.1,0.1-0.7-0.5-0.7c0,0.1,0.2,0.1,0.2,0.3
			c-0.5,0-0.1-0.5-0.5-0.4c0.1,0.3,0.5,0.7,0.3,1.1c0.1-0.5-0.5-0.4-0.6-0.2c1.1,0.3,0.8,2.4-0.1,2.7c-0.1,1.1,0.9,0.5,1.5,0.6
			c0.7,0.1,1,0.4,1.1,1.2c-0.1,0.3-0.5,0.4-0.7,0.6c0.4,0.4,0.9,0.8,1.1,1.5c-0.7,0.9-2.1-0.3-3.1,0.4c-0.2,0.8,0.5,1.4,1,1.8
			c0.7,0.6,1.8,0.7,2.4,1.5c0.2,0.3,0.1,0.8,0.6,1c0,0.6-0.7,1.1-1,1.6c0,0.1,0.1,0.1,0.1,0.2c-0.3,0-0.4,0.2-0.5,0.4
			c0.1,0.3-0.3,1.3-0.5,1.2c0.1-0.1,0.2-0.2,0.2-0.4c-0.7,0.1-1-0.3-1.3-0.6c0.4-0.1,0-0.4,0.2-0.5c0.6-0.2,0.8,0.6,1.1,0.4
			c-0.1-0.9-1-0.6-1.5-0.9c0.3,0,0.2-0.3,0.5-0.3c0.5,0.1,0.7,0.4,1.2,0.5c0-0.3,0.4-0.2,0.3-0.6c-0.7,0-1-0.4-1.8-0.4
			c-1.3,0.9,0.8,3.5-1.5,3.4c-0.4,0-0.5-0.4-1.2-0.4c-0.2,0.3-0.2,0.8-0.4,1.2c0.1,0.2,0.5,0.5,0.4,0.6c-0.1-0.2-0.2-0.3-0.4-0.4
			c-0.5,0.4-1,0.4-1.8,0.2c-0.2-0.2-0.2-0.6-0.6-0.6c-0.3,0.2-0.5,0-0.7,0.2c-1-1-1.4-2.5-1.5-4.4c0.4,1.5,0.6,3.1,1.5,4
			c0.4,0.1,0.5-0.1,0.8-0.2c0.2,0.7,1.6,1.3,2.2,0.5c0.1-0.5,0.1-1.1,0.4-1.3c0.8,0.1,1.7,0.7,2.2,0c0.2-0.4-0.1-1.1-0.1-1.3
			c-0.1-0.7,0.2-1.1,0.4-1.6c1-0.1,1.5,0.4,2.3,0.4c0.2,0,0.2-0.3,0.4-0.4c-0.1,0.4,0.2,0.2,0.4,0.2c0.1-1.1-0.6-1.4-1-2
			c-1.3-0.7-3.1-1.2-2.8-3.2c0.8-0.6,2.5,0.7,3-0.4c-0.2-0.6-1-0.6-1-1.4c0.3-0.1,0.5-0.2,0.7-0.4c-0.3-1.3-1.9-0.4-2.7-1
			c-0.3-0.8,0.9-1.6,0.8-2.4c-0.1-0.8-0.9-1.2-1.9-0.9c-0.5,0.7-0.8,2-2.1,1.6c-0.1-0.4-0.1-1-0.4-1.2c-0.1,0.3-0.4,0.3-0.5,0.5
			c-0.1,0.6-0.1,0.9,0,1.3c0.1,0.3,0,0.7,0.1,1c0,0.2,0.2,0.3,0.3,0.4c0.3,0.9,0.2,2.2-1.1,1.9c-0.5-0.1-1-0.7-1.1-1.3
			c0-0.2-0.2-0.6-0.3-0.7c-0.4-1.6,0-3.6,0.6-4.5c0.3-0.4,1.1-1.3,2.1-1.6c1,0.1,2.1-1,4.2-0.1c1.9,0.5,4.5,3.6,4.9,5.5
			c0.7,1.4,0.8,2.7,0.5,5.4c0.1,1.2-0.3,1.6-0.5,2.4c0,0.5-1.2,3.1-1.5,3.7c-0.8,1.3-2.5,3.4-4.3,4.2C30.5,40.5,27.5,39.9,26.6,38.2
			L26.6,38.2z M36.4,33.1c-0.6-0.1-0.7,0.4-1,0.6c0,0.2,0.1,0.2,0.1,0.4C35.9,33.9,36,33.4,36.4,33.1L36.4,33.1L36.4,33.1z
			 M33.5,19.5c0.1,0.2,0.3,0.4,0.5,0.4C33.9,19.7,33.8,19.5,33.5,19.5L33.5,19.5L33.5,19.5z M37.3,33.1c-0.3,0.4-0.5,0.7-0.6,1.1
			c0.1,0,0.1,0,0.1-0.1c0-0.2,0.3,0,0.4-0.1c0.2,0.2,0-0.2-0.3-0.1C36.9,33.6,37.3,33.6,37.3,33.1L37.3,33.1L37.3,33.1z M37.8,32.8
			c-0.4-0.2-0.5,0.7-0.7,1C37.5,33.7,37.5,33.1,37.8,32.8L37.8,32.8L37.8,32.8z M36.4,35.6c-0.2-0.1-0.5,0.4-0.6,0.6
			C36.2,36.2,36.1,35.7,36.4,35.6L36.4,35.6L36.4,35.6z M35.2,36.7c-0.3,0.4-0.5,0.8-1,1c0.2,0.4,0.5-0.2,0.7-0.4
			c0.2-0.2,0.6-0.3,0.5-0.5c-0.1,0-0.2,0.1-0.2,0.2C35.2,36.9,35.2,36.8,35.2,36.7L35.2,36.7L35.2,36.7z M30.3,39.6
			c0.7,0.2,1.5-0.3,2-0.6c-0.3-0.1-0.8,0.4-1.2,0.4c0-0.4,0.6-0.1,0.5-0.5c-0.4-0.2-0.6,0.5-1.2,0.4C30.6,39.5,30.5,39.6,30.3,39.6
			L30.3,39.6L30.3,39.6z M33.8,38.2c-0.7,0.4-1.3,0.8-2.1,1.2c0.1,0.3,0.4-0.1,0.7,0c0-0.1,0.1-0.1,0.1-0.3
			C33.2,39.1,33.5,38.7,33.8,38.2L33.8,38.2L33.8,38.2z M28,38.1c-0.2,0.1,0.1,0.4,0.3,0.4C28.4,38.2,28,38.4,28,38.1L28,38.1
			L28,38.1z M27.1,20.7c-0.2,0-0.1,0.3-0.3,0.4C26.9,21.3,27.1,20.9,27.1,20.7L27.1,20.7L27.1,20.7z M27.2,23.9
			c-0.2-0.2-0.2-0.5-0.3-0.8c-0.1,1.2,0.2,2.8,1.6,3c0.5-0.5,0.4-1.4,0-2.1c-0.3-1.7,0.2-2.8,0.1-4.1c-0.2,0-0.1,0.3-0.4,0.3
			c-0.1,1.1-0.1,1.7-0.2,2.6c-0.4-0.4,0.1-1.4-0.2-2.2c-0.2,0.9-0.1,1.5-0.2,2.4c-0.1,0-0.1-0.1-0.3-0.1c0.2,0.2,0.3,0.5,0.3,1
			c-0.2-0.1,0-0.6-0.2-0.7c-0.1,0.2,0,0.4,0,0.8c-0.2-0.1-0.2-0.3-0.2-0.5C27.2,23.2,27.2,23.8,27.2,23.9L27.2,23.9L27.2,23.9z
			 M27.1,22.6c0.3-0.1,0-0.4,0-0.5C26.9,22.2,27.1,22.5,27.1,22.6L27.1,22.6L27.1,22.6z M27.6,21.5c-0.1,0-0.1,0.1-0.2,0.1
			c0,0.1,0,0.1,0,0.2C27.6,21.8,27.6,21.7,27.6,21.5L27.6,21.5L27.6,21.5z M27.6,21.9c-0.4,0,0,0.9-0.2,0.9
			C27.7,22.9,27.4,22.2,27.6,21.9L27.6,21.9L27.6,21.9z M27.7,21c-0.2-0.3-0.2,0.2-0.2,0.4C27.7,21.4,27.4,20.9,27.7,21L27.7,21
			L27.7,21z M28.6,21c0.1,0.3-0.1,0.3-0.1,0.5c0.3,0,0.1-0.5,0.5-0.4c-0.1-0.4-0.1-0.5-0.1-1c-0.4-0.1,0,0.6-0.4,0.5
			c0,0.2,0.3,0.1,0.3,0.3C28.9,21.1,28.8,21,28.6,21L28.6,21L28.6,21z M29.4,19.9c-0.2,0.5-0.2,0.8,0,1.2
			C29.6,21.1,29.3,20.4,29.4,19.9L29.4,19.9L29.4,19.9z M29.9,19.9c-0.6,0.5-0.2,1.7,0,2.3c1.2,0,1.1-1.4,2.1-1.7
			c0-0.1-0.2-0.1-0.2-0.2c0.5-0.3,1.1,0.1,1.8,0.1c-0.1-0.8-1.1-0.5-1.7-0.6c0,0.1,0,0.2,0,0.3c-0.3-0.5-0.9-0.2-1.3-0.4
			c-0.2,0.2-0.4,0.4-0.4,0.8c0.3-0.2,0.7-0.2,0.7-0.5c0.4,0,0.1,0.7,0.2,1c-0.4,0.2-0.4,0.7-0.8,0.8c-0.8-0.4-0.4-2.4,0.5-2.4
			c-0.3-0.4-0.5,0.2-1,0.2C29.8,19.7,29.6,19.9,29.9,19.9L29.9,19.9L29.9,19.9z M30.8,20.5c-0.5-0.1-0.3,0.5-0.7,0.4
			c0.1,0.1,0.1,0.2,0.1,0.4C30.5,21.2,30.7,20.9,30.8,20.5L30.8,20.5L30.8,20.5z M31.2,19.7c-0.1-0.1,0-0.3-0.3-0.3
			C31,19.5,30.9,19.7,31.2,19.7L31.2,19.7L31.2,19.7z M32.6,19.4c0-0.3-0.2-0.3-0.4-0.3C32.1,19.4,32.3,19.4,32.6,19.4L32.6,19.4
			L32.6,19.4z M32.3,19.5c-0.1,0-0.1,0-0.2,0c0,0.1,0,0.2,0,0.3c0.1,0,0.1,0,0.2,0C32.3,19.7,32.3,19.6,32.3,19.5L32.3,19.5
			L32.3,19.5z M32.9,19.5c-0.3,0.1-0.2,0.1-0.4,0c-0.1,0.3,0.3,0.3,0.5,0.3C32.9,19.7,32.9,19.6,32.9,19.5L32.9,19.5L32.9,19.5z
			 M33.6,18.6c0-0.3-0.5-0.1-0.8-0.2C32.9,18.7,33.2,18.4,33.6,18.6L33.6,18.6L33.6,18.6z M33.6,19.4c-0.1-0.3-0.4-0.3-0.6-0.4
			C32.7,19.1,33.2,19.5,33.6,19.4L33.6,19.4L33.6,19.4z M34.4,19.8c0-0.1-0.2-0.1-0.2-0.3C34,19.6,34.2,19.9,34.4,19.8L34.4,19.8
			L34.4,19.8z M35.1,20.2c0.1-0.2-0.3-0.6-0.6-0.6C34.6,19.8,34.9,20,35.1,20.2L35.1,20.2L35.1,20.2z M35.8,36.4
			c-0.1-0.2-0.2,0-0.3,0C35.6,36.6,35.7,36.4,35.8,36.4L35.8,36.4L35.8,36.4z M36.7,34.5C37,34.7,37.2,34.1,36.7,34.5L36.7,34.5
			L36.7,34.5z M38.3,25.2c-0.1-1.2-0.7-2.8-1.4-3.8c0,0.8,0.8,1.4,1,2.2c0,0.1-0.1,0.3-0.1,0.3c0,0.1,0.1,0.1,0.2,0.3
			C38.1,24.5,38,24.9,38.3,25.2L38.3,25.2L38.3,25.2z M37.7,24.4C38,24.2,37.6,23.8,37.7,24.4L37.7,24.4L37.7,24.4z M38.5,26.4
			c0.1,1.3-0.2,1.5-0.2,2.4c0.2-0.1,0-0.4,0.1-0.5c0.4,0.1,0.1,0.8,0,1c0.3,0.2,0.4-1,0.4-1.7c0-0.6-0.2-1-0.1-1.3
			c-0.3-0.1-0.2-0.1-0.4,0C38.3,26.3,38.4,26.3,38.5,26.4L38.5,26.4L38.5,26.4z M38.2,30.2c0.2,0.2,0.1-0.5,0.4-0.5
			C38.3,29.4,38.4,30.1,38.2,30.2L38.2,30.2L38.2,30.2z M34.2,34.3c0,0.3,0.3,0.4,0.5,0.4l0,0C34.7,34.5,34.5,34.3,34.2,34.3z"/>
		<path id="XMLID_6464_" class="st0" d="M29.7,38.8c-0.2-0.5-0.9-0.6-1.2-1.1c-0.4,0,0.2,0.4,0.4,0.5C29.1,38.4,29.4,38.8,29.7,38.8
			z"/>
		<path id="XMLID_6463_" class="st0" d="M26.6,32.8c-0.1,0.3,0.2,0.9,0.4,1.2c0,0.2,0.1,0.2,0.1,0.1C26.8,33.7,26.7,33.3,26.6,32.8z
			"/>
		<path id="XMLID_6462_" class="st0" d="M27.2,37.5c-0.3,0,0.2,0.3-0.1,0.3c0,0.1,0.1,0,0.3,0C27.4,37.7,27.2,37.6,27.2,37.5z"/>
		<path id="XMLID_6461_" class="st0" d="M27.5,37.1"/>
		<path id="XMLID_6460_" class="st0" d="M28.2,28.3c0.3-0.1,0.4-0.4,0.6-0.6c0.1,0,0.1,0.2,0.1,0.3c0.3-0.1,1,0.5,1.1,0.6
			c0.1,0.1,0.2,0,0.2,0c0.1,0.1,0,0.5,0.1,0.6c0.3,0.3-0.3,0.6-0.9,0.7c-0.1,0-0.2-0.5-0.1-0.4C29,29.5,29,29,28.6,29
			c0.3,0.4,0.7,1,0.4,1.6c0.2,0.4,0.7,0.6,0.5,1.2c0.1-0.2,0.3-0.2,0.3,0.2c-0.3,0.2-0.6,0.3-1.1,0.4c-0.2-0.2,0,0.2,0.3,0.1
			c0.1,0.6-0.3,1.1-0.7,0.8c-0.2,0.1,0.3,0.3,0.5,0.3c0.1-0.1,0.1-0.4,0.4-0.4c0-0.2,0-0.4,0-0.5c0.2-0.2,0.5-0.3,0.8-0.4
			c-0.3-0.6,0-1.1-0.2-1.7c-0.2,0.1,0.1,0.4-0.1,0.6c-0.3-0.1-0.1-0.5-0.5-0.4c0-0.3,0.3-0.2,0.3-0.4c0.1,0,0.2,0.1,0.2,0.2
			c0.2,0,0-0.3-0.1-0.3c0.1-0.3,0.5-0.2,0.8-0.3c0.9-1.1-0.4-1.9-1.1-2.5c-0.1,0,0,0.1,0,0.2c-0.1,0-0.2-0.1-0.3-0.1
			c0-0.3,0.3-0.2,0.4-0.4c-0.6-0.2-0.7,0.8-1.2,1c-0.2,0-0.1-0.3-0.4-0.3c0.1,0.3,0.4,0.4,0.4,0.7C28.5,28.5,28.3,28.2,28.2,28.3z"
			/>
		<path id="XMLID_6459_" class="st0" d="M29.9,26.6c0.1,0.3,0.4-0.4,0.2-0.4c0.2-0.3,0.4-0.5,0.4-1c0.2-0.4,0.8,0,1.1,0.1
			c-0.3,0.6-0.8,0.9-1.1,1.5c0.1,0.6,1,0.4,1,1.1c0.2,0,0.1-0.2,0.3-0.2c-0.1-0.5-0.9-0.4-1.1-0.9c0.2-0.7,1-0.9,1.3-1.6
			c-0.6-0.3-1.2-0.3-1.5-0.7c0.2,0.4-0.1,0.4-0.4,0.5c0.4,0.4-0.3,1.2-0.7,1.4c0.2,0.2,0.4-0.2,0.5-0.3c0.1,0,0.1,0.1,0.2,0.1
			C30,26.4,30,26.5,29.9,26.6z"/>
		<path id="XMLID_6458_" class="st0" d="M30.2,15.4c0.2,0.1,0.7,0.1,0.6-0.1C30.6,15.4,30.5,15.5,30.2,15.4z"/>
		<path id="XMLID_6457_" class="st0" d="M31.1,29.2c0.3-0.2,0.4-0.8,0.6-1.2C31.4,28.3,31.3,28.8,31.1,29.2z"/>
		<path id="XMLID_6456_" class="st0" d="M31.8,30.2"/>
		<path id="XMLID_6455_" class="st0" d="M32.8,36.6c0.3,0.3,0.3-0.4,0.5-0.4C33.1,36,33,36.6,32.8,36.6z"/>
		<path id="XMLID_6454_" class="st0" d="M33.2,36.9c-0.1,0-0.1,0.2-0.3,0.2c0.1,0.1,0.3,0,0.4,0c0.2-0.1-0.1-0.1-0.1,0
			C33.2,37.1,33.2,36.9,33.2,36.9z"/>
		<path id="XMLID_6453_" class="st0" d="M33.3,36c0.3,0.1,0.7-0.5,0.8-1C33.8,35.3,33.7,35.8,33.3,36z"/>
		<path id="XMLID_6452_" class="st0" d="M33.4,37.4c0.2,0.2,0.6-0.3,0.7-0.5c0.4,0.1,0.7-0.1,0.7-0.4c-0.2,0.1-0.5,0.3-0.4-0.1
			c-0.2,0-0.2,0.2-0.2,0.4C34,36.7,33.8,37.3,33.4,37.4z"/>
		<path id="XMLID_6448_" class="st0" d="M33.8,23.8c-0.2-1.7,1.6-2,2.1-1.6C35.6,22.7,34.8,24.1,33.8,23.8L33.8,23.8z M34.8,23.2
			c-0.1-0.3-0.6,0-0.8,0.1c0,0.1,0,0.2,0,0.3C34.5,23.6,34.6,23.3,34.8,23.2L34.8,23.2L34.8,23.2z M34.3,23.1c0.5-0.3,0.8,0,1.1-0.5
			c0.1-0.2-0.2-0.2-0.2-0.4l0,0C34.8,22.4,34.4,22.5,34.3,23.1z"/>
		<path id="XMLID_6447_" class="st0" d="M33.7,36.1c0.3,0.2,0.4-0.6,0.8-0.6C34.2,35,34,36,33.7,36.1z"/>
		<path id="XMLID_6446_" class="st0" d="M33.9,37.5c0.2-0.1,0.3-0.2,0.4-0.4C34.3,37,33.9,37.3,33.9,37.5z"/>
		<path id="XMLID_6445_" class="st0" d="M35,35.6c-0.2,0.1-0.3,0.3-0.4,0.5c0.1,0,0.3,0,0.3,0.1C35,36.1,34.8,35.9,35,35.6z"/>
		<path id="XMLID_6441_" class="st0" d="M36,23.6c0.1,0.3,0.3,0.4,0.4,0.4c-0.2,0-0.1,0.4,0.1,0.4c0.5-0.7,0-1.2,0.1-1.9
			c0,0.3,0.1-0.1,0.3-0.1c0,0.2-0.1,0.3-0.2,0.4c0.3,0.4,0.8,1.5,0.7,1.7c-0.2,0,0.1-0.5-0.2-0.4c-0.3,0.4,0.1,0.6,0.3,0.9
			c-0.4,0.2,0,0.8,0.1,1c-0.1,0-0.1,0.1-0.1,0.2C37,26,37,26.5,36.7,26.8c0.1-0.8,0.8-1.6,0.4-2.1c0,0.3,0,0.7-0.3,0.7
			c0.1-0.5,0.3-0.8,0-1.3c0,0.3-0.2,0.8-0.4,0.7c0.1-0.1,0.1-0.5-0.2-0.4C36.5,24.1,35.7,23.6,36,23.6L36,23.6z M37.4,26
			c-0.1-0.1-0.1-0.2-0.1-0.4c-0.4,0,0,0.2-0.2,0.4C37.3,26,37.3,26,37.4,26L37.4,26L37.4,26z M37,24.2L37,24.2
			C37.2,23.8,36.7,23.5,37,24.2z"/>
		<path id="XMLID_6440_" class="st0" d="M37.3,24"/>
		<path id="XMLID_6439_" class="st0" d="M36,25.8"/>
		<path id="XMLID_6438_" class="st0" d="M36.1,23"/>
		<path id="XMLID_6437_" class="st0" d="M36.5,30.7c0.2,0,0.1-0.3,0.3-0.3C36.8,30.2,36.5,30.5,36.5,30.7z"/>
		<path id="XMLID_6436_" class="st0" d="M37,30.9"/>
		<path id="XMLID_6435_" class="st0" d="M37.5,26.4c-0.6-0.3-0.1,0.7-0.4,0.9c0.3,0.3,0.4,0.6,0.4,1.2c0.3-0.4-0.3-1.2-0.1-2
			C37.3,26.4,37.5,26.4,37.5,26.4z"/>
		<path id="XMLID_6434_" class="st0" d="M24.3,21.1c-0.2,0.6,0.1,1.5,0.1,2.2c0.3-0.1,0.2,0.1,0.4,0.1c-0.1-0.3,0-0.5-0.1-1.1
			c-0.4-0.1,0.2,0.4-0.2,0.4C24.4,22.2,24.5,21.6,24.3,21.1z"/>
	</g>
	<g id="XMLID_6431_">
		<path id="XMLID_6432_" class="st0" d="M65.3,10l-0.9-1c0,0-0.1,0.1-0.4,0.4c-0.2,0.3-0.5,0.7-0.7,1.3c-0.2,0.6-0.1,1.3-0.1,1.9
			c0,0.6,0,1.1-0.2,1.6c-0.2,0.5-0.7,1-1,1.5c-0.2,0.3-0.4,0.6-0.4,1c0,0.2,0,0.4,0,0.6c0.1,0.2,0.2,0.4,0.3,0.5
			c0.2,0.3,0.5,0.4,0.7,0.5c0.2,0.1,0.4,0.2,0.5,0.2c0.1,0.1,0.3,0.1,0.3,0.1c0.1,0,0.1,0,0.1,0s0,0-0.1-0.1c-0.1,0-0.2-0.1-0.3-0.2
			c-0.1-0.1-0.3-0.2-0.5-0.3c-0.2-0.1-0.4-0.3-0.5-0.5c-0.1-0.1-0.1-0.3-0.2-0.4c0-0.2,0-0.3,0-0.5c0.1-0.3,0.3-0.5,0.5-0.8
			c0.4-0.5,0.9-0.9,1.3-1.5c0.4-0.6,0.5-1.3,0.5-2c0-0.6,0.1-1.2,0.3-1.5C64.8,10.3,65.3,10,65.3,10z"/>
	</g>
	<g id="XMLID_6429_">
		<path id="XMLID_6430_" class="st0" d="M59.7,14.5l1.4-0.2c0,0,0-0.1,0-0.3c0-0.2,0-0.4,0-0.7c0-0.3,0.2-0.6,0.3-1
			c0.2-0.4,0.5-0.8,0.7-1.2c0.3-0.4,0.6-1,0.6-1.5c0-0.3,0-0.6,0-0.8c-0.1-0.2-0.1-0.5-0.2-0.7c-0.2-0.4-0.4-0.6-0.5-0.8
			C61.9,7.1,61.8,7,61.8,7s0.1,0.1,0.2,0.3c0.1,0.2,0.3,0.5,0.4,0.9c0.1,0.2,0.1,0.4,0.1,0.6c0,0.2,0,0.5-0.1,0.7
			c-0.1,0.5-0.4,0.8-0.8,1.2c-0.3,0.4-0.7,0.7-1,1.1c-0.3,0.4-0.5,0.8-0.7,1.2c-0.1,0.4-0.2,0.8-0.2,1
			C59.7,14.3,59.7,14.5,59.7,14.5z"/>
	</g>
	<g id="XMLID_6427_">
		<path id="XMLID_6428_" class="st0" d="M58.3,18.3l1.2-0.8c0,0,0,0-0.1-0.1c-0.1-0.1-0.1-0.2-0.3-0.3c-0.2-0.2-0.7-0.6-1.2-0.7
			c-1.1-0.4-2.4-0.2-3.5-0.3c-0.6-0.1-1-0.2-1.4-0.5c-0.3-0.3-0.5-0.8-0.6-1.2c-0.1-0.4-0.1-0.8-0.1-1c0-0.3,0-0.4,0-0.4
			s0,0.1,0,0.4c0,0.3-0.1,0.6,0,1.1c0,0.4,0.1,1,0.5,1.5c0.3,0.5,1,0.8,1.6,0.9c0.6,0.2,1.3,0.2,1.8,0.3c0.6,0.1,1.1,0.2,1.4,0.4
			c0.3,0.2,0.5,0.4,0.7,0.6C58.2,18.1,58.2,18.1,58.3,18.3C58.3,18.2,58.3,18.3,58.3,18.3z"/>
	</g>
	<g id="XMLID_6425_">
		<path id="XMLID_6426_" class="st0" d="M61.2,20.8l0.2-1.4c0,0-0.2,0-0.4,0c-0.3,0-0.7,0-1.2,0.1c-0.3,0-0.6,0.1-0.8,0.3
			c-0.3,0.1-0.5,0.3-0.8,0.5c-0.2,0.2-0.4,0.3-0.7,0.5c-0.2,0.2-0.5,0.3-0.7,0.5c-0.5,0.3-1,0.6-1.4,0.8c-0.5,0.2-0.9,0.3-1.4,0.3
			c-0.4,0.1-0.8,0.1-1,0.1c-0.3,0-0.4,0-0.4,0s0.1,0,0.4,0c0.3,0,0.6,0.1,1,0.1c0.4,0,0.9,0,1.5-0.1c0.5-0.1,1.1-0.3,1.6-0.6
			c0.3-0.1,0.5-0.2,0.8-0.4c0.3-0.1,0.5-0.3,0.8-0.4c0.5-0.3,0.9-0.4,1.2-0.4c0.4,0,0.7,0.1,0.9,0.1C61.1,20.8,61.2,20.8,61.2,20.8z
			"/>
	</g>
	<g id="XMLID_6423_">
		<path id="XMLID_6424_" class="st0" d="M64.6,20l0.4,1.3c0,0,0,0,0.1,0c0.1,0,0.3,0,0.6,0.1c0.6,0.2,1.4,0.7,2.2,1.3
			c0.8,0.6,1.6,1.1,2.2,1.5c0.3,0.2,0.6,0.4,0.8,0.5c0.1,0.1,0.2,0.1,0.3,0.1c0.1,0,0.1,0,0.1,0s0,0-0.1-0.1c-0.1,0-0.1-0.1-0.2-0.1
			c-0.2-0.1-0.4-0.3-0.7-0.6c-0.6-0.5-1.2-1.2-1.9-1.9c-0.7-0.7-1.4-1.4-2.1-1.8c-0.4-0.2-0.7-0.3-1.1-0.4c-0.2,0-0.3,0-0.4,0
			C64.6,20,64.6,20,64.6,20z"/>
	</g>
	<g id="XMLID_6421_">
		<path id="XMLID_6422_" class="st0" d="M65.9,18.1l1.3,0.5c0,0,0.1-0.5,0.5-0.8c0.2-0.2,0.6-0.3,1.2-0.4c0.3-0.1,0.6-0.2,0.9-0.4
			c0.3-0.2,0.5-0.5,0.7-0.7c0.2-0.3,0.4-0.6,0.5-0.9c0.1-0.3,0.2-0.6,0.3-0.8c0.2-0.5,0.3-0.7,0.6-0.9c0.3-0.1,0.6-0.1,0.8-0.1
			c0.2,0,0.4,0,0.4,0s-0.1,0-0.4-0.1c-0.2,0-0.6-0.1-0.9,0c-0.2,0-0.4,0.1-0.5,0.3c-0.2,0.2-0.3,0.4-0.4,0.6c-0.2,0.5-0.5,1-0.9,1.4
			c-0.2,0.2-0.4,0.4-0.6,0.4c-0.2,0.1-0.5,0.1-0.7,0.2c-0.5,0.1-1.1,0.1-1.6,0.3c-0.5,0.3-0.8,0.6-1,0.9C66,18,65.9,18.1,65.9,18.1z
			"/>
	</g>
	<g id="XMLID_6419_">
		<path id="XMLID_6420_" class="st0" d="M62.2,17.6l1.4-0.3c0,0,0-0.1-0.1-0.3c0-0.2,0-0.4,0-0.7c0.1-0.3,0.2-0.7,0.5-1.1
			c0.1-0.2,0.3-0.5,0.4-0.7c0.1-0.1,0.1-0.3,0.2-0.4c0-0.1,0-0.1,0.1-0.2l0-0.1l0-0.1c0,0,0,0,0,0l0,0c0,0,0,0,0,0l0,0l0-0.1l0-0.1
			c0-0.1,0-0.1,0.1-0.2c0-0.1,0.1-0.3,0.1-0.4c0-0.3,0.1-0.5,0.1-0.8c0.1-0.5,0.1-1,0.1-1.4c0-0.4,0.1-0.7,0.2-0.9
			c0-0.1,0.1-0.2,0.1-0.2c0-0.1,0-0.1,0-0.1s0,0,0,0.1c0,0.1-0.1,0.1-0.1,0.2c-0.1,0.2-0.2,0.5-0.3,0.9c-0.2,0.8-0.4,1.9-0.9,2.8
			c-0.2,0.5-0.5,0.9-0.8,1.3c-0.3,0.4-0.6,0.8-0.8,1.3c-0.2,0.5-0.2,0.9-0.2,1.2C62.2,17.5,62.2,17.6,62.2,17.6z"/>
	</g>
	<g id="XMLID_6417_">
		<path id="XMLID_6418_" class="st0" d="M59.2,14.3l1.1-0.9c0,0-0.1-0.1-0.2-0.2c-0.1-0.1-0.1-0.1-0.2-0.2c-0.1-0.1-0.2-0.2-0.3-0.2
			c-0.2-0.2-0.6-0.3-0.9-0.5c-0.3-0.1-0.7-0.2-1.1-0.3c-0.8-0.1-1.6-0.1-2.1,0.1c-0.1,0-0.3,0.1-0.4,0.1c-0.1,0-0.2,0.1-0.3,0.1
			c-0.1,0.1-0.2,0.1-0.2,0.1s0.1,0,0.3-0.1c0.1,0,0.2,0,0.3-0.1c0.1,0,0.2,0,0.4,0c0.6,0,1.3,0.1,1.9,0.4c0.3,0.1,0.6,0.3,0.8,0.5
			c0.2,0.2,0.4,0.4,0.6,0.6c0.1,0.1,0.1,0.2,0.2,0.2c0.1,0.1,0.1,0.1,0.1,0.2C59.2,14.2,59.2,14.3,59.2,14.3z"/>
	</g>
	<g id="XMLID_6415_">
		<path id="XMLID_6416_" class="st0" d="M51.7,15.9l0.1-1.4c0,0-0.1,0-0.2,0c-0.1,0-0.3,0-0.5,0c-0.4,0-1.1,0.2-1.7,0.5
			c-1.4,0.7-2.6,2.1-3.6,3.6c-0.9,1.6-1.6,3.3-1.9,4.6c-0.3,1.3-0.4,2.2-0.4,2.2s0.1-0.9,0.6-2.2c0.5-1.3,1.2-2.8,2.3-4.2
			c1-1.4,2.4-2.6,3.5-2.9c0.6-0.2,1-0.3,1.3-0.2c0.2,0,0.3,0,0.4,0C51.6,15.9,51.7,15.9,51.7,15.9z"/>
	</g>
	<g id="XMLID_6413_">
		<path id="XMLID_6414_" class="st0" d="M56.5,19.1l-0.1-1.4c0,0-0.2,0-0.5,0.1c-0.1,0-0.2,0-0.3,0c-0.1,0-0.2,0-0.3,0.1
			c-0.2,0.1-0.5,0.1-0.7,0.2c-0.1,0-0.3,0.1-0.4,0.1c-0.1,0.1-0.3,0.1-0.4,0.2c-0.3,0.1-0.6,0.3-0.9,0.5c-0.6,0.4-1.1,0.9-1.6,1.4
			c-0.5,0.5-0.9,1.1-1.2,1.7c-0.3,0.6-0.6,1.1-0.7,1.6c-0.1,0.2-0.2,0.5-0.2,0.7c-0.1,0.2-0.1,0.4-0.1,0.5c-0.1,0.3-0.1,0.5-0.1,0.5
			s0.1-0.2,0.2-0.5c0-0.1,0.1-0.3,0.2-0.5c0.1-0.2,0.2-0.4,0.3-0.6c0.2-0.5,0.5-1,0.9-1.5c0.4-0.5,0.8-1,1.3-1.4
			c0.5-0.4,1.1-0.8,1.6-1.1c0.3-0.1,0.5-0.2,0.8-0.3c0.1,0,0.3-0.1,0.4-0.1c0.1,0,0.2,0,0.4-0.1c0.2-0.1,0.4-0.1,0.6-0.1
			c0.1,0,0.2,0,0.3,0c0.1,0,0.2,0,0.2,0C56.3,19.1,56.5,19.1,56.5,19.1z"/>
	</g>
	<g id="XMLID_6411_">
		<path id="XMLID_6412_" class="st0" d="M55.9,20.7v-1.4c0,0-0.1,0-0.3,0c-0.1,0-0.2,0-0.3,0c-0.1,0-0.3,0.1-0.4,0.1
			c-0.2,0.1-0.3,0.1-0.5,0.2c-0.2,0.1-0.4,0.2-0.5,0.3c-0.4,0.2-0.7,0.6-1.1,0.9c-0.7,0.7-1.3,1.7-1.9,2.8c-0.3,0.5-0.5,1.1-0.8,1.6
			c-0.1,0.3-0.2,0.6-0.4,0.9c-0.1,0.3-0.2,0.6-0.3,0.9c-0.4,1.3-0.5,2.6-0.5,3.8c0,1.2,0.3,2.3,0.6,3.3c0.3,0.9,0.6,1.6,0.9,2.1
			c0.3,0.5,0.4,0.8,0.4,0.8s-0.1-0.3-0.3-0.8c-0.2-0.5-0.5-1.3-0.7-2.2c-0.2-0.9-0.4-2-0.4-3.2c0-1.2,0.3-2.4,0.7-3.6
			c0.4-1.2,1.1-2.2,1.7-3.2c0.6-1,1.3-1.8,1.9-2.4c0.6-0.6,1.3-0.9,1.7-1c0.1,0,0.2,0,0.3,0c0.1,0,0.2,0,0.2,0
			C55.8,20.7,55.9,20.7,55.9,20.7z"/>
	</g>
	<g id="XMLID_6409_">
		<path id="XMLID_6410_" class="st0" d="M57.3,22.9l-1-1c0,0-0.1,0.2-0.4,0.4c-0.1,0.1-0.3,0.3-0.4,0.5c-0.1,0.2-0.3,0.4-0.5,0.7
			c-0.3,0.5-0.6,1.2-0.9,1.9c-0.3,0.7-0.5,1.5-0.6,2.3c-0.3,1.6-0.4,3.2-0.4,4.3c0,1.2,0,2,0,2s0.1-0.8,0.2-2
			c0.1-1.2,0.4-2.7,0.9-4.2c0.2-0.7,0.5-1.4,0.8-2.1c0.3-0.6,0.7-1.2,1-1.6c0.2-0.2,0.3-0.4,0.5-0.6c0.1-0.2,0.3-0.3,0.4-0.4
			C57.2,23,57.3,22.9,57.3,22.9z"/>
	</g>
	<g id="XMLID_6407_">
		<path id="XMLID_6408_" class="st0" d="M60.9,20.7L60,19.6c0,0-0.1,0.1-0.2,0.2c-0.2,0.1-0.4,0.3-0.7,0.6c-0.6,0.5-1.3,1.3-2.1,2.4
			c-0.7,1.1-1.4,2.5-1.9,4c-0.2,0.8-0.4,1.6-0.5,2.4c-0.1,0.8-0.2,1.7-0.2,2.5c-0.1,3.4,0.7,6.7,1.6,9.1c0.4,1.2,0.9,2.1,1.2,2.8
			c0.2,0.3,0.3,0.6,0.4,0.7c0.1,0.2,0.2,0.3,0.2,0.3s0-0.1-0.1-0.3c-0.1-0.2-0.2-0.4-0.4-0.8c-0.3-0.7-0.7-1.6-1.1-2.8
			c-0.8-2.4-1.3-5.7-1.1-9c0.1-0.8,0.2-1.6,0.3-2.4c0.2-0.8,0.4-1.5,0.6-2.3c0.5-1.4,1.2-2.7,1.9-3.6c0.7-0.9,1.4-1.6,2-2.1
			c0.3-0.2,0.5-0.4,0.6-0.5C60.8,20.8,60.9,20.7,60.9,20.7z"/>
	</g>
	<g id="XMLID_6405_">
		<path id="XMLID_6406_" class="st0" d="M69,16.5l0.1,1.4c0,0,0.1,0,0.4,0c0.3,0,0.6,0,1.1,0c0.4,0,0.9,0.1,1.5,0.2
			c0.5,0.1,1,0.3,1.5,0.6c0.5,0.3,0.9,0.7,1.3,1.1c0.4,0.4,0.7,0.8,0.9,1.2c0.3,0.4,0.5,0.7,0.6,0.9c0.1,0.2,0.2,0.4,0.2,0.4
			s-0.1-0.1-0.2-0.4c-0.1-0.3-0.2-0.6-0.4-1c-0.2-0.4-0.5-0.9-0.8-1.4c-0.3-0.5-0.8-0.9-1.3-1.4c-0.5-0.4-1.1-0.7-1.6-1
			c-0.6-0.2-1.1-0.4-1.6-0.5c-0.5-0.1-0.9-0.1-1.2-0.2C69.1,16.5,69,16.5,69,16.5z"/>
	</g>
	<g id="XMLID_6403_">
		<path id="XMLID_6404_" class="st0" d="M71.4,14.7l0.2,1.4c0,0,0.1,0,0.3,0c0.2,0,0.4,0,0.7,0c0.3,0,0.7,0.1,1,0.2
			c0.4,0.1,0.7,0.3,1.1,0.5c0.3,0.2,0.7,0.5,0.9,0.8c0.3,0.3,0.5,0.6,0.7,0.9c0.2,0.3,0.3,0.5,0.5,0.7c0.1,0.2,0.2,0.3,0.2,0.3
			s0-0.1-0.1-0.3c-0.1-0.2-0.2-0.5-0.3-0.8c-0.3-0.6-0.7-1.5-1.4-2.2c-0.3-0.3-0.7-0.6-1.2-0.9c-0.4-0.2-0.9-0.4-1.2-0.5
			c-0.4-0.1-0.7-0.1-0.9-0.1C71.5,14.7,71.4,14.7,71.4,14.7z"/>
	</g>
	<g id="XMLID_6401_">
		<path id="XMLID_6402_" class="st0" d="M21.7,17.9v-1.4c0,0-0.1,0-0.2,0c-0.2,0-0.4,0-0.7,0c-0.6,0-1.4,0.1-2.4,0.3
			c-1,0.2-2.1,0.6-3.3,1c-1.1,0.5-2.3,1.2-3.4,2c-1.1,0.8-2,1.9-2.6,3c-0.6,1.1-1,2.3-1.1,3.3c-0.1,1,0,1.9,0.1,2.4
			c0,0.3,0.1,0.5,0.2,0.7c0,0.2,0.1,0.2,0.1,0.2s0-0.1,0-0.2c0-0.2-0.1-0.4-0.1-0.7c-0.1-0.6-0.1-1.4,0-2.4c0.1-1,0.5-2.1,1.2-3.1
			c0.7-1,1.6-1.9,2.7-2.6c1-0.7,2.2-1.3,3.3-1.7c1.1-0.4,2.2-0.6,3.1-0.8c0.9-0.1,1.7-0.2,2.2-0.2c0.3,0,0.5,0,0.6,0
			C21.6,17.9,21.7,17.9,21.7,17.9z"/>
	</g>
	<g id="XMLID_6399_">
		<path id="XMLID_6400_" class="st0" d="M27.2,15.1l0.6,1.3c0,0,0.1-0.1,0.3-0.1c0.1,0,0.2-0.1,0.4-0.2c0.1-0.1,0.3-0.1,0.5-0.2
			c0.4-0.1,0.8-0.2,1.3-0.3c0.5-0.1,1-0.1,1.5-0.1c1,0,2,0.3,2.7,0.6c0.2,0.1,0.3,0.2,0.5,0.2c0.1,0.1,0.3,0.1,0.3,0.2
			c0.2,0.1,0.3,0.2,0.3,0.2s-0.1-0.1-0.2-0.2c-0.1-0.1-0.2-0.2-0.3-0.3c-0.1-0.1-0.3-0.2-0.4-0.3c-0.6-0.5-1.7-0.9-2.8-1.1
			c-0.5-0.1-1.1-0.1-1.6-0.2c-0.5,0-1,0-1.5,0.1c-0.2,0-0.4,0.1-0.6,0.1c-0.2,0-0.3,0.1-0.4,0.1C27.3,15.1,27.2,15.1,27.2,15.1z"/>
	</g>
	<g id="XMLID_6397_">
		<path id="XMLID_6398_" class="st0" d="M22.2,23.5l1.4,0.2c0,0,0-0.1,0-0.4c0-0.1,0-0.3,0-0.5c0-0.2,0-0.4-0.1-0.7
			c-0.1-0.5-0.3-1.1-0.7-1.7c-0.4-0.6-1-1.1-1.8-1.5c-0.7-0.4-1.6-0.6-2.5-0.8c-0.9-0.1-1.9-0.1-2.9,0.2c-0.5,0.2-1,0.5-1.4,0.8
			c-0.4,0.4-0.8,0.8-1.1,1.2c-0.6,0.9-1,1.8-1.4,2.7c-0.2,0.4-0.4,0.9-0.6,1.4c-0.2,0.5-0.4,1-0.5,1.5c-0.1,0.5-0.2,1-0.3,1.5
			c0,0.5-0.1,1-0.1,1.5c0,0.5,0.1,1,0.1,1.4c0.1,0.5,0.2,0.9,0.3,1.3c0.1,0.4,0.3,0.8,0.4,1.2c0.2,0.4,0.3,0.8,0.5,1.1
			c0.6,1.4,1.3,2.5,1.7,3.2c0.4,0.8,0.7,1.2,0.7,1.2s-0.2-0.4-0.6-1.2c-0.4-0.8-1-1.9-1.6-3.3c-0.1-0.3-0.3-0.7-0.4-1.1
			c-0.1-0.4-0.3-0.8-0.4-1.2c-0.1-0.4-0.2-0.9-0.2-1.3c0-0.5-0.1-0.9-0.1-1.4c0-0.5,0.1-0.9,0.1-1.4c0.1-0.5,0.2-0.9,0.3-1.4
			c0.1-0.5,0.3-0.9,0.5-1.4c0.2-0.4,0.4-0.9,0.6-1.3c0.5-0.9,0.9-1.8,1.5-2.5c0.3-0.4,0.6-0.7,1-1c0.4-0.3,0.7-0.5,1.1-0.6
			c0.8-0.2,1.7-0.2,2.5-0.1c0.8,0.1,1.5,0.4,2.1,0.7c0.6,0.3,1,0.7,1.3,1.2c0.3,0.4,0.4,0.9,0.4,1.2c0,0.2,0,0.3,0,0.5
			c0,0.1,0,0.3,0,0.4C22.2,23.4,22.2,23.5,22.2,23.5z"/>
	</g>
	<g id="XMLID_6395_">
		<path id="XMLID_6396_" class="st0" d="M25.9,24.5l1.4-0.1c0,0,0-0.1,0-0.3c0-0.1,0-0.3,0-0.4c0-0.2,0-0.4,0-0.6
			c0-0.4,0.1-0.9,0.4-1.4c0.2-0.5,0.6-1.1,1.1-1.5c0.5-0.5,1.2-0.8,2-1c0.8-0.2,1.7-0.1,2.6,0.1c0.9,0.2,1.7,0.7,2.4,1.4
			c0.4,0.3,0.7,0.7,0.9,1.1l0.2,0.3c0.1,0.1,0.1,0.2,0.2,0.3l0.3,0.7c0.8,1.9,1,4,0.6,5.8c-0.1,1-0.4,1.8-0.8,2.7
			c-0.2,0.4-0.4,0.8-0.6,1.2c-0.1,0.2-0.2,0.4-0.3,0.5c-0.1,0.2-0.2,0.3-0.3,0.5c-0.4,0.6-0.9,1.2-1.3,1.6c-0.2,0.2-0.4,0.4-0.6,0.6
			c-0.2,0.2-0.4,0.3-0.6,0.5c-0.1,0.1-0.2,0.1-0.3,0.2c-0.1,0.1-0.2,0.1-0.2,0.1c-0.1,0.1-0.3,0.2-0.4,0.2c-0.2,0.1-0.3,0.2-0.3,0.2
			s0.1-0.1,0.3-0.2c0.1-0.1,0.2-0.1,0.4-0.2c0.1,0,0.2-0.1,0.2-0.1c0.1-0.1,0.2-0.1,0.3-0.2c0.2-0.1,0.4-0.3,0.6-0.4
			c0.2-0.2,0.4-0.4,0.7-0.6c0.5-0.4,1-1,1.4-1.6c0.1-0.2,0.2-0.3,0.3-0.5c0.1-0.2,0.2-0.3,0.3-0.5c0.2-0.4,0.4-0.8,0.6-1.2
			c0.4-0.8,0.7-1.7,0.9-2.7c0.4-1.9,0.3-4.2-0.4-6.2l-0.3-0.7c-0.1-0.1-0.1-0.3-0.2-0.4l-0.2-0.4c-0.3-0.5-0.6-0.9-1-1.3
			c-0.8-0.8-1.7-1.4-2.7-1.7c-1-0.3-2.1-0.4-3-0.3c-1,0.2-1.9,0.6-2.6,1.1c-0.7,0.5-1.2,1.2-1.5,1.9c-0.3,0.7-0.5,1.3-0.5,1.8
			c0,0.3-0.1,0.5-0.1,0.7c0,0.2,0,0.4,0,0.5C25.9,24.4,25.9,24.5,25.9,24.5z"/>
	</g>
	<g id="XMLID_6393_">
		<path id="XMLID_6394_" class="st0" d="M23.9,23.8l-1.3-0.4c-0.1,0.3-0.2,0.6-0.3,0.8c0,0,0,0.1-0.1,0.1c0,0,0,0,0,0c0,0,0,0,0,0
			c0,0,0,0,0,0l0,0l0,0c-0.1-0.1-0.2-0.2-0.2-0.3c-0.2-0.2-0.3-0.5-0.5-0.8c-0.2-0.3-0.3-0.6-0.4-0.9l-0.2-0.5
			c-0.1-0.3-0.3-0.6-0.4-0.8c-0.1-0.3-0.3-0.5-0.5-0.7c-0.2-0.1-0.3-0.2-0.4-0.3l-0.3-0.2c-0.1,0-0.1,0-0.1,0l-0.1,0
			c0,0-0.2-0.1-0.4-0.2l0,1l0,0.4l0,0.2l0,0.2l-0.1,0.3c0,0,0,0.1,0,0.1c0,0,0,0,0,0l0,0.1c0,0.1-0.1,0.1-0.1,0.2
			c-0.2,0.3-0.5,0.5-0.8,0.8c-0.2,0.1-0.3,0.3-0.5,0.4l-0.1,0.1l0,0c0,0,0,0,0,0l-0.2,0l-0.3,0l-0.2,0c-0.1,0-0.2,0-0.3,0
			c-0.2,0-0.4,0.1-0.6,0.1l0.1,0.2c0,0,0,0,0,0l0,0l0,0l-0.1-0.1l-0.1-0.1l0,0l0,0l0,0l0,0l0.4,0.4h0l0,0l0,0l0,0l0,0c0,0,0,0,0,0
			c0,0,0,0,0-0.1l-0.1-0.2l0.2,0.3c0,0.1,0,0.1,0,0.1l0,0.1c0,0,0,0,0,0l-0.2-0.1L15,24l-0.1,0c0,0,0,0,0,0l0,0l-0.1,0.1l-0.1,0.2
			c-0.1,0.1-0.2,0.3-0.3,0.4c-0.1,0.1-0.2,0.3-0.3,0.4l-0.2,0.2l-0.1,0.1l0,0l0,0c0,0,0,0,0,0l0.2,0.3l0.1,0.1c0,0,0,0,0,0l0,0
			l-0.2-0.1l0.1,0l-0.5-0.2l-0.1,0.4l-0.1,0.3c0,0.2-0.1,0.4-0.1,0.6c0,0.1,0,0.3,0.1,0.4c0,0.1,0.1,0.1,0.1,0.2
			c0,0.1,0.1,0.1,0.1,0.2c0.1,0.2,0.3,0.3,0.3,0.4c0.1,0.2,0.2,0.3,0.2,0.5c0,0.1,0,0.3,0,0.4c0,0.1,0,0.1,0,0.2l-0.1,0.2
			c-0.2,0.4-0.6,0.9-1,1.4c-0.2,0.3-0.4,0.6-0.6,1c0,0.1,0,0.2-0.1,0.3c0,0.1,0,0.2,0,0.3c0,0.1,0,0.2,0.1,0.3
			c0,0.1,0.1,0.2,0.2,0.4c0.1,0.1,0.2,0.3,0.3,0.3c0.1,0.1,0.3,0.1,0.5,0.1c0.1,0,0.2,0,0.2,0c0.1,0,0.2,0,0.2,0c0.1,0,0.2,0,0.3,0
			l0.3,0c0,0,0.1,0,0.1,0c0.1,0,0.1,0.1,0.1,0.1c0.1,0.3,0.3,0.6,0.4,1c0.1,0.2,0.1,0.4,0.2,0.6c0,0,0.1,0.1,0.1,0.2
			c0,0.1,0.1,0.1,0.1,0.2c0.1,0.1,0.2,0.2,0.4,0.3l-0.1-0.1c0.3,0.2,0.7,0.4,1.1,0.5c0.4,0.1,0.9,0,1.3-0.1c0.8-0.2,1.3-0.6,2-0.7
			l0,0l0,0c0.3-0.1,0.5-0.1,0.8-0.1c0.1,0,0.1,0,0.2,0.1l0.2,0.1c0.1,0,0.1,0,0.2,0c0.3,0,0.5-0.1,0.7-0.2c0.2-0.2,0.3-0.3,0.4-0.5
			c0.1-0.1,0.2-0.3,0.3-0.4l0.1-0.1c0,0,0.1-0.1,0.1-0.2l0.1-0.3l0.2-0.5c0.2-0.6,0.4-1.3,0.6-1.9c0.1-0.3,0.2-0.7,0.2-1
			c0-0.2,0-0.3,0-0.5l0-0.1l0-0.2c0-0.1,0-0.2-0.1-0.4c0,0.1,0.1,0.3,0.1,0.4l0,0.2l0,0.1c0,0.2,0,0.4-0.1,0.5
			c-0.1,0.3-0.1,0.7-0.2,1c-0.2,0.6-0.4,1.3-0.6,1.9l-0.2,0.5L22.8,34c0,0.1-0.1,0.1-0.1,0.1l-0.1,0.1c-0.1,0.1-0.2,0.3-0.3,0.4
			c-0.1,0.1-0.2,0.3-0.4,0.4c-0.2,0.1-0.4,0.2-0.6,0.2c-0.1,0-0.2-0.1-0.3-0.1c-0.1,0-0.1-0.1-0.2-0.1c-0.3-0.1-0.6,0-0.9,0.1l0,0
			c-0.7,0.1-1.3,0.4-2,0.6c-0.4,0.1-0.7,0.1-1.1,0c-0.4-0.1-0.7-0.2-1-0.5l0,0c-0.2-0.1-0.3-0.3-0.4-0.4c-0.1-0.2-0.1-0.4-0.2-0.5
			c-0.1-0.4-0.2-0.7-0.4-1.1c0-0.1-0.1-0.2-0.2-0.2c0,0-0.1-0.1-0.1-0.1c0,0-0.1,0-0.1,0c-0.2,0-0.4,0-0.6,0c-0.2,0-0.4,0.1-0.5,0
			c-0.1,0-0.2,0-0.2-0.1c-0.1,0-0.1-0.1-0.1-0.2c-0.1-0.2-0.2-0.6-0.1-0.8c0.1-0.3,0.3-0.5,0.5-0.8c0.4-0.5,0.9-0.9,1.2-1.5l0.1-0.2
			l0.1-0.3c0-0.2,0-0.3,0-0.5c0-0.3-0.1-0.7-0.4-1c-0.1-0.1-0.2-0.2-0.3-0.3C14,27.2,14,27.1,14,26.9c0-0.1,0-0.3,0.1-0.4l0.1-0.2
			l0.1-0.1l0-0.1c0,0,0,0,0,0c0,0,0,0,0,0c0.3-0.3,0.6-0.6,0.8-0.9c0.1-0.1,0.2-0.3,0.4-0.4l0.2-0.2c0.1-0.1,0.1-0.1,0.1-0.1
			c0,0,0,0,0,0c0,0,0,0,0,0c0,0,0,0,0,0c0,0,0,0,0,0c0.1,0,0.1,0,0.2,0l0.2,0l0.3,0l0.4,0l0.2,0l0.1,0l0,0l0.1-0.1l0.2-0.2l0.1-0.1
			c0.2-0.1,0.3-0.3,0.5-0.4c0.3-0.3,0.7-0.5,1-0.9c0.1-0.1,0.2-0.2,0.2-0.3c0,0,0.1-0.1,0.1-0.1l0,0c0-0.1,0-0.1,0.1-0.2
			c0,0,0-0.1,0-0.1c0,0,0-0.1,0,0c0,0,0,0,0.1,0.1c0.1,0.1,0.1,0.2,0.1,0.3l0,0.1l0.2,0.4c0.1,0.3,0.3,0.6,0.4,0.9
			c0.2,0.3,0.3,0.6,0.5,0.9c0.1,0.2,0.2,0.3,0.4,0.5c0,0,0.1,0.1,0.1,0.1c0.1,0,0.1,0.1,0.2,0.1c0.1,0,0.1,0.1,0.2,0.1
			c0.1,0,0.1,0.1,0.2,0.1c0.3,0.1,0.6,0,0.9-0.2c0.1-0.1,0.3-0.2,0.4-0.3c0.1-0.1,0.2-0.2,0.2-0.3C23.7,24.5,23.8,24.2,23.9,23.8z"
			/>
	</g>
	<g id="XMLID_6391_">
		<path id="XMLID_6392_" class="st0" d="M27.9,23.1l-0.4,1.3c0.3,0.1,0.7,0.2,1.1,0.1c0.4,0,0.8-0.2,1.1-0.4c0.6-0.4,1-1,1.3-1.4
			l0.5-0.7c0.1-0.1,0.2-0.2,0.2-0.3l0.1-0.1l0.1-0.1l0,0c0,0,0.1-0.1,0.1-0.1c0,0,0,0.1,0,0.1l0,0l0,0l0,0.1
			c-0.1,0.1-0.1,0.3-0.2,0.5c0,0.2,0,0.4,0,0.6l0-0.2c0,0.5,0.2,0.9,0.4,1.2c0.2,0.3,0.4,0.6,0.5,0.9c0.1,0.1,0.1,0.3,0.2,0.3
			c0,0,0,0,0,0c0,0,0,0,0,0c0,0,0.1,0,0.1,0c0,0,0.1,0,0.1,0l0,0l0,0c0,0-0.4,0-0.2,0l0,0l0,0l0,0.2c0,0.3,0,0.6-0.1,0.8
			c0,0.1-0.1,0.3-0.1,0.4c-0.1,0.1-0.1,0.2-0.2,0.4l-0.1,0.2c0,0.1-0.1,0.1-0.1,0.2c0,0.1,0,0.3,0,0.4c0.1,0.3,0.2,0.5,0.5,0.7
			l0.2,0.1l0.1,0.1c0.1,0,0.2,0.1,0.2,0.1c0.2,0.1,0.3,0.2,0.5,0.2l0.1,0.1l0,0l0,0l0,0c0,0,0,0,0,0c0,0,0,0,0,0.1l-0.1,0.2
			l-0.1,0.2c0,0,0,0.1-0.1,0.2c-0.1,0.2-0.3,0.4-0.4,0.6l0.1,0.1l0.1,0.1l0.3,0.2c0.1,0.1,0.2,0.1,0.3,0.2c0.1,0.1,0.2,0.1,0.3,0.2
			c0.3,0.1,0.6,0.3,0.8,0.4c0.1,0,0.3,0.1,0.4,0.1l0.3,0.1l0.2,0.1c0,0,0,0.1-0.1,0.1c0,0-0.1,0.1-0.1,0.1c0,0,0,0-0.1,0.1l-0.1,0.1
			c-0.1,0.1-0.1,0.1-0.2,0.2c-0.1,0.1-0.3,0.2-0.4,0.3c-0.6,0.4-1.3,0.6-2,0.8l-0.6,0.2l-0.1,0l-0.1,0c-0.1,0-0.2,0-0.2,0
			c-0.3,0-0.7,0-1.1,0c-0.2,0-0.4,0-0.7,0.1c-0.3,0.1-0.6,0.3-0.7,0.5c-0.1,0.1-0.1,0.1-0.1,0.2c0,0,0,0.1,0,0.1c0,0.1,0,0.1,0,0.2
			c0,0,0,0,0,0l0,0l-0.1-0.1c0,0-0.1-0.1-0.1-0.1l-0.1-0.1c-0.1-0.1-0.2-0.1-0.2-0.2c-0.2-0.1-0.3-0.2-0.5-0.2
			c-0.6-0.3-1.3-0.5-1.9-0.8c-0.6-0.3-1-0.6-1.3-1.1c-0.3-0.5-0.4-1.1-0.5-1.8c0.1,0.6,0.2,1.3,0.4,1.8c0.3,0.5,0.8,0.9,1.3,1.2
			c0.6,0.3,1.2,0.5,1.8,0.8c0.2,0.1,0.3,0.2,0.5,0.3c0.1,0,0.1,0.1,0.2,0.2l0.2,0.1c0.1,0.1,0.2,0.2,0.3,0.3l0.1,0.2l0.1,0.1l0,0
			l0,0l0,0l0,0c0-0.1,0-0.3,0-0.4c0-0.1,0-0.1,0.1-0.2c0-0.1,0.1-0.1,0.1-0.2c0.1-0.2,0.3-0.3,0.5-0.4c0.2-0.1,0.4,0,0.6,0
			c0.4,0,0.8,0.1,1.1,0c0.4,0,0.7-0.1,1.1-0.2c0.7-0.2,1.5-0.4,2.1-0.8c0.3-0.2,0.6-0.4,0.9-0.7c0.1-0.1,0.3-0.3,0.4-0.5
			c0.1-0.1,0.1-0.2,0.2-0.3l0.1-0.1l0-0.1c0,0,0-0.1,0-0.1c-0.3-0.1-0.6-0.2-0.9-0.3L35.9,31c-0.1,0-0.3-0.1-0.4-0.1
			c-0.3-0.1-0.5-0.2-0.7-0.3c-0.1-0.1-0.2-0.1-0.3-0.2c0,0-0.1-0.1-0.1-0.1c0,0,0,0-0.1,0c0,0,0,0,0.1-0.1c0.1-0.1,0.2-0.3,0.2-0.5
			l0.1-0.2c0-0.1,0.1-0.1,0.1-0.2c0.1-0.1,0.2-0.3,0.3-0.4c0,0,0-0.1,0-0.1L35,28.7l-0.3-0.1l-0.5-0.3c-0.1-0.1-0.3-0.1-0.4-0.2
			c-0.1,0-0.1-0.1-0.2-0.1l-0.1-0.1l-0.1,0c-0.1-0.1-0.2-0.1-0.2-0.2c0-0.1,0-0.2,0.1-0.3c0.1-0.3,0.3-0.6,0.4-1
			c0.1-0.4,0.1-0.7,0.1-1.1l0-0.2l0,0c0,0,0,0,0,0l0-0.1l0-0.1l0-0.2c-0.1-0.2-0.2-0.4-0.2-0.5c-0.2-0.3-0.3-0.6-0.5-0.8
			c-0.1-0.3-0.2-0.5-0.2-0.7l0-0.1c0-0.1,0-0.2,0.1-0.3l0.1-0.2c0-0.1,0.1-0.2,0.1-0.2c0.1-0.2,0.1-0.3,0.2-0.5
			c0.2-0.6,0.1-1.1-0.1-1.7c-0.4,0.1-0.7,0.2-1.1,0.3c-0.4,0.2-0.8,0.4-1.1,0.8c0,0-0.1,0.1-0.1,0.1l-0.1,0.1L30.7,21
			c-0.1,0.1-0.2,0.2-0.3,0.4L29.9,22c-0.3,0.4-0.7,0.8-1,1C28.6,23.3,28.3,23.3,27.9,23.1z"/>
	</g>
	<g id="XMLID_6389_">
		<path id="XMLID_6390_" class="st0" d="M20,26.2l0.3-1.4c0,0-0.1,0-0.3,0c-0.2,0-0.4-0.1-0.8-0.1c-0.3,0-0.7,0-1.2,0.1
			c-0.2,0.1-0.5,0.2-0.7,0.4c-0.2,0.2-0.3,0.5-0.4,0.7c-0.2,0.4-0.2,0.8-0.3,1.1c-0.1,0.3-0.2,0.5-0.4,0.6c-0.2,0.1-0.3,0.2-0.5,0.3
			c-0.1,0-0.2,0.1-0.2,0.1s0.1,0,0.2,0c0.1,0,0.4,0,0.6-0.1c0.2-0.1,0.5-0.3,0.7-0.6c0.2-0.3,0.3-0.7,0.5-1c0.2-0.3,0.5-0.4,0.7-0.4
			c0.3,0,0.6,0.1,0.8,0.1c0.2,0.1,0.5,0.2,0.6,0.2C19.9,26.2,20,26.2,20,26.2z"/>
	</g>
	<g id="XMLID_6387_">
		<path id="XMLID_6388_" class="st0" d="M18,33l1.4-0.3c0,0,0-0.1-0.1-0.3c0-0.2-0.1-0.5,0-0.8c0-0.3,0.2-0.5,0.6-0.8
			c0.4-0.3,0.9-0.6,1.3-0.9c0.2-0.1,0.5-0.2,0.7-0.3c0.2-0.1,0.5-0.1,0.8-0.2c0.1,0,0.2-0.1,0.3-0.1c0.1,0,0.2-0.1,0.3-0.2
			c0.1-0.1,0.1-0.2,0.2-0.3c0-0.1,0.1-0.2,0.1-0.3c0-0.2,0.1-0.4,0-0.5c0-0.1,0-0.3,0-0.4c-0.1-0.5-0.1-0.8-0.2-1
			c-0.1-0.2-0.1-0.4-0.1-0.4s0,0.1,0,0.4c0,0.3,0,0.6,0,1.1c0,0.1,0,0.2,0,0.3c0,0.1,0,0.3-0.1,0.4c0,0.1-0.1,0.1-0.1,0.2
			c0,0.1-0.1,0.1-0.1,0.2c-0.1,0-0.1,0.1-0.2,0.1c-0.1,0-0.1,0-0.2,0c-0.5,0-1.1,0.1-1.7,0.3c-0.6,0.2-1.1,0.5-1.6,0.7
			c-0.2,0.1-0.5,0.3-0.7,0.5c-0.2,0.2-0.4,0.5-0.5,0.7c-0.2,0.5-0.2,1-0.2,1.2C18,32.8,18,33,18,33z"/>
	</g>
	<g id="XMLID_6385_">
		<path id="XMLID_6386_" class="st0" d="M27.2,31.2l-0.5,1.3c0,0,0.1,0,0.3,0.1c0.2,0.1,0.5,0.2,0.9,0.2c0.2,0,0.4,0.1,0.7,0
			c0.3,0,0.7-0.2,0.9-0.5c0.1-0.2,0.2-0.4,0.2-0.5c0-0.2,0-0.3,0-0.5c0-0.3,0-0.6-0.1-0.8c-0.2-1-0.6-1.8-0.7-2.5
			c-0.1-0.3-0.1-0.6-0.2-0.8c0-0.2,0-0.3,0-0.3c0,0,0,0.1,0,0.3c0,0.2,0,0.5,0,0.8c0,0.7,0.2,1.6,0.3,2.6c0,0.2,0,0.5,0,0.7
			c0,0.2-0.1,0.4-0.2,0.4c-0.1,0.1-0.2,0.1-0.3,0.1c-0.1,0-0.3-0.1-0.4-0.1c-0.3-0.1-0.5-0.2-0.7-0.3C27.3,31.2,27.2,31.2,27.2,31.2
			z"/>
	</g>
	<g id="XMLID_6383_">
		<path id="XMLID_6384_" class="st0" d="M20.8,15.4V14c0,0-1,0.1-1.9,0.2c-0.5,0.1-1,0.1-1.3,0.2c-0.4,0.1-0.6,0.1-0.6,0.1
			s0.3,0,0.6,0.1c0.4,0.1,0.9,0.2,1.3,0.3c0.5,0.1,1,0.3,1.3,0.3C20.6,15.4,20.8,15.4,20.8,15.4z"/>
	</g>
	<g id="XMLID_6381_">
		<path id="XMLID_6382_" class="st0" d="M12.5,41.1v-1.4c0,0-0.1,0-0.2,0c-0.1,0-0.3,0-0.5-0.1c-0.5-0.1-1.1-0.3-1.8-0.8
			c-0.4-0.2-0.7-0.6-1-0.9c-0.3-0.4-0.7-0.8-1-1.3c-0.6-1-1.1-2.1-1.5-3.3c-0.4-1.2-0.6-2.4-0.8-3.5c-0.1-1.2-0.1-2.2,0-3.1
			C5.8,25.7,6,25,6.2,24.5c0.1-0.1,0.1-0.2,0.2-0.3c0.1-0.1,0.1-0.1,0.1-0.2c0.1-0.1,0.1-0.2,0.1-0.2s0,0.1-0.1,0.2
			c0,0.1-0.1,0.1-0.2,0.2c-0.1,0.1-0.1,0.2-0.2,0.3c-0.3,0.4-0.6,1.2-0.8,2.1c-0.2,0.9-0.3,2-0.2,3.2c0,1.2,0.2,2.5,0.5,3.7
			C6,34.8,6.5,36,7.1,37.1c0.3,0.5,0.6,1,1,1.5c0.4,0.4,0.7,0.9,1.1,1.2c0.8,0.7,1.7,1,2.3,1.2C11.8,41,12,41,12.2,41
			C12.4,41.1,12.5,41.1,12.5,41.1z"/>
	</g>
	<g id="XMLID_6379_">
		<path id="XMLID_6380_" class="st0" d="M27,17.3l1.4-0.4c0,0,0-0.2-0.2-0.4c-0.1-0.3-0.3-0.6-0.7-1c-0.4-0.4-0.9-0.7-1.5-0.8
			c-0.6-0.1-1.2-0.1-1.8,0.1c-0.6,0.2-1.1,0.4-1.6,0.8c-0.4,0.3-0.8,0.7-1,1.1c-0.2,0.4-0.3,0.8-0.4,1c0,0.1,0,0.2,0,0.3
			c0,0.1,0,0.1,0,0.1s0,0,0-0.1c0-0.1,0-0.2,0.1-0.3c0.1-0.2,0.3-0.6,0.5-0.9c0.3-0.3,0.6-0.6,1.1-0.9c0.4-0.2,1-0.4,1.5-0.5
			c0.5-0.1,1,0,1.4,0.2c0.4,0.2,0.7,0.4,0.9,0.7c0.2,0.3,0.2,0.5,0.3,0.7C26.9,17.2,27,17.3,27,17.3z"/>
	</g>
</g>
</svg>
