<!-- Generator: Adobe Illustrator 17.0.0, SVG Export Plug-In  -->
<svg version="1.1"
	 xmlns="http://www.w3.org/2000/svg" xmlns:xlink="http://www.w3.org/1999/xlink" xmlns:a="http://ns.adobe.com/AdobeSVGViewerExtensions/3.0/"
	 x="0px" y="0px" width="998.689px" height="184.902px" viewBox="0 0 998.689 184.902" enable-background="new 0 0 998.689 184.902"
	 xml:space="preserve">
<defs>
	
		<pattern  x="1209.971" y="-1011.618" width="28.8" height="28.8" patternUnits="userSpaceOnUse" id="_x31_0_ppp_10_x25_" viewBox="0.72 -29.52 28.8 28.8" overflow="visible">
		<g>
			<polygon fill="none" points="0.72,-29.52 29.52,-29.52 29.52,-0.72 0.72,-0.72 			"/>
			<g>
				<path fill="#211915" d="M29.52,0c0.396,0,0.72-0.323,0.72-0.72c0-0.398-0.323-0.72-0.72-0.72c-0.398,0-0.72,0.321-0.72,0.72
					C28.8-0.323,29.122,0,29.52,0z"/>
				<path fill="#211915" d="M15.12,0c0.398,0,0.72-0.323,0.72-0.72c0-0.398-0.322-0.72-0.72-0.72c-0.397,0-0.72,0.321-0.72,0.72
					C14.4-0.323,14.722,0,15.12,0z"/>
				<path fill="#211915" d="M29.52-14.399c0.396,0,0.72-0.323,0.72-0.721c0-0.399-0.323-0.72-0.72-0.72
					c-0.398,0-0.72,0.321-0.72,0.72C28.8-14.723,29.122-14.399,29.52-14.399z"/>
				<path fill="#211915" d="M15.12-14.399c0.398,0,0.72-0.323,0.72-0.721c0-0.399-0.322-0.72-0.72-0.72
					c-0.397,0-0.72,0.321-0.72,0.72C14.4-14.723,14.722-14.399,15.12-14.399z"/>
				<path fill="#211915" d="M7.92-7.2c0.397,0,0.72-0.322,0.72-0.72c0-0.398-0.323-0.72-0.72-0.72c-0.398,0-0.72,0.321-0.72,0.72
					C7.2-7.522,7.522-7.2,7.92-7.2z"/>
				<path fill="#211915" d="M22.32-7.2c0.398,0,0.72-0.322,0.72-0.72c0-0.398-0.322-0.72-0.72-0.72c-0.398,0-0.72,0.321-0.72,0.72
					C21.6-7.522,21.921-7.2,22.32-7.2z"/>
				<path fill="#211915" d="M7.92-21.601c0.397,0,0.72-0.322,0.72-0.719c0-0.399-0.323-0.721-0.72-0.721
					c-0.398,0-0.72,0.322-0.72,0.721C7.2-21.923,7.522-21.601,7.92-21.601z"/>
				<path fill="#211915" d="M22.32-21.601c0.398,0,0.72-0.322,0.72-0.719c0-0.399-0.322-0.721-0.72-0.721
					c-0.398,0-0.72,0.322-0.72,0.721C21.6-21.923,21.921-21.601,22.32-21.601z"/>
			</g>
			<g>
				<path fill="#211915" d="M0.72,0c0.396,0,0.72-0.323,0.72-0.72c0-0.398-0.323-0.72-0.72-0.72C0.321-1.439,0-1.118,0-0.72
					C0-0.323,0.321,0,0.72,0z"/>
				<path fill="#211915" d="M0.72-14.399c0.396,0,0.72-0.323,0.72-0.721c0-0.399-0.323-0.72-0.72-0.72C0.321-15.84,0-15.519,0-15.12
					C0-14.723,0.321-14.399,0.72-14.399z"/>
			</g>
			<g>
				<path fill="#211915" d="M29.52-28.8c0.396,0,0.72-0.323,0.72-0.72c0-0.398-0.323-0.72-0.72-0.72c-0.398,0-0.72,0.321-0.72,0.72
					C28.8-29.123,29.122-28.8,29.52-28.8z"/>
				<path fill="#211915" d="M15.12-28.8c0.398,0,0.72-0.323,0.72-0.72c0-0.398-0.322-0.72-0.72-0.72c-0.397,0-0.72,0.321-0.72,0.72
					C14.4-29.123,14.722-28.8,15.12-28.8z"/>
			</g>
			<g>
				<path fill="#211915" d="M0.72-28.8c0.396,0,0.72-0.323,0.72-0.72c0-0.398-0.323-0.72-0.72-0.72c-0.398,0-0.72,0.321-0.72,0.72
					C0-29.123,0.321-28.8,0.72-28.8z"/>
			</g>
		</g>
	</pattern>
</defs>
<pattern  id="XMLID_2_" xlink:href="#_x31_0_ppp_10_x25_" patternTransform="matrix(1 0 0 1 -173.0816 229.5818)">
</pattern>
<rect id="XMLID_1_" x="0" y="0" opacity="0.21" fill="url(#XMLID_2_)" width="998.689" height="184.902"/>
</svg>
