<?xml version="1.0" encoding="utf-8"?>
<!-- Generator: Adobe Illustrator 19.0.0, SVG Export Plug-In . SVG Version: 6.00 Build 0)  -->
<svg version="1.1" id="Layer_1" xmlns="http://www.w3.org/2000/svg" xmlns:xlink="http://www.w3.org/1999/xlink" x="0px" y="0px"
	 viewBox="0 0 79.2 66.8" style="enable-background:new 0 0 79.2 66.8;" xml:space="preserve">
<style type="text/css">
	.st0{fill:#E6E6E5;}
</style>
<g id="XMLID_7454_">
	<path id="XMLID_7455_" class="st0" d="M33.5,12.4C22,18.2,16.2,25.4,16.2,37c0.6-0.2,1.4-0.2,1.9-0.2c8.1,0,14.8,5.4,14.8,14.1
		c0,9.7-6.4,15.9-14.8,15.9C6.2,66.8,0,57.3,0,41.4C0,23.2,8.9,9.1,27.4,0L33.5,12.4z M79.2,12.4c-11.6,5.8-17.3,13-17.3,24.6
		c0.6-0.2,1.3-0.2,1.9-0.2c8.1,0,14.6,5.4,14.6,14.1c0,9.7-6.2,15.9-14.6,15.9c-11.9,0-18.3-9.5-18.3-25.4C45.5,23.2,54.5,9.1,73,0
		L79.2,12.4z"/>
</g>
</svg>
