<!-- Generator: Adobe Illustrator 17.0.0, SVG Export Plug-In  -->
<svg version="1.1"
	 xmlns="http://www.w3.org/2000/svg" xmlns:xlink="http://www.w3.org/1999/xlink" xmlns:a="http://ns.adobe.com/AdobeSVGViewerExtensions/3.0/"
	 x="0px" y="0px" width="17.179px" height="16.25px" viewBox="0 0 17.179 16.25" enable-background="new 0 0 17.179 16.25"
	 xml:space="preserve">
<defs>
</defs>
<g id="XMLID_1_">
	<g id="XMLID_7_">
		<g id="XMLID_13_">
			<g id="XMLID_14_">
				<path id="XMLID_15_" fill="#6B9111" stroke="#6B9111" stroke-width="0.25" stroke-miterlimit="10" d="M6.242,16.125
					c-2.196,0-4.396-0.397-5.472-1.19c-0.457-0.336-0.683-0.772-0.639-1.227c0.281-2.868,1.211-5.521,6.074-5.521
					c4.939,0,5.84,2.67,6.078,5.556c0.038,0.444-0.188,0.893-0.605,1.2C10.612,15.731,8.429,16.125,6.242,16.125z M6.204,9.126
					c-3.898,0-4.857,1.788-5.138,4.673c-0.017,0.162,0.195,0.332,0.261,0.38v0c1.835,1.354,7.967,1.36,9.791,0.009
					c0.118-0.087,0.239-0.229,0.228-0.367C11.101,10.847,10.181,9.126,6.204,9.126z"/>
			</g>
		</g>
		<g id="XMLID_8_">
			<g id="XMLID_9_">
				<path id="XMLID_10_" fill="#6B9111" stroke="#6B9111" stroke-width="0.25" stroke-miterlimit="10" d="M6.206,7.622
					c-1.957,0-3.475-2.16-3.475-4.019c0-1.918,1.559-3.478,3.475-3.478s3.475,1.56,3.475,3.478C9.681,5.462,8.163,7.622,6.206,7.622
					z M6.206,1.064c-1.398,0-2.536,1.139-2.536,2.539c0,1.395,1.131,3.08,2.536,3.08s2.536-1.685,2.536-3.08
					C8.742,2.203,7.604,1.064,6.206,1.064z"/>
			</g>
		</g>
	</g>
	<g id="XMLID_2_">
		<g id="XMLID_5_">
			<path id="XMLID_6_" fill="#6B9111" stroke="#6B9111" stroke-width="0.25" stroke-miterlimit="10" d="M14.615,7.312
				c-0.246,0-0.444-0.199-0.444-0.444V2.875c0-0.246,0.199-0.444,0.444-0.444s0.444,0.199,0.444,0.444v3.993
				C15.06,7.113,14.861,7.312,14.615,7.312z"/>
		</g>
		<g id="XMLID_3_">
			<path id="XMLID_4_" fill="#6B9111" stroke="#6B9111" stroke-width="0.25" stroke-miterlimit="10" d="M16.609,5.316h-3.988
				c-0.246,0-0.444-0.199-0.444-0.444s0.199-0.444,0.444-0.444h3.988c0.246,0,0.444,0.199,0.444,0.444S16.855,5.316,16.609,5.316z"
				/>
		</g>
	</g>
</g>
</svg>