<!-- Generator: Adobe Illustrator 17.0.0, SVG Export Plug-In  -->
<svg version="1.1"
	 xmlns="http://www.w3.org/2000/svg" xmlns:xlink="http://www.w3.org/1999/xlink" xmlns:a="http://ns.adobe.com/AdobeSVGViewerExtensions/3.0/"
	 x="0px" y="0px" width="33.237px" height="42px" viewBox="0 0 33.237 42" enable-background="new 0 0 33.237 42"
	 xml:space="preserve">
<defs>
</defs>
<g id="XMLID_1_">
	<g id="XMLID_20_">
		<g id="XMLID_63_">
			<g id="XMLID_64_">
				<g id="XMLID_65_">
					<path id="XMLID_66_" fill="#6B9111" d="M16.618,42C7.455,42,0,34.545,0,25.382C0,16.218,7.455,8.763,16.618,8.763
						c9.164,0,16.619,7.455,16.619,16.619C33.237,34.545,25.782,42,16.618,42z M16.618,10.144c-8.402,0-15.237,6.836-15.237,15.238
						c0,8.402,6.836,15.237,15.237,15.237c8.402,0,15.238-6.836,15.238-15.237C31.856,16.98,25.02,10.144,16.618,10.144z"/>
				</g>
			</g>
		</g>
		<g id="XMLID_54_">
			<g id="XMLID_59_">
				<g id="XMLID_60_">
					<g id="XMLID_61_">
						<circle id="XMLID_62_" fill="#6B9111" cx="12.729" cy="22.593" r="1.635"/>
					</g>
				</g>
			</g>
			<g id="XMLID_55_">
				<g id="XMLID_56_">
					<g id="XMLID_57_">
						<circle id="XMLID_58_" fill="#6B9111" cx="20.721" cy="22.593" r="1.635"/>
					</g>
				</g>
			</g>
		</g>
		<g id="XMLID_51_">
			<g id="XMLID_52_">
				<path id="XMLID_53_" fill="#6B9111" d="M12.372,0.046c-0.096,0.014-0.177,0.082-0.206,0.175
					c-0.457,1.436-0.187,3.068,0.859,4.303c1.046,1.235,2.612,1.77,4.103,1.555c0.096-0.014,0.177-0.082,0.206-0.175
					c0.457-1.436,0.187-3.068-0.859-4.303C15.429,0.366,13.863-0.168,12.372,0.046z"/>
			</g>
		</g>
		<g id="XMLID_48_">
			<g id="XMLID_49_">
				<path id="XMLID_50_" fill="#6B9111" d="M16.442,11.991c-0.028,0-0.056-0.002-0.084-0.005c-0.379-0.046-0.648-0.39-0.602-0.769
					c0.033-0.27,0.854-6.669,5.312-10.775c0.28-0.259,0.718-0.24,0.976,0.04c0.258,0.281,0.24,0.718-0.04,0.976
					c-4.087,3.765-4.868,9.864-4.876,9.925C17.084,11.734,16.786,11.991,16.442,11.991z"/>
			</g>
		</g>
		<g id="XMLID_45_">
			<g id="XMLID_46_">
				<ellipse id="XMLID_47_" fill="#6B9111" cx="16.621" cy="11.454" rx="1.839" ry="0.614"/>
			</g>
		</g>
		<g id="XMLID_41_">
			<g id="XMLID_42_">
				<g id="XMLID_43_">
					<path id="XMLID_44_" fill="#6B9111" d="M12.135,13.219c0,0,0.921-1.381,0-1.381S11.214,13.219,12.135,13.219
						C12.135,13.219,11.214,13.219,12.135,13.219z"/>
				</g>
			</g>
		</g>
		<g id="XMLID_37_">
			<g id="XMLID_38_">
				<g id="XMLID_39_">
					<path id="XMLID_40_" fill="#6B9111" d="M18.581,14.946c0.889,0,0.89-1.381,0-1.381C17.692,13.564,17.691,14.946,18.581,14.946
						L18.581,14.946z"/>
				</g>
			</g>
		</g>
		<g id="XMLID_33_">
			<g id="XMLID_34_">
				<g id="XMLID_35_">
					<path id="XMLID_36_" fill="#6B9111" d="M14.437,15.061c0,0,0.921-1.381,0-1.381C13.516,13.679,13.516,15.061,14.437,15.061
						C14.437,15.061,13.516,15.061,14.437,15.061z"/>
				</g>
			</g>
		</g>
		<g id="XMLID_29_">
			<g id="XMLID_30_">
				<g id="XMLID_31_">
					<path id="XMLID_32_" fill="#6B9111" d="M20.883,13.334c0.889,0,0.89-1.381,0-1.381C19.994,11.953,19.993,13.334,20.883,13.334
						L20.883,13.334z"/>
				</g>
			</g>
		</g>
		<g id="XMLID_25_">
			<g id="XMLID_26_">
				<g id="XMLID_27_">
					<path id="XMLID_28_" fill="#6B9111" d="M24.566,14.946c0,0,0.921-1.381,0-1.381S23.645,14.946,24.566,14.946
						C24.566,14.946,23.645,14.946,24.566,14.946z"/>
				</g>
			</g>
		</g>
		<g id="XMLID_21_">
			<g id="XMLID_22_">
				<g id="XMLID_23_">
					<path id="XMLID_24_" fill="#6B9111" d="M8.452,14.83c0,0,0.921-1.381,0-1.381C7.991,13.449,7.991,14.83,8.452,14.83
						C8.452,14.83,7.991,14.83,8.452,14.83z"/>
				</g>
			</g>
		</g>
	</g>
	<g id="XMLID_16_">
		<path id="XMLID_17_" fill="#6B9111" d="M11.017,27.916c-2.936,0-5.324-2.388-5.324-5.324c0-2.935,2.388-5.323,5.324-5.323
			s5.324,2.388,5.324,5.323C16.341,25.528,13.952,27.916,11.017,27.916z M11.017,18.125c-2.463,0-4.468,2.004-4.468,4.467
			s2.004,4.468,4.468,4.468s4.468-2.004,4.468-4.468S13.48,18.125,11.017,18.125z"/>
	</g>
	<g id="XMLID_12_">
		<path id="XMLID_13_" fill="#6B9111" d="M22.148,27.916c-2.936,0-5.324-2.388-5.324-5.324c0-2.935,2.388-5.323,5.324-5.323
			s5.324,2.388,5.324,5.323C27.472,25.528,25.084,27.916,22.148,27.916z M22.148,18.125c-2.463,0-4.468,2.004-4.468,4.467
			s2.004,4.468,4.468,4.468s4.468-2.004,4.468-4.468S24.612,18.125,22.148,18.125z"/>
	</g>
	<g id="XMLID_10_">
		<rect id="XMLID_11_" x="1.969" y="22.403" fill="#6B9111" width="4" height="1"/>
	</g>
	<g id="XMLID_8_">
		<rect id="XMLID_9_" x="26.969" y="22.403" fill="#6B9111" width="5" height="1"/>
	</g>
	<g id="XMLID_6_">
		<path id="XMLID_7_" fill="#6B9111" d="M25.476,30.034c0,0-0.567,2.451-2.829,0.822c-3.775-2.718-4.877-2.624-6.026-2.64
			c-0.803-0.011-2.259-0.078-6.034,2.64c-2.263,1.629-2.806-0.822-2.806-0.822S6.496,33.03,9.565,33.33
			c2.783,0.272,5.244-1.641,6.39-2.548c0.392-0.31,0.939-0.314,1.337-0.011c1.186,0.902,3.571,2.832,6.365,2.559
			C26.726,33.03,25.476,30.034,25.476,30.034z"/>
	</g>
	<g id="XMLID_2_">
		<path id="XMLID_3_" fill="#6B9111" d="M16.55,37.249c-1.196,0-2.132-1.243-2.132-2.829c0-1.587,0.936-2.83,2.132-2.83
			s2.132,1.243,2.132,2.83C18.682,36.006,17.746,37.249,16.55,37.249z M16.55,32.446c-0.692,0-1.276,0.904-1.276,1.973
			c0,1.07,0.584,1.973,1.276,1.973c0.692,0,1.276-0.903,1.276-1.973C17.826,33.35,17.242,32.446,16.55,32.446z"/>
	</g>
</g>
</svg>
