<?xml version="1.0" encoding="utf-8"?>
<!-- Generator: Adobe Illustrator 19.0.0, SVG Export Plug-In . SVG Version: 6.00 Build 0)  -->
<svg version="1.1" id="Capa_1" xmlns="http://www.w3.org/2000/svg" xmlns:xlink="http://www.w3.org/1999/xlink" x="0px" y="0px"
	 viewBox="0 0 112.2 50.3" style="enable-background:new 0 0 112.2 50.3;" xml:space="preserve">
<style type="text/css">
	.st0{fill:#F19A13;}
</style>
<g id="XMLID_23_">
	<g id="XMLID_5649_">
		<g id="XMLID_5653_">
			<path id="XMLID_239_" class="st0" d="M0.8,18.1c-0.6,0.5-1,1.3-0.8,2.1c2.4,12.2,10.9,22.9,23.4,27.7c12.5,4.8,26,2.4,35.9-5.1
				c0.6-0.5,1-1.3,0.8-2.1C57.7,28.4,49.2,17.7,36.7,13C24.2,8.2,10.8,10.6,0.8,18.1z"/>
		</g>
		<g id="XMLID_5650_">
			<path id="XMLID_5651_" class="st0" d="M0.8,18.1c-0.6,0.5-1,1.3-0.8,2.1c2.4,12.2,10.9,22.9,23.4,27.7c12.5,4.8,26,2.4,35.9-5.1
				c0.6-0.5,1-1.3,0.8-2.1C57.7,28.4,49.2,17.7,36.7,13C24.2,8.2,10.8,10.6,0.8,18.1z"/>
		</g>
	</g>
	<g id="XMLID_5642_">
		<g id="XMLID_5646_">
			<path id="XMLID_5647_" class="st0" d="M90.6,16.6c0,0.3,0.2,0.6,0.5,0.7c4.8,1.9,10.4,1.3,14.8-2c4.4-3.3,6.6-8.5,6.2-13.6
				c0-0.3-0.2-0.6-0.5-0.7c-4.8-1.9-10.4-1.3-14.8,2C92.4,6.3,90.2,11.5,90.6,16.6z"/>
		</g>
		<g id="XMLID_5643_">
			<path id="XMLID_5644_" class="st0" d="M90.6,16.6c0,0.3,0.2,0.6,0.5,0.7c4.8,1.9,10.4,1.3,14.8-2c4.4-3.3,6.6-8.5,6.2-13.6
				c0-0.3-0.2-0.6-0.5-0.7c-4.8-1.9-10.4-1.3-14.8,2C92.4,6.3,90.2,11.5,90.6,16.6z"/>
		</g>
	</g>
</g>
</svg>
