<svg xmlns="http://www.w3.org/2000/svg" viewBox="0 0 42.05 40">
  <defs>
    <style>.cls-1{fill:#6b9111;}.cls-2{fill:#f09912;}</style>
  </defs>
  <title>logo</title>
  <g id="Capa_2" data-name="Capa 2">
    <g id="Capa_2-2" data-name="Capa 2">
      <path class="cls-1"
            d="M40.65,27.58c-.12-.06-.33-.08-.65.19a22.88,22.88,0,0,0-1.94,2.15c-2.41,2.87-6.45,7.67-12.25,9.55a.22.22,0,0,0-.16.24.22.22,0,0,0,.2.2,13.25,13.25,0,0,0,1.54.09,13.42,13.42,0,0,0,9-3.45,13.64,13.64,0,0,0,4.47-8.44A.49.49,0,0,0,40.65,27.58Z"/>
      <path class="cls-1"
            d="M33.88,30.84a18.25,18.25,0,0,0,1.23-11.79c-.13-.64-.27-.95-.7-.95s-.52.41-.61.76-.25,1-.39,1.64c-1,4.28-2.79,12.26-10.09,18.17a.24.24,0,0,0-.06.29.22.22,0,0,0,.2.12h.06A16,16,0,0,0,33.88,30.84Z"/>
      <path class="cls-2"
            d="M21.39,18.37a.5.5,0,0,0-.71,0,7.76,7.76,0,0,0-2,5.42,7.69,7.69,0,0,0,2.07,5.54.36.36,0,0,0,.49,0,7.69,7.69,0,0,0,2.07-5.54A7.76,7.76,0,0,0,21.39,18.37Z"/>
      <path class="cls-1"
            d="M21.6,12.59a1,1,0,0,0-1.13,0,15.1,15.1,0,0,0,.24,25.67.62.62,0,0,0,.32.09.57.57,0,0,0,.32-.09,15.09,15.09,0,0,0,.25-25.67ZM25.8,22.8a9.66,9.66,0,0,1-4.36,8.08.74.74,0,0,1-.81,0,9.67,9.67,0,0,1,.1-16.23.55.55,0,0,1,.3-.09.59.59,0,0,1,.31.09A9.64,9.64,0,0,1,25.8,22.8Z"/>
      <path class="cls-1"
            d="M42.05,21A21,21,0,0,0,0,21a21.51,21.51,0,0,0,.27,3.34h0a.29.29,0,0,0,0,.09.52.52,0,0,0,.52.45.53.53,0,0,0,.53-.53h0v0c0-.44-.05-.89-.05-1.34a19.74,19.74,0,0,1,39.47,0c0,.45,0,.89,0,1.33,0,0,0,0,0,0s0,0,0,0a.53.53,0,0,0,1.06,0v0h0A21.74,21.74,0,0,0,42.05,21Z"/>
      <path class="cls-1"
            d="M16.22,39.47C10.42,37.59,6.38,32.79,4,29.92A24.18,24.18,0,0,0,2,27.77c-.32-.27-.53-.25-.65-.19a.49.49,0,0,0-.2.53,13.64,13.64,0,0,0,4.47,8.44,13.42,13.42,0,0,0,9,3.45,13.25,13.25,0,0,0,1.54-.09.22.22,0,0,0,.2-.2A.22.22,0,0,0,16.22,39.47Z"/>
      <path class="cls-1"
            d="M18.74,38.67C11.43,32.76,9.63,24.79,8.65,20.5c-.14-.64-.27-1.19-.39-1.64S8,18.1,7.65,18.1s-.57.31-.7.95A18.25,18.25,0,0,0,8.17,30.84a16,16,0,0,0,10.37,8.24h.06a.22.22,0,0,0,.2-.12A.24.24,0,0,0,18.74,38.67Z"/>
    </g>
  </g>
</svg>
