<?xml version="1.0" encoding="utf-8"?>
<!-- Generator: Adobe Illustrator 23.0.5, SVG Export Plug-In . SVG Version: 6.00 Build 0)  -->
<svg version="1.1" id="Layer_1" xmlns="http://www.w3.org/2000/svg" xmlns:xlink="http://www.w3.org/1999/xlink" x="0px" y="0px"
	 viewBox="0 0 81 113" style="enable-background:new 0 0 81 113;" xml:space="preserve">
<style type="text/css">
	.st0{fill:#ebe6c5;}
</style>
<g>
	<g>
		<path class="st0" d="M16.08,76.43c6.15,5.67,13.4,9.46,20.49,9.46c8.83,0,14.5-3.15,14.5-9.46c0-7.57-3.94-11.98-24.9-11.98V45.54
			c16.71,0,21.75-4.41,21.75-11.35c0-5.99-3.63-9.14-10.4-9.14c-6.62,0-11.35,2.84-17.65,8.2L6.31,16.85
			c9.77-8.2,20.18-12.92,32.47-12.92c22.07,0,36.25,10.09,36.25,28.21c0,9.62-5.36,16.87-16.08,21.59v0.63
			c11.35,3.47,19.23,11.35,19.23,23.96c0,18.92-17.97,29.32-38.78,29.32c-16.24,0-28.06-5.36-35.62-14.19L16.08,76.43z"/>
	</g>
</g>
</svg>
