<!-- Generator: Adobe Illustrator 17.0.0, SVG Export Plug-In  -->
<svg version="1.1"
	 xmlns="http://www.w3.org/2000/svg" xmlns:xlink="http://www.w3.org/1999/xlink" xmlns:a="http://ns.adobe.com/AdobeSVGViewerExtensions/3.0/"
	 x="0px" y="0px" width="1236.095px" height="305.985px" viewBox="0 0 1236.095 305.985"
	 enable-background="new 0 0 1236.095 305.985" xml:space="preserve">
<defs>
</defs>
<g id="XMLID_1_">
	<g id="XMLID_26_">
		<path id="XMLID_111_" fill="#F1F1F1" d="M1204.62,45.035c7.331-2.93,10.739-7.375,0.458-8.667
			c-1.963-1.987-3.915-3.867-5.544-5.863c7.193-1.469,3.141-3.991,3.861-6.024c-2.109-0.64-4.572-1.385-6.687-2.024
			c6.235-1.119,6.352-2.695,5.778-4.371c-3.849-1.062-9.467-0.291-12.696,0.662c-1.437-0.648-2.561-1.419-3.658-2.078
			c-5.946,0.775-11.55,1.657-17.497,2.429c-1.678,0.026-3.021,0.051-4.701,0.08c-0.943-1.898-1.569-3.91-2.509-5.806
			c-0.412-0.556-1.166-1.107-1.915-1.657c-2.223-1.422-4.764-2.731-6.984-4.155c-2.081-0.417-4.475-0.71-6.542-1.017
			c-3.74-0.275-7.818-0.543-11.559-0.821c-1.82-0.982-8.462-0.304-12.839-0.345c-6.044,0.101-11.757,0.195-17.801,0.293
			c-6.106-0.348-11.868-0.587-17.958-0.826c-4.847-0.929-9.879-0.847-14.579-0.768c-5.442-0.362-10.859-0.606-16.28-0.856
			c-3.361,0.06-6.384,0.109-9.739,0.163c-2.718-0.18-5.421-0.248-8.138-0.425c-10.553-0.838-16.74-1.747-24.398-1.169
			c-9.746,0.161-19.15,0.317-28.882,0.48c-7.722,0.126-15.115,0.247-22.495,0.371c-2.73-0.178-5.441-0.357-8.148-0.423
			c-3.658-2.077-13.066-1.92-17.871-0.267c-0.752-0.55-1.155-0.992-1.897-1.543c-8.051,0.249-16.075,0.607-24.111,0.962
			c-6.021,0.217-11.699,0.534-17.726,0.746c-3.095-0.397-6.53-0.904-9.965-1.41c-3.023,0.052-6.381,0.106-9.331,0.716
			c-3.751-0.382-7.829-0.655-11.57-0.929c-3.504-0.954-8.445-0.196-12.846-0.349c-3.355,0.057-6.703,0.111-9.733,0.161
			c-13.374,0.676-26.747,1.232-40.141,1.794c-1.034-0.208-2.057-0.302-3.435-0.506c-5.33,0.426-10.644,0.85-15.966,1.39
			c-2.015,0.036-4.361,0.074-6.378,0.106c-8.176,1.71-11.52,1.879-14.294,1.248c-2.707-0.065-5.421-0.243-8.122-0.313
			c-6.938,0.902-2.372-2.436-8.382-2.109c-1.903,0.817-4.16,1.531-6.058,2.347c-5.037,0.088-13.751,2.706-14.857-0.313
			c-3.924,0.851-11.648,0.983-16.123,0.27c-5.95,0.773-7.016,0.339-14.591-0.884c-0.615,2.822-2.644,2.743-7.985,0.693
			c-9.38,1.581-19.794,1.624-28.608,1.375c-3.13-0.166-5.914-0.567-7.713-1.695c-2.622-0.488-14.55-2.005-11.204,0.857
			c-3.049,0.203-5.843,0.308-8.521,0.354c-0.145,0.003-0.297,0.005-0.441,0.008c-8.164,0.123-15.268-0.303-25.038-0.269
			c-0.078,0.084-0.225,0.134-0.329,0.205c-0.172-0.01-0.327-0.014-0.501-0.025c3.295-2.871-8.605-1.321-11.219-0.825
			c-0.767,0.488-1.734,0.832-2.818,1.092c-9.636,0.404-22.285,0.736-33.502-1.117c-5.303,2.065-7.331,2.15-7.997-0.67
			c-7.553,1.244-8.611,1.681-14.574,0.925c-4.462,0.725-12.188,0.615-16.127-0.224c-1.052,3.021-9.812,0.428-14.851,0.354
			c-1.912-0.81-4.182-1.518-6.1-2.33c-6.015-0.309-1.389,3.015-8.343,2.133c-2.699,0.077-5.411,0.263-8.116,0.336
			c-2.763,0.639-6.109,0.48-14.316-1.207c-2.018-0.026-4.364-0.058-6.38-0.088c-5.331-0.524-10.653-0.933-15.99-1.345
			c-1.374,0.208-2.395,0.305-3.425,0.516c-13.404-0.524-26.787-1.043-40.173-1.681c-3.03-0.042-6.38-0.087-9.736-0.134
			c-4.398,0.166-9.352-0.578-12.839,0.386c-3.735,0.285-7.808,0.569-11.552,0.962c-2.961-0.601-6.32-0.646-9.344-0.689
			c-3.425,0.516-6.851,1.032-9.939,1.438c-6.03-0.195-11.714-0.496-17.738-0.696c-8.043-0.333-16.073-0.668-24.128-0.894
			c-0.732,0.553-1.127,0.996-1.869,1.549c-4.836-1.639-14.246-1.77-17.866,0.318c-2.705,0.073-5.413,0.26-8.14,0.446
			c-7.383-0.104-14.778-0.203-22.501-0.308c-9.735-0.135-19.142-0.265-28.89-0.398c-7.668-0.556-13.839,0.37-24.376,1.238
			c-2.714,0.185-5.416,0.26-8.13,0.448c-3.356-0.045-6.38-0.085-9.742-0.135c-5.416,0.265-10.829,0.524-16.264,0.902
			c-4.702-0.066-9.735-0.133-14.565,0.81c-6.085,0.256-11.842,0.512-17.942,0.876c-6.046-0.081-11.76-0.159-17.806-0.243
			c-4.377,0.053-11.03-0.606-12.833,0.381c-3.735,0.289-7.808,0.569-11.544,0.854c-2.061,0.313-4.449,0.613-6.523,1.036
			c-2.194,1.43-4.711,2.746-6.908,4.175c-0.739,0.552-1.483,1.105-1.885,1.662c-0.906,1.898-1.495,3.911-2.404,5.812
			c-1.681-0.024-3.024-0.045-4.702-0.066c-5.96-0.756-11.58-1.621-17.54-2.379c-1.085,0.662-2.195,1.436-3.62,2.088
			c-3.246-0.944-8.878-1.699-12.708-0.626c-0.544,1.678-0.398,3.253,5.857,4.354c-2.103,0.645-4.553,1.397-6.65,2.043
			c0.757,2.031-3.25,4.565,3.97,6.013c-1.593,2.001-3.511,3.886-5.438,5.879c-10.258,1.321-6.769,5.757,0.614,8.665
			c-9.742,2.567-1.225,4.48,2.161,7.003c-0.139,1.121-0.264,2.133-0.404,3.253c1.684,0.024,3.361,0.05,5.046,0.071
			c-0.13,1.011-0.271,2.132-0.411,3.253c2.243,0.93,6.431,2.449,9.282,3.839c-0.039,0.336-0.088,0.674-0.139,1.125
			c0.425,2.025,14.766,0.313,15.668,3.923c1.134-0.996,2.28-2.104,3.41-3.1c7.416,2.575,8.486,4.838,13.726,6.033
			c3.137-0.854,5.565-1.494,7.106-3.046c2.681,0.036,1.185-1.447,0.328-2.695c2.812-0.975,5.262-1.725,8.396-2.582
			c3.505,1.621,3.392,2.519,9.149,2.262c0.678-2.802,12.632-1.511,18.27-3.57c6.385,0.088,17.553,2.267,18.066-1.884
			c9.586,1.365,21.079,0.962,27.678-0.743c4.343,0.284,6.909,1.332,10.951,1.271c5.079-0.265,9.827-0.536,14.58-0.922
			c12.75,0.292,18.085-1.996,27.802-1.751c4.756-0.272,9.833-0.54,14.577-0.811c0.832-0.073,1.662-0.127,2.494-0.193
			c2.273,0.099,4.929,0.051,7.441-0.035c6.064,0.012,11.811,0.141,17.884,0.263c3.66-0.284,7.658-0.575,11.336-0.746
			c1.009-0.021,2.02-0.037,3.026-0.055c4.393-0.257,8.798-0.449,13.196-0.682c4.183,0.507,8.208,0.598,13.366-0.319
			c0.294-0.005,0.606-0.01,0.897-0.015c1.828,1.092,3.655,2.074,5.158,3.174c2.68-0.043,5.373-0.088,7.899-1.257
			c3.352-0.054,6.725-0.112,9.742-0.162c3.389,0.17,6.438,0.343,9.813,0.399c0.264-0.567,0.872-1.027,1.455-1.597
			c9.088-0.039,18.192,0.035,27.288,0.106c15.074-0.472,30.157-0.951,45.253-1.313c3.024-0.049,6.378-0.104,9.739-0.161
			c8.404-0.028,17.175,0.054,25.605,0.134c5.244,1.38,9.347,1.872,9.732-0.161c3.361-0.054,6.381-0.103,9.736-0.162
			c3.612-0.619,7.236-1.243,11.182-1.872c1.015-0.018,2.237-0.038,3.489-0.058c0.563,0.014,1.121,0.024,1.682,0.037
			c21.376,2.8,37.056,0.223,54.422,0.155c21.078,1.453,50.872,0.279,72.628-0.645c0.156-0.106,0.349-0.186,0.548-0.261
			c1.735-0.031,3.473-0.067,5.226-0.117c0.318-0.098,0.558-0.194,0.797-0.282c0.486,0,0.962-0.006,1.404-0.032
			c0.679,0.101,1.045,0.318,1.751,0.532c4.18,0.11,8.305,0.16,12.387,0.171c20.925,0.794,47.021,1.55,66.027,0.184
			c16.081,0.018,30.762,2.184,49.778,0.236c3.762-0.063,7.609-0.171,11.455-0.273c3.317,0.528,6.469,1.054,9.572,1.576
			c3.356,0.05,6.376,0.09,9.739,0.135c0.422,2.031,4.516,1.528,9.735,0.133c8.429-0.104,17.198-0.21,25.602-0.206
			c3.19,0.045,6.356,0.088,9.257,0.127c4.432,0.241,8.876,0.407,13.409,0.321c10.788,0.269,21.573,0.564,32.352,0.87
			c9.094-0.096,18.197-0.196,27.285-0.183c0.592,0.569,1.21,1.027,1.483,1.593c3.374-0.066,6.419-0.248,9.805-0.427
			c3.018,0.041,6.392,0.09,9.744,0.135c2.547,1.162,5.24,1.2,7.921,1.235c1.383-1.03,3.055-1.964,4.741-2.975
			c5.936,1.177,10.351,1.086,14.979,0.486c2.027-0.035,3.978-0.068,5.929-0.1c2.311,0.105,4.622,0.209,6.928,0.337
			c1.006,0.016,2.018,0.028,3.027,0.047c3.681,0.161,7.684,0.441,11.349,0.714c2.541-0.058,5.011-0.114,7.485-0.166
			c1.31,0.043,2.551,0.016,3.753-0.062c2.198-0.037,4.388-0.075,6.64-0.086c0.465,0.015,0.939,0.024,1.411,0.036
			c2.84,0.179,5.682,0.37,8.531,0.612c4.75,0.257,9.831,0.511,14.592,0.77c9.713-0.273,15.088,2.001,27.833,1.673
			c4.761,0.372,9.513,0.631,14.597,0.88c4.043,0.05,6.59-1.005,10.928-1.302c6.63,1.686,18.129,2.056,27.69,0.665
			c0.589,4.15,11.717,1.939,18.1,1.833c5.675,2.043,17.606,0.718,18.335,3.518c5.761,0.242,5.632-0.657,9.108-2.287
			c3.149,0.849,5.613,1.592,8.442,2.559c-0.835,1.251-2.304,2.737,0.377,2.694c1.569,1.548,4.009,2.181,7.161,3.026
			c5.218-1.21,6.247-3.476,13.617-6.072c1.149,0.993,2.314,2.098,3.466,3.09c0.837-3.613,15.209-1.942,15.597-3.968
			c-0.06-0.45-0.115-0.789-0.16-1.125c2.826-1.397,6.986-2.928,9.213-3.865c-0.16-1.121-0.321-2.241-0.47-3.252
			c1.684-0.025,3.361-0.056,5.044-0.085c-0.16-1.12-0.303-2.131-0.463-3.252C1205.926,49.511,1214.408,47.574,1204.62,45.035z
			 M152.585,41.617c-4.812,0.017-9.583,0.126-14.17,0.263C143.2,41.402,147.91,41.399,152.585,41.617z M185.519,42.927
			c-1.299,0.225-2.841,0.32-4.699,0.231C182.379,43.13,183.946,43.044,185.519,42.927z M191.73,41.179
			c0.601-0.655,3.037-0.546,5.185-0.523c-0.055,0.009-0.11,0.018-0.164,0.026C194.693,40.55,193.149,40.804,191.73,41.179z
			 M200.249,39.606c1.122,0.036,2.144,0.023,3.17,0.011c-1.048,0.165-2.09,0.334-3.134,0.501
			C200.358,39.98,200.374,39.821,200.249,39.606z M1034.07,38.652c-0.121,0.215-0.103,0.374-0.027,0.511
			c-1.047-0.164-2.091-0.33-3.142-0.492C1031.927,38.681,1032.949,38.691,1034.07,38.652z M1042.617,40.201
			c-1.425-0.372-2.973-0.621-5.029-0.483c-0.055-0.009-0.109-0.017-0.164-0.026C1039.571,39.663,1042.004,39.547,1042.617,40.201z
			 M1053.563,42.149c-1.856,0.094-3.4,0.004-4.703-0.218C1050.435,42.043,1052.004,42.125,1053.563,42.149z M1095.944,40.75
			c-4.589-0.122-9.362-0.219-14.175-0.222C1086.44,40.296,1091.15,40.286,1095.944,40.75z M151.488,55.681
			c3.137,0.044,6.274,0.086,9.412,0.13c-4.368-0.059-6.723-0.091-9.41-0.128C151.489,55.683,151.489,55.682,151.488,55.681z
			 M1083.122,54.588c-0.001,0.001-0.001,0.002-0.002,0.002c-2.686,0.044-5.041,0.083-9.408,0.155
			C1076.849,54.692,1079.986,54.641,1083.122,54.588z"/>
		<path id="XMLID_99_" fill="#F1F1F1" d="M1229.183,100.846c7.331-2.93,10.739-7.375,0.458-8.667
			c-1.963-1.987-3.915-3.867-5.544-5.863c7.193-1.469,3.141-3.991,3.861-6.024c-2.109-0.64-4.572-1.385-6.687-2.024
			c6.235-1.119,6.352-2.695,5.778-4.371c-3.849-1.062-9.467-0.291-12.696,0.662c-1.437-0.648-2.561-1.419-3.658-2.078
			c-5.946,0.775-11.55,1.657-17.497,2.429c-1.678,0.026-3.021,0.051-4.701,0.08c-0.943-1.898-1.569-3.91-2.509-5.806
			c-0.412-0.556-1.166-1.107-1.915-1.657c-2.223-1.422-4.764-2.731-6.984-4.155c-2.081-0.417-4.475-0.71-6.542-1.017
			c-3.74-0.275-7.818-0.543-11.559-0.821c-1.82-0.982-8.461-0.304-12.839-0.345c-6.044,0.101-11.757,0.195-17.801,0.293
			c-6.106-0.348-11.868-0.587-17.958-0.826c-4.847-0.929-9.879-0.847-14.579-0.768c-5.442-0.362-10.859-0.606-16.28-0.856
			c-3.361,0.06-6.384,0.109-9.739,0.163c-2.718-0.18-5.421-0.248-8.138-0.425c-10.553-0.838-16.74-1.747-24.398-1.169
			c-9.746,0.161-19.15,0.317-28.882,0.48c-7.722,0.126-15.115,0.247-22.495,0.371c-2.73-0.178-5.441-0.357-8.148-0.423
			c-3.658-2.077-13.066-1.92-17.871-0.267c-0.752-0.55-1.155-0.992-1.897-1.543c-8.051,0.249-16.075,0.607-24.111,0.962
			c-6.021,0.217-11.699,0.534-17.726,0.746c-3.095-0.397-6.53-0.904-9.965-1.41c-3.023,0.052-6.381,0.106-9.331,0.716
			c-3.751-0.382-7.829-0.655-11.57-0.929c-3.504-0.954-8.445-0.196-12.846-0.349c-3.355,0.057-6.704,0.111-9.733,0.161
			c-13.374,0.676-26.747,1.232-40.141,1.794c-1.034-0.208-2.057-0.302-3.435-0.506c-5.329,0.426-10.644,0.85-15.966,1.39
			c-2.015,0.036-4.361,0.074-6.378,0.106c-8.176,1.71-11.52,1.879-14.294,1.248c-2.707-0.065-5.421-0.243-8.122-0.313
			c-6.938,0.902-2.372-2.436-8.382-2.109c-1.903,0.817-4.16,1.531-6.058,2.347c-5.037,0.088-13.751,2.706-14.857-0.313
			c-3.924,0.851-11.648,0.983-16.123,0.27c-5.95,0.773-7.016,0.339-14.591-0.884c-0.615,2.822-2.644,2.743-7.985,0.693
			c-9.38,1.581-19.794,1.624-28.608,1.375c-3.13-0.166-5.914-0.567-7.713-1.695c-2.622-0.488-14.55-2.005-11.203,0.857
			c-3.049,0.203-5.843,0.308-8.521,0.354c-0.145,0.003-0.297,0.005-0.441,0.008c-8.164,0.123-15.268-0.303-25.038-0.269
			c-0.078,0.084-0.225,0.134-0.329,0.205c-0.172-0.01-0.327-0.014-0.501-0.025c3.295-2.871-8.605-1.321-11.219-0.825
			c-0.767,0.488-1.734,0.832-2.818,1.092c-9.636,0.404-22.285,0.736-33.502-1.117c-5.303,2.064-7.331,2.15-7.997-0.67
			c-7.553,1.244-8.611,1.681-14.574,0.925c-4.462,0.725-12.188,0.615-16.127-0.224c-1.051,3.021-9.812,0.428-14.851,0.354
			c-1.912-0.81-4.182-1.518-6.1-2.33c-6.015-0.309-1.389,3.015-8.343,2.133c-2.699,0.077-5.411,0.263-8.116,0.336
			c-2.763,0.639-6.109,0.48-14.316-1.207c-2.018-0.026-4.364-0.058-6.38-0.088c-5.331-0.524-10.653-0.933-15.99-1.345
			c-1.374,0.208-2.395,0.305-3.425,0.516c-13.404-0.524-26.787-1.043-40.173-1.681c-3.031-0.042-6.38-0.087-9.736-0.134
			c-4.398,0.166-9.352-0.578-12.839,0.386c-3.735,0.285-7.808,0.569-11.552,0.962c-2.961-0.601-6.32-0.646-9.344-0.689
			c-3.425,0.516-6.851,1.032-9.939,1.438c-6.03-0.195-11.714-0.496-17.738-0.696c-8.043-0.333-16.073-0.668-24.128-0.894
			c-0.732,0.553-1.127,0.996-1.869,1.549c-4.836-1.639-14.246-1.77-17.866,0.318c-2.705,0.073-5.413,0.26-8.14,0.446
			c-7.383-0.104-14.778-0.203-22.501-0.308c-9.735-0.135-19.142-0.265-28.89-0.398c-7.668-0.556-13.839,0.37-24.376,1.238
			c-2.714,0.185-5.416,0.26-8.13,0.448c-3.356-0.045-6.38-0.085-9.742-0.135c-5.416,0.265-10.829,0.524-16.264,0.902
			c-4.702-0.066-9.735-0.133-14.565,0.81c-6.085,0.256-11.842,0.512-17.942,0.876c-6.046-0.081-11.76-0.159-17.806-0.243
			c-4.377,0.053-11.03-0.606-12.833,0.381c-3.735,0.289-7.808,0.569-11.544,0.854c-2.061,0.313-4.449,0.613-6.523,1.036
			c-2.194,1.43-4.711,2.746-6.908,4.175c-0.739,0.552-1.483,1.105-1.885,1.662c-0.906,1.898-1.495,3.911-2.404,5.812
			c-1.681-0.024-3.024-0.045-4.702-0.066c-5.96-0.756-11.58-1.621-17.54-2.379c-1.085,0.662-2.195,1.436-3.62,2.088
			c-3.246-0.944-8.878-1.699-12.708-0.626c-0.544,1.678-0.398,3.253,5.857,4.354c-2.103,0.645-4.553,1.397-6.65,2.043
			c0.757,2.031-3.25,4.565,3.97,6.013c-1.593,2.001-3.511,3.886-5.438,5.879c-10.258,1.321-6.769,5.757,0.614,8.665
			c-9.742,2.567-1.225,4.48,2.161,7.003c-0.139,1.121-0.264,2.133-0.404,3.253c1.684,0.024,3.361,0.05,5.046,0.071
			c-0.13,1.011-0.271,2.132-0.411,3.253c2.243,0.93,6.431,2.449,9.282,3.839c-0.039,0.336-0.088,0.674-0.139,1.125
			c0.425,2.025,14.766,0.313,15.668,3.923c1.134-0.996,2.28-2.104,3.41-3.1c7.416,2.575,8.486,4.838,13.726,6.033
			c3.137-0.854,5.565-1.494,7.106-3.046c2.681,0.036,1.185-1.447,0.328-2.695c2.812-0.975,5.262-1.725,8.396-2.582
			c3.505,1.621,3.392,2.519,9.149,2.262c0.678-2.802,12.632-1.511,18.27-3.57c6.385,0.088,17.553,2.267,18.066-1.884
			c9.586,1.365,21.079,0.962,27.678-0.743c4.343,0.284,6.909,1.332,10.951,1.271c5.079-0.265,9.827-0.536,14.58-0.922
			c12.75,0.292,18.085-1.996,27.802-1.751c4.756-0.272,9.833-0.54,14.577-0.811c0.832-0.073,1.662-0.127,2.494-0.193
			c2.273,0.099,4.929,0.051,7.441-0.035c6.064,0.012,11.811,0.141,17.884,0.263c3.66-0.284,7.658-0.575,11.336-0.746
			c1.009-0.021,2.02-0.037,3.026-0.055c4.393-0.257,8.798-0.449,13.196-0.682c4.183,0.507,8.208,0.598,13.366-0.319
			c0.294-0.005,0.606-0.01,0.897-0.015c1.828,1.092,3.655,2.074,5.158,3.174c2.68-0.043,5.373-0.088,7.899-1.257
			c3.352-0.054,6.725-0.112,9.742-0.162c3.389,0.17,6.438,0.343,9.813,0.399c0.264-0.567,0.872-1.027,1.455-1.597
			c9.088-0.039,18.192,0.035,27.288,0.106c15.074-0.472,30.157-0.951,45.253-1.313c3.024-0.049,6.378-0.104,9.739-0.161
			c8.404-0.028,17.175,0.054,25.605,0.134c5.244,1.38,9.347,1.872,9.732-0.161c3.361-0.054,6.381-0.103,9.736-0.162
			c3.612-0.619,7.236-1.243,11.182-1.872c1.015-0.018,2.237-0.038,3.489-0.058c0.564,0.014,1.121,0.024,1.682,0.037
			c21.376,2.8,37.056,0.223,54.422,0.155c21.078,1.453,50.872,0.279,72.628-0.645c0.156-0.106,0.349-0.186,0.548-0.261
			c1.735-0.031,3.473-0.067,5.226-0.117c0.318-0.098,0.558-0.194,0.797-0.282c0.486,0,0.962-0.006,1.404-0.032
			c0.679,0.101,1.045,0.318,1.751,0.532c4.18,0.11,8.305,0.16,12.387,0.171c20.925,0.794,47.021,1.55,66.027,0.184
			c16.081,0.018,30.762,2.184,49.778,0.236c3.762-0.063,7.609-0.171,11.455-0.273c3.317,0.528,6.469,1.054,9.572,1.576
			c3.356,0.05,6.376,0.09,9.739,0.135c0.422,2.031,4.516,1.528,9.735,0.133c8.429-0.104,17.198-0.21,25.602-0.206
			c3.19,0.045,6.356,0.088,9.257,0.127c4.432,0.241,8.876,0.407,13.409,0.321c10.788,0.269,21.573,0.564,32.352,0.87
			c9.094-0.096,18.197-0.196,27.285-0.183c0.592,0.569,1.21,1.027,1.483,1.593c3.374-0.066,6.419-0.248,9.805-0.427
			c3.018,0.041,6.392,0.09,9.744,0.135c2.547,1.162,5.24,1.2,7.921,1.235c1.383-1.03,3.055-1.964,4.741-2.975
			c5.936,1.177,10.351,1.086,14.979,0.486c2.027-0.035,3.978-0.068,5.929-0.1c2.311,0.105,4.622,0.209,6.928,0.337
			c1.006,0.016,2.018,0.028,3.027,0.047c3.681,0.161,7.684,0.441,11.349,0.714c2.541-0.058,5.011-0.114,7.486-0.166
			c1.31,0.043,2.551,0.016,3.753-0.062c2.198-0.037,4.388-0.075,6.64-0.086c0.465,0.015,0.939,0.024,1.411,0.036
			c2.84,0.179,5.682,0.37,8.531,0.612c4.75,0.257,9.831,0.511,14.592,0.77c9.713-0.273,15.088,2.001,27.833,1.673
			c4.761,0.372,9.513,0.631,14.597,0.88c4.043,0.05,6.59-1.005,10.928-1.302c6.63,1.686,18.129,2.056,27.69,0.665
			c0.589,4.15,11.717,1.939,18.1,1.833c5.675,2.043,17.606,0.718,18.335,3.518c5.761,0.242,5.632-0.657,9.108-2.287
			c3.149,0.849,5.613,1.592,8.442,2.559c-0.835,1.251-2.304,2.737,0.377,2.694c1.569,1.548,4.009,2.181,7.161,3.026
			c5.218-1.21,6.247-3.476,13.617-6.072c1.149,0.993,2.314,2.098,3.466,3.09c0.837-3.613,15.209-1.942,15.597-3.968
			c-0.06-0.45-0.115-0.789-0.16-1.125c2.826-1.397,6.986-2.928,9.213-3.865c-0.16-1.121-0.321-2.241-0.47-3.252
			c1.684-0.025,3.361-0.056,5.044-0.085c-0.16-1.12-0.303-2.131-0.463-3.252C1230.49,105.322,1238.972,103.385,1229.183,100.846z
			 M177.149,97.428c-4.812,0.017-9.583,0.126-14.17,0.263C167.764,97.213,172.474,97.21,177.149,97.428z M210.082,98.739
			c-1.299,0.225-2.841,0.32-4.699,0.231C206.942,98.941,208.51,98.856,210.082,98.739z M216.294,96.991
			c0.601-0.655,3.037-0.546,5.185-0.523c-0.055,0.009-0.11,0.018-0.164,0.026C219.256,96.361,217.713,96.615,216.294,96.991z
			 M224.813,95.418c1.122,0.036,2.144,0.023,3.17,0.011c-1.048,0.165-2.09,0.334-3.134,0.501
			C224.922,95.792,224.938,95.632,224.813,95.418z M1058.634,94.463c-0.121,0.215-0.103,0.374-0.027,0.511
			c-1.047-0.164-2.091-0.33-3.142-0.492C1056.49,94.492,1057.513,94.502,1058.634,94.463z M1067.181,96.012
			c-1.425-0.372-2.973-0.621-5.029-0.483c-0.055-0.009-0.109-0.017-0.164-0.026C1064.135,95.475,1066.568,95.359,1067.181,96.012z
			 M1078.127,97.96c-1.856,0.094-3.4,0.004-4.703-0.218C1074.999,97.854,1076.568,97.936,1078.127,97.96z M1120.507,96.561
			c-4.589-0.122-9.362-0.219-14.175-0.222C1111.004,96.107,1115.714,96.097,1120.507,96.561z M176.051,111.492
			c3.137,0.044,6.274,0.086,9.412,0.13c-4.368-0.059-6.723-0.091-9.41-0.128C176.053,111.495,176.052,111.493,176.051,111.492z
			 M1107.685,110.4c-0.001,0.001-0.001,0.002-0.002,0.002c-2.686,0.044-5.041,0.083-9.408,0.155
			C1101.413,110.504,1104.55,110.453,1107.685,110.4z"/>
		<path id="XMLID_87_" fill="#F1F1F1" d="M1204.62,134.065c7.331-2.93,10.739-7.375,0.458-8.667
			c-1.963-1.987-3.915-3.867-5.544-5.863c7.193-1.469,3.141-3.991,3.861-6.024c-2.109-0.64-4.572-1.385-6.687-2.024
			c6.235-1.119,6.352-2.695,5.778-4.371c-3.849-1.062-9.467-0.291-12.696,0.662c-1.437-0.648-2.561-1.419-3.658-2.078
			c-5.946,0.775-11.55,1.657-17.497,2.429c-1.678,0.026-3.021,0.051-4.701,0.08c-0.943-1.898-1.569-3.91-2.509-5.806
			c-0.412-0.556-1.166-1.107-1.915-1.657c-2.223-1.422-4.764-2.731-6.984-4.155c-2.081-0.417-4.475-0.71-6.542-1.017
			c-3.74-0.275-7.818-0.543-11.559-0.821c-1.82-0.982-8.462-0.304-12.839-0.345c-6.044,0.101-11.757,0.195-17.801,0.293
			c-6.106-0.348-11.868-0.587-17.958-0.826c-4.847-0.929-9.879-0.847-14.579-0.768c-5.442-0.362-10.859-0.606-16.28-0.856
			c-3.361,0.06-6.384,0.109-9.739,0.163c-2.718-0.18-5.421-0.248-8.138-0.425c-10.553-0.838-16.74-1.747-24.398-1.169
			c-9.746,0.161-19.15,0.317-28.882,0.48c-7.722,0.126-15.115,0.247-22.495,0.371c-2.73-0.178-5.441-0.357-8.148-0.423
			c-3.658-2.077-13.066-1.92-17.871-0.267c-0.752-0.55-1.155-0.992-1.897-1.543c-8.051,0.249-16.075,0.607-24.111,0.962
			c-6.021,0.217-11.699,0.534-17.726,0.746c-3.095-0.397-6.53-0.904-9.965-1.41c-3.023,0.052-6.381,0.106-9.331,0.716
			c-3.751-0.382-7.829-0.655-11.57-0.929c-3.504-0.954-8.445-0.197-12.846-0.349c-3.355,0.057-6.703,0.111-9.733,0.161
			c-13.374,0.676-26.747,1.232-40.141,1.794c-1.034-0.208-2.057-0.302-3.435-0.506c-5.33,0.426-10.644,0.85-15.966,1.39
			c-2.015,0.036-4.361,0.074-6.378,0.106c-8.176,1.71-11.52,1.879-14.294,1.248c-2.707-0.065-5.421-0.243-8.122-0.313
			c-6.938,0.902-2.372-2.436-8.382-2.109c-1.903,0.817-4.16,1.531-6.058,2.347c-5.037,0.088-13.751,2.706-14.857-0.313
			c-3.924,0.851-11.648,0.983-16.123,0.27c-5.95,0.773-7.016,0.339-14.591-0.884c-0.615,2.822-2.644,2.743-7.985,0.693
			c-9.38,1.581-19.794,1.624-28.608,1.375c-3.13-0.166-5.914-0.567-7.713-1.695c-2.622-0.488-14.55-2.005-11.204,0.857
			c-3.049,0.203-5.843,0.308-8.521,0.354c-0.145,0.003-0.297,0.005-0.441,0.008c-8.164,0.123-15.268-0.303-25.038-0.269
			c-0.078,0.084-0.225,0.134-0.329,0.205c-0.172-0.01-0.327-0.014-0.501-0.025c3.295-2.871-8.605-1.321-11.219-0.825
			c-0.767,0.488-1.734,0.832-2.818,1.092c-9.636,0.404-22.285,0.736-33.502-1.117c-5.303,2.065-7.331,2.15-7.997-0.67
			c-7.553,1.244-8.611,1.681-14.574,0.925c-4.462,0.725-12.188,0.615-16.127-0.224c-1.052,3.021-9.812,0.428-14.851,0.354
			c-1.912-0.81-4.182-1.518-6.1-2.33c-6.015-0.309-1.389,3.015-8.343,2.133c-2.699,0.077-5.411,0.263-8.116,0.336
			c-2.763,0.639-6.109,0.48-14.316-1.207c-2.018-0.026-4.364-0.058-6.38-0.088c-5.331-0.524-10.653-0.933-15.99-1.345
			c-1.374,0.208-2.395,0.305-3.425,0.516c-13.404-0.524-26.787-1.043-40.173-1.681c-3.03-0.042-6.38-0.087-9.736-0.134
			c-4.398,0.166-9.352-0.578-12.839,0.386c-3.735,0.285-7.808,0.569-11.552,0.962c-2.961-0.601-6.32-0.646-9.344-0.689
			c-3.425,0.516-6.851,1.032-9.939,1.438c-6.03-0.195-11.714-0.496-17.738-0.696c-8.043-0.333-16.073-0.668-24.128-0.894
			c-0.732,0.553-1.127,0.996-1.869,1.549c-4.836-1.639-14.246-1.77-17.866,0.318c-2.705,0.073-5.413,0.26-8.14,0.446
			c-7.383-0.104-14.778-0.203-22.501-0.308c-9.735-0.135-19.142-0.265-28.89-0.398c-7.668-0.556-13.839,0.37-24.376,1.238
			c-2.714,0.185-5.416,0.26-8.13,0.448c-3.356-0.045-6.38-0.085-9.742-0.135c-5.416,0.265-10.829,0.524-16.264,0.902
			c-4.702-0.066-9.735-0.133-14.565,0.81c-6.085,0.256-11.842,0.512-17.942,0.876c-6.046-0.081-11.76-0.159-17.806-0.243
			c-4.377,0.053-11.03-0.606-12.833,0.381c-3.735,0.289-7.808,0.569-11.544,0.854c-2.061,0.313-4.449,0.613-6.523,1.036
			c-2.194,1.43-4.711,2.746-6.908,4.175c-0.739,0.552-1.483,1.105-1.885,1.662c-0.906,1.898-1.495,3.911-2.404,5.812
			c-1.681-0.024-3.024-0.045-4.702-0.066c-5.96-0.756-11.58-1.621-17.54-2.379c-1.085,0.662-2.195,1.436-3.62,2.088
			c-3.246-0.944-8.878-1.699-12.708-0.626c-0.544,1.678-0.398,3.253,5.857,4.354c-2.103,0.645-4.553,1.397-6.65,2.043
			c0.757,2.031-3.25,4.565,3.97,6.013c-1.593,2.001-3.511,3.886-5.438,5.879c-10.258,1.321-6.769,5.757,0.614,8.665
			c-9.742,2.567-1.225,4.48,2.161,7.003c-0.139,1.121-0.264,2.133-0.404,3.253c1.684,0.024,3.361,0.05,5.046,0.071
			c-0.13,1.011-0.271,2.132-0.411,3.253c2.243,0.93,6.431,2.449,9.282,3.839c-0.039,0.336-0.088,0.674-0.139,1.125
			c0.425,2.025,14.766,0.313,15.668,3.923c1.134-0.996,2.28-2.104,3.41-3.1c7.416,2.575,8.486,4.838,13.726,6.033
			c3.137-0.854,5.565-1.494,7.106-3.046c2.681,0.036,1.185-1.447,0.328-2.695c2.812-0.975,5.262-1.725,8.396-2.582
			c3.505,1.621,3.392,2.519,9.149,2.262c0.678-2.802,12.632-1.511,18.27-3.57c6.385,0.088,17.553,2.267,18.066-1.884
			c9.586,1.365,21.079,0.962,27.678-0.743c4.343,0.284,6.909,1.332,10.951,1.271c5.079-0.265,9.827-0.536,14.58-0.922
			c12.75,0.292,18.085-1.996,27.802-1.751c4.756-0.272,9.833-0.54,14.577-0.811c0.832-0.073,1.662-0.127,2.494-0.193
			c2.273,0.099,4.929,0.051,7.441-0.035c6.064,0.012,11.811,0.141,17.884,0.263c3.66-0.284,7.658-0.575,11.336-0.746
			c1.009-0.021,2.02-0.037,3.026-0.055c4.393-0.257,8.798-0.449,13.196-0.682c4.183,0.507,8.208,0.598,13.366-0.319
			c0.294-0.005,0.606-0.01,0.897-0.015c1.828,1.092,3.655,2.074,5.158,3.174c2.68-0.043,5.373-0.088,7.899-1.257
			c3.352-0.054,6.725-0.112,9.742-0.162c3.389,0.17,6.438,0.343,9.813,0.399c0.264-0.567,0.872-1.027,1.455-1.597
			c9.088-0.039,18.192,0.035,27.288,0.106c15.074-0.472,30.157-0.951,45.253-1.313c3.024-0.049,6.378-0.104,9.739-0.161
			c8.404-0.028,17.175,0.054,25.605,0.134c5.244,1.38,9.347,1.872,9.732-0.161c3.361-0.054,6.381-0.103,9.736-0.162
			c3.612-0.619,7.236-1.243,11.182-1.872c1.015-0.018,2.237-0.038,3.489-0.058c0.563,0.014,1.121,0.024,1.682,0.037
			c21.376,2.8,37.056,0.223,54.422,0.155c21.078,1.453,50.872,0.279,72.628-0.645c0.156-0.106,0.349-0.186,0.548-0.261
			c1.735-0.031,3.473-0.067,5.226-0.117c0.318-0.098,0.558-0.194,0.797-0.282c0.486,0,0.962-0.006,1.404-0.032
			c0.679,0.101,1.045,0.318,1.751,0.532c4.18,0.11,8.305,0.16,12.387,0.171c20.925,0.794,47.021,1.55,66.027,0.184
			c16.081,0.018,30.762,2.184,49.778,0.236c3.762-0.063,7.609-0.171,11.455-0.273c3.317,0.528,6.469,1.054,9.572,1.576
			c3.356,0.05,6.376,0.09,9.739,0.135c0.422,2.031,4.516,1.528,9.735,0.133c8.429-0.104,17.198-0.21,25.602-0.206
			c3.19,0.045,6.356,0.088,9.257,0.127c4.432,0.241,8.876,0.407,13.409,0.321c10.788,0.269,21.573,0.564,32.352,0.87
			c9.094-0.096,18.197-0.196,27.285-0.183c0.592,0.569,1.21,1.027,1.483,1.593c3.374-0.066,6.419-0.248,9.805-0.427
			c3.018,0.041,6.392,0.09,9.744,0.135c2.547,1.162,5.24,1.2,7.921,1.235c1.383-1.03,3.055-1.964,4.741-2.975
			c5.936,1.177,10.351,1.086,14.979,0.486c2.027-0.035,3.978-0.068,5.929-0.1c2.311,0.105,4.622,0.209,6.928,0.337
			c1.006,0.016,2.018,0.028,3.027,0.047c3.681,0.161,7.684,0.441,11.349,0.714c2.541-0.058,5.011-0.114,7.485-0.166
			c1.31,0.043,2.551,0.016,3.753-0.062c2.198-0.037,4.388-0.075,6.64-0.086c0.465,0.015,0.939,0.024,1.411,0.036
			c2.84,0.179,5.682,0.37,8.531,0.612c4.75,0.257,9.831,0.511,14.592,0.77c9.713-0.273,15.088,2.001,27.833,1.673
			c4.761,0.372,9.513,0.631,14.597,0.88c4.043,0.05,6.59-1.005,10.928-1.302c6.63,1.686,18.129,2.056,27.69,0.665
			c0.589,4.15,11.717,1.939,18.1,1.833c5.675,2.043,17.606,0.718,18.335,3.518c5.761,0.242,5.632-0.657,9.108-2.287
			c3.149,0.849,5.613,1.592,8.442,2.559c-0.835,1.251-2.304,2.737,0.377,2.694c1.569,1.548,4.009,2.181,7.161,3.026
			c5.218-1.21,6.247-3.476,13.617-6.072c1.149,0.993,2.314,2.098,3.466,3.09c0.837-3.613,15.209-1.942,15.597-3.968
			c-0.06-0.45-0.115-0.789-0.16-1.125c2.826-1.397,6.986-2.928,9.213-3.865c-0.16-1.121-0.321-2.241-0.47-3.252
			c1.684-0.025,3.361-0.056,5.044-0.085c-0.16-1.12-0.303-2.131-0.463-3.252C1205.926,138.541,1214.408,136.604,1204.62,134.065z
			 M152.585,130.647c-4.812,0.017-9.583,0.126-14.17,0.263C143.2,130.432,147.91,130.429,152.585,130.647z M185.519,131.958
			c-1.299,0.225-2.841,0.32-4.699,0.231C182.379,132.16,183.946,132.075,185.519,131.958z M191.73,130.21
			c0.601-0.655,3.037-0.546,5.185-0.523c-0.055,0.009-0.11,0.018-0.164,0.026C194.693,129.58,193.149,129.834,191.73,130.21z
			 M200.249,128.637c1.122,0.036,2.144,0.023,3.17,0.011c-1.048,0.165-2.09,0.334-3.134,0.501
			C200.358,129.011,200.374,128.851,200.249,128.637z M1034.07,127.682c-0.121,0.215-0.103,0.374-0.027,0.511
			c-1.047-0.164-2.091-0.33-3.142-0.492C1031.927,127.711,1032.949,127.721,1034.07,127.682z M1042.617,129.231
			c-1.425-0.372-2.973-0.621-5.029-0.483c-0.055-0.009-0.109-0.017-0.164-0.026C1039.571,128.693,1042.004,128.578,1042.617,129.231
			z M1053.563,131.179c-1.856,0.094-3.4,0.004-4.703-0.218C1050.435,131.073,1052.004,131.155,1053.563,131.179z M1095.944,129.78
			c-4.589-0.122-9.362-0.219-14.175-0.222C1086.44,129.326,1091.15,129.316,1095.944,129.78z M151.488,144.711
			c3.137,0.044,6.274,0.086,9.412,0.13c-4.368-0.059-6.723-0.091-9.41-0.128C151.489,144.713,151.489,144.712,151.488,144.711z
			 M1083.122,143.619c-0.001,0.001-0.001,0.002-0.002,0.002c-2.686,0.044-5.041,0.083-9.408,0.155
			C1076.849,143.723,1079.986,143.671,1083.122,143.619z"/>
		<path id="XMLID_75_" fill="#F1F1F1" d="M1181.811,170c7.331-2.93,10.739-7.375,0.457-8.667c-1.963-1.987-3.915-3.867-5.544-5.863
			c7.193-1.469,3.141-3.991,3.861-6.024c-2.109-0.64-4.572-1.385-6.687-2.024c6.235-1.119,6.352-2.695,5.778-4.371
			c-3.849-1.062-9.467-0.291-12.696,0.662c-1.437-0.648-2.561-1.419-3.658-2.078c-5.946,0.775-11.551,1.657-17.497,2.429
			c-1.678,0.026-3.021,0.051-4.701,0.08c-0.943-1.898-1.569-3.91-2.509-5.806c-0.411-0.556-1.166-1.107-1.915-1.657
			c-2.223-1.422-4.764-2.731-6.984-4.155c-2.081-0.417-4.475-0.71-6.542-1.017c-3.74-0.275-7.818-0.543-11.559-0.821
			c-1.82-0.982-8.462-0.304-12.839-0.345c-6.044,0.101-11.757,0.195-17.801,0.293c-6.106-0.348-11.868-0.587-17.958-0.826
			c-4.847-0.929-9.879-0.847-14.579-0.768c-5.442-0.362-10.859-0.606-16.28-0.856c-3.361,0.06-6.384,0.109-9.739,0.163
			c-2.718-0.18-5.421-0.248-8.138-0.425c-10.553-0.838-16.74-1.747-24.398-1.169c-9.746,0.161-19.15,0.317-28.882,0.48
			c-7.722,0.126-15.115,0.247-22.495,0.371c-2.73-0.178-5.441-0.357-8.148-0.423c-3.658-2.077-13.066-1.92-17.871-0.267
			c-0.752-0.55-1.155-0.992-1.897-1.543c-8.051,0.249-16.075,0.607-24.111,0.962c-6.021,0.217-11.699,0.534-17.726,0.746
			c-3.095-0.397-6.53-0.904-9.965-1.41c-3.023,0.052-6.381,0.106-9.331,0.716c-3.751-0.382-7.829-0.655-11.57-0.929
			c-3.504-0.954-8.445-0.197-12.846-0.349c-3.355,0.057-6.704,0.111-9.733,0.161c-13.374,0.676-26.747,1.232-40.141,1.794
			c-1.034-0.208-2.057-0.302-3.435-0.506c-5.329,0.426-10.644,0.85-15.966,1.39c-2.015,0.036-4.361,0.074-6.378,0.106
			c-8.176,1.71-11.52,1.879-14.294,1.248c-2.707-0.065-5.421-0.243-8.122-0.313c-6.938,0.902-2.372-2.436-8.381-2.109
			c-1.903,0.817-4.16,1.531-6.058,2.347c-5.037,0.088-13.75,2.706-14.857-0.313c-3.924,0.851-11.648,0.983-16.123,0.27
			c-5.95,0.773-7.016,0.339-14.591-0.884c-0.615,2.822-2.644,2.743-7.985,0.693c-9.38,1.581-19.794,1.624-28.608,1.375
			c-3.13-0.166-5.914-0.567-7.713-1.695c-2.622-0.488-14.55-2.005-11.203,0.857c-3.049,0.203-5.843,0.308-8.521,0.354
			c-0.145,0.003-0.297,0.005-0.441,0.008c-8.164,0.123-15.268-0.303-25.038-0.269c-0.078,0.084-0.225,0.134-0.329,0.205
			c-0.172-0.01-0.327-0.014-0.501-0.025c3.295-2.871-8.605-1.321-11.219-0.825c-0.767,0.488-1.734,0.832-2.818,1.092
			c-9.636,0.404-22.285,0.736-33.502-1.117c-5.303,2.064-7.331,2.15-7.997-0.67c-7.553,1.244-8.611,1.681-14.574,0.925
			c-4.462,0.725-12.188,0.615-16.127-0.224c-1.051,3.021-9.812,0.428-14.851,0.354c-1.912-0.81-4.182-1.518-6.1-2.33
			c-6.015-0.309-1.389,3.015-8.343,2.133c-2.699,0.077-5.411,0.263-8.116,0.336c-2.763,0.639-6.109,0.48-14.316-1.207
			c-2.018-0.026-4.364-0.058-6.38-0.088c-5.331-0.524-10.653-0.933-15.99-1.345c-1.374,0.208-2.395,0.305-3.425,0.516
			c-13.404-0.524-26.787-1.043-40.173-1.681c-3.03-0.042-6.38-0.087-9.736-0.134c-4.398,0.166-9.352-0.578-12.839,0.386
			c-3.735,0.285-7.808,0.569-11.552,0.962c-2.961-0.601-6.32-0.646-9.344-0.689c-3.425,0.516-6.851,1.032-9.939,1.438
			c-6.03-0.195-11.714-0.496-17.738-0.696c-8.043-0.333-16.073-0.668-24.128-0.894c-0.732,0.553-1.127,0.996-1.869,1.549
			c-4.836-1.639-14.246-1.77-17.866,0.318c-2.705,0.073-5.413,0.26-8.14,0.446c-7.383-0.104-14.778-0.203-22.501-0.308
			c-9.735-0.135-19.142-0.265-28.89-0.398c-7.668-0.556-13.839,0.37-24.376,1.238c-2.714,0.185-5.416,0.26-8.13,0.448
			c-3.356-0.045-6.38-0.085-9.742-0.135c-5.416,0.265-10.829,0.524-16.264,0.902c-4.702-0.066-9.735-0.133-14.565,0.81
			c-6.085,0.256-11.842,0.512-17.942,0.876c-6.046-0.081-11.76-0.159-17.806-0.243c-4.377,0.053-11.03-0.606-12.833,0.381
			c-3.735,0.289-7.808,0.569-11.544,0.854c-2.061,0.313-4.449,0.613-6.523,1.036c-2.194,1.43-4.711,2.746-6.908,4.175
			c-0.739,0.552-1.483,1.105-1.885,1.662c-0.906,1.898-1.495,3.911-2.404,5.812c-1.681-0.024-3.024-0.045-4.702-0.066
			c-5.96-0.756-11.58-1.621-17.54-2.379c-1.085,0.662-2.195,1.436-3.62,2.088c-3.246-0.944-8.878-1.699-12.708-0.626
			c-0.544,1.678-0.398,3.253,5.857,4.354c-2.103,0.645-4.553,1.397-6.65,2.043c0.757,2.031-3.25,4.565,3.97,6.013
			c-1.593,2.001-3.511,3.886-5.438,5.879c-10.258,1.321-6.769,5.757,0.614,8.665c-9.742,2.567-1.225,4.48,2.161,7.003
			c-0.139,1.121-0.264,2.133-0.404,3.253c1.684,0.024,3.361,0.05,5.046,0.071c-0.13,1.011-0.271,2.132-0.411,3.253
			c2.243,0.93,6.431,2.449,9.282,3.839c-0.039,0.336-0.088,0.674-0.139,1.125c0.425,2.025,14.766,0.313,15.668,3.923
			c1.134-0.996,2.28-2.104,3.41-3.1c7.416,2.575,8.486,4.838,13.726,6.033c3.137-0.854,5.565-1.494,7.106-3.046
			c2.681,0.036,1.185-1.447,0.328-2.695c2.812-0.975,5.262-1.725,8.396-2.582c3.505,1.621,3.392,2.519,9.149,2.262
			c0.678-2.802,12.632-1.511,18.27-3.57c6.385,0.088,17.553,2.267,18.066-1.884c9.586,1.365,21.079,0.962,27.678-0.743
			c4.343,0.284,6.909,1.332,10.951,1.271c5.079-0.265,9.827-0.536,14.58-0.922c12.75,0.292,18.085-1.996,27.802-1.751
			c4.756-0.272,9.833-0.54,14.577-0.811c0.832-0.073,1.662-0.127,2.494-0.193c2.273,0.099,4.929,0.051,7.441-0.035
			c6.064,0.012,11.811,0.141,17.884,0.263c3.66-0.284,7.658-0.575,11.336-0.746c1.009-0.021,2.02-0.037,3.026-0.055
			c4.393-0.257,8.798-0.449,13.196-0.682c4.183,0.507,8.208,0.598,13.366-0.319c0.294-0.005,0.606-0.01,0.897-0.015
			c1.828,1.092,3.655,2.074,5.158,3.174c2.68-0.043,5.373-0.088,7.899-1.257c3.352-0.054,6.725-0.112,9.742-0.162
			c3.389,0.17,6.438,0.343,9.813,0.399c0.264-0.567,0.872-1.027,1.455-1.597c9.088-0.039,18.192,0.035,27.288,0.106
			c15.074-0.472,30.157-0.951,45.253-1.313c3.024-0.049,6.378-0.104,9.739-0.161c8.404-0.028,17.175,0.054,25.605,0.134
			c5.244,1.38,9.347,1.872,9.732-0.161c3.361-0.054,6.381-0.103,9.736-0.162c3.612-0.619,7.236-1.243,11.182-1.872
			c1.015-0.018,2.237-0.038,3.489-0.058c0.563,0.014,1.121,0.024,1.682,0.037c21.376,2.8,37.056,0.223,54.422,0.155
			c21.078,1.453,50.872,0.279,72.628-0.645c0.156-0.106,0.349-0.186,0.548-0.261c1.735-0.031,3.473-0.067,5.226-0.117
			c0.318-0.098,0.558-0.194,0.797-0.282c0.486,0,0.962-0.006,1.404-0.032c0.679,0.101,1.045,0.318,1.751,0.532
			c4.18,0.11,8.305,0.16,12.387,0.171c20.925,0.794,47.021,1.55,66.027,0.184c16.081,0.018,30.762,2.184,49.778,0.236
			c3.762-0.063,7.609-0.171,11.455-0.273c3.317,0.528,6.469,1.054,9.572,1.576c3.356,0.05,6.377,0.09,9.739,0.135
			c0.422,2.031,4.516,1.528,9.735,0.133c8.429-0.104,17.198-0.21,25.602-0.206c3.19,0.045,6.356,0.088,9.257,0.127
			c4.432,0.241,8.876,0.407,13.409,0.321c10.788,0.269,21.573,0.564,32.352,0.87c9.094-0.096,18.197-0.196,27.285-0.183
			c0.592,0.569,1.21,1.027,1.483,1.593c3.374-0.066,6.419-0.248,9.805-0.427c3.018,0.041,6.392,0.09,9.744,0.135
			c2.547,1.162,5.24,1.2,7.921,1.235c1.383-1.03,3.055-1.964,4.741-2.975c5.936,1.177,10.351,1.086,14.979,0.486
			c2.027-0.035,3.978-0.068,5.929-0.1c2.311,0.105,4.622,0.209,6.928,0.337c1.006,0.016,2.018,0.028,3.027,0.047
			c3.681,0.161,7.684,0.441,11.349,0.714c2.541-0.058,5.011-0.114,7.486-0.166c1.31,0.043,2.551,0.016,3.753-0.062
			c2.198-0.037,4.388-0.075,6.64-0.086c0.465,0.015,0.939,0.024,1.411,0.036c2.84,0.179,5.682,0.37,8.531,0.612
			c4.75,0.257,9.831,0.511,14.592,0.77c9.713-0.273,15.088,2.001,27.833,1.673c4.761,0.372,9.513,0.631,14.597,0.88
			c4.043,0.05,6.59-1.005,10.928-1.302c6.63,1.686,18.129,2.056,27.69,0.665c0.589,4.15,11.717,1.939,18.1,1.833
			c5.676,2.043,17.606,0.718,18.335,3.518c5.761,0.242,5.632-0.657,9.108-2.287c3.149,0.849,5.613,1.592,8.442,2.559
			c-0.835,1.251-2.304,2.737,0.376,2.694c1.569,1.548,4.009,2.181,7.161,3.026c5.218-1.21,6.247-3.476,13.617-6.072
			c1.149,0.993,2.314,2.098,3.466,3.09c0.837-3.613,15.209-1.942,15.597-3.968c-0.06-0.45-0.115-0.789-0.16-1.125
			c2.826-1.397,6.986-2.928,9.213-3.865c-0.16-1.121-0.321-2.241-0.47-3.252c1.684-0.025,3.361-0.056,5.044-0.085
			c-0.16-1.12-0.303-2.131-0.463-3.252C1183.117,174.476,1191.599,172.539,1181.811,170z M129.776,166.582
			c-4.812,0.017-9.583,0.126-14.17,0.263C120.391,166.367,125.101,166.364,129.776,166.582z M162.71,167.893
			c-1.299,0.225-2.841,0.32-4.699,0.231C159.57,168.096,161.137,168.01,162.71,167.893z M168.921,166.145
			c0.601-0.655,3.037-0.546,5.185-0.523c-0.055,0.009-0.11,0.018-0.164,0.026C171.883,165.515,170.34,165.77,168.921,166.145z
			 M177.44,164.572c1.122,0.036,2.144,0.023,3.17,0.011c-1.048,0.165-2.09,0.334-3.134,0.501
			C177.549,164.946,177.565,164.787,177.44,164.572z M1011.261,163.617c-0.121,0.215-0.102,0.374-0.027,0.511
			c-1.047-0.164-2.091-0.33-3.142-0.492C1009.118,163.646,1010.14,163.656,1011.261,163.617z M1019.808,165.166
			c-1.425-0.372-2.973-0.621-5.029-0.483c-0.055-0.009-0.11-0.017-0.164-0.026C1016.762,164.629,1019.195,164.513,1019.808,165.166z
			 M1030.754,167.114c-1.856,0.094-3.4,0.004-4.703-0.218C1027.626,167.008,1029.195,167.09,1030.754,167.114z M1073.135,165.715
			c-4.589-0.122-9.362-0.219-14.175-0.222C1063.631,165.261,1068.341,165.251,1073.135,165.715z M128.679,180.647
			c3.137,0.044,6.274,0.086,9.412,0.13c-4.368-0.059-6.723-0.091-9.41-0.128C128.68,180.649,128.68,180.648,128.679,180.647z
			 M1060.313,179.554c-0.001,0.001-0.001,0.002-0.002,0.002c-2.686,0.044-5.041,0.083-9.408,0.155
			C1054.04,179.658,1057.177,179.607,1060.313,179.554z"/>
		<path id="XMLID_63_" fill="#F1F1F1" d="M1229.183,189.876c7.331-2.93,10.739-7.375,0.458-8.667
			c-1.963-1.987-3.915-3.867-5.544-5.863c7.193-1.469,3.141-3.991,3.861-6.024c-2.109-0.64-4.572-1.385-6.687-2.024
			c6.235-1.119,6.352-2.695,5.778-4.371c-3.849-1.062-9.467-0.291-12.696,0.662c-1.437-0.648-2.561-1.419-3.658-2.078
			c-5.946,0.775-11.55,1.657-17.497,2.429c-1.678,0.026-3.021,0.051-4.701,0.08c-0.943-1.898-1.569-3.91-2.509-5.806
			c-0.412-0.557-1.166-1.107-1.915-1.657c-2.223-1.422-4.764-2.731-6.984-4.155c-2.081-0.417-4.475-0.71-6.542-1.017
			c-3.74-0.275-7.818-0.543-11.559-0.821c-1.82-0.982-8.461-0.304-12.839-0.345c-6.044,0.101-11.757,0.195-17.801,0.293
			c-6.106-0.348-11.868-0.587-17.958-0.826c-4.847-0.929-9.879-0.847-14.579-0.768c-5.442-0.362-10.859-0.606-16.28-0.856
			c-3.361,0.06-6.384,0.109-9.739,0.163c-2.718-0.18-5.421-0.248-8.138-0.425c-10.553-0.838-16.74-1.747-24.398-1.169
			c-9.746,0.161-19.15,0.317-28.882,0.48c-7.722,0.126-15.115,0.247-22.495,0.371c-2.73-0.178-5.441-0.357-8.148-0.423
			c-3.658-2.077-13.066-1.92-17.871-0.267c-0.752-0.55-1.155-0.992-1.897-1.543c-8.051,0.249-16.075,0.607-24.111,0.962
			c-6.021,0.217-11.699,0.534-17.726,0.746c-3.095-0.397-6.53-0.904-9.965-1.41c-3.023,0.052-6.381,0.106-9.331,0.716
			c-3.751-0.382-7.829-0.655-11.57-0.929c-3.504-0.954-8.445-0.196-12.846-0.349c-3.355,0.057-6.704,0.111-9.733,0.161
			c-13.374,0.676-26.747,1.232-40.141,1.794c-1.034-0.208-2.057-0.302-3.435-0.506c-5.329,0.426-10.644,0.85-15.966,1.39
			c-2.015,0.036-4.361,0.074-6.378,0.106c-8.176,1.71-11.52,1.879-14.294,1.248c-2.707-0.065-5.421-0.243-8.122-0.313
			c-6.938,0.902-2.372-2.436-8.382-2.109c-1.903,0.817-4.16,1.531-6.058,2.347c-5.037,0.088-13.751,2.706-14.857-0.313
			c-3.924,0.851-11.648,0.983-16.123,0.27c-5.95,0.773-7.016,0.339-14.591-0.884c-0.615,2.822-2.644,2.743-7.985,0.693
			c-9.38,1.581-19.794,1.624-28.608,1.375c-3.13-0.166-5.914-0.567-7.713-1.695c-2.622-0.488-14.55-2.005-11.203,0.857
			c-3.049,0.203-5.843,0.308-8.521,0.354c-0.145,0.003-0.297,0.005-0.441,0.008c-8.164,0.123-15.268-0.303-25.038-0.269
			c-0.078,0.084-0.225,0.134-0.329,0.205c-0.172-0.01-0.327-0.014-0.501-0.025c3.295-2.871-8.605-1.321-11.219-0.825
			c-0.767,0.488-1.734,0.832-2.818,1.092c-9.636,0.404-22.285,0.736-33.502-1.117c-5.303,2.064-7.331,2.15-7.997-0.67
			c-7.553,1.244-8.611,1.681-14.574,0.925c-4.462,0.725-12.188,0.615-16.127-0.224c-1.051,3.021-9.812,0.428-14.851,0.354
			c-1.912-0.81-4.182-1.518-6.1-2.33c-6.015-0.309-1.389,3.015-8.343,2.133c-2.699,0.077-5.411,0.263-8.116,0.336
			c-2.763,0.639-6.109,0.48-14.316-1.207c-2.018-0.026-4.364-0.058-6.38-0.088c-5.331-0.524-10.653-0.933-15.99-1.345
			c-1.374,0.208-2.395,0.305-3.425,0.516c-13.404-0.524-26.787-1.043-40.173-1.681c-3.031-0.042-6.38-0.087-9.736-0.134
			c-4.398,0.166-9.352-0.578-12.839,0.386c-3.735,0.285-7.808,0.569-11.552,0.962c-2.961-0.601-6.32-0.646-9.344-0.689
			c-3.425,0.516-6.851,1.032-9.939,1.438c-6.03-0.195-11.714-0.496-17.738-0.696c-8.043-0.333-16.073-0.668-24.128-0.894
			c-0.732,0.553-1.127,0.996-1.869,1.549c-4.836-1.639-14.246-1.77-17.866,0.318c-2.705,0.073-5.413,0.26-8.14,0.446
			c-7.383-0.104-14.778-0.203-22.501-0.308c-9.735-0.135-19.142-0.265-28.89-0.398c-7.668-0.557-13.839,0.37-24.376,1.238
			c-2.714,0.185-5.416,0.26-8.13,0.448c-3.356-0.045-6.38-0.085-9.742-0.135c-5.416,0.265-10.829,0.524-16.264,0.902
			c-4.702-0.066-9.735-0.133-14.565,0.81c-6.085,0.256-11.842,0.512-17.942,0.876c-6.046-0.081-11.76-0.159-17.806-0.243
			c-4.377,0.053-11.03-0.606-12.833,0.381c-3.735,0.289-7.808,0.569-11.544,0.854c-2.061,0.313-4.449,0.613-6.523,1.036
			c-2.194,1.43-4.711,2.746-6.908,4.175c-0.739,0.552-1.483,1.105-1.885,1.662c-0.906,1.898-1.495,3.911-2.404,5.812
			c-1.681-0.024-3.024-0.045-4.702-0.066c-5.96-0.756-11.58-1.621-17.54-2.379c-1.085,0.662-2.195,1.436-3.62,2.088
			c-3.246-0.944-8.878-1.699-12.708-0.626c-0.544,1.678-0.398,3.253,5.857,4.354c-2.103,0.645-4.553,1.397-6.65,2.043
			c0.757,2.031-3.25,4.565,3.97,6.013c-1.593,2.001-3.511,3.886-5.438,5.879c-10.258,1.321-6.769,5.757,0.614,8.665
			c-9.742,2.567-1.225,4.48,2.161,7.003c-0.139,1.121-0.264,2.133-0.404,3.253c1.684,0.024,3.361,0.05,5.046,0.071
			c-0.13,1.011-0.271,2.132-0.411,3.253c2.243,0.93,6.431,2.449,9.282,3.839c-0.039,0.336-0.088,0.674-0.139,1.125
			c0.425,2.025,14.766,0.313,15.668,3.923c1.134-0.996,2.28-2.104,3.41-3.1c7.416,2.575,8.486,4.838,13.726,6.033
			c3.137-0.854,5.565-1.494,7.106-3.046c2.681,0.036,1.185-1.447,0.328-2.695c2.812-0.975,5.262-1.725,8.396-2.582
			c3.505,1.621,3.392,2.519,9.149,2.262c0.678-2.802,12.632-1.511,18.27-3.57c6.385,0.088,17.553,2.267,18.066-1.884
			c9.586,1.365,21.079,0.962,27.678-0.743c4.343,0.284,6.909,1.332,10.951,1.271c5.079-0.265,9.827-0.536,14.58-0.922
			c12.75,0.292,18.085-1.996,27.802-1.751c4.756-0.272,9.833-0.54,14.577-0.811c0.832-0.073,1.662-0.127,2.494-0.193
			c2.273,0.098,4.929,0.051,7.441-0.035c6.064,0.012,11.811,0.141,17.884,0.263c3.66-0.284,7.658-0.575,11.336-0.746
			c1.009-0.021,2.02-0.037,3.026-0.055c4.393-0.257,8.798-0.449,13.196-0.682c4.183,0.507,8.208,0.598,13.366-0.319
			c0.294-0.005,0.606-0.01,0.897-0.015c1.828,1.092,3.655,2.074,5.158,3.174c2.68-0.043,5.373-0.088,7.899-1.257
			c3.352-0.054,6.725-0.112,9.742-0.162c3.389,0.17,6.438,0.343,9.813,0.399c0.264-0.567,0.872-1.027,1.455-1.597
			c9.088-0.039,18.192,0.035,27.288,0.106c15.074-0.472,30.157-0.951,45.253-1.313c3.024-0.049,6.378-0.104,9.739-0.161
			c8.404-0.028,17.175,0.054,25.605,0.134c5.244,1.38,9.347,1.872,9.732-0.161c3.361-0.054,6.381-0.103,9.736-0.162
			c3.612-0.619,7.236-1.243,11.182-1.872c1.015-0.018,2.237-0.038,3.489-0.058c0.564,0.014,1.121,0.024,1.682,0.037
			c21.376,2.8,37.056,0.223,54.422,0.155c21.078,1.453,50.872,0.279,72.628-0.645c0.156-0.106,0.349-0.186,0.548-0.261
			c1.735-0.031,3.473-0.067,5.226-0.117c0.318-0.098,0.558-0.194,0.797-0.282c0.486,0,0.962-0.006,1.404-0.032
			c0.679,0.101,1.045,0.318,1.751,0.532c4.18,0.11,8.305,0.16,12.387,0.171c20.925,0.794,47.021,1.55,66.027,0.184
			c16.081,0.018,30.762,2.184,49.778,0.236c3.762-0.063,7.609-0.171,11.455-0.273c3.317,0.528,6.469,1.054,9.572,1.576
			c3.356,0.05,6.376,0.09,9.739,0.135c0.422,2.031,4.516,1.528,9.735,0.133c8.429-0.104,17.198-0.21,25.602-0.206
			c3.19,0.045,6.356,0.088,9.257,0.127c4.432,0.241,8.876,0.407,13.409,0.321c10.788,0.269,21.573,0.564,32.352,0.87
			c9.094-0.096,18.197-0.196,27.285-0.183c0.592,0.569,1.21,1.027,1.483,1.593c3.374-0.066,6.419-0.248,9.805-0.427
			c3.018,0.041,6.392,0.09,9.744,0.135c2.547,1.162,5.24,1.2,7.921,1.235c1.383-1.03,3.055-1.964,4.741-2.975
			c5.936,1.177,10.351,1.086,14.979,0.486c2.027-0.035,3.978-0.068,5.929-0.1c2.311,0.105,4.622,0.209,6.928,0.337
			c1.006,0.016,2.018,0.028,3.027,0.047c3.681,0.161,7.684,0.441,11.349,0.714c2.541-0.058,5.011-0.114,7.486-0.166
			c1.31,0.043,2.551,0.016,3.753-0.062c2.198-0.037,4.388-0.075,6.64-0.086c0.465,0.015,0.939,0.024,1.411,0.036
			c2.84,0.179,5.682,0.37,8.531,0.612c4.75,0.257,9.831,0.511,14.592,0.77c9.713-0.273,15.088,2.001,27.833,1.673
			c4.761,0.372,9.513,0.631,14.597,0.88c4.043,0.05,6.59-1.005,10.928-1.302c6.63,1.686,18.129,2.056,27.69,0.665
			c0.589,4.15,11.717,1.939,18.1,1.833c5.675,2.043,17.606,0.718,18.335,3.518c5.761,0.242,5.632-0.657,9.108-2.287
			c3.149,0.849,5.613,1.592,8.442,2.559c-0.835,1.251-2.304,2.737,0.377,2.694c1.569,1.548,4.009,2.181,7.161,3.026
			c5.218-1.21,6.247-3.476,13.617-6.072c1.149,0.993,2.314,2.098,3.466,3.09c0.837-3.613,15.209-1.942,15.597-3.968
			c-0.06-0.45-0.115-0.789-0.16-1.125c2.826-1.397,6.986-2.928,9.213-3.865c-0.16-1.121-0.321-2.241-0.47-3.252
			c1.684-0.025,3.361-0.056,5.044-0.085c-0.16-1.12-0.303-2.131-0.463-3.252C1230.49,194.353,1238.972,192.416,1229.183,189.876z
			 M177.149,186.459c-4.812,0.017-9.583,0.126-14.17,0.263C167.764,186.243,172.474,186.24,177.149,186.459z M210.082,187.769
			c-1.299,0.225-2.841,0.32-4.699,0.231C206.942,187.972,208.51,187.886,210.082,187.769z M216.294,186.021
			c0.601-0.655,3.037-0.546,5.185-0.523c-0.055,0.009-0.11,0.018-0.164,0.026C219.256,185.391,217.713,185.646,216.294,186.021z
			 M224.813,184.448c1.122,0.036,2.144,0.023,3.17,0.011c-1.048,0.165-2.09,0.334-3.134,0.501
			C224.922,184.822,224.938,184.663,224.813,184.448z M1058.634,183.493c-0.121,0.215-0.103,0.374-0.027,0.511
			c-1.047-0.164-2.091-0.33-3.142-0.491C1056.49,183.522,1057.513,183.533,1058.634,183.493z M1067.181,185.043
			c-1.425-0.372-2.973-0.621-5.029-0.483c-0.055-0.009-0.109-0.017-0.164-0.026C1064.135,184.505,1066.568,184.389,1067.181,185.043
			z M1078.127,186.99c-1.856,0.094-3.4,0.004-4.703-0.218C1074.999,186.885,1076.568,186.966,1078.127,186.99z M1120.507,185.591
			c-4.589-0.122-9.362-0.219-14.175-0.222C1111.004,185.138,1115.714,185.127,1120.507,185.591z M176.051,200.523
			c3.137,0.044,6.274,0.086,9.412,0.13c-4.368-0.059-6.723-0.091-9.41-0.128C176.053,200.525,176.052,200.524,176.051,200.523z
			 M1107.685,199.43c-0.001,0.001-0.001,0.002-0.002,0.002c-2.686,0.044-5.041,0.083-9.408,0.155
			C1101.413,199.534,1104.55,199.483,1107.685,199.43z"/>
		<path id="XMLID_51_" fill="#F1F1F1" d="M29.72,204.897c-7.331,2.93-10.739,7.375-0.457,8.667c1.963,1.987,3.915,3.867,5.544,5.863
			c-7.193,1.469-3.141,3.991-3.861,6.024c2.109,0.64,4.572,1.385,6.687,2.024c-6.235,1.119-6.352,2.695-5.778,4.371
			c3.849,1.062,9.467,0.291,12.696-0.662c1.437,0.648,2.561,1.419,3.658,2.078c5.946-0.775,11.55-1.657,17.497-2.429
			c1.678-0.026,3.021-0.051,4.701-0.08c0.943,1.898,1.569,3.91,2.509,5.806c0.412,0.556,1.166,1.107,1.915,1.657
			c2.223,1.422,4.764,2.731,6.984,4.155c2.081,0.417,4.475,0.71,6.542,1.017c3.741,0.275,7.818,0.543,11.559,0.821
			c1.82,0.982,8.462,0.304,12.839,0.345c6.044-0.101,11.757-0.195,17.801-0.293c6.106,0.348,11.868,0.587,17.958,0.826
			c4.847,0.929,9.879,0.847,14.579,0.768c5.442,0.362,10.859,0.606,16.28,0.856c3.361-0.06,6.384-0.109,9.739-0.163
			c2.718,0.18,5.421,0.248,8.138,0.425c10.553,0.838,16.74,1.747,24.398,1.169c9.746-0.161,19.15-0.317,28.882-0.48
			c7.722-0.126,15.115-0.247,22.495-0.371c2.73,0.178,5.441,0.357,8.148,0.423c3.658,2.077,13.066,1.92,17.871,0.267
			c0.752,0.55,1.155,0.992,1.897,1.543c8.051-0.249,16.075-0.607,24.111-0.962c6.021-0.217,11.699-0.534,17.726-0.746
			c3.095,0.397,6.53,0.904,9.965,1.41c3.023-0.052,6.381-0.106,9.331-0.716c3.751,0.382,7.829,0.655,11.57,0.929
			c3.504,0.954,8.445,0.197,12.846,0.349c3.355-0.057,6.704-0.111,9.733-0.161c13.374-0.676,26.747-1.232,40.141-1.794
			c1.034,0.208,2.057,0.302,3.435,0.506c5.329-0.426,10.644-0.85,15.966-1.39c2.015-0.036,4.361-0.074,6.378-0.106
			c8.176-1.71,11.52-1.879,14.294-1.248c2.707,0.065,5.421,0.243,8.122,0.313c6.938-0.902,2.372,2.436,8.382,2.109
			c1.903-0.817,4.16-1.531,6.058-2.347c5.037-0.088,13.751-2.706,14.857,0.313c3.924-0.851,11.648-0.983,16.123-0.27
			c5.95-0.773,7.016-0.339,14.591,0.884c0.615-2.822,2.644-2.743,7.985-0.693c9.38-1.581,19.794-1.624,28.608-1.375
			c3.13,0.166,5.914,0.567,7.713,1.695c2.622,0.488,14.55,2.005,11.203-0.857c3.049-0.203,5.843-0.308,8.521-0.354
			c0.145-0.003,0.297-0.005,0.441-0.008c8.164-0.123,15.268,0.303,25.038,0.269c0.078-0.084,0.225-0.134,0.329-0.205
			c0.172,0.01,0.327,0.014,0.501,0.025c-3.295,2.871,8.605,1.321,11.219,0.825c0.767-0.488,1.734-0.832,2.818-1.092
			c9.636-0.404,22.285-0.736,33.502,1.117c5.303-2.064,7.331-2.15,7.997,0.67c7.553-1.244,8.611-1.681,14.574-0.925
			c4.462-0.725,12.188-0.615,16.127,0.224c1.052-3.021,9.812-0.428,14.851-0.354c1.912,0.81,4.182,1.518,6.1,2.33
			c6.015,0.309,1.389-3.015,8.343-2.133c2.699-0.077,5.411-0.263,8.116-0.336c2.763-0.639,6.109-0.48,14.316,1.207
			c2.018,0.026,4.364,0.058,6.38,0.088c5.331,0.524,10.653,0.933,15.99,1.345c1.374-0.208,2.395-0.305,3.425-0.516
			c13.404,0.524,26.787,1.043,40.173,1.681c3.031,0.042,6.38,0.087,9.736,0.134c4.398-0.166,9.352,0.578,12.839-0.386
			c3.735-0.285,7.808-0.569,11.552-0.962c2.961,0.601,6.32,0.646,9.344,0.689c3.425-0.516,6.851-1.032,9.939-1.438
			c6.03,0.195,11.714,0.496,17.738,0.696c8.043,0.333,16.073,0.668,24.128,0.894c0.732-0.553,1.127-0.996,1.869-1.549
			c4.836,1.639,14.246,1.77,17.866-0.318c2.705-0.073,5.413-0.26,8.14-0.446c7.383,0.104,14.778,0.203,22.502,0.308
			c9.735,0.135,19.142,0.265,28.89,0.398c7.668,0.556,13.839-0.37,24.376-1.238c2.714-0.185,5.416-0.26,8.13-0.448
			c3.356,0.045,6.38,0.085,9.742,0.135c5.416-0.265,10.829-0.524,16.264-0.902c4.702,0.066,9.735,0.133,14.565-0.81
			c6.085-0.256,11.842-0.512,17.942-0.876c6.046,0.081,11.76,0.159,17.806,0.243c4.377-0.053,11.03,0.606,12.833-0.381
			c3.735-0.289,7.808-0.569,11.544-0.854c2.061-0.313,4.449-0.613,6.523-1.036c2.194-1.43,4.711-2.746,6.908-4.175
			c0.739-0.552,1.483-1.105,1.885-1.662c0.906-1.898,1.495-3.911,2.404-5.812c1.681,0.024,3.024,0.045,4.702,0.066
			c5.96,0.756,11.58,1.621,17.541,2.379c1.085-0.662,2.195-1.436,3.62-2.088c3.246,0.944,8.878,1.699,12.708,0.626
			c0.544-1.678,0.398-3.253-5.857-4.354c2.103-0.645,4.553-1.397,6.65-2.043c-0.757-2.031,3.25-4.565-3.97-6.013
			c1.593-2.001,3.511-3.886,5.438-5.879c10.258-1.321,6.769-5.757-0.614-8.665c9.742-2.567,1.225-4.48-2.161-7.003
			c0.139-1.121,0.264-2.133,0.404-3.253c-1.684-0.024-3.361-0.05-5.046-0.071c0.13-1.011,0.271-2.132,0.411-3.253
			c-2.243-0.93-6.431-2.449-9.282-3.839c0.039-0.336,0.088-0.674,0.139-1.125c-0.425-2.025-14.766-0.313-15.668-3.923
			c-1.134,0.996-2.28,2.104-3.41,3.1c-7.416-2.575-8.486-4.838-13.726-6.033c-3.137,0.854-5.565,1.494-7.106,3.046
			c-2.681-0.036-1.186,1.447-0.328,2.695c-2.812,0.975-5.262,1.725-8.396,2.582c-3.505-1.621-3.392-2.519-9.149-2.262
			c-0.678,2.802-12.632,1.511-18.27,3.57c-6.385-0.088-17.553-2.267-18.066,1.884c-9.586-1.365-21.079-0.962-27.678,0.743
			c-4.343-0.284-6.909-1.332-10.951-1.271c-5.079,0.265-9.827,0.536-14.58,0.922c-12.75-0.292-18.085,1.996-27.802,1.751
			c-4.756,0.272-9.833,0.54-14.577,0.811c-0.832,0.073-1.662,0.127-2.494,0.193c-2.273-0.099-4.929-0.051-7.441,0.035
			c-6.064-0.012-11.811-0.141-17.884-0.263c-3.66,0.284-7.658,0.575-11.336,0.746c-1.009,0.021-2.02,0.037-3.026,0.055
			c-4.393,0.257-8.798,0.449-13.196,0.682c-4.183-0.507-8.208-0.598-13.366,0.319c-0.294,0.005-0.606,0.01-0.897,0.015
			c-1.828-1.092-3.655-2.074-5.158-3.174c-2.68,0.043-5.372,0.088-7.899,1.257c-3.352,0.054-6.725,0.112-9.742,0.162
			c-3.389-0.17-6.438-0.343-9.813-0.399c-0.264,0.567-0.872,1.027-1.455,1.597c-9.088,0.039-18.192-0.035-27.288-0.106
			c-15.074,0.472-30.157,0.951-45.253,1.313c-3.024,0.049-6.378,0.104-9.739,0.161c-8.404,0.028-17.175-0.054-25.605-0.134
			c-5.244-1.38-9.347-1.872-9.732,0.161c-3.361,0.054-6.381,0.103-9.736,0.162c-3.612,0.619-7.236,1.243-11.182,1.872
			c-1.015,0.018-2.237,0.038-3.489,0.058c-0.563-0.014-1.121-0.024-1.682-0.037c-21.376-2.8-37.056-0.223-54.422-0.155
			c-21.078-1.453-50.872-0.279-72.628,0.645c-0.156,0.106-0.349,0.186-0.548,0.261c-1.735,0.031-3.473,0.067-5.226,0.117
			c-0.318,0.098-0.558,0.194-0.797,0.282c-0.486,0-0.962,0.006-1.404,0.032c-0.679-0.101-1.045-0.318-1.751-0.532
			c-4.18-0.11-8.305-0.16-12.387-0.171c-20.925-0.794-47.021-1.55-66.027-0.184c-16.081-0.018-30.762-2.184-49.778-0.236
			c-3.762,0.063-7.609,0.171-11.455,0.273c-3.317-0.528-6.469-1.054-9.572-1.576c-3.356-0.05-6.376-0.09-9.739-0.135
			c-0.422-2.031-4.516-1.528-9.735-0.133c-8.429,0.104-17.198,0.21-25.602,0.206c-3.19-0.045-6.356-0.088-9.257-0.127
			c-4.432-0.241-8.876-0.407-13.409-0.321c-10.788-0.269-21.573-0.564-32.352-0.87c-9.094,0.096-18.197,0.196-27.285,0.183
			c-0.592-0.569-1.21-1.027-1.483-1.593c-3.374,0.066-6.419,0.248-9.805,0.427c-3.018-0.041-6.392-0.09-9.744-0.135
			c-2.547-1.162-5.24-1.2-7.921-1.235c-1.383,1.03-3.055,1.964-4.741,2.975c-5.936-1.177-10.351-1.086-14.979-0.486
			c-2.027,0.035-3.978,0.068-5.929,0.1c-2.311-0.105-4.622-0.209-6.928-0.337c-1.006-0.016-2.018-0.028-3.027-0.047
			c-3.681-0.161-7.684-0.441-11.349-0.714c-2.541,0.058-5.011,0.114-7.485,0.166c-1.31-0.043-2.551-0.016-3.753,0.062
			c-2.198,0.037-4.388,0.075-6.64,0.086c-0.465-0.015-0.939-0.024-1.411-0.036c-2.84-0.179-5.682-0.37-8.531-0.612
			c-4.75-0.257-9.831-0.511-14.592-0.77c-9.713,0.273-15.088-2.001-27.833-1.673c-4.761-0.372-9.513-0.631-14.597-0.88
			c-4.043-0.05-6.59,1.005-10.928,1.302c-6.63-1.686-18.129-2.056-27.69-0.665c-0.589-4.15-11.717-1.939-18.1-1.833
			c-5.675-2.043-17.606-0.718-18.335-3.518c-5.761-0.242-5.632,0.657-9.108,2.287c-3.149-0.849-5.613-1.592-8.442-2.559
			c0.835-1.251,2.304-2.737-0.377-2.694c-1.569-1.548-4.009-2.181-7.161-3.026c-5.218,1.21-6.247,3.476-13.617,6.072
			c-1.149-0.993-2.314-2.098-3.466-3.09c-0.837,3.613-15.209,1.942-15.597,3.968c0.06,0.45,0.115,0.789,0.16,1.125
			c-2.826,1.397-6.986,2.928-9.213,3.865c0.16,1.121,0.321,2.241,0.47,3.252c-1.684,0.025-3.361,0.056-5.044,0.085
			c0.16,1.12,0.303,2.131,0.463,3.252C28.414,200.42,19.932,202.357,29.72,204.897z M1081.755,208.314
			c4.812-0.017,9.583-0.126,14.17-0.263C1091.14,208.53,1086.43,208.533,1081.755,208.314z M1048.821,207.004
			c1.299-0.225,2.841-0.32,4.699-0.231C1051.961,206.801,1050.394,206.887,1048.821,207.004z M1042.61,208.752
			c-0.601,0.655-3.037,0.546-5.185,0.523c0.055-0.009,0.11-0.018,0.164-0.026C1039.648,209.382,1041.191,209.127,1042.61,208.752z
			 M1034.091,210.325c-1.122-0.036-2.145-0.023-3.17-0.011c1.048-0.165,2.09-0.334,3.134-0.501
			C1033.982,209.951,1033.966,210.11,1034.091,210.325z M200.27,211.28c0.121-0.215,0.102-0.374,0.027-0.511
			c1.047,0.164,2.091,0.33,3.142,0.492C202.413,211.251,201.391,211.24,200.27,211.28z M191.723,209.73
			c1.425,0.372,2.973,0.621,5.029,0.483c0.055,0.009,0.11,0.017,0.164,0.026C194.769,210.268,192.336,210.384,191.723,209.73z
			 M180.777,207.783c1.856-0.094,3.4-0.004,4.703,0.218C183.905,207.888,182.336,207.807,180.777,207.783z M138.396,209.182
			c4.589,0.122,9.362,0.219,14.175,0.222C147.9,209.635,143.19,209.646,138.396,209.182z M1082.853,194.25
			c-3.137-0.044-6.274-0.086-9.412-0.13c4.368,0.059,6.723,0.091,9.41,0.128C1082.85,194.248,1082.852,194.249,1082.853,194.25z
			 M151.219,195.343c0.001-0.001,0.001-0.002,0.002-0.002c2.686-0.044,5.041-0.083,9.408-0.155
			C157.491,195.239,154.354,195.29,151.219,195.343z"/>
		<path id="XMLID_39_" fill="#F1F1F1" d="M1229.183,245.93c7.331-2.93,10.739-7.375,0.458-8.667
			c-1.963-1.987-3.915-3.867-5.544-5.863c7.193-1.469,3.141-3.991,3.861-6.024c-2.109-0.64-4.572-1.385-6.687-2.024
			c6.235-1.119,6.352-2.695,5.778-4.371c-3.849-1.062-9.467-0.291-12.696,0.662c-1.437-0.648-2.561-1.419-3.658-2.078
			c-5.946,0.775-11.55,1.657-17.497,2.429c-1.678,0.026-3.021,0.051-4.701,0.08c-0.943-1.898-1.569-3.91-2.509-5.806
			c-0.412-0.556-1.166-1.107-1.915-1.657c-2.223-1.422-4.764-2.731-6.984-4.155c-2.081-0.417-4.475-0.71-6.542-1.017
			c-3.74-0.275-7.818-0.543-11.559-0.821c-1.82-0.982-8.461-0.304-12.839-0.345c-6.044,0.101-11.757,0.195-17.801,0.293
			c-6.106-0.348-11.868-0.587-17.958-0.826c-4.847-0.929-9.879-0.847-14.579-0.768c-5.442-0.362-10.859-0.606-16.28-0.856
			c-3.361,0.06-6.384,0.109-9.739,0.163c-2.718-0.18-5.421-0.248-8.138-0.425c-10.553-0.838-16.74-1.747-24.398-1.169
			c-9.746,0.161-19.15,0.317-28.882,0.48c-7.722,0.126-15.115,0.247-22.495,0.371c-2.73-0.178-5.441-0.357-8.148-0.423
			c-3.658-2.077-13.066-1.92-17.871-0.267c-0.752-0.55-1.155-0.992-1.897-1.543c-8.051,0.249-16.075,0.607-24.111,0.962
			c-6.021,0.217-11.699,0.534-17.726,0.746c-3.095-0.397-6.53-0.904-9.965-1.41c-3.023,0.052-6.381,0.106-9.331,0.716
			c-3.751-0.382-7.829-0.655-11.57-0.929c-3.504-0.954-8.445-0.197-12.846-0.349c-3.355,0.057-6.704,0.111-9.733,0.161
			c-13.374,0.676-26.747,1.232-40.141,1.794c-1.034-0.208-2.057-0.302-3.435-0.506c-5.329,0.426-10.644,0.85-15.966,1.39
			c-2.015,0.036-4.361,0.074-6.378,0.106c-8.176,1.71-11.52,1.879-14.294,1.248c-2.707-0.065-5.421-0.243-8.122-0.313
			c-6.938,0.902-2.372-2.436-8.382-2.109c-1.903,0.817-4.16,1.531-6.058,2.347c-5.037,0.088-13.751,2.706-14.857-0.313
			c-3.924,0.851-11.648,0.983-16.123,0.27c-5.95,0.773-7.016,0.339-14.591-0.884c-0.615,2.822-2.644,2.743-7.985,0.693
			c-9.38,1.581-19.794,1.624-28.608,1.375c-3.13-0.166-5.914-0.567-7.713-1.695c-2.622-0.488-14.55-2.005-11.203,0.857
			c-3.049,0.203-5.843,0.308-8.521,0.354c-0.145,0.003-0.297,0.005-0.441,0.008c-8.164,0.123-15.268-0.303-25.038-0.269
			c-0.078,0.084-0.225,0.134-0.329,0.205c-0.172-0.01-0.327-0.014-0.501-0.025c3.295-2.871-8.605-1.321-11.219-0.825
			c-0.767,0.488-1.734,0.832-2.818,1.092c-9.636,0.404-22.285,0.736-33.502-1.117c-5.303,2.064-7.331,2.15-7.997-0.67
			c-7.553,1.244-8.611,1.681-14.574,0.925c-4.462,0.725-12.188,0.615-16.127-0.224c-1.051,3.021-9.812,0.428-14.851,0.354
			c-1.912-0.81-4.182-1.518-6.1-2.33c-6.015-0.309-1.389,3.015-8.343,2.133c-2.699,0.077-5.411,0.263-8.116,0.336
			c-2.763,0.639-6.109,0.48-14.316-1.207c-2.018-0.026-4.364-0.058-6.38-0.088c-5.331-0.524-10.653-0.933-15.99-1.345
			c-1.374,0.208-2.395,0.305-3.425,0.516c-13.404-0.524-26.787-1.043-40.173-1.681c-3.031-0.042-6.38-0.087-9.736-0.134
			c-4.398,0.166-9.352-0.578-12.839,0.386c-3.735,0.285-7.808,0.569-11.552,0.962c-2.961-0.601-6.32-0.646-9.344-0.689
			c-3.425,0.516-6.851,1.032-9.939,1.438c-6.03-0.195-11.714-0.496-17.738-0.696c-8.043-0.333-16.073-0.668-24.128-0.894
			c-0.732,0.553-1.127,0.996-1.869,1.549c-4.836-1.639-14.246-1.77-17.866,0.318c-2.705,0.073-5.413,0.26-8.14,0.446
			c-7.383-0.104-14.778-0.203-22.501-0.308c-9.735-0.135-19.142-0.265-28.89-0.398c-7.668-0.556-13.839,0.37-24.376,1.238
			c-2.714,0.185-5.416,0.26-8.13,0.448c-3.356-0.045-6.38-0.085-9.742-0.135c-5.416,0.265-10.829,0.524-16.264,0.902
			c-4.702-0.066-9.735-0.133-14.565,0.81c-6.085,0.256-11.842,0.512-17.942,0.876c-6.046-0.081-11.76-0.159-17.806-0.243
			c-4.377,0.053-11.03-0.606-12.833,0.381c-3.735,0.289-7.808,0.569-11.544,0.854c-2.061,0.313-4.449,0.613-6.523,1.036
			c-2.194,1.43-4.711,2.746-6.908,4.175c-0.739,0.552-1.483,1.105-1.885,1.662c-0.906,1.898-1.495,3.911-2.404,5.812
			c-1.681-0.024-3.024-0.045-4.702-0.066c-5.96-0.756-11.58-1.621-17.54-2.379c-1.085,0.662-2.195,1.436-3.62,2.088
			c-3.246-0.944-8.878-1.699-12.708-0.626c-0.544,1.678-0.398,3.253,5.857,4.354c-2.103,0.645-4.553,1.397-6.65,2.043
			c0.757,2.031-3.25,4.565,3.97,6.013c-1.593,2.001-3.511,3.886-5.438,5.879c-10.258,1.321-6.769,5.757,0.614,8.665
			c-9.742,2.567-1.225,4.48,2.161,7.003c-0.139,1.121-0.264,2.133-0.404,3.253c1.684,0.024,3.361,0.05,5.046,0.071
			c-0.13,1.011-0.271,2.132-0.411,3.253c2.243,0.93,6.431,2.449,9.282,3.839c-0.039,0.336-0.088,0.674-0.139,1.125
			c0.425,2.025,14.766,0.313,15.668,3.923c1.134-0.996,2.28-2.104,3.41-3.1c7.416,2.575,8.486,4.838,13.726,6.033
			c3.137-0.854,5.565-1.494,7.106-3.046c2.681,0.036,1.185-1.447,0.328-2.695c2.812-0.975,5.262-1.725,8.396-2.582
			c3.505,1.621,3.392,2.519,9.149,2.262c0.678-2.802,12.632-1.511,18.27-3.57c6.385,0.088,17.553,2.267,18.066-1.884
			c9.586,1.365,21.079,0.962,27.678-0.743c4.343,0.284,6.909,1.332,10.951,1.271c5.079-0.265,9.827-0.536,14.58-0.922
			c12.75,0.292,18.085-1.996,27.802-1.751c4.756-0.272,9.833-0.54,14.577-0.811c0.832-0.073,1.662-0.127,2.494-0.193
			c2.273,0.099,4.929,0.051,7.441-0.035c6.064,0.012,11.811,0.141,17.884,0.263c3.66-0.284,7.658-0.575,11.336-0.746
			c1.009-0.021,2.02-0.037,3.026-0.055c4.393-0.257,8.798-0.449,13.196-0.682c4.183,0.507,8.208,0.598,13.366-0.319
			c0.294-0.005,0.606-0.01,0.897-0.015c1.828,1.092,3.655,2.074,5.158,3.174c2.68-0.043,5.373-0.088,7.899-1.257
			c3.352-0.054,6.725-0.112,9.742-0.162c3.389,0.17,6.438,0.343,9.813,0.399c0.264-0.567,0.872-1.027,1.455-1.597
			c9.088-0.039,18.192,0.035,27.288,0.106c15.074-0.472,30.157-0.951,45.253-1.313c3.024-0.049,6.378-0.104,9.739-0.161
			c8.404-0.028,17.175,0.054,25.605,0.134c5.244,1.38,9.347,1.872,9.732-0.161c3.361-0.054,6.381-0.103,9.736-0.162
			c3.612-0.619,7.236-1.243,11.182-1.872c1.015-0.018,2.237-0.038,3.489-0.058c0.564,0.014,1.121,0.024,1.682,0.037
			c21.376,2.8,37.056,0.223,54.422,0.155c21.078,1.453,50.872,0.279,72.628-0.645c0.156-0.106,0.349-0.186,0.548-0.261
			c1.735-0.031,3.473-0.067,5.226-0.117c0.318-0.098,0.558-0.194,0.797-0.282c0.486,0,0.962-0.006,1.404-0.032
			c0.679,0.101,1.045,0.318,1.751,0.532c4.18,0.11,8.305,0.16,12.387,0.171c20.925,0.794,47.021,1.55,66.027,0.184
			c16.081,0.018,30.762,2.184,49.778,0.236c3.762-0.063,7.609-0.171,11.455-0.273c3.317,0.528,6.469,1.054,9.572,1.576
			c3.356,0.05,6.376,0.09,9.739,0.135c0.422,2.031,4.516,1.528,9.735,0.133c8.429-0.104,17.198-0.21,25.602-0.206
			c3.19,0.045,6.356,0.088,9.257,0.127c4.432,0.241,8.876,0.407,13.409,0.321c10.788,0.269,21.573,0.564,32.352,0.87
			c9.094-0.096,18.197-0.196,27.285-0.183c0.592,0.569,1.21,1.027,1.483,1.593c3.374-0.066,6.419-0.248,9.805-0.427
			c3.018,0.041,6.392,0.09,9.744,0.135c2.547,1.162,5.24,1.2,7.921,1.235c1.383-1.03,3.055-1.964,4.741-2.975
			c5.936,1.177,10.351,1.086,14.979,0.486c2.027-0.035,3.978-0.068,5.929-0.1c2.311,0.105,4.622,0.209,6.928,0.337
			c1.006,0.016,2.018,0.028,3.027,0.047c3.681,0.161,7.684,0.441,11.349,0.714c2.541-0.058,5.011-0.114,7.486-0.166
			c1.31,0.043,2.551,0.016,3.753-0.062c2.198-0.037,4.388-0.075,6.64-0.086c0.465,0.015,0.939,0.024,1.411,0.036
			c2.84,0.179,5.682,0.37,8.531,0.612c4.75,0.257,9.831,0.511,14.592,0.77c9.713-0.273,15.088,2.001,27.833,1.673
			c4.761,0.372,9.513,0.631,14.597,0.88c4.043,0.05,6.59-1.005,10.928-1.302c6.63,1.686,18.129,2.056,27.69,0.665
			c0.589,4.15,11.717,1.939,18.1,1.833c5.675,2.043,17.606,0.718,18.335,3.518c5.761,0.242,5.632-0.657,9.108-2.287
			c3.149,0.849,5.613,1.592,8.442,2.559c-0.835,1.251-2.304,2.737,0.377,2.694c1.569,1.548,4.009,2.181,7.161,3.026
			c5.218-1.21,6.247-3.476,13.617-6.072c1.149,0.993,2.314,2.098,3.466,3.09c0.837-3.613,15.209-1.942,15.597-3.968
			c-0.06-0.45-0.115-0.789-0.16-1.125c2.826-1.397,6.986-2.928,9.213-3.865c-0.16-1.121-0.321-2.241-0.47-3.252
			c1.684-0.025,3.361-0.056,5.044-0.085c-0.16-1.12-0.303-2.131-0.463-3.252C1230.49,250.406,1238.972,248.469,1229.183,245.93z
			 M177.149,242.512c-4.812,0.017-9.583,0.126-14.17,0.263C167.764,242.297,172.474,242.294,177.149,242.512z M210.082,243.823
			c-1.299,0.225-2.841,0.32-4.699,0.231C206.942,244.025,208.51,243.94,210.082,243.823z M216.294,242.075
			c0.601-0.655,3.037-0.546,5.185-0.523c-0.055,0.009-0.11,0.018-0.164,0.026C219.256,241.445,217.713,241.699,216.294,242.075z
			 M224.813,240.502c1.122,0.036,2.144,0.023,3.17,0.011c-1.048,0.165-2.09,0.334-3.134,0.501
			C224.922,240.876,224.938,240.716,224.813,240.502z M1058.634,239.547c-0.121,0.215-0.103,0.374-0.027,0.511
			c-1.047-0.164-2.091-0.33-3.142-0.492C1056.49,239.576,1057.513,239.586,1058.634,239.547z M1067.181,241.096
			c-1.425-0.372-2.973-0.621-5.029-0.483c-0.055-0.009-0.109-0.017-0.164-0.026C1064.135,240.558,1066.568,240.443,1067.181,241.096
			z M1078.127,243.044c-1.856,0.094-3.4,0.004-4.703-0.218C1074.999,242.938,1076.568,243.02,1078.127,243.044z M1120.507,241.645
			c-4.589-0.122-9.362-0.219-14.175-0.222C1111.004,241.191,1115.714,241.181,1120.507,241.645z M176.051,256.576
			c3.137,0.044,6.274,0.086,9.412,0.13c-4.368-0.059-6.723-0.091-9.41-0.128C176.053,256.578,176.052,256.577,176.051,256.576z
			 M1107.685,255.484c-0.001,0.001-0.001,0.002-0.002,0.002c-2.686,0.044-5.041,0.083-9.408,0.155
			C1101.413,255.588,1104.55,255.536,1107.685,255.484z"/>
		<path id="XMLID_27_" fill="#F1F1F1" d="M29.72,260.95c-7.331,2.93-10.739,7.375-0.457,8.667c1.963,1.987,3.915,3.867,5.544,5.863
			c-7.193,1.469-3.141,3.991-3.861,6.024c2.109,0.64,4.572,1.385,6.687,2.024c-6.235,1.119-6.352,2.695-5.778,4.371
			c3.849,1.062,9.467,0.291,12.696-0.662c1.437,0.648,2.561,1.419,3.658,2.078c5.946-0.775,11.55-1.657,17.497-2.429
			c1.678-0.026,3.021-0.051,4.701-0.08c0.943,1.898,1.569,3.91,2.509,5.806c0.412,0.556,1.166,1.107,1.915,1.657
			c2.223,1.422,4.764,2.731,6.984,4.155c2.081,0.417,4.475,0.71,6.542,1.017c3.741,0.275,7.818,0.543,11.559,0.821
			c1.82,0.982,8.462,0.304,12.839,0.345c6.044-0.101,11.757-0.195,17.801-0.293c6.106,0.348,11.868,0.587,17.958,0.826
			c4.847,0.929,9.879,0.847,14.579,0.768c5.442,0.362,10.859,0.606,16.28,0.856c3.361-0.06,6.384-0.109,9.739-0.163
			c2.718,0.18,5.421,0.248,8.138,0.425c10.553,0.838,16.74,1.747,24.398,1.169c9.746-0.161,19.15-0.317,28.882-0.48
			c7.722-0.126,15.115-0.247,22.495-0.371c2.73,0.178,5.441,0.357,8.148,0.423c3.658,2.077,13.066,1.92,17.871,0.267
			c0.752,0.55,1.155,0.992,1.897,1.543c8.051-0.249,16.075-0.607,24.111-0.962c6.021-0.217,11.699-0.534,17.726-0.746
			c3.095,0.397,6.53,0.904,9.965,1.41c3.023-0.052,6.381-0.106,9.331-0.716c3.751,0.382,7.829,0.655,11.57,0.929
			c3.504,0.954,8.445,0.197,12.846,0.349c3.355-0.057,6.704-0.111,9.733-0.161c13.374-0.676,26.747-1.232,40.141-1.794
			c1.034,0.208,2.057,0.302,3.435,0.506c5.329-0.426,10.644-0.85,15.966-1.39c2.015-0.036,4.361-0.074,6.378-0.106
			c8.176-1.71,11.52-1.879,14.294-1.248c2.707,0.065,5.421,0.243,8.122,0.313c6.938-0.902,2.372,2.436,8.382,2.109
			c1.903-0.817,4.16-1.531,6.058-2.347c5.037-0.088,13.751-2.706,14.857,0.313c3.924-0.851,11.648-0.983,16.123-0.27
			c5.95-0.773,7.016-0.339,14.591,0.884c0.615-2.822,2.644-2.743,7.985-0.693c9.38-1.581,19.794-1.624,28.608-1.375
			c3.13,0.166,5.914,0.567,7.713,1.695c2.622,0.488,14.55,2.005,11.203-0.857c3.049-0.203,5.843-0.308,8.521-0.354
			c0.145-0.003,0.297-0.005,0.441-0.008c8.164-0.123,15.268,0.303,25.038,0.269c0.078-0.084,0.225-0.134,0.329-0.205
			c0.172,0.01,0.327,0.014,0.501,0.025c-3.295,2.871,8.605,1.321,11.219,0.825c0.767-0.488,1.734-0.832,2.818-1.092
			c9.636-0.404,22.285-0.736,33.502,1.117c5.303-2.065,7.331-2.15,7.997,0.67c7.553-1.244,8.611-1.681,14.574-0.925
			c4.462-0.725,12.188-0.615,16.127,0.224c1.052-3.021,9.812-0.428,14.851-0.354c1.912,0.81,4.182,1.518,6.1,2.33
			c6.015,0.309,1.389-3.015,8.343-2.133c2.699-0.077,5.411-0.263,8.116-0.336c2.763-0.639,6.109-0.48,14.316,1.207
			c2.018,0.026,4.364,0.058,6.38,0.088c5.331,0.524,10.653,0.933,15.99,1.345c1.374-0.208,2.395-0.305,3.425-0.516
			c13.404,0.524,26.787,1.043,40.173,1.681c3.031,0.042,6.38,0.087,9.736,0.134c4.398-0.166,9.352,0.578,12.839-0.386
			c3.735-0.285,7.808-0.569,11.552-0.962c2.961,0.601,6.32,0.646,9.344,0.689c3.425-0.516,6.851-1.032,9.939-1.438
			c6.03,0.195,11.714,0.496,17.738,0.696c8.043,0.333,16.073,0.668,24.128,0.894c0.732-0.553,1.127-0.996,1.869-1.549
			c4.836,1.639,14.246,1.77,17.866-0.318c2.705-0.073,5.413-0.26,8.14-0.446c7.383,0.104,14.778,0.203,22.502,0.308
			c9.735,0.135,19.142,0.265,28.89,0.398c7.668,0.556,13.839-0.37,24.376-1.238c2.714-0.185,5.416-0.26,8.13-0.448
			c3.356,0.045,6.38,0.085,9.742,0.135c5.416-0.265,10.829-0.524,16.264-0.902c4.702,0.066,9.735,0.133,14.565-0.81
			c6.085-0.256,11.842-0.512,17.942-0.876c6.046,0.081,11.76,0.159,17.806,0.243c4.377-0.053,11.03,0.606,12.833-0.381
			c3.735-0.289,7.808-0.569,11.544-0.854c2.061-0.313,4.449-0.613,6.523-1.036c2.194-1.43,4.711-2.746,6.908-4.175
			c0.739-0.552,1.483-1.105,1.885-1.662c0.906-1.898,1.495-3.911,2.404-5.812c1.681,0.024,3.024,0.045,4.702,0.066
			c5.96,0.756,11.58,1.621,17.541,2.379c1.085-0.662,2.195-1.436,3.62-2.088c3.246,0.944,8.878,1.699,12.708,0.626
			c0.544-1.678,0.398-3.253-5.857-4.354c2.103-0.645,4.553-1.397,6.65-2.043c-0.757-2.031,3.25-4.565-3.97-6.013
			c1.593-2.001,3.511-3.886,5.438-5.879c10.258-1.321,6.769-5.757-0.614-8.665c9.742-2.567,1.225-4.48-2.161-7.003
			c0.139-1.121,0.264-2.133,0.404-3.253c-1.684-0.024-3.361-0.05-5.046-0.071c0.13-1.011,0.271-2.132,0.411-3.253
			c-2.243-0.93-6.431-2.449-9.282-3.839c0.039-0.336,0.088-0.674,0.139-1.125c-0.425-2.025-14.766-0.313-15.668-3.923
			c-1.134,0.996-2.28,2.104-3.41,3.1c-7.416-2.575-8.486-4.838-13.726-6.033c-3.137,0.854-5.565,1.494-7.106,3.046
			c-2.681-0.036-1.186,1.447-0.328,2.695c-2.812,0.975-5.262,1.725-8.396,2.582c-3.505-1.621-3.392-2.519-9.149-2.262
			c-0.678,2.802-12.632,1.511-18.27,3.57c-6.385-0.088-17.553-2.267-18.066,1.884c-9.586-1.365-21.079-0.962-27.678,0.743
			c-4.343-0.284-6.909-1.332-10.951-1.271c-5.079,0.265-9.827,0.536-14.58,0.922c-12.75-0.292-18.085,1.996-27.802,1.751
			c-4.756,0.272-9.833,0.54-14.577,0.811c-0.832,0.073-1.662,0.127-2.494,0.193c-2.273-0.099-4.929-0.051-7.441,0.035
			c-6.064-0.012-11.811-0.141-17.884-0.263c-3.66,0.284-7.658,0.575-11.336,0.746c-1.009,0.021-2.02,0.037-3.026,0.055
			c-4.393,0.257-8.798,0.449-13.196,0.682c-4.183-0.507-8.208-0.598-13.366,0.319c-0.294,0.005-0.606,0.01-0.897,0.015
			c-1.828-1.092-3.655-2.074-5.158-3.174c-2.68,0.043-5.372,0.088-7.899,1.257c-3.352,0.054-6.725,0.112-9.742,0.162
			c-3.389-0.17-6.438-0.343-9.813-0.399c-0.264,0.567-0.872,1.027-1.455,1.597c-9.088,0.039-18.192-0.035-27.288-0.106
			c-15.074,0.472-30.157,0.951-45.253,1.313c-3.024,0.049-6.378,0.104-9.739,0.161c-8.404,0.028-17.175-0.054-25.605-0.134
			c-5.244-1.38-9.347-1.872-9.732,0.161c-3.361,0.054-6.381,0.103-9.736,0.162c-3.612,0.619-7.236,1.243-11.182,1.872
			c-1.015,0.018-2.237,0.038-3.489,0.058c-0.563-0.014-1.121-0.024-1.682-0.037c-21.376-2.8-37.056-0.223-54.422-0.155
			c-21.078-1.453-50.872-0.279-72.628,0.645c-0.156,0.106-0.349,0.186-0.548,0.261c-1.735,0.031-3.473,0.067-5.226,0.117
			c-0.318,0.098-0.558,0.194-0.797,0.282c-0.486,0-0.962,0.006-1.404,0.032c-0.679-0.101-1.045-0.318-1.751-0.532
			c-4.18-0.11-8.305-0.16-12.387-0.171c-20.925-0.794-47.021-1.55-66.027-0.184c-16.081-0.018-30.762-2.184-49.778-0.236
			c-3.762,0.063-7.609,0.171-11.455,0.273c-3.317-0.528-6.469-1.054-9.572-1.576c-3.356-0.05-6.376-0.09-9.739-0.135
			c-0.422-2.031-4.516-1.528-9.735-0.133c-8.429,0.104-17.198,0.21-25.602,0.206c-3.19-0.045-6.356-0.088-9.257-0.127
			c-4.432-0.241-8.876-0.407-13.409-0.321c-10.788-0.269-21.573-0.564-32.352-0.87c-9.094,0.096-18.197,0.196-27.285,0.183
			c-0.592-0.569-1.21-1.027-1.483-1.593c-3.374,0.066-6.419,0.248-9.805,0.427c-3.018-0.041-6.392-0.09-9.744-0.135
			c-2.547-1.162-5.24-1.2-7.921-1.235c-1.383,1.03-3.055,1.964-4.741,2.975c-5.936-1.177-10.351-1.086-14.979-0.486
			c-2.027,0.035-3.978,0.068-5.929,0.1c-2.311-0.105-4.622-0.209-6.928-0.337c-1.006-0.016-2.018-0.028-3.027-0.047
			c-3.681-0.161-7.684-0.441-11.349-0.714c-2.541,0.058-5.011,0.114-7.485,0.166c-1.31-0.043-2.551-0.016-3.753,0.062
			c-2.198,0.037-4.388,0.075-6.64,0.086c-0.465-0.015-0.939-0.024-1.411-0.036c-2.84-0.179-5.682-0.37-8.531-0.612
			c-4.75-0.257-9.831-0.511-14.592-0.77c-9.713,0.273-15.088-2.001-27.833-1.673c-4.761-0.372-9.513-0.631-14.597-0.88
			c-4.043-0.05-6.59,1.005-10.928,1.302c-6.63-1.686-18.129-2.056-27.69-0.665c-0.589-4.15-11.717-1.939-18.1-1.833
			c-5.675-2.043-17.606-0.718-18.335-3.518c-5.761-0.242-5.632,0.657-9.108,2.287c-3.149-0.849-5.613-1.592-8.442-2.559
			c0.835-1.251,2.304-2.737-0.377-2.694c-1.569-1.548-4.009-2.181-7.161-3.026c-5.218,1.21-6.247,3.476-13.617,6.072
			c-1.149-0.993-2.314-2.098-3.466-3.09c-0.837,3.613-15.209,1.942-15.597,3.968c0.06,0.45,0.115,0.789,0.16,1.125
			c-2.826,1.397-6.986,2.928-9.213,3.865c0.16,1.121,0.321,2.241,0.47,3.252c-1.684,0.025-3.361,0.056-5.044,0.085
			c0.16,1.12,0.303,2.131,0.463,3.252C28.414,256.474,19.932,258.411,29.72,260.95z M1081.755,264.368
			c4.812-0.017,9.583-0.126,14.17-0.263C1091.14,264.583,1086.43,264.586,1081.755,264.368z M1048.821,263.057
			c1.299-0.225,2.841-0.32,4.699-0.231C1051.961,262.855,1050.394,262.941,1048.821,263.057z M1042.61,264.805
			c-0.601,0.655-3.037,0.546-5.185,0.523c0.055-0.009,0.11-0.018,0.164-0.026C1039.648,265.435,1041.191,265.181,1042.61,264.805z
			 M1034.091,266.378c-1.122-0.036-2.145-0.023-3.17-0.011c1.048-0.165,2.09-0.334,3.134-0.501
			C1033.982,266.004,1033.966,266.164,1034.091,266.378z M200.27,267.333c0.121-0.215,0.102-0.374,0.027-0.511
			c1.047,0.164,2.091,0.33,3.142,0.491C202.413,267.304,201.391,267.294,200.27,267.333z M191.723,265.784
			c1.425,0.372,2.973,0.621,5.029,0.483c0.055,0.009,0.11,0.017,0.164,0.026C194.769,266.322,192.336,266.437,191.723,265.784z
			 M180.777,263.836c1.856-0.094,3.4-0.004,4.703,0.218C183.905,263.942,182.336,263.86,180.777,263.836z M138.396,265.235
			c4.589,0.122,9.362,0.219,14.175,0.222C147.9,265.689,143.19,265.699,138.396,265.235z M1082.853,250.304
			c-3.137-0.044-6.274-0.086-9.412-0.13c4.368,0.059,6.723,0.091,9.41,0.128C1082.85,250.301,1082.852,250.303,1082.853,250.304z
			 M151.219,251.396c0.001-0.001,0.001-0.002,0.002-0.002c2.686-0.044,5.041-0.083,9.408-0.155
			C157.491,251.292,154.354,251.344,151.219,251.396z"/>
	</g>
	<path id="XMLID_14_" fill="#F1F1F1" d="M1221.237,67.856c7.221-1.746,10.579-4.395,0.451-5.165
		c-1.934-1.184-3.856-2.304-5.461-3.494c7.085-0.875,3.094-2.378,3.803-3.59c-2.077-0.381-4.504-0.825-6.587-1.206
		c6.142-0.667,6.257-1.606,5.692-2.605c-3.792-0.633-9.325-0.173-12.506,0.395c-1.416-0.386-2.523-0.846-3.604-1.238
		c-5.857,0.462-11.378,0.987-17.235,1.447c-1.653,0.016-2.976,0.03-4.631,0.048c-0.929-1.131-1.546-2.33-2.472-3.46
		c-0.405-0.332-1.149-0.66-1.886-0.987c-2.19-0.848-4.692-1.628-6.879-2.476c-2.05-0.248-4.408-0.423-6.444-0.606
		c-3.685-0.164-7.701-0.323-11.386-0.489c-1.793-0.585-8.335-0.181-12.647-0.205c-5.954,0.06-11.581,0.116-17.535,0.175
		c-6.015-0.207-11.69-0.35-17.689-0.492c-4.774-0.553-9.731-0.505-14.361-0.458c-5.36-0.216-10.697-0.361-16.037-0.51
		c-3.311,0.036-6.289,0.065-9.594,0.097c-2.677-0.107-5.34-0.148-8.017-0.253c-10.396-0.5-16.49-1.041-24.033-0.697
		c-9.6,0.096-18.863,0.189-28.45,0.286c-7.606,0.075-14.889,0.147-22.159,0.221c-2.689-0.106-5.36-0.213-8.026-0.252
		c-3.604-1.238-12.87-1.144-17.604-0.159c-0.741-0.328-1.137-0.591-1.869-0.92c-7.93,0.148-15.834,0.362-23.75,0.574
		c-5.931,0.129-11.524,0.318-17.46,0.444c-3.049-0.237-6.432-0.538-9.816-0.84c-2.978,0.031-6.286,0.063-9.191,0.426
		c-3.695-0.228-7.712-0.39-11.397-0.554c-3.452-0.568-8.319-0.117-12.653-0.208c-3.305,0.034-6.603,0.066-9.588,0.096
		c-13.174,0.403-26.347,0.734-39.541,1.069c-1.019-0.124-2.027-0.18-3.384-0.302c-5.25,0.254-10.485,0.507-15.727,0.828
		c-1.985,0.021-4.295,0.044-6.282,0.063c-8.054,1.019-11.348,1.119-14.08,0.743c-2.666-0.039-5.34-0.145-8-0.186
		c-6.834,0.537-2.337-1.451-8.256-1.257c-1.875,0.487-4.098,0.913-5.967,1.398c-4.962,0.052-13.545,1.612-14.634-0.186
		c-3.865,0.507-11.474,0.586-15.882,0.161c-5.861,0.46-6.911,0.202-14.373-0.527c-0.606,1.682-2.604,1.634-7.865,0.413
		c-9.239,0.942-19.498,0.968-28.18,0.82c-3.084-0.099-5.826-0.338-7.598-1.01c-2.583-0.291-14.333-1.195-11.036,0.511
		c-3.004,0.121-5.755,0.183-8.394,0.211c-0.143,0.002-0.292,0.003-0.434,0.005c-8.042,0.073-15.04-0.18-24.663-0.16
		c-0.077,0.05-0.221,0.08-0.324,0.122c-0.169-0.006-0.322-0.008-0.493-0.015c3.245-1.711-8.476-0.787-11.051-0.492
		c-0.755,0.291-1.708,0.496-2.775,0.651c-9.492,0.241-21.951,0.439-33.001-0.666c-5.224,1.23-7.221,1.281-7.877-0.4
		c-7.44,0.741-8.482,1.001-14.356,0.551c-4.395,0.432-12.006,0.367-15.886-0.134c-1.036,1.8-9.665,0.255-14.629,0.211
		c-1.884-0.483-4.12-0.905-6.009-1.388c-5.925-0.184-1.369,1.797-8.219,1.271c-2.659,0.046-5.33,0.157-7.994,0.2
		c-2.721,0.381-6.018,0.286-14.102-0.719c-1.988-0.016-4.299-0.035-6.285-0.053c-5.251-0.312-10.494-0.556-15.751-0.801
		c-1.353,0.124-2.36,0.182-3.374,0.307c-13.204-0.312-26.386-0.621-39.572-1.001c-2.985-0.025-6.285-0.052-9.59-0.08
		c-4.332,0.099-9.212-0.344-12.647,0.23c-3.68,0.17-7.692,0.339-11.38,0.573c-2.917-0.358-6.225-0.385-9.204-0.411
		c-3.374,0.307-6.749,0.615-9.791,0.857c-5.94-0.116-11.539-0.295-17.473-0.415c-7.922-0.198-15.832-0.398-23.767-0.533
		c-0.722,0.33-1.11,0.594-1.841,0.923c-4.763-0.977-14.033-1.055-17.599,0.189c-2.665,0.044-5.332,0.155-8.018,0.266
		c-7.272-0.062-14.557-0.121-22.165-0.184c-9.589-0.08-18.856-0.158-28.458-0.237c-7.554-0.332-13.632,0.22-24.012,0.738
		c-2.673,0.11-5.335,0.155-8.009,0.267c-3.306-0.027-6.285-0.05-9.596-0.081c-5.335,0.158-10.667,0.312-16.021,0.537
		c-4.631-0.039-9.59-0.079-14.347,0.482c-5.994,0.152-11.665,0.305-17.674,0.522c-5.955-0.048-11.584-0.095-17.539-0.145
		c-4.311,0.031-10.865-0.361-12.641,0.227c-3.679,0.172-7.692,0.339-11.371,0.509c-2.03,0.186-4.383,0.365-6.425,0.617
		c-2.161,0.852-4.64,1.636-6.805,2.488c-0.728,0.329-1.461,0.658-1.857,0.991c-0.892,1.131-1.473,2.331-2.368,3.464
		c-1.656-0.015-2.979-0.027-4.632-0.039c-5.871-0.45-11.407-0.966-17.278-1.418c-1.069,0.395-2.162,0.856-3.566,1.244
		c-3.198-0.562-8.745-1.013-12.518-0.373c-0.536,1-0.392,1.938,5.769,2.595c-2.071,0.384-4.485,0.833-6.55,1.218
		c0.746,1.21-3.201,2.72,3.91,3.583c-1.569,1.192-3.458,2.316-5.357,3.503c-10.105,0.787-6.668,3.431,0.605,5.164
		c-9.596,1.53-1.207,2.67,2.129,4.173c-0.137,0.668-0.26,1.271-0.398,1.938c1.659,0.015,3.311,0.03,4.97,0.042
		c-0.128,0.602-0.266,1.27-0.404,1.939c2.21,0.554,6.335,1.46,9.144,2.287c-0.039,0.2-0.086,0.402-0.137,0.67
		c0.419,1.207,14.545,0.186,15.434,2.338c1.117-0.594,2.246-1.254,3.359-1.847c7.305,1.535,8.359,2.883,13.521,3.595
		c3.09-0.509,5.482-0.89,7-1.815c2.641,0.021,1.168-0.862,0.323-1.606c2.77-0.581,5.183-1.028,8.27-1.539
		c3.452,0.966,3.341,1.501,9.012,1.348c0.668-1.67,12.443-0.9,17.997-2.127c6.29,0.052,17.291,1.351,17.796-1.123
		c9.443,0.813,20.763,0.573,27.264-0.443c4.278,0.169,6.806,0.794,10.788,0.758c5.003-0.158,9.68-0.32,14.362-0.549
		c12.56,0.174,17.814-1.19,27.387-1.043c4.685-0.162,9.686-0.322,14.359-0.484c0.82-0.044,1.637-0.076,2.457-0.115
		c2.239,0.059,4.855,0.031,7.33-0.021c5.973,0.007,11.635,0.084,17.616,0.157c3.605-0.169,7.543-0.343,11.166-0.445
		c0.994-0.013,1.99-0.022,2.981-0.033c4.327-0.153,8.667-0.268,12.999-0.406c4.12,0.302,8.085,0.356,13.166-0.19
		c0.29-0.003,0.597-0.006,0.884-0.009c1.801,0.651,3.6,1.236,5.08,1.892c2.64-0.025,5.292-0.053,7.781-0.749
		c3.302-0.032,6.624-0.067,9.596-0.097c3.339,0.101,6.342,0.204,9.666,0.238c0.26-0.338,0.859-0.612,1.433-0.952
		c8.952-0.023,17.92,0.021,26.88,0.063c14.848-0.281,29.706-0.566,44.576-0.782c2.979-0.029,6.283-0.062,9.594-0.096
		c8.278-0.017,16.918,0.032,25.222,0.08c5.166,0.822,9.207,1.115,9.587-0.096c3.311-0.032,6.286-0.061,9.59-0.097
		c3.558-0.369,7.128-0.741,11.015-1.115c0.999-0.011,2.203-0.022,3.437-0.035c0.555,0.008,1.104,0.015,1.657,0.022
		c21.057,1.668,36.502,0.133,53.608,0.092c20.763,0.866,50.111,0.166,71.542-0.384c0.154-0.063,0.344-0.111,0.54-0.156
		c1.709-0.019,3.421-0.04,5.148-0.07c0.313-0.058,0.549-0.116,0.785-0.168c0.479,0,0.948-0.003,1.383-0.019
		c0.669,0.06,1.029,0.189,1.725,0.317c4.117,0.065,8.181,0.095,12.202,0.102c20.612,0.473,46.317,0.923,65.04,0.11
		c15.84,0.011,30.302,1.301,49.033,0.14c3.706-0.038,7.495-0.102,11.284-0.162c3.267,0.315,6.372,0.628,9.429,0.939
		c3.305,0.03,6.281,0.054,9.593,0.08c0.416,1.21,4.449,0.91,9.589,0.079c8.303-0.062,16.94-0.125,25.219-0.123
		c3.142,0.027,6.261,0.053,9.119,0.076c4.366,0.143,8.743,0.242,13.208,0.192c10.627,0.16,21.25,0.336,31.868,0.519
		c8.958-0.057,17.925-0.117,26.877-0.109c0.584,0.339,1.191,0.612,1.461,0.949c3.323-0.039,6.323-0.148,9.659-0.254
		c2.973,0.025,6.296,0.054,9.599,0.08c2.509,0.692,5.162,0.715,7.803,0.736c1.362-0.614,3.01-1.171,4.67-1.773
		c5.848,0.701,10.196,0.647,14.755,0.29c1.997-0.021,3.918-0.04,5.841-0.06c2.276,0.063,4.553,0.124,6.825,0.201
		c0.991,0.009,1.988,0.017,2.982,0.028c3.626,0.096,7.569,0.263,11.18,0.426c2.503-0.034,4.936-0.068,7.374-0.099
		c1.291,0.025,2.513,0.01,3.697-0.037c2.165-0.022,4.322-0.045,6.541-0.051c0.458,0.009,0.925,0.014,1.39,0.021
		c2.797,0.107,5.597,0.221,8.404,0.365c4.679,0.153,9.684,0.305,14.374,0.459c9.568-0.163,14.863,1.192,27.417,0.997
		c4.69,0.222,9.371,0.376,14.378,0.525c3.983,0.03,6.492-0.599,10.765-0.776c6.531,1.005,17.858,1.225,27.276,0.396
		c0.58,2.473,11.541,1.156,17.829,1.093c5.591,1.217,17.343,0.428,18.061,2.096c5.675,0.144,5.548-0.392,8.971-1.363
		c3.102,0.506,5.529,0.949,8.316,1.525c-0.822,0.745-2.269,1.631,0.371,1.605c1.546,0.922,3.949,1.3,7.054,1.803
		c5.14-0.721,6.154-2.071,13.413-3.618c1.131,0.592,2.28,1.25,3.414,1.841c0.825-2.153,14.981-1.157,15.364-2.364
		c-0.059-0.268-0.113-0.47-0.158-0.67c2.784-0.833,6.882-1.745,9.075-2.303c-0.158-0.668-0.316-1.336-0.463-1.938
		c1.659-0.015,3.311-0.033,4.969-0.051c-0.158-0.667-0.298-1.27-0.456-1.938C1222.524,70.524,1230.879,69.369,1221.237,67.856z
		 M184.936,65.82c-4.74,0.01-9.44,0.075-13.958,0.156C175.691,65.691,180.331,65.689,184.936,65.82z M217.377,66.6
		c-1.279,0.134-2.799,0.191-4.629,0.138C214.284,66.721,215.828,66.67,217.377,66.6z M223.496,65.559
		c0.592-0.39,2.991-0.325,5.107-0.312c-0.054,0.005-0.108,0.011-0.162,0.016C226.414,65.184,224.893,65.335,223.496,65.559z
		 M231.887,64.621c1.105,0.021,2.112,0.014,3.123,0.007c-1.032,0.098-2.059,0.199-3.087,0.298
		C231.995,64.844,232.01,64.749,231.887,64.621z M1053.238,64.053c-0.119,0.128-0.101,0.223-0.026,0.305
		c-1.031-0.098-2.06-0.197-3.095-0.293C1051.127,64.07,1052.134,64.076,1053.238,64.053z M1061.657,64.976
		c-1.404-0.221-2.929-0.37-4.954-0.288c-0.054-0.005-0.108-0.01-0.162-0.015C1058.657,64.655,1061.053,64.586,1061.657,64.976z
		 M1072.44,66.136c-1.828,0.056-3.349,0.002-4.632-0.13C1069.359,66.073,1070.904,66.122,1072.44,66.136z M1114.187,65.303
		c-4.52-0.073-9.222-0.131-13.963-0.133C1104.825,65.032,1109.465,65.026,1114.187,65.303z M183.855,74.2
		c3.09,0.026,6.18,0.051,9.272,0.078c-4.303-0.035-6.623-0.054-9.269-0.076C183.856,74.202,183.856,74.201,183.855,74.2z
		 M1101.556,73.549c-0.001,0.001-0.001,0.001-0.002,0.001c-2.646,0.026-4.966,0.05-9.267,0.092
		C1095.378,73.611,1098.468,73.581,1101.556,73.549z"/>
	<path id="XMLID_2_" fill="#F1F1F1" d="M1221.237,162.171c7.221-1.746,10.579-4.395,0.451-5.165
		c-1.934-1.184-3.856-2.304-5.461-3.494c7.085-0.875,3.094-2.378,3.803-3.59c-2.077-0.381-4.504-0.825-6.587-1.206
		c6.142-0.667,6.257-1.606,5.692-2.605c-3.792-0.633-9.325-0.173-12.506,0.395c-1.416-0.386-2.523-0.846-3.604-1.238
		c-5.857,0.462-11.378,0.987-17.235,1.447c-1.653,0.016-2.976,0.03-4.631,0.048c-0.929-1.131-1.546-2.33-2.472-3.46
		c-0.405-0.332-1.149-0.66-1.886-0.987c-2.19-0.848-4.692-1.628-6.879-2.476c-2.05-0.248-4.408-0.423-6.444-0.606
		c-3.685-0.164-7.701-0.323-11.386-0.489c-1.793-0.585-8.335-0.181-12.647-0.205c-5.954,0.06-11.581,0.116-17.535,0.175
		c-6.015-0.207-11.69-0.35-17.689-0.492c-4.774-0.553-9.731-0.505-14.361-0.458c-5.36-0.216-10.697-0.361-16.037-0.51
		c-3.311,0.036-6.289,0.065-9.594,0.097c-2.677-0.107-5.34-0.148-8.017-0.253c-10.396-0.5-16.49-1.041-24.033-0.697
		c-9.6,0.096-18.863,0.189-28.45,0.286c-7.606,0.075-14.889,0.147-22.159,0.221c-2.689-0.106-5.36-0.213-8.026-0.252
		c-3.604-1.238-12.87-1.144-17.604-0.159c-0.741-0.328-1.137-0.591-1.869-0.92c-7.93,0.148-15.834,0.362-23.75,0.574
		c-5.931,0.129-11.524,0.318-17.46,0.444c-3.049-0.237-6.432-0.538-9.816-0.84c-2.978,0.031-6.286,0.063-9.191,0.426
		c-3.695-0.228-7.712-0.39-11.397-0.554c-3.452-0.568-8.319-0.117-12.653-0.208c-3.305,0.034-6.603,0.066-9.588,0.096
		c-13.174,0.403-26.347,0.734-39.541,1.069c-1.019-0.124-2.027-0.18-3.384-0.302c-5.25,0.254-10.485,0.507-15.727,0.828
		c-1.985,0.021-4.295,0.044-6.282,0.063c-8.054,1.019-11.348,1.119-14.08,0.743c-2.666-0.039-5.34-0.145-8-0.186
		c-6.834,0.537-2.337-1.451-8.256-1.257c-1.875,0.487-4.098,0.913-5.967,1.398c-4.962,0.052-13.545,1.612-14.634-0.186
		c-3.865,0.507-11.474,0.586-15.882,0.161c-5.861,0.46-6.911,0.202-14.373-0.527c-0.606,1.682-2.604,1.634-7.865,0.413
		c-9.239,0.942-19.498,0.968-28.18,0.82c-3.084-0.099-5.826-0.338-7.598-1.01c-2.583-0.291-14.333-1.195-11.036,0.511
		c-3.004,0.121-5.755,0.183-8.394,0.211c-0.143,0.002-0.292,0.003-0.434,0.005c-8.042,0.073-15.04-0.18-24.663-0.16
		c-0.077,0.05-0.221,0.08-0.324,0.122c-0.169-0.006-0.322-0.008-0.493-0.015c3.245-1.711-8.476-0.787-11.051-0.492
		c-0.755,0.291-1.708,0.496-2.775,0.651c-9.492,0.241-21.951,0.439-33.001-0.666c-5.224,1.23-7.221,1.281-7.877-0.4
		c-7.44,0.741-8.482,1.001-14.356,0.551c-4.395,0.432-12.006,0.367-15.886-0.134c-1.036,1.8-9.665,0.255-14.629,0.211
		c-1.884-0.483-4.12-0.905-6.009-1.388c-5.925-0.184-1.369,1.797-8.219,1.271c-2.659,0.046-5.33,0.157-7.994,0.2
		c-2.721,0.381-6.018,0.286-14.102-0.719c-1.988-0.016-4.299-0.035-6.285-0.053c-5.251-0.312-10.494-0.556-15.751-0.801
		c-1.353,0.124-2.36,0.182-3.374,0.307c-13.204-0.312-26.386-0.621-39.572-1.002c-2.985-0.025-6.285-0.052-9.59-0.08
		c-4.332,0.099-9.212-0.344-12.647,0.23c-3.68,0.17-7.692,0.339-11.38,0.573c-2.917-0.358-6.225-0.385-9.204-0.411
		c-3.374,0.307-6.749,0.615-9.791,0.857c-5.94-0.116-11.539-0.295-17.473-0.415c-7.922-0.198-15.832-0.398-23.767-0.533
		c-0.722,0.33-1.11,0.594-1.841,0.923c-4.763-0.977-14.033-1.055-17.599,0.189c-2.665,0.044-5.332,0.155-8.018,0.266
		c-7.272-0.062-14.557-0.121-22.165-0.184c-9.589-0.08-18.856-0.158-28.458-0.237c-7.554-0.332-13.632,0.22-24.012,0.738
		c-2.673,0.11-5.335,0.155-8.009,0.267c-3.306-0.027-6.285-0.05-9.596-0.081c-5.335,0.158-10.667,0.312-16.021,0.537
		c-4.631-0.039-9.59-0.079-14.347,0.482c-5.994,0.152-11.665,0.305-17.674,0.522c-5.955-0.048-11.584-0.095-17.539-0.145
		c-4.311,0.031-10.865-0.361-12.641,0.227c-3.679,0.172-7.692,0.339-11.371,0.509c-2.03,0.186-4.383,0.365-6.425,0.617
		c-2.161,0.852-4.64,1.636-6.805,2.488c-0.728,0.329-1.461,0.658-1.857,0.991c-0.892,1.131-1.473,2.331-2.368,3.464
		c-1.656-0.015-2.979-0.027-4.632-0.039c-5.871-0.45-11.407-0.966-17.278-1.418c-1.069,0.395-2.162,0.856-3.566,1.244
		c-3.198-0.562-8.745-1.013-12.518-0.373c-0.536,1-0.392,1.938,5.769,2.595c-2.071,0.384-4.485,0.833-6.55,1.218
		c0.746,1.21-3.201,2.72,3.91,3.583c-1.569,1.192-3.458,2.316-5.357,3.503c-10.105,0.787-6.668,3.431,0.605,5.164
		c-9.596,1.53-1.207,2.67,2.129,4.173c-0.137,0.668-0.26,1.271-0.398,1.938c1.659,0.015,3.311,0.03,4.97,0.042
		c-0.128,0.602-0.266,1.27-0.404,1.939c2.21,0.554,6.335,1.46,9.144,2.287c-0.039,0.2-0.086,0.402-0.137,0.671
		c0.419,1.207,14.545,0.186,15.434,2.338c1.117-0.594,2.246-1.254,3.359-1.847c7.305,1.535,8.359,2.883,13.521,3.595
		c3.09-0.509,5.482-0.89,7-1.815c2.641,0.021,1.168-0.862,0.323-1.606c2.77-0.581,5.183-1.028,8.27-1.539
		c3.452,0.966,3.341,1.501,9.012,1.348c0.668-1.67,12.443-0.9,17.997-2.127c6.29,0.052,17.291,1.351,17.796-1.123
		c9.443,0.813,20.763,0.573,27.264-0.443c4.278,0.169,6.806,0.794,10.788,0.758c5.003-0.158,9.68-0.32,14.362-0.549
		c12.56,0.174,17.814-1.19,27.387-1.043c4.685-0.162,9.686-0.322,14.359-0.484c0.82-0.044,1.637-0.076,2.457-0.115
		c2.239,0.059,4.855,0.031,7.33-0.021c5.973,0.007,11.635,0.084,17.616,0.157c3.605-0.169,7.543-0.343,11.166-0.445
		c0.994-0.013,1.99-0.022,2.981-0.033c4.327-0.153,8.667-0.268,12.999-0.406c4.12,0.302,8.085,0.356,13.166-0.19
		c0.29-0.003,0.597-0.006,0.884-0.009c1.801,0.651,3.6,1.236,5.08,1.892c2.64-0.025,5.292-0.053,7.781-0.749
		c3.302-0.032,6.624-0.067,9.596-0.097c3.339,0.101,6.342,0.204,9.666,0.238c0.26-0.338,0.859-0.612,1.433-0.952
		c8.952-0.023,17.92,0.021,26.88,0.063c14.848-0.281,29.706-0.566,44.576-0.782c2.979-0.029,6.283-0.062,9.594-0.096
		c8.278-0.017,16.918,0.032,25.222,0.08c5.166,0.822,9.207,1.115,9.587-0.096c3.311-0.032,6.286-0.061,9.59-0.097
		c3.558-0.369,7.128-0.741,11.015-1.115c0.999-0.011,2.203-0.022,3.437-0.035c0.555,0.008,1.104,0.015,1.657,0.022
		c21.057,1.668,36.502,0.133,53.608,0.092c20.763,0.866,50.111,0.166,71.542-0.384c0.154-0.063,0.344-0.111,0.54-0.156
		c1.709-0.019,3.421-0.04,5.148-0.07c0.313-0.058,0.549-0.116,0.785-0.168c0.479,0,0.948-0.003,1.383-0.019
		c0.669,0.06,1.029,0.189,1.725,0.317c4.117,0.065,8.181,0.095,12.202,0.102c20.612,0.473,46.317,0.923,65.04,0.11
		c15.84,0.011,30.302,1.301,49.033,0.14c3.706-0.038,7.495-0.102,11.284-0.162c3.267,0.315,6.372,0.628,9.429,0.939
		c3.305,0.03,6.281,0.054,9.593,0.08c0.416,1.21,4.449,0.91,9.589,0.079c8.303-0.062,16.94-0.125,25.219-0.123
		c3.142,0.027,6.261,0.053,9.119,0.076c4.366,0.143,8.743,0.242,13.208,0.192c10.627,0.16,21.25,0.336,31.868,0.519
		c8.958-0.057,17.925-0.117,26.877-0.109c0.584,0.339,1.191,0.612,1.461,0.949c3.323-0.039,6.323-0.148,9.659-0.254
		c2.973,0.025,6.296,0.054,9.599,0.08c2.509,0.692,5.162,0.715,7.803,0.736c1.362-0.614,3.01-1.171,4.67-1.773
		c5.848,0.701,10.196,0.647,14.755,0.29c1.997-0.021,3.918-0.04,5.841-0.06c2.276,0.063,4.553,0.124,6.825,0.201
		c0.991,0.009,1.988,0.017,2.982,0.028c3.626,0.096,7.569,0.263,11.18,0.426c2.503-0.034,4.936-0.068,7.374-0.099
		c1.291,0.025,2.513,0.01,3.697-0.037c2.165-0.022,4.322-0.045,6.541-0.051c0.458,0.009,0.925,0.014,1.39,0.021
		c2.797,0.107,5.597,0.221,8.404,0.365c4.679,0.153,9.684,0.305,14.374,0.459c9.568-0.163,14.863,1.192,27.417,0.997
		c4.69,0.222,9.371,0.376,14.378,0.525c3.983,0.03,6.492-0.599,10.765-0.776c6.531,1.005,17.858,1.225,27.276,0.396
		c0.58,2.473,11.541,1.156,17.829,1.093c5.591,1.217,17.343,0.428,18.061,2.096c5.675,0.144,5.548-0.392,8.971-1.363
		c3.102,0.506,5.529,0.949,8.316,1.525c-0.822,0.745-2.269,1.631,0.371,1.605c1.546,0.922,3.949,1.3,7.054,1.803
		c5.14-0.721,6.154-2.071,13.413-3.618c1.131,0.592,2.28,1.25,3.414,1.841c0.825-2.153,14.981-1.157,15.364-2.364
		c-0.059-0.268-0.113-0.47-0.158-0.67c2.784-0.833,6.882-1.745,9.075-2.303c-0.158-0.668-0.316-1.336-0.463-1.938
		c1.659-0.015,3.311-0.033,4.969-0.051c-0.158-0.667-0.298-1.27-0.456-1.938C1222.524,164.839,1230.879,163.685,1221.237,162.171z
		 M184.936,160.135c-4.74,0.01-9.44,0.075-13.958,0.156C175.691,160.007,180.331,160.005,184.936,160.135z M217.377,160.916
		c-1.279,0.134-2.799,0.191-4.629,0.138C214.284,161.037,215.828,160.985,217.377,160.916z M223.496,159.874
		c0.592-0.39,2.991-0.325,5.107-0.312c-0.054,0.005-0.108,0.011-0.162,0.016C226.414,159.499,224.893,159.65,223.496,159.874z
		 M231.887,158.937c1.105,0.021,2.112,0.014,3.123,0.007c-1.032,0.098-2.059,0.199-3.087,0.298
		C231.995,159.16,232.01,159.065,231.887,158.937z M1053.238,158.368c-0.119,0.128-0.101,0.223-0.026,0.305
		c-1.031-0.098-2.06-0.197-3.095-0.293C1051.127,158.385,1052.134,158.391,1053.238,158.368z M1061.657,159.291
		c-1.404-0.221-2.929-0.37-4.954-0.288c-0.054-0.005-0.108-0.01-0.162-0.015C1058.657,158.971,1061.053,158.902,1061.657,159.291z
		 M1072.44,160.452c-1.828,0.056-3.349,0.002-4.632-0.13C1069.359,160.389,1070.904,160.437,1072.44,160.452z M1114.187,159.618
		c-4.52-0.073-9.222-0.131-13.963-0.133C1104.825,159.348,1109.465,159.342,1114.187,159.618z M183.855,168.516
		c3.09,0.026,6.18,0.051,9.272,0.078c-4.303-0.035-6.623-0.054-9.269-0.076C183.856,168.517,183.856,168.516,183.855,168.516z
		 M1101.556,167.865c-0.001,0.001-0.001,0.001-0.002,0.001c-2.646,0.026-4.966,0.05-9.267,0.092
		C1095.378,167.927,1098.468,167.896,1101.556,167.865z"/>
</g>
</svg>
