<?xml version="1.0" encoding="utf-8"?>
<!-- Generator: Adobe Illustrator 23.0.5, SVG Export Plug-In . SVG Version: 6.00 Build 0)  -->
<svg version="1.1" id="Layer_1" xmlns="http://www.w3.org/2000/svg" xmlns:xlink="http://www.w3.org/1999/xlink" x="0px" y="0px"
	 viewBox="0 0 85 68" style="enable-background:new 0 0 85 68;" xml:space="preserve">
<style type="text/css">
	.st0{fill:#DDD69E;}
</style>
<g id="XMLID_3651_">
	<path id="XMLID_3652_" class="st0" d="M37.12,13.18c-11.56,5.81-17.34,12.98-17.34,24.59c0.58-0.2,1.35-0.2,1.93-0.2
		c8.09,0,14.84,5.42,14.84,14.14c0,9.68-6.36,15.88-14.84,15.88c-11.94,0-18.11-9.49-18.11-25.37c0-18.2,8.86-32.34,27.36-41.44
		L37.12,13.18z M82.78,13.18c-11.56,5.81-17.34,12.98-17.34,24.59c0.58-0.2,1.35-0.2,1.93-0.2c8.09,0,14.64,5.42,14.64,14.14
		c0,9.68-6.17,15.88-14.64,15.88c-11.95,0-18.31-9.49-18.31-25.37c0-18.2,9.06-32.34,27.55-41.44L82.78,13.18z"/>
</g>
</svg>
