<?xml version="1.0" encoding="utf-8"?>
<!-- Generator: Adobe Illustrator 23.0.5, SVG Export Plug-In . SVG Version: 6.00 Build 0)  -->
<svg version="1.1" id="Layer_1" xmlns="http://www.w3.org/2000/svg" xmlns:xlink="http://www.w3.org/1999/xlink" x="0px" y="0px"
	 viewBox="0 0 53 47" style="enable-background:new 0 0 53 47;" xml:space="preserve">
<style type="text/css">
	.st0{fill-rule:evenodd;clip-rule:evenodd;fill:#C4034B;}
</style>
<g id="XMLID_1543_">
	<path id="XMLID_3649_" class="st0" d="M44.83,0.9c0.1,0,0.19,0,0.29,0c0.01,0.17-0.09,0.22-0.29,0.19
		C44.83,1.03,44.83,0.96,44.83,0.9z"/>
	<path id="XMLID_3648_" class="st0" d="M10.1,2.81c0.11,0.24,0.23,0.47,0.38,0.67c0.12-0.04,0.2-0.12,0.19-0.29
		c0.16,0.04,0.16,0.72,0,0.77c-0.19,0.2-0.25-0.07-0.29-0.29c-0.54,0.46,0.21,1.08,0.19,1.63c-0.2-0.28-0.48-0.48-0.57-0.86
		c-0.32,0.8,0.46,1.32,0.86,1.72c-0.53,0.08-0.85-0.87-1.33-1.15c0-0.16,0-0.32,0-0.48C9.34,4.7,9.37,5.45,9.71,5.39
		C9.44,5.9,9.24,5.01,8.76,5.11c-0.1-0.67-0.88-1.04-0.57-1.82c0.28,0.2,0.17,0.79,0.48,0.96C8.83,3.8,8.81,3.18,9.14,2.91
		C9.56,2.97,9.68,2.74,10.1,2.81z"/>
	<path id="XMLID_3640_" class="st0" d="M31.32,3.19c0.45,0.11-0.23,0.55-0.19,0.86C30.84,3.79,31.36,3.52,31.32,3.19z"/>
	<path id="XMLID_3639_" class="st0" d="M7.53,3.48c0.3,0.27,0.44,0.96,0.76,1.34c0.37,0.44,1.08,0.6,1.24,1.24
		C8.67,5.58,8.03,4.88,7.43,4.15C7.43,3.9,7.39,3.6,7.53,3.48z"/>
	<path id="XMLID_3638_" class="st0" d="M36.36,3.58c-0.09,0.2-0.28,0.29-0.57,0.29C35.85,3.63,36.15,3.65,36.36,3.58z"/>
	<path id="XMLID_3637_" class="st0" d="M37.51,3.86c-0.55,0.74-1.09,1.25-2.28,1.15c0.09-0.46,0.57-0.26,0.86-0.38
		C36.56,4.43,36.93,3.92,37.51,3.86z"/>
	<path id="XMLID_3636_" class="st0" d="M45.03,3.96c-0.15,0.36-0.6,0.42-1.05,0.48C44.04,3.99,44.59,4.03,45.03,3.96z"/>
	<path id="XMLID_3635_" class="st0" d="M35.6,5.2c-0.11,0.24-0.42,0.28-0.76,0.29C34.94,5.24,35.23,5.18,35.6,5.2z"/>
	<path id="XMLID_3586_" class="st0" d="M5.43,5.49C5.69,5.61,6.02,5.66,6.1,5.97c-0.3-0.02-0.7,0.06-0.86-0.1
		C5.29,5.73,5.38,5.63,5.43,5.49z"/>
	<path id="XMLID_3585_" class="st0" d="M26.56,6.35c0.19,0.09,0.21,0.37,0.19,0.67C26.6,6.88,26.55,6.65,26.56,6.35z"/>
	<path id="XMLID_3581_" class="st0" d="M22.94,7.4c0.39,0.11,0.83,0.19,0.95,0.57C23.58,7.78,23.03,7.83,22.94,7.4z"/>
	<path id="XMLID_3578_" class="st0" d="M43.03,7.4c0,0.25,0,0.51,0,0.77c-0.36,0.15-0.62,0.4-1.14,0.38
		c0.12-0.39,0.68-0.33,0.76-0.77c-0.3-0.05-0.34,0.17-0.67,0.1C42.25,7.65,42.49,7.37,43.03,7.4z"/>
	<path id="XMLID_3577_" class="st0" d="M23.04,8.07c0.09-0.15,0.68,0.01,0.67,0.29C23.5,8.25,23.17,8.26,23.04,8.07z"/>
	<path id="XMLID_3576_" class="st0" d="M20.85,8.07c0.32-0.07,0.35,0.16,0.38,0.38C20.93,8.5,20.81,8.37,20.85,8.07z"/>
	<path id="XMLID_3575_" class="st0" d="M7.81,8.17c0.03,0.25-0.2,0.25-0.38,0.29C7.4,8.2,7.63,8.21,7.81,8.17z"/>
	<path id="XMLID_3574_" class="st0" d="M15.04,8.17C15.48,8.23,14.97,8.75,15.04,8.17L15.04,8.17z"/>
	<path id="XMLID_3573_" class="st0" d="M42.65,8.65c-0.04,0.12-0.12,0.2-0.29,0.19C42.4,8.72,42.48,8.64,42.65,8.65z"/>
	<path id="XMLID_3570_" class="st0" d="M23.42,9.13c0.35-0.06,0.51,0.06,0.67,0.19C23.97,9.52,23.39,9.39,23.42,9.13z"/>
	<path id="XMLID_3569_" class="st0" d="M31.03,9.32c-0.01,0.24-0.14,0.37-0.38,0.38C30.77,9.56,30.74,9.27,31.03,9.32z"/>
	<path id="XMLID_3568_" class="st0" d="M34.56,9.7C34.07,10.04,34.03,9.45,34.56,9.7L34.56,9.7z"/>
	<path id="XMLID_3567_" class="st0" d="M40.17,10.08c-0.01,0.27-0.4,0.17-0.67,0.19C39.52,10,39.9,10.1,40.17,10.08z"/>
	<path id="XMLID_3566_" class="st0" d="M40.27,10.37c0.3,0.02,0.16,0.48,0.19,0.77C40.29,10.98,40.25,10.7,40.27,10.37z"/>
	<path id="XMLID_3565_" class="st0" d="M11.05,10.46c-0.08,0.14-0.31,0.14-0.48,0.19C10.59,10.45,10.81,10.45,11.05,10.46z"/>
	<path id="XMLID_3564_" class="st0" d="M39.98,11.13c-0.04,0.12-0.12,0.2-0.29,0.19C39.65,11.12,39.83,11.14,39.98,11.13z"/>
	<path id="XMLID_3563_" class="st0" d="M39.98,11.71c-0.1,0.16-0.4,0.1-0.57,0.19C39.32,11.55,39.78,11.77,39.98,11.71z"/>
	<path id="XMLID_3562_" class="st0" d="M36.74,12.95c-0.14,0.26-0.77,0.21-1.05,0.19C35.86,12.85,36.42,12.81,36.74,12.95z"/>
	<path id="XMLID_3561_" class="st0" d="M29.32,13.24c0.2-0.04,0.25,0.07,0.38,0.1C29.73,13.5,29.17,13.51,29.32,13.24z"/>
	<path id="XMLID_3560_" class="st0" d="M36.36,13.43c0.06,0.38-0.52,0.11-0.76,0.19C35.54,13.24,36.13,13.51,36.36,13.43z"/>
	<path id="XMLID_3559_" class="st0" d="M23.04,13.72c0.17,0.15,0.21,0.43,0.19,0.77C22.85,14.54,23.12,13.96,23.04,13.72z"/>
	<path id="XMLID_3558_" class="st0" d="M20.56,14.39c0.31,0.23-0.09,0.54-0.1,0.77C20.16,14.93,20.67,14.73,20.56,14.39z"/>
	<path id="XMLID_3557_" class="st0" d="M23.61,14.58c0.18,0.01,0.07,0.32,0.29,0.29C23.81,15.12,23.51,14.82,23.61,14.58z"/>
	<path id="XMLID_3556_" class="st0" d="M29.04,14.77c0.32,0.23-0.18,0.45-0.29,0.57C28.46,15.14,29.02,14.99,29.04,14.77z"/>
	<path id="XMLID_3555_" class="st0" d="M28.94,15.63c0.23,0.14-0.15,0.48-0.38,0.48C28.62,15.89,28.88,15.85,28.94,15.63z"/>
	<path id="XMLID_3554_" class="st0" d="M31.89,15.82c-0.23,0.17-0.58,0.22-0.86,0.1C31.05,15.61,31.74,15.7,31.89,15.82z"/>
	<path id="XMLID_3553_" class="st0" d="M10.86,15.82c0.47,1.06,0.92,2.13,1.24,3.35c-0.63-0.45-0.71-1.45-1.43-1.82
		c0.47,0.8,0.76,1.78,1.14,2.68c-0.35-0.24-0.54-0.72-0.76-1.15c-0.4-0.77-0.9-1.41-0.86-2.77c0.47,0,0.25,0.71,0.48,0.96
		C11.14,16.74,10.6,16.08,10.86,15.82z"/>
	<path id="XMLID_3552_" class="st0" d="M9.62,16.3c0.47,1.35,1.07,2.56,1.52,3.92c-0.69-0.94-1.14-2.11-1.81-3.06
		C9.53,16.97,9.5,16.56,9.62,16.3z"/>
	<path id="XMLID_3551_" class="st0" d="M8.86,16.68c0.15-0.03,0.16,0.09,0.29,0.1c0.18,1.48,1.28,2.53,1.43,3.73
		C9.88,19.35,9.01,18.38,8.86,16.68z"/>
	<path id="XMLID_3550_" class="st0" d="M41.22,20.51c0.01,0.27-0.27,0.31-0.38,0.19C40.86,20.53,41,20.48,41.22,20.51z"/>
	<path id="XMLID_3549_" class="st0" d="M39.98,20.8c-0.14,0.18-0.21,0.42-0.57,0.38C39.47,20.92,39.67,20.8,39.98,20.8z"/>
	<path id="XMLID_3548_" class="st0" d="M41.41,20.89c0.18-0.04,0.14,0.44-0.1,0.29c0-0.06,0-0.13,0-0.19
		C41.39,21,41.4,20.95,41.41,20.89z"/>
	<path id="XMLID_3547_" class="st0" d="M40.17,21.18c0.19-0.03,0.3,0.02,0.29,0.19c-0.1,0-0.19,0-0.29,0
		C40.17,21.31,40.17,21.24,40.17,21.18z"/>
	<path id="XMLID_3546_" class="st0" d="M31.41,21.37c0.03,0.25-0.13,0.31-0.38,0.29c-1.02,2.58-6.38,1.67-8.57,0.48
		c0.26-0.28,0.68,0.01,0.95,0.1c1.48,0.46,3.5,1.17,5.52,0.57c0.37-0.11,0.76-0.31,1.05-0.48c0.47-0.28,0.71-0.67,1.24-0.96
		C31.29,21.37,31.35,21.37,31.41,21.37z"/>
	<path id="XMLID_3545_" class="st0" d="M40.08,21.56c-0.02,0.1-0.19,0.06-0.19,0.19c-0.09,0-0.07-0.12-0.1-0.19
		C39.92,21.45,39.94,21.52,40.08,21.56z"/>
	<path id="XMLID_3540_" class="st0" d="M38.17,21.75c0.06,0,0.13,0,0.19,0c0,0.06,0,0.13,0,0.19c-0.06,0-0.13,0-0.19,0
		C38.17,21.88,38.17,21.82,38.17,21.75z"/>
	<path id="XMLID_3538_" class="st0" d="M31.7,21.85c0.17-0.03,0.2,0.09,0.1,0.1c-1.41,3.19-7.82,1.97-10.18,0.48
		c1.24,0.02,2.57,1.05,4.19,1.24C28.38,23.98,30.39,23.28,31.7,21.85z"/>
	<path id="XMLID_3537_" class="st0" d="M37.6,22.23c-0.2,0.22-0.44,0.38-0.86,0.38C36.8,22.27,37.4,22.12,37.6,22.23z"/>
	<path id="XMLID_3536_" class="st0" d="M32.18,22.23c0.48,0.16-0.34,0.51-0.19,0.96c-1.07,1.32-4.31,1.73-6.85,1.24
		c-0.74-0.14-1.65-0.48-2.28-0.77c-0.77-0.35-1.58-0.73-1.81-1.24c0.49,0.26,1.05,0.65,1.71,0.96c0.56,0.25,1.27,0.62,1.9,0.77
		C27.63,24.83,30.9,24.11,32.18,22.23z"/>
	<path id="XMLID_3535_" class="st0" d="M20.09,22.61c0.02-0.11,0.17-0.08,0.29-0.1c0.79,0.64,1.64,1.11,2.86,1.63
		c0.95,0.4,2.13,0.8,3.62,0.86c1.61,0.07,3.31-0.3,4.47-0.96c0.6-0.34,0.9-0.86,1.43-1.24c0.09,0.88-0.81,1.25-1.43,1.63
		c-1.29,0.79-4.65,1.06-6.57,0.57c-0.57-0.14-1.14-0.51-1.71-0.77C21.86,23.71,20.91,23.38,20.09,22.61z"/>
	<path id="XMLID_3534_" class="st0" d="M37.6,22.8C37.89,22.45,37.92,23.09,37.6,22.8L37.6,22.8z"/>
	<path id="XMLID_3533_" class="st0" d="M39.03,22.8c0.13,0,0.25,0,0.38,0c0.1,0.29-0.21,0.17-0.38,0.19
		C39.03,22.93,39.03,22.87,39.03,22.8z"/>
	<path id="XMLID_3532_" class="st0" d="M19.71,22.9c0.1,0,0.19,0,0.29,0c1.08,1.02,2.55,1.65,4,2.3c-0.78-0.02-1.65-0.49-2.38-0.86
		C20.87,23.96,20.12,23.53,19.71,22.9z"/>
	<path id="XMLID_3531_" class="st0" d="M37.51,22.9c0.1,0.32-0.3,0.15-0.48,0.19C37.04,22.88,37.27,22.89,37.51,22.9z"/>
	<path id="XMLID_3528_" class="st0" d="M39.79,22.9c0.13,0,0.25,0,0.38,0c0.1,0.29-0.21,0.17-0.38,0.19
		C39.79,23.03,39.79,22.96,39.79,22.9z"/>
	<path id="XMLID_3525_" class="st0" d="M36.65,23.09c0.19-0.03,0.3,0.02,0.29,0.19c-0.1,0-0.19,0-0.29,0
		C36.65,23.22,36.65,23.16,36.65,23.09z"/>
	<path id="XMLID_3524_" class="st0" d="M19.04,23.38c0-0.09,0.12-0.07,0.19-0.1c0.69,0.2,1.13,0.65,1.52,1.15
		c0.28,0.11,0.64,0.12,0.67,0.48C20.33,24.7,19.85,23.87,19.04,23.38z"/>
	<path id="XMLID_3523_" class="st0" d="M39.41,23.28c0.13,0,0.25,0,0.38,0c0.1,0.29-0.21,0.17-0.38,0.19
		C39.41,23.41,39.41,23.35,39.41,23.28z"/>
	<path id="XMLID_3522_" class="st0" d="M40.65,23.47c-0.02,0.17-0.16,0.22-0.38,0.19C40.17,23.38,40.48,23.5,40.65,23.47z"/>
	<path id="XMLID_3515_" class="st0" d="M9.14,23.67c0.25,0.26,0.58,0.43,0.67,0.86C9.56,24.27,9.16,24.16,9.14,23.67z"/>
	<path id="XMLID_3514_" class="st0" d="M40.17,23.76c0.1,0.29-0.21,0.17-0.38,0.19C39.81,23.78,39.95,23.73,40.17,23.76z"/>
	<path id="XMLID_3511_" class="st0" d="M38.84,23.86C38.63,24.15,38.23,23.75,38.84,23.86L38.84,23.86z"/>
	<path id="XMLID_3510_" class="st0" d="M37.98,24.05c0.13,0,0.25,0,0.38,0c0.1,0.29-0.21,0.17-0.38,0.19
		C37.98,24.18,37.98,24.11,37.98,24.05z"/>
	<path id="XMLID_3507_" class="st0" d="M39.31,24.05c0.2-0.04,0.25,0.07,0.38,0.1c-0.23,0.15-0.43,0.33-0.76,0.38
		C38.86,24.16,39.39,24.41,39.31,24.05z"/>
	<path id="XMLID_3505_" class="st0" d="M47.12,31.99c0.42,0.12-0.43,0.48-0.48,0.77c-0.22,0-0.28,0.16-0.57,0.1
		C46.33,32.47,46.89,32.4,47.12,31.99z"/>
	<path id="XMLID_3499_" class="st0" d="M49.31,37.73c0.45,0.47,0,1.85,0.29,2.49C49.09,39.83,48.92,38.4,49.31,37.73z"/>
	<path id="XMLID_3498_" class="st0" d="M31.03,39.83c-0.04-0.19,0.43-0.14,0.29,0.1c-0.06,0-0.13,0-0.19,0
		C31.15,39.85,31.09,39.84,31.03,39.83z"/>
	<path id="XMLID_2287_" class="st0" d="M12.95,12.19c0.02-0.58,0.61-0.74,0.19-1.24c0.2-0.72,1.19-0.66,1.81-0.96
		c-0.52-0.59-1.19,0.49-1.9,0c-0.43,0.11-0.62,0.46-0.95,0.67c-0.23-0.28,0.26-0.34,0.38-0.48C12.79,9.8,13,9.23,13.43,9.03
		c-0.91-0.14-0.88,1.47-2.09,1.34c0.02-0.1,0.19-0.06,0.19-0.19c-0.51,0.12-1.39,0.09-2-0.19c0.18-0.58,1.02-0.51,1.05-1.24
		c-0.37,0.27-1.1,1-1.9,1.15c0.19-0.42,0.64-0.32,0.95-0.57c0.43-0.35,0.65-0.84,0.76-1.53C9.9,8.61,9.46,9.47,8.19,9.51
		c0.02-0.3,0.34-0.3,0.57-0.38C8.59,8.83,8.31,9.24,8,9.13c0.1-0.27,0.15-0.45-0.29-0.38c0.23-0.29,1.06-0.01,1.33-0.48
		C8.78,8.06,8.41,8.58,8,8.55c0.39-0.6,1.03-0.94,1.71-1.24c-0.37-0.34-0.7,0.18-1.14,0.1C8.84,7.13,9.3,7.05,9.71,6.93
		C8.17,6.52,7.63,7.96,6.76,8.55c-0.6-0.1-0.76-0.64-1.14-0.96C5.46,7.26,5.76,6.97,5.34,6.83c-0.6,0.8,0.53,1.41,0.86,1.91
		c0.33,0.05,0.62,0.14,1.05,0.1c0.37,0.56,0.81,1.04,1.33,1.43c0.88-0.22,1.63,0.19,2.09,0.67c0.95,0.2,1.43-0.08,2.09-0.38
		c-0.39,1.24-2.58,0.74-3.14,0c-0.64,0.01-1.18-0.09-1.71-0.19c-0.24-0.34-0.33-0.82-0.67-1.05C5.82,9.68,5.18,8.54,4.58,7.79
		c0.09-0.24,0.48-0.69,0.1-1.15c0.1,0,0.19,0,0.29,0C4.69,6.3,4.77,5.61,4.77,5.01C6.11,4.32,6.8,2.98,7.91,2.05
		c1.63,0.17,2.73-1.1,4.19-0.48c0.1,0.77,1.01,1.1,1.14,2.1c1.68,0.23,2,1.82,2.19,3.54c-0.77-0.84-0.44-1.94-1.24-2.77
		c-0.4,0.05-0.42-0.28-0.86-0.19c-0.51-0.83-0.99-1.68-1.9-2.1c-0.86-0.07-1.55,0.04-1.9,0.48C7.9,2.39,7.31,3.2,6.67,3.96
		c0.31,0.93,1.27,1.21,2,1.72C7.9,5.66,6.84,5.09,6.38,4.44C6.16,4.41,6.28,4.71,6.1,4.73c0.23,0.6,0.78,0.88,1.52,0.96
		C6.7,6.32,6.22,5.03,5.43,4.92C5,5.29,5.03,6.01,5.34,6.45C6.36,6.3,7.2,5.89,8.29,5.97c0.96,0.07,1.85,0.81,3.24,0.67
		c0.28,0,0.32,0.25,0.57,0.29c0.28-1.11-1.02-1.88-1.14-2.49c-0.09-0.47,0.18-0.5,0.29-0.86c0.06-0.2-0.26-0.47,0.1-0.57
		c-0.2-0.12-0.28-0.36-0.57-0.38c-0.27-0.02,0.14,0.49-0.1,0.19c-0.42-0.32,0.43-0.35,0.76-0.29c0.4,0.08,0.81,0.69,0.95,0.77
		c0,0.26,0,0.51,0,0.77C13.01,5,13.26,6.23,13.24,7.4c-0.38-0.06-0.48-0.41-0.95-0.38c0.86,1.18,2.65,2.24,3.81,3.44
		c-0.18-0.59-0.73-0.8-1.05-1.24c0.19-0.23,0.46-0.37,0.57-0.67c0.09-0.47-0.31-0.45-0.19-0.96c0.29,0.06,0.27,0.43,0.48,0.57
		c0.49,0,0.62-0.14,1.05,0c-0.11-0.66-0.39-1.14-0.48-1.82c0.07-0.41,0.56-0.39,0.67-0.77c-0.17-1.31,0.91-1.62,1.9-1.24
		c-0.05,0.33-0.62,0.14-0.95,0.19c0.2,0.22,0.82,0,1.05,0.19c0.37-0.46,1.32-0.5,1.9-0.48c-0.39-0.44-1.31-0.27-1.71,0
		c0.18-0.72,1.42-0.81,1.81-0.29c0.51-0.83,0.79-1.89,1.14-2.87c0.59-0.05,1.04,0.04,1.33,0.29c0.29,0,0.37-0.2,0.57-0.29
		c1.26,0.29,2.05,1.07,2.86,1.82c0.65-1.45,2.35-1.84,4.38-1.91c0.3,0.27,0.56,0.58,0.95,0.77c0.67-0.32,1.47-0.67,2.38-0.57
		c0.55,0.06,1.05,0.45,1.52,0.48C36.2,2.1,35.99,2.4,35.79,2.72c0.73-0.32,0.99-1.11,1.62-1.53c1.02-0.03,1,0.98,2.09,0.86
		c0.11-0.02,0.08-0.17,0.1-0.29c0.51,0.07,1.09-0.67,1.62-0.77c0.31-0.06,0.99-0.18,1.14,0.29c-0.27,0.01-0.62-0.05-0.76,0.1
		c0.32,0.24,0.63,0.19,1.14,0.19c0,0.23-0.16,0.28-0.1,0.57c0.25,0,0.24-0.27,0.38-0.38c0.37-0.02,0.7,0,0.95,0.1
		c0.46-0.14,0.47-0.52,0.86-0.57c1.11-0.16,2.03,1.72,1.43,2.58c0.15,0.39,0.39,0.7,0.48,1.15c-1.01,0.84-0.51,3.19-2.76,2.77
		c0.17,0.25-0.43,0.49-0.38,1.15c-0.58,0.74-1.73,1.11-2.57,0.38c-0.28,0.29,0.25,0.87-0.38,0.86c0.35-1-1.38-1.48-1.62-0.38
		c0.45-0.01,1.08-0.76,1.33-0.1c-0.79-0.15-1.38,0.37-1.71,0.96c0.06,0.14,0.51-0.12,0.57-0.29c0.26,0.36-0.55,0.47-0.76,0.67
		c0.46,0.3,0.82-0.32,1.33-0.29c-0.29,0.45-1.05,0.42-1.52,0.67c0.1,0.84,0.9,0.74,1.71,0.67c0.37-0.04,0.21-0.61,0.57-0.67
		c0.09,0.47-0.12,0.65-0.29,0.86c-0.57,0.05-1.18,0.18-1.71,0c-0.19-0.19-0.28-0.49-0.57-0.57c-0.26,0.68-0.49,2.09,0,2.68
		c1.77,0.04,4.2-0.85,5.71,0c-0.36,0.29-2.25-0.26-3.05,0c0.04,0.18,0.21,0.24,0.19,0.48c0.32,0.04,0.15-0.42,0.57-0.29
		c-0.18,0.18,0.06,0.17,0,0.48c0.27-0.14,0.04-0.32,0.29-0.57c0.2,0.08,0.34,0.24,0.29,0.57c0.19-0.07,0.25-0.26,0.29-0.48
		c0.28,0,0.12,0.45,0.29,0.57c0.3-0.02,0.12-0.52,0.48-0.48c-0.15,0.35-0.06,0.5,0,0.86c0.35-0.07,0.08-0.82,0.19-0.86
		c0.48-0.14,0.22,0.48,0.29,0.77c0.28-0.1,0.1-0.66,0.38-0.77c0.36,0.04-0.05,0.8,0.1,1.24c0.3-0.2,0.14-0.88,0.48-1.05
		c0.38,0.01-0.06,0.65,0.1,1.05c0.34-0.19,0.53-0.65,0.19-0.86c0.21-0.17,0.92-0.04,0.95,0.29c-0.77-0.41-0.52,0.83-0.76,1.24
		c0.38,0.19,0.46-0.75,0.57-1.15c0.41,0.22-0.13,1.21-0.1,1.91c0.41-0.42,0.48-1.13,0.67-1.53c0.36,0.1,0.05,0.65,0,0.96
		c-0.07,0.43-0.13,0.82-0.19,1.15c0.55-0.28,0.41-1.25,0.76-1.72c0.28,0.14,0.08,0.67,0,1.05c-0.08,0.38-0.32,0.81-0.29,1.15
		c0.75-0.2,0.27-1.65,0.95-1.91c-0.05,0.81-0.19,1.53-0.48,2.1c0.48,0.06,0.47-1.18,0.76-1.63c0.51,0.38-0.22,1.36-0.19,2.01
		c0.7-0.26,0.36-1.36,0.86-1.63c-0.48-0.89-1.4-1.33-2.28-1.82c0.58-0.08,1.32,0.3,1.81,0.67c0.48,0.37,1.18,1.06,1.52,1.53
		c0.74,1,1,2.53,1.33,3.92c0.17,0.72,0.34,2.45,0.19,3.63c-0.05,0.39-0.49,0.8-0.19,1.34c-0.27,0.56-0.47,1.08-0.76,1.63
		c-0.52,0.99-1.35,1.86-1.9,2.97c-0.73,1.45,1.39,2.07,1.71,3.16c0.21,0.69-0.02,1.72-0.1,2.39c-0.03,0.29,0.31,0.93-0.38,0.86
		c-0.23-0.2,0.32-0.39,0-0.67c-0.13,0.1-0.35,0.09-0.48,0.19c0.03,0.37,0.23,0.88,0.19,1.34c-0.02,0.29-0.23,0.36-0.19,0.67
		c0.13,1.07,1.05,1.84,1.71,2.49c0.35-0.27-0.4-0.23-0.29-0.57c0.7,0.43,1.61,0.33,2.38,0.29c-0.12,0.41-0.09,0.57,0.29,0.67
		c-0.71,0.95-2.6,0.1-3.33-0.38c-0.54-1.08-1.09-2.02-1.14-3.16c-0.07-1.45,0.22-2.53-0.76-3.63c-0.45-0.51-1.36-1.29-2.09-1.53
		c-2.35-0.76-5.61,1.29-8.38-0.1c-1.27,2.55-3.16,4.48-5.62,5.84c0.07,0.44,0.6,0.41,0.57,0.96c-0.41-0.06-0.46-0.5-0.86-0.57
		c-0.39,0.08-0.7,0.26-1.14,0.29c0.09,0.82-0.4,1.81-0.95,2.3c-0.08,0.41,0.44,0.49,0.19,0.77c-0.9-0.38,0.19-1.76-0.29-2.58
		c-0.63,0.3-1.21,0.63-1.43,1.34c0.09,0.39,0.58,0.37,0.76,0.67c-0.35,0.34-0.52-0.3-0.95-0.19c-0.26,0.4,0.24,0.84,0.38,1.15
		c1.47,0.28,3.25,0.24,4,1.24c0.25,0.8,0.45,1.55,1.24,1.72c0.71,0.16,1.64-0.41,2.47-0.1c-0.73,0.56-2.03,1-3.33,0.67
		c-0.06,0.25,0.04,0.34,0.29,0.29c-0.01,0.27-0.4,0.17-0.67,0.19c-0.13-0.25-0.13-0.63-0.29-0.86c-0.47-0.28-0.62-0.85-1.14-1.15
		c-1.22-0.69-3.24-0.22-4.19-1.24c-0.12-0.3-0.23-0.59-0.48-0.77c-0.66,0.18,0,1.01,0.19,1.24c-0.2,0.39-0.03,0.82,0.1,1.15
		c-0.94-0.7-1.03-2.24-0.67-3.54c0.3-0.01,0.33,0.25,0.38,0.48c0.52-0.21,0.81-0.07,1.33-0.29c-0.31-0.12-1.08,0.11-1.43-0.19
		c0.29-0.37,0.76-0.18,1.14-0.29c-0.4-0.2-1.2-0.01-1.43-0.38c-0.16-0.04,0.01,0.36,0.1,0.38c-0.56,0.21-0.5-1.03-1.24-0.96
		c-0.31,0.75-0.09,1.67-0.38,2.39c-0.76-0.67,0.01-1.7-0.1-2.58c-0.91-0.87-2.55-1.4-3.62-2.3c-1.19-1-2.44-2.13-3.33-3.63
		c-1.07-0.06-1.95,0.12-2.86,0c-2.34-0.31-4.24-2.11-6.47-0.86c-0.86-0.13-0.96,0.5-1.43,0.77c0.37,0.61-0.17,0.74-0.38,1.24
		c0.03,1.16,0.32,2.07-0.19,2.77c-0.42,0.58-1.4,0.71-1.62,1.43c0.01,1.38-0.7,2.04-1.52,2.58c-0.55,1.48,0.35,2.85-0.76,3.73
		C0.41,45.81,1.48,44,0.96,43.08c0.19-0.29,0.48-0.47,0.67-0.77c-0.64-0.29-0.94,0.59-1.71,0.48c0.06-0.48,0.34-0.74,0.76-0.86
		c0.5-0.58,1.06-1.11,1.43-1.82c0.22-0.03,0.39-0.11,0.57-0.19c0.1-0.25,0.11-0.59,0.1-0.96c0.74-0.84,1.86-1.58,1.33-3.16
		c-0.26-0.15-0.63-0.2-1.05-0.19c-0.28,0.22-0.2,1.14-1.05,1.05c-0.24-0.31,0.07-0.71,0.1-1.05c0.59-0.43,1.37-0.66,2.09-0.96
		c0.63-0.89,1.27-1.78,1.81-2.77c0.2-1.52-0.75-2.4-1.14-3.64c-0.16-0.49-0.03-1.18-0.38-1.43c-0.29-6.42,2.49-10.94,7.61-11.96
		c1.82-0.36,3.96-0.25,5.62,0.48c0.32-0.06,0.45-0.31,0.38-0.77c0.36,0.08,0.37,0.53,0.38,0.96c0.57,0.03,0.52-0.56,0.76-0.86
		c0.07-0.3-0.53-0.41-0.19-0.67c-0.86-0.86-1.2-2.24-2.47-2.68c0.36,0.8,1.56,1.43,1.43,2.58c-0.3-0.82-0.95-1.28-1.24-2.1
		c-0.57,0.03-0.75,0.46-1.33,0.48C15.01,13.43,13.43,13,12.95,12.19z M22.94,1.57c-0.14-0.02-0.16-0.16-0.29-0.19
		C22.58,1.57,22.91,1.81,22.94,1.57z M32.18,9.89c-0.04-0.18-0.37-0.08-0.29-0.38c0.02-0.75,0.4-1.13,0.76-1.53
		c0.1-0.72,0.04-1.11-0.1-1.53c-0.22-0.7,0.12-1.09,0.1-1.63c-0.02-0.57-0.41-1.14-0.48-1.72c-0.03-0.26,0.08-0.62,0-0.86
		c-0.24-0.69-0.82-0.96-1.62-0.86c-1.23,0.15-2.45,0.58-2.95,1.24c-0.27,0.35-0.29,1.01-0.57,1.43c-0.25,0.39-0.76,0.59-0.95,0.86
		c-0.79,1.1-0.05,2.24-0.76,3.35c0.2,0.15,0.24,0.46,0.38,0.67c0.08,1.16,1.12,1.36,1.52,2.2c0.11,0.53,0.02,1.25,0.57,1.34
		c0.21-1.27-0.31-1.8-0.76-2.39c0.44,0.03,0.41,0.54,0.86,0.57c-0.11-0.84-1.35-1.07-1.14-1.91c0.12,0.42,0.48,0.6,0.76,0.86
		c-0.07-0.72-1.08-1.02-0.86-1.72c0.31,0.11,0.33,0.5,0.67,0.57C27.17,8.1,27,7.76,26.85,7.4c0.54-0.06,0.09-1.12,0.38-1.43
		c0.62,0.34,0.83,1.08,1.43,1.43c-0.11-1.1-1.76-2.45-0.57-3.35c0.26,0.82,0.56,1.61,1.24,2.01c-0.4-0.71-0.95-1.35-0.95-2.2
		c0.47,0.16,0.47,1.31,0.95,1.15c-0.31-0.46-0.54-1.5-0.38-2.1c0.1,0.6,0.28,1.12,0.57,1.53c-0.08-0.58-0.14-1.35,0.1-2.01
		c0.3,0.57-0.05,1.31,0.38,1.63c-0.17-0.97,0.2-1.62,0.38-2.2c0.22,0.17-0.22,0.81,0.1,1.05c0.31-0.29,0.17-1.04,0.76-1.05
		c-0.11,0.62-0.29,1.18-0.67,1.53c0,1.4-0.82,2.54-1.05,3.83c-0.06,0.35,0.02,0.78-0.1,1.15C29.31,8.68,29,9,28.85,9.32
		c-0.38,0.76-0.7,1.72-0.48,2.77c0.14-0.18,0.4-0.24,0.48-0.48c-0.11-0.01-0.27,0.02-0.29-0.1c0.49-0.4,0.93-0.85,1.24-1.43
		c-0.44,0.03-0.41,0.54-0.86,0.57c0.21-0.29,0.17-0.4,0-0.67c0.67-0.93,1.09-2.09,1.81-2.97C30.41,7,30.4,7.31,30.08,7.31
		c0.32-0.23,0.21-0.91,0.76-0.67c-0.01-0.5,0.26-0.36,0.38-0.86c0.02-0.38-0.19-0.94,0.19-1.15c-0.03,0.31-0.24,0.72,0.19,0.77
		c0.27-0.15,0.12-0.71,0.57-0.67c0,0.31-0.16,0.48-0.1,0.86C31.67,6,31.34,6.5,31.22,7.21c-0.29,0.35-0.95,0.82-0.86,1.24
		c0.72-0.39,0.86-1.36,1.43-1.91C31.76,7,31.53,7.05,31.7,7.5c-0.46,0.34-0.74,0.85-1.14,1.24c-0.29,0.2-0.59,0.18-0.67,0.38
		c0.73,0.52,0.87-1.07,1.71-1.05c-0.25,0.61-0.87,0.84-1.24,1.34c0.16,0.1,0.07,0.44,0.29,0.48c-0.16,0.16-0.18,0.46-0.38,0.57
		c-0.13,0.03-0.18,0.14-0.38,0.1c-0.08,0.5-1,0.65-0.86,1.05c0.14-0.06,0.4-0.48,0.48-0.29c-0.2,0.27-0.52,0.43-0.67,0.77
		c1.02-0.09,0.98-1.25,1.9-1.43c-0.43,0.49-0.77,1.15-1.33,1.53c-0.27,0.18-0.7,0.08-0.86,0.48c1.05,0.04,1.32-0.72,2-1.05
		c-0.1,0.64-0.91,0.55-1.05,1.15C31.03,12.44,31.92,11.48,32.18,9.89z M28.85,12.95c-0.11,0.3-0.35,0.47-0.29,0.96
		c0.66-0.15,1.18-0.42,1.71,0c0.2-0.4,0.28-0.93,0.48-1.34C30.22,12.48,29.85,13.22,28.85,12.95z M32.94,1.76
		c0.06,0.23-0.12,0.69,0.1,0.77c0-0.35,0.19-0.51,0.38-0.67c0.34,0.23,0.88-0.37,1.33,0c-0.12,0.23-0.35,0.35-0.29,0.77
		c0.51-0.1,0.73-0.38,0.95-0.96C34.58,1.43,33.72,1.52,32.94,1.76z M41.22,1.57c0.22-0.22-0.25,0.08-0.48,0
		c-0.04,0.44-0.69,0.26-0.86,0.57c0.29,0,0.57,0,0.86,0C40.85,1.9,40.98,1.68,41.22,1.57z M36.74,6.83
		c0.04-0.16,0.45-0.43,0.57-0.19c-0.53,0.78-1.35,1.26-2.19,1.72c0.93-0.11,1.37-0.73,2.09-1.05c-0.35,0.99-1.61,1.06-2.38,1.63
		c-1.01-0.09-1.71,0.13-2.19,0.57c0.7,0.11,1.45-0.69,2-0.1c-0.76-0.12-1.37,0.21-2,0.48c0.17,0.29,0.53-0.19,0.67,0.1
		c-0.02,0.3-0.7,0.22-0.86,0.1c0.01,0.53,0.44,0.65,0.95,0.67c0.66-0.9,2.82-0.29,3.14-1.53c0-0.22,0-0.45,0-0.67
		C37,8.04,37.61,7.7,37.89,7.02c0.01-0.24,0.01-0.46-0.1-0.57c0.67-0.59,0.55-2.14,0.1-2.87c0.22-0.45,0.45-0.88,0.38-1.63
		c-0.33-0.61-1.69-0.31-1.43,0.38c0.32-0.19,0.49-0.53,0.95-0.57c-0.32,0.28-0.46,0.68-0.76,0.96c-0.48,0.44-1.21,0.62-1.62,1.05
		c-0.64,0.68-0.74,1.84-1.71,2.2c1.8,0.31,2.78-1.03,4-1.63c-0.68,0.72-1.43,1.37-2.38,1.82c-0.67,0.09-1.24,0.28-1.71,0.57
		c1.17-0.22,2.08-0.52,2.86-0.96c0.44-0.25,0.81-0.68,1.24-0.67c-0.96,1.2-2.88,1.44-4.28,2.2c0.71-0.14,1.33-0.38,2.09-0.48
		c-0.45,0.66-1.77,0.45-2.28,1.05c0.5,0.13,1.29-0.51,1.9-0.29c1-0.43,1.47-1.91,2.66-1.82C37.31,5.93,36.65,6.41,36.74,6.83z
		 M32.94,8.46c1.32-0.21,3.02-0.54,3.43-1.34C35.5,7.84,33.84,7.77,32.94,8.46z M43.5,2.24c-0.04,0.23,0.17,0.21,0.1,0.48
		c0.55-0.34,0.95-0.84,1.9-0.77C44.97,1.14,44.28,2.37,43.5,2.24z M34.37,1.95c-0.13,0-0.25,0-0.38,0
		C33.92,2.33,34.39,2.26,34.37,1.95z M35.22,2.81c0.43-0.01,0.41-0.48,0.57-0.77C35.33,2.02,35.29,2.44,35.22,2.81z M43.03,2.43
		c0.22,0.03,0.36-0.02,0.38-0.19c-0.13-0.03-0.18-0.14-0.38-0.1C43.03,2.24,43.03,2.33,43.03,2.43z M39.5,2.62c0.06,0,0.13,0,0.19,0
		c0.11-0.14,0.1-0.23-0.1-0.29C39.59,2.46,39.48,2.47,39.5,2.62z M42.27,5.97c1.48-0.04,2.27-0.78,3.24-1.34
		c-0.01-0.48-0.78,0.52-0.95-0.1c0.37-0.14,0.83-0.18,0.76-0.77c-0.32-0.17-0.49,0.06-0.95,0c0.26-0.51,1.13-0.39,1.33-0.96
		C45.33,2.84,44.91,3.3,44.55,3c0.29-0.22,0.81-0.21,0.86-0.67c-0.3,0.01-0.42,0.22-0.76,0.19c-0.45,1.43-1.48,2.28-2.86,2.77
		c-0.76,1.06-2.02,1.61-2.66,2.77c0.24,0.08,0.51,0.13,0.86,0.1c-0.01,0.24-0.18,0.3,0,0.48c0.66,0.27,1.56,0.28,2.09,0.67
		c0.96-0.05,1.77-0.97,1.24-1.91c0.54-0.39,1.41-0.44,1.71-1.05c-0.85,0.31-2.24,1.04-3.24,0.57c1.69,0.07,2.55-0.69,3.71-1.15
		c0.2,1.15-0.95,0.96-1.33,1.53c1.12,0.11,1.95-0.96,1.33-1.72c-1.02,0.37-2.59,1.43-3.81,0.86c2.1,0.01,3.34-0.85,4.57-1.72
		C45.2,4.97,44.04,6.44,42.27,5.97z M39.98,2.53c0.02,0.07,0,0.19,0.1,0.19c0-0.13,0.17-0.09,0.19-0.19
		C40.13,2.49,40.11,2.41,39.98,2.53z M24.56,4.92c0.01-0.12,0.03-0.23,0.19-0.19c-0.03,0.34-0.22,0.81,0,1.24
		c-0.1-0.39,0.15-0.42,0.29-0.57c-0.4-0.26-0.09-0.82,0.1-1.05c-0.19-0.3-0.11-0.31-0.38-0.57c-0.01-0.39,0.2-0.95-0.29-1.05
		C24.53,3.42,24.34,4.37,24.56,4.92z M43.12,3.1c0.01-0.06,0.01-0.11,0.1-0.1c-0.01-0.12-0.03-0.23-0.19-0.19
		C43.04,2.92,43.01,3.08,43.12,3.1z M34.84,3.39c0-0.19,0.26-0.12,0.19-0.38C34.79,2.9,34.61,3.33,34.84,3.39z M12,3.39
		c0.03-0.13-0.06-0.37-0.1-0.19C11.88,3.32,11.96,3.57,12,3.39z M22.85,6.64c-0.25,0.04-0.24,0.4-0.57,0.29
		c-0.01,0.46,0.44,0.45,0.48,0.86c-0.41-0.32-0.81-0.65-1.05-1.15c0.34-0.04,1,0.24,1.14-0.38c-0.36,0.01-0.69,0-0.86-0.19
		c0.48-0.01,1.03,0.25,1.33-0.1c-0.35-0.25-1.27,0.06-1.33-0.48c0.53,0.05,0.85,0.3,1.52,0.19c-0.16-0.47-1.17-0.1-1.24-0.67
		c0.22,0.17,0.53,0.23,0.95,0.19c-0.16-0.46-1.12-0.24-0.76-0.96c-0.24-0.05-0.39-0.18-0.57-0.29c-0.06-0.34,0.29-0.28,0.29-0.57
		c-0.62-0.09-0.86,0.72-0.95,1.34c-0.1,0.62,0.16,1.35-0.1,1.91c0.26,0.41,0.52,0.82,0.76,1.24c0,0.19,0,0.38,0,0.57
		c0.68,0.88,1.18,1.94,2.47,2.2c0.13,0.19,0.45,0.69,0.76,0.38c-0.02-0.62-0.8-1.05-0.38-1.53c-0.37-0.87-2.02-0.46-2.28-1.43
		c0.53,0.39,1.34,0.5,2,0.77c0.03-0.48-0.33-0.56-0.48-0.86c0.15-0.01,0.33,0.01,0.29-0.19c-0.51-0.16-0.85-0.48-1.24-0.77
		c0.42,0,0.59,0.24,0.86,0.38c-0.17-0.34,0.32-0.49,0.1-0.57C23.62,7.03,23.29,6.56,22.85,6.64z M38.65,3.77
		c0.15,0.26,0.32-0.14,0.1-0.19C38.74,3.67,38.67,3.69,38.65,3.77z M39.6,4.34c-0.07-0.21-0.05-0.52-0.29-0.57
		C39.31,4.06,39.4,4.26,39.6,4.34z M45.88,4.15c0.02-0.07-0.03-0.56-0.1-0.29C45.7,4.23,45.84,4.34,45.88,4.15z M40.27,4.15
		c-0.19,0.03-0.19-0.13-0.29-0.19C39.9,4.3,40.21,4.46,40.27,4.15z M42.07,4.44c0.16,0.01,0.24-0.07,0.29-0.19
		C42.21,4.26,42.03,4.23,42.07,4.44z M23.99,4.53c0.1,0,0.11,0.08,0.19,0.1c-0.01-0.15,0.01-0.33-0.19-0.29
		C23.99,4.41,23.99,4.47,23.99,4.53z M23.61,4.73c-0.24,0.12-0.4-0.28-0.48,0C23.19,4.78,23.59,4.95,23.61,4.73z M39.12,5.49
		c0-0.16,0.26-0.05,0.29-0.19c-0.25,0.02-0.11-0.84-0.38-0.48C39.37,4.93,38.85,5.45,39.12,5.49z M20.56,8.55
		c1.22,0.56,1.77,1.79,2.57,2.77c-0.02-0.38-0.02-0.24,0.29-0.57c-0.16,0-0.32,0-0.48,0c-0.27-0.81-0.77-1.39-1.43-1.82
		c0.14-0.53-0.25-1.17-0.67-1.43c-0.24,0.18,0.2,0.5-0.19,0.57c-0.13-0.81-1.16-1.24-1.14-2.49c-0.44-0.08,0.06,0.32-0.19,0.29
		c-0.46-0.37-0.87-1.3-1.71-0.96C19.02,5.71,19.94,6.98,20.56,8.55z M19.33,5.39c0.02-0.27,0.01-0.52-0.29-0.48
		C19.07,5.14,19.14,5.33,19.33,5.39z M40.27,5.01C39.78,5.24,40.59,5.26,40.27,5.01L40.27,5.01z M29.04,6.26
		c-0.39-0.28-0.5-0.84-0.95-1.05C28.28,5.61,28.54,6.46,29.04,6.26z M17.9,5.39c-0.06-0.03-0.37-0.24-0.38,0
		C17.7,5.3,17.84,5.68,17.9,5.39z M38.74,5.97c0.01-0.17,0.39-0.7,0-0.67C38.75,5.27,38.63,6.24,38.74,5.97z M20.76,6.83
		c0.41-0.31-0.16-0.62,0.1-1.15c-0.12-0.01-0.13-0.12-0.29-0.1C20.6,6.02,20.44,6.67,20.76,6.83z M19.99,6.06
		c0.03-0.22-0.02-0.36-0.19-0.38C19.65,5.82,19.7,6.11,19.99,6.06z M18.57,6.06c-0.23-0.19-0.89-0.44-1.24-0.19
		C17.75,5.87,18.28,6.25,18.57,6.06z M38.84,6.54c-0.03-0.47-0.32-0.13-0.57-0.29C38.23,6.58,38.68,6.42,38.84,6.54z M18.19,6.54
		C18.8,6.86,18.57,6.27,18.19,6.54L18.19,6.54z M28.27,7.98c-0.12-0.01-0.13-0.12-0.29-0.1c0.11,0.37,0.33,0.63,0.67,0.77
		c-0.1-0.39,0.29-0.78,0-1.05c-0.07,0.47-0.06-0.05-0.1-0.1c-0.14-0.14-0.41-0.28-0.57-0.48c-0.15-0.18-0.15-0.41-0.38-0.38
		C27.42,7.14,28.22,7.41,28.27,7.98z M17.71,6.73c-0.1,0.01-0.07,0.12,0.1,0.1c0.46,0.14,1.1,0.61,1.43,0.57
		C18.79,7.11,18.3,6.88,17.71,6.73z M24.94,7.02c0-0.13,0.17-0.09,0.19-0.19c-0.13,0-0.21-0.05-0.29-0.1
		C24.86,6.85,24.83,7.01,24.94,7.02z M6.19,7.31c-0.05-0.14,0.37-0.23,0.1-0.29C6.3,7.12,5.88,7.21,6.19,7.31z M17.42,7.21
		c-0.16-0.08,0.49,0.39,0.76,0.1C17.7,7.17,17.02,7,17.42,7.21z M38.27,8.26c0.58-0.04,0.56-0.89,0-0.96
		C38.1,7.69,38.22,7.9,38.27,8.26z M27.99,7.59C27.73,7.66,27.8,7.4,27.61,7.4C27.59,7.68,27.93,7.93,27.99,7.59z M18.76,7.59
		c-0.06-0.03-0.37-0.24-0.38,0C18.43,7.62,18.74,7.83,18.76,7.59z M19.33,7.88c-0.12-0.02-0.47-0.28-0.48-0.1
		C18.89,8.13,20.25,7.91,19.33,7.88z M36.84,9.22c0.59,0.36,1.04,0.87,1.33,1.53c0.15-0.98,1.28-1.62,0.86-2.58
		c-0.73,0.13-0.56,1.67-1.14,1.63c0.22-0.69,0.07-1.18,0.1-2.01c-0.13,0-0.21-0.05-0.29-0.1C37.63,8.42,36.69,8.27,36.84,9.22z
		 M6.76,8.26c-0.05-0.14,0.37-0.23,0.1-0.29C6.87,8.08,6.45,8.17,6.76,8.26z M10.76,8.26c0.03-0.13-0.06-0.37-0.1-0.19
		C10.64,8.2,10.73,8.45,10.76,8.26z M11.14,9.51c0.72-0.11,1.11-0.92,0.67-1.43C11.77,8.74,11.48,9.14,11.14,9.51z M19.14,8.26
		C18.32,7.94,18.5,8.59,19.14,8.26L19.14,8.26z M16,8.46c-0.44,0.4-0.27,1.27,0.19,1.53c0.39-0.12,0.55-0.47,0.48-1.05
		c-0.24-0.12-0.46,0.21-0.48,0c0.05-0.4,0.74-0.15,0.67-0.67C16.5,8.26,16.48,8.59,16,8.46z M10.19,9.79
		c0.38-0.18,0.69-0.06,0.86-0.29c-0.49-0.12,0.64-0.97,0.1-1.15C11.06,9.08,10.5,9.31,10.19,9.79z M20.09,8.46
		c-0.12-0.11-0.75-0.19-0.86,0C19.59,8.33,19.89,8.74,20.09,8.46z M32.94,8.93c0.76-0.33,1.61,0.02,2.09-0.57
		C34.1,8.32,33.49,8.59,32.94,8.93z M20.37,8.93C19.96,9,19.3,8.81,19.04,9.03C19.38,9.22,20.12,9.13,20.37,8.93z M18.57,9.41
		c-0.18-0.04-0.24-0.21-0.48-0.19C18.03,9.45,18.54,9.58,18.57,9.41z M13.24,9.7c0.3,0.05,0.39-0.12,0.48-0.29
		C13.49,9.44,13.3,9.51,13.24,9.7z M19.61,9.7c0.42,0.01,0.82-0.01,0.95-0.29C20.16,9.42,19.86,9.54,19.61,9.7z M11.52,10.08
		c0.35,0.03,0.49-0.15,0.57-0.38C11.81,9.73,11.62,9.87,11.52,10.08z M30.27,9.79C29.86,10.32,30.51,10.15,30.27,9.79L30.27,9.79z
		 M21.04,10.08c0.1,0,0.19,0,0.29,0c0.01-0.17-0.09-0.22-0.29-0.19C21.04,9.95,21.04,10.02,21.04,10.08z M19.99,10.27
		c0.13-0.31-0.57-0.24-0.57-0.1C19.71,10.11,19.7,10.34,19.99,10.27z M20.09,10.27c0.34,0.05,0.59,0.12,0.76-0.19
		C20.52,10.07,20.24,10.11,20.09,10.27z M14.85,11.8c0.09-0.39,0.56-0.4,1.05-0.38c-0.28-0.55-0.88,0.1-1.24,0.1
		c0.17-0.56,1.07-0.39,1.52-0.67c-1.13-0.17-1.51,0.4-2.19,0.67c0.16-0.6,0.99-0.54,1.33-0.96c-0.44-0.06-0.61,0.15-0.95,0.19
		c0.05-0.34,0.53-0.23,0.67-0.48c-0.7,0.03-1.3,0.16-1.62,0.57c0.03,0.2,0.35,0.09,0.38,0.29c-0.1,0.41-0.51,0.51-0.57,0.96
		c0.27,0.45,1.12,0.66,1.62,0.57c0.03-0.71,0.65-0.81,1.14-1.05C15.39,11.39,15.15,12.03,14.85,11.8z M17.04,10.85
		c-0.21-0.17-0.13-0.64-0.57-0.57C16.5,10.57,16.82,11.07,17.04,10.85z M19.9,10.66c0.67,0.27,1.52-0.05,1.9-0.38
		C21.12,10.56,20.67,10.54,19.9,10.66z M25.99,11.13c-0.12-0.51,0.5,0.07,0.48-0.29c-0.01-0.09-0.36-0.54-0.76-0.57
		C25.82,10.53,25.86,10.89,25.99,11.13z M35.89,10.46c-0.54,0.14,0.23,0.09,0.29,0.1c0.3,0.01,0.78,0.07,0.95-0.1
		C36.59,10.25,36.05,10.42,35.89,10.46z M21.33,11.13c0.24-0.01,0.45-0.05,0.57-0.19C21.77,10.82,21.39,10.92,21.33,11.13z
		 M34.84,11.23c0.38,0.1,1.1-0.21,1.52-0.38C35.76,10.88,35.24,11,34.84,11.23z M37.32,10.85c-0.23,0.06-0.69-0.12-0.76,0.1
		C36.89,10.87,37.21,11.24,37.32,10.85z M23.32,11.23c0.33,0.03,0.51,0.11,0.76-0.1C23.9,10.96,23.5,11.1,23.32,11.23z M21.23,11.13
		c-0.2,0.06-0.63-0.12-0.67,0.1C20.73,11.4,21.15,11.34,21.23,11.13z M18.09,11.61c-0.3,0.43,0.27,1.13,0.57,0.96
		c0-0.93-0.63-1.22-1.43-1.34C17.2,11.68,17.89,11.4,18.09,11.61z M27.7,13.14c-0.17-0.46-0.5-0.77-0.67-1.24
		c-0.07-0.21,0.14-0.69-0.29-0.67c-0.19,0.32-0.26,0.76-0.86,0.67c0.11,0.59-0.58,1.48-0.57,2.39c0.01,0.93,0.45,1.85,1.52,1.63
		c-0.18-0.14-0.49-0.14-0.57-0.38c0.06-0.13,0.37-0.01,0.38-0.19c-0.07-0.22-0.66,0.09-0.57-0.29c0.2-0.06,0.66,0.15,0.57-0.19
		c-0.32-0.03-0.65-0.05-0.86-0.19c0.23-0.31,1.26,0.18,1.33-0.29c-0.52,0.08-1.31-0.08-1.14-0.38c0.34,0.04,0.64,0.12,0.95,0.19
		c0.03-0.48-0.79-0.1-0.76-0.57c0.38-0.05,0.87,0.43,1.05,0c-0.31-0.07-0.72-0.05-0.76-0.38c0.28-0.02,0.63,0.38,0.86,0.1
		c-0.67-0.19-0.86-0.86-1.33-1.24C26.89,12.11,26.67,13.25,27.7,13.14z M32.94,12.19c0.62-0.35,1.27-0.25,1.9-0.29
		c0.47-0.03,0.99-0.35,1.43-0.38c0.34-0.03,0.79,0.33,1.05-0.1C35.87,11.32,34.02,11.61,32.94,12.19z M23.23,11.71
		c0.35,0.19,0.35,0.73,0.86,0.77c0.06-0.31-0.18-0.3,0-0.48c0.46-0.18,0.9,0.16,1.33-0.1c-0.49-0.38-1.66,0.26-1.9-0.19
		c0.05-0.23,0.62,0.04,0.57-0.29C23.66,11.55,23.38,11.46,23.23,11.71z M33.51,11.42c-0.14,0.05-0.49-0.11-0.48,0.1
		C33.18,11.67,33.42,11.59,33.51,11.42z M19.14,12.19c-0.11,0.3-0.35,0.47-0.29,0.96c0.12,0.04,0.19,0.12,0.19,0.29
		c0.42,0.07,0.42-0.28,0.76-0.29c-0.04,0.28-0.41,0.23-0.48,0.48c0.3,0.25,0.71,0,0.95-0.1c-0.05,1.19-1.09,1.4-1.05,2.68
		c1.04,0.16,0.99,0.31,1.43-0.57c0.13-0.27,0.42-0.69,0.48-0.96c0.08-0.42-0.12-0.88-0.1-1.24c0.02-0.29,0.27-0.4,0.1-0.57
		c-0.47-0.21-0.46,0.55-0.67,0.29c-0.08-0.33,0.11-0.4,0.19-0.57c-0.36-0.09-0.58-0.31-0.48-0.86c-0.5,0.35-0.71-0.08-1.43,0
		C18.63,12.12,19.03,12.01,19.14,12.19z M35.41,12.76c0.5-0.06,1.1-0.65,1.43-0.1c-1.07-0.07-1.6,0.53-2.57,0.29
		c0.04,0.51,0.97,0.11,1.24,0.38c-0.27,0.21-0.99-0.04-1.24,0.19c0.23,0.08,0.66-0.02,0.67,0.29c-0.23,0.01-0.46,0.01-0.57-0.1
		c-0.12,0.44,0.48,0.15,0.57,0.38c-0.18,0.17-0.63,0.07-0.95,0.1c0.86,1.3,1.48-0.65,2.76-0.38c0.51-0.53,0.48-1.35,0.67-2.01
		c-0.93-0.25-1.61,0.25-2.28,0.38c-0.43,0.08-0.97-0.22-1.33,0.19c1.24,0.46,1.97-0.62,3.05-0.29c-0.84,0.23-1.92,0.65-2.76,0.57
		C34.5,12.79,34.95,12.82,35.41,12.76z M24.66,13.14c0.44-0.12,0.41-1.16-0.29-0.96C24.42,12.55,24.51,12.87,24.66,13.14z
		 M22.85,12.57c-0.48,0-0.67,0.28-1.05,0.38c-0.08,0.31,0.31,0.13,0.29,0.38c-0.14,0.14-0.15,0.42-0.19,0.67
		c0.2,0.66,0.68,1.04,1.14,1.43c-0.07,1.1,1.73,1.31,1.71,0.1c-0.44,0.01-0.61,0.28-1.14,0.19c0-0.19-0.26-0.12-0.19-0.38
		c0.31,0.14,0.8,0.09,1.24,0.1c0.11-0.59-0.64-0.31-0.67-0.77c0.34-0.3,0.46,0.24,0.95,0.1c-0.08-0.34-0.27-0.31,0-0.57
		c-0.06-0.17-0.45,0.01-0.48-0.19c-0.03-0.25,0.53,0.09,0.38-0.29c-0.6-0.47-1,0.5-1.24,0.38c0.04-0.41,0.42-0.47,0.48-0.86
		C23.4,13.29,23.36,12.7,22.85,12.57z M33.7,12.76c-0.54-0.06-0.99-0.21-1.62-0.19c-0.44,0.48-1,0.84-1.24,1.53
		c0.74-0.05,0.78-0.81,1.52-0.86c-0.43,0.49-1.04,0.8-1.43,1.34c0.84-0.21,1.37-1.24,2.57-0.77c-0.18,0.29-0.47,0.04-0.76,0.1
		c-0.61,0.12-1.15,0.61-1.52,0.96c0.5-0.01,0.8-0.72,1.33-0.38c-0.72,0.55-1.97,0.57-2.09,1.72c0.29,0.13,0.52,0.31,0.95,0.29
		c0.13-0.06,0.01-0.37,0.19-0.38c0.32,0.18,0.67,0.54,1.14,0.29c0.23,0.5,0.85,0.61,1.33,0.86c-0.34-0.49-0.63-1.03-1.14-1.34
		c0.25-0.14,0.2-0.51,0.29-0.57c0.31,0.08,0.45,0.7,0.76,0.48c-0.09-0.52-0.44-0.77-0.48-1.34C34.08,14.11,34.23,13.3,33.7,12.76z
		 M28.08,13.14c-0.83,0.82-0.6,2.71-1.24,3.73c-0.23-0.06-0.16-0.42-0.57-0.29c0.04,0.71,0.22,0.92,0.38,1.05
		c0.08,1.17-0.61,2.41,0,3.25c0.27-0.01,0.62,0.05,0.76-0.1c-0.09-2.58,0.25-5.27,0.95-7.56C28.25,13.23,28.24,13.12,28.08,13.14z
		 M37.41,14.48c0.06-0.38-0.14-0.5-0.29-0.67C36.92,14.05,37.19,14.38,37.41,14.48z M28.27,17.35c0.6,0.06,0.72-0.36,0.67-0.96
		c0.72-0.13,1.37-0.34,1.43-1.15c-0.27-0.3-0.3-0.84-0.38-1.34C27.9,14.06,28.52,16.06,28.27,17.35z M19.8,14.48
		c0.01-0.36-0.37-0.33-0.67-0.38C19.14,14.45,19.42,14.52,19.8,14.48z M36.74,14.67c0-0.13,0-0.26,0-0.38c-0.13,0-0.25,0-0.38,0
		C36.38,14.53,36.5,14.66,36.74,14.67z M21.23,14.77c-0.03,0.04-0.11,0.57-0.1,0.77c0.06,0.8,0.77,2.27,1.52,2.3
		c0.07-0.38-0.4-0.23-0.38-0.57c0.2,0.05,0.27,0.24,0.57,0.19c0-0.35,0.35-0.85,0.67-0.57c-0.03,0.32-0.42,0.28-0.48,0.57
		c0.31,0.06,0.44-0.07,0.67-0.1c-0.02,0.27-0.45,0.12-0.38,0.48c0.29,0,0.37-0.2,0.57-0.29c0-0.22,0-0.45,0-0.67
		c-0.31-0.39-1.01-0.39-0.95-1.15c-0.61-0.34-0.9-1.01-1.52-1.34C21.71,14.86,21.22,14.78,21.23,14.77z M40.36,15.44
		c0.12-0.17,0.24-0.95-0.19-0.86C40.16,14.94,40.21,15.24,40.36,15.44z M35.98,15.34c0.33-0.02,0.51-0.19,0.76-0.29
		c-0.38-0.06-0.48-0.41-0.95-0.38C35.68,15.07,35.99,15.05,35.98,15.34z M16.47,18.31c-0.3-0.91-1.19-1.74-0.86-2.97
		c0.42-0.32,1.05,0.39,1.43,0.1c-2.93-0.99-7.09-0.22-8.66,1.63c0.41,1.59,1.72,2.8,1.9,4.3c-0.63-1.47-1.8-2.4-2.09-4.21
		c-0.4,0.1-0.58,0.44-0.86,0.67c-0.01,0.3,0.3,0.27,0.19,0.67c-0.17-0.1-0.24-0.53-0.48-0.29c-0.24,0.45-0.86,0.85-0.67,1.43
		c-0.12-0.01-0.13-0.12-0.29-0.1c0,0.22,0,0.45,0,0.67c0.61,0.09,0.06-0.4,0.57-0.38c-0.06,0.41,0.21,0.49,0.38,0.67
		c-0.07-0.35-0.54-0.79-0.29-1.15c-0.01,0.43,0.19,0.17,0.48,0.38c0.02-0.45-0.35-0.87-0.19-1.15c0.45,0.11,0.29,1.27,0.76,1.05
		c0.21-0.19-0.51-0.76-0.1-1.15c0.4,1.55,1.42,2.46,1.9,3.92c-0.76-0.67-0.93-1.93-1.81-2.49c1.53,3.6,3.83,6.42,7.52,7.84
		c-0.42-0.52-1.16-0.65-1.71-1.05c-0.29-0.21-0.56-0.6-0.86-0.86c-0.79-0.69-1.37-1.19-2-1.91c-0.29-0.33-0.89-0.63-0.76-1.15
		c0.92,1.53,2.42,2.48,3.71,3.64c0.74,0.08,1.3,0.86,2.09,0.57c-1.29-0.44-2.02-1.07-2.95-1.82c-0.43-0.35-0.86-0.74-1.24-1.15
		c-0.84-0.91-1.82-1.92-2.09-2.97c-0.51-0.83-1.55-1.63-1.43-2.77c1.84,3.54,3.73,7.03,7.9,8.23c-0.29-0.3-0.69-0.48-1.05-0.67
		c-1.52-0.81-3.08-2.27-4-3.54c-0.12-0.17-0.35-0.42-0.29-0.67c1.51,1.64,2.75,3.55,5.33,4.11c-0.12-0.33-0.51-0.35-0.76-0.48
		c-1.78-0.92-3.24-2.55-4.09-4.02c1.46,1.44,2.76,3.54,5.04,3.83c-1.43-0.83-3.24-1.78-3.71-3.25c0.98,1.31,2.45,2.13,4,2.87
		c-0.97-0.98-2.42-1.53-3.33-2.58c-0.2-0.24-0.38-0.56-0.48-0.86c1.09,1.26,2.51,2.19,4.19,2.87c-0.12-0.43-0.65-0.48-0.95-0.67
		c-1.05-0.67-2.01-1.48-2.66-2.49c1.2,1.05,2.44,2.07,4.09,2.68c-0.26-0.48-0.82-0.58-1.24-0.86c-1.27-0.84-2.46-1.87-3.14-3.25
		c0.87,1.16,1.87,2.16,3.14,2.87c0.58,0.33,1.24,0.73,1.9,0.67c-2.13-0.91-4.07-2.38-5.04-4.3c-0.23-0.46-0.22-1.13-0.76-1.43
		c0,0.58,0.62,1.04,0.29,1.63c-0.17-0.43-0.41-0.8-0.48-1.34c-0.32-0.29-1.13-1.96-0.19-2.01c0.14,0.56-0.06,1.46,0.48,1.63
		c0.09-0.4-0.51-1.59,0.1-1.82c0.13,0.04-0.11,0.41,0.19,0.48c0.5,0.09-0.26-0.62,0.29-0.57c0.38,0.2,0.12,0.55,0.19,0.86
		c0.2,0.9,0.66,1.91,1.05,2.49c0.17,0.25,0.24,0.58,0.38,0.77c0.91,1.2,2.38,1.86,3.43,2.87c0.25-0.06,0.59,0.28,0.76,0
		c-1.81-0.7-2.98-2.04-4.19-3.35c-0.24-0.76-0.92-1.64-1.05-2.58c-0.04-0.31-0.11-0.95,0.1-1.15c0.58,0.19,0.11,1.42,0.67,1.63
		c-0.06-0.5-0.13-0.89-0.1-1.24c0.01-0.15-0.19-0.48,0.19-0.38c0.44,0.54,0.18,1.2,0.38,1.82c0.1,0.3,0.59,1.18,0.95,1.63
		c0.35,0.44,0.99,0.87,1.52,1.34c0.97,0.86,1.53,1.74,2.95,1.43c-1.77-0.02-2.58-1.48-3.52-2.39c-0.52-0.5-1.1-0.82-1.33-1.34
		c-0.21-0.47-0.02-1.08-0.57-1.34c0.27-0.41-0.08-1.11,0.38-1.15C15.43,16.36,15.62,17.67,16.47,18.31z M7.24,19.84
		c-0.04,1.22,0.95,1.41,1.05,2.49c-0.39-0.19-0.37-0.77-0.86-0.86c0.3,0.71,0.84,1.75,1.24,2.3c0.76,1.04,1.66,2.01,2.76,2.97
		c1.2,1.04,2.3,2.23,3.43,2.2c-1.92-1-3.42-2.43-4.76-4.02c1.75,1.17,3.01,3.35,5.43,3.54C11.64,26.71,9.31,23.41,7.24,19.84z
		 M39.41,16.2c-0.22,0.49-0.83,0.77-0.95,1.24c-1.93,1-3.37,2.48-6.47,2.3c0.22,0.47,0.84,0.22,1.24,0.19
		c1.87-0.12,3.95-1.15,4.95-2.1c0.5-0.48,0.98-1.07,1.33-1.43c-0.05-0.7,0.51-0.69,0.29-1.34C39.39,15.22,39.59,15.81,39.41,16.2z
		 M37.22,15.53c0.53,0.03,0.13,0.41,0,0.57c0.24-0.07,0.39,0.42,0.57,0.1c-0.61-0.09,0.04-0.34,0-0.67
		c-0.49-0.05,0.11-0.22,0.1-0.38C37.5,15.12,37.45,15.41,37.22,15.53z M34.65,16.01c0.18,0.02,0.21-0.11,0.38-0.1
		c0.01-0.36-0.14-0.56-0.38-0.67C34.59,15.47,34.46,15.82,34.65,16.01z M42.55,15.92c-0.08-0.34,0.24-0.49-0.1-0.57
		C42.51,15.51,42.34,15.91,42.55,15.92z M36.27,15.63c0.17-0.02,0.48,0.1,0.38-0.19c-0.13,0-0.25,0-0.38,0
		C36.27,15.5,36.27,15.57,36.27,15.63z M40.08,18.12c-1.51,0.97-3.11,2.36-4.95,2.68c0.47-0.47,1.26-0.61,1.9-0.96
		c0.59-0.32,1.31-0.66,1.81-1.05c0.13-0.1,0.19-0.39,0.38-0.57c0.46-0.44,1.55-1.55,1.71-2.1c0.04-0.12,0.13-0.72-0.1-0.67
		c-0.41,0.98-0.79,1.88-1.62,2.58c-1.76,1.51-4.1,2.65-6.85,2.97c0.84,0.37,2.16-0.45,2.66-0.1c-0.39,0.54-1.7,0.14-2.09,0.67
		c1.29,0.08,2.02-0.39,3.05-0.57c0.22-0.16,0.67-0.79,0.95-0.29c-0.37,0.14-0.63,0.38-1.14,0.38c-0.12,0.24-0.45,0.37-0.76,0.48
		c-0.36,0.13-0.97,0.05-1.14,0.38c1.85,0.13,2.78-1.16,4.09-1.24c-1.13,0.65-2.35,1.2-3.71,1.63c1.41,0.3,1.98-0.75,2.95-0.57
		c-0.59,0.28-1.29,0.6-1.81,0.77c-0.19,0.06-0.64-0.03-0.67,0.29c0.6,0.01,1.57-0.46,1.9-0.1c-0.32,0.19-0.88,0.14-0.95,0.57
		c0.31-0.03,0.81-0.25,0.95,0.1c0.01,0.36-0.87,0.33-0.67,0.57c0.73-0.19,1.79-0.56,2.38-0.57c-0.5,0.36-1.17,0.55-1.62,0.96
		c0.36-0.05,0.9-0.38,1.14,0c-0.13,0.26-0.6,0.16-0.76,0.38c0.61,0.14,1.21-0.24,1.62,0c-0.38,0.1-0.72,0.23-1.05,0.38
		c0.71,0.44,1.7-0.61,2.38-0.48c-0.31,0.39-0.87,0.64-1.43,0.86c-0.26,0.1-0.75,0.02-0.86,0.38c3.05-0.44,4.52-2.47,6.19-4.3
		c-0.86,0.39-1.59,1.58-2.38,2.2c-0.33,0.26-1.01,0.97-1.43,0.48c0.34-0.08,0.44-0.39,0.86-0.38c0.45-0.64,1.28-1.07,1.81-1.72
		c0.14-0.17,0.23-0.46,0.38-0.67c0.12-0.16,0.47-0.33,0.29-0.57c-1,0.75-1.42,2.09-2.76,2.49c0.69-1.13,1.92-1.71,2.47-2.97
		c-0.94,0.42-1.25,1.48-2.19,1.91c0.48-1.08,1.57-1.55,2-2.68c-0.74,0.11-0.71,1-1.43,1.15c0.3-0.88,1.25-1.1,1.43-2.1
		c-0.82,0.27-1.05,1.61-1.81,1.63c0.47-0.87,1.54-1.64,1.62-2.58c-0.48,0.55-0.92,1.41-1.43,2.01c-0.3,0.36-0.78,0.94-1.33,0.77
		c0.82-0.71,1.64-1.41,2.09-2.49c-1.09,0.88-1.76,2.19-3.24,2.68c0.31-0.56,1.04-0.79,1.52-1.24c0.59-0.55,1.48-1.59,1.43-2.3
		c-0.23,0.67-0.78,1-1.05,1.63c-0.96,0.47-1.81,1.56-2.76,1.72c1.53-1.17,3.26-2.15,3.81-4.3c-0.13,0-0.25,0-0.38,0
		c-0.15,0.16,0.03,0.35-0.1,0.67c-0.64,1.28-1.8,2.26-2.95,2.97c-0.49,0.3-0.99,0.63-1.52,0.67C38.05,19.78,39.25,19.14,40.08,18.12
		z M41.41,15.53c-0.16,0.32-0.54,0.92-0.38,1.24C41.22,16.49,41.67,15.96,41.41,15.53z M36.27,16.01c0.11,0.12,0.4,0.08,0.38-0.19
		C36.43,15.79,36.29,15.84,36.27,16.01z M17.33,16.11C17.01,15.82,17.04,16.46,17.33,16.11L17.33,16.11z M20.66,16.59
		c0.14,0.21,0.25,0.45,0.67,0.38c-0.23-0.46,0.07-0.87-0.48-0.96C20.88,16.29,20.64,16.31,20.66,16.59z M16.09,16.2
		c-0.04,0.3,0.46,0.39,0.48,0.1C16.4,16.22,16.29,16,16.09,16.2z M13.05,18.6c0.98,1.63,2.55,2.84,4.19,3.73
		c0.25,0.13,0.49,0.53,0.86,0.29c-1.99-1.03-3.84-2.53-4.76-4.5c-0.3-0.64-0.31-1.49-0.86-1.91C12.58,17.09,12.97,17.68,13.05,18.6z
		 M36.27,16.4c-0.07,0.36,0.62,0.21,0.48-0.1C36.52,16.27,36.38,16.32,36.27,16.4z M24.94,17.93c-0.38-0.16-0.03-1.05-0.29-1.34
		c-0.16,0-0.32,0-0.48,0c0,0.67,0.36,0.98,0.38,1.63c0.16,0.04,0.24-0.14,0.29,0c0.27,0.74-0.05,1.66-0.1,2.39
		c0.31,0.43,0.7,0.39,1.14,0.1c0.13-1.31-0.1-2.93-0.48-4.21c-0.12-0.01-0.13-0.12-0.29-0.1C25.12,16.96,25.2,17.61,24.94,17.93z
		 M29.89,17.54c0.29,0.16,0.47,0.42,0.95,0.38c0.15-0.2,0.35-0.35,0.76-0.29c0.13-0.27-0.5-0.24-0.19-0.38
		c0.39,0.17,0.56,0.19,1.05,0.1c0-0.19,0-0.38,0-0.57c-0.59-0.05-0.91,0.17-1.52,0.1c-0.33-0.08-0.37-0.46-0.76-0.48
		C30.1,16.79,29.85,17.03,29.89,17.54z M34.94,16.68c0.25,0.03,0.41-0.03,0.38-0.29C35.07,16.37,34.91,16.43,34.94,16.68z
		 M39.5,17.16c0.09-0.29,0.46-0.3,0.48-0.67C39.68,16.51,39.31,16.96,39.5,17.16z M41.98,16.97c0.25,0.05,0.54-0.34,0.29-0.48
		C42.1,16.58,42.06,16.79,41.98,16.97z M36.84,16.97c0.03-0.2,0.42-0.02,0.38-0.29C37.06,16.41,36.57,16.83,36.84,16.97z
		 M35.6,16.78C35.15,16.51,35.37,17.09,35.6,16.78L35.6,16.78z M19.71,16.87C19.39,16.58,19.42,17.23,19.71,16.87L19.71,16.87z
		 M17.52,21.18c-0.9-1.36-2.57-1.95-2.95-3.83c-0.22-0.06-0.25-0.32-0.48-0.38C14.64,18.97,16.02,20.13,17.52,21.18z M16.76,17.45
		c0.07-0.29,0.07-0.18,0-0.48c-0.14,0.05-0.49-0.11-0.48,0.1C16.42,17.21,16.57,17.35,16.76,17.45z M20.66,17.35
		c0.09-0.29-0.47-0.41-0.48-0.29C20.31,17.21,20.38,17.64,20.66,17.35z M40.46,17.73c0.11-0.11,0.54-0.71,0.29-0.57
		C40.66,17.31,40.21,17.57,40.46,17.73z M17.61,17.45c0.1-0.24-0.32-0.42-0.38-0.19C17.37,17.31,17.47,17.4,17.61,17.45z
		 M18.19,17.35c-0.09,0.35,0.53,0.2,0.48,0C18.48,17.17,18.42,17.34,18.19,17.35z M19.04,17.35c-0.09,0.35,0.37,0.13,0.57,0.19
		C19.69,17.18,19.19,17.2,19.04,17.35z M21.52,17.45c-0.13,0.01-0.29-0.39-0.38-0.1C21.26,17.34,21.42,17.74,21.52,17.45z
		 M36.74,17.45c0.18-0.01,0.32-0.06,0.38-0.19C36.96,17.28,36.65,17.16,36.74,17.45z M33.79,20.51c2.04-0.5,4.62-1.78,5.33-2.77
		c0.05-0.06,0.3-0.72,0.1-0.29c-1.77,1.18-3.8,2.77-6.47,2.97c-0.32,0.02-0.73-0.2-0.95,0.1C32.45,20.67,33.29,20.63,33.79,20.51z
		 M42.36,17.64c0-0.19,0.26-0.12,0.19-0.38C42.31,17.16,42.13,17.58,42.36,17.64z M34.46,17.93c0.41,0.09,0.82-0.32,0.57-0.57
		C34.88,17.59,34.58,17.66,34.46,17.93z M17.04,17.73c0.18-0.09,0.32,0.29,0.38,0C17.33,17.57,17.11,17.44,17.04,17.73z
		 M20.56,17.73c0.1,0,0.19,0,0.29,0c0.01-0.17-0.09-0.22-0.29-0.19C20.56,17.61,20.56,17.67,20.56,17.73z M33.51,17.93
		c-0.05-0.27-0.36-0.27-0.57-0.38C32.95,17.85,33.32,18.09,33.51,17.93z M45.41,17.54C45.33,18.12,45.84,17.61,45.41,17.54
		L45.41,17.54z M47.79,19.84c0.64-0.31,0.42-1.5,0.95-1.91c-0.11-0.14-0.08-0.43-0.38-0.38C48.18,18.32,47.96,19.05,47.79,19.84z
		 M18.57,17.83c0.11,0.12,0.4,0.08,0.38-0.19C18.77,17.65,18.63,17.7,18.57,17.83z M32.65,19.36c1.36,0.1,3.07-0.39,4-1.05
		c0.2-0.15,0.52-0.41,0.48-0.67C36.06,18.64,34.44,19.09,32.65,19.36z M19.71,17.93c0.14-0.02,0.35,0.03,0.38-0.1
		C19.96,17.71,19.73,17.7,19.71,17.93z M18.09,17.93c-0.11-0.08-0.26-0.13-0.48-0.1C17.61,18.16,18,18.14,18.09,17.93z M20.95,18.02
		c0.24,0.01,0.46,0.02,0.48-0.19C21.24,17.87,20.85,17.7,20.95,18.02z M21.52,18.31c0.29-0.05,0.91,0.03,1.24-0.19
		c-0.45,0.01-0.68-0.21-1.05-0.29C21.78,18.12,21.45,18.01,21.52,18.31z M23.52,19.84c0.21,0.07,0.37,0.2,0.67,0.19
		c0-0.13,0-0.26,0-0.38C23.91,19.66,23.53,19.57,23.52,19.84z M24.37,19.65c0.15-0.52,0.02-1.29-0.29-1.82
		c-0.69,0.01-0.95,0.45-1.33,0.77c0.35,0.19,0.57,0.02,0.86-0.1c0.14,0.21,0.43,0.27,0.57,0.48c-0.4,0.08-0.45-0.19-0.76-0.19
		c0.09,0.36,0.01,0.45,0.1,0.67C23.96,19.36,24.09,19.58,24.37,19.65z M20.95,18.12c-0.43,0.12-0.37-0.26-0.76-0.19
		C20.25,18.11,20.88,18.55,20.95,18.12z M30.37,18.4c-0.27-0.04-0.3-0.34-0.67-0.29c-0.01,0.58-0.07,0.83-0.19,1.43
		c0.88,0.17,1.04,1.06,1.9,1.24c-0.15-0.67,0.61-1.62,1.05-2.3C32.18,17.41,31.11,18.32,30.37,18.4z M33.7,18.12
		c0.17-0.02,0.48,0.1,0.38-0.19c-0.13,0-0.25,0-0.38,0C33.7,17.99,33.7,18.05,33.7,18.12z M34.94,18.5
		c0.54-0.03,0.76-0.38,1.14-0.57C35.57,17.99,35.17,18.16,34.94,18.5z M28.46,18.4c-0.01-0.15,0.01-0.33-0.19-0.29
		c-0.14,0.97-0.35,1.54,0,2.39c0.97-0.28,0.41-1.63,0.76-2.39C28.76,17.85,28.63,18.27,28.46,18.4z M18.28,19.46
		c0.65,0.31,1.53,1.18,2.38,1.34c0.27,0.05,0.8,0.21,0.95-0.19c-0.98,0.25-1.43-0.42-2.28-0.57c-0.19-0.39-0.7-0.54-1.05-0.86
		c-0.34-0.31-0.56-0.99-1.05-0.86C17.49,18.78,18.18,18.83,18.28,19.46z M19.42,18.21c-0.14,0.05-0.49-0.11-0.48,0.1
		C19.07,18.44,19.41,18.46,19.42,18.21z M45.69,18.21C45.61,18.79,46.13,18.28,45.69,18.21L45.69,18.21z M48.26,20.51
		c0.5-0.3,0.41-1.18,0.76-1.63c0.15,0.36,0.4,0.62,0.57,0.96c-0.17,0.66-0.33,1.32-0.57,1.91c0.56-0.07,0.13-1.14,0.86-1.05
		c-0.05,0.62-0.72,1.12-0.48,1.72c0.28-0.22,0.34-0.68,0.57-0.96c0.33,0.16-0.12,0.74,0.29,0.96c0.42-1.02-0.43-1.45-0.29-2.39
		c-0.36-0.66-0.55-1.49-1.24-1.82C48.61,18.95,48.38,20.08,48.26,20.51z M18.19,20.32c0.89,0.1,1.4,1.08,2.28,0.86
		c-1.73-0.49-2.72-1.73-3.9-2.77C16.88,19.27,17.76,19.56,18.19,20.32z M19.52,19.17c-0.37-0.17-0.77-0.82-1.14-0.67
		C18.81,18.61,19.11,19.35,19.52,19.17z M19.99,18.79c0.15-0.27-0.41-0.26-0.38-0.1C19.74,18.72,19.79,18.83,19.99,18.79z
		 M33.98,18.69c-0.16,0-0.32,0-0.48,0C33.36,19.17,34.06,18.98,33.98,18.69z M20.37,19.17c0.06,0,0.13,0,0.19,0
		c0-0.06,0-0.13,0-0.19c-0.06,0-0.13,0-0.19,0C20.37,19.04,20.37,19.11,20.37,19.17z M21.33,19.17
		C20.96,18.9,20.91,19.52,21.33,19.17L21.33,19.17z M22.66,19.84c-0.12-0.01-0.13-0.12-0.29-0.1C22.23,19.98,22.7,20.02,22.66,19.84
		z M21.23,20.03c0.29-0.06,0.82,0.12,0.95-0.1C21.91,19.86,21.33,19.81,21.23,20.03z M49.02,20.13
		C48.86,20.76,49.27,19.35,49.02,20.13L49.02,20.13z M30.08,20.13c-0.21-0.07-0.37-0.2-0.67-0.19
		C29.39,20.2,29.97,20.33,30.08,20.13z M45.5,20.32c0.21,0.07,0.39-0.35,0.19-0.38C45.69,20.12,45.43,20.06,45.5,20.32z M5.81,20.7
		c0.13,0,0.25,0,0.38,0c-0.01-0.31-0.12-0.52-0.38-0.57C5.81,20.32,5.81,20.51,5.81,20.7z M43.79,20.7c0.24,0.1,0.42-0.32,0.19-0.38
		C43.98,20.51,43.72,20.44,43.79,20.7z M22.37,20.6c0.14-0.02,0.35,0.03,0.38-0.1C22.63,20.38,22.4,20.38,22.37,20.6z M29.13,20.6
		c0.1,0,0.19,0,0.29,0c0.01-0.17-0.09-0.22-0.29-0.19C29.13,20.48,29.13,20.54,29.13,20.6z M22.28,20.6
		c-0.14,0.05-0.49-0.11-0.48,0.1C21.94,20.85,22.19,20.77,22.28,20.6z M28.85,39.45c0.47-0.08,0.93-0.37,1.43-0.1
		c2.21-1.23,4.23-2.35,5.52-4.4c0.15-0.24,0.15-0.51,0.29-0.77c0.1-0.19,0.39-0.24,0.48-0.38c0.12-0.2,0.1-0.45,0.19-0.67
		c0.59-1.49,0.61-3.49,0.29-5.17c-0.62-3.22-3.33-5.86-6.09-6.89c-0.69,0.57-1.22,1.31-2.28,1.53c-2.1,0.45-4.39-0.27-5.52-0.96
		c1.08,0.1,2.18,0.8,3.52,0.86c1.52,0.07,3.05-0.34,3.71-1.43c-0.69,0.18-1.15,0.9-2,1.05c-1.86,0.34-4.1-0.48-5.23-1.15
		c1.78,0.65,5.36,1.74,6.76,0c-0.96,0.23-1.29,0.72-2.19,0.77c-0.79,0.04-1.84-0.15-2.57-0.38c-0.5-0.16-0.91-0.61-1.33-0.67
		c-0.3-0.04-1.06,0.03-1.52,0.19c-1.08,0.37-2.25,1.18-3.05,1.82c-1.15,0.93-1.36,1.41-2.09,2.58c-0.81,1.29-1.17,1.96-1.33,3.83
		c-0.21,2.46,0.58,4.26,1.43,5.55c0.25,0.37,0.43,0.84,0.67,1.15c1.53,1.96,3.84,3.22,6.19,4.21c0.27,0.5,0.84,0.69,1.05,1.24
		c0.62-0.12,2.4,0.21,2.38-0.48c-0.57,0.31-2.06,0.51-2.47-0.1c1.34-0.03,2.81,0.08,3.52-0.57c-1.35,0.28-3.48,0.76-4.47-0.19
		c1.16,0.22,3.1,0.4,4-0.19c-2.02,0.45-4.99,0.08-5.81-0.96C24.02,39.64,26.53,39.82,28.85,39.45z M7.43,21.08
		c0.03-0.25-0.2-0.25-0.38-0.29C7.06,21.05,7.27,21.26,7.43,21.08z M7.05,25.87c-0.73-1.07-1.5-2.2-1.52-3.35
		c-0.31,0.08-0.2-0.25-0.38-0.29c0.07,0.82-0.47,1.66,0,2.3c-0.78,0.19,0.17,0.75,0.1,1.15c-0.13-0.03-0.18-0.14-0.38-0.1
		c-0.05,1.01,0.22,1.69,0.57,2.3c-0.12,1.12,0.88,1.92,0.95,3.16c0.86,0.54,1.5,1.3,2.38,1.82c-0.36,0.09-0.61-0.16-0.76,0
		c0.07-0.36-0.3-0.24-0.48-0.38c-0.45-0.36-0.74-1.13-1.24-1.05c0.34,0.74,1.2,0.96,1.62,1.63c-0.36,0.06-0.69,0.14-0.86,0.38
		c0.4,0.21,0.61-0.25,1.05-0.38c0.92-0.27,1.92-0.01,2.67,0.1c-0.41-0.16-0.82-0.33-1.43-0.29c-0.32-0.32-0.74-0.53-1.24-0.67
		c-0.44-0.69-1.61-1.11-1.62-1.91c0.93,0.66,1.79,1.9,2.95,2.01c-1.26-0.64-2.26-1.58-3.05-2.58c-0.32-0.41-0.75-0.89-0.86-1.43
		c0.14,0.11,0.4,0.34,0.48,0c-0.2-0.18-0.58-0.68-0.38-0.96c0.79,1.09,1.62,2.1,2.57,2.97c0.39,0.35,0.87,0.82,1.24,1.05
		c0.22,0.14,0.6,0.02,0.67,0.38c0.33-0.28-0.3-0.41-0.38-0.48c-1.66-1.37-3.46-2.94-4.28-4.97c0.31,0.2,0.53,0.48,0.57,0.96
		c1.63,1.75,3.29,3.46,5.43,4.69c-2.29-2.1-5.1-3.68-6.09-7.08c0.57,0.71,1.03,1.52,1.43,2.39c1.14,1.22,2.25,2.46,3.81,3.25
		c-0.51-0.7-1.27-1.15-2-1.63C7.69,27.71,6.71,26.68,6,25.39c0-0.93-1.17-1.47-0.76-2.2c0.99,1.89,2.05,3.81,3.52,5.26
		c0.5,0.49,1.18,0.73,1.71,1.15c0.5,0.4,0.77,1.1,1.43,1.15C10.19,29.14,8.45,27.92,7.05,25.87z M7.34,25.96
		c0.87,0.61,1.37,1.66,2.19,2.39c0.25,0.23,0.6,0.28,0.86,0.48c0.35,0.28,0.6,0.75,0.95,1.05c0.43,0.37,0.99,0.76,1.52,1.15
		c0.76,0.55,1.53,1.17,2.38,1.05c-2.57-0.8-3.77-2.97-5.9-4.21c-1.05-1.46-2.39-2.64-3.05-4.5c-0.41-0.2-0.63-1.09-0.48-1.53
		c0.13,0.15,0.2,0.38,0.38,0.48c-0.18-0.52-0.06-1.34-0.67-1.43c-0.3,0.31,0.13,0.44,0.1,0.77c-0.19-0.19-0.25-0.02-0.38,0.1
		C5.8,23.3,6.68,24.52,7.34,25.96z M17.9,21.66c0.56,0.14,0.89,0.5,1.62,0.48c-0.34-0.42-1.19-0.34-1.52-0.77c-0.1,0-0.19,0-0.29,0
		C17.72,21.52,17.7,21.7,17.9,21.66z M7.72,23.47c-0.56-0.2-0.43-1.1-1.05-1.24c0.1,0.41,0.33,0.69,0.57,0.96
		c0.28,1.09,0.92,1.86,1.62,2.68c0.6,0.7,1.26,1.32,1.9,1.82c1.44,1.1,2.68,2.6,4.38,3.06c-0.44-0.58-1.28-0.76-1.9-1.15
		c-1.81-2.01-4.3-3.33-5.43-6.03c0.95,1.22,1.92,2.59,3.14,3.64c0.3,0.26,0.74,0.42,1.05,0.67c0.91,0.74,1.76,1.9,3.05,1.91
		c-3.4-1.94-6.03-4.66-7.9-8.13c-0.12-0.01-0.13-0.12-0.29-0.1C6.98,22.3,7.77,22.87,7.72,23.47z M39.31,25.87
		c-0.23,0.1-0.65,0.04-0.76,0.38c2.78-0.49,4.1-2.45,5.81-4.02c-0.01-0.12-0.03-0.23-0.19-0.19C42.84,23.57,41.23,25.06,39.31,25.87
		z M8.57,26.54c0.85,0.97,1.63,1.41,2.57,2.2c0.99,0.83,1.84,1.99,3.14,2.39c-0.47-0.57-1.08-0.86-1.62-1.34
		c-0.53-0.47-0.98-1.09-1.52-1.53c-0.3-0.24-0.74-0.32-1.05-0.57c-0.34-0.28-0.71-0.76-1.05-1.15c-1.11-1.25-1.84-2.63-2.76-4.02
		C6.86,24.07,7.62,25.46,8.57,26.54z M44.07,23.38c0.2-0.25,0.75-0.64,0.67-0.86C44.56,22.79,43.97,23.14,44.07,23.38z M49.78,23.09
		c-0.03-0.17,0.3-0.51-0.1-0.48C49.66,22.84,49.49,23.03,49.78,23.09z M49.97,23.67c0.05-0.11,0.1-0.22,0.19-0.29
		c0.02,0.14,0.16,0.16,0.19,0.29c-0.08,0.21-0.25,0.33-0.19,0.67c-0.44,0.09-0.53,0.67-0.57,0.96c0.34-0.13,0.3-0.66,0.57-0.86
		c0.1-0.01,0.19,0.41,0.29,0.1c0.07-0.44-0.1-1.13,0-1.82C50.08,22.75,49.75,23.34,49.97,23.67z M44.83,23.38
		c0.02-0.14,0.16-0.16,0.19-0.29C44.83,23.01,44.6,23.34,44.83,23.38z M47.98,23.38c0.05,0.43,0.55-0.55,0.1-0.1
		C48.03,23.33,47.96,23.26,47.98,23.38z M41.5,25.48c0.51-0.28,1.16-0.64,1.62-1.05c0.29-0.26,0.64-0.66,0.67-0.96
		C43.11,24.22,42.21,24.76,41.5,25.48z M41.69,26.06c0.99-0.69,2.39-1.49,2.76-2.49C43.78,24.58,42.24,25.24,41.69,26.06z
		 M39.31,27.68c1.26-0.12,1.89-0.57,2.76-1.15c1.02-0.68,1.67-1.16,2.38-1.82c0.47-0.43,1.02-0.67,1.05-1.15
		C43.76,25.26,41.86,26.8,39.31,27.68z M49.69,27.3c-0.18,0.38-1,0.96-0.57,1.34c0.79-0.83,1.24-2.58,1.14-3.73
		C49.98,25.56,49.64,26.63,49.69,27.3z M42.46,26.82c0.48,0.02,1.21-0.5,1.52-0.96c0.33-0.12,0.94-0.46,0.76-0.77
		C43.99,25.69,43.32,26.36,42.46,26.82z M45.6,25.96c0.12,0.36,0.69-0.36,0.86-0.57C46.01,25.42,46.04,25.93,45.6,25.96z
		 M39.03,26.63c0.91-0.08,1.44-0.53,2.19-0.77c0.01-0.11,0.17-0.22,0-0.29C40.58,26.02,39.68,26.2,39.03,26.63z M43.79,26.92
		c0.37-0.46,1.29-0.87,1.33-1.34C44.69,25.98,43.81,26.43,43.79,26.92z M46.45,26.25c0.2,0.08,0.43-0.25,0.19-0.29
		C46.62,26.1,46.49,26.12,46.45,26.25z M39.98,26.92c0.72-0.04,1.02-0.5,1.52-0.77C40.87,26.28,40.47,26.64,39.98,26.92z
		 M44.45,27.01c0.19-0.13,0.71-0.42,0.57-0.57C44.84,26.63,44.58,26.75,44.45,27.01z M46.55,26.92c-0.14,0.25,0.44-0.2,0.48-0.38
		C46.67,26.46,46.82,26.9,46.55,26.92z M45.03,27.68c0.25-0.36,1.04-0.68,0.95-1.05C45.8,27.06,44.73,27.1,45.03,27.68z
		 M47.69,26.92c0.18-0.01,0.32-0.06,0.38-0.19c-0.13-0.03-0.18-0.14-0.38-0.1C47.69,26.73,47.69,26.82,47.69,26.92z M42.46,26.92
		c-0.92,0.64-2.14,0.98-3.24,1.43C40.56,28.14,41.66,27.68,42.46,26.92z M43.12,27.2c0.25,0.08,0.58-0.23,0.38-0.29
		C43.48,27.11,43.08,26.94,43.12,27.2z M45.31,28.07c0.34-0.23,1.16-0.49,0.95-0.96C46.07,27.55,45.45,27.57,45.31,28.07z
		 M43.41,27.78c0.36-0.06,0.63-0.19,0.76-0.48C43.87,27.42,43.58,27.54,43.41,27.78z M43.41,28.54c0.5-0.1,0.83-0.38,1.14-0.67
		C44.13,28.06,43.72,28.26,43.41,28.54z M45.69,28.54c0.34,0.05,0.69-0.38,0.57-0.48C46.15,28.3,45.88,28.38,45.69,28.54z
		 M40.17,28.64c0.68,0.05,1.08-0.19,1.43-0.48C41.15,28.34,40.5,28.33,40.17,28.64z M41.88,28.74c0.42-0.12,0.88-0.2,1.05-0.57
		C42.52,28.23,41.83,28.51,41.88,28.74z M46.83,28.64c0.01-0.15,0.24-0.07,0.19-0.29C46.83,28.27,46.6,28.6,46.83,28.64z
		 M42.17,29.98c0.95-0.35,2.24-0.87,2.57-1.53C43.91,28.99,43.02,29.46,42.17,29.98z M45.41,28.83c0.16,0.01,0.24-0.07,0.29-0.19
		C45.53,28.63,45.45,28.71,45.41,28.83z M8.86,31.41c-0.03-0.39-0.43-0.37-0.67-0.57c-0.35-0.31-0.63-0.8-0.95-1.15
		c-0.34-0.36-0.72-0.81-1.14-0.86C6.88,29.83,7.66,30.83,8.86,31.41z M40.55,29.21c0.29-0.15,1.27-0.12,1.05-0.48
		C41.3,28.94,40.69,28.84,40.55,29.21z M40.65,29.79c0.81-0.17,2-0.48,2.19-0.96C42.25,29.29,41.23,29.32,40.65,29.79z M48.26,29.31
		c0.13-0.22,0.34-0.36,0.57-0.48C48.45,28.71,47.9,29.29,48.26,29.31z M40.74,30.94c1.85-0.14,3.2-0.8,4.28-1.72
		C43.68,29.87,42.38,30.57,40.74,30.94z M48.26,30.07c0.17-0.31,0.46-0.49,0.57-0.86C48.41,29.22,47.95,29.94,48.26,30.07z
		 M47.31,30.27c0.33-0.03,0.87-0.51,0.48-0.67C47.65,29.85,47.38,29.96,47.31,30.27z M40.46,29.79
		C39.85,29.68,40.25,30.08,40.46,29.79L40.46,29.79z M45.5,30.36c-1.64,1.28-3.97,1.73-6.47,2.1c3.24-0.09,5.74-0.93,7.33-2.68
		C45.98,29.85,45.76,30.16,45.5,30.36z M40.36,31.8c1.81-0.23,3.14-0.93,4.57-1.53c0.01-0.11,0.17-0.22,0-0.29
		C43.63,30.81,41.92,31.22,40.36,31.8z M41.41,30.27c0.27,0.02,0.48-0.02,0.57-0.19C41.74,30.08,41.53,30.13,41.41,30.27z
		 M38.08,32.94c1.6,0.34,2.94-0.11,4.57-0.57c1.91-0.54,3.5-1.01,4.09-2.2C44.72,31.96,41.64,32.7,38.08,32.94z M39.98,30.55
		c0.53-0.01,1.05-0.02,1.33-0.29C40.8,30.29,40.33,30.37,39.98,30.55z M37.98,30.55c0.1,0,0.19,0,0.29,0
		c0.01-0.17-0.09-0.22-0.29-0.19C37.98,30.43,37.98,30.49,37.98,30.55z M44.07,32.47c1.25-0.43,2.41-0.95,3.14-1.91
		c-1.24,0.81-2.62,1.67-4.28,2.1c-0.55,0.14-1.18,0.07-1.71,0.38c1.82,0.13,3.58-0.88,5.14,0.1c0.37-0.08,0.71-0.68,1.05-0.48
		c-0.08,0.43-0.7,0.32-0.86,0.67c0.69,0.15,0.63-0.45,1.24-0.38c0.06-0.44-0.27-0.66-0.29-1.05c-0.02-0.62,0.49-1.06,0.38-1.53
		c-0.19,0.33-0.86,0.43-0.57,0.96c-0.49,0.45-1.22,1.62-2,1.15c0.24-0.17,0.84-0.25,1.14-0.48c0.2-0.15,0.65-0.63,0.38-0.67
		C46.13,31.86,45.11,32.58,44.07,32.47z M46.55,33.42c0.25,0.85,0.97-0.19,1.62-0.1c-0.01-0.24-0.14-0.37-0.38-0.38
		C47.48,33.22,47.13,33.73,46.55,33.42z M48.17,33.33c-0.29,0.24-0.75,0.74-1.24,0.48c-0.02,0.31,0.34,0.23,0.48,0.38
		c0.11-0.18,0.56-0.52,0.76-0.29c-0.07,0.34-0.7,0.13-0.76,0.48c0.68,0.2,0.79-0.67,1.33-0.29c-0.24,0.27-0.69,0.33-0.86,0.67
		c0.39,0.2,0.69-0.43,1.14-0.48C48.95,33.75,48.5,33.6,48.17,33.33z M11.9,31.51c-0.22-0.16-0.87-0.81-0.86-0.57
		C11.25,31.15,11.71,31.6,11.9,31.51z M13.9,32.27c-0.26-0.6-1.17-0.54-1.43-1.15c-0.11,0.01-0.27-0.02-0.29,0.1
		C12.79,31.54,13.12,32.14,13.9,32.27z M15.23,31.51c0.09-0.24-0.54-0.03-0.19,0C15.2,31.5,15.46,31.67,15.23,31.51z M15.14,33.52
		c-0.07-0.38-0.57-0.32-0.95-0.38c-0.13-0.26-0.45-0.32-0.57-0.57c-0.65-0.08-1.15-0.82-1.62-0.77
		C12.98,32.44,13.84,33.19,15.14,33.52z M6.1,32.47c0.62-0.11,0.79,0.73,1.33,0.38c-0.66-0.04-0.73-0.67-1.14-0.96
		C6.26,32.12,6.17,32.29,6.1,32.47z M12.19,32.47c0.02-0.26-0.76-0.56-0.57-0.38c0.58,0.34,1.12,1.23,1.9,1.05
		C13,32.99,12.73,32.59,12.19,32.47z M5.62,33.23c0.3,0.08,0.4,0.36,0.76,0.38c0.06-0.41-0.51-0.19-0.38-0.67
		c0.36-0.04,0.68,0.45,0.95,0.19c-0.52-0.02-0.53-0.55-1.05-0.57C5.96,32.93,5.66,32.96,5.62,33.23z M15.33,32.75
		c-0.25-0.04-0.27-0.31-0.67-0.19C14.62,32.83,15.31,32.86,15.33,32.75z M12.09,33.04c0.07-0.21-0.35-0.39-0.38-0.19
		C11.85,32.9,11.95,32.99,12.09,33.04z M11.71,33.33c-0.12-0.02-0.47-0.28-0.48-0.1C11.35,33.26,11.6,33.62,11.71,33.33z M5.15,33.8
		c0.38-0.09,0.76,0.31,0.95,0.1C5.83,33.72,5.32,33.27,5.15,33.8z M15.43,34.09c-0.04-0.34-0.6-0.21-0.86-0.29
		c-0.25-0.08-0.42-0.39-0.57-0.19C14.38,33.87,14.87,34.01,15.43,34.09z M12.86,33.9c-0.17,0.01-0.3-0.02-0.38-0.1
		C12.32,34.07,12.89,34.07,12.86,33.9z M4.86,34.28c0.22,0.1,0.57,0.06,0.76,0.19c-0.04-0.34-0.3-0.46-0.67-0.48
		C4.96,34.13,4.91,34.21,4.86,34.28z M4.67,34.76c0.24,0.06,0.73,0.35,0.95,0.1c-0.34-0.07-0.49-0.33-0.86-0.38
		C4.77,34.61,4.72,34.68,4.67,34.76z M48.45,35.34c0.32,0.2,0.78-0.14,0.95-0.38C49,34.62,48.75,35.25,48.45,35.34z M49.31,34.47
		c-0.64-0.04-0.78,0.42-1.14,0.67C48.77,35.15,48.99,34.76,49.31,34.47z M4.58,35.14c-0.06,0.01-0.11,0.01-0.1,0.1
		c0.36,0.01,0.98,0.48,1.14,0.1c-0.33-0.15-0.83-0.12-1.05-0.38C4.58,35.02,4.58,35.08,4.58,35.14z M48.64,35.81
		c0.39,0.04,0.61-0.09,0.86-0.19c0.01-0.16-0.07-0.25-0.19-0.29C49.11,35.52,48.65,35.44,48.64,35.81z M4.48,35.91
		c0.42-0.13,0.84,0.34,0.86-0.19c-0.46,0.11-0.4-0.3-0.86-0.19C4.48,35.65,4.48,35.78,4.48,35.91z M48.74,36.2
		c0.14,0.14,0.62,0.14,0.76,0c0-0.13,0-0.26,0-0.38C49.19,35.89,48.94,36.01,48.74,36.2z M4.38,36.29c0.11,0.19,0.79,0.35,0.86,0
		C4.82,36.42,4.55,35.84,4.38,36.29z M49.12,36.67c0.06,0,0.13,0,0.19,0c0-0.06,0-0.13,0-0.19c-0.06,0-0.13,0-0.19,0
		C49.12,36.55,49.12,36.61,49.12,36.67z M4.29,37.82c0.29,0,0.82,0.26,1.05,0c-0.25-0.13-0.73-0.03-0.86-0.29
		c0.27-0.33,0.76,0.35,0.86-0.1c-0.21-0.14-0.59-0.11-0.67-0.38c0.28-0.21,0.58,0.14,0.67-0.19c-0.27-0.05-0.49-0.14-0.76-0.19
		C4.56,37.14,4.42,37.48,4.29,37.82z M4,38.01c-0.02,0.37,0.73,0.47,0.95,0.29C4.55,38.25,4.36,37.84,4,38.01z M3.62,38.49
		c0.17,0,0.55,0.26,0.67,0C4.05,38.47,3.75,38.08,3.62,38.49z M4,38.87c-0.17,0-0.55-0.26-0.67,0C3.42,38.96,3.94,39.08,4,38.87z
		 M3.81,39.45c0.05-0.25-0.55-0.33-0.57-0.19C3.42,39.33,3.59,39.42,3.81,39.45z M29.42,40.79c0.15-0.25,0.33-0.82,0.1-1.15
		c-0.12-0.01-0.13-0.12-0.29-0.1C29.38,39.87,29.22,40.51,29.42,40.79z M3.53,39.74c-0.11-0.08-0.26-0.13-0.48-0.1
		C2.91,39.93,3.54,39.89,3.53,39.74z M2.01,41.55c0.52,0.14,0.65-0.82,0.29-0.96C2.27,40.99,2,41.14,2.01,41.55z M26.66,42.7
		c-0.25,0-0.51,0-0.76,0C25.81,43.15,26.71,43.06,26.66,42.7z M26.75,43.66c0.07-0.3-0.5-0.45-0.57-0.29
		C26.33,43.5,26.41,43.71,26.75,43.66z M27.42,43.56c0.06,0,0.13,0,0.19,0c0-0.06,0-0.13,0-0.19c-0.06,0-0.13,0-0.19,0
		C27.42,43.43,27.42,43.5,27.42,43.56z M28.18,43.56C27.7,43.3,27.82,43.9,28.18,43.56L28.18,43.56z M29.7,44.52
		c0.46,0.4,1.16,0.56,1.62,0.96c0.19-0.07,0.22-0.29,0.38-0.38c-0.29-0.07-0.35,0.1-0.57,0.1c0.11-0.4-0.14-0.43-0.48-0.38
		c0.01-0.24,0.18-0.3-0.1-0.38C30.35,44.92,29.97,44.28,29.7,44.52c0.03-0.22-0.02-0.36-0.19-0.38c-0.2,0.23-0.64,0.23-0.95,0.19
		c0.01,0-0.36-0.49-0.57-0.1c-0.12-0.13-0.12-0.35,0-0.48c-0.29,0.03-0.27,0.37-0.57,0.38c0-0.16,0-0.32,0-0.48
		c-0.26,0.06-0.45,0.19-0.57,0.38C27.59,44.37,28.8,44.67,29.7,44.52z M30.18,44.33c0.02-0.14,0.16-0.16,0.19-0.29
		c-0.06-0.03-0.37-0.24-0.38,0C30.14,44.04,30.04,44.31,30.18,44.33z M32.84,46.53c0.24,0.02,0.75,0.15,0.86-0.19
		c-0.92,0.03-1.73-0.05-1.9-0.77c-0.1,0-0.19,0-0.29,0C31.4,45.94,32.21,46.47,32.84,46.53z"/>
	<path id="XMLID_2286_" class="st0" d="M35.41,4.44c1.2-0.16,1.65-1.08,2.28-1.82c0.1,0.45-0.51,1.1-0.95,1.43
		C36.37,4.34,35.89,4.6,35.41,4.44z"/>
	<path id="XMLID_2071_" class="st0" d="M23.8,9.6c0.24,0.05,0.34,0.23,0.48,0.38C24.24,10.11,23.77,9.86,23.8,9.6z"/>
	<path id="XMLID_2070_" class="st0" d="M38.65,11.61c0.11-0.32,0.51-0.18,0.57-0.19C39.72,11.33,39.23,11.58,38.65,11.61z"/>
	<path id="XMLID_2068_" class="st0" d="M33.13,14.96c0.34-0.4-0.04,0.19,0,0.19C32.95,15.14,33.11,14.98,33.13,14.96z"/>
	<path id="XMLID_2051_" class="st0" d="M11.24,20.32c0.34,0.13,0.35,0.6,0.67,0.77C11.7,21.19,11.36,20.62,11.24,20.32z"/>
	<path id="XMLID_1551_" class="st0" d="M35.98,31.22c0.37,0.34,0.46-0.42,0.86-0.38c-0.1,0.47-0.55,0.59-0.67,1.05
		c0.45,0.1,0.23-0.47,0.67-0.38c-0.15,0.58-0.73,0.74-0.95,1.24c0.11,0.25,0.37-0.13,0.48-0.19c0.22,0.32-0.45,0.56-0.57,0.86
		c0.2,0.32,0.28-0.29,0.57-0.19c-0.15,0.68-0.77,0.88-1.14,1.34c0.07,0.3,0.43-0.37,0.48-0.1c-0.13,0.67-0.87,0.72-0.86,1.53
		c-1.21,0.7-1.93,1.88-3.43,2.3c-0.7,0.94-2.43,0.94-3.81,1.05c-1.94,0.16-3.55-0.13-5.04-0.67c-0.76-0.27-1.57-0.46-2-0.96
		c2.67,1.18,7.16,1.88,10.47,0.77c-4.06,0.85-9.2,0.12-11.9-1.82c0.72-0.15,1.22,0.75,2.19,0.67c-0.97-0.56-2.12-0.93-2.95-1.63
		c0.72,0.08,1.4,0.53,2.19,0.86c0.77,0.32,1.65,0.53,2.57,0.67c-1.74-0.64-3.59-1.17-4.95-2.2c0.78,0,1.55,0.7,2.47,0.96
		c0.75,0.21,1.57,0.18,2.28,0.48c-1.77-0.77-3.89-1.19-5.23-2.39c1.14,0.13,2.15,1.03,3.33,1.34c0.47,0.12,0.96,0.02,1.43,0.19
		c0.42,0.15,0.88,0.39,1.62,0.57c0.72,0.18,1.5,0.4,2.66,0.29c-1.14-0.27-2.16-0.26-3.24-0.57c-0.48-0.14-0.89-0.45-1.33-0.57
		c-0.59-0.16-1.06-0.1-1.52-0.29c-1.09-0.44-2.28-1.31-3.43-1.91c1.11,0.13,2.08,0.96,3.33,1.43c0.68,0.26,1.45,0.21,2.19,0.38
		c0.53,0.12,1,0.46,1.52,0.57c1.35,0.3,3.04,0.37,4.47,0.1c-1.74,0.02-3.29-0.02-4.85-0.38c-0.54-0.13-1.01-0.45-1.52-0.57
		c-0.23-0.06-0.52,0.05-0.76,0c-0.79-0.15-1.65-0.69-2.38-1.05c-0.77-0.38-1.54-0.78-2-1.34c2.73,1.55,6.26,2.72,10.18,2.77
		c-0.95-0.4-2.58-0.27-3.81-0.57c-0.3-0.07-0.56-0.32-0.86-0.38c-0.36-0.08-0.79,0-1.14-0.1c-0.57-0.15-1.35-0.55-2-0.86
		c-1.24-0.59-2.13-1.21-3.14-1.91c0.86-0.1,1.4,0.78,2.19,1.15c0.4,0.19,0.87,0.28,1.33,0.48c2.62,1.13,7.45,2.11,10.76,1.05
		c-5.14,0.83-10.58-0.75-13.99-3.06c0.7-0.16,1.26,0.65,2.09,0.67c0.91,0.72,2.12,1.36,3.81,1.53c0.93,0.09,1.89,0.58,2.86,0.67
		c1.94,0.18,3.94-0.15,5.71-0.57c-1.1-0.09-2.06,0.37-3.24,0.38c-1.72,0.01-3.43-0.36-4.76-0.67c-0.52-0.12-1.07-0.13-1.52-0.29
		c-0.68-0.23-1.43-0.58-2.19-0.96c-1.16-0.57-1.91-0.82-2.66-1.43c1.86,0.38,3.45,2.06,5.9,2.39c0.28,0.04,0.5-0.05,0.76,0
		c0.8,0.16,1.79,0.56,2.95,0.57c2.34,0.03,4.58-0.55,6.66-1.24c-0.55-0.21-0.84,0.27-1.24,0.38c-0.44,0.12-1.06,0.09-1.62,0.19
		c-1.48,0.26-4.01,0.48-5.71,0.1c-0.2-0.05-0.37-0.23-0.57-0.29c-0.52-0.13-1.1-0.07-1.62-0.19c-1.1-0.25-2.21-0.8-3.14-1.24
		c-1.04-0.5-2.09-0.94-2.67-1.63c1.61,0.46,3.09,1.74,4.57,2.3c0.76,0.29,1.59,0.3,2.57,0.48c0.97,0.17,2.13,0.5,3.52,0.48
		c2.1-0.04,4.07-0.68,5.9-1.24c-1.1,0.07-2.29,0.62-3.62,0.77c-0.77,0.08-1.63,0.06-2.38,0c-2.6-0.22-5.41-0.49-7.04-1.63
		c-1.29-0.39-2.54-0.82-3.33-1.72c1.49,0.5,3.09,1.56,4.76,2.1c0.62,0.2,1.17,0.25,1.9,0.38c0.78,0.14,1.56,0.49,2.38,0.57
		c2.44,0.26,4.61-0.28,6.57-0.96c-1.84,0.27-3.41,0.82-5.71,0.67c-1.14-0.08-2.3-0.56-3.43-0.77c-0.39-0.07-0.81-0.02-1.14-0.1
		c-0.94-0.23-1.71-0.81-2.57-1.15c-1-0.39-2.01-0.57-2.66-1.24c0.49-0.07,1.1,0.27,1.62,0.48c0.57,0.23,1.11,0.46,1.43,0.86
		c1.16,0.43,2.7,0.82,4.19,1.15c0.28,0.06,0.59,0.02,0.86,0.1c0.45,0.13,1.29,0.39,2.09,0.38c1.82-0.01,3.55-0.55,5.33-0.86
		c-2.08,0.03-3.82,0.63-5.81,0.48c-1.36-0.1-2.53-0.78-3.81-0.96c-0.26-0.04-0.52,0.05-0.76,0c-0.98-0.21-1.96-0.74-2.86-1.15
		c-0.92-0.42-1.88-0.81-2.38-1.53c1.67,0.49,3.18,2.11,5.23,2.49c0.29,0.05,0.64-0.03,0.95,0c1.13,0.12,2.24,0.73,3.33,0.86
		c2.21,0.27,4.3-0.56,6.47-0.96c-0.3-0.26-0.72,0.02-1.05,0.1c-1.32,0.29-3.3,0.68-5.23,0.48c-1.42-0.15-2.37-0.71-3.9-0.86
		c-1.12-0.11-2.13-0.62-3.05-1.05c-0.96-0.45-1.94-0.91-2.47-1.63c1.6,0.77,3.16,2.08,5.62,2.39c1.43,0.18,3,0.89,4.38,0.96
		c1.38,0.06,2.73-0.36,4.09-0.57c-1.45-0.19-2.94,0.35-4.47,0.19c-0.7-0.07-1.42-0.35-2.19-0.57c-0.75-0.22-1.56-0.32-2.28-0.48
		c-0.72-0.16-1.32-0.48-2-0.77c-1.25-0.52-2.24-0.74-2.86-1.82c1.28,0.61,2.78,1.98,4.76,2.39c0.73,0.15,1.54,0.15,2.28,0.38
		c1.38,0.42,2.81,0.76,4.76,0.48c1.2-0.17,2.25-0.52,3.33-0.86c-0.77,0.02-1.57,0.38-2.66,0.48c-1.22,0.11-2.66,0.16-3.9,0
		c-1.28-0.16-2.36-0.61-3.81-0.96c-1.33-0.32-3.42-1.19-4.19-2.2c0.62-0.02,1.08,0.56,1.62,0.86c2.78,1.53,8.52,3.11,12.47,1.34
		c-1.67,0.16-3.5,0.65-5.43,0.48c-0.83-0.08-1.87-0.34-2.76-0.57c-0.86-0.23-1.78-0.48-2.47-0.77c-0.24-0.1-0.44-0.37-0.67-0.48
		c-1.02-0.48-2.22-0.76-2.57-1.72c1,0.43,1.84,1.41,3.05,1.91c0.43,0.18,0.91,0.13,1.33,0.29c0.37,0.13,0.65,0.47,1.05,0.57
		c0.21,0.06,0.52-0.04,0.76,0c0.85,0.14,1.76,0.54,2.57,0.57c1.62,0.06,3.26-0.38,4.76-0.86c-1.2,0.11-3.07,0.55-5.04,0.38
		c-1.13-0.09-2.57-0.48-3.81-0.86c-1.87-0.58-3.38-1.12-4.19-2.49c0.86,0.64,1.88,1.42,3.24,1.91c3.09,1.13,7.93,2.1,10.76-0.19
		c-2.72,1.62-7.61,1.26-10.37-0.1c1-0.09,2.03,0.64,3.33,0.86c2.39,0.4,5.15-0.1,6.66-1.15c-1.17,0.38-2.44,0.87-3.9,0.96
		c-2.32,0.14-4.71-0.67-6.38-1.34c1.3,0.04,2.74,0.92,4.38,1.05c2.4,0.2,4.89-0.36,6.19-1.63c-0.61,0.01-0.87,0.61-1.52,0.86
		c-1.93,0.75-4.92,0.43-6.76-0.1c1.07-0.08,1.99,0.4,3.52,0.29c1.33-0.1,2.62-0.44,3.62-0.96c0.43-0.22,0.92-0.48,1.14-0.67
		c0.4-0.34,0.47-1.03,1.05-1.05c-0.15,0.55-0.53,0.88-0.76,1.34c0.19,0.21,0.51-0.64,0.76-0.38c0.05,1-1.01,0.9-1.33,1.53
		c0.92-0.22,1.42-0.87,1.9-1.53c0.19,0.86-0.83,1.33-1.33,1.82c0.59,0.02,1.23-0.74,1.62-1.24c0.32,0.83-0.72,1.13-1.05,1.63
		c0.43,0.05,1.06-0.53,1.33-0.96c0.25,0.67-0.62,1.03-0.95,1.43c0.92-0.13,1.14-0.96,1.71-1.43c-0.08,0.68-0.84,1.52-1.43,2.01
		c0.73,0.01,0.95-0.94,1.52-0.77c-0.12,0.62-0.73,0.74-1.05,1.15c0.45,0.26,0.95-0.77,1.24-0.67c0,0.7-0.55,0.85-0.86,1.24
		c0.46-0.02,0.73-0.73,1.05-0.57c-0.05,0.75-0.77,0.82-1.05,1.34c0.58-0.38,1.27-0.64,1.52-1.34c0.07,0.84-1.01,1.35-1.52,1.91
		c0.79-0.19,1.24-0.81,1.62-1.15c0.04,0.67-0.98,1.12-1.43,1.63c0.72,0.12,1.03-1,1.81-1.15c-0.23,0.54-0.74,0.79-1.05,1.24
		c0.36,0.07,0.55-0.52,0.76-0.29c0.09,0.47-0.5,0.26-0.38,0.77C36.79,30.32,36,30.94,35.98,31.22z M32.65,26.63
		c0.21-0.07,0.52-0.06,0.57-0.29C32.89,26.29,32.73,26.42,32.65,26.63z M32.27,26.73C31.78,26.96,32.6,26.97,32.27,26.73
		L32.27,26.73z M33.13,27.87c0.11-0.05,0.22-0.1,0.29-0.19C33.29,27.67,32.89,27.83,33.13,27.87z M31.22,29.21
		c0.57-0.03,1.49-0.22,1.43-0.57C32.3,28.96,31.61,28.93,31.22,29.21z M32.27,32.85c0.24-0.01,0.45-0.05,0.57-0.19
		C32.57,32.64,32.36,32.68,32.27,32.85z M31.61,33.04c0-0.16,0.26-0.05,0.29-0.19C31.7,32.77,31.37,33,31.61,33.04z M33.79,33.71
		c0.32,0.04,0.41-0.17,0.57-0.29C34.08,33.42,33.88,33.51,33.79,33.71z M31.32,33.8c0.3,0.01,0.53-0.04,0.67-0.19
		C31.77,33.68,31.24,33.44,31.32,33.8z M31.03,34.57c0.84-0.12,1.56-0.35,2.19-0.67C32.43,34.06,31.64,34.22,31.03,34.57z
		 M33.03,34.67c0.17-0.09,0.51,0,0.48-0.29C33.29,34.41,33.1,34.48,33.03,34.67z M30.18,34.76c0.31-0.01,0.59-0.05,0.76-0.19
		C30.64,34.56,30.28,34.39,30.18,34.76z M27.8,35.05c0.74,0.01,1.41-0.05,1.9-0.29C29.27,34.74,28.29,34.83,27.8,35.05z
		 M32.37,34.95c0.22,0.03,0.36-0.02,0.38-0.19C32.53,34.73,32.39,34.78,32.37,34.95z M29.13,35.62c0.97-0.01,1.83-0.14,2.47-0.48
		C30.79,35.31,29.77,35.28,29.13,35.62z M26.94,36.39c1.44-0.01,3.02,0,4.19-0.29c0.52-0.13,1.2-0.43,1.43-0.67
		C31.02,36.13,28.71,36.2,26.94,36.39z M23.71,36.67c-0.2-0.06-0.27-0.24-0.57-0.19C23.01,36.81,23.62,36.88,23.71,36.67z
		 M30.37,36.87c0.3,0.01,0.53-0.04,0.67-0.19C30.76,36.69,30.38,36.59,30.37,36.87z M25.99,37.06c-0.68-0.05-1.73-0.24-2.19-0.19
		C24.42,36.98,25.27,37.36,25.99,37.06z M26.47,37.06c1.04,0.06,2.51,0.19,3.52-0.19C28.86,36.97,27.53,36.88,26.47,37.06z
		 M31.03,37.25c0.3,0.02,0.57,0,0.67-0.19C31.41,37.05,31.17,37.1,31.03,37.25z M29.8,37.63c0.34-0.01,0.54-0.16,0.76-0.29
		C30.32,37.46,29.82,37.3,29.8,37.63z M26.37,37.73c-0.86,0-1.36-0.1-2.19-0.29c-0.06,0-0.13,0-0.19,0
		C24.35,37.91,25.68,37.91,26.37,37.73z M23.04,37.73c-0.44,0.02-0.96-0.37-1.33-0.1C22.05,37.7,22.7,37.97,23.04,37.73z
		 M28.46,37.73c0.29,0,0.57,0,0.86,0C29.38,37.31,28.28,37.71,28.46,37.73z M28.27,37.63c-0.17,0.06-0.56-0.12-0.57,0.1
		C27.87,37.67,28.26,37.84,28.27,37.63z M25.23,38.21c-0.66,0.03-1.42-0.36-1.9-0.19C23.95,38,24.81,38.63,25.23,38.21z
		 M30.37,38.11c-0.14,0.02-0.35-0.03-0.38,0.1C30.13,38.19,30.34,38.24,30.37,38.11z M27.32,38.3c-0.61,0.03-1.26-0.1-1.71,0.1
		c1.12,0.13,1.83-0.01,3.14,0C28.49,37.96,27.84,38.28,27.32,38.3z M29.51,38.21c-0.2,0.06-0.63-0.12-0.67,0.1
		C29.09,38.39,29.38,38.46,29.51,38.21z"/>
	<path id="XMLID_1550_" class="st0" d="M18.76,23.67c1.16,0.59,1.78,1.72,3.24,2.01C20.72,25.59,19.41,24.7,18.76,23.67z"/>
	<path id="XMLID_1544_" class="st0" d="M13.24,4.53c0.19,0.07,0.25,0.26,0.29,0.48c0.33-0.5,0.67,0.24,1.05,0.29
		c0.05,0.72-0.22,1.75,0.57,1.72c-0.16,0.32-0.35,0.32-0.19,0.77c-0.3-0.05-0.39,0.12-0.48,0.29c-0.14,0.36,0.43,0.02,0.29,0.38
		c-0.31,0.35-0.87-0.21-1.24-0.38C13.85,6.97,13.03,5.86,13.24,4.53z M14.09,6.16c-0.01-0.24,0.15-0.3,0.19-0.48
		C14.02,5.72,14.19,5.33,14,5.3C13.87,5.58,13.92,5.93,14.09,6.16z M14,6.54c0.03-0.13-0.06-0.37-0.1-0.19
		C13.88,6.48,13.96,6.72,14,6.54z M14.38,6.93c0.01-0.13,0.01-0.69-0.1-0.38C14.27,6.67,14.27,7.23,14.38,6.93z M14.57,7.02
		C14.09,7.41,14.9,7.47,14.57,7.02L14.57,7.02z"/>
</g>
</svg>
