<?xml version="1.0" encoding="utf-8"?>
<!-- Generator: Adobe Illustrator 23.0.5, SVG Export Plug-In . SVG Version: 6.00 Build 0)  -->
<svg version="1.1" id="Layer_1" xmlns="http://www.w3.org/2000/svg" xmlns:xlink="http://www.w3.org/1999/xlink" x="0px" y="0px"
	 viewBox="0 0 1327 306" style="enable-background:new 0 0 1327 306;" xml:space="preserve">
<style type="text/css">
	.st0{fill:#F0F0F0;}
</style>
<g id="XMLID_10938_">
	<g id="XMLID_1853_">
		<path id="XMLID_14108_" class="st0" d="M1251.06,44.91c7.33-2.93,10.74-7.37,0.46-8.67c-1.96-1.99-3.91-3.87-5.54-5.86
			c7.19-1.47,3.14-3.99,3.86-6.02c-2.11-0.64-4.57-1.39-6.69-2.02c6.23-1.12,6.35-2.69,5.78-4.37c-3.85-1.06-9.47-0.29-12.7,0.66
			c-1.44-0.65-2.56-1.42-3.66-2.08c-5.95,0.78-11.55,1.66-17.5,2.43c-1.68,0.03-3.02,0.05-4.7,0.08c-0.94-1.9-1.57-3.91-2.51-5.81
			c-0.41-0.56-1.17-1.11-1.92-1.66c-2.22-1.42-4.76-2.73-6.98-4.16c-2.08-0.42-4.47-0.71-6.54-1.02c-3.74-0.27-7.82-0.54-11.56-0.82
			c-1.82-0.98-8.46-0.3-12.84-0.34c-6.04,0.1-11.76,0.19-17.8,0.29c-6.11-0.35-11.87-0.59-17.96-0.83
			c-4.85-0.93-9.88-0.85-14.58-0.77c-5.44-0.36-10.86-0.61-16.28-0.86c-3.36,0.06-6.38,0.11-9.74,0.16
			c-2.72-0.18-5.42-0.25-8.14-0.42c-10.55-0.84-16.74-1.75-24.4-1.17c-9.75,0.16-19.15,0.32-28.88,0.48
			c-7.72,0.13-15.11,0.25-22.5,0.37c-2.73-0.18-5.44-0.36-8.15-0.42c-3.66-2.08-13.07-1.92-17.87-0.27
			c-0.75-0.55-1.15-0.99-1.9-1.54c-8.05,0.25-16.07,0.61-24.11,0.96c-6.02,0.22-11.7,0.53-17.73,0.75c-3.1-0.4-6.53-0.9-9.97-1.41
			c-3.02,0.05-6.38,0.11-9.33,0.72c-3.75-0.38-7.83-0.65-11.57-0.93c-3.5-0.95-8.44-0.2-12.85-0.35c-3.35,0.06-6.7,0.11-9.73,0.16
			c-13.37,0.68-26.75,1.23-40.14,1.79c-1.03-0.21-2.06-0.3-3.43-0.51c-5.33,0.43-10.64,0.85-15.97,1.39
			c-2.02,0.04-4.36,0.07-6.38,0.11c-8.18,1.71-11.52,1.88-14.29,1.25c-2.71-0.06-5.42-0.24-8.12-0.31c-6.94,0.9-2.37-2.44-8.38-2.11
			c-1.9,0.82-4.16,1.53-6.06,2.35c-5.04,0.09-13.75,2.71-14.86-0.31C763,4.67,755.27,4.8,750.8,4.09
			c-5.95,0.77-7.02,0.34-14.59-0.88c-0.61,2.82-2.64,2.74-7.98,0.69c-9.38,1.58-19.79,1.62-28.61,1.38
			c-3.13-0.17-5.91-0.57-7.71-1.69c-2.62-0.49-14.55-2-11.2,0.86c-3.05,0.2-5.84,0.31-8.52,0.35c-0.14,0-0.3,0-0.44,0.01
			c-8.16,0.12-15.27-0.3-25.04-0.27c-0.08,0.08-0.22,0.13-0.33,0.21c-0.17-0.01-0.33-0.01-0.5-0.03c3.29-2.87-8.61-1.32-11.22-0.83
			c-0.77,0.49-1.73,0.83-2.82,1.09c-9.64,0.4-22.28,0.74-33.5-1.12c-5.3,2.06-7.33,2.15-8-0.67c-7.55,1.24-8.61,1.68-14.57,0.93
			c-4.46,0.73-12.19,0.62-16.13-0.22c-1.05,3.02-9.81,0.43-14.85,0.35c-1.91-0.81-4.18-1.52-6.1-2.33
			c-6.02-0.31-1.39,3.02-8.34,2.13c-2.7,0.08-5.41,0.26-8.12,0.34c-2.76,0.64-6.11,0.48-14.32-1.21c-2.02-0.03-4.36-0.06-6.38-0.09
			c-5.33-0.52-10.65-0.93-15.99-1.34c-1.37,0.21-2.4,0.3-3.43,0.52c-13.4-0.52-26.79-1.04-40.17-1.68
			c-3.03-0.04-6.38-0.09-9.74-0.13c-4.4,0.17-9.35-0.58-12.84,0.39c-3.74,0.28-7.81,0.57-11.55,0.96c-2.96-0.6-6.32-0.65-9.34-0.69
			c-3.43,0.52-6.85,1.03-9.94,1.44c-6.03-0.19-11.71-0.5-17.74-0.7c-8.04-0.33-16.07-0.67-24.13-0.89c-0.73,0.55-1.13,1-1.87,1.55
			c-4.84-1.64-14.25-1.77-17.87,0.32c-2.71,0.07-5.41,0.26-8.14,0.45c-7.38-0.1-14.78-0.2-22.5-0.31
			c-9.74-0.13-19.14-0.26-28.89-0.4c-7.67-0.56-13.84,0.37-24.38,1.24c-2.71,0.19-5.42,0.26-8.13,0.45
			c-3.36-0.04-6.38-0.08-9.74-0.14c-5.42,0.27-10.83,0.52-16.26,0.9c-4.7-0.07-9.74-0.13-14.56,0.81
			c-6.09,0.26-11.84,0.51-17.94,0.88c-6.05-0.08-11.76-0.16-17.81-0.24c-4.38,0.05-11.03-0.61-12.83,0.38
			c-3.74,0.29-7.81,0.57-11.54,0.85c-2.06,0.31-4.45,0.61-6.52,1.04c-2.19,1.43-4.71,2.75-6.91,4.17c-0.74,0.55-1.48,1.1-1.88,1.66
			c-0.91,1.9-1.5,3.91-2.4,5.81c-1.68-0.02-3.02-0.04-4.7-0.07c-5.96-0.76-11.58-1.62-17.54-2.38c-1.08,0.66-2.19,1.44-3.62,2.09
			c-3.25-0.94-8.88-1.7-12.71-0.63c-0.54,1.68-0.4,3.25,5.86,4.35c-2.1,0.64-4.55,1.4-6.65,2.04c0.76,2.03-3.25,4.56,3.97,6.01
			c-1.59,2-3.51,3.89-5.44,5.88c-10.26,1.32-6.77,5.76,0.61,8.67c-9.74,2.57-1.22,4.48,2.16,7c-0.14,1.12-0.26,2.13-0.4,3.25
			c1.68,0.02,3.36,0.05,5.05,0.07c-0.13,1.01-0.27,2.13-0.41,3.25c2.24,0.93,6.43,2.45,9.28,3.84c-0.04,0.34-0.09,0.67-0.14,1.13
			c0.43,2.02,14.77,0.31,15.67,3.92c1.13-1,2.28-2.1,3.41-3.1c7.42,2.58,8.49,4.84,13.73,6.03c3.14-0.85,5.56-1.49,7.11-3.05
			c2.68,0.04,1.19-1.45,0.33-2.69c2.81-0.97,5.26-1.72,8.4-2.58c3.5,1.62,3.39,2.52,9.15,2.26c0.68-2.8,12.63-1.51,18.27-3.57
			c6.39,0.09,17.55,2.27,18.07-1.88c9.59,1.36,21.08,0.96,27.68-0.74c4.34,0.28,6.91,1.33,10.95,1.27
			c5.08-0.26,9.83-0.54,14.58-0.92c12.75,0.29,18.08-2,27.8-1.75c4.76-0.27,9.83-0.54,14.58-0.81c0.83-0.07,1.66-0.13,2.49-0.19
			c2.27,0.1,4.93,0.05,7.44-0.03c6.06,0.01,11.81,0.14,17.88,0.26c3.66-0.28,7.66-0.57,11.34-0.75c1.01-0.02,2.02-0.04,3.03-0.06
			c4.39-0.26,8.8-0.45,13.2-0.68c4.18,0.51,8.21,0.6,13.37-0.32c0.29-0.01,0.61-0.01,0.9-0.01c1.83,1.09,3.66,2.07,5.16,3.17
			c2.68-0.04,5.37-0.09,7.9-1.26c3.35-0.05,6.72-0.11,9.74-0.16c3.39,0.17,6.44,0.34,9.81,0.4c0.26-0.57,0.87-1.03,1.45-1.6
			c9.09-0.04,18.19,0.04,27.29,0.11c15.07-0.47,30.16-0.95,45.25-1.31c3.02-0.05,6.38-0.1,9.74-0.16c8.4-0.03,17.17,0.05,25.6,0.13
			c5.24,1.38,9.35,1.87,9.73-0.16c3.36-0.05,6.38-0.1,9.74-0.16c3.61-0.62,7.24-1.24,11.18-1.87c1.01-0.02,2.24-0.04,3.49-0.06
			c0.56,0.01,1.12,0.02,1.68,0.04c21.38,2.8,37.06,0.22,54.42,0.15c21.08,1.45,50.87,0.28,72.63-0.64c0.16-0.11,0.35-0.19,0.55-0.26
			c1.74-0.03,3.47-0.07,5.23-0.12c0.32-0.1,0.56-0.19,0.8-0.28c0.49,0,0.96-0.01,1.4-0.03c0.68,0.1,1.04,0.32,1.75,0.53
			c4.18,0.11,8.3,0.16,12.39,0.17c20.93,0.79,47.02,1.55,66.03,0.18c16.08,0.02,30.76,2.18,49.78,0.24
			c3.76-0.06,7.61-0.17,11.46-0.27c3.32,0.53,6.47,1.05,9.57,1.58c3.36,0.05,6.38,0.09,9.74,0.14c0.42,2.03,4.52,1.53,9.73,0.13
			c8.43-0.1,17.2-0.21,25.6-0.21c3.19,0.05,6.36,0.09,9.26,0.13c4.43,0.24,8.88,0.41,13.41,0.32c10.79,0.27,21.57,0.56,32.35,0.87
			c9.09-0.1,18.2-0.2,27.29-0.18c0.59,0.57,1.21,1.03,1.48,1.59c3.37-0.07,6.42-0.25,9.81-0.43c3.02,0.04,6.39,0.09,9.74,0.13
			c2.55,1.16,5.24,1.2,7.92,1.23c1.38-1.03,3.06-1.96,4.74-2.97c5.94,1.18,10.35,1.09,14.98,0.49c2.03-0.04,3.98-0.07,5.93-0.1
			c2.31,0.11,4.62,0.21,6.93,0.34c1.01,0.02,2.02,0.03,3.03,0.05c3.68,0.16,7.68,0.44,11.35,0.71c2.54-0.06,5.01-0.11,7.49-0.17
			c1.31,0.04,2.55,0.02,3.75-0.06c2.2-0.04,4.39-0.08,6.64-0.09c0.46,0.01,0.94,0.02,1.41,0.04c2.84,0.18,5.68,0.37,8.53,0.61
			c4.75,0.26,9.83,0.51,14.59,0.77c9.71-0.27,15.09,2,27.83,1.67c4.76,0.37,9.51,0.63,14.6,0.88c4.04,0.05,6.59-1.01,10.93-1.3
			c6.63,1.69,18.13,2.06,27.69,0.66c0.59,4.15,11.72,1.94,18.1,1.83c5.68,2.04,17.61,0.72,18.33,3.52c5.76,0.24,5.63-0.66,9.11-2.29
			c3.15,0.85,5.61,1.59,8.44,2.56c-0.83,1.25-2.3,2.74,0.38,2.69c1.57,1.55,4.01,2.18,7.16,3.03c5.22-1.21,6.25-3.48,13.62-6.07
			c1.15,0.99,2.31,2.1,3.47,3.09c0.84-3.61,15.21-1.94,15.6-3.97c-0.06-0.45-0.11-0.79-0.16-1.12c2.83-1.4,6.99-2.93,9.21-3.86
			c-0.16-1.12-0.32-2.24-0.47-3.25c1.68-0.03,3.36-0.06,5.04-0.08c-0.16-1.12-0.3-2.13-0.46-3.25
			C1252.36,49.38,1260.84,47.45,1251.06,44.91z M199.02,41.49c-4.81,0.02-9.58,0.13-14.17,0.26
			C189.64,41.27,194.35,41.27,199.02,41.49z M231.95,42.8c-1.3,0.22-2.84,0.32-4.7,0.23C228.81,43,230.38,42.92,231.95,42.8z
			 M238.17,41.05c0.6-0.65,3.04-0.55,5.18-0.52c-0.05,0.01-0.11,0.02-0.16,0.03C241.13,40.42,239.58,40.68,238.17,41.05z
			 M246.68,39.48c1.12,0.04,2.14,0.02,3.17,0.01c-1.05,0.16-2.09,0.33-3.13,0.5C246.79,39.85,246.81,39.69,246.68,39.48z
			 M1080.51,38.52c-0.12,0.21-0.1,0.37-0.03,0.51c-1.05-0.16-2.09-0.33-3.14-0.49C1078.36,38.55,1079.38,38.56,1080.51,38.52z
			 M1089.05,40.07c-1.43-0.37-2.97-0.62-5.03-0.48c-0.05-0.01-0.11-0.02-0.16-0.03C1086.01,39.54,1088.44,39.42,1089.05,40.07z
			 M1100,42.02c-1.86,0.09-3.4,0-4.7-0.22C1096.87,41.92,1098.44,42,1100,42.02z M1142.38,40.62c-4.59-0.12-9.36-0.22-14.17-0.22
			C1132.88,40.17,1137.59,40.16,1142.38,40.62z M197.92,55.55c3.14,0.04,6.27,0.09,9.41,0.13
			C202.97,55.63,200.61,55.59,197.92,55.55C197.92,55.56,197.92,55.55,197.92,55.55z M1129.56,54.46
			C1129.56,54.46,1129.56,54.46,1129.56,54.46c-2.69,0.05-5.04,0.09-9.41,0.16C1123.28,54.57,1126.42,54.51,1129.56,54.46z"/>
		<path id="XMLID_11042_" class="st0" d="M1275.62,100.72c7.33-2.93,10.74-7.37,0.46-8.67c-1.96-1.99-3.91-3.87-5.54-5.86
			c7.19-1.47,3.14-3.99,3.86-6.02c-2.11-0.64-4.57-1.39-6.69-2.02c6.23-1.12,6.35-2.69,5.78-4.37c-3.85-1.06-9.47-0.29-12.7,0.66
			c-1.44-0.65-2.56-1.42-3.66-2.08c-5.95,0.78-11.55,1.66-17.5,2.43c-1.68,0.03-3.02,0.05-4.7,0.08c-0.94-1.9-1.57-3.91-2.51-5.81
			c-0.41-0.56-1.17-1.11-1.92-1.66c-2.22-1.42-4.76-2.73-6.98-4.16c-2.08-0.42-4.47-0.71-6.54-1.02c-3.74-0.27-7.82-0.54-11.56-0.82
			c-1.82-0.98-8.46-0.3-12.84-0.34c-6.04,0.1-11.76,0.19-17.8,0.29c-6.11-0.35-11.87-0.59-17.96-0.83
			c-4.85-0.93-9.88-0.85-14.58-0.77c-5.44-0.36-10.86-0.61-16.28-0.86c-3.36,0.06-6.38,0.11-9.74,0.16
			c-2.72-0.18-5.42-0.25-8.14-0.42c-10.55-0.84-16.74-1.75-24.4-1.17c-9.75,0.16-19.15,0.32-28.88,0.48
			c-7.72,0.13-15.11,0.25-22.5,0.37c-2.73-0.18-5.44-0.36-8.15-0.42c-3.66-2.08-13.07-1.92-17.87-0.27
			c-0.75-0.55-1.15-0.99-1.9-1.54c-8.05,0.25-16.07,0.61-24.11,0.96c-6.02,0.22-11.7,0.53-17.73,0.75c-3.1-0.4-6.53-0.9-9.97-1.41
			c-3.02,0.05-6.38,0.11-9.33,0.72c-3.75-0.38-7.83-0.65-11.57-0.93c-3.5-0.95-8.44-0.2-12.85-0.35c-3.35,0.06-6.7,0.11-9.73,0.16
			c-13.37,0.68-26.75,1.23-40.14,1.79c-1.03-0.21-2.06-0.3-3.43-0.51c-5.33,0.43-10.64,0.85-15.97,1.39
			c-2.02,0.04-4.36,0.07-6.38,0.11c-8.18,1.71-11.52,1.88-14.29,1.25c-2.71-0.06-5.42-0.24-8.12-0.31c-6.94,0.9-2.37-2.44-8.38-2.11
			c-1.9,0.82-4.16,1.53-6.06,2.35c-5.04,0.09-13.75,2.71-14.86-0.31c-3.92,0.85-11.65,0.98-16.12,0.27
			c-5.95,0.77-7.02,0.34-14.59-0.88c-0.61,2.82-2.64,2.74-7.98,0.69c-9.38,1.58-19.79,1.62-28.61,1.38
			c-3.13-0.17-5.91-0.57-7.71-1.69c-2.62-0.49-14.55-2-11.2,0.86c-3.05,0.2-5.84,0.31-8.52,0.35c-0.14,0-0.3,0-0.44,0.01
			c-8.16,0.12-15.27-0.3-25.04-0.27c-0.08,0.08-0.22,0.13-0.33,0.21c-0.17-0.01-0.33-0.01-0.5-0.03c3.29-2.87-8.61-1.32-11.22-0.83
			c-0.77,0.49-1.73,0.83-2.82,1.09c-9.64,0.4-22.28,0.74-33.5-1.12c-5.3,2.06-7.33,2.15-8-0.67c-7.55,1.24-8.61,1.68-14.57,0.93
			c-4.46,0.73-12.19,0.62-16.13-0.22c-1.05,3.02-9.81,0.43-14.85,0.35c-1.91-0.81-4.18-1.52-6.1-2.33
			c-6.02-0.31-1.39,3.02-8.34,2.13c-2.7,0.08-5.41,0.26-8.12,0.34c-2.76,0.64-6.11,0.48-14.32-1.21c-2.02-0.03-4.36-0.06-6.38-0.09
			c-5.33-0.52-10.65-0.93-15.99-1.34c-1.37,0.21-2.4,0.3-3.43,0.52c-13.4-0.52-26.79-1.04-40.17-1.68
			c-3.03-0.04-6.38-0.09-9.74-0.13c-4.4,0.17-9.35-0.58-12.84,0.39c-3.74,0.28-7.81,0.57-11.55,0.96c-2.96-0.6-6.32-0.65-9.34-0.69
			c-3.43,0.52-6.85,1.03-9.94,1.44c-6.03-0.19-11.71-0.5-17.74-0.7c-8.04-0.33-16.07-0.67-24.13-0.89c-0.73,0.55-1.13,1-1.87,1.55
			c-4.84-1.64-14.25-1.77-17.87,0.32c-2.71,0.07-5.41,0.26-8.14,0.45c-7.38-0.1-14.78-0.2-22.5-0.31
			c-9.74-0.13-19.14-0.26-28.89-0.4c-7.67-0.56-13.84,0.37-24.38,1.24c-2.71,0.19-5.42,0.26-8.13,0.45
			c-3.36-0.04-6.38-0.08-9.74-0.14c-5.42,0.27-10.83,0.52-16.26,0.9c-4.7-0.07-9.74-0.13-14.56,0.81
			c-6.09,0.26-11.84,0.51-17.94,0.88c-6.05-0.08-11.76-0.16-17.81-0.24c-4.38,0.05-11.03-0.61-12.83,0.38
			c-3.74,0.29-7.81,0.57-11.54,0.85c-2.06,0.31-4.45,0.61-6.52,1.04c-2.19,1.43-4.71,2.75-6.91,4.17c-0.74,0.55-1.48,1.1-1.88,1.66
			c-0.91,1.9-1.5,3.91-2.4,5.81c-1.68-0.02-3.02-0.04-4.7-0.07c-5.96-0.76-11.58-1.62-17.54-2.38c-1.08,0.66-2.19,1.44-3.62,2.09
			c-3.25-0.94-8.88-1.7-12.71-0.63c-0.54,1.68-0.4,3.25,5.86,4.35c-2.1,0.64-4.55,1.4-6.65,2.04c0.76,2.03-3.25,4.56,3.97,6.01
			c-1.59,2-3.51,3.89-5.44,5.88c-10.26,1.32-6.77,5.76,0.61,8.67c-9.74,2.57-1.22,4.48,2.16,7c-0.14,1.12-0.26,2.13-0.4,3.25
			c1.68,0.02,3.36,0.05,5.05,0.07c-0.13,1.01-0.27,2.13-0.41,3.25c2.24,0.93,6.43,2.45,9.28,3.84c-0.04,0.34-0.09,0.67-0.14,1.13
			c0.43,2.02,14.77,0.31,15.67,3.92c1.13-1,2.28-2.1,3.41-3.1c7.42,2.58,8.49,4.84,13.73,6.03c3.14-0.85,5.56-1.49,7.11-3.05
			c2.68,0.04,1.19-1.45,0.33-2.69c2.81-0.97,5.26-1.72,8.4-2.58c3.5,1.62,3.39,2.52,9.15,2.26c0.68-2.8,12.63-1.51,18.27-3.57
			c6.39,0.09,17.55,2.27,18.07-1.88c9.59,1.36,21.08,0.96,27.68-0.74c4.34,0.28,6.91,1.33,10.95,1.27
			c5.08-0.26,9.83-0.54,14.58-0.92c12.75,0.29,18.08-2,27.8-1.75c4.76-0.27,9.83-0.54,14.58-0.81c0.83-0.07,1.66-0.13,2.49-0.19
			c2.27,0.1,4.93,0.05,7.44-0.03c6.06,0.01,11.81,0.14,17.88,0.26c3.66-0.28,7.66-0.57,11.34-0.75c1.01-0.02,2.02-0.04,3.03-0.06
			c4.39-0.26,8.8-0.45,13.2-0.68c4.18,0.51,8.21,0.6,13.37-0.32c0.29-0.01,0.61-0.01,0.9-0.01c1.83,1.09,3.66,2.07,5.16,3.17
			c2.68-0.04,5.37-0.09,7.9-1.26c3.35-0.05,6.72-0.11,9.74-0.16c3.39,0.17,6.44,0.34,9.81,0.4c0.26-0.57,0.87-1.03,1.45-1.6
			c9.09-0.04,18.19,0.04,27.29,0.11c15.07-0.47,30.16-0.95,45.25-1.31c3.02-0.05,6.38-0.1,9.74-0.16c8.4-0.03,17.17,0.05,25.6,0.13
			c5.24,1.38,9.35,1.87,9.73-0.16c3.36-0.05,6.38-0.1,9.74-0.16c3.61-0.62,7.24-1.24,11.18-1.87c1.01-0.02,2.24-0.04,3.49-0.06
			c0.56,0.01,1.12,0.02,1.68,0.04c21.38,2.8,37.06,0.22,54.42,0.15c21.08,1.45,50.87,0.28,72.63-0.64c0.16-0.11,0.35-0.19,0.55-0.26
			c1.74-0.03,3.47-0.07,5.23-0.12c0.32-0.1,0.56-0.19,0.8-0.28c0.49,0,0.96-0.01,1.4-0.03c0.68,0.1,1.04,0.32,1.75,0.53
			c4.18,0.11,8.3,0.16,12.39,0.17c20.92,0.79,47.02,1.55,66.03,0.18c16.08,0.02,30.76,2.18,49.78,0.24
			c3.76-0.06,7.61-0.17,11.46-0.27c3.32,0.53,6.47,1.05,9.57,1.58c3.36,0.05,6.38,0.09,9.74,0.14c0.42,2.03,4.52,1.53,9.74,0.13
			c8.43-0.1,17.2-0.21,25.6-0.21c3.19,0.05,6.36,0.09,9.26,0.13c4.43,0.24,8.88,0.41,13.41,0.32c10.79,0.27,21.57,0.56,32.35,0.87
			c9.09-0.1,18.2-0.2,27.29-0.18c0.59,0.57,1.21,1.03,1.48,1.59c3.37-0.07,6.42-0.25,9.81-0.43c3.02,0.04,6.39,0.09,9.74,0.13
			c2.55,1.16,5.24,1.2,7.92,1.23c1.38-1.03,3.06-1.96,4.74-2.97c5.94,1.18,10.35,1.09,14.98,0.49c2.03-0.04,3.98-0.07,5.93-0.1
			c2.31,0.11,4.62,0.21,6.93,0.34c1.01,0.02,2.02,0.03,3.03,0.05c3.68,0.16,7.68,0.44,11.35,0.71c2.54-0.06,5.01-0.11,7.49-0.17
			c1.31,0.04,2.55,0.02,3.75-0.06c2.2-0.04,4.39-0.08,6.64-0.09c0.46,0.01,0.94,0.02,1.41,0.04c2.84,0.18,5.68,0.37,8.53,0.61
			c4.75,0.26,9.83,0.51,14.59,0.77c9.71-0.27,15.09,2,27.83,1.67c4.76,0.37,9.51,0.63,14.6,0.88c4.04,0.05,6.59-1.01,10.93-1.3
			c6.63,1.69,18.13,2.06,27.69,0.66c0.59,4.15,11.72,1.94,18.1,1.83c5.68,2.04,17.61,0.72,18.33,3.52c5.76,0.24,5.63-0.66,9.11-2.29
			c3.15,0.85,5.61,1.59,8.44,2.56c-0.83,1.25-2.3,2.74,0.38,2.69c1.57,1.55,4.01,2.18,7.16,3.03c5.22-1.21,6.25-3.48,13.62-6.07
			c1.15,0.99,2.31,2.1,3.47,3.09c0.84-3.61,15.21-1.94,15.6-3.97c-0.06-0.45-0.11-0.79-0.16-1.12c2.83-1.4,6.99-2.93,9.21-3.86
			c-0.16-1.12-0.32-2.24-0.47-3.25c1.68-0.03,3.36-0.06,5.04-0.08c-0.16-1.12-0.3-2.13-0.46-3.25
			C1276.93,105.2,1285.41,103.26,1275.62,100.72z M223.58,97.3c-4.81,0.02-9.58,0.13-14.17,0.26
			C214.2,97.09,218.91,97.08,223.58,97.3z M256.52,98.61c-1.3,0.22-2.84,0.32-4.7,0.23C253.38,98.81,254.95,98.73,256.52,98.61z
			 M262.73,96.86c0.6-0.65,3.04-0.55,5.18-0.52c-0.05,0.01-0.11,0.02-0.16,0.03C265.69,96.23,264.15,96.49,262.73,96.86z
			 M271.25,95.29c1.12,0.04,2.14,0.02,3.17,0.01c-1.05,0.16-2.09,0.33-3.13,0.5C271.36,95.66,271.37,95.51,271.25,95.29z
			 M1105.07,94.34c-0.12,0.21-0.1,0.37-0.03,0.51c-1.05-0.16-2.09-0.33-3.14-0.49C1102.93,94.36,1103.95,94.38,1105.07,94.34z
			 M1113.62,95.89c-1.43-0.37-2.97-0.62-5.03-0.48c-0.05-0.01-0.11-0.02-0.16-0.03C1110.57,95.35,1113,95.23,1113.62,95.89z
			 M1124.56,97.83c-1.86,0.09-3.4,0-4.7-0.22C1121.43,97.73,1123,97.81,1124.56,97.83z M1166.94,96.43
			c-4.59-0.12-9.36-0.22-14.17-0.22C1157.44,95.98,1162.15,95.97,1166.94,96.43z M222.49,111.37c3.14,0.04,6.27,0.09,9.41,0.13
			C227.53,111.44,225.18,111.4,222.49,111.37C222.49,111.37,222.49,111.37,222.49,111.37z M1154.12,110.27
			C1154.12,110.27,1154.12,110.27,1154.12,110.27c-2.69,0.05-5.04,0.09-9.41,0.16C1147.85,110.38,1150.99,110.33,1154.12,110.27z"/>
		<path id="XMLID_11102_" class="st0" d="M1251.06,133.94c7.33-2.93,10.74-7.37,0.46-8.67c-1.96-1.99-3.91-3.87-5.54-5.86
			c7.19-1.47,3.14-3.99,3.86-6.02c-2.11-0.64-4.57-1.39-6.69-2.02c6.23-1.12,6.35-2.69,5.78-4.37c-3.85-1.06-9.47-0.29-12.7,0.66
			c-1.44-0.65-2.56-1.42-3.66-2.08c-5.95,0.78-11.55,1.66-17.5,2.43c-1.68,0.03-3.02,0.05-4.7,0.08c-0.94-1.9-1.57-3.91-2.51-5.81
			c-0.41-0.56-1.17-1.11-1.92-1.66c-2.22-1.42-4.76-2.73-6.98-4.16c-2.08-0.42-4.47-0.71-6.54-1.02c-3.74-0.27-7.82-0.54-11.56-0.82
			c-1.82-0.98-8.46-0.3-12.84-0.34c-6.04,0.1-11.76,0.19-17.8,0.29c-6.11-0.35-11.87-0.59-17.96-0.83
			c-4.85-0.93-9.88-0.85-14.58-0.77c-5.44-0.36-10.86-0.61-16.28-0.86c-3.36,0.06-6.38,0.11-9.74,0.16
			c-2.72-0.18-5.42-0.25-8.14-0.42c-10.55-0.84-16.74-1.75-24.4-1.17c-9.75,0.16-19.15,0.32-28.88,0.48
			c-7.72,0.13-15.11,0.25-22.5,0.37c-2.73-0.18-5.44-0.36-8.15-0.42c-3.66-2.08-13.07-1.92-17.87-0.27
			c-0.75-0.55-1.15-0.99-1.9-1.54c-8.05,0.25-16.07,0.61-24.11,0.96c-6.02,0.22-11.7,0.53-17.73,0.75c-3.1-0.4-6.53-0.9-9.97-1.41
			c-3.02,0.05-6.38,0.11-9.33,0.72c-3.75-0.38-7.83-0.65-11.57-0.93c-3.5-0.95-8.44-0.2-12.85-0.35c-3.35,0.06-6.7,0.11-9.73,0.16
			c-13.37,0.68-26.75,1.23-40.14,1.79c-1.03-0.21-2.06-0.3-3.43-0.51c-5.33,0.43-10.64,0.85-15.97,1.39
			c-2.02,0.04-4.36,0.07-6.38,0.11c-8.18,1.71-11.52,1.88-14.29,1.25c-2.71-0.06-5.42-0.24-8.12-0.31c-6.94,0.9-2.37-2.44-8.38-2.11
			c-1.9,0.82-4.16,1.53-6.06,2.35c-5.04,0.09-13.75,2.71-14.86-0.31c-3.92,0.85-11.65,0.98-16.12,0.27
			c-5.95,0.77-7.02,0.34-14.59-0.88c-0.61,2.82-2.64,2.74-7.98,0.69c-9.38,1.58-19.79,1.62-28.61,1.38
			c-3.13-0.17-5.91-0.57-7.71-1.69c-2.62-0.49-14.55-2-11.2,0.86c-3.05,0.2-5.84,0.31-8.52,0.35c-0.14,0-0.3,0-0.44,0.01
			c-8.16,0.12-15.27-0.3-25.04-0.27c-0.08,0.08-0.22,0.13-0.33,0.21c-0.17-0.01-0.33-0.01-0.5-0.03c3.29-2.87-8.61-1.32-11.22-0.83
			c-0.77,0.49-1.73,0.83-2.82,1.09c-9.64,0.4-22.28,0.74-33.5-1.12c-5.3,2.06-7.33,2.15-8-0.67c-7.55,1.24-8.61,1.68-14.57,0.93
			c-4.46,0.73-12.19,0.62-16.13-0.22c-1.05,3.02-9.81,0.43-14.85,0.35c-1.91-0.81-4.18-1.52-6.1-2.33
			c-6.02-0.31-1.39,3.02-8.34,2.13c-2.7,0.08-5.41,0.26-8.12,0.34c-2.76,0.64-6.11,0.48-14.32-1.21c-2.02-0.03-4.36-0.06-6.38-0.09
			c-5.33-0.52-10.65-0.93-15.99-1.34c-1.37,0.21-2.4,0.3-3.43,0.52c-13.4-0.52-26.79-1.04-40.17-1.68
			c-3.03-0.04-6.38-0.09-9.74-0.13c-4.4,0.17-9.35-0.58-12.84,0.39c-3.74,0.28-7.81,0.57-11.55,0.96c-2.96-0.6-6.32-0.65-9.34-0.69
			c-3.43,0.52-6.85,1.03-9.94,1.44c-6.03-0.19-11.71-0.5-17.74-0.7c-8.04-0.33-16.07-0.67-24.13-0.89c-0.73,0.55-1.13,1-1.87,1.55
			c-4.84-1.64-14.25-1.77-17.87,0.32c-2.71,0.07-5.41,0.26-8.14,0.45c-7.38-0.1-14.78-0.2-22.5-0.31
			c-9.74-0.13-19.14-0.26-28.89-0.4c-7.67-0.56-13.84,0.37-24.38,1.24c-2.71,0.19-5.42,0.26-8.13,0.45
			c-3.36-0.04-6.38-0.08-9.74-0.14c-5.42,0.27-10.83,0.52-16.26,0.9c-4.7-0.07-9.74-0.13-14.56,0.81
			c-6.09,0.26-11.84,0.51-17.94,0.88c-6.05-0.08-11.76-0.16-17.81-0.24c-4.38,0.05-11.03-0.61-12.83,0.38
			c-3.74,0.29-7.81,0.57-11.54,0.85c-2.06,0.31-4.45,0.61-6.52,1.04c-2.19,1.43-4.71,2.75-6.91,4.17c-0.74,0.55-1.48,1.1-1.88,1.66
			c-0.91,1.9-1.5,3.91-2.4,5.81c-1.68-0.02-3.02-0.04-4.7-0.07c-5.96-0.76-11.58-1.62-17.54-2.38c-1.08,0.66-2.19,1.44-3.62,2.09
			c-3.25-0.94-8.88-1.7-12.71-0.63c-0.54,1.68-0.4,3.25,5.86,4.35c-2.1,0.64-4.55,1.4-6.65,2.04c0.76,2.03-3.25,4.56,3.97,6.01
			c-1.59,2-3.51,3.89-5.44,5.88c-10.26,1.32-6.77,5.76,0.61,8.67c-9.74,2.57-1.22,4.48,2.16,7c-0.14,1.12-0.26,2.13-0.4,3.25
			c1.68,0.02,3.36,0.05,5.05,0.07c-0.13,1.01-0.27,2.13-0.41,3.25c2.24,0.93,6.43,2.45,9.28,3.84c-0.04,0.34-0.09,0.67-0.14,1.13
			c0.43,2.02,14.77,0.31,15.67,3.92c1.13-1,2.28-2.1,3.41-3.1c7.42,2.58,8.49,4.84,13.73,6.03c3.14-0.85,5.56-1.49,7.11-3.05
			c2.68,0.04,1.19-1.45,0.33-2.69c2.81-0.97,5.26-1.72,8.4-2.58c3.5,1.62,3.39,2.52,9.15,2.26c0.68-2.8,12.63-1.51,18.27-3.57
			c6.39,0.09,17.55,2.27,18.07-1.88c9.59,1.36,21.08,0.96,27.68-0.74c4.34,0.28,6.91,1.33,10.95,1.27
			c5.08-0.26,9.83-0.54,14.58-0.92c12.75,0.29,18.08-2,27.8-1.75c4.76-0.27,9.83-0.54,14.58-0.81c0.83-0.07,1.66-0.13,2.49-0.19
			c2.27,0.1,4.93,0.05,7.44-0.03c6.06,0.01,11.81,0.14,17.88,0.26c3.66-0.28,7.66-0.57,11.34-0.75c1.01-0.02,2.02-0.04,3.03-0.06
			c4.39-0.26,8.8-0.45,13.2-0.68c4.18,0.51,8.21,0.6,13.37-0.32c0.29-0.01,0.61-0.01,0.9-0.01c1.83,1.09,3.66,2.07,5.16,3.17
			c2.68-0.04,5.37-0.09,7.9-1.26c3.35-0.05,6.72-0.11,9.74-0.16c3.39,0.17,6.44,0.34,9.81,0.4c0.26-0.57,0.87-1.03,1.45-1.6
			c9.09-0.04,18.19,0.04,27.29,0.11c15.07-0.47,30.16-0.95,45.25-1.31c3.02-0.05,6.38-0.1,9.74-0.16c8.4-0.03,17.17,0.05,25.6,0.13
			c5.24,1.38,9.35,1.87,9.73-0.16c3.36-0.05,6.38-0.1,9.74-0.16c3.61-0.62,7.24-1.24,11.18-1.87c1.01-0.02,2.24-0.04,3.49-0.06
			c0.56,0.01,1.12,0.02,1.68,0.04c21.38,2.8,37.06,0.22,54.42,0.15c21.08,1.45,50.87,0.28,72.63-0.64c0.16-0.11,0.35-0.19,0.55-0.26
			c1.74-0.03,3.47-0.07,5.23-0.12c0.32-0.1,0.56-0.19,0.8-0.28c0.49,0,0.96-0.01,1.4-0.03c0.68,0.1,1.04,0.32,1.75,0.53
			c4.18,0.11,8.3,0.16,12.39,0.17c20.93,0.79,47.02,1.55,66.03,0.18c16.08,0.02,30.76,2.18,49.78,0.24
			c3.76-0.06,7.61-0.17,11.46-0.27c3.32,0.53,6.47,1.05,9.57,1.58c3.36,0.05,6.38,0.09,9.74,0.14c0.42,2.03,4.52,1.53,9.73,0.13
			c8.43-0.1,17.2-0.21,25.6-0.21c3.19,0.05,6.36,0.09,9.26,0.13c4.43,0.24,8.88,0.41,13.41,0.32c10.79,0.27,21.57,0.56,32.35,0.87
			c9.09-0.1,18.2-0.2,27.29-0.18c0.59,0.57,1.21,1.03,1.48,1.59c3.37-0.07,6.42-0.25,9.81-0.43c3.02,0.04,6.39,0.09,9.74,0.13
			c2.55,1.16,5.24,1.2,7.92,1.23c1.38-1.03,3.06-1.96,4.74-2.97c5.94,1.18,10.35,1.09,14.98,0.49c2.03-0.04,3.98-0.07,5.93-0.1
			c2.31,0.11,4.62,0.21,6.93,0.34c1.01,0.02,2.02,0.03,3.03,0.05c3.68,0.16,7.68,0.44,11.35,0.71c2.54-0.06,5.01-0.11,7.49-0.17
			c1.31,0.04,2.55,0.02,3.75-0.06c2.2-0.04,4.39-0.08,6.64-0.09c0.46,0.01,0.94,0.02,1.41,0.04c2.84,0.18,5.68,0.37,8.53,0.61
			c4.75,0.26,9.83,0.51,14.59,0.77c9.71-0.27,15.09,2,27.83,1.67c4.76,0.37,9.51,0.63,14.6,0.88c4.04,0.05,6.59-1.01,10.93-1.3
			c6.63,1.69,18.13,2.06,27.69,0.66c0.59,4.15,11.72,1.94,18.1,1.83c5.68,2.04,17.61,0.72,18.33,3.52c5.76,0.24,5.63-0.66,9.11-2.29
			c3.15,0.85,5.61,1.59,8.44,2.56c-0.83,1.25-2.3,2.74,0.38,2.69c1.57,1.55,4.01,2.18,7.16,3.03c5.22-1.21,6.25-3.48,13.62-6.07
			c1.15,0.99,2.31,2.1,3.47,3.09c0.84-3.61,15.21-1.94,15.6-3.97c-0.06-0.45-0.11-0.79-0.16-1.12c2.83-1.4,6.99-2.93,9.21-3.86
			c-0.16-1.12-0.32-2.24-0.47-3.25c1.68-0.03,3.36-0.06,5.04-0.08c-0.16-1.12-0.3-2.13-0.46-3.25
			C1252.36,138.41,1260.84,136.48,1251.06,133.94z M199.02,130.52c-4.81,0.02-9.58,0.13-14.17,0.26
			C189.64,130.3,194.35,130.3,199.02,130.52z M231.95,131.83c-1.3,0.22-2.84,0.32-4.7,0.23
			C228.81,132.03,230.38,131.95,231.95,131.83z M238.17,130.08c0.6-0.65,3.04-0.55,5.18-0.52c-0.05,0.01-0.11,0.02-0.16,0.03
			C241.13,129.45,239.58,129.71,238.17,130.08z M246.68,128.51c1.12,0.04,2.14,0.02,3.17,0.01c-1.05,0.16-2.09,0.33-3.13,0.5
			C246.79,128.88,246.81,128.72,246.68,128.51z M1080.51,127.55c-0.12,0.21-0.1,0.37-0.03,0.51c-1.05-0.16-2.09-0.33-3.14-0.49
			C1078.36,127.58,1079.38,127.59,1080.51,127.55z M1089.05,129.1c-1.43-0.37-2.97-0.62-5.03-0.48c-0.05-0.01-0.11-0.02-0.16-0.03
			C1086.01,128.57,1088.44,128.45,1089.05,129.1z M1100,131.05c-1.86,0.09-3.4,0-4.7-0.22
			C1096.87,130.95,1098.44,131.03,1100,131.05z M1142.38,129.65c-4.59-0.12-9.36-0.22-14.17-0.22
			C1132.88,129.2,1137.59,129.19,1142.38,129.65z M197.92,144.58c3.14,0.04,6.27,0.09,9.41,0.13
			C202.97,144.66,200.61,144.62,197.92,144.58C197.92,144.59,197.92,144.59,197.92,144.58z M1129.56,143.49
			C1129.56,143.49,1129.56,143.49,1129.56,143.49c-2.69,0.05-5.04,0.09-9.41,0.16C1123.28,143.6,1126.42,143.54,1129.56,143.49z"/>
		<path id="XMLID_11090_" class="st0" d="M1228.25,169.87c7.33-2.93,10.74-7.37,0.46-8.67c-1.96-1.99-3.91-3.87-5.54-5.86
			c7.19-1.47,3.14-3.99,3.86-6.02c-2.11-0.64-4.57-1.39-6.69-2.02c6.23-1.12,6.35-2.69,5.78-4.37c-3.85-1.06-9.47-0.29-12.7,0.66
			c-1.44-0.65-2.56-1.42-3.66-2.08c-5.95,0.78-11.55,1.66-17.5,2.43c-1.68,0.03-3.02,0.05-4.7,0.08c-0.94-1.9-1.57-3.91-2.51-5.81
			c-0.41-0.56-1.17-1.11-1.92-1.66c-2.22-1.42-4.76-2.73-6.98-4.16c-2.08-0.42-4.47-0.71-6.54-1.02c-3.74-0.27-7.82-0.54-11.56-0.82
			c-1.82-0.98-8.46-0.3-12.84-0.34c-6.04,0.1-11.76,0.19-17.8,0.29c-6.11-0.35-11.87-0.59-17.96-0.83
			c-4.85-0.93-9.88-0.85-14.58-0.77c-5.44-0.36-10.86-0.61-16.28-0.86c-3.36,0.06-6.38,0.11-9.74,0.16
			c-2.72-0.18-5.42-0.25-8.14-0.42c-10.55-0.84-16.74-1.75-24.4-1.17c-9.75,0.16-19.15,0.32-28.88,0.48
			c-7.72,0.13-15.11,0.25-22.5,0.37c-2.73-0.18-5.44-0.36-8.15-0.42c-3.66-2.08-13.07-1.92-17.87-0.27
			c-0.75-0.55-1.15-0.99-1.9-1.54c-8.05,0.25-16.07,0.61-24.11,0.96c-6.02,0.22-11.7,0.53-17.73,0.75c-3.1-0.4-6.53-0.9-9.97-1.41
			c-3.02,0.05-6.38,0.11-9.33,0.72c-3.75-0.38-7.83-0.65-11.57-0.93c-3.5-0.95-8.44-0.2-12.85-0.35c-3.35,0.06-6.7,0.11-9.73,0.16
			c-13.37,0.68-26.75,1.23-40.14,1.79c-1.03-0.21-2.06-0.3-3.43-0.51c-5.33,0.43-10.64,0.85-15.97,1.39
			c-2.01,0.04-4.36,0.07-6.38,0.11c-8.18,1.71-11.52,1.88-14.29,1.25c-2.71-0.06-5.42-0.24-8.12-0.31c-6.94,0.9-2.37-2.44-8.38-2.11
			c-1.9,0.82-4.16,1.53-6.06,2.35c-5.04,0.09-13.75,2.71-14.86-0.31c-3.92,0.85-11.65,0.98-16.12,0.27
			c-5.95,0.77-7.02,0.34-14.59-0.88c-0.61,2.82-2.64,2.74-7.98,0.69c-9.38,1.58-19.79,1.62-28.61,1.38
			c-3.13-0.17-5.91-0.57-7.71-1.69c-2.62-0.49-14.55-2-11.2,0.86c-3.05,0.2-5.84,0.31-8.52,0.35c-0.14,0-0.3,0-0.44,0.01
			c-8.16,0.12-15.27-0.3-25.04-0.27c-0.08,0.08-0.22,0.13-0.33,0.21c-0.17-0.01-0.33-0.01-0.5-0.03c3.29-2.87-8.61-1.32-11.22-0.83
			c-0.77,0.49-1.73,0.83-2.82,1.09c-9.64,0.4-22.28,0.74-33.5-1.12c-5.3,2.06-7.33,2.15-8-0.67c-7.55,1.24-8.61,1.68-14.57,0.93
			c-4.46,0.73-12.19,0.62-16.13-0.22c-1.05,3.02-9.81,0.43-14.85,0.35c-1.91-0.81-4.18-1.52-6.1-2.33
			c-6.02-0.31-1.39,3.02-8.34,2.13c-2.7,0.08-5.41,0.26-8.12,0.34c-2.76,0.64-6.11,0.48-14.32-1.21c-2.02-0.03-4.36-0.06-6.38-0.09
			c-5.33-0.52-10.65-0.93-15.99-1.34c-1.37,0.21-2.4,0.3-3.43,0.52c-13.4-0.52-26.79-1.04-40.17-1.68
			c-3.03-0.04-6.38-0.09-9.74-0.13c-4.4,0.17-9.35-0.58-12.84,0.39c-3.74,0.28-7.81,0.57-11.55,0.96c-2.96-0.6-6.32-0.65-9.34-0.69
			c-3.43,0.52-6.85,1.03-9.94,1.44c-6.03-0.19-11.71-0.5-17.74-0.7c-8.04-0.33-16.07-0.67-24.13-0.89c-0.73,0.55-1.13,1-1.87,1.55
			c-4.84-1.64-14.25-1.77-17.87,0.32c-2.71,0.07-5.41,0.26-8.14,0.45c-7.38-0.1-14.78-0.2-22.5-0.31
			c-9.74-0.13-19.14-0.26-28.89-0.4c-7.67-0.56-13.84,0.37-24.38,1.24c-2.71,0.19-5.42,0.26-8.13,0.45
			c-3.36-0.04-6.38-0.08-9.74-0.14c-5.42,0.27-10.83,0.52-16.26,0.9c-4.7-0.07-9.74-0.13-14.56,0.81
			c-6.09,0.26-11.84,0.51-17.94,0.88c-6.05-0.08-11.76-0.16-17.81-0.24c-4.38,0.05-11.03-0.61-12.83,0.38
			c-3.74,0.29-7.81,0.57-11.54,0.85c-2.06,0.31-4.45,0.61-6.52,1.04c-2.19,1.43-4.71,2.75-6.91,4.17c-0.74,0.55-1.48,1.1-1.88,1.66
			c-0.91,1.9-1.5,3.91-2.4,5.81c-1.68-0.02-3.02-0.04-4.7-0.07c-5.96-0.76-11.58-1.62-17.54-2.38c-1.08,0.66-2.19,1.44-3.62,2.09
			c-3.25-0.94-8.88-1.7-12.71-0.63c-0.54,1.68-0.4,3.25,5.86,4.35c-2.1,0.64-4.55,1.4-6.65,2.04c0.76,2.03-3.25,4.56,3.97,6.01
			c-1.59,2-3.51,3.89-5.44,5.88c-10.26,1.32-6.77,5.76,0.61,8.67c-9.74,2.57-1.22,4.48,2.16,7c-0.14,1.12-0.26,2.13-0.4,3.25
			c1.68,0.02,3.36,0.05,5.05,0.07c-0.13,1.01-0.27,2.13-0.41,3.25c2.24,0.93,6.43,2.45,9.28,3.84c-0.04,0.34-0.09,0.67-0.14,1.13
			c0.43,2.02,14.77,0.31,15.67,3.92c1.13-1,2.28-2.1,3.41-3.1c7.42,2.58,8.49,4.84,13.73,6.03c3.14-0.85,5.56-1.49,7.11-3.05
			c2.68,0.04,1.19-1.45,0.33-2.69c2.81-0.97,5.26-1.72,8.4-2.58c3.5,1.62,3.39,2.52,9.15,2.26c0.68-2.8,12.63-1.51,18.27-3.57
			c6.39,0.09,17.55,2.27,18.07-1.88c9.59,1.36,21.08,0.96,27.68-0.74c4.34,0.28,6.91,1.33,10.95,1.27
			c5.08-0.26,9.83-0.54,14.58-0.92c12.75,0.29,18.08-2,27.8-1.75c4.76-0.27,9.83-0.54,14.58-0.81c0.83-0.07,1.66-0.13,2.49-0.19
			c2.27,0.1,4.93,0.05,7.44-0.03c6.06,0.01,11.81,0.14,17.88,0.26c3.66-0.28,7.66-0.57,11.34-0.75c1.01-0.02,2.02-0.04,3.03-0.06
			c4.39-0.26,8.8-0.45,13.2-0.68c4.18,0.51,8.21,0.6,13.37-0.32c0.29-0.01,0.61-0.01,0.9-0.01c1.83,1.09,3.66,2.07,5.16,3.17
			c2.68-0.04,5.37-0.09,7.9-1.26c3.35-0.05,6.72-0.11,9.74-0.16c3.39,0.17,6.44,0.34,9.81,0.4c0.26-0.57,0.87-1.03,1.45-1.6
			c9.09-0.04,18.19,0.04,27.29,0.11c15.07-0.47,30.16-0.95,45.25-1.31c3.02-0.05,6.38-0.1,9.74-0.16c8.4-0.03,17.17,0.05,25.6,0.13
			c5.24,1.38,9.35,1.87,9.73-0.16c3.36-0.05,6.38-0.1,9.74-0.16c3.61-0.62,7.24-1.24,11.18-1.87c1.01-0.02,2.24-0.04,3.49-0.06
			c0.56,0.01,1.12,0.02,1.68,0.04c21.38,2.8,37.06,0.22,54.42,0.15c21.08,1.45,50.87,0.28,72.63-0.64c0.16-0.11,0.35-0.19,0.55-0.26
			c1.74-0.03,3.47-0.07,5.23-0.12c0.32-0.1,0.56-0.19,0.8-0.28c0.49,0,0.96-0.01,1.4-0.03c0.68,0.1,1.04,0.32,1.75,0.53
			c4.18,0.11,8.3,0.16,12.39,0.17c20.93,0.79,47.02,1.55,66.03,0.18c16.08,0.02,30.76,2.18,49.78,0.24
			c3.76-0.06,7.61-0.17,11.46-0.27c3.32,0.53,6.47,1.05,9.57,1.58c3.36,0.05,6.38,0.09,9.74,0.14c0.42,2.03,4.52,1.53,9.74,0.13
			c8.43-0.1,17.2-0.21,25.6-0.21c3.19,0.05,6.36,0.09,9.26,0.13c4.43,0.24,8.88,0.41,13.41,0.32c10.79,0.27,21.57,0.56,32.35,0.87
			c9.09-0.1,18.2-0.2,27.29-0.18c0.59,0.57,1.21,1.03,1.48,1.59c3.37-0.07,6.42-0.25,9.81-0.43c3.02,0.04,6.39,0.09,9.74,0.13
			c2.55,1.16,5.24,1.2,7.92,1.23c1.38-1.03,3.06-1.96,4.74-2.97c5.94,1.18,10.35,1.09,14.98,0.49c2.03-0.04,3.98-0.07,5.93-0.1
			c2.31,0.11,4.62,0.21,6.93,0.34c1.01,0.02,2.02,0.03,3.03,0.05c3.68,0.16,7.68,0.44,11.35,0.71c2.54-0.06,5.01-0.11,7.49-0.17
			c1.31,0.04,2.55,0.02,3.75-0.06c2.2-0.04,4.39-0.08,6.64-0.09c0.46,0.01,0.94,0.02,1.41,0.04c2.84,0.18,5.68,0.37,8.53,0.61
			c4.75,0.26,9.83,0.51,14.59,0.77c9.71-0.27,15.09,2,27.83,1.67c4.76,0.37,9.51,0.63,14.6,0.88c4.04,0.05,6.59-1.01,10.93-1.3
			c6.63,1.69,18.13,2.06,27.69,0.66c0.59,4.15,11.72,1.94,18.1,1.83c5.68,2.04,17.61,0.72,18.33,3.52c5.76,0.24,5.63-0.66,9.11-2.29
			c3.15,0.85,5.61,1.59,8.44,2.56c-0.83,1.25-2.3,2.74,0.38,2.69c1.57,1.55,4.01,2.18,7.16,3.03c5.22-1.21,6.25-3.48,13.62-6.07
			c1.15,0.99,2.31,2.1,3.47,3.09c0.84-3.61,15.21-1.94,15.6-3.97c-0.06-0.45-0.11-0.79-0.16-1.12c2.83-1.4,6.99-2.93,9.21-3.86
			c-0.16-1.12-0.32-2.24-0.47-3.25c1.68-0.03,3.36-0.06,5.04-0.08c-0.16-1.12-0.3-2.13-0.46-3.25
			C1229.55,174.35,1238.03,172.41,1228.25,169.87z M176.21,166.46c-4.81,0.02-9.58,0.13-14.17,0.26
			C166.83,166.24,171.54,166.24,176.21,166.46z M209.15,167.77c-1.3,0.22-2.84,0.32-4.7,0.23
			C206.01,167.97,207.57,167.88,209.15,167.77z M215.36,166.02c0.6-0.65,3.04-0.55,5.18-0.52c-0.05,0.01-0.11,0.02-0.16,0.03
			C218.32,165.39,216.78,165.64,215.36,166.02z M223.88,164.44c1.12,0.04,2.14,0.02,3.17,0.01c-1.05,0.16-2.09,0.33-3.13,0.5
			C223.99,164.82,224,164.66,223.88,164.44z M1057.7,163.49c-0.12,0.21-0.1,0.37-0.03,0.51c-1.05-0.16-2.09-0.33-3.14-0.49
			C1055.55,163.52,1056.58,163.53,1057.7,163.49z M1066.24,165.04c-1.43-0.37-2.97-0.62-5.03-0.48c-0.05-0.01-0.11-0.02-0.16-0.03
			C1063.2,164.5,1065.63,164.39,1066.24,165.04z M1077.19,166.99c-1.86,0.09-3.4,0-4.7-0.22
			C1074.06,166.88,1075.63,166.96,1077.19,166.99z M1119.57,165.59c-4.59-0.12-9.36-0.22-14.17-0.22
			C1110.07,165.13,1114.78,165.12,1119.57,165.59z M175.11,180.52c3.14,0.04,6.27,0.09,9.41,0.13
			C180.16,180.59,177.8,180.56,175.11,180.52C175.12,180.52,175.12,180.52,175.11,180.52z M1106.75,179.43
			C1106.75,179.43,1106.75,179.43,1106.75,179.43c-2.69,0.05-5.04,0.09-9.41,0.16C1100.48,179.53,1103.61,179.48,1106.75,179.43z"/>
		<path id="XMLID_11078_" class="st0" d="M1275.62,189.75c7.33-2.93,10.74-7.37,0.46-8.67c-1.96-1.99-3.91-3.87-5.54-5.86
			c7.19-1.47,3.14-3.99,3.86-6.02c-2.11-0.64-4.57-1.39-6.69-2.02c6.23-1.12,6.35-2.69,5.78-4.37c-3.85-1.06-9.47-0.29-12.7,0.66
			c-1.44-0.65-2.56-1.42-3.66-2.08c-5.95,0.78-11.55,1.66-17.5,2.43c-1.68,0.03-3.02,0.05-4.7,0.08c-0.94-1.9-1.57-3.91-2.51-5.81
			c-0.41-0.56-1.17-1.11-1.92-1.66c-2.22-1.42-4.76-2.73-6.98-4.16c-2.08-0.42-4.47-0.71-6.54-1.02c-3.74-0.27-7.82-0.54-11.56-0.82
			c-1.82-0.98-8.46-0.3-12.84-0.34c-6.04,0.1-11.76,0.19-17.8,0.29c-6.11-0.35-11.87-0.59-17.96-0.83
			c-4.85-0.93-9.88-0.85-14.58-0.77c-5.44-0.36-10.86-0.61-16.28-0.86c-3.36,0.06-6.38,0.11-9.74,0.16
			c-2.72-0.18-5.42-0.25-8.14-0.42c-10.55-0.84-16.74-1.75-24.4-1.17c-9.75,0.16-19.15,0.32-28.88,0.48
			c-7.72,0.13-15.11,0.25-22.5,0.37c-2.73-0.18-5.44-0.36-8.15-0.42c-3.66-2.08-13.07-1.92-17.87-0.27
			c-0.75-0.55-1.15-0.99-1.9-1.54c-8.05,0.25-16.07,0.61-24.11,0.96c-6.02,0.22-11.7,0.53-17.73,0.75c-3.1-0.4-6.53-0.9-9.97-1.41
			c-3.02,0.05-6.38,0.11-9.33,0.72c-3.75-0.38-7.83-0.65-11.57-0.93c-3.5-0.95-8.44-0.2-12.85-0.35c-3.35,0.06-6.7,0.11-9.73,0.16
			c-13.37,0.68-26.75,1.23-40.14,1.79c-1.03-0.21-2.06-0.3-3.43-0.51c-5.33,0.43-10.64,0.85-15.97,1.39
			c-2.02,0.04-4.36,0.07-6.38,0.11c-8.18,1.71-11.52,1.88-14.29,1.25c-2.71-0.07-5.42-0.24-8.12-0.31c-6.94,0.9-2.37-2.44-8.38-2.11
			c-1.9,0.82-4.16,1.53-6.06,2.35c-5.04,0.09-13.75,2.71-14.86-0.31c-3.92,0.85-11.65,0.98-16.12,0.27
			c-5.95,0.77-7.02,0.34-14.59-0.88c-0.61,2.82-2.64,2.74-7.98,0.69c-9.38,1.58-19.79,1.62-28.61,1.38
			c-3.13-0.17-5.91-0.57-7.71-1.69c-2.62-0.49-14.55-2-11.2,0.86c-3.05,0.2-5.84,0.31-8.52,0.35c-0.14,0-0.3,0-0.44,0.01
			c-8.16,0.12-15.27-0.3-25.04-0.27c-0.08,0.08-0.22,0.13-0.33,0.21c-0.17-0.01-0.33-0.01-0.5-0.03c3.29-2.87-8.61-1.32-11.22-0.83
			c-0.77,0.49-1.73,0.83-2.82,1.09c-9.64,0.4-22.28,0.74-33.5-1.12c-5.3,2.06-7.33,2.15-8-0.67c-7.55,1.24-8.61,1.68-14.57,0.93
			c-4.46,0.73-12.19,0.62-16.13-0.22c-1.05,3.02-9.81,0.43-14.85,0.35c-1.91-0.81-4.18-1.52-6.1-2.33
			c-6.02-0.31-1.39,3.01-8.34,2.13c-2.7,0.08-5.41,0.26-8.12,0.34c-2.76,0.64-6.11,0.48-14.32-1.21c-2.02-0.03-4.36-0.06-6.38-0.09
			c-5.33-0.52-10.65-0.93-15.99-1.34c-1.37,0.21-2.4,0.3-3.43,0.52c-13.4-0.52-26.79-1.04-40.17-1.68
			c-3.03-0.04-6.38-0.09-9.74-0.13c-4.4,0.17-9.35-0.58-12.84,0.39c-3.74,0.28-7.81,0.57-11.55,0.96c-2.96-0.6-6.32-0.65-9.34-0.69
			c-3.43,0.52-6.85,1.03-9.94,1.44c-6.03-0.19-11.71-0.5-17.74-0.7c-8.04-0.33-16.07-0.67-24.13-0.89c-0.73,0.55-1.13,1-1.87,1.55
			c-4.84-1.64-14.25-1.77-17.87,0.32c-2.71,0.07-5.41,0.26-8.14,0.45c-7.38-0.1-14.78-0.2-22.5-0.31
			c-9.74-0.13-19.14-0.26-28.89-0.4c-7.67-0.56-13.84,0.37-24.38,1.24c-2.71,0.19-5.42,0.26-8.13,0.45
			c-3.36-0.04-6.38-0.08-9.74-0.14c-5.42,0.27-10.83,0.52-16.26,0.9c-4.7-0.07-9.74-0.13-14.56,0.81
			c-6.09,0.26-11.84,0.51-17.94,0.88c-6.05-0.08-11.76-0.16-17.81-0.24c-4.38,0.05-11.03-0.61-12.83,0.38
			c-3.74,0.29-7.81,0.57-11.54,0.85c-2.06,0.31-4.45,0.61-6.52,1.04c-2.19,1.43-4.71,2.75-6.91,4.17c-0.74,0.55-1.48,1.1-1.88,1.66
			c-0.91,1.9-1.5,3.91-2.4,5.81c-1.68-0.02-3.02-0.04-4.7-0.07c-5.96-0.76-11.58-1.62-17.54-2.38c-1.08,0.66-2.19,1.44-3.62,2.09
			c-3.25-0.94-8.88-1.7-12.71-0.63c-0.54,1.68-0.4,3.25,5.86,4.35c-2.1,0.64-4.55,1.4-6.65,2.04c0.76,2.03-3.25,4.56,3.97,6.01
			c-1.59,2-3.51,3.89-5.44,5.88c-10.26,1.32-6.77,5.76,0.61,8.67c-9.74,2.57-1.22,4.48,2.16,7c-0.14,1.12-0.26,2.13-0.4,3.25
			c1.68,0.02,3.36,0.05,5.05,0.07c-0.13,1.01-0.27,2.13-0.41,3.25c2.24,0.93,6.43,2.45,9.28,3.84c-0.04,0.34-0.09,0.67-0.14,1.13
			c0.43,2.02,14.77,0.31,15.67,3.92c1.13-1,2.28-2.1,3.41-3.1c7.42,2.58,8.49,4.84,13.73,6.03c3.14-0.85,5.56-1.49,7.11-3.05
			c2.68,0.04,1.19-1.45,0.33-2.69c2.81-0.97,5.26-1.72,8.4-2.58c3.5,1.62,3.39,2.52,9.15,2.26c0.68-2.8,12.63-1.51,18.27-3.57
			c6.39,0.09,17.55,2.27,18.07-1.88c9.59,1.36,21.08,0.96,27.68-0.74c4.34,0.28,6.91,1.33,10.95,1.27
			c5.08-0.26,9.83-0.54,14.58-0.92c12.75,0.29,18.08-2,27.8-1.75c4.76-0.27,9.83-0.54,14.58-0.81c0.83-0.07,1.66-0.13,2.49-0.19
			c2.27,0.1,4.93,0.05,7.44-0.03c6.06,0.01,11.81,0.14,17.88,0.26c3.66-0.28,7.66-0.57,11.34-0.75c1.01-0.02,2.02-0.04,3.03-0.06
			c4.39-0.26,8.8-0.45,13.2-0.68c4.18,0.51,8.21,0.6,13.37-0.32c0.29-0.01,0.61-0.01,0.9-0.01c1.83,1.09,3.66,2.07,5.16,3.17
			c2.68-0.04,5.37-0.09,7.9-1.26c3.35-0.05,6.72-0.11,9.74-0.16c3.39,0.17,6.44,0.34,9.81,0.4c0.26-0.57,0.87-1.03,1.45-1.6
			c9.09-0.04,18.19,0.04,27.29,0.11c15.07-0.47,30.16-0.95,45.25-1.31c3.02-0.05,6.38-0.1,9.74-0.16c8.4-0.03,17.17,0.05,25.6,0.13
			c5.24,1.38,9.35,1.87,9.73-0.16c3.36-0.05,6.38-0.1,9.74-0.16c3.61-0.62,7.24-1.24,11.18-1.87c1.01-0.02,2.24-0.04,3.49-0.06
			c0.56,0.01,1.12,0.02,1.68,0.04c21.38,2.8,37.06,0.22,54.42,0.15c21.08,1.45,50.87,0.28,72.63-0.64c0.16-0.11,0.35-0.19,0.55-0.26
			c1.74-0.03,3.47-0.07,5.23-0.12c0.32-0.1,0.56-0.19,0.8-0.28c0.49,0,0.96-0.01,1.4-0.03c0.68,0.1,1.04,0.32,1.75,0.53
			c4.18,0.11,8.3,0.16,12.39,0.17c20.92,0.79,47.02,1.55,66.03,0.18c16.08,0.02,30.76,2.18,49.78,0.24
			c3.76-0.06,7.61-0.17,11.46-0.27c3.32,0.53,6.47,1.05,9.57,1.58c3.36,0.05,6.38,0.09,9.74,0.14c0.42,2.03,4.52,1.53,9.74,0.13
			c8.43-0.1,17.2-0.21,25.6-0.21c3.19,0.05,6.36,0.09,9.26,0.13c4.43,0.24,8.88,0.41,13.41,0.32c10.79,0.27,21.57,0.56,32.35,0.87
			c9.09-0.1,18.2-0.2,27.29-0.18c0.59,0.57,1.21,1.03,1.48,1.59c3.37-0.07,6.42-0.25,9.81-0.43c3.02,0.04,6.39,0.09,9.74,0.13
			c2.55,1.16,5.24,1.2,7.92,1.23c1.38-1.03,3.06-1.96,4.74-2.97c5.94,1.18,10.35,1.09,14.98,0.49c2.03-0.04,3.98-0.07,5.93-0.1
			c2.31,0.11,4.62,0.21,6.93,0.34c1.01,0.02,2.02,0.03,3.03,0.05c3.68,0.16,7.68,0.44,11.35,0.71c2.54-0.06,5.01-0.11,7.49-0.17
			c1.31,0.04,2.55,0.02,3.75-0.06c2.2-0.04,4.39-0.08,6.64-0.09c0.46,0.01,0.94,0.02,1.41,0.04c2.84,0.18,5.68,0.37,8.53,0.61
			c4.75,0.26,9.83,0.51,14.59,0.77c9.71-0.27,15.09,2,27.83,1.67c4.76,0.37,9.51,0.63,14.6,0.88c4.04,0.05,6.59-1.01,10.93-1.3
			c6.63,1.69,18.13,2.06,27.69,0.66c0.59,4.15,11.72,1.94,18.1,1.83c5.68,2.04,17.61,0.72,18.33,3.52c5.76,0.24,5.63-0.66,9.11-2.29
			c3.15,0.85,5.61,1.59,8.44,2.56c-0.83,1.25-2.3,2.74,0.38,2.69c1.57,1.55,4.01,2.18,7.16,3.03c5.22-1.21,6.25-3.48,13.62-6.07
			c1.15,0.99,2.31,2.1,3.47,3.09c0.84-3.61,15.21-1.94,15.6-3.97c-0.06-0.45-0.11-0.79-0.16-1.12c2.83-1.4,6.99-2.93,9.21-3.86
			c-0.16-1.12-0.32-2.24-0.47-3.25c1.68-0.03,3.36-0.06,5.04-0.08c-0.16-1.12-0.3-2.13-0.46-3.25
			C1276.93,194.23,1285.41,192.29,1275.62,189.75z M223.58,186.33c-4.81,0.02-9.58,0.13-14.17,0.26
			C214.2,186.12,218.91,186.11,223.58,186.33z M256.52,187.64c-1.3,0.22-2.84,0.32-4.7,0.23
			C253.38,187.84,254.95,187.76,256.52,187.64z M262.73,185.89c0.6-0.65,3.04-0.55,5.18-0.52c-0.05,0.01-0.11,0.02-0.16,0.03
			C265.69,185.26,264.15,185.52,262.73,185.89z M271.25,184.32c1.12,0.04,2.14,0.02,3.17,0.01c-1.05,0.16-2.09,0.33-3.13,0.5
			C271.36,184.7,271.37,184.54,271.25,184.32z M1105.07,183.37c-0.12,0.21-0.1,0.37-0.03,0.51c-1.05-0.16-2.09-0.33-3.14-0.49
			C1102.93,183.4,1103.95,183.41,1105.07,183.37z M1113.62,184.92c-1.43-0.37-2.97-0.62-5.03-0.48c-0.05-0.01-0.11-0.02-0.16-0.03
			C1110.57,184.38,1113,184.26,1113.62,184.92z M1124.56,186.86c-1.86,0.09-3.4,0-4.7-0.22
			C1121.43,186.76,1123,186.84,1124.56,186.86z M1166.94,185.46c-4.59-0.12-9.36-0.22-14.17-0.22
			C1157.44,185.01,1162.15,185,1166.94,185.46z M222.49,200.4c3.14,0.04,6.27,0.09,9.41,0.13
			C227.53,200.47,225.18,200.43,222.49,200.4C222.49,200.4,222.49,200.4,222.49,200.4z M1154.12,199.3
			C1154.12,199.3,1154.12,199.3,1154.12,199.3c-2.69,0.05-5.04,0.09-9.41,0.16C1147.85,199.41,1150.99,199.36,1154.12,199.3z"/>
		<path id="XMLID_11066_" class="st0" d="M76.16,204.77c-7.33,2.93-10.74,7.37-0.46,8.67c1.96,1.99,3.91,3.87,5.54,5.86
			c-7.19,1.47-3.14,3.99-3.86,6.02c2.11,0.64,4.57,1.39,6.69,2.02c-6.23,1.12-6.35,2.69-5.78,4.37c3.85,1.06,9.47,0.29,12.7-0.66
			c1.44,0.65,2.56,1.42,3.66,2.08c5.95-0.78,11.55-1.66,17.5-2.43c1.68-0.03,3.02-0.05,4.7-0.08c0.94,1.9,1.57,3.91,2.51,5.81
			c0.41,0.56,1.17,1.11,1.92,1.66c2.22,1.42,4.76,2.73,6.98,4.16c2.08,0.42,4.47,0.71,6.54,1.02c3.74,0.27,7.82,0.54,11.56,0.82
			c1.82,0.98,8.46,0.3,12.84,0.34c6.04-0.1,11.76-0.19,17.8-0.29c6.11,0.35,11.87,0.59,17.96,0.83c4.85,0.93,9.88,0.85,14.58,0.77
			c5.44,0.36,10.86,0.61,16.28,0.86c3.36-0.06,6.38-0.11,9.74-0.16c2.72,0.18,5.42,0.25,8.14,0.42c10.55,0.84,16.74,1.75,24.4,1.17
			c9.75-0.16,19.15-0.32,28.88-0.48c7.72-0.13,15.11-0.25,22.5-0.37c2.73,0.18,5.44,0.36,8.15,0.42c3.66,2.08,13.07,1.92,17.87,0.27
			c0.75,0.55,1.15,0.99,1.9,1.54c8.05-0.25,16.07-0.61,24.11-0.96c6.02-0.22,11.7-0.53,17.73-0.75c3.1,0.4,6.53,0.9,9.97,1.41
			c3.02-0.05,6.38-0.11,9.33-0.72c3.75,0.38,7.83,0.65,11.57,0.93c3.5,0.95,8.44,0.2,12.85,0.35c3.35-0.06,6.7-0.11,9.73-0.16
			c13.37-0.68,26.75-1.23,40.14-1.79c1.03,0.21,2.06,0.3,3.43,0.51c5.33-0.43,10.64-0.85,15.97-1.39c2.01-0.04,4.36-0.07,6.38-0.11
			c8.18-1.71,11.52-1.88,14.29-1.25c2.71,0.06,5.42,0.24,8.12,0.31c6.94-0.9,2.37,2.44,8.38,2.11c1.9-0.82,4.16-1.53,6.06-2.35
			c5.04-0.09,13.75-2.71,14.86,0.31c3.92-0.85,11.65-0.98,16.12-0.27c5.95-0.77,7.02-0.34,14.59,0.88c0.61-2.82,2.64-2.74,7.98-0.69
			c9.38-1.58,19.79-1.62,28.61-1.38c3.13,0.17,5.91,0.57,7.71,1.69c2.62,0.49,14.55,2,11.2-0.86c3.05-0.2,5.84-0.31,8.52-0.35
			c0.14,0,0.3,0,0.44-0.01c8.16-0.12,15.27,0.3,25.04,0.27c0.08-0.08,0.22-0.13,0.33-0.21c0.17,0.01,0.33,0.01,0.5,0.03
			c-3.29,2.87,8.61,1.32,11.22,0.83c0.77-0.49,1.73-0.83,2.82-1.09c9.64-0.4,22.28-0.74,33.5,1.12c5.3-2.06,7.33-2.15,8,0.67
			c7.55-1.24,8.61-1.68,14.57-0.93c4.46-0.73,12.19-0.62,16.13,0.22c1.05-3.02,9.81-0.43,14.85-0.35c1.91,0.81,4.18,1.52,6.1,2.33
			c6.02,0.31,1.39-3.02,8.34-2.13c2.7-0.08,5.41-0.26,8.12-0.34c2.76-0.64,6.11-0.48,14.32,1.21c2.02,0.03,4.36,0.06,6.38,0.09
			c5.33,0.52,10.65,0.93,15.99,1.34c1.37-0.21,2.4-0.3,3.43-0.52c13.4,0.52,26.79,1.04,40.17,1.68c3.03,0.04,6.38,0.09,9.74,0.13
			c4.4-0.17,9.35,0.58,12.84-0.39c3.74-0.28,7.81-0.57,11.55-0.96c2.96,0.6,6.32,0.65,9.34,0.69c3.43-0.52,6.85-1.03,9.94-1.44
			c6.03,0.19,11.71,0.5,17.74,0.7c8.04,0.33,16.07,0.67,24.13,0.89c0.73-0.55,1.13-1,1.87-1.55c4.84,1.64,14.25,1.77,17.87-0.32
			c2.71-0.07,5.41-0.26,8.14-0.45c7.38,0.1,14.78,0.2,22.5,0.31c9.73,0.13,19.14,0.26,28.89,0.4c7.67,0.56,13.84-0.37,24.38-1.24
			c2.71-0.19,5.42-0.26,8.13-0.45c3.36,0.04,6.38,0.08,9.74,0.14c5.42-0.27,10.83-0.52,16.26-0.9c4.7,0.07,9.74,0.13,14.56-0.81
			c6.09-0.26,11.84-0.51,17.94-0.88c6.05,0.08,11.76,0.16,17.81,0.24c4.38-0.05,11.03,0.61,12.83-0.38
			c3.74-0.29,7.81-0.57,11.54-0.85c2.06-0.31,4.45-0.61,6.52-1.04c2.19-1.43,4.71-2.75,6.91-4.17c0.74-0.55,1.48-1.1,1.88-1.66
			c0.91-1.9,1.5-3.91,2.4-5.81c1.68,0.02,3.02,0.04,4.7,0.07c5.96,0.76,11.58,1.62,17.54,2.38c1.08-0.66,2.19-1.44,3.62-2.09
			c3.25,0.94,8.88,1.7,12.71,0.63c0.54-1.68,0.4-3.25-5.86-4.35c2.1-0.64,4.55-1.4,6.65-2.04c-0.76-2.03,3.25-4.56-3.97-6.01
			c1.59-2,3.51-3.89,5.44-5.88c10.26-1.32,6.77-5.76-0.61-8.67c9.74-2.57,1.22-4.48-2.16-7c0.14-1.12,0.26-2.13,0.4-3.25
			c-1.68-0.02-3.36-0.05-5.05-0.07c0.13-1.01,0.27-2.13,0.41-3.25c-2.24-0.93-6.43-2.45-9.28-3.84c0.04-0.34,0.09-0.67,0.14-1.13
			c-0.43-2.02-14.77-0.31-15.67-3.92c-1.13,1-2.28,2.1-3.41,3.1c-7.42-2.58-8.49-4.84-13.73-6.03c-3.14,0.85-5.57,1.49-7.11,3.05
			c-2.68-0.04-1.19,1.45-0.33,2.69c-2.81,0.97-5.26,1.72-8.4,2.58c-3.5-1.62-3.39-2.52-9.15-2.26c-0.68,2.8-12.63,1.51-18.27,3.57
			c-6.39-0.09-17.55-2.27-18.07,1.88c-9.59-1.36-21.08-0.96-27.68,0.74c-4.34-0.28-6.91-1.33-10.95-1.27
			c-5.08,0.26-9.83,0.54-14.58,0.92c-12.75-0.29-18.08,2-27.8,1.75c-4.76,0.27-9.83,0.54-14.58,0.81c-0.83,0.07-1.66,0.13-2.49,0.19
			c-2.27-0.1-4.93-0.05-7.44,0.03c-6.06-0.01-11.81-0.14-17.88-0.26c-3.66,0.28-7.66,0.57-11.34,0.75
			c-1.01,0.02-2.02,0.04-3.03,0.06c-4.39,0.26-8.8,0.45-13.2,0.68c-4.18-0.51-8.21-0.6-13.37,0.32c-0.29,0.01-0.61,0.01-0.9,0.01
			c-1.83-1.09-3.66-2.07-5.16-3.17c-2.68,0.04-5.37,0.09-7.9,1.26c-3.35,0.05-6.72,0.11-9.74,0.16c-3.39-0.17-6.44-0.34-9.81-0.4
			c-0.26,0.57-0.87,1.03-1.45,1.6c-9.09,0.04-18.19-0.04-27.29-0.11c-15.07,0.47-30.16,0.95-45.25,1.31
			c-3.02,0.05-6.38,0.1-9.74,0.16c-8.4,0.03-17.17-0.05-25.6-0.13c-5.24-1.38-9.35-1.87-9.73,0.16c-3.36,0.05-6.38,0.1-9.74,0.16
			c-3.61,0.62-7.24,1.24-11.18,1.87c-1.01,0.02-2.24,0.04-3.49,0.06c-0.56-0.01-1.12-0.02-1.68-0.04
			c-21.38-2.8-37.06-0.22-54.42-0.15c-21.08-1.45-50.87-0.28-72.63,0.64c-0.16,0.11-0.35,0.19-0.55,0.26
			c-1.74,0.03-3.47,0.07-5.23,0.12c-0.32,0.1-0.56,0.19-0.8,0.28c-0.49,0-0.96,0.01-1.4,0.03c-0.68-0.1-1.04-0.32-1.75-0.53
			c-4.18-0.11-8.3-0.16-12.39-0.17c-20.92-0.79-47.02-1.55-66.03-0.18c-16.08-0.02-30.76-2.18-49.78-0.24
			c-3.76,0.06-7.61,0.17-11.46,0.27c-3.32-0.53-6.47-1.05-9.57-1.58c-3.36-0.05-6.38-0.09-9.74-0.14c-0.42-2.03-4.52-1.53-9.73-0.13
			c-8.43,0.1-17.2,0.21-25.6,0.21c-3.19-0.05-6.36-0.09-9.26-0.13c-4.43-0.24-8.88-0.41-13.41-0.32
			c-10.79-0.27-21.57-0.56-32.35-0.87c-9.09,0.1-18.2,0.2-27.29,0.18c-0.59-0.57-1.21-1.03-1.48-1.59
			c-3.37,0.07-6.42,0.25-9.81,0.43c-3.02-0.04-6.39-0.09-9.74-0.13c-2.55-1.16-5.24-1.2-7.92-1.23c-1.38,1.03-3.06,1.96-4.74,2.97
			c-5.94-1.18-10.35-1.09-14.98-0.49c-2.03,0.04-3.98,0.07-5.93,0.1c-2.31-0.11-4.62-0.21-6.93-0.34c-1.01-0.02-2.02-0.03-3.03-0.05
			c-3.68-0.16-7.68-0.44-11.35-0.71c-2.54,0.06-5.01,0.11-7.49,0.17c-1.31-0.04-2.55-0.02-3.75,0.06c-2.2,0.04-4.39,0.08-6.64,0.09
			c-0.46-0.01-0.94-0.02-1.41-0.04c-2.84-0.18-5.68-0.37-8.53-0.61c-4.75-0.26-9.83-0.51-14.59-0.77c-9.71,0.27-15.09-2-27.83-1.67
			c-4.76-0.37-9.51-0.63-14.6-0.88c-4.04-0.05-6.59,1.01-10.93,1.3c-6.63-1.69-18.13-2.06-27.69-0.66
			c-0.59-4.15-11.72-1.94-18.1-1.83c-5.68-2.04-17.61-0.72-18.33-3.52c-5.76-0.24-5.63,0.66-9.11,2.29
			c-3.15-0.85-5.61-1.59-8.44-2.56c0.83-1.25,2.3-2.74-0.38-2.69c-1.57-1.55-4.01-2.18-7.16-3.03c-5.22,1.21-6.25,3.48-13.62,6.07
			c-1.15-0.99-2.31-2.1-3.47-3.09c-0.84,3.61-15.21,1.94-15.6,3.97c0.06,0.45,0.11,0.79,0.16,1.12c-2.83,1.4-6.99,2.93-9.21,3.86
			c0.16,1.12,0.32,2.24,0.47,3.25c-1.68,0.03-3.36,0.06-5.04,0.08c0.16,1.12,0.3,2.13,0.46,3.25
			C74.85,200.29,66.37,202.23,76.16,204.77z M1128.19,208.19c4.81-0.02,9.58-0.13,14.17-0.26
			C1137.58,208.4,1132.87,208.41,1128.19,208.19z M1095.26,206.88c1.3-0.22,2.84-0.32,4.7-0.23
			C1098.4,206.67,1096.83,206.76,1095.26,206.88z M1089.05,208.62c-0.6,0.65-3.04,0.55-5.18,0.52c0.05-0.01,0.11-0.02,0.16-0.03
			C1086.08,209.25,1087.63,209,1089.05,208.62z M1080.53,210.2c-1.12-0.04-2.14-0.02-3.17-0.01c1.05-0.16,2.09-0.33,3.13-0.5
			C1080.42,209.82,1080.4,209.98,1080.53,210.2z M246.71,211.15c0.12-0.21,0.1-0.37,0.03-0.51c1.05,0.16,2.09,0.33,3.14,0.49
			C248.85,211.12,247.83,211.11,246.71,211.15z M238.16,209.6c1.43,0.37,2.97,0.62,5.03,0.48c0.05,0.01,0.11,0.02,0.16,0.03
			C241.2,210.14,238.77,210.26,238.16,209.6z M227.21,207.66c1.86-0.09,3.4,0,4.7,0.22C230.34,207.76,228.77,207.68,227.21,207.66z
			 M184.83,209.05c4.59,0.12,9.36,0.22,14.17,0.22C194.34,209.51,189.63,209.52,184.83,209.05z M1129.29,194.12
			c-3.14-0.04-6.27-0.09-9.41-0.13C1124.24,194.05,1126.6,194.08,1129.29,194.12C1129.29,194.12,1129.29,194.12,1129.29,194.12z
			 M197.65,195.22C197.66,195.21,197.66,195.21,197.65,195.22c2.69-0.05,5.04-0.09,9.41-0.16
			C203.93,195.11,200.79,195.16,197.65,195.22z"/>
		<path id="XMLID_11126_" class="st0" d="M1275.62,245.8c7.33-2.93,10.74-7.37,0.46-8.67c-1.96-1.99-3.91-3.87-5.54-5.86
			c7.19-1.47,3.14-3.99,3.86-6.02c-2.11-0.64-4.57-1.39-6.69-2.02c6.23-1.12,6.35-2.69,5.78-4.37c-3.85-1.06-9.47-0.29-12.7,0.66
			c-1.44-0.65-2.56-1.42-3.66-2.08c-5.95,0.78-11.55,1.66-17.5,2.43c-1.68,0.03-3.02,0.05-4.7,0.08c-0.94-1.9-1.57-3.91-2.51-5.81
			c-0.41-0.56-1.17-1.11-1.92-1.66c-2.22-1.42-4.76-2.73-6.98-4.16c-2.08-0.42-4.47-0.71-6.54-1.02c-3.74-0.27-7.82-0.54-11.56-0.82
			c-1.82-0.98-8.46-0.3-12.84-0.34c-6.04,0.1-11.76,0.19-17.8,0.29c-6.11-0.35-11.87-0.59-17.96-0.83
			c-4.85-0.93-9.88-0.85-14.58-0.77c-5.44-0.36-10.86-0.61-16.28-0.86c-3.36,0.06-6.38,0.11-9.74,0.16
			c-2.72-0.18-5.42-0.25-8.14-0.42c-10.55-0.84-16.74-1.75-24.4-1.17c-9.75,0.16-19.15,0.32-28.88,0.48
			c-7.72,0.13-15.11,0.25-22.5,0.37c-2.73-0.18-5.44-0.36-8.15-0.42c-3.66-2.08-13.07-1.92-17.87-0.27
			c-0.75-0.55-1.15-0.99-1.9-1.54c-8.05,0.25-16.07,0.61-24.11,0.96c-6.02,0.22-11.7,0.53-17.73,0.75c-3.1-0.4-6.53-0.9-9.97-1.41
			c-3.02,0.05-6.38,0.11-9.33,0.72c-3.75-0.38-7.83-0.65-11.57-0.93c-3.5-0.95-8.44-0.2-12.85-0.35c-3.35,0.06-6.7,0.11-9.73,0.16
			c-13.37,0.68-26.75,1.23-40.14,1.79c-1.03-0.21-2.06-0.3-3.43-0.51c-5.33,0.43-10.64,0.85-15.97,1.39
			c-2.02,0.04-4.36,0.07-6.38,0.11c-8.18,1.71-11.52,1.88-14.29,1.25c-2.71-0.06-5.42-0.24-8.12-0.31c-6.94,0.9-2.37-2.44-8.38-2.11
			c-1.9,0.82-4.16,1.53-6.06,2.35c-5.04,0.09-13.75,2.71-14.86-0.31c-3.92,0.85-11.65,0.98-16.12,0.27
			c-5.95,0.77-7.02,0.34-14.59-0.88c-0.61,2.82-2.64,2.74-7.98,0.69c-9.38,1.58-19.79,1.62-28.61,1.38
			c-3.13-0.17-5.91-0.57-7.71-1.69c-2.62-0.49-14.55-2-11.2,0.86c-3.05,0.2-5.84,0.31-8.52,0.35c-0.14,0-0.3,0-0.44,0.01
			c-8.16,0.12-15.27-0.3-25.04-0.27c-0.08,0.08-0.22,0.13-0.33,0.21c-0.17-0.01-0.33-0.01-0.5-0.03c3.29-2.87-8.61-1.32-11.22-0.83
			c-0.77,0.49-1.73,0.83-2.82,1.09c-9.64,0.4-22.28,0.74-33.5-1.12c-5.3,2.06-7.33,2.15-8-0.67c-7.55,1.24-8.61,1.68-14.57,0.93
			c-4.46,0.73-12.19,0.62-16.13-0.22c-1.05,3.02-9.81,0.43-14.85,0.35c-1.91-0.81-4.18-1.52-6.1-2.33
			c-6.02-0.31-1.39,3.02-8.34,2.13c-2.7,0.08-5.41,0.26-8.12,0.34c-2.76,0.64-6.11,0.48-14.32-1.21c-2.02-0.03-4.36-0.06-6.38-0.09
			c-5.33-0.52-10.65-0.93-15.99-1.34c-1.37,0.21-2.4,0.3-3.43,0.52c-13.4-0.52-26.79-1.04-40.17-1.68
			c-3.03-0.04-6.38-0.09-9.74-0.13c-4.4,0.17-9.35-0.58-12.84,0.39c-3.74,0.28-7.81,0.57-11.55,0.96c-2.96-0.6-6.32-0.65-9.34-0.69
			c-3.43,0.52-6.85,1.03-9.94,1.44c-6.03-0.19-11.71-0.5-17.74-0.7c-8.04-0.33-16.07-0.67-24.13-0.89c-0.73,0.55-1.13,1-1.87,1.55
			c-4.84-1.64-14.25-1.77-17.87,0.32c-2.71,0.07-5.41,0.26-8.14,0.45c-7.38-0.1-14.78-0.2-22.5-0.31
			c-9.74-0.13-19.14-0.26-28.89-0.4c-7.67-0.56-13.84,0.37-24.38,1.24c-2.71,0.19-5.42,0.26-8.13,0.45
			c-3.36-0.04-6.38-0.08-9.74-0.14c-5.42,0.27-10.83,0.52-16.26,0.9c-4.7-0.07-9.74-0.13-14.56,0.81
			c-6.09,0.26-11.84,0.51-17.94,0.88c-6.05-0.08-11.76-0.16-17.81-0.24c-4.38,0.05-11.03-0.61-12.83,0.38
			c-3.74,0.29-7.81,0.57-11.54,0.85c-2.06,0.31-4.45,0.61-6.52,1.04c-2.19,1.43-4.71,2.75-6.91,4.17c-0.74,0.55-1.48,1.1-1.88,1.66
			c-0.91,1.9-1.5,3.91-2.4,5.81c-1.68-0.02-3.02-0.04-4.7-0.07c-5.96-0.76-11.58-1.62-17.54-2.38c-1.08,0.66-2.19,1.44-3.62,2.09
			c-3.25-0.94-8.88-1.7-12.71-0.63c-0.54,1.68-0.4,3.25,5.86,4.35c-2.1,0.64-4.55,1.4-6.65,2.04c0.76,2.03-3.25,4.56,3.97,6.01
			c-1.59,2-3.51,3.89-5.44,5.88c-10.26,1.32-6.77,5.76,0.61,8.67c-9.74,2.57-1.22,4.48,2.16,7c-0.14,1.12-0.26,2.13-0.4,3.25
			c1.68,0.02,3.36,0.05,5.05,0.07c-0.13,1.01-0.27,2.13-0.41,3.25c2.24,0.93,6.43,2.45,9.28,3.84c-0.04,0.34-0.09,0.67-0.14,1.13
			c0.43,2.02,14.77,0.31,15.67,3.92c1.13-1,2.28-2.1,3.41-3.1c7.42,2.58,8.49,4.84,13.73,6.03c3.14-0.85,5.56-1.49,7.11-3.05
			c2.68,0.04,1.19-1.45,0.33-2.69c2.81-0.97,5.26-1.72,8.4-2.58c3.5,1.62,3.39,2.52,9.15,2.26c0.68-2.8,12.63-1.51,18.27-3.57
			c6.39,0.09,17.55,2.27,18.07-1.88c9.59,1.36,21.08,0.96,27.68-0.74c4.34,0.28,6.91,1.33,10.95,1.27
			c5.08-0.26,9.83-0.54,14.58-0.92c12.75,0.29,18.08-2,27.8-1.75c4.76-0.27,9.83-0.54,14.58-0.81c0.83-0.07,1.66-0.13,2.49-0.19
			c2.27,0.1,4.93,0.05,7.44-0.03c6.06,0.01,11.81,0.14,17.88,0.26c3.66-0.28,7.66-0.57,11.34-0.75c1.01-0.02,2.02-0.04,3.03-0.06
			c4.39-0.26,8.8-0.45,13.2-0.68c4.18,0.51,8.21,0.6,13.37-0.32c0.29-0.01,0.61-0.01,0.9-0.01c1.83,1.09,3.66,2.07,5.16,3.17
			c2.68-0.04,5.37-0.09,7.9-1.26c3.35-0.05,6.72-0.11,9.74-0.16c3.39,0.17,6.44,0.34,9.81,0.4c0.26-0.57,0.87-1.03,1.45-1.6
			c9.09-0.04,18.19,0.04,27.29,0.11c15.07-0.47,30.16-0.95,45.25-1.31c3.02-0.05,6.38-0.1,9.74-0.16c8.4-0.03,17.17,0.05,25.6,0.13
			c5.24,1.38,9.35,1.87,9.73-0.16c3.36-0.05,6.38-0.1,9.74-0.16c3.61-0.62,7.24-1.24,11.18-1.87c1.01-0.02,2.24-0.04,3.49-0.06
			c0.56,0.01,1.12,0.02,1.68,0.04c21.38,2.8,37.06,0.22,54.42,0.15c21.08,1.45,50.87,0.28,72.63-0.64c0.16-0.11,0.35-0.19,0.55-0.26
			c1.74-0.03,3.47-0.07,5.23-0.12c0.32-0.1,0.56-0.19,0.8-0.28c0.49,0,0.96-0.01,1.4-0.03c0.68,0.1,1.04,0.32,1.75,0.53
			c4.18,0.11,8.3,0.16,12.39,0.17c20.92,0.79,47.02,1.55,66.03,0.18c16.08,0.02,30.76,2.18,49.78,0.24
			c3.76-0.06,7.61-0.17,11.46-0.27c3.32,0.53,6.47,1.05,9.57,1.58c3.36,0.05,6.38,0.09,9.74,0.14c0.42,2.03,4.52,1.53,9.74,0.13
			c8.43-0.1,17.2-0.21,25.6-0.21c3.19,0.05,6.36,0.09,9.26,0.13c4.43,0.24,8.88,0.41,13.41,0.32c10.79,0.27,21.57,0.56,32.35,0.87
			c9.09-0.1,18.2-0.2,27.29-0.18c0.59,0.57,1.21,1.03,1.48,1.59c3.37-0.07,6.42-0.25,9.81-0.43c3.02,0.04,6.39,0.09,9.74,0.13
			c2.55,1.16,5.24,1.2,7.92,1.23c1.38-1.03,3.06-1.96,4.74-2.97c5.94,1.18,10.35,1.09,14.98,0.49c2.03-0.04,3.98-0.07,5.93-0.1
			c2.31,0.11,4.62,0.21,6.93,0.34c1.01,0.02,2.02,0.03,3.03,0.05c3.68,0.16,7.68,0.44,11.35,0.71c2.54-0.06,5.01-0.11,7.49-0.17
			c1.31,0.04,2.55,0.02,3.75-0.06c2.2-0.04,4.39-0.08,6.64-0.09c0.46,0.01,0.94,0.02,1.41,0.04c2.84,0.18,5.68,0.37,8.53,0.61
			c4.75,0.26,9.83,0.51,14.59,0.77c9.71-0.27,15.09,2,27.83,1.67c4.76,0.37,9.51,0.63,14.6,0.88c4.04,0.05,6.59-1.01,10.93-1.3
			c6.63,1.69,18.13,2.06,27.69,0.66c0.59,4.15,11.72,1.94,18.1,1.83c5.68,2.04,17.61,0.72,18.33,3.52c5.76,0.24,5.63-0.66,9.11-2.29
			c3.15,0.85,5.61,1.59,8.44,2.56c-0.83,1.25-2.3,2.74,0.38,2.69c1.57,1.55,4.01,2.18,7.16,3.03c5.22-1.21,6.25-3.48,13.62-6.07
			c1.15,0.99,2.31,2.1,3.47,3.09c0.84-3.61,15.21-1.94,15.6-3.97c-0.06-0.45-0.11-0.79-0.16-1.12c2.83-1.4,6.99-2.93,9.21-3.86
			c-0.16-1.12-0.32-2.24-0.47-3.25c1.68-0.03,3.36-0.06,5.04-0.08c-0.16-1.12-0.3-2.13-0.46-3.25
			C1276.93,250.28,1285.41,248.34,1275.62,245.8z M223.58,242.38c-4.81,0.02-9.58,0.13-14.17,0.26
			C214.2,242.17,218.91,242.17,223.58,242.38z M256.52,243.7c-1.3,0.22-2.84,0.32-4.7,0.23C253.38,243.9,254.95,243.81,256.52,243.7
			z M262.73,241.95c0.6-0.65,3.04-0.55,5.18-0.52c-0.05,0.01-0.11,0.02-0.16,0.03C265.69,241.32,264.15,241.57,262.73,241.95z
			 M271.25,240.37c1.12,0.04,2.14,0.02,3.17,0.01c-1.05,0.16-2.09,0.33-3.13,0.5C271.36,240.75,271.37,240.59,271.25,240.37z
			 M1105.07,239.42c-0.12,0.21-0.1,0.37-0.03,0.51c-1.05-0.16-2.09-0.33-3.14-0.49C1102.93,239.45,1103.95,239.46,1105.07,239.42z
			 M1113.62,240.97c-1.43-0.37-2.97-0.62-5.03-0.48c-0.05-0.01-0.11-0.02-0.16-0.03C1110.57,240.43,1113,240.32,1113.62,240.97z
			 M1124.56,242.92c-1.86,0.09-3.4,0-4.7-0.22C1121.43,242.81,1123,242.89,1124.56,242.92z M1166.94,241.52
			c-4.59-0.12-9.36-0.22-14.17-0.22C1157.44,241.06,1162.15,241.05,1166.94,241.52z M222.49,256.45c3.14,0.04,6.27,0.09,9.41,0.13
			C227.53,256.52,225.18,256.49,222.49,256.45C222.49,256.45,222.49,256.45,222.49,256.45z M1154.12,255.36
			C1154.12,255.36,1154.12,255.36,1154.12,255.36c-2.69,0.05-5.04,0.09-9.41,0.16C1147.85,255.46,1150.99,255.41,1154.12,255.36z"/>
		<path id="XMLID_11114_" class="st0" d="M76.16,260.82c-7.33,2.93-10.74,7.37-0.46,8.67c1.96,1.99,3.91,3.87,5.54,5.86
			c-7.19,1.47-3.14,3.99-3.86,6.02c2.11,0.64,4.57,1.39,6.69,2.02c-6.23,1.12-6.35,2.69-5.78,4.37c3.85,1.06,9.47,0.29,12.7-0.66
			c1.44,0.65,2.56,1.42,3.66,2.08c5.95-0.78,11.55-1.66,17.5-2.43c1.68-0.03,3.02-0.05,4.7-0.08c0.94,1.9,1.57,3.91,2.51,5.81
			c0.41,0.56,1.17,1.11,1.92,1.66c2.22,1.42,4.76,2.73,6.98,4.16c2.08,0.42,4.47,0.71,6.54,1.02c3.74,0.27,7.82,0.54,11.56,0.82
			c1.82,0.98,8.46,0.3,12.84,0.34c6.04-0.1,11.76-0.19,17.8-0.29c6.11,0.35,11.87,0.59,17.96,0.83c4.85,0.93,9.88,0.85,14.58,0.77
			c5.44,0.36,10.86,0.61,16.28,0.86c3.36-0.06,6.38-0.11,9.74-0.16c2.72,0.18,5.42,0.25,8.14,0.42c10.55,0.84,16.74,1.75,24.4,1.17
			c9.75-0.16,19.15-0.32,28.88-0.48c7.72-0.13,15.11-0.25,22.5-0.37c2.73,0.18,5.44,0.36,8.15,0.42c3.66,2.08,13.07,1.92,17.87,0.27
			c0.75,0.55,1.15,0.99,1.9,1.54c8.05-0.25,16.07-0.61,24.11-0.96c6.02-0.22,11.7-0.53,17.73-0.75c3.1,0.4,6.53,0.9,9.97,1.41
			c3.02-0.05,6.38-0.11,9.33-0.72c3.75,0.38,7.83,0.65,11.57,0.93c3.5,0.95,8.44,0.2,12.85,0.35c3.35-0.06,6.7-0.11,9.73-0.16
			c13.37-0.68,26.75-1.23,40.14-1.79c1.03,0.21,2.06,0.3,3.43,0.51c5.33-0.43,10.64-0.85,15.97-1.39c2.01-0.04,4.36-0.07,6.38-0.11
			c8.18-1.71,11.52-1.88,14.29-1.25c2.71,0.06,5.42,0.24,8.12,0.31c6.94-0.9,2.37,2.44,8.38,2.11c1.9-0.82,4.16-1.53,6.06-2.35
			c5.04-0.09,13.75-2.71,14.86,0.31c3.92-0.85,11.65-0.98,16.12-0.27c5.95-0.77,7.02-0.34,14.59,0.88c0.61-2.82,2.64-2.74,7.98-0.69
			c9.38-1.58,19.79-1.62,28.61-1.38c3.13,0.17,5.91,0.57,7.71,1.69c2.62,0.49,14.55,2,11.2-0.86c3.05-0.2,5.84-0.31,8.52-0.35
			c0.14,0,0.3,0,0.44-0.01c8.16-0.12,15.27,0.3,25.04,0.27c0.08-0.08,0.22-0.13,0.33-0.21c0.17,0.01,0.33,0.01,0.5,0.03
			c-3.29,2.87,8.61,1.32,11.22,0.83c0.77-0.49,1.73-0.83,2.82-1.09c9.64-0.4,22.28-0.74,33.5,1.12c5.3-2.06,7.33-2.15,8,0.67
			c7.55-1.24,8.61-1.68,14.57-0.93c4.46-0.73,12.19-0.62,16.13,0.22c1.05-3.02,9.81-0.43,14.85-0.35c1.91,0.81,4.18,1.52,6.1,2.33
			c6.02,0.31,1.39-3.02,8.34-2.13c2.7-0.08,5.41-0.26,8.12-0.34c2.76-0.64,6.11-0.48,14.32,1.21c2.02,0.03,4.36,0.06,6.38,0.09
			c5.33,0.52,10.65,0.93,15.99,1.34c1.37-0.21,2.4-0.3,3.43-0.52c13.4,0.52,26.79,1.04,40.17,1.68c3.03,0.04,6.38,0.09,9.74,0.13
			c4.4-0.17,9.35,0.58,12.84-0.39c3.74-0.28,7.81-0.57,11.55-0.96c2.96,0.6,6.32,0.65,9.34,0.69c3.43-0.52,6.85-1.03,9.94-1.44
			c6.03,0.19,11.71,0.5,17.74,0.7c8.04,0.33,16.07,0.67,24.13,0.89c0.73-0.55,1.13-1,1.87-1.55c4.84,1.64,14.25,1.77,17.87-0.32
			c2.71-0.07,5.41-0.26,8.14-0.45c7.38,0.1,14.78,0.2,22.5,0.31c9.73,0.13,19.14,0.26,28.89,0.4c7.67,0.56,13.84-0.37,24.38-1.24
			c2.71-0.19,5.42-0.26,8.13-0.45c3.36,0.04,6.38,0.08,9.74,0.14c5.42-0.27,10.83-0.52,16.26-0.9c4.7,0.07,9.74,0.13,14.56-0.81
			c6.09-0.26,11.84-0.51,17.94-0.88c6.05,0.08,11.76,0.16,17.81,0.24c4.38-0.05,11.03,0.61,12.83-0.38
			c3.74-0.29,7.81-0.57,11.54-0.85c2.06-0.31,4.45-0.61,6.52-1.04c2.19-1.43,4.71-2.75,6.91-4.17c0.74-0.55,1.48-1.1,1.88-1.66
			c0.91-1.9,1.5-3.91,2.4-5.81c1.68,0.02,3.02,0.04,4.7,0.07c5.96,0.76,11.58,1.62,17.54,2.38c1.08-0.66,2.19-1.44,3.62-2.09
			c3.25,0.94,8.88,1.7,12.71,0.63c0.54-1.68,0.4-3.25-5.86-4.35c2.1-0.64,4.55-1.4,6.65-2.04c-0.76-2.03,3.25-4.56-3.97-6.01
			c1.59-2,3.51-3.89,5.44-5.88c10.26-1.32,6.77-5.76-0.61-8.67c9.74-2.57,1.22-4.48-2.16-7c0.14-1.12,0.26-2.13,0.4-3.25
			c-1.68-0.02-3.36-0.05-5.05-0.07c0.13-1.01,0.27-2.13,0.41-3.25c-2.24-0.93-6.43-2.45-9.28-3.84c0.04-0.34,0.09-0.67,0.14-1.13
			c-0.43-2.02-14.77-0.31-15.67-3.92c-1.13,1-2.28,2.1-3.41,3.1c-7.42-2.58-8.49-4.84-13.73-6.03c-3.14,0.85-5.57,1.49-7.11,3.05
			c-2.68-0.04-1.19,1.45-0.33,2.69c-2.81,0.97-5.26,1.72-8.4,2.58c-3.5-1.62-3.39-2.52-9.15-2.26c-0.68,2.8-12.63,1.51-18.27,3.57
			c-6.39-0.09-17.55-2.27-18.07,1.88c-9.59-1.36-21.08-0.96-27.68,0.74c-4.34-0.28-6.91-1.33-10.95-1.27
			c-5.08,0.26-9.83,0.54-14.58,0.92c-12.75-0.29-18.08,2-27.8,1.75c-4.76,0.27-9.83,0.54-14.58,0.81c-0.83,0.07-1.66,0.13-2.49,0.19
			c-2.27-0.1-4.93-0.05-7.44,0.03c-6.06-0.01-11.81-0.14-17.88-0.26c-3.66,0.28-7.66,0.57-11.34,0.75
			c-1.01,0.02-2.02,0.04-3.03,0.06c-4.39,0.26-8.8,0.45-13.2,0.68c-4.18-0.51-8.21-0.6-13.37,0.32c-0.29,0.01-0.61,0.01-0.9,0.01
			c-1.83-1.09-3.66-2.07-5.16-3.17c-2.68,0.04-5.37,0.09-7.9,1.26c-3.35,0.05-6.72,0.11-9.74,0.16c-3.39-0.17-6.44-0.34-9.81-0.4
			c-0.26,0.57-0.87,1.03-1.45,1.6c-9.09,0.04-18.19-0.04-27.29-0.11c-15.07,0.47-30.16,0.95-45.25,1.31
			c-3.02,0.05-6.38,0.1-9.74,0.16c-8.4,0.03-17.17-0.05-25.6-0.13c-5.24-1.38-9.35-1.87-9.73,0.16c-3.36,0.05-6.38,0.1-9.74,0.16
			c-3.61,0.62-7.24,1.24-11.18,1.87c-1.01,0.02-2.24,0.04-3.49,0.06c-0.56-0.01-1.12-0.02-1.68-0.04
			c-21.38-2.8-37.06-0.22-54.42-0.15c-21.08-1.45-50.87-0.28-72.63,0.64c-0.16,0.11-0.35,0.19-0.55,0.26
			c-1.74,0.03-3.47,0.07-5.23,0.12c-0.32,0.1-0.56,0.19-0.8,0.28c-0.49,0-0.96,0.01-1.4,0.03c-0.68-0.1-1.04-0.32-1.75-0.53
			c-4.18-0.11-8.3-0.16-12.39-0.17c-20.92-0.79-47.02-1.55-66.03-0.18c-16.08-0.02-30.76-2.18-49.78-0.24
			c-3.76,0.06-7.61,0.17-11.46,0.27c-3.32-0.53-6.47-1.05-9.57-1.58c-3.36-0.05-6.38-0.09-9.74-0.14c-0.42-2.03-4.52-1.53-9.73-0.13
			c-8.43,0.1-17.2,0.21-25.6,0.21c-3.19-0.05-6.36-0.09-9.26-0.13c-4.43-0.24-8.88-0.41-13.41-0.32
			c-10.79-0.27-21.57-0.56-32.35-0.87c-9.09,0.1-18.2,0.2-27.29,0.18c-0.59-0.57-1.21-1.03-1.48-1.59
			c-3.37,0.07-6.42,0.25-9.81,0.43c-3.02-0.04-6.39-0.09-9.74-0.13c-2.55-1.16-5.24-1.2-7.92-1.23c-1.38,1.03-3.06,1.96-4.74,2.97
			c-5.94-1.18-10.35-1.09-14.98-0.49c-2.03,0.04-3.98,0.07-5.93,0.1c-2.31-0.11-4.62-0.21-6.93-0.34c-1.01-0.02-2.02-0.03-3.03-0.05
			c-3.68-0.16-7.68-0.44-11.35-0.71c-2.54,0.06-5.01,0.11-7.49,0.17c-1.31-0.04-2.55-0.02-3.75,0.06c-2.2,0.04-4.39,0.08-6.64,0.09
			c-0.46-0.01-0.94-0.02-1.41-0.04c-2.84-0.18-5.68-0.37-8.53-0.61c-4.75-0.26-9.83-0.51-14.59-0.77c-9.71,0.27-15.09-2-27.83-1.67
			c-4.76-0.37-9.51-0.63-14.6-0.88c-4.04-0.05-6.59,1.01-10.93,1.3c-6.63-1.69-18.13-2.06-27.69-0.66
			c-0.59-4.15-11.72-1.94-18.1-1.83c-5.68-2.04-17.61-0.72-18.33-3.52c-5.76-0.24-5.63,0.66-9.11,2.29
			c-3.15-0.85-5.61-1.59-8.44-2.56c0.83-1.25,2.3-2.74-0.38-2.69c-1.57-1.55-4.01-2.18-7.16-3.03c-5.22,1.21-6.25,3.48-13.62,6.07
			c-1.15-0.99-2.31-2.1-3.47-3.09c-0.84,3.61-15.21,1.94-15.6,3.97c0.06,0.45,0.11,0.79,0.16,1.12c-2.83,1.4-6.99,2.93-9.21,3.86
			c0.16,1.12,0.32,2.24,0.47,3.25c-1.68,0.03-3.36,0.06-5.04,0.08c0.16,1.12,0.3,2.13,0.46,3.25
			C74.85,256.35,66.37,258.28,76.16,260.82z M1128.19,264.24c4.81-0.02,9.58-0.13,14.17-0.26
			C1137.58,264.46,1132.87,264.46,1128.19,264.24z M1095.26,262.93c1.3-0.22,2.84-0.32,4.7-0.23
			C1098.4,262.73,1096.83,262.81,1095.26,262.93z M1089.05,264.68c-0.6,0.65-3.04,0.55-5.18,0.52c0.05-0.01,0.11-0.02,0.16-0.03
			C1086.08,265.31,1087.63,265.05,1089.05,264.68z M1080.53,266.25c-1.12-0.04-2.14-0.02-3.17-0.01c1.05-0.16,2.09-0.33,3.13-0.5
			C1080.42,265.88,1080.4,266.04,1080.53,266.25z M246.71,267.21c0.12-0.21,0.1-0.37,0.03-0.51c1.05,0.16,2.09,0.33,3.14,0.49
			C248.85,267.18,247.83,267.17,246.71,267.21z M238.16,265.66c1.43,0.37,2.97,0.62,5.03,0.48c0.05,0.01,0.11,0.02,0.16,0.03
			C241.2,266.19,238.77,266.31,238.16,265.66z M227.21,263.71c1.86-0.09,3.4,0,4.7,0.22C230.34,263.81,228.77,263.73,227.21,263.71z
			 M184.83,265.11c4.59,0.12,9.36,0.22,14.17,0.22C194.34,265.56,189.63,265.57,184.83,265.11z M1129.29,250.18
			c-3.14-0.04-6.27-0.09-9.41-0.13C1124.24,250.1,1126.6,250.14,1129.29,250.18C1129.29,250.17,1129.29,250.18,1129.29,250.18z
			 M197.65,251.27C197.66,251.27,197.66,251.27,197.65,251.27c2.69-0.05,5.04-0.09,9.41-0.16
			C203.93,251.17,200.79,251.22,197.65,251.27z"/>
	</g>
	<path id="XMLID_10941_" class="st0" d="M1267.67,67.73c7.22-1.75,10.58-4.39,0.45-5.16c-1.93-1.18-3.86-2.3-5.46-3.49
		c7.09-0.88,3.09-2.38,3.8-3.59c-2.08-0.38-4.5-0.83-6.59-1.21c6.14-0.67,6.26-1.61,5.69-2.6c-3.79-0.63-9.33-0.17-12.51,0.39
		c-1.42-0.39-2.52-0.85-3.6-1.24c-5.86,0.46-11.38,0.99-17.24,1.45c-1.65,0.02-2.98,0.03-4.63,0.05c-0.93-1.13-1.55-2.33-2.47-3.46
		c-0.41-0.33-1.15-0.66-1.89-0.99c-2.19-0.85-4.69-1.63-6.88-2.48c-2.05-0.25-4.41-0.42-6.44-0.61c-3.68-0.16-7.7-0.32-11.39-0.49
		c-1.79-0.59-8.33-0.18-12.65-0.21c-5.95,0.06-11.58,0.12-17.53,0.17c-6.02-0.21-11.69-0.35-17.69-0.49
		c-4.77-0.55-9.73-0.5-14.36-0.46c-5.36-0.22-10.7-0.36-16.04-0.51c-3.31,0.04-6.29,0.06-9.59,0.1c-2.68-0.11-5.34-0.15-8.02-0.25
		c-10.4-0.5-16.49-1.04-24.03-0.7c-9.6,0.1-18.86,0.19-28.45,0.29c-7.61,0.08-14.89,0.15-22.16,0.22c-2.69-0.11-5.36-0.21-8.03-0.25
		c-3.6-1.24-12.87-1.14-17.6-0.16c-0.74-0.33-1.14-0.59-1.87-0.92c-7.93,0.15-15.83,0.36-23.75,0.57
		c-5.93,0.13-11.52,0.32-17.46,0.44c-3.05-0.24-6.43-0.54-9.82-0.84c-2.98,0.03-6.29,0.06-9.19,0.43c-3.7-0.23-7.71-0.39-11.4-0.55
		c-3.45-0.57-8.32-0.12-12.65-0.21c-3.3,0.03-6.6,0.07-9.59,0.1c-13.17,0.4-26.35,0.73-39.54,1.07c-1.02-0.12-2.03-0.18-3.38-0.3
		c-5.25,0.25-10.49,0.51-15.73,0.83c-1.98,0.02-4.3,0.04-6.28,0.06c-8.05,1.02-11.35,1.12-14.08,0.74c-2.67-0.04-5.34-0.15-8-0.19
		c-6.83,0.54-2.34-1.45-8.26-1.26c-1.87,0.49-4.1,0.91-5.97,1.4c-4.96,0.05-13.54,1.61-14.63-0.19c-3.87,0.51-11.47,0.59-15.88,0.16
		c-5.86,0.46-6.91,0.2-14.37-0.53c-0.61,1.68-2.6,1.63-7.87,0.41c-9.24,0.94-19.5,0.97-28.18,0.82c-3.08-0.1-5.83-0.34-7.6-1.01
		c-2.58-0.29-14.33-1.19-11.04,0.51c-3,0.12-5.76,0.18-8.39,0.21c-0.14,0-0.29,0-0.43,0c-8.04,0.07-15.04-0.18-24.66-0.16
		c-0.08,0.05-0.22,0.08-0.32,0.12c-0.17-0.01-0.32-0.01-0.49-0.02c3.25-1.71-8.48-0.79-11.05-0.49c-0.76,0.29-1.71,0.5-2.78,0.65
		c-9.49,0.24-21.95,0.44-33-0.67c-5.22,1.23-7.22,1.28-7.88-0.4c-7.44,0.74-8.48,1-14.36,0.55c-4.4,0.43-12.01,0.37-15.89-0.13
		c-1.04,1.8-9.67,0.25-14.63,0.21c-1.88-0.48-4.12-0.9-6.01-1.39c-5.93-0.18-1.37,1.8-8.22,1.27c-2.66,0.05-5.33,0.16-7.99,0.2
		c-2.72,0.38-6.02,0.29-14.1-0.72c-1.99-0.02-4.3-0.03-6.28-0.05c-5.25-0.31-10.49-0.56-15.75-0.8c-1.35,0.12-2.36,0.18-3.37,0.31
		c-13.2-0.31-26.39-0.62-39.57-1c-2.99-0.02-6.28-0.05-9.59-0.08c-4.33,0.1-9.21-0.34-12.65,0.23c-3.68,0.17-7.69,0.34-11.38,0.57
		c-2.92-0.36-6.23-0.38-9.2-0.41c-3.37,0.31-6.75,0.61-9.79,0.86c-5.94-0.12-11.54-0.3-17.47-0.41c-7.92-0.2-15.83-0.4-23.77-0.53
		c-0.72,0.33-1.11,0.59-1.84,0.92c-4.76-0.98-14.03-1.05-17.6,0.19c-2.66,0.04-5.33,0.15-8.02,0.27
		c-7.27-0.06-14.56-0.12-22.16-0.18c-9.59-0.08-18.86-0.16-28.46-0.24c-7.55-0.33-13.63,0.22-24.01,0.74
		c-2.67,0.11-5.34,0.15-8.01,0.27c-3.31-0.03-6.28-0.05-9.6-0.08c-5.34,0.16-10.67,0.31-16.02,0.54c-4.63-0.04-9.59-0.08-14.35,0.48
		c-5.99,0.15-11.67,0.3-17.67,0.52c-5.96-0.05-11.58-0.1-17.54-0.14c-4.31,0.03-10.87-0.36-12.64,0.23
		c-3.68,0.17-7.69,0.34-11.37,0.51c-2.03,0.19-4.38,0.37-6.43,0.62c-2.16,0.85-4.64,1.64-6.8,2.49c-0.73,0.33-1.46,0.66-1.86,0.99
		c-0.89,1.13-1.47,2.33-2.37,3.46c-1.66-0.01-2.98-0.03-4.63-0.04c-5.87-0.45-11.41-0.97-17.28-1.42c-1.07,0.39-2.16,0.86-3.57,1.24
		c-3.2-0.56-8.75-1.01-12.52-0.37c-0.54,1-0.39,1.94,5.77,2.59c-2.07,0.38-4.48,0.83-6.55,1.22c0.75,1.21-3.2,2.72,3.91,3.58
		c-1.57,1.19-3.46,2.32-5.36,3.5c-10.1,0.79-6.67,3.43,0.61,5.16c-9.6,1.53-1.21,2.67,2.13,4.17c-0.14,0.67-0.26,1.27-0.4,1.94
		c1.66,0.01,3.31,0.03,4.97,0.04c-0.13,0.6-0.27,1.27-0.4,1.94c2.21,0.55,6.34,1.46,9.14,2.29c-0.04,0.2-0.09,0.4-0.14,0.67
		c0.42,1.21,14.55,0.19,15.43,2.34c1.12-0.59,2.25-1.25,3.36-1.85c7.31,1.53,8.36,2.88,13.52,3.6c3.09-0.51,5.48-0.89,7-1.82
		c2.64,0.02,1.17-0.86,0.32-1.61c2.77-0.58,5.18-1.03,8.27-1.54c3.45,0.97,3.34,1.5,9.01,1.35c0.67-1.67,12.44-0.9,18-2.13
		c6.29,0.05,17.29,1.35,17.8-1.12c9.44,0.81,20.76,0.57,27.26-0.44c4.28,0.17,6.81,0.79,10.79,0.76c5-0.16,9.68-0.32,14.36-0.55
		c12.56,0.17,17.81-1.19,27.39-1.04c4.69-0.16,9.69-0.32,14.36-0.48c0.82-0.04,1.64-0.08,2.46-0.12c2.24,0.06,4.86,0.03,7.33-0.02
		c5.97,0.01,11.63,0.08,17.62,0.16c3.61-0.17,7.54-0.34,11.17-0.44c0.99-0.01,1.99-0.02,2.98-0.03c4.33-0.15,8.67-0.27,13-0.41
		c4.12,0.3,8.09,0.36,13.17-0.19c0.29,0,0.6-0.01,0.88-0.01c1.8,0.65,3.6,1.24,5.08,1.89c2.64-0.03,5.29-0.05,7.78-0.75
		c3.3-0.03,6.62-0.07,9.6-0.1c3.34,0.1,6.34,0.2,9.67,0.24c0.26-0.34,0.86-0.61,1.43-0.95c8.95-0.02,17.92,0.02,26.88,0.06
		c14.85-0.28,29.71-0.57,44.58-0.78c2.98-0.03,6.28-0.06,9.59-0.1c8.28-0.02,16.92,0.03,25.22,0.08c5.17,0.82,9.21,1.12,9.59-0.1
		c3.31-0.03,6.29-0.06,9.59-0.1c3.56-0.37,7.13-0.74,11.02-1.12c1-0.01,2.2-0.02,3.44-0.03c0.56,0.01,1.1,0.01,1.66,0.02
		c21.06,1.67,36.5,0.13,53.61,0.09c20.76,0.87,50.11,0.17,71.54-0.38c0.15-0.06,0.34-0.11,0.54-0.16c1.71-0.02,3.42-0.04,5.15-0.07
		c0.31-0.06,0.55-0.12,0.79-0.17c0.48,0,0.95,0,1.38-0.02c0.67,0.06,1.03,0.19,1.72,0.32c4.12,0.07,8.18,0.1,12.2,0.1
		c20.61,0.47,46.32,0.92,65.04,0.11c15.84,0.01,30.3,1.3,49.03,0.14c3.71-0.04,7.5-0.1,11.28-0.16c3.27,0.31,6.37,0.63,9.43,0.94
		c3.31,0.03,6.28,0.05,9.59,0.08c0.42,1.21,4.45,0.91,9.59,0.08c8.3-0.06,16.94-0.13,25.22-0.12c3.14,0.03,6.26,0.05,9.12,0.08
		c4.37,0.14,8.74,0.24,13.21,0.19c10.63,0.16,21.25,0.34,31.87,0.52c8.96-0.06,17.92-0.12,26.88-0.11c0.58,0.34,1.19,0.61,1.46,0.95
		c3.32-0.04,6.32-0.15,9.66-0.25c2.97,0.02,6.3,0.05,9.6,0.08c2.51,0.69,5.16,0.71,7.8,0.74c1.36-0.61,3.01-1.17,4.67-1.77
		c5.85,0.7,10.2,0.65,14.76,0.29c2-0.02,3.92-0.04,5.84-0.06c2.28,0.06,4.55,0.12,6.82,0.2c0.99,0.01,1.99,0.02,2.98,0.03
		c3.63,0.1,7.57,0.26,11.18,0.43c2.5-0.03,4.94-0.07,7.37-0.1c1.29,0.03,2.51,0.01,3.7-0.04c2.16-0.02,4.32-0.04,6.54-0.05
		c0.46,0.01,0.93,0.01,1.39,0.02c2.8,0.11,5.6,0.22,8.4,0.36c4.68,0.15,9.68,0.3,14.37,0.46c9.57-0.16,14.86,1.19,27.42,1
		c4.69,0.22,9.37,0.38,14.38,0.52c3.98,0.03,6.49-0.6,10.76-0.78c6.53,1,17.86,1.23,27.28,0.4c0.58,2.47,11.54,1.16,17.83,1.09
		c5.59,1.22,17.34,0.43,18.06,2.1c5.68,0.14,5.55-0.39,8.97-1.36c3.1,0.51,5.53,0.95,8.32,1.52c-0.82,0.75-2.27,1.63,0.37,1.61
		c1.55,0.92,3.95,1.3,7.05,1.8c5.14-0.72,6.15-2.07,13.41-3.62c1.13,0.59,2.28,1.25,3.41,1.84c0.82-2.15,14.98-1.16,15.36-2.36
		c-0.06-0.27-0.11-0.47-0.16-0.67c2.78-0.83,6.88-1.74,9.08-2.3c-0.16-0.67-0.32-1.34-0.46-1.94c1.66-0.02,3.31-0.03,4.97-0.05
		c-0.16-0.67-0.3-1.27-0.46-1.94C1268.96,70.4,1277.31,69.24,1267.67,67.73z M231.37,65.69c-4.74,0.01-9.44,0.08-13.96,0.16
		C222.13,65.56,226.77,65.56,231.37,65.69z M263.81,66.47c-1.28,0.13-2.8,0.19-4.63,0.14C260.72,66.59,262.26,66.54,263.81,66.47z
		 M269.93,65.43c0.59-0.39,2.99-0.33,5.11-0.31c-0.05,0.01-0.11,0.01-0.16,0.02C272.85,65.06,271.33,65.21,269.93,65.43z
		 M278.32,64.49c1.11,0.02,2.11,0.01,3.12,0.01c-1.03,0.1-2.06,0.2-3.09,0.3C278.43,64.72,278.45,64.62,278.32,64.49z
		 M1099.67,63.93c-0.12,0.13-0.1,0.22-0.03,0.3c-1.03-0.1-2.06-0.2-3.09-0.29C1097.56,63.94,1098.57,63.95,1099.67,63.93z
		 M1108.09,64.85c-1.4-0.22-2.93-0.37-4.95-0.29c-0.05-0.01-0.11-0.01-0.16-0.02C1105.09,64.53,1107.49,64.46,1108.09,64.85z
		 M1118.88,66.01c-1.83,0.06-3.35,0-4.63-0.13C1115.79,65.95,1117.34,65.99,1118.88,66.01z M1160.62,65.18
		c-4.52-0.07-9.22-0.13-13.96-0.13C1151.26,64.91,1155.9,64.9,1160.62,65.18z M230.29,74.07c3.09,0.03,6.18,0.05,9.27,0.08
		C235.26,74.12,232.94,74.1,230.29,74.07C230.29,74.07,230.29,74.07,230.29,74.07z M1147.99,73.42
		C1147.99,73.42,1147.99,73.42,1147.99,73.42c-2.65,0.03-4.97,0.05-9.27,0.09C1141.81,73.48,1144.9,73.45,1147.99,73.42z"/>
	<path id="XMLID_11150_" class="st0" d="M1267.67,162.04c7.22-1.75,10.58-4.39,0.45-5.16c-1.93-1.18-3.86-2.3-5.46-3.49
		c7.09-0.88,3.09-2.38,3.8-3.59c-2.08-0.38-4.5-0.83-6.59-1.21c6.14-0.67,6.26-1.61,5.69-2.6c-3.79-0.63-9.33-0.17-12.51,0.39
		c-1.42-0.39-2.52-0.85-3.6-1.24c-5.86,0.46-11.38,0.99-17.24,1.45c-1.65,0.02-2.98,0.03-4.63,0.05c-0.93-1.13-1.55-2.33-2.47-3.46
		c-0.41-0.33-1.15-0.66-1.89-0.99c-2.19-0.85-4.69-1.63-6.88-2.48c-2.05-0.25-4.41-0.42-6.44-0.61c-3.68-0.16-7.7-0.32-11.39-0.49
		c-1.79-0.59-8.33-0.18-12.65-0.21c-5.95,0.06-11.58,0.12-17.53,0.17c-6.02-0.21-11.69-0.35-17.69-0.49
		c-4.77-0.55-9.73-0.5-14.36-0.46c-5.36-0.22-10.7-0.36-16.04-0.51c-3.31,0.04-6.29,0.06-9.59,0.1c-2.68-0.11-5.34-0.15-8.02-0.25
		c-10.4-0.5-16.49-1.04-24.03-0.7c-9.6,0.1-18.86,0.19-28.45,0.29c-7.61,0.08-14.89,0.15-22.16,0.22c-2.69-0.11-5.36-0.21-8.03-0.25
		c-3.6-1.24-12.87-1.14-17.6-0.16c-0.74-0.33-1.14-0.59-1.87-0.92c-7.93,0.15-15.83,0.36-23.75,0.57
		c-5.93,0.13-11.52,0.32-17.46,0.44c-3.05-0.24-6.43-0.54-9.82-0.84c-2.98,0.03-6.29,0.06-9.19,0.43c-3.7-0.23-7.71-0.39-11.4-0.55
		c-3.45-0.57-8.32-0.12-12.65-0.21c-3.3,0.03-6.6,0.07-9.59,0.1c-13.17,0.4-26.35,0.73-39.54,1.07c-1.02-0.12-2.03-0.18-3.38-0.3
		c-5.25,0.25-10.49,0.51-15.73,0.83c-1.98,0.02-4.3,0.04-6.28,0.06c-8.05,1.02-11.35,1.12-14.08,0.74c-2.67-0.04-5.34-0.15-8-0.19
		c-6.83,0.54-2.34-1.45-8.26-1.26c-1.87,0.49-4.1,0.91-5.97,1.4c-4.96,0.05-13.54,1.61-14.63-0.19c-3.87,0.51-11.47,0.59-15.88,0.16
		c-5.86,0.46-6.91,0.2-14.37-0.53c-0.61,1.68-2.6,1.63-7.87,0.41c-9.24,0.94-19.5,0.97-28.18,0.82c-3.08-0.1-5.83-0.34-7.6-1.01
		c-2.58-0.29-14.33-1.19-11.04,0.51c-3,0.12-5.76,0.18-8.39,0.21c-0.14,0-0.29,0-0.43,0c-8.04,0.07-15.04-0.18-24.66-0.16
		c-0.08,0.05-0.22,0.08-0.32,0.12c-0.17-0.01-0.32-0.01-0.49-0.02c3.25-1.71-8.48-0.79-11.05-0.49c-0.76,0.29-1.71,0.5-2.78,0.65
		c-9.49,0.24-21.95,0.44-33-0.67c-5.22,1.23-7.22,1.28-7.88-0.4c-7.44,0.74-8.48,1-14.36,0.55c-4.4,0.43-12.01,0.37-15.89-0.13
		c-1.04,1.8-9.67,0.25-14.63,0.21c-1.88-0.48-4.12-0.9-6.01-1.39c-5.93-0.18-1.37,1.8-8.22,1.27c-2.66,0.05-5.33,0.16-7.99,0.2
		c-2.72,0.38-6.02,0.29-14.1-0.72c-1.99-0.02-4.3-0.03-6.28-0.05c-5.25-0.31-10.49-0.56-15.75-0.8c-1.35,0.12-2.36,0.18-3.37,0.31
		c-13.2-0.31-26.39-0.62-39.57-1c-2.99-0.02-6.28-0.05-9.59-0.08c-4.33,0.1-9.21-0.34-12.65,0.23c-3.68,0.17-7.69,0.34-11.38,0.57
		c-2.92-0.36-6.23-0.38-9.2-0.41c-3.37,0.31-6.75,0.61-9.79,0.86c-5.94-0.12-11.54-0.3-17.47-0.41c-7.92-0.2-15.83-0.4-23.77-0.53
		c-0.72,0.33-1.11,0.59-1.84,0.92c-4.76-0.98-14.03-1.05-17.6,0.19c-2.66,0.04-5.33,0.15-8.02,0.27
		c-7.27-0.06-14.56-0.12-22.16-0.18c-9.59-0.08-18.86-0.16-28.46-0.24c-7.55-0.33-13.63,0.22-24.01,0.74
		c-2.67,0.11-5.34,0.15-8.01,0.27c-3.31-0.03-6.28-0.05-9.6-0.08c-5.34,0.16-10.67,0.31-16.02,0.54c-4.63-0.04-9.59-0.08-14.35,0.48
		c-5.99,0.15-11.67,0.3-17.67,0.52c-5.96-0.05-11.58-0.1-17.54-0.14c-4.31,0.03-10.87-0.36-12.64,0.23
		c-3.68,0.17-7.69,0.34-11.37,0.51c-2.03,0.19-4.38,0.37-6.43,0.62c-2.16,0.85-4.64,1.64-6.8,2.49c-0.73,0.33-1.46,0.66-1.86,0.99
		c-0.89,1.13-1.47,2.33-2.37,3.46c-1.66-0.01-2.98-0.03-4.63-0.04c-5.87-0.45-11.41-0.97-17.28-1.42c-1.07,0.39-2.16,0.86-3.57,1.24
		c-3.2-0.56-8.75-1.01-12.52-0.37c-0.54,1-0.39,1.94,5.77,2.59c-2.07,0.38-4.48,0.83-6.55,1.22c0.75,1.21-3.2,2.72,3.91,3.58
		c-1.57,1.19-3.46,2.32-5.36,3.5c-10.1,0.79-6.67,3.43,0.61,5.16c-9.6,1.53-1.21,2.67,2.13,4.17c-0.14,0.67-0.26,1.27-0.4,1.94
		c1.66,0.01,3.31,0.03,4.97,0.04c-0.13,0.6-0.27,1.27-0.4,1.94c2.21,0.55,6.34,1.46,9.14,2.29c-0.04,0.2-0.09,0.4-0.14,0.67
		c0.42,1.21,14.55,0.19,15.43,2.34c1.12-0.59,2.25-1.25,3.36-1.85c7.31,1.53,8.36,2.88,13.52,3.6c3.09-0.51,5.48-0.89,7-1.82
		c2.64,0.02,1.17-0.86,0.32-1.61c2.77-0.58,5.18-1.03,8.27-1.54c3.45,0.97,3.34,1.5,9.01,1.35c0.67-1.67,12.44-0.9,18-2.13
		c6.29,0.05,17.29,1.35,17.8-1.12c9.44,0.81,20.76,0.57,27.26-0.44c4.28,0.17,6.81,0.79,10.79,0.76c5-0.16,9.68-0.32,14.36-0.55
		c12.56,0.17,17.81-1.19,27.39-1.04c4.69-0.16,9.69-0.32,14.36-0.48c0.82-0.04,1.64-0.08,2.46-0.12c2.24,0.06,4.86,0.03,7.33-0.02
		c5.97,0.01,11.63,0.08,17.62,0.16c3.61-0.17,7.54-0.34,11.17-0.44c0.99-0.01,1.99-0.02,2.98-0.03c4.33-0.15,8.67-0.27,13-0.41
		c4.12,0.3,8.09,0.36,13.17-0.19c0.29,0,0.6-0.01,0.88-0.01c1.8,0.65,3.6,1.24,5.08,1.89c2.64-0.03,5.29-0.05,7.78-0.75
		c3.3-0.03,6.62-0.07,9.6-0.1c3.34,0.1,6.34,0.2,9.67,0.24c0.26-0.34,0.86-0.61,1.43-0.95c8.95-0.02,17.92,0.02,26.88,0.06
		c14.85-0.28,29.71-0.57,44.58-0.78c2.98-0.03,6.28-0.06,9.59-0.1c8.28-0.02,16.92,0.03,25.22,0.08c5.17,0.82,9.21,1.12,9.59-0.1
		c3.31-0.03,6.29-0.06,9.59-0.1c3.56-0.37,7.13-0.74,11.02-1.12c1-0.01,2.2-0.02,3.44-0.03c0.56,0.01,1.1,0.01,1.66,0.02
		c21.06,1.67,36.5,0.13,53.61,0.09c20.76,0.87,50.11,0.17,71.54-0.38c0.15-0.06,0.34-0.11,0.54-0.16c1.71-0.02,3.42-0.04,5.15-0.07
		c0.31-0.06,0.55-0.12,0.79-0.17c0.48,0,0.95,0,1.38-0.02c0.67,0.06,1.03,0.19,1.72,0.32c4.12,0.07,8.18,0.1,12.2,0.1
		c20.61,0.47,46.32,0.92,65.04,0.11c15.84,0.01,30.3,1.3,49.03,0.14c3.71-0.04,7.5-0.1,11.28-0.16c3.27,0.31,6.37,0.63,9.43,0.94
		c3.31,0.03,6.28,0.05,9.59,0.08c0.42,1.21,4.45,0.91,9.59,0.08c8.3-0.06,16.94-0.13,25.22-0.12c3.14,0.03,6.26,0.05,9.12,0.08
		c4.37,0.14,8.74,0.24,13.21,0.19c10.63,0.16,21.25,0.34,31.87,0.52c8.96-0.06,17.92-0.12,26.88-0.11c0.58,0.34,1.19,0.61,1.46,0.95
		c3.32-0.04,6.32-0.15,9.66-0.25c2.97,0.02,6.3,0.05,9.6,0.08c2.51,0.69,5.16,0.71,7.8,0.74c1.36-0.61,3.01-1.17,4.67-1.77
		c5.85,0.7,10.2,0.65,14.76,0.29c2-0.02,3.92-0.04,5.84-0.06c2.28,0.06,4.55,0.12,6.82,0.2c0.99,0.01,1.99,0.02,2.98,0.03
		c3.63,0.1,7.57,0.26,11.18,0.43c2.5-0.03,4.94-0.07,7.37-0.1c1.29,0.03,2.51,0.01,3.7-0.04c2.16-0.02,4.32-0.04,6.54-0.05
		c0.46,0.01,0.93,0.01,1.39,0.02c2.8,0.11,5.6,0.22,8.4,0.36c4.68,0.15,9.68,0.3,14.37,0.46c9.57-0.16,14.86,1.19,27.42,1
		c4.69,0.22,9.37,0.38,14.38,0.52c3.98,0.03,6.49-0.6,10.76-0.78c6.53,1,17.86,1.23,27.28,0.4c0.58,2.47,11.54,1.16,17.83,1.09
		c5.59,1.22,17.34,0.43,18.06,2.1c5.68,0.14,5.55-0.39,8.97-1.36c3.1,0.51,5.53,0.95,8.32,1.52c-0.82,0.75-2.27,1.63,0.37,1.61
		c1.55,0.92,3.95,1.3,7.05,1.8c5.14-0.72,6.15-2.07,13.41-3.62c1.13,0.59,2.28,1.25,3.41,1.84c0.82-2.15,14.98-1.16,15.36-2.36
		c-0.06-0.27-0.11-0.47-0.16-0.67c2.78-0.83,6.88-1.74,9.08-2.3c-0.16-0.67-0.32-1.34-0.46-1.94c1.66-0.02,3.31-0.03,4.97-0.05
		c-0.16-0.67-0.3-1.27-0.46-1.94C1268.96,164.71,1277.31,163.56,1267.67,162.04z M231.37,160.01c-4.74,0.01-9.44,0.08-13.96,0.16
		C222.13,159.88,226.77,159.88,231.37,160.01z M263.81,160.79c-1.28,0.13-2.8,0.19-4.63,0.14
		C260.72,160.91,262.26,160.86,263.81,160.79z M269.93,159.75c0.59-0.39,2.99-0.33,5.11-0.31c-0.05,0.01-0.11,0.01-0.16,0.02
		C272.85,159.37,271.33,159.52,269.93,159.75z M278.32,158.81c1.11,0.02,2.11,0.01,3.12,0.01c-1.03,0.1-2.06,0.2-3.09,0.3
		C278.43,159.03,278.45,158.94,278.32,158.81z M1099.67,158.24c-0.12,0.13-0.1,0.22-0.03,0.3c-1.03-0.1-2.06-0.2-3.09-0.29
		C1097.56,158.26,1098.57,158.26,1099.67,158.24z M1108.09,159.16c-1.4-0.22-2.93-0.37-4.95-0.29c-0.05-0.01-0.11-0.01-0.16-0.02
		C1105.09,158.84,1107.49,158.77,1108.09,159.16z M1118.88,160.32c-1.83,0.06-3.35,0-4.63-0.13
		C1115.79,160.26,1117.34,160.31,1118.88,160.32z M1160.62,159.49c-4.52-0.07-9.22-0.13-13.96-0.13
		C1151.26,159.22,1155.9,159.21,1160.62,159.49z M230.29,168.39c3.09,0.03,6.18,0.05,9.27,0.08
		C235.26,168.43,232.94,168.41,230.29,168.39C230.29,168.39,230.29,168.39,230.29,168.39z M1147.99,167.74
		C1147.99,167.74,1147.99,167.74,1147.99,167.74c-2.65,0.03-4.97,0.05-9.27,0.09C1141.81,167.8,1144.9,167.77,1147.99,167.74z"/>
</g>
</svg>
