<?xml version="1.0" encoding="utf-8"?>
<!-- Generator: Adobe Illustrator 19.0.0, SVG Export Plug-In . SVG Version: 6.00 Build 0)  -->
<svg version="1.1" id="Layer_1" xmlns="http://www.w3.org/2000/svg" xmlns:xlink="http://www.w3.org/1999/xlink" x="0px" y="0px"
	 viewBox="0 0 63 33" style="enable-background:new 0 0 63 33;" xml:space="preserve">
<style type="text/css">
	.st0{fill-rule:evenodd;clip-rule:evenodd;fill:#6B923D;}
</style>
<g id="XMLID_16507_">
	<g id="XMLID_16813_">
		<path id="XMLID_17079_" class="st0" d="M33.1,14.4c0.2-0.1,0.3-0.3,0.4-0.5C33.3,14,33.2,14.2,33.1,14.4z"/>
		<path id="XMLID_17078_" class="st0" d="M33.2,14.7"/>
		<path id="XMLID_17077_" class="st0" d="M33.2,15c-0.2,0-0.2,0.4-0.3,0.5C33.1,15.5,33.1,15.1,33.2,15z"/>
		<path id="XMLID_17076_" class="st0" d="M32.8,16.9c-0.1,0-0.1,0.2-0.2,0.3C32.7,17.2,32.7,17.1,32.8,16.9z"/>
		<path id="XMLID_17075_" class="st0" d="M32.6,17.3"/>
		<path id="XMLID_17074_" class="st0" d="M33.2,16.4"/>
		<path id="XMLID_17073_" class="st0" d="M32.5,18.2c0.3,0.1,0.4-0.7,0.5-0.8C32.7,17.5,32.7,18,32.5,18.2z"/>
		<path id="XMLID_17072_" class="st0" d="M34.2,16.2c-0.2,0-0.2,0.4-0.3,0.5C34.1,16.7,34.1,16.3,34.2,16.2z"/>
		<path id="XMLID_17071_" class="st0" d="M33.8,17.7c-0.2-0.1-0.1,0.3-0.2,0.3C33.7,18.1,33.7,17.8,33.8,17.7z"/>
		<path id="XMLID_17070_" class="st0" d="M34.5,16c-0.2-0.1-0.1,0.3-0.2,0.3C34.4,16.4,34.4,16.1,34.5,16z"/>
		<path id="XMLID_17068_" class="st0" d="M34,17.6c0.2,0,0.1-0.2,0.1-0.3C34.3,16.7,34.1,17,34,17.6z"/>
		<path id="XMLID_17066_" class="st0" d="M33.8,18.2c-0.1,0.2,0,0.3-0.1,0.5C33.9,18.7,34.1,18.2,33.8,18.2z"/>
		<path id="XMLID_17065_" class="st0" d="M33.8,18.8c-0.1,0.2,0,0.2-0.1,0.4C33.8,19.2,34.1,18.7,33.8,18.8z"/>
		<path id="XMLID_17064_" class="st0" d="M33.9,19.4c-0.1,0-0.1,0.2-0.2,0.3C33.8,19.7,33.8,19.5,33.9,19.4z"/>
		<path id="XMLID_17063_" class="st0" d="M33.8,21"/>
		<path id="XMLID_17061_" class="st0" d="M35.9,16c-0.2-0.1-0.2,0.3-0.2,0.4C35.9,16.5,35.8,16.1,35.9,16z"/>
		<path id="XMLID_17060_" class="st0" d="M35.7,16.5c-0.2-0.1-0.1,0.3-0.2,0.3C35.7,17,35.7,16.6,35.7,16.5z"/>
		<path id="XMLID_17059_" class="st0" d="M35.5,17.1c-0.2-0.1-0.2,0.3-0.2,0.4C35.4,17.6,35.4,17.3,35.5,17.1z"/>
		<path id="XMLID_17058_" class="st0" d="M34.9,19.1c0,0.2,0,0.5-0.1,0.8C34.9,19.8,35.1,19.2,34.9,19.1z"/>
		<path id="XMLID_17057_" class="st0" d="M35.3,18.6"/>
		<path id="XMLID_17056_" class="st0" d="M34.8,21.4"/>
		<path id="XMLID_17055_" class="st0" d="M34.8,21.8c-0.2,0-0.1,0.1-0.1,0.2C34.8,22,34.7,21.9,34.8,21.8z"/>
		<path id="XMLID_17054_" class="st0" d="M37.3,16.6"/>
		<path id="XMLID_17053_" class="st0" d="M37,17.4c-0.2-0.1-0.1,0.3-0.2,0.3C37,17.8,37,17.5,37,17.4z"/>
		<path id="XMLID_17052_" class="st0" d="M38,15.6"/>
		<path id="XMLID_17051_" class="st0" d="M40.1,10c0.2-0.1,0.4-0.1,0.7-0.2C40.6,9.5,40.2,9.8,40.1,10z"/>
		<path id="XMLID_17050_" class="st0" d="M36.6,20"/>
		<path id="XMLID_17049_" class="st0" d="M38.1,16.4"/>
		<path id="XMLID_17047_" class="st0" d="M38,16.6c-0.2,0.2-0.1,0.4-0.3,0.6C37.9,17.3,38.1,16.8,38,16.6z"/>
		<path id="XMLID_17046_" class="st0" d="M37.7,17.3c0,0.3-0.2,0.7-0.3,1.1C37.4,18.5,37.9,17.4,37.7,17.3z"/>
		<path id="XMLID_17045_" class="st0" d="M37.2,19.3c0.3,0.1,0-0.3,0.2-0.6C37.4,18.4,37,19.2,37.2,19.3z"/>
		<path id="XMLID_17044_" class="st0" d="M37.1,19.4c-0.2-0.1-0.2,0.3-0.2,0.4C37.1,19.8,37,19.5,37.1,19.4z"/>
		<path id="XMLID_17042_" class="st0" d="M36.8,20.3c0,0-0.2,0.1-0.2,0.2C36.7,20.5,36.9,20.2,36.8,20.3z"/>
		<path id="XMLID_17038_" class="st0" d="M36.5,21.7c0.2-0.4,0-0.6,0.3-1.2C36.3,20.7,36.5,21.4,36.5,21.7z"/>
		<path id="XMLID_17037_" class="st0" d="M37.2,20.6c0-0.8,0.2-0.8,0.5-1.7C37.3,19.3,36.9,20.2,37.2,20.6z"/>
		<path id="XMLID_17036_" class="st0" d="M36.4,21.8c0.1,0.2-0.1,0.5,0.1,0.6C36.6,22.2,36.7,21.9,36.4,21.8z"/>
		<path id="XMLID_17035_" class="st0" d="M37,20.7c0,0,0,0.1-0.1,0.1c0,0,0.1,0,0.1,0.1c0,0,0-0.1,0.1-0.1
			C37.1,20.7,37.1,20.7,37,20.7z"/>
		<path id="XMLID_17034_" class="st0" d="M37,20.9c-0.2,0,0,0.2-0.1,0.4C37.1,21.4,37.1,21,37,20.9z"/>
		<path id="XMLID_17033_" class="st0" d="M37,21.4"/>
		<path id="XMLID_17032_" class="st0" d="M38.4,18.4c-0.3,0.2-0.3,0.8-0.5,1.2C38.2,19.4,38.2,18.8,38.4,18.4z"/>
		<path id="XMLID_17030_" class="st0" d="M37.9,19.8c-0.2,0-0.2,0.4-0.3,0.5C37.8,20.3,37.8,19.9,37.9,19.8z"/>
		<path id="XMLID_17029_" class="st0" d="M39.5,15.5c0.2,0,0.3-0.1,0.4-0.3C39.7,15.2,39.6,15.4,39.5,15.5z"/>
		<path id="XMLID_17028_" class="st0" d="M36.7,23.3c-0.2,0-0.2,0.3-0.1,0.4C36.8,23.7,36.6,23.4,36.7,23.3z"/>
		<path id="XMLID_17027_" class="st0" d="M39.1,17.7c0.1,0,0.2,0,0.2-0.2C39.2,17.4,39.2,17.6,39.1,17.7z"/>
		<path id="XMLID_17026_" class="st0" d="M39.6,16.8c-0.2,0-0.2,0.4-0.3,0.5C39.5,17.4,39.5,17,39.6,16.8z"/>
		<path id="XMLID_17025_" class="st0" d="M38.3,20.6c-0.2,0-0.1,0.3-0.2,0.4C38.4,21,38.1,20.7,38.3,20.6z"/>
		<path id="XMLID_17024_" class="st0" d="M39,18.8"/>
		<path id="XMLID_17022_" class="st0" d="M40,16.9c-0.2,0-0.2,0.4-0.3,0.6C39.9,17.5,39.9,17.1,40,16.9z"/>
		<path id="XMLID_17021_" class="st0" d="M40.3,16.3c-0.2-0.1-0.1,0.2-0.2,0.3C40.3,16.7,40.2,16.4,40.3,16.3z"/>
		<path id="XMLID_17020_" class="st0" d="M37.9,22.7c-0.1-0.1-0.3,0.4,0,0.3C37.8,23,37.9,22.7,37.9,22.7z"/>
		<path id="XMLID_17019_" class="st0" d="M40.5,16c0.2-0.1,0.3-0.5,0.5-0.7C40.8,15.4,40.7,15.7,40.5,16z"/>
		<path id="XMLID_17018_" class="st0" d="M39.1,20.5c0.5-1.4,1-2.9,2-4.6C40,17.2,39.2,19.1,39.1,20.5z"/>
		<path id="XMLID_17017_" class="st0" d="M38.7,21.1c0.1,0.1-0.1,0.4,0,0.5c0.1,0,0.1-0.1,0.2-0.1C38.7,21.5,38.9,21.2,38.7,21.1z"
			/>
		<path id="XMLID_17016_" class="st0" d="M38.5,22.2c0.2,0.1,0.2-0.3,0.2-0.4C38.5,21.7,38.7,21.9,38.5,22.2z"/>
		<path id="XMLID_17015_" class="st0" d="M38.1,23.3c0,0.1,0,0.2,0,0.4C38.3,23.7,38.3,23.3,38.1,23.3z"/>
		<path id="XMLID_17014_" class="st0" d="M40.6,17.3c0.2,0.1,0.2-0.2,0.3-0.4C40.6,16.9,40.8,17.1,40.6,17.3z"/>
		<path id="XMLID_17013_" class="st0" d="M41.2,16.2c-0.4,0.2-0.5,1-0.2,0.2C41.1,16.3,41.2,16.3,41.2,16.2z"/>
		<path id="XMLID_17012_" class="st0" d="M39.8,21.6c-0.2,0.2-0.2,0.7,0,0.9C39.9,22.2,39.8,21.9,39.8,21.6z"/>
		<path id="XMLID_17011_" class="st0" d="M41.8,17.2"/>
		<path id="XMLID_17010_" class="st0" d="M42.3,17c0.2,0,0.3-0.4,0.4-0.7C42.5,16.4,42.4,16.8,42.3,17z"/>
		<path id="XMLID_17009_" class="st0" d="M42.3,17.7c0.1-0.1,0.3,0,0.4-0.4C42.5,17.3,42.4,17.4,42.3,17.7z"/>
		<path id="XMLID_17008_" class="st0" d="M43.4,16"/>
		<path id="XMLID_17007_" class="st0" d="M43.8,15.3c0.2,0.2,0.1-0.2,0.3-0.1C44.1,15,43.7,15.1,43.8,15.3z"/>
		<path id="XMLID_17006_" class="st0" d="M43.8,15.4c0,0-0.2,0.1-0.2,0.2C43.7,15.7,44,15.4,43.8,15.4z"/>
		<path id="XMLID_17005_" class="st0" d="M45.8,14.7c0.2,0.1,0.2-0.2,0.3-0.4C45.8,14.3,46,14.5,45.8,14.7z"/>
		<path id="XMLID_17004_" class="st0" d="M46.2,14.1"/>
		<path id="XMLID_17003_" class="st0" d="M45.9,15.6c0.3,0,0.3-0.5,0.5-0.8C46.3,14.5,46,15.6,45.9,15.6z"/>
		<path id="XMLID_17002_" class="st0" d="M46.4,15.1"/>
		<path id="XMLID_17001_" class="st0" d="M47.3,14.3c-0.2-0.1-0.1,0.3-0.2,0.3C47.2,14.7,47.2,14.4,47.3,14.3z"/>
		<path id="XMLID_17000_" class="st0" d="M44.1,27.7c0,0.1,0,0.3,0.2,0.3C44.3,27.9,44.3,27.8,44.1,27.7z"/>
		<path id="XMLID_16999_" class="st0" d="M47,26.6c-0.2,0-0.1,0.1-0.1,0.2C47.1,26.8,47,26.7,47,26.6z"/>
		<path id="XMLID_16998_" class="st0" d="M54,10.2c-0.1,0.1,0.4,0.3,0.3,0C54.3,10.3,54.1,10.3,54,10.2z"/>
		<path id="XMLID_16997_" class="st0" d="M53.4,13.1c0,0.1,0,0.2,0.2,0.2C53.5,13.2,53.5,13.1,53.4,13.1z"/>
		<path id="XMLID_16996_" class="st0" d="M54.7,10c0,0.1,0.1,0.2,0.3,0.2C55,10.1,54.8,10.1,54.7,10z"/>
		<path id="XMLID_16995_" class="st0" d="M54.7,10.4c0,0.2,0.1,0.1,0.3,0.4C55,10.6,55,10.4,54.7,10.4z"/>
		<path id="XMLID_16994_" class="st0" d="M55.2,9.8c0.1,0.4,1.4,0.4,1.7,1.1c0.3-0.2-1-1-0.9-0.7C55.9,9.8,55.6,10,55.2,9.8z"/>
		<path id="XMLID_16993_" class="st0" d="M55.3,10.3c0,0.1,0.1,0.2,0.2,0.3C55.5,10.4,55.4,10.3,55.3,10.3z"/>
		<path id="XMLID_16992_" class="st0" d="M55.7,10.5c-0.2,0,0,0.1,0.1,0.1C56,10.7,55.8,10.6,55.7,10.5z"/>
		<path id="XMLID_16991_" class="st0" d="M49.7,28.4c-0.2,0-0.2,0.4-0.3,0.5C49.6,28.9,49.6,28.5,49.7,28.4z"/>
		<path id="XMLID_16990_" class="st0" d="M56.4,11c-0.1,0.2,0.3,0.2,0.4,0.2C56.7,11.1,56.5,10.9,56.4,11z"/>
		<path id="XMLID_16989_" class="st0" d="M49.4,30.2c-0.1-0.1-0.3,0.4,0,0.3C49.4,30.4,49.4,30.2,49.4,30.2z"/>
		<path id="XMLID_16988_" class="st0" d="M57.4,9.9c-0.2,0.2,0.3,0.2,0.4,0.3C57.8,10.1,57.6,10.1,57.4,9.9z"/>
		<path id="XMLID_16987_" class="st0" d="M56.4,12.6c0,0.2,0.1,0.3,0.3,0.4C56.7,12.8,56.6,12.7,56.4,12.6z"/>
		<path id="XMLID_16986_" class="st0" d="M57.1,11.4c-0.2,0,0,0.1,0.1,0.1C57.3,11.6,57.2,11.4,57.1,11.4z"/>
		<path id="XMLID_16985_" class="st0" d="M50.9,28.8c-0.2-0.1-0.2,0.3-0.2,0.4C50.8,29.2,50.8,28.9,50.9,28.8z"/>
		<path id="XMLID_16984_" class="st0" d="M50.5,29.7"/>
		<path id="XMLID_16983_" class="st0" d="M52.7,24.9c0,0-0.2,0.1-0.2,0.2C52.6,25.1,52.9,24.8,52.7,24.9z"/>
		<path id="XMLID_16982_" class="st0" d="M52.6,25.6c-0.2-0.1-0.1,0.3-0.2,0.3C52.5,26,52.5,25.7,52.6,25.6z"/>
		<path id="XMLID_16981_" class="st0" d="M52.3,26.1c0.1,0.1,0,0.4-0.1,0.5C52.4,26.7,52.5,26.2,52.3,26.1z"/>
		<path id="XMLID_16980_" class="st0" d="M52.2,26.8c-0.2,0,0,0.2-0.1,0.3C52.3,27.2,52.2,26.9,52.2,26.8z"/>
		<path id="XMLID_16979_" class="st0" d="M51.8,28.2"/>
		<path id="XMLID_16978_" class="st0" d="M51.7,28.2c0,0,0,0.1-0.1,0.1c0,0,0.1,0,0.1,0.1c0,0,0-0.1,0.1-0.1
			C51.8,28.3,51.7,28.2,51.7,28.2z"/>
		<path id="XMLID_16977_" class="st0" d="M51.7,28.5c-0.1,0-0.1,0.2-0.2,0.3C51.7,28.8,51.7,28.6,51.7,28.5z"/>
		<path id="XMLID_16976_" class="st0" d="M51,30.3c0.3-0.2,0.3-0.8,0.6-1.4C51.4,28.9,51.2,29.9,51,30.3z"/>
		<path id="XMLID_16975_" class="st0" d="M57.8,13.4c0,0.1,0.1,0.2,0.2,0.3C58,13.5,57.9,13.4,57.8,13.4z"/>
		<path id="XMLID_16974_" class="st0" d="M53.6,24.9"/>
		<path id="XMLID_16973_" class="st0" d="M53,26.7c0.2,0,0.4-1,0.6-1.5C53.3,25.3,53.3,26.2,53,26.7z"/>
		<path id="XMLID_16972_" class="st0" d="M52.2,30.1"/>
		<path id="XMLID_16971_" class="st0" d="M54.6,24.5"/>
		<path id="XMLID_16970_" class="st0" d="M54.3,26.1"/>
		<path id="XMLID_16969_" class="st0" d="M53.8,29.4c0,0.2,0.4,0,0.5-0.1c0-0.2-0.1-0.2-0.2-0.2c0.8-1.1,1.5-2.2,2-3.7
			C55.3,26.9,54.7,28.3,53.8,29.4z"/>
		<path id="XMLID_16968_" class="st0" d="M56.9,21.6c-0.2-0.1-0.1,0.3-0.2,0.3C56.9,22,56.9,21.6,56.9,21.6z"/>
		<path id="XMLID_16967_" class="st0" d="M56.8,22"/>
		<path id="XMLID_16966_" class="st0" d="M56.3,23.4"/>
		<path id="XMLID_16965_" class="st0" d="M56.5,23.7c0,0.1,0,0.2-0.1,0.4C56.5,24.1,56.7,23.6,56.5,23.7z"/>
		<path id="XMLID_16964_" class="st0" d="M56.4,24.1c0,0.1,0,0.1,0,0.1C56.1,24.9,56.7,24.3,56.4,24.1z"/>
		<path id="XMLID_16963_" class="st0" d="M60.4,13.7c0,0.2,0,0.4,0.1,0.5C60.7,14.2,60.6,13.8,60.4,13.7z"/>
		<path id="XMLID_16962_" class="st0" d="M56.3,24.7c-0.1,0.1,0,0.2,0,0.3C56,25.7,56.5,25,56.3,24.7z"/>
		<path id="XMLID_16961_" class="st0" d="M60.5,14.3c0,0.1,0.1,0.1,0.1,0.3C60.9,14.7,60.8,14.4,60.5,14.3z"/>
		<path id="XMLID_16960_" class="st0" d="M55.5,28.1c0.1,0,0.2-0.1,0.3-0.3C55.6,27.8,55.5,27.9,55.5,28.1z"/>
		<path id="XMLID_16959_" class="st0" d="M55.8,27.7c0.1,0,0.2-0.1,0.3-0.2C55.9,27.5,55.8,27.6,55.8,27.7z"/>
		<path id="XMLID_16958_" class="st0" d="M58.5,21.2"/>
		<path id="XMLID_16957_" class="st0" d="M57.2,25.2c0.2,0,0.3-0.2,0.4-0.4C57.4,24.8,57.3,25.1,57.2,25.2z"/>
		<path id="XMLID_16956_" class="st0" d="M56.9,26.4c0.2-0.1,0.3-0.3,0.4-0.6C57.1,25.8,57,26.1,56.9,26.4z"/>
		<path id="XMLID_16955_" class="st0" d="M58.9,21.8c-0.2,0-0.2,0.4-0.3,0.5C58.8,22.3,58.8,21.9,58.9,21.8z"/>
		<path id="XMLID_16954_" class="st0" d="M58.5,22.5"/>
		<path id="XMLID_16953_" class="st0" d="M61.1,17.2"/>
		<path id="XMLID_16952_" class="st0" d="M61.2,17.5c-0.1-0.1-0.3,0.4,0,0.3C61.2,17.7,61.1,17.6,61.2,17.5z"/>
		<path id="XMLID_16951_" class="st0" d="M60.8,18.6c0.1,0,0.1-0.1,0.1-0.1c0.1,0,0,0.2,0,0.3c0.2,0,0.2-0.4,0.2-0.4
			C60.9,18.3,60.8,18.4,60.8,18.6z"/>
		<path id="XMLID_16950_" class="st0" d="M60.7,19.6c0.2,0,0.1-0.4,0.3-0.7C60.6,18.8,60.8,19.5,60.7,19.6z"/>
		<path id="XMLID_16949_" class="st0" d="M59,24.1c0.2-0.3,0.4-0.5,0.4-0.7C59.4,23.6,59,23.7,59,24.1z"/>
		<path id="XMLID_16948_" class="st0" d="M60.8,19.8"/>
		<path id="XMLID_16919_" class="st0" d="M55.3,8.1c0.9,0.1,1.7,0.6,2.4,1.1c2.3,1.6,4.8,6.3,4.6,9.2c-0.2,1.7-0.6,3.8-1.5,5.6
			c-0.7,1.4-2.9,4.1-4.3,5.1c-2.1,1.5-4.4,2.7-7.1,2.7c-2,0.5-4.1,0-6.1-0.5c-3.5-0.9-6.9-3.4-8.6-5.7c-1.5-1.9-2-3.6-2.3-5.6
			c-0.4-1.8-0.1-3.2,0.1-4.8c0.5-4.8,7.2-12.8,14.2-9.4c0.8-1,0.3-2.3-0.1-3.2c0.6,0.2,0.7,0.4,1,0.8c0.2,0.2,0.4,0.4,0.5,0.6
			c0.2,0.7-0.2,1.7,0.1,2.4c0.3-0.1,0.7,0.4,1.1,0.3c-0.3-0.9,0.1-1.6,0.4-3.1c0.6-0.3,1.2,0.1,1.8,0.4c0,0.9,0.5,1.9-0.4,3.1
			c1.2,0.6,2.5,0.3,3.5,0.6c0.8-0.1,1.3-1.2,2.2-1.1C56.3,7.4,55.7,7.5,55.3,8.1L55.3,8.1z M33.6,12.5c0.6-1.5,1.9-2.5,2.9-3.1
			c-0.3,0.6-1.2,0.9-1.6,1.5c0.3,0,0.5-0.4,0.7-0.6c0.1,0.1,0,0.2-0.1,0.1c0,0.2,0.2,0,0.3,0.1c-0.8,0.4-1.6,0.9-2.1,1.9
			c-0.8,0.7-0.6,0.7-1,1.9c0.3-0.2,0.7-1,0.8-1.3c0.3-0.1,0.5-0.5,0.7-0.7c0.2,0.1-0.1,0.2-0.1,0.4c0.1,0,0.2-0.1,0.3-0.1
			c-0.2,0.4-0.5,0.5-0.6,1c-0.1,0.1-0.2,0-0.2,0.2c-0.1-0.4,0.5-0.6,0.6-1.1c-0.6,0.5-1.1,1.6-1.5,2.3c0.3,0.1,0.3-0.4,0.4-0.5
			c-0.5,1.2-0.8,2.7-0.8,3.8c0.2,0.1,0.2-0.1,0.4,0c-0.3,1.1-0.1,2,0.1,2.8c0.2-0.4-0.1-1,0-1.6c0.2,0.7,0.1,1.5,0.2,2.3
			c0.1,0.3-0.1,0.6,0.1,1c0.1,0.5,0.3,0.7,0.5,1c0,0,0.1-0.1,0.2,0c0,0.1,0.1,0.6,0.1,0.6c0,0,0.1,0,0.1,0c0,0,0.1,0.3,0.1,0.3
			c0,0,0.2,0.1,0.1,0.1c0.2,0.3,0.1,0.5,0.3,0.6c0.2,0.2,0.3,0,0.2,0.3c0.5,0.1,0.5,0.8,1.1,1c1.3,1.5,3.1,2.7,4.9,3.6
			c0.9,0.4,1.6,0.6,2.7,0.8c1.1,0.2,2.5,0.8,3.6,0.5c1,0.2,2.1,0.1,2.9-0.1c0.9-0.2,1.6-0.4,2.3-0.7c0.8,0.1,3.6-1.5,4.1-2.2
			c0.3-0.3,0.8-0.5,0.8-0.9c0.5-0.1,0.7-0.7,1.2-1.3c0.7-0.8,1.6-2,2.2-3.2c-0.1-0.1-0.1-0.4,0.2-0.4c0.1-0.2-0.2-0.1-0.3-0.1
			c0-0.1,0.1-0.2,0.1-0.4c0,0.9,0.4-1,0.1-0.5c0.1-0.3,0.1-0.2,0.4-0.3c0-0.3-0.2-0.1-0.2-0.3c0.1-0.2,0.4,0.2,0.4-0.1
			c-0.3,0-0.3-0.6,0.1-0.7c0.2,0.1-0.1-0.7-0.1-0.5c0-0.1,0.2-0.1,0.2-0.1c0-0.1-0.1-0.2-0.1-0.2c0-0.1,0.1-0.1,0.2-0.2
			c0.1-0.6-0.1-1.2,0.2-1.9c-0.2-1-0.3-2.1-0.8-2.9c0-0.1,0.1-0.1,0.1-0.2c-0.5-0.6-0.9-1.3-1.2-2c-0.7-0.9-1.4-1.9-2.4-2.5
			c-0.5-0.1-2.1-0.7-2.7-0.9c-0.3,0-0.7,0.3-0.7,0.7c0.3,0,0.6,0,0.9,0.2c-0.4,0.1-0.9-0.3-1.3,0.1c0.2,0,0.7,0.1,0.8,0.2
			c-0.6-0.1-1.2-0.4-1.5,0.3c0.6,0.1,1.1,0,1.7,0.3c-0.3,0.1-0.4,0.1-0.9-0.1c0.2,0.4,1.1,0.5,1.4,0.9c-0.9-0.2-2.2-1.1-3.1-0.8
			c0.5,0.3,1.8,0.2,2.2,0.7c0.3,0,0-0.1,0.3,0.1c0.4,0.3,1.4,0.3,1.8,0.8c-0.2,0.2-0.2-0.2-0.4-0.2c0,0.2,0.3,0.2,0.2,0.3
			c-1-0.6-2.9-1.6-4-1.4c0.8,0.2,1.7,0.9,2.2,1c-0.3,0.3-0.5-0.2-0.7-0.3c-0.5-0.2-1.1-0.3-1.7-0.5c-0.2,0.1,0.6,0.2,0.6,0.4
			c0-0.3,0,0,0.2-0.1c0,0.1,0,0.1,0.1,0.3c-0.2,0.2-0.3-0.1-0.4-0.2c0,0.4,0.5,0.5,0.8,0.7c0.5,0.4,1,0.9,1.4,1.3
			c-0.1,0.2-0.2-0.2-0.4-0.1c-0.1-0.1,0.2-0.2-0.1-0.3c0,0.1,0,0.1,0,0.2c0-0.1-0.1-0.1-0.2-0.2c0.5,0.2-0.4-0.6-0.6-0.8
			c-0.3-0.1-0.7,0-0.8-0.3c-0.1-0.2,0.2,0.4,0.5,0.4c0,0.1-0.1,0-0.2,0c0.3,1.2,1.6,1.8,2.1,2.9c-0.6-0.4-0.7-1-1.3-1.2
			c0.5,0.7,1.2,1.1,1.3,1.9c-0.2,0-0.5-0.1-0.6-0.3c-1.4-0.2-2.2-0.8-2.7-1.8c-0.2,0.1-0.1,0-0.4-0.1c0.4,0-0.1-0.5-0.4-0.6
			c0.4,0.5,0.5,0.8,0.7,1.4c-0.3-0.3-0.2-0.6-0.5-0.7c0,0,0,0.2,0,0.2c-0.1-0.2,0-0.2,0-0.4c0,0-0.4,0-0.3-0.3c-0.2,0,0,0.3,0,0.4
			c-0.2,0-0.4-0.6-0.6-0.8c-0.3,0.3,0.2,0.8,0.3,1c-0.5-0.2-0.2-1.2-1.1-1.4c0.1,0.5,0.3,1,0.6,1.4c-0.1,0.1-0.2,0.2-0.1,0.4
			c-0.2-0.2-0.1-0.4-0.2-0.7c-0.1,0-0.1,0.1-0.2,0.2c-0.3-0.3,0-0.8-0.5-1c0.1,0.7,0.3,1.3,0.3,2c-0.3-0.5-0.2-1.1-0.7-1.5
			c0.1,0.3,0.1,0.7,0.2,0.9c-0.5-0.1-0.2-1.1-0.6-1.4c0,0.3,0.1,0.6,0.1,1c-0.2-0.4-0.2-1-0.4-1.5C48,13.1,48,13.5,48,14.2
			c-0.2-0.1,0-0.4-0.1-0.6c-0.3,0.2-0.3,1-0.5,1.3c0-0.5,0.1-1.1,0.2-1.7c-0.3,0.2-0.2,0.9-0.3,1.1c-0.2-0.3,0.1-0.7,0.2-1.1
			c-0.5,0.1-0.4,1-0.8,1.2c-0.1-0.1,0.2-0.2,0.2-0.4c-0.1,0.1-0.5,0.4-0.1,0.5c0,0.1-0.2,0-0.3,0c0-0.5,0.4-0.8,0.6-1.3
			c-0.3,0-0.4,0.6-0.7,0.7c-0.1-0.1,0-0.1,0.1-0.1c-0.2-0.3-0.3,0.2-0.6,0.5c-0.2,0.2-0.4,0.1-0.4,0.5c-0.1-0.5-0.4,0.3-0.4,0.6
			c-0.1-0.1,0-0.2,0-0.3c-0.2,0.1-0.3,0.3-0.4,0.5c0.2-1.2,1.4-1.6,1.7-2.6c-0.6,0.3-1.3,1.1-1.6,1.6c-0.1,0,0-0.1,0-0.2
			c-0.4,1-1.7,2.6-2.1,4.4c-0.2-0.1,0-0.3,0.1-0.4c0-0.2,0-0.5,0.1-0.6c0.1-0.1,0.2-0.2,0.3-0.4c0.2-0.3,0.3-0.8,0.5-1.2
			c0.3-0.5,0.6-0.9,0.9-1.4c-0.1-0.3-0.3,0.3-0.5,0.4c0.3-0.7,1.3-1.4,1.6-2c-0.5,0.3-0.9,0.6-1.2,1.1c-0.1-0.4-0.6,0.3-0.8,0.5
			c-0.2-0.1,0.2-0.1,0.1-0.4c-0.2,0.3-0.7,0.1-0.8,0.6c0.2,0,0.4-0.5,0.6-0.2c0,0.2-0.4,0.4-0.5,0.7C43,15,43.5,15,43.6,14.6
			c-0.7,0.5-1.4,1.1-1.9,2.1c-0.4-0.2,0.3-0.6,0.4-0.8c0.1-0.1-0.1-0.2-0.1-0.2c0.2-0.4,0.7-0.5,0.9-0.8c-0.6-0.2-1.3,0.6-1.8,1
			c0-0.2,0.4-0.5,0.5-0.8c-0.3,0.1-0.3,0-0.7-0.1c-0.1,0.5-1,1.1-1,1.6c-0.1,0.1-0.1-0.1-0.2-0.1c-0.4,0.6-0.8,1.2-1.1,1.9
			c0.2-1,1-1.8,1.5-2.7c0.3,0.1,0.6-0.5,0.8-0.7c-0.4-0.2-0.6,0-0.8,0.2c0.1-0.3,0.4-0.5,0.7-0.8c0.2,0.3,0.3,0.1,0.6-0.1
			c-0.2-0.1-0.3,0.1-0.3,0.2c-0.1-0.2,0.3-0.5,0.4-0.5c0.1,0,0,0.1,0,0.1c0.8-0.2,1.9-1.9,2.4-2.7c-0.3,0-0.2,0.3-0.4-0.1
			c-0.1,0.1-0.1,0.1,0,0.2c-1,0.6-2.2,1-2.9,1.9c-0.1,0-0.1-0.1-0.1-0.2c-0.3,0.4-0.6,0.6-1.1,0.9c-0.2,0.2,0,0.3,0,0.4
			c-0.2-0.5-0.6,0.4-0.8,0.6c-0.2-0.3,0.1-0.3,0.2-0.4c0.6-0.9,1.6-1.7,2.5-2.1c0.3-0.3,0.6-0.6,1.1-0.5c0.1-0.4,0.5-0.2,0.6-0.5
			c-0.4,0.1-0.8,0.3-1.2,0.5c0.1-0.3,0.9-0.4,1.2-0.7c-0.3-0.1-0.3,0.3-0.6,0.1c0.5-0.1,1.1-0.7,1.7-0.3c0.1-0.2,0.2-0.3,0.4-0.3
			c0-0.2-0.4-0.1-0.4,0.1c-0.3-0.3-0.8,0-1.1,0.1c-0.2-0.4,0.4-0.2,0.6-0.3C43,10.3,42,10.6,42,11c-0.5-0.3-0.7,0.1-1.1,0.1
			c0.2-0.3,0.5-0.3,0.8-0.4c-0.2-0.3-0.6,0.2-1,0.1c-0.1,0,0-0.1-0.1-0.1c0.3-0.3,0.7-0.6,1.2-0.5c-0.4,0.1-0.7,0.2-1.1,0.4
			c0.4,0.2,1-0.3,1.5-0.3c-0.3-0.2-0.7-0.3-1.1-0.5c-0.5-0.3-0.7-1-1.1-1.1c0.1,0,0.1-0.1,0.2-0.2c-0.2-0.1-0.3-0.4-0.5-0.5
			c0.1-0.2-0.2-1,0-1.2C40,7,40.3,7.5,40.6,7.8c0.2-0.1,0.3-0.1,0.4-0.3c1.3-0.3,3.6-0.6,4.5,0.8c0.2-0.4-0.6-0.9-1.2-1
			c0.1-0.2,0.5,0.3,0.5-0.1c-0.4-0.1-0.9-0.6-1.6-0.6c0.7-0.2,1.5,0.6,1.9,0.6c-0.3-0.7-0.9-0.7-1.7-1c0.7-0.1,1.8,0.5,2.2,0.9
			c0.3-0.6-1.2-0.8-1.9-1.1c0.7,0.1,1.1,0.2,1.8,0.5c-0.3-0.6-1-0.5-1.6-0.8c0.7,0,1.8,0.5,1.9,0.7c0-0.1,0.1-0.1,0.1-0.1
			C45.7,6,45,5.8,44.3,5.7c-0.1,0-0.1-0.1-0.1-0.2c-0.3,0-0.6-0.2-0.9-0.2c-0.4,0-0.8,0.2-1.2,0.3c-0.8,0.1-1.4,0.1-2.2,0.4
			c-2.5,1.1-5.1,3.5-6.2,6C33.7,12.1,33.3,12.4,33.6,12.5L33.6,12.5L33.6,12.5z M40.8,7.9c0.6,0.7,1.7,0.8,2.5,0.2
			c-0.4,0-0.8,0.3-1.2,0.3c-0.2-0.2,0.3,0,0.3-0.2C42.2,8,42.1,8.1,42,8c0.1-0.1,0.5-0.1,0.5,0.1c0.1,0,0-0.1,0.1-0.1
			c0.8,0,1.6-0.1,2.3-0.1C43.9,7.3,41.9,7.2,40.8,7.9L40.8,7.9L40.8,7.9z M50.6,13.4c-0.1,0.2,0.2,0.2,0.4,0.3
			C51,13.6,50.8,13.5,50.6,13.4L50.6,13.4L50.6,13.4z M54.7,15.7c-0.2-0.4-0.7-0.8-1.1-1.1C53.6,15.1,54,15.4,54.7,15.7L54.7,15.7
			L54.7,15.7z M53.6,14.1c-0.3,0.1,0.1,0.5,0.4,0.6C54.1,14.4,53.7,14.3,53.6,14.1L53.6,14.1L53.6,14.1z M52.9,12.4
			c-0.1,0.2,0.2,0.2,0.4,0.3C53.2,12.5,53.1,12.4,52.9,12.4L52.9,12.4L52.9,12.4z M34.8,11.1c-0.1,0-0.2,0-0.2,0.2
			C34.6,11.2,34.7,11.2,34.8,11.1L34.8,11.1L34.8,11.1z M45.8,7.7c0.1,0.4,0.2,0.8,0.4,1.1c-0.6-0.1-0.8-0.5-1.4-0.7
			c-1.1-0.3-2.4,1-3.6,0.6c-0.4-0.1-0.4-0.5-0.9-0.7c0.3,0.8,1,1.3,1.8,1.4c0.5,0.1,1-0.2,1.5-0.2c0.8,0.1,1.5,0.5,1.8,1.4
			c-1.6,0.4-2.3,2.7-3.6,3.7c1.3-0.4,2.2-1.9,3.4-2.4c0.3,0.1,0.4-0.1,0.7,0.1c-0.9,0.2-1.6,0.7-2.2,1.5c-0.8,0.4-1.4,1.1-2.3,1.3
			c0.2,0.2,0.6,0,0.8,0c1.1-0.3,2.4-1.2,3.4-1.9c0.8-0.3,1.5-0.7,2.5-0.2c0.3,0.1,0.5,0.4,0.8,0.5c0.3,0.1,0.8,0,1.2,0.1
			c0.4,0.1,0.8,0.2,1.2,0.4c1,0.5,1.1,1.5,2,2c-0.3-0.5-0.7-0.8-1-1.3c-0.3-0.5-0.3-0.7-0.7-1c-0.1,0-0.1-0.2-0.1-0.2
			c-0.3-0.1-0.6-0.2-1-0.4c0.5-0.2,1,0.1,1.3,0.2c0.5,0.3,0.7,0.9,0.8,1.3c0.1,0.1,0.4,0.2,0.4,0.5c0.4-1-0.4-2.2-1.8-2.5
			c-0.3-0.3-0.4-0.6-0.5-1c0.1-0.2,0.4,0,0.6-0.1c0.1-0.3,0.8-0.3,0.6-0.6c0.9-0.3,1.7-0.7,2.3-1.8c-0.1-0.3-0.5,0.1-0.8,0.2
			c-0.3,0.1-0.7,0.2-0.9,0.4c-0.5-0.1-0.8,0.2-1.2,0.2C51.5,9.2,52.3,9,52.9,9c0.3-0.2,0.5-0.4,0.9-0.5c-1.3-0.2-2.9,0-3.8,1.1
			c0,0.3,0.4,0.5,0.5,0.8c-0.3,2.3-2.8,1.6-3.4,0.2c0.2-0.1,0-0.3,0.2-0.3c0.2,0.9,2,1.9,2.6,0.6c-0.3,0-0.7,0.1-0.9,0.2
			c-0.8-0.2-0.8-0.7-0.9-1.1c-0.1,0.1-0.3,0.2-0.3,0c-0.2-0.8,0.6-1,0.9-1.8c-0.9-0.4-1-1.6-1-2.6c-0.5,1-0.4,2.3-0.3,3.2
			c-0.6-1.2-0.4-2.2,0.1-3.5c-0.2-0.3,0-0.8-0.2-1.1c-0.1,0.3,0,1.1-0.3,1.7C46.6,6.4,45.9,6.9,45.8,7.7L45.8,7.7L45.8,7.7z
			 M43.9,9.6c-0.6-0.2-1.6,0.2-2,0.1c0.5,0.4,1.3,0.4,1.7,0.1c0.4,0.4,0.6,0.3,1.1,0.7C45.1,10,44.3,9.7,43.9,9.6L43.9,9.6L43.9,9.6
			z M43.3,10.9c-0.2,0-0.2,0.1-0.4,0.1C42.9,11.2,43.3,11.1,43.3,10.9L43.3,10.9L43.3,10.9z M47,3.2C47,3.1,46.9,3,46.8,3
			C46.8,3.1,46.9,3.2,47,3.2L47,3.2L47,3.2z M45.5,7.7c0.2,0-0.1-0.5-0.2-0.3C45.2,7.5,45.5,7.5,45.5,7.7L45.5,7.7L45.5,7.7z
			 M46.1,6.1C46,6.5,46.5,6.2,46.1,6.1L46.1,6.1L46.1,6.1z M47.5,4.3c0.1-0.2-0.1-0.3-0.1-0.5C47.3,3.9,47.3,4.3,47.5,4.3L47.5,4.3
			L47.5,4.3z M47.5,5.5c0.3-0.2-0.2-0.7,0.2-0.9c-0.1,0-0.1-0.1-0.1-0.1C47.3,4.6,47.5,5.2,47.5,5.5L47.5,5.5L47.5,5.5z M48.8,7.2
			c-0.4,0-0.4-0.1-0.7-0.3c0.1,0.3,0.3,0.9,0.6,1C48.7,7.6,48.9,7.6,48.8,7.2L48.8,7.2L48.8,7.2z M49.8,4.4c0,0.1-0.2,0.1-0.2,0.3
			c0.2,0.1,0.3,0.2,0.5,0.5c0.5,0,0.9-0.8,0.7-1.1C50.4,3.7,49.3,3.9,49.8,4.4L49.8,4.4L49.8,4.4z M49.5,6.1
			c0.1,0.3-0.2,0.9,0.1,0.7C49.6,7.1,49,7.3,49,8c0.6,0.2,1.1,0.1,1.5,0c-0.1-0.3,0.1-0.3,0.2-0.8C50.4,7.4,50.4,7,49.9,7
			c0.1-0.3,0.6,0,0.9,0c0.4-0.6,0.5-0.7,0.4-1.4c-0.1,0.5-0.6,0.7-1.3,0.4c0.2-0.3,0.5-0.2,0.9-0.3c0-0.3,0.5-0.5,0.4-1
			c-0.3,0.3-0.6,0.5-1,0.7c-0.2-0.2-0.3-0.5-0.7-0.6c-0.1,0.3-0.2,0.7-0.2,0.9C49.3,6,49.4,6,49.5,6.1L49.5,6.1L49.5,6.1z
			 M48.2,10.5c0.5,0.4,0.8,0,1.3,0.1c0.2-0.4-0.1-0.6,0-1c0.3-0.4,0.6-0.8,0.8-1.2c-0.4,0-0.9,0-1.4-0.3c0.1,0.3-0.4,0.6-0.3,0.9
			c-0.3,0.2-0.7,0.4-0.8,0.9C48.2,10,48.3,10.2,48.2,10.5L48.2,10.5L48.2,10.5z M46.9,12.6c0.1,0.3-0.4,0.2-0.4,0.7
			c0.4,0,0.5-0.6,0.8-0.6C47.3,12.4,47,12.6,46.9,12.6L46.9,12.6L46.9,12.6z M47.9,12.6c-0.3,0-0.1,0.3-0.3,0.5
			c0.1,0,0.1-0.1,0.3-0.1C47.9,12.8,47.9,12.7,47.9,12.6L47.9,12.6L47.9,12.6z M53.2,8.1c-0.6-0.3-1.6,0-2.3-0.4
			c-0.2,0.6-0.2,0.4-0.3,0.9C51.4,8.2,52.3,8.1,53.2,8.1L53.2,8.1L53.2,8.1z M49.1,13.9c0.2-0.2-0.1-0.9-0.4-0.7
			C48.7,13.5,49.1,13.6,49.1,13.9L49.1,13.9L49.1,13.9z M52.6,11.8c-0.3,0.1-0.7-0.2-1.2-0.3C51.4,11.6,52.4,12.3,52.6,11.8
			L52.6,11.8L52.6,11.8z M56,9.2c0.4,0.1,0.9,0.2,1.2,0.5c-0.2-0.3-0.9-0.7-1.7-1c-0.6-0.2-0.7-0.2-0.9,0c-0.1,0.1,0,0.2,0.1,0.2
			C55,8.8,55.5,9.1,56,9.2L56,9.2L56,9.2z M61.5,20.6c-0.1,0-0.1-0.1,0-0.1c-0.1-0.1-0.2,0.3,0,0.3C61.4,20.7,61.5,20.6,61.5,20.6
			L61.5,20.6L61.5,20.6z M60.9,22L60.9,22C60.8,22.3,61.4,22.1,60.9,22z"/>
		<path id="XMLID_16918_" class="st0" d="M55.7,11.9c0,0,0-0.1,0.1-0.1c0.1,0,0.1,0.1,0,0.1c0.2,0,0-0.3-0.2-0.3
			C55.5,11.8,55.5,11.9,55.7,11.9z"/>
		<path id="XMLID_16917_" class="st0" d="M43,15.7c0.5-0.3,0.8-0.9,1.2-1.3C43.7,14.7,43.4,15.3,43,15.7z"/>
		<path id="XMLID_16916_" class="st0" d="M42.2,16.4c0.3,0.1,0.5-0.8,0.9-0.9c-0.5,0.1-1,1.3-1.7,1.6c-0.4,1.1-1,1.6-1.1,2.6
			c0.5-0.9,1-2.2,1.8-3.1c0.1,0.1,0,0.2,0.2,0.2C42.2,16.6,42.2,16.5,42.2,16.4z"/>
		<path id="XMLID_16913_" class="st0" d="M34.6,12c0.5-0.6,1.4-1.3,1.8-1.7c-0.1,0-0.3,0.1-0.4,0.2c0.3-0.4,0.6-0.1,0.8-0.4
			c-0.1,0-0.2,0-0.3,0c0.4-0.4,1-0.5,1.4-1c0.2,0.1,0.4,0.2,0.5,0c-0.2,0-0.3,0-0.3-0.2c0.4,0,0.9-0.4,1.6-0.5
			c-0.2,0.2-0.8,0.2-0.5,0.4c-0.2,0-0.7,0.1-0.6,0.3c0.4-0.1,1-0.3,1.3-0.2C39.6,9,39,9,39,9.2c0.4,0.1,1.1-0.5,1.4,0
			c-0.6-0.2-2.4,0.6-1.6,0c-0.3,0.2-0.9,0.1-1.2,0.6c0.3-0.1,0.5-0.4,1-0.3c-0.8,0.5-1.6,0.7-2.1,1.1c-0.1,0.1-0.1,0.2-0.3,0.2
			c0,0-0.1-0.1-0.2,0c0,0,0.2,0,0.2,0c-0.1,0.4-0.9,0.9-1.2,1.2c0-0.1,0.3-0.2,0.1-0.4C34.9,11.7,34.7,12.3,34.6,12L34.6,12z
			 M35.2,11.6c0.3,0,0.5-0.5,0.7-0.6l0,0C35.8,10.9,35.3,11.3,35.2,11.6z"/>
		<path id="XMLID_16912_" class="st0" d="M34.4,12.6c0.2,0,0.2-0.2,0.4-0.3C34.8,12.1,34.5,12.4,34.4,12.6z"/>
		<path id="XMLID_16911_" class="st0" d="M35.9,10.2"/>
		<path id="XMLID_16910_" class="st0" d="M32.8,19.4c0.4-0.3,0-0.8,0.3-1.3c-0.2-0.4-0.1,0.1-0.3,0.5C33.1,18.7,32.7,19.1,32.8,19.4
			z"/>
		<path id="XMLID_16909_" class="st0" d="M36.8,8c0,0.3,0.3,0,0.4-0.1C37.2,7.7,37,8.1,36.8,8z"/>
		<path id="XMLID_16908_" class="st0" d="M36.7,9.3c0.3-0.1,0.6-0.2,0.8-0.5C37.2,9,36.9,9,36.7,9.3z"/>
		<path id="XMLID_16907_" class="st0" d="M37.3,7.9c0.2,0,0.3-0.2,0.5-0.2C37.8,7.6,37.4,7.7,37.3,7.9z"/>
		<path id="XMLID_16906_" class="st0" d="M33.7,18.2c-0.1-0.2-0.2,0.5-0.2,0.7C33.6,19.1,33.6,18.4,33.7,18.2z"/>
		<path id="XMLID_16905_" class="st0" d="M33.9,18"/>
		<path id="XMLID_16904_" class="st0" d="M38.2,7.4c0,0.3,0.2,0,0.3,0C38.6,7.2,38.3,7.4,38.2,7.4z"/>
		<path id="XMLID_16903_" class="st0" d="M35.1,18.1C35.1,18.1,35.1,18.2,35.1,18.1C34.8,18.8,35.3,18.4,35.1,18.1z"/>
		<path id="XMLID_16902_" class="st0" d="M34.8,20.4c0.1-0.1,0-0.2,0-0.1c0,0.4-0.1,0.9-0.1,1.3C34.8,21.4,34.8,20.8,34.8,20.4z"/>
		<path id="XMLID_16901_" class="st0" d="M39.9,9.5"/>
		<path id="XMLID_16900_" class="st0" d="M34.7,23.4c-0.1,0,0.3,0.7,0.4,1.1c0.2-0.1-0.1-0.4,0-0.7C34.7,23.7,34.8,23.5,34.7,23.4z"
			/>
		<path id="XMLID_16899_" class="st0" d="M36.7,19.1"/>
		<path id="XMLID_16898_" class="st0" d="M40.1,11.1"/>
		<path id="XMLID_16897_" class="st0" d="M40.6,10.3c-0.1,0.1,0.6-0.1,0.8-0.2C41.2,9.9,40.8,10.2,40.6,10.3z"/>
		<path id="XMLID_16896_" class="st0" d="M40.1,11.3c0,0.2,0.3,0,0.4,0C40.4,11,40.2,11.4,40.1,11.3z"/>
		<path id="XMLID_16895_" class="st0" d="M38.6,15.2c0.3-0.1,0.2-0.4,0.4-0.6C39,14.4,38.7,14.9,38.6,15.2z"/>
		<path id="XMLID_16894_" class="st0" d="M41.6,8c-0.1,0.2,0.2-0.1,0.3,0.1C41.9,7.9,41.6,8,41.6,8z"/>
		<path id="XMLID_16893_" class="st0" d="M38.7,15.8c1.1-1,2.6-2.1,3.9-3.4c-0.3-0.1-0.5,0.3-0.7,0.5C40.9,13.7,39.5,14.6,38.7,15.8
			z"/>
		<path id="XMLID_16892_" class="st0" d="M40.5,13.3c0.3,0,0.9-0.4,1.3-0.8C41.4,12.7,41,13,40.5,13.3z"/>
		<path id="XMLID_16891_" class="st0" d="M41.1,12"/>
		<path id="XMLID_16890_" class="st0" d="M36,25.6c-0.3,0.1,0.1,0.4,0,0.6C36.3,26.1,35.9,25.8,36,25.6z"/>
		<path id="XMLID_16889_" class="st0" d="M38.2,21.1c-0.3,0.4,0,1-0.2,1.6C38.4,22.3,38.1,21.7,38.2,21.1z"/>
		<path id="XMLID_16888_" class="st0" d="M36.2,26.4"/>
		<path id="XMLID_16887_" class="st0" d="M42.2,10.8c-0.1,0.4,0.3-0.1,0.4,0C42.5,10.5,42.4,11,42.2,10.8z"/>
		<path id="XMLID_16886_" class="st0" d="M39.7,17.6C39.7,17.5,39.6,17.7,39.7,17.6c0,0.1-0.1,0.1-0.1,0.1
			C39.6,18,39.9,17.8,39.7,17.6z"/>
		<path id="XMLID_16885_" class="st0" d="M39,19.6c-0.3,0.3-0.2,0.9-0.3,1.3C38.9,20.7,38.8,20.1,39,19.6z"/>
		<path id="XMLID_16884_" class="st0" d="M39.1,21c-0.1-0.2-0.1,0.2-0.1,0.4C39.2,21.4,39.1,21.1,39.1,21z"/>
		<path id="XMLID_16883_" class="st0" d="M38.5,22.4c-0.1,0.2,0.1,0.3,0,0.6C38.6,23.2,38.8,22.4,38.5,22.4z"/>
		<path id="XMLID_16882_" class="st0" d="M41.8,17.4c-0.3,0-0.1,0.2-0.2,0.4C41.8,17.7,41.6,17.5,41.8,17.4z"/>
		<path id="XMLID_16881_" class="st0" d="M41.4,18.3c0.1,0.3,0-0.3,0.2-0.3C41.6,17.8,41.2,18.2,41.4,18.3z"/>
		<path id="XMLID_16880_" class="st0" d="M39.7,22.6c0.2,2.2,0.8,4.3,2.1,6c-0.2-0.6-0.7-1.2-1-1.8c-0.3-0.7-0.5-1.4-0.7-2.1
			C40.1,23.9,40,23.2,39.7,22.6z"/>
		<path id="XMLID_16879_" class="st0" d="M40.8,20.8c0-0.2-0.3,0.5,0,0.6C40.8,21.2,40.8,21,40.8,20.8z"/>
		<path id="XMLID_16878_" class="st0" d="M42.4,17.9c-0.2-0.3-0.5,0.7-0.6,1c-0.5,1.6-0.5,3.7-0.5,5.2C41.5,22.3,41.2,20,42.4,17.9z
			"/>
		<path id="XMLID_16877_" class="st0" d="M40.8,21.7c-0.2,0.4-0.2,1.3,0,1.8C40.7,22.9,40.7,22.3,40.8,21.7z"/>
		<path id="XMLID_16876_" class="st0" d="M40.7,23.7c-0.2,0,0.1,0.8,0.1,1.1C41.1,24.6,40.7,24.1,40.7,23.7z"/>
		<path id="XMLID_16875_" class="st0" d="M42.4,20.8c0.2-0.4,0.3-1.4,0.4-2C42.5,19.5,42.4,20.1,42.4,20.8z"/>
		<path id="XMLID_16874_" class="st0" d="M42.8,26.8c0.1-0.6-0.3-1.5-0.3-2.3C42.4,24.9,42.7,26.1,42.8,26.8z"/>
		<path id="XMLID_16873_" class="st0" d="M42.7,27.4c-0.3,0,0.1,0.7,0.1,0.3C42.6,27.7,42.8,27.5,42.7,27.4z"/>
		<path id="XMLID_16872_" class="st0" d="M48.2,13.7c-0.1,0-0.1,0.1,0,0.2C48.1,14.5,48.4,14,48.2,13.7z"/>
		<path id="XMLID_16871_" class="st0" d="M42.9,27.9c0.2,1.2,1.4,1.9,2.1,2.9c0-0.3-0.2-0.5-0.4-0.7C44,29.4,43.3,28.7,42.9,27.9z"
			/>
		<path id="XMLID_16870_" class="st0" d="M43.7,26.8c0-0.2,0.1,0.6,0.3,0.7C44,27.3,43.9,27,43.7,26.8z"/>
		<path id="XMLID_16869_" class="st0" d="M48.6,14.5c-0.3,0.2,0.1,0.6,0,0.9C48.8,15.5,48.5,14.7,48.6,14.5z"/>
		<path id="XMLID_16868_" class="st0" d="M44.4,28.3c0-0.1-0.1-0.1-0.1-0.1c0.4,0.9,1.2,2.3,2,2.6c-0.6-0.4-0.8-1-1-1.6
			c-0.1-0.2,0.1,0.4,0.1,0.6c-0.3,0-0.4-0.5-0.5-0.6C44.9,28.9,44.6,28.7,44.4,28.3z"/>
		<path id="XMLID_16867_" class="st0" d="M49.8,15.2"/>
		<path id="XMLID_16866_" class="st0" d="M46.1,27.7c-0.2,0.1,0,0.6-0.1,0.8C46.3,28.4,46.1,27.9,46.1,27.7z"/>
		<path id="XMLID_16865_" class="st0" d="M51.2,14.5c-0.1,0,0,0.4,0.2,0.5C51.7,14.7,51.1,14.7,51.2,14.5z"/>
		<path id="XMLID_16864_" class="st0" d="M46.9,26.5"/>
		<path id="XMLID_16863_" class="st0" d="M51.4,15.3"/>
		<path id="XMLID_16862_" class="st0" d="M46.3,28.6c-0.2,0.8,0.3,1.7,0.6,2.4C46.8,30.4,46.2,29.5,46.3,28.6z"/>
		<path id="XMLID_16861_" class="st0" d="M47.1,27.7c-0.1,0.2,0.1,1.3,0.3,1.8C47.4,29.4,47.2,28.2,47.1,27.7z"/>
		<path id="XMLID_16860_" class="st0" d="M54.4,9.3c-0.1,0.3,0.6,0.2,0.8,0.1c0.2,0.2,0.9,0.4,1.2,0.5c0.2,0.1,0.2,0.2,0.1,0
			C55.7,9.6,54.9,9.2,54.4,9.3z"/>
		<path id="XMLID_16859_" class="st0" d="M48.3,25.4c-0.2,0.1,0,0.5-0.1,0.7C48.5,26,48.2,25.7,48.3,25.4z"/>
		<path id="XMLID_16858_" class="st0" d="M48.3,26.8c-0.1,1.2-0.2,2.8,0,4.1c0.2,0,0.1-0.4,0-0.6c0-0.5,0-1.4-0.1-2.2
			C48.4,27.6,48.3,27.2,48.3,26.8z"/>
		<path id="XMLID_16857_" class="st0" d="M55.6,10.8c0.6,0.5,1.5,1,1.8,1.6c-0.1,0.1-0.1-0.1-0.2-0.1c0.6,0.3,1,1.4,1.5,2.2
			c0-0.3-0.2-0.5-0.3-0.8c0.1-0.2,0.1,0.3,0.2-0.1c-0.8-0.5-0.8-1.4-1.7-1.9c0-0.1,0.1-0.1,0.1-0.1c-0.6-0.3-1-0.9-1.9-1.2
			C55.1,10.7,55.3,10.7,55.6,10.8c-0.1,0.1-0.2,0.1-0.3,0.1C55.3,11.1,55.7,11,55.6,10.8z"/>
		<path id="XMLID_16856_" class="st0" d="M55.4,13.8c0.1,0.2,0.2,0.3,0.4,0.4C55.7,14.1,55.6,13.9,55.4,13.8z"/>
		<path id="XMLID_16855_" class="st0" d="M49.4,29.5c-0.1,0.5,0,0.9,0,0.1C49.5,29.6,49.6,29.1,49.4,29.5z"/>
		<path id="XMLID_16854_" class="st0" d="M57,10.1c-0.2,0,0.1,0.2,0,0.3C57.1,10.1,57.9,10.7,57,10.1C57,10.2,56.9,10.1,57,10.1z"/>
		<path id="XMLID_16853_" class="st0" d="M49.3,30.6c-0.1-0.2,0,0.3-0.1,0.5C49.5,31,49.3,30.7,49.3,30.6z"/>
		<path id="XMLID_16852_" class="st0" d="M56.1,13.4"/>
		<path id="XMLID_16851_" class="st0" d="M60.2,16c0.3,0.1,0.3,0.3,0.2,0.6c0.4-0.1,0.1-0.5,0.1-0.8c-0.1,0,0,0.1-0.1,0.2
			c-0.3-0.1-0.3-0.6-0.4-0.9c0.2,0,0.3,0.5,0.2,0.8c0.3-0.1,0-0.4,0.2-0.4c-0.6-1.8-1.7-3.4-3.1-4.8c0.4,0.9,2,2.2,2,3.3
			c0.1,0.1,0.2,0.4,0.4,0.3c-0.3,0.6,0.5,1.1,0.2,1.9c0.4,0.2,0,0.8,0.4,1.1c-0.3,0,0,0.5,0,0.4c0,0-0.1,0.1-0.2,0.2
			c0,0.2,0.1,0.6,0.1,0.8c0,0.5-0.4,1-0.2,1.4c-0.4,0.6-0.1,1.1-0.5,1.8c0.1,0,0.1,0,0.1,0c0.1,0,0.1,0.1,0,0.1
			c0.1,0,0.3-0.5,0.3-0.1c0.2-0.2,0.3-0.7,0.4-1.2c0-0.1,0.3-0.5,0-0.6c-0.1,0.8-0.3,1-0.6,1.7c0-0.3,0.2-0.6,0.2-0.9
			c0.1,0,0,0.2,0,0.3c0.4-0.2,0-0.5,0-0.8c0-0.2,0.1,0,0.2-0.1c0,0,0.1-0.4,0.1-0.5c0,0-0.2,0.1-0.2,0.2c-0.1-0.2,0.1-0.2,0.1-0.3
			c0.3-0.7,0-2,0.3-2.7c-0.1,0-0.2,0-0.3,0C60.4,16.5,60.2,16.3,60.2,16z"/>
		<path id="XMLID_16850_" class="st0" d="M56.8,12.6"/>
		<path id="XMLID_16849_" class="st0" d="M57.9,10.3c-0.2,0.2,0.6,0.5,0.2,0.3C58,10.5,58.1,10.3,57.9,10.3z"/>
		<path id="XMLID_16848_" class="st0" d="M57,13.2c-0.2,0.1,0.3,0.5,0.2,0.8C57.4,13.9,57,13.5,57,13.2z"/>
		<path id="XMLID_16847_" class="st0" d="M58.9,11.3c-0.1,0.3-0.2-0.1-0.5-0.2c0.8,0.9,1.5,1.8,2,2.8c0.1-0.4-0.5-0.9-0.5-1.5
			c-0.4-0.2-0.5-0.6-0.8-0.9C59.3,11.9,58.9,11.5,58.9,11.3z"/>
		<path id="XMLID_16846_" class="st0" d="M54.1,22.4c-0.1,0.1-0.2,0.7-0.2,0.9c-0.2,0.3-0.1,0.5,0,0.1C54,23.2,54.2,22.7,54.1,22.4z
			"/>
		<path id="XMLID_16845_" class="st0" d="M57.6,15"/>
		<path id="XMLID_16844_" class="st0" d="M55.4,20.5"/>
		<path id="XMLID_16843_" class="st0" d="M52,29.4c0.2,0.3,0.2-0.2,0.4-0.2c0-0.7,0.3-0.9,0.4-1.6c0.2-1.1-0.2,0.4-0.3,0.7
			C52.3,28.9,52.3,29.1,52,29.4z"/>
		<path id="XMLID_16842_" class="st0" d="M55.5,21.6c-0.2-0.1,0,0.5,0,0.9c0,0.3-0.2,0.9-0.1,0.5C55.7,22.4,55.5,22,55.5,21.6z"/>
		<path id="XMLID_16841_" class="st0" d="M52.7,29.7"/>
		<path id="XMLID_16840_" class="st0" d="M58.7,13.9c-0.1-0.2-0.1,0.4,0.2,0.4C58.9,14.1,58.7,14,58.7,13.9z"/>
		<path id="XMLID_16837_" class="st0" d="M53.6,28c-0.2,0.3-0.4,0.5-0.6,0.6c0.5-0.5,0.9-1.4,1.1-1.9c0,0.1-0.2,0.4-0.1,0.4
			c0.2-0.1,0.2-0.6,0.4-0.5c-0.5,0.7-0.6,1.6-1.1,1.9C53.5,28.4,53.8,28.1,53.6,28L53.6,28z M53.9,27.8L53.9,27.8
			C54.2,27.6,54,27.1,53.9,27.8z"/>
		<path id="XMLID_16836_" class="st0" d="M55.4,23.3c-0.2-0.1,0.1,0.2-0.1,0.3C55.5,23.6,55.4,23.3,55.4,23.3z"/>
		<path id="XMLID_16835_" class="st0" d="M58.8,14.4c0.1,0.2,0.3,0.4,0.5,0.5C59.2,14.6,59,14.6,58.8,14.4z"/>
		<path id="XMLID_16834_" class="st0" d="M58.8,14.7c-0.2,0,0.1,0.3-0.1,0.4C59,15.1,58.8,14.8,58.8,14.7z"/>
		<path id="XMLID_16833_" class="st0" d="M55.4,23.7c-0.3,0.9-0.2,1.7-0.8,2.8c0.1,0.3,0.2-0.7,0.4-0.2c0.1-0.1-0.1-0.2-0.2-0.2
			c0-0.1,0.1-0.2,0.1-0.4c0.1,0,0,0.1,0,0.2C55.2,25.2,55.3,24.5,55.4,23.7z"/>
		<path id="XMLID_16832_" class="st0" d="M58.5,16.5c-0.1-0.1,0.2,1.4,0.2,0.7C58.7,16.9,58.6,16.9,58.5,16.5z"/>
		<path id="XMLID_16831_" class="st0" d="M59.4,15.1c-0.2-0.2,0.2,0.3,0.2,0.4C59.8,15.5,59.6,15.2,59.4,15.1z"/>
		<path id="XMLID_16830_" class="st0" d="M58.7,18.1"/>
		<path id="XMLID_16829_" class="st0" d="M54.4,29.2c0.4-0.2,0.7-0.6,1-0.9C55.2,28.1,54.7,28.8,54.4,29.2z"/>
		<path id="XMLID_16828_" class="st0" d="M59.4,17.7c-0.2-0.1,0.1,0.2-0.1,0.3C59.5,18.1,59.4,17.8,59.4,17.7z"/>
		<path id="XMLID_16827_" class="st0" d="M56.6,25.8c0.1,0,0.2-0.1,0.2-0.2C56.9,25.5,56.6,25.7,56.6,25.8z"/>
		<path id="XMLID_16826_" class="st0" d="M55.5,28.8c0.3,0.2,0.8-0.6,1-1.1C56.2,28.1,55.9,28.6,55.5,28.8z"/>
		<path id="XMLID_16825_" class="st0" d="M60.9,15.2c-0.1,0.2,0.2,0.8,0.1,1.2c-0.1,0.1,0,0.2,0,0.1C61.1,16,61,15.6,60.9,15.2z"/>
		<path id="XMLID_16824_" class="st0" d="M56.4,27.1c0.2-0.1,0.4-0.4,0.5-0.7C56.6,26.5,56.5,26.9,56.4,27.1z"/>
		<path id="XMLID_16823_" class="st0" d="M58.5,22.1c-0.5,0.6-0.2,1.7-1,2.6c0,0.2,0.3,0,0.1,0.3C58.2,24.1,58.2,23.1,58.5,22.1z"/>
		<path id="XMLID_16822_" class="st0" d="M59.2,20.3"/>
		<path id="XMLID_16821_" class="st0" d="M57.4,25.4C57.2,25.4,57.3,25.9,57.4,25.4C57.5,25.4,57.5,25.3,57.4,25.4z"/>
		<path id="XMLID_16820_" class="st0" d="M56.6,27.7c0.3,0.2,0.2-0.5,0.5-0.3c0-0.1-0.1-0.1-0.1-0.3C56.9,27.3,56.7,27.5,56.6,27.7z
			"/>
		<path id="XMLID_16819_" class="st0" d="M57.1,27c0.3-0.2,0.5-0.6,0.7-0.9C57.5,26.3,57.3,26.7,57.1,27z"/>
		<path id="XMLID_16818_" class="st0" d="M61.2,16.5"/>
		<path id="XMLID_16817_" class="st0" d="M59.6,21.4c-0.2-0.1-0.1,0.5-0.2,0.8c-0.1,0.3-0.4,0.6-0.1,0.7
			C59.4,22.4,59.6,21.9,59.6,21.4z"/>
		<path id="XMLID_16816_" class="st0" d="M58.3,25.5c-0.1,0-0.1,0-0.2,0c0.2-0.1,0.2-0.4,0.3-0.6c0.1,0,0,0.1,0,0.2
			c0.1-0.3,0.4-0.5,0.6-0.9c-0.6,0.4,0.2-1.1,0.2-1.2c-0.3-0.2-0.4,1-0.5,1.3c-0.1,0.3-0.4,0.4-0.5,0.7C58,25.4,57.7,26,58,26.2
			C57.8,25.8,58.2,25.8,58.3,25.5z"/>
		<path id="XMLID_16815_" class="st0" d="M59.6,22.5c0-0.1,0.2,0,0.2,0.1c0.1,0,0.2-0.2,0.3-0.5c-0.1,0-0.1,0-0.1,0
			c-0.1,0-0.1,0-0.1-0.1c0,0.1,0.1,0.1,0.1,0.3c-0.2-0.1-0.1-0.2-0.1-0.4c-0.3,0.2-0.3,0.8-0.5,1.1C59.6,23,59.6,22.6,59.6,22.5z"/>
		<path id="XMLID_16814_" class="st0" d="M59.7,23C59.7,23,59.6,22.9,59.7,23C59.3,23.4,60.2,22.7,59.7,23z"/>
	</g>
	<g id="XMLID_16562_">
		<path id="XMLID_16812_" class="st0" d="M3.7,19.2c0.1,0,0.1-0.1,0.1-0.2C3.7,19,3.7,19,3.7,19.2z"/>
		<path id="XMLID_16811_" class="st0" d="M3.7,21.9c0.1,0,0.1-0.1,0.1-0.2C3.7,21.7,3.7,21.8,3.7,21.9z"/>
		<path id="XMLID_16810_" class="st0" d="M4.2,24.5c0.1,0.2,0.2,0.4,0.2,0.6C4.6,25,4.4,24.5,4.2,24.5z"/>
		<path id="XMLID_16809_" class="st0" d="M7.2,20.6c-0.1,0-0.1,0.4,0.1,0.3C7.2,20.8,7.2,20.7,7.2,20.6z"/>
		<path id="XMLID_16808_" class="st0" d="M7.2,21.2"/>
		<path id="XMLID_16807_" class="st0" d="M7.7,20.4c0.1,0.5,0.5,0.5,0.9,0.3c0-0.3-0.7,0.2-0.6-0.4C7.9,20.3,7.8,20.4,7.7,20.4z"/>
		<path id="XMLID_16806_" class="st0" d="M9.5,22.6c0.4,0.2,0,0.8-0.4,0.9C8.9,23.4,8.9,23.2,9,23c-0.3,0-0.2,0.3-0.1,0.5
			c-0.1,0.2-0.3-0.1-0.4,0.1c-0.2,0-0.1-0.3-0.2-0.4c0.2-0.2,0.5-0.4,0.6-0.6c0.1,0.1,0.5-0.1,0.6-0.3c-0.4-0.1-0.8,0.3-1.1,0.6
			c-0.2,0.2-0.4,0.3-0.4,0.6c0.1,0.8,1.6,0.2,1.8-0.2C9.9,23.1,10.1,22.4,9.5,22.6z"/>
		<path id="XMLID_16805_" class="st0" d="M10.6,9.2c-0.1,0,0,0.1,0.1,0.1C10.9,9.3,10.7,9.2,10.6,9.2z"/>
		<path id="XMLID_16804_" class="st0" d="M10.6,20c0.3,0.4,0.5,0.8,0.9,1c-0.6,0.6-0.1,1.6,0.6,1.5c0.5-0.1,0.4-0.7,0.9-0.9
			c-0.5-0.2-0.6,0.6-0.9,0.7c-0.5-0.1-0.8-0.3-0.8-0.8c0-0.3,0.3-0.3,0.4-0.4C11.3,20.8,11,20.3,10.6,20z"/>
		<path id="XMLID_16803_" class="st0" d="M11,8.4c0.1,0.2,0.4,0,0.6,0.1C11.5,8.3,11.2,8.4,11,8.4z"/>
		<path id="XMLID_16800_" class="st0" d="M11.7,27.1c-0.6-0.3-0.7-1-0.2-1.4c-0.1,0.5-0.3,1.1,0.3,1.2c0-0.1,0.1-0.1,0.1-0.2
			c-0.5-0.2-0.3-1.5,0.3-1.4C12.7,25.9,12.4,26.8,11.7,27.1L11.7,27.1z M11.9,26.4c0.3,0,0.2-0.7,0.1-0.9l0,0
			C11.8,25.5,11.7,26.2,11.9,26.4z"/>
		<path id="XMLID_16799_" class="st0" d="M11.4,9.7c0.1,0.3,0.7,0.2,1,0.3C12.2,9.7,11.6,9.9,11.4,9.7z"/>
		<path id="XMLID_16798_" class="st0" d="M11.8,28.7c0.2,0,0-0.3,0.1-0.5C11.8,28.3,11.8,28.5,11.8,28.7z"/>
		<path id="XMLID_16797_" class="st0" d="M13.4,20.7c-0.2-0.4-0.7-0.5-0.9-0.9c0.2-0.6,1.5-0.6,0.9-1.6c0.1,0.6-0.1,1-0.9,1.1
			C12,20,12.9,20.5,13.4,20.7z"/>
		<path id="XMLID_16796_" class="st0" d="M13.4,21.2c0.2,0.5,0.8,0.6,1.2,0.9c-0.2-0.3-0.5-0.5-0.9-0.6c-0.1-0.8,0.9-0.7,0.6-1.4
			C14.1,20.6,13.6,20.7,13.4,21.2z"/>
		<path id="XMLID_16795_" class="st0" d="M13.9,19.7C14,19.8,14,20,14.2,20C14.2,19.8,14.1,19.7,13.9,19.7z"/>
		<path id="XMLID_16794_" class="st0" d="M14.1,27.5c0.1,0,0.1-0.2,0.1-0.3C14.1,27.3,14.1,27.4,14.1,27.5z"/>
		<path id="XMLID_16793_" class="st0" d="M16.1,20.8c-0.4,0-0.8,0.8-1,1.3C15.7,21.6,15.8,21.3,16.1,20.8z"/>
		<path id="XMLID_16792_" class="st0" d="M15.3,18.2c0.3,0.1,0.8-0.3,0.8-0.9C15.9,17.7,15.6,18,15.3,18.2z"/>
		<path id="XMLID_16791_" class="st0" d="M15.3,19.2c0.5-0.2,0.8-0.5,1-0.9C15.9,18.5,15.6,18.8,15.3,19.2z"/>
		<path id="XMLID_16790_" class="st0" d="M15.6,19.8c0.4,0.1,0.7-0.5,0.7-1C16,19.1,15.9,19.6,15.6,19.8z"/>
		<path id="XMLID_16789_" class="st0" d="M15.7,26.5"/>
		<path id="XMLID_16788_" class="st0" d="M15.8,7.7C16,7.9,16.1,8,16.2,8.3C16.3,8.1,16.1,7.7,15.8,7.7z"/>
		<path id="XMLID_16787_" class="st0" d="M16.6,18.7c0.2-0.1,0.1-0.6,0.2-0.8c0,0.3,0.2,0.8,0.1,1.3c0.2-0.2,0-0.4,0-0.6
			c0-0.6,0-1.4-0.1-2.1c-0.1,0.4-0.2,1-0.2,1.3c0,0.1,0.1,0,0.1,0.1C16.6,18,16.7,18.4,16.6,18.7z"/>
		<path id="XMLID_16786_" class="st0" d="M17,19.4c0.1,0.1,0.1,0.2,0.1,0.3C17.2,19.7,17.2,19.3,17,19.4z"/>
		<path id="XMLID_16785_" class="st0" d="M17.2,20.1c-0.1,0-0.1,0.2-0.1,0.3C17.2,20.4,17.2,20.2,17.2,20.1z"/>
		<path id="XMLID_16784_" class="st0" d="M17.3,20.5c-0.2,0,0,0.3-0.1,0.4C17.4,20.9,17.2,20.6,17.3,20.5z"/>
		<path id="XMLID_16783_" class="st0" d="M17.3,18.8c-0.2,0,0,0.3-0.1,0.4C17.4,19.2,17.3,18.9,17.3,18.8z"/>
		<path id="XMLID_16782_" class="st0" d="M17.6,19.2c0.4-0.2,0-1.2,0.1-0.2C17.7,19,17.6,19.1,17.6,19.2z"/>
		<path id="XMLID_16781_" class="st0" d="M17.8,17.7c-0.2,0,0,0.4-0.1,0.5C17.9,18.2,17.7,17.9,17.8,17.7z"/>
		<path id="XMLID_16780_" class="st0" d="M17.8,20.3"/>
		<path id="XMLID_16779_" class="st0" d="M18,21.4"/>
		<path id="XMLID_16778_" class="st0" d="M18.2,24.2c0.1,1.2,0,2.3,0.6,3.3C18.6,26.6,18.3,25.1,18.2,24.2z"/>
		<path id="XMLID_16777_" class="st0" d="M18.8,17.1c-0.3-0.8-0.3-1.8-0.3-2.7c-0.2,0.5-0.2,1.1-0.1,1.6
			C18.5,16.4,18.6,16.9,18.8,17.1z"/>
		<path id="XMLID_16776_" class="st0" d="M18.7,20.6c-0.2,0.3,0.1,0.7,0.1,1C18.9,21.3,18.7,20.9,18.7,20.6z"/>
		<path id="XMLID_16775_" class="st0" d="M19,17.2c-0.1-0.1-0.1,0-0.2,0C18.8,17.4,18.9,17.3,19,17.2z"/>
		<path id="XMLID_16774_" class="st0" d="M20.1,19.5c-0.4-0.6-1.1-1.4-1.1-2.2C18.6,17.8,19.5,19.1,20.1,19.5z"/>
		<path id="XMLID_16773_" class="st0" d="M19.3,23.5c0.2-0.4-0.4-1-0.2-1.4c-0.1,0-0.1,0.1-0.1,0.1C18.9,22.7,19.1,23.1,19.3,23.5z"
			/>
		<path id="XMLID_16772_" class="st0" d="M19.1,21.1"/>
		<path id="XMLID_16771_" class="st0" d="M19.3,20.7c0,0.1,0.1,0.1,0.2,0.1c0-0.2-0.1-0.2-0.1-0.4C19.2,20.4,19.5,20.8,19.3,20.7z"
			/>
		<path id="XMLID_16770_" class="st0" d="M19.6,24"/>
		<path id="XMLID_16769_" class="st0" d="M19.7,16.5"/>
		<path id="XMLID_16768_" class="st0" d="M19.8,7.9c0.1,0.1,0.1,0,0.2,0C19.9,7.8,19.9,7.9,19.8,7.9z"/>
		<path id="XMLID_16767_" class="st0" d="M20.3,22.7c0,0.2,0.2,0,0.3,0c-0.1-0.1,0-0.3-0.2-0.2C20.4,22.6,20.4,22.7,20.3,22.7z"/>
		<path id="XMLID_16766_" class="st0" d="M20.5,24.6c0.2,0.1,0.1-0.2,0.1-0.3C20.5,24.4,20.5,24.5,20.5,24.6z"/>
		<path id="XMLID_16765_" class="st0" d="M20.9,24.3c0,0.3,0.4-0.1,0.6,0c0.2-0.4-0.1-0.8-0.1-1.1C21.2,23.5,21.5,24.2,20.9,24.3z"
			/>
		<path id="XMLID_16764_" class="st0" d="M21.7,8.9c0.2,0.2,0.5-0.1,0.7,0C22.3,8.7,22,8.9,21.7,8.9z"/>
		<path id="XMLID_16763_" class="st0" d="M22.1,23.2c0.1,0.2,0.6,0.2,0.6-0.1C22.5,23.4,22.2,23.1,22.1,23.2z"/>
		<path id="XMLID_16762_" class="st0" d="M22.4,21.5c0.2,0.5,0.8,1.1,0.4,1.7C23.5,22.9,22.8,21.8,22.4,21.5z"/>
		<path id="XMLID_16761_" class="st0" d="M22.7,21.5c-0.2,0.1,0.4,0.1,0.5,0.1C23.4,21.5,22.8,21.5,22.7,21.5z"/>
		<path id="XMLID_16760_" class="st0" d="M23.1,9.2c-0.1,0,0,0.1,0.1,0.1C23.4,9.2,23.2,9.1,23.1,9.2z"/>
		<path id="XMLID_16759_" class="st0" d="M24.4,26c0.1,0,0.2-0.1,0.1-0.3C24.4,25.7,24.4,25.8,24.4,26z"/>
		<path id="XMLID_16758_" class="st0" d="M26.1,19.5c0.2,0.3,0.6,0.4,0.6,0.9c-0.5,0-0.5-0.5-0.9-0.6c-0.2,0-0.7,0.1-0.7-0.1
			C25.3,19.4,25.6,19.3,26.1,19.5c-0.3-0.4-0.8-0.2-1.1-0.1c0,0.3,0.2,0.3,0.1,0.5c0.6-0.2,0.9,0.1,1.2,0.5c-0.4,0-0.4-0.3-0.8-0.3
			c0.2,0.5,1.1,0.7,1.5,0.3c0-0.1-0.1-0.6-0.3-0.5C26.7,19.8,26.4,19.2,26.1,19.5z"/>
		<path id="XMLID_16757_" class="st0" d="M26.4,18.2c0.2,0,0.2-0.2,0.3-0.3C26.6,17.8,26.4,18.1,26.4,18.2z"/>
		<path id="XMLID_16756_" class="st0" d="M26.4,19.2c0.2,0,0.3-0.3,0.3-0.5C26.6,18.8,26.5,19,26.4,19.2z"/>
		<path id="XMLID_16755_" class="st0" d="M26.7,17.7c0,0,0,0.1,0,0.1c0,0,0.1,0,0.1,0c0,0,0-0.1,0-0.1
			C26.8,17.7,26.8,17.7,26.7,17.7z"/>
		<path id="XMLID_16754_" class="st0" d="M26.9,15.3c-0.3,0.1-0.1,0.4,0,0.5C27.1,15.7,26.8,15.5,26.9,15.3z"/>
		<path id="XMLID_16753_" class="st0" d="M26.9,17.6c0.1-0.1,0.2-0.3,0.3-0.4C27.1,17.1,26.7,17.5,26.9,17.6z"/>
		<path id="XMLID_16752_" class="st0" d="M26.8,18.6c0.1-0.1,0.2-0.2,0.1-0.4C26.8,18.3,26.8,18.4,26.8,18.6z"/>
		<path id="XMLID_16751_" class="st0" d="M27.1,19.2"/>
		<path id="XMLID_16750_" class="st0" d="M27.1,20.9c0.2-0.1,0.3-0.3,0.3-0.6C27.2,20.4,27.1,20.7,27.1,20.9z"/>
		<path id="XMLID_16749_" class="st0" d="M27.6,19.6c0,0.2-0.4,0.6-0.1,0.6C27.6,20.1,27.6,19.9,27.6,19.6z"/>
		<path id="XMLID_16748_" class="st0" d="M27.8,17.7c0.1,0.1,0.1,0.5,0.1,0.7C28,18.5,28,17.8,27.8,17.7z"/>
		<path id="XMLID_16717_" class="st0" d="M30.8,15.4c1.1,4.1,0.1,5.9-1.4,9.4c-1.9,3.2-4.3,5.2-6.3,6.1c-0.5,0.2-1,0.4-1.6,0.6
			c-2.1,0.9-4.9,0.9-7.2,0.6c-2.4-0.2-7-2.2-9.2-4.7c-2.5-2.5-2.8-5.5-2.9-7c-0.1-0.8,0-1.8,0.1-2.4c0.2-1.1,0.7-2.7,1.3-3.8
			c2.7-5,7.8-8.4,13.6-7.7c1.3,0.2,2.7,0.6,3.9,0.9c3.2,1,6.7,1.8,8.5,5C30.2,13.5,30.5,14.3,30.8,15.4L30.8,15.4z M2.9,17.9
			C3,17.7,3.3,17.5,3,17.3c0.1,0,0.2-0.1,0.2-0.4c0.1,0.2,0,0.5-0.1,0.8c0.2,0.3,0.1-0.3,0.3-0.3C3.3,18.5,2.9,19.5,3,21
			c0.1,0,0.1-0.2,0.1-0.3C3.2,21,3,21.3,3,21.5c0.2,0.3,0.1-0.3,0.2-0.4c0,0.6,0.2,1.2,0.4,1.9c0,0.2,0,0.5,0.1,0.8
			c0,0,0.1-0.1,0.1-0.1C4,23.9,3.6,24,3.9,23.9c-0.1,0.2,0,0.3,0.1,0.5c-0.1,1.8,1.2,2.5,2.2,3.5c-0.1-0.5-0.8-0.9-0.9-1.6
			C6,27,6.7,28.2,7.6,28.9c-0.2-0.4-0.4-0.6-0.7-0.9c-2.3-2.3-3.6-7.5-2.6-11c0.2-0.7,0.8-2.2,1.2-2.7c1.4-1.8,3.1-3.6,6.5-3.4
			c-0.6-0.1-1.4-0.2-2.1-0.1c-0.4,0.1-0.9,0.2-1.2,0.3c0,0-0.2,0.2-0.3,0.3c-0.2,0.1-0.4,0.1-0.6,0.2c0,0,0,0.1,0,0.1
			c-0.2,0.1-0.4,0-0.6,0.1c1.1-0.8,2.4-1.3,3.9-1.4c0.1,0.2-0.2,0.1-0.3,0.1c0.4,0.3,1.4-0.2,1.6,0.2c0.1,0,0.1-0.1,0-0.1
			c0.3-0.2,1,0.3,1.4,0c0.1,0.2,0.2,0.1,0.5,0.1c0.3,0.1,0.6,0.4,0.8,0.2c-0.4-0.3-1.2-0.3-1.6-0.6c-0.2,0.3-1.3-0.2-1.7,0.1
			c-0.1-0.1,0.2-0.3,0.3-0.4c0.3,0,0.4,0.1,0.7,0.1c0-0.2-0.3-0.1-0.4-0.2c0.3-0.1,1.1,0.1,1.4,0.4c0.2,0,0-0.2-0.1-0.1
			c0.4-0.2,0.5,0.1,0.9,0.1c-0.7-0.7-1.7-1.1-3-1.2c0.4-0.3,1.1,0.4,1.4,0c0.1,0,0.1,0.1,0,0.1c0.6,0,1.1,0.5,1.7,0.7
			c-0.1-0.6-1.3-0.8-2-1.1c0.5-0.1,1.1,0.3,1.6,0.5c-0.3-0.4-0.4-0.5-0.8-0.8c0.6,0.2,0.9,0.5,1.5,0.7c-0.1-0.2-0.2-0.2-0.4-0.3
			c0.3-0.1,0.1-0.1,0-0.3c0.5,0.2,0.8,0.5,1.2,0.8c-0.2-0.4-0.5-0.7-0.9-1c0.4,0.1,1,0.7,1.2,1.1c0-0.7-0.7-1.2-1.1-1.7
			c0.5,0.1,1.1,0.7,1.2,1.4c0.1-0.7-0.5-1.3-0.9-1.7c0.3,0.1,0.8,0.8,1,1.2c0.1,0-0.1-0.3-0.1-0.4c0.3-0.1,0,0.3,0.3,0.2
			c0.2-0.3-0.1-0.6,0.1-0.9C16.7,8,16.8,8.3,17,8.5c0.3,0.1,0.1-0.3,0.1-0.5c0.1,0,0.2,0.1,0.2,0c0.3,0.2-0.2,0.6,0.2,0.6
			c-0.1-0.4,0-0.9-0.1-1.2c0.3,0.5,0.3,1,0.2,1.4c0,0.1,0.1,0.2,0.2,0.1c0,0.2-0.2,0.2-0.1,0.4c0.3,0,0.1-0.5,0.3-0.6
			c-0.1-0.2-0.1,0.2-0.2,0.1c-0.1-0.2,0.1-0.4,0.3-0.6c-0.1-0.4,0-0.8,0.2-1c-1-0.5-1.9-0.4-3.1-0.4c0,0.2,0.2,0.2,0.2,0.4
			C15.4,7,15.2,7,15.1,6.8c-4.6,0.3-7,2-9.9,5.6C4.5,13.2,4,14,3.5,14.8c-0.6,1.3-1.2,2.8-1.1,5.1c0,0.3,0.1,0,0.1-0.1
			c0-0.1,0.1,0,0.1-0.1c0-0.4,0-0.9,0.1-1.1c-0.1,0.7-0.1,1.8-0.1,2.2c0,0.1-0.1,0-0.1,0c-0.1,0.1-0.2,0.8,0.1,0.8
			c-0.1-0.2-0.1-0.4,0-0.6c0.2,0-0.1,0.5,0.2,0.4C2.8,20.2,3,19.2,3,18.2c-0.1,0.1-0.1,0.1-0.1-0.1c0.1-0.3,0.3,0.3,0.4,0.1
			C3.4,17.9,3,18,2.9,17.9L2.9,17.9L2.9,17.9z M15.3,10.1c0.1,0,0.2,0.2,0.2,0.4c0.3-0.1,0-0.4,0-0.4c-0.3-0.4-1.2-0.8-1.6-1.1
			C14.5,9.4,14.6,9.7,15.3,10.1L15.3,10.1L15.3,10.1z M3.3,22.7c0-0.1,0-0.2-0.1-0.2c-0.1-0.2-0.1-0.4-0.1-0.8
			c-0.2,0.2-0.1,0.8,0.1,1C3.2,22.7,3.3,22.7,3.3,22.7L3.3,22.7L3.3,22.7z M2.5,20.3C2.4,21,2.7,20.4,2.5,20.3
			C2.4,20.3,2.5,20.3,2.5,20.3L2.5,20.3L2.5,20.3z M3.5,24.1c0,0.5,0.3,0.7,0.4,1.1c0.3-0.1-0.4-0.6-0.1-1.1c-0.1,0-0.1,0.1-0.1,0.1
			c0.2-0.2-0.3-0.7-0.1-0.9c-0.6-0.2-0.6-1-0.8-1.6c-0.1,0.5,0,1.3,0.3,1.8c0.1,0,0.1-0.1,0.1-0.2c0.1,0.2,0.2,0.5,0.3,0.8
			c-0.1,0-0.1-0.1-0.1-0.1C3.1,23.9,3.3,24.1,3.5,24.1L3.5,24.1L3.5,24.1z M3.2,18.3C3,18.2,3.1,18.5,3,18.6
			C3.1,18.6,3.2,18.4,3.2,18.3L3.2,18.3L3.2,18.3z M4.3,22c0.4,2.6,1.7,5,3.7,6.7c0.9,0.8,1.6,1.5,2.8,2.1c1.5,0.7,3.5,1.2,5.4,1.3
			c2.3,0.1,4.1-0.4,5.9-1.1c1.1-0.5,2.5-1.1,4.1-2.5c0.7-0.7,2.1-2.3,2.6-3.2c1.1-1.9,2.2-4.7,2.1-7.1c-0.2-2.6-1.1-4.4-2.9-6.2
			c-1.5-1.5-3.8-2.2-5.8-1.9c-1.6,0.3-2.8,1.5-4.4,1.6c-0.7,0.1-1.5-0.1-2.1-0.1c-1.2-0.2-2.1-0.5-3.4-0.5c-0.2,0-0.5,0.1-0.8,0.1
			c-1,0.1-2,0.2-2.9,0.6c-2.2,1.1-3.7,3.4-4.2,6.2c-0.1,0.7-0.2,1.7-0.1,2.4C4.2,21,4.2,21.4,4.3,22L4.3,22z M8.3,29.5
			c0.2-0.1-0.1-0.3-0.2-0.3C8.1,29.3,8.2,29.3,8.3,29.5L8.3,29.5L8.3,29.5z M8.8,29.8c0-0.2-0.3-0.2-0.4-0.4
			C8.4,29.5,8.7,29.8,8.8,29.8L8.8,29.8L8.8,29.8z M13.1,10.1c0,0-0.1,0-0.1,0c0,0.2,0.1,0.1,0.2,0.1C13.1,10.2,13.1,10.2,13.1,10.1
			L13.1,10.1L13.1,10.1z M15.2,10.8c0.2-0.4-0.4-0.5-0.7-0.7C14.7,10.4,15.1,10.5,15.2,10.8L15.2,10.8L15.2,10.8z M15.8,10.2
			c0.1-0.3-0.2-0.8-0.6-0.9C15.4,9.6,15.6,9.9,15.8,10.2L15.8,10.2L15.8,10.2z M18.3,11.1c-0.2-0.4-0.8,0-1.2,0
			c0.8-0.7,1.8,0.2,2.6-0.4c-0.1,0-1.1-0.9-2.6-0.6c-1,0.2-1.2,0.5-1.6,0.9c1,0.3,2.3,0.5,3.3,0.1C18.8,11,18.2,10.8,18.3,11.1
			L18.3,11.1L18.3,11.1z M16,10.1c0.2,0,0.2-0.3,0.1-0.4C15.9,9.7,16,10,16,10.1L16,10.1L16,10.1z M16.7,9.2
			c-0.1,0.1-0.2,0.3-0.2,0.5C16.8,9.7,16.7,9.4,16.7,9.2L16.7,9.2L16.7,9.2z M16.9,8.6C16.9,8.6,16.9,8.6,16.9,8.6
			c-0.2-0.1-0.2,0.3,0,0.1C16.9,8.7,16.9,8.6,16.9,8.6L16.9,8.6L16.9,8.6z M17,8.9c-0.3-0.1-0.1,0.3-0.1,0.4C17,9.2,17,9.1,17,8.9
			L17,8.9L17,8.9z M17.1,9.4C16.9,9.3,17,9.5,17,9.7C17.1,9.6,17.1,9.5,17.1,9.4L17.1,9.4L17.1,9.4z M17.4,9.1
			c0-0.1,0.1-0.5-0.1-0.4C17.3,8.8,17.2,9.2,17.4,9.1L17.4,9.1L17.4,9.1z M18.3,8.5c-0.2,0.2-0.1,0.4-0.2,0.8
			c0.1,0.1,0.1-0.5,0.2-0.5c0.1,0,0.2,0.1,0.3,0.1c0.2,0.1-0.2-0.2-0.2-0.2c0.2-0.2,0.3-0.5,0.4-0.9c0,0.1,0.2,0.5-0.1,0.6
			c0.1,0.1,0.1,0,0.2,0c0,0.3-0.3,0.1-0.3,0.4c0.3-0.2,0.5-0.4,0.6-0.6c0.2,0,0.4,0.2,0.2-0.1c0.4,0.2,0.6-0.2,1-0.3
			c0-0.3-0.3-0.2-0.4-0.3c-0.3,0.1-0.4,0.2-0.5,0.5c-0.2-0.1,0-0.4,0.2-0.4c-0.2-0.1,0-0.1-0.1-0.3c-0.4,0-0.6,0.3-0.6,0.7
			c-0.2-0.2,0.1-0.6,0.3-0.7c0-0.2-0.2-0.1-0.4-0.1C19,7.6,18.6,8,18.3,8.5c0.1-0.6,0.8-1.3,0.2-1.4C18.5,7.5,17.9,8.3,18.3,8.5
			L18.3,8.5L18.3,8.5z M18.7,9.2c-0.2,0.1-0.3,0.4-0.6,0.4c0,0.2,0.2-0.2,0.2,0.1C18.5,9.6,18.6,9.5,18.7,9.2L18.7,9.2L18.7,9.2z
			 M18.9,9.5c-0.2,0-0.2,0.2-0.4,0.2c0,0.2,0.3,0.2,0.4,0.1C18.8,9.7,18.9,9.7,18.9,9.5L18.9,9.5L18.9,9.5z M20.9,7.8
			c-0.5,0.1-0.9,0.6-1.4,0.5c-0.1,0.1-0.2,0.4-0.5,0.4C19.1,8.9,19.1,8.8,19,9c0.1-0.1,0.3-0.2,0.4-0.2c0-0.1-0.1-0.1-0.1-0.1
			C19.7,8.3,20.5,8.3,20.9,7.8L20.9,7.8L20.9,7.8z M19.5,9.8c-0.1-0.2-0.3,0.1-0.4,0.1c0,0.1,0,0.3,0.2,0.3c-0.1-0.1,0-0.2-0.1-0.2
			C19.2,9.8,19.5,9.9,19.5,9.8L19.5,9.8L19.5,9.8z M19.9,8.7c0,0.1-0.2,0.1-0.2,0c0,0.2-0.2,0.4-0.4,0.6c0.3,0,0.2,0,0.6-0.1
			c0.2-0.6,1.3-0.9,2.2-1c-0.2-0.2-0.5-0.2-0.8-0.3c-0.2,0.4-1.1,0.4-1.4,0.6c0,0,0,0.2-0.2,0.1C19.7,8.7,19.8,8.7,19.9,8.7
			L19.9,8.7L19.9,8.7z M19.6,9.6c0.1,0.3,0.5-0.3,0.7-0.3c0.2,0-0.1,0.1-0.1,0.1c0.5,0.1,0.9-0.4,1.4-0.5c0.1,0.4-0.6,0.4-1.1,0.6
			c0.8,0.1,1.4-0.2,2.3-0.3c-0.7,0.3-1.5,0.5-2.1,0.8c0.5,0.2,0.9-0.2,1.4-0.3c3-0.4,5.8,0.9,7.4,3.3c-0.8-2.2-3-3.3-3.7-3.7
			c-1.3-0.6-3.3-1.1-4.8-0.3c0.3-0.2,0.7-0.4,1.1-0.5c0-0.2-0.4,0-0.5-0.1c-0.1,0.2-0.8,0.3-0.6,0.6C20.4,8.9,19.9,9.3,19.6,9.6
			L19.6,9.6L19.6,9.6z M19.9,10.2c-0.1,0-0.2,0.1-0.3,0.1c0,0.1,0.1,0.1,0.1,0.2c0.1,0,0.1-0.1,0.2-0.1
			C19.7,10.4,19.9,10.4,19.9,10.2L19.9,10.2L19.9,10.2z M20.2,10.2c0-0.2-0.2,0-0.3,0C20,10.4,20.1,10.1,20.2,10.2L20.2,10.2
			L20.2,10.2z M21,7.9C21.5,7.7,20.8,8,21,7.9L21,7.9z"/>
		<path id="XMLID_16716_" class="st0" d="M4.1,24.8"/>
		<path id="XMLID_16715_" class="st0" d="M5.3,26.9c-0.1-0.1-0.3-0.8-0.5-1.4c-0.1-0.1-0.2-0.3-0.3-0.4C4.7,25.8,4.9,26.4,5.3,26.9z
			"/>
		<path id="XMLID_16714_" class="st0" d="M2.8,17.6c0-0.1,0.2-0.2,0.2-0.1c0.1-0.7,0.4-1.3,0.7-1.9c-0.3,0-0.4,0.6-0.5,0.7
			c0,0.1-0.1,0-0.1,0c-0.3,0.6-0.4,0.9-0.5,1.9C2.7,18.3,2.8,17.6,2.8,17.6z"/>
		<path id="XMLID_16713_" class="st0" d="M3.3,20.5c0.3-0.1,0,0.1,0,0.2c0,0,0.1,0,0.1,0c0.1,1.6,0.4,2.4,0.9,3.7
			c0.1,0,0.1,0,0.1-0.1c0-0.1,0.1-0.1,0.1-0.2c-0.3,0.2,0,0-0.1-0.3c0,0-0.1,0-0.1,0c-0.1-0.2-0.1-0.6-0.1-0.6c0,0-0.1,0.1-0.1,0.1
			c0,0,0.1-0.5,0-0.1c-0.2-0.3,0.3-0.4-0.3-0.5c0.3,0,0.2-0.6,0-0.6c0,0.2,0.1,0.2,0.1,0.4c-0.3-1-0.1-2,0-3.1
			C3.5,19.3,3.7,19,3.5,19c0.2-0.8,0.3-1.6,0.4-2.1c-0.2-0.2-0.1,0.6-0.4,0.7c0.2,0.5-0.3,1.2-0.1,1.7c-0.1,0.1-0.2,0.2-0.1,0.4
			c0.1,0,0-0.2,0.1-0.3c0.2,0-0.2,0.3,0.1,0.4c0,0.1-0.1,0-0.2,0C3.3,20.2,3.6,20.1,3.3,20.5z"/>
		<path id="XMLID_16712_" class="st0" d="M3.3,16.9c0.3-0.2,0.2-0.6,0.5-0.9C3.6,15.9,3.4,16.6,3.3,16.9z"/>
		<path id="XMLID_16711_" class="st0" d="M3.6,15.5C4,15.4,4.2,14.2,3.9,15C3.9,15.2,3.6,15.2,3.6,15.5z"/>
		<path id="XMLID_16710_" class="st0" d="M4.2,15.7c-0.1,0.2,0.1-0.2,0.2-0.3C4.4,15.2,4.1,15.5,4.2,15.7z"/>
		<path id="XMLID_16709_" class="st0" d="M4.5,15.1"/>
		<path id="XMLID_16708_" class="st0" d="M5.4,13.5c0.1,0.2,0.2-0.2,0.4-0.2C5.7,13.1,5.5,13.5,5.4,13.5z"/>
		<path id="XMLID_16660_" class="st0" d="M7.9,14.7c1.6-2.4,3.6-3.4,6.3-2.5c1.1,0.1,1.9,0.9,2.3,2.4c0-0.1,0-0.2,0.1-0.2
			c0.1,0.3,0.1,0.3-0.1,0.4c0.2,0,0.2,0.9,0,0.5c0,0.6-0.1,1-0.2,1.4c0,0,0-0.2-0.1-0.1c-0.2,0.2-0.2,0.6-0.6,0.6
			c-0.1,0-0.4-0.1-0.4-0.1c-0.4-0.3-0.5-1.3-0.6-1.9c-0.5-0.3-0.2-0.9-0.6-1.1c-0.6-0.3-0.8,0.1-0.9,0.7c0,0.4,0.2,0.7,0.1,1
			c-0.1,0.3-0.4,0.4-0.7,0.4c-0.5-0.3-0.5-1.1-1.1-1.3c-0.3,0.1-0.2,0.6-0.4,0.8c-0.3,0-0.7,0-1,0c-0.2,0.7,0.5,0.9,0.2,1.7
			c-0.2,0.2-0.5,0.3-0.7,0.4c-0.7-0.2-1.1,0.8-0.8,1.3c0.5,0.2,1,0.5,1,1.2c-0.1,0.3-0.4,0.3-0.4,0.6c0,0.3,0.1,0.5,0.3,0.6
			c0.8-0.1,0.9,0.8,0.9,1.4c0.3,0.2,0.2,1,0.4,1.4c0.3,0.1,0.4,0.4,0.9,0.4c0.2-0.2,0.5-0.3,0.9-0.3c-0.2,0.9,0.7,1.2,1.3,0.7
			c0-0.3,0.1-0.5,0.1-0.9c0.3,0,0.3-0.2,0.6-0.2c0.3,0.1,0.3,0.5,0.7,0.4c0.6-0.5,0.7-1.3,0.9-2.1c0.1-0.3-0.2-1.4,0.3-1.6
			c0,0.9-0.2,1.6-0.3,2.1c-0.1,0.3,0,0.7-0.1,0.9c-0.1,0.3-0.6,0.5-0.6,0.9c-0.5,0.1-0.7-0.2-1-0.4c-0.3,0.2-0.2,0.9-0.5,1.1
			c-0.4,0-0.4,0.1-0.8,0.1c-0.4-0.2-0.6-0.5-0.7-1C12,24.8,11.7,25,11.2,25c0-0.3-0.4-0.3-0.5-0.4c0-0.1,0-0.2,0-0.3
			c0,0-0.1,0-0.1,0c-0.1-0.3,0.1-0.9-0.3-1.1c0-0.6,0-1.1-0.4-1.4c-0.6,0-0.9-0.5-0.8-1c-0.3,0.4-1.4,0.5-1.7,0
			c0.3,0.1,0.7,0.2,1.1,0.1c0.3-0.1,0.4-0.3,0.6-0.4c0.1,0,0,0.2,0.1,0.2c0.6-0.7-0.3-1.3-0.8-1.5c-0.2-0.6,0-1,0.2-1.4
			c0-0.1-0.1-0.2,0-0.2c0,0.1,0,0.1,0.1,0.1c0.3-0.2,0.7-0.2,1.1-0.2c0.4-0.4,0.1-1,0-1.5c-0.1-0.1-0.1,0.1-0.3-0.1
			C9.4,15.4,9,15.3,8.8,15c0.2,0.8,0.6,0.8,0.8,1.9c-0.2,0-0.2-0.3-0.3-0.5c0-0.1-0.2,0-0.3-0.1C8.8,16,9,16,8.8,16
			c-0.2-0.1-0.8-0.1-0.9,0.3c0.1,0.2,0.2,0.4,0.4,0.4c-0.1-0.1-0.1-0.2,0-0.3c0.3,0,0.6-0.1,0.6,0.2c-0.2,0-0.4-0.2-0.4,0.1
			C8.6,17.1,9,17.1,9.3,17c-0.1,0.5-1,0.1-1.1,0.1c0,0.1,0.3,0.3,0.1,0.4c0-0.2-0.2-0.4-0.3-0.3c0,0.4,0.2,0.9,0,1.3
			c-0.1-0.4,0-0.9-0.3-1c0.1,0.1,0.1-0.3,0-0.3c-0.4,0.5-0.1,1.3-0.3,1.9c-0.1-0.4,0.1-0.6-0.1-0.9c-0.1,0.8-0.3,1.5,0,1.9
			c0.4-0.5,1.4-0.2,1.7,0.1c-0.4,0-0.7-0.3-1.1-0.3c-0.5,0-0.7,0.5-0.9,0.6c0,0.8,0.1,1.3,0,1.9C7,21.7,6.9,21,7,20.4
			c-0.1,0-0.1,0.1-0.1,0.1c0.1-0.7-0.1-1.2,0.2-1.6c0,0.1,0,0.3,0.1,0.3c0-0.3,0.1-0.4,0-0.5C7,18.7,7,19,6.9,18.7
			c0.1-0.4,0-0.6,0.2-1.1c-0.1,0-0.2,0-0.3-0.1c0.1,1.6-0.4,3.9,0.2,5.1c-0.4,0.1,0.2,0.5-0.1,0.7c0-0.2,0-0.3-0.1-0.4
			c0.1,0.2,0.1,0.6,0.3,0.4c0,0.2-0.3,0.1-0.1,0.3c0.4-0.3-0.1-0.8,0.1-1c0.4,0.4,0.2,0.8,0,1.3c0.2,0.2,0.1,0.5,0.2,0.8
			c0.1,0.2,0.4,0.3,0.5,0.6c0.3,0.5,0.5,1.4,1,1.2C8.9,26.8,8.8,27,9,27c0-0.2-0.3-0.4-0.1-0.5c0,0.1,0.1,0.2,0.1,0
			c0.4,0,0.2,0.7,0.5,0.5c-0.1,0.3,0.4,0.5,0.4,0.5c-0.2-0.3-0.6-0.7-0.6-0.9c0.3,0.5,0.8,0.9,1.2,1.3c0.1,0.1,0,0.4,0.3,0.3
			c-0.2-0.2-0.4-0.4-0.4-0.8c-0.5-0.4-0.8-1-1.1-1.6c0-0.3,1.2,2.3,1.3,1.6c0,0.1,0,0.2-0.1,0.3c0.1,0,0.2,0,0.2-0.1
			c0.1,0.4,0,0.7,0.3,0.9c0-0.1-0.1-0.1-0.1-0.2c0.4,0,0.5,0.6,0.9,0.4c-0.3-0.2-0.8-0.5-0.6-0.7c0.5,0.5,1.1,1.4,1.9,1.3
			c-0.3-0.2-0.9-0.4-0.9-0.7c0.1,0.3,0.3,0,0.4-0.1c0.1,0.2-0.1,0.3-0.1,0.4c0.1,0.2,0.5,0.3,0.6,0.3c-0.1,0.2,0.4,0.3,0.6,0.1
			c-0.1-0.2-0.4,0-0.5-0.1c0.1-0.2,0.2,0,0.3-0.2c-0.2,0-0.3,0-0.2-0.2c0.2-0.1,0.1,0.2,0.3,0.1c0.1-0.4,0.1-0.6,0.4-0.6
			c-0.1,0-0.2,0.4-0.1,0.4c0.1-0.2,0.3-0.5,0.4-0.6c0,0.4-0.6,0.9-0.4,1.1c0.3-0.2,0.5-0.8,0.7-0.8c-0.1,0.3-0.4,0.4-0.4,0.8
			c0.1,0,0.1,0.1,0.2,0.1c0.7-0.5,0.8-1.5,1.3-2.3c-0.1,0.6-0.5,1.4-0.6,1.8c0.3-0.3,0.5-0.7,0.7-1.1c0.1,0.6-0.6,0.8-0.5,1.2
			c0.7-0.5,0.8-1.7,1.3-2.4c-0.1,0.4-0.3,0.9-0.4,1.3c-0.2,0.4-0.5,0.8-0.5,1.1c0.3-0.5,0.7-0.8,0.7-1.5c0.1-0.1,0.4,0,0.4-0.2
			c0.3-0.8-0.2-1.4,0.4-1.9c0,0.3-0.1,0.5-0.1,0.6c0.3,0.5,0,0.9-0.1,1.6c-0.2,0.5-0.3,0.8-0.6,1.2c-0.6,0.7-1.6,1.2-3.2,1.1
			c-0.7-0.2-1.6-0.3-2.7-1.1c-0.8-1-2.3-1.5-2.7-2.9c-0.6-0.3-0.5-0.8-0.7-1.4c-0.3-0.9-0.7-1.5-0.8-2.4c0-0.4-0.1-0.8-0.1-1
			C5.9,18.9,6.9,16.3,7.9,14.7L7.9,14.7z M14.1,29.1c0.1-0.1,0-0.1,0-0.2C14,29,14.1,29,14.1,29.1L14.1,29.1L14.1,29.1z M14.5,29.3
			c-0.3-0.1-0.5-0.3-0.9-0.4C13.9,29.2,14.2,29.5,14.5,29.3L14.5,29.3L14.5,29.3z M6.5,18.8c-0.2,0-0.1,0.4-0.2,0.6
			C6.6,19.4,6.5,19,6.5,18.8L6.5,18.8L6.5,18.8z M6.5,19.6c-0.4,0.2-0.1,0.7,0,1.1C6.7,20.5,6.5,20.1,6.5,19.6L6.5,19.6L6.5,19.6z
			 M6.5,20.7c-0.3,0.7,0.2,1.6,0.3,2.3C6.9,22.3,6.5,21.5,6.5,20.7L6.5,20.7L6.5,20.7z M7.3,17.2c-0.1,0.1-0.1,0.2-0.1,0.4
			C7.4,17.6,7.2,17.3,7.3,17.2L7.3,17.2L7.3,17.2z M7.8,15.7c-0.2,0-0.1,0.1-0.1,0.2C7.7,15.9,7.8,15.9,7.8,15.7L7.8,15.7L7.8,15.7z
			 M8.3,14.8C7.9,15,8.2,15.2,8.3,14.8L8.3,14.8L8.3,14.8z M8.6,15C8.9,14.7,8.4,14.7,8.6,15L8.6,15L8.6,15z M9.1,14.5
			C9,14.6,8.8,14.7,9,14.9C9.1,14.8,9.1,14.7,9.1,14.5L9.1,14.5L9.1,14.5z M9.3,14.7c-0.3,0-0.2,0.2-0.1,0.4
			C9.3,15,9.3,14.9,9.3,14.7L9.3,14.7L9.3,14.7z M9.6,15.3c-0.2,0.3-0.1,0-0.1-0.3c-0.2,0-0.1,0.1-0.2,0.1c0.2,0.2,0.2,0.6,0.5,0.6
			C9.8,15.6,9.7,15.5,9.6,15.3L9.6,15.3L9.6,15.3z M9.6,13.7c-0.2,0-0.1,0.3-0.3,0.3C9.4,14.1,9.6,13.8,9.6,13.7L9.6,13.7L9.6,13.7z
			 M9.4,14.6C9.6,14.4,9.2,14.3,9.4,14.6L9.4,14.6L9.4,14.6z M9.8,14.6c-0.1-0.3-0.1,0.2-0.3,0.1C9.6,15.1,9.7,14.7,9.8,14.6
			L9.8,14.6L9.8,14.6z M9.8,14.2c-0.1,0-0.1-0.1-0.2-0.1c0,0.1,0.2,0.1,0.1,0.3c0.1,0,0.1-0.1,0.1,0c0.1-0.1,0.2-0.3,0.1-0.4
			C9.8,14.1,9.8,14.2,9.8,14.2L9.8,14.2L9.8,14.2z M10.1,14.7c-0.7-0.5-0.4,1.4,0.2,0.6c0.1,0,0,0.2,0.1,0.3
			c0.6-0.1,0.7-0.9,0.4-1.4c0-0.1,0.1-0.1,0.2-0.1c-0.2-0.2,0-0.4,0-0.6c-0.4,0.1-0.2,1.5-0.8,1.4c0.3,0,0.2-0.4,0.3-0.6
			C10.4,14,10,14.3,10.1,14.7L10.1,14.7L10.1,14.7z M10.3,13.3c-0.1,0-0.2,0.2-0.2,0.4C10.2,13.5,10.4,13.5,10.3,13.3L10.3,13.3
			L10.3,13.3z M10.6,13.8c-0.1-0.2-0.2,0.1-0.4,0.1C10.4,14.2,10.5,13.8,10.6,13.8L10.6,13.8L10.6,13.8z M11.1,28.6
			c0.1-0.2-0.2-0.1-0.3-0.1C10.9,28.6,11,28.6,11.1,28.6L11.1,28.6L11.1,28.6z M11.6,12.7c-0.1-0.2-0.3,0.1-0.5,0.1
			C11.3,13.1,11.4,12.7,11.6,12.7L11.6,12.7L11.6,12.7z M11.3,13.9c-0.1,0.2-0.2,0.6-0.1,0.9C11.5,14.7,11.3,14.1,11.3,13.9
			L11.3,13.9L11.3,13.9z M11.8,12.3c-0.1-0.2-0.3,0.1-0.5,0C11.3,12.6,11.6,12.4,11.8,12.3L11.8,12.3L11.8,12.3z M11.8,13.4
			c-0.2,0-0.2-0.1-0.4-0.1c0,0.5,0.1,0.8,0.4,0.9C11.7,14,11.8,13.6,11.8,13.4L11.8,13.4L11.8,13.4z M12.3,14.9
			c-0.4,0.1-0.6-0.5-0.9-0.6c0,0.1,0,0.2,0,0.4c0.7,0.1,0.7,1,1.2,1.3c0.4,0,0.4-0.7,0.3-1c-0.1,0-0.1,0.2-0.2,0.3
			c-0.1-0.1-0.3-0.1-0.4-0.1c0.6,0,0.1-0.5,0.2-0.9c-0.2-0.1-0.4-0.3-0.6-0.1C11.9,14.4,12.1,14.7,12.3,14.9L12.3,14.9L12.3,14.9z
			 M12.2,13.3C12,13.2,12.1,13,11.8,13C11.9,13.1,11.9,13.3,12.2,13.3L12.2,13.3L12.2,13.3z M12.3,12.6c-0.1-0.1-0.1,0-0.2,0
			C12.1,12.7,12.2,12.6,12.3,12.6L12.3,12.6L12.3,12.6z M12.1,13.1c0.2,0,0.1-0.3-0.1-0.3C12,12.9,12.1,13,12.1,13.1L12.1,13.1
			L12.1,13.1z M12.5,13c-0.1-0.1,0-0.3-0.2-0.2C12.3,12.9,12.3,13,12.5,13L12.5,13L12.5,13z M12.3,13.3c0.1,0,0.1-0.3-0.1-0.2
			C12.3,13.2,12.3,13.2,12.3,13.3L12.3,13.3L12.3,13.3z M12.7,13.7c0-0.1-0.1-0.1-0.2-0.1C12.5,13.6,12.6,13.7,12.7,13.7L12.7,13.7
			L12.7,13.7z M12.6,12.7C12.8,13,12.8,12.5,12.6,12.7L12.6,12.7L12.6,12.7z M12.9,13c0,0-0.1-0.1-0.1-0.1C12.5,13,12.9,13,12.9,13
			L12.9,13L12.9,13z M13.1,13.9c-0.3-0.1-0.1,0.3-0.4,0.3c0,0.1,0,0.1,0.1,0.1c0.2,0-0.1,0.2,0.1,0.3C13,14.4,13,14.1,13.1,13.9
			L13.1,13.9L13.1,13.9z M13.1,13.1c-0.1,0-0.1,0.1-0.2,0.1c0,0.2,0,0.3,0.2,0.3C13.2,13.3,13,13.3,13.1,13.1L13.1,13.1L13.1,13.1z
			 M13.2,13.5c-0.1,0-0.1,0.1-0.2,0.1c0,0.2,0.1,0.1,0.2,0.1C13.2,13.6,13.2,13.5,13.2,13.5L13.2,13.5L13.2,13.5z M13.6,13.2
			c-0.1,0.1-0.1,0.3-0.3,0.2c0.1,0.2,0.7-0.1,0.8-0.3c-0.1,0-0.1,0.1-0.1,0.1c-0.2-0.1-0.3-0.1-0.6-0.3C13.4,13,13.4,13.2,13.6,13.2
			L13.6,13.2L13.6,13.2z M13.9,13.7c0.1-0.3-0.3,0-0.2-0.3C13.5,13.5,13.7,13.8,13.9,13.7L13.9,13.7L13.9,13.7z M14.7,13.8
			c-0.3,0.2-0.5-0.3-0.6-0.4c0.1,0,0-0.1-0.1-0.1c0.1,0.3,0.3,0.8,0.5,0.6c-0.2,0.3,0.2,0.6-0.1,0.8c0.7,0.3,0.4,2.1,1.1,2.1
			c0.4,0,0.3-0.3,0.6-0.5c-0.2-0.3-0.3,0.2-0.4,0.2c0.1-0.4,0.3-0.4,0.5-0.5c0-0.1-0.2,0-0.1,0.1c-0.3-0.1,0.2-0.8,0-1.1
			c0-0.1,0-0.2,0-0.3c0-0.1-0.1,0-0.1,0.1c0.1,0.6-0.2,0.7-0.3,1.1c-0.2,0.1-0.2,0-0.4,0c0.1-0.3-0.2-0.4-0.3-0.6c0-0.1,0-0.3,0-0.4
			c0-0.1-0.1-0.2-0.1-0.2c-0.1-0.5,0.1-1-0.1-1.6c-0.2,0.1,0,0.4,0,0.6c-0.1-0.1-0.2-0.2-0.1-0.4c-0.1-0.1-0.1,0.4-0.2,0.5
			C14.6,13.7,14.5,13.9,14.7,13.8L14.7,13.8L14.7,13.8z M15.3,28.7c-0.2,0.2-0.5,0.3-0.7,0.6C14.7,29.3,15.3,29.1,15.3,28.7
			L15.3,28.7L15.3,28.7z M14.6,13c0.2,0,0.2-0.2,0.1-0.3C14.6,12.7,14.6,12.8,14.6,13L14.6,13L14.6,13z M15.4,13.9
			c0-0.3-0.7-0.3-0.4,0.1c0.1,0,0.2-0.1,0.1-0.2C15.3,13.7,15.1,14,15.4,13.9L15.4,13.9L15.4,13.9z M15.3,14.2
			c0.2,0.3-0.1,0.1-0.2,0.2c-0.1,0.2,0.1,0.3,0.1,0.4c0.2-0.2,0.4,0,0.6,0.1C15.7,14.6,15.7,14.2,15.3,14.2L15.3,14.2L15.3,14.2z
			 M15.7,15.2c-0.2,0.1-0.1-0.2-0.4-0.1c-0.1,0.3,0.1,0.4,0.1,0.6C15.7,15.7,15.7,15.5,15.7,15.2L15.7,15.2L15.7,15.2z M15.8,14.2
			c0-0.2,0-0.3-0.2-0.2C15.6,14,15.6,14.2,15.8,14.2L15.8,14.2L15.8,14.2z M6.9,19.7c0.2,0.1,0,0.6,0.3,0.6l0,0
			C7,20.2,7.3,19.6,6.9,19.7z"/>
		<path id="XMLID_16659_" class="st0" d="M7.1,22.5c-0.2,0,0.1,0.1,0,0.3C7.3,22.7,7.1,22.5,7.1,22.5z"/>
		<path id="XMLID_16658_" class="st0" d="M8.7,26c-0.1-0.2,0,0.1,0,0.2c-0.2,0-0.2-0.2-0.3-0.3c-0.2,0.1,0.1,0.3,0.1,0.5
			c0.1-0.1,0.2-0.1,0.4-0.1C8.8,26.3,8.7,26.2,8.7,26z"/>
		<path id="XMLID_16657_" class="st0" d="M8.5,9.6c0.8,0,1.4-1,2.4-1c0-0.1-0.1-0.1-0.2-0.1c0-0.1,0.1-0.1,0.1-0.1
			c-0.6,0-1.1,0.5-1.8,0.6C9.2,9.3,8.7,9.5,8.5,9.6z"/>
		<path id="XMLID_16656_" class="st0" d="M9.8,15.2c0.1,0.2,0.1-0.3,0.1-0.4C10.1,14.7,9.7,15,9.8,15.2z"/>
		<path id="XMLID_16655_" class="st0" d="M11,16.9c0,0.4,0.1,0.8,0.3,1.1c-0.1,0.2-0.5,0.2-0.6,0.4c0,0.4,0.2,0.6,0.3,0.9
			c0.2-0.2-0.2-0.5-0.1-0.8c0.1-0.3,0.4-0.1,0.6-0.4c-0.1-0.4-0.3-0.8-0.3-1.2c0.8-0.5,1.9,1.8,2.6,0.1C12.9,18.5,11.8,16.3,11,16.9
			z"/>
		<path id="XMLID_16654_" class="st0" d="M11.8,8.3c0.2,0,0.7,0.1,1.1,0.1c0,0,0.4-0.3,0.7-0.2c0.4,0.1,0.4,0.3,0.7,0.5
			c0.1-0.1-0.3-0.4-0.5-0.4c0-0.1,0.1-0.2,0.3-0.1c0.1-0.2-0.6,0.2-0.6-0.1C13.1,8.4,12.5,8.1,11.8,8.3z"/>
		<path id="XMLID_16653_" class="st0" d="M12.1,8.7c0,0.2,0.3,0.1,0.4,0.2C12.7,8.7,12.2,8.7,12.1,8.7z"/>
		<path id="XMLID_16652_" class="st0" d="M12.1,14.5c0.1,0,0-0.2,0.2-0.2C12.3,14.1,12.1,14.3,12.1,14.5z"/>
		<path id="XMLID_16651_" class="st0" d="M12.3,23c0.2,0.3,0.3,0.5,0.6,0.7c0.7,0.1,0.6-0.7,0.9-1.1c0.2,0,0.2,0.1,0.4,0.1
			c-0.1-0.2-0.3-0.2-0.5-0.1c-0.1,0.4-0.3,0.7-0.4,1C12.6,23.7,12.7,23.1,12.3,23z"/>
		<path id="XMLID_16650_" class="st0" d="M12.3,28.2c0.2,0.3,0.7-0.2,0.7-0.5c-0.2,0.1-0.2,0-0.1-0.2C12.7,27.4,12.7,28.3,12.3,28.2
			z"/>
		<path id="XMLID_16649_" class="st0" d="M12.7,28.6c-0.2,0,0,0.2,0.1,0.1c0-0.1,0.1-0.1,0.1-0.1C12.9,28.3,12.7,28.8,12.7,28.6z"/>
		<path id="XMLID_16648_" class="st0" d="M12.9,28.3c0.1,0.1,0.1,0.3,0.3,0.2c-0.1-0.1,0-0.2,0.1-0.4C13.4,27.9,13.1,28.3,12.9,28.3
			z"/>
		<path id="XMLID_16647_" class="st0" d="M13.1,7.8c0,0.1,0.2,0,0.2,0.1C13.5,7.9,13.3,7.7,13.1,7.8z"/>
		<path id="XMLID_16646_" class="st0" d="M13.4,27.8c0-0.3-0.2,0.2,0,0.1C13.5,28.1,13.4,27.9,13.4,27.8z"/>
		<path id="XMLID_16645_" class="st0" d="M14.1,27.8C14.1,27.8,14,27.7,14.1,27.8C13.8,28.3,14.3,27.4,14.1,27.8z"/>
		<path id="XMLID_16644_" class="st0" d="M14.1,7.8c0.2,0.2,0.5,0.3,0.6,0.6C14.8,8.2,14.4,7.9,14.1,7.8z"/>
		<path id="XMLID_16643_" class="st0" d="M14.4,27.6"/>
		<path id="XMLID_16642_" class="st0" d="M14.8,27.8"/>
		<path id="XMLID_16641_" class="st0" d="M14.9,20.2c0.2,0.2,0.4-0.3,0.6-0.2C15.4,19.8,15.1,20.2,14.9,20.2z"/>
		<path id="XMLID_16640_" class="st0" d="M15.9,21.7c-0.2,0.7-0.5,1.3-0.9,2C15.5,23.2,16,22.4,15.9,21.7z"/>
		<path id="XMLID_16639_" class="st0" d="M15.2,21.2c0.4-0.1,0.9-0.7,1-1.3C15.8,20.3,15.7,21,15.2,21.2z"/>
		<path id="XMLID_16638_" class="st0" d="M15.8,27.4c0.2,0,0.1-0.3,0.2-0.4C16,26.9,15.8,27.2,15.8,27.4z"/>
		<path id="XMLID_16637_" class="st0" d="M16.1,26.6C16.1,26.6,16.1,26.6,16.1,26.6C15.9,27.1,16.4,26.2,16.1,26.6z"/>
		<path id="XMLID_16636_" class="st0" d="M16.3,11.1c0.3-0.1,0.2-0.3,0.4-0.4c0.1,0,0.1,0.1,0.1,0.2c0.4-0.3,1.5-0.5,1.9-0.1
			C18.4,10.1,16.2,10.3,16.3,11.1z"/>
		<path id="XMLID_16635_" class="st0" d="M17.6,15.5c-0.2,0-0.2,0.2-0.2-0.1c-0.1,0.2-0.1,0.7-0.1,1.4c0,0.6-0.1,1.3,0,1.5
			c0.1,0.1,0-0.5,0.2-0.6c-0.2-0.4-0.1-1.2,0-1.8c0.1,0.2,0.1,0.7,0.1,1C17.7,16.6,17.7,15.8,17.6,15.5z"/>
		<path id="XMLID_16634_" class="st0" d="M18,26.3c0.3-0.4-0.6-1.8,0.1-2.2c0-0.3-0.2-0.1-0.4-0.1c0,0.7-0.2,1.3-0.3,1.8
			c0.3,0.1,0.2-0.4,0.3-0.5c0.2,1,0.2,2,0.8,2.4c0-0.2-0.1-0.5-0.2-0.7c0-0.1-0.1,0-0.1-0.1C18.2,26.7,18.2,26.2,18,26.3z"/>
		<path id="XMLID_16633_" class="st0" d="M18.3,18.8c-0.1,0-0.1,0.1-0.1,0.2c-0.3-0.8-0.3-1.8-0.3-2.9c0.3-0.2,0.1,0.5,0.2,0.2
			c0,0.3,0.1,0.8,0.2,1.3c0.2-0.1,0-0.2,0-0.4c0.3,0.1,0.5,0.9,0.3,1.1c-0.1-0.1-0.1-0.4-0.2-0.6c0,0.7,0.4,1.5,0.5,2.3
			c0.1,0.1,0,0.2,0.2,0.1c-0.2,0.2,0,0.3,0,0.5c0.4-0.3,0-0.5-0.1-0.8c-0.1-0.2,0-0.4-0.1-0.6c0,0-0.1,0.2-0.1,0.2
			c-0.2-0.1-0.1-0.8-0.1-1.1c0.2,0.7,0.5,1.3,1,1.7c-0.2-0.5-0.5-0.8-0.6-1.4c-0.1,0-0.1,0-0.2,0c-0.4-1.4-1-3-0.7-4.9
			c-0.3,0.6-0.1,1.8-0.1,2.5c-0.3-0.4-0.1-0.8-0.3-1.2c-0.2,0.5-0.1,1.5-0.1,2.1c0,0.1,0,0.1-0.1,0.1c0,0.1,0.1,0.1,0.2,0.1
			c-0.1,1.4,0.4,1.9,0.5,3.1c0.1,0,0-0.9-0.1-1.1C18.2,19.1,18.3,19,18.3,18.8z"/>
		<path id="XMLID_16632_" class="st0" d="M17.8,19.9c0.2-0.2-0.1-0.7,0.1-0.7C17.6,19,17.7,19.7,17.8,19.9z"/>
		<path id="XMLID_16631_" class="st0" d="M18,20.8"/>
		<path id="XMLID_16630_" class="st0" d="M18.4,20.6c0.1,0.7,0,1.1,0.1,1.9c0.2-0.4,0.1,0.3,0.4,0.3c-0.1-0.4-0.5-1.2-0.2-1.5
			C18.5,21.1,18.7,20.6,18.4,20.6z"/>
		<path id="XMLID_16594_" class="st0" d="M18.9,27.3c0.4,0.2,0.6,0.8,1.1,0.7c-0.4-0.3-0.9-0.6-1.1-1.1c0.4,0.3,0.9,1.1,1.3,0.9
			c-0.3-0.2-0.8-0.4-0.6-0.7c0.2,0.4,0.7,0.7,1.1,0.9c-0.1,0-0.1,0-0.1,0.1c0.1,0,0.2,0,0.3-0.1c-0.4-0.3-0.9-0.5-1.2-0.9
			c0.3,0,0.3,0.4,0.6,0.1c0.2,0.5,0.6,0.6,1.1,0.9c0.2-0.3,0.4-0.1,0.6-0.3c-0.1-0.2-0.6-0.4-0.4-0.6c0.1,0.2,0.3,0.4,0.6,0.5
			c0-0.1-0.3-0.5-0.1-0.3c0.1,0.2,0.6,0.2,0.4,0.4c-0.1-0.3-0.5,0.2-0.8,0.3c0.2-0.1,0.1,0.2,0.3,0.2c0.6-0.4,1.3-0.5,1.4-1.1
			c0.3,0.4,0.8-0.6,1.1-0.5c-0.4,0.4-0.9,0.6-1.1,1.1c0.5-0.1,0.6-0.2,1-0.5c-0.1,0-0.1,0-0.1-0.1c0.4,0.3,0.5-0.6,0.9-0.4
			c-0.3,0.2-0.8,0.6-0.9,0.8c1-0.5,1.8-1.7,2.5-2.3c0,0-0.1,0.1,0,0.1c0.2-0.2,0.4-0.8,0.6-0.5c-0.2-0.3,0.1-0.2,0.1-0.5
			c-0.1,0.1-0.1,0-0.3,0c0.2,0.3-0.4,0.3-0.4,0.7c-0.4-0.2-0.4,0.6-0.8,0.4c1-0.7,1.2-1.8,1.8-2.9c0.1,0.2,0.2-0.2,0.3-0.2
			c-0.1,0-0.2-0.1-0.2-0.1c0.3-0.2,0.1-0.8,0.2-1.1c0,0.3,0.1,0.1,0.2,0.3c0.2-0.2-0.1-0.5,0-0.6c0.1,0.1,0.4-0.5,0.1-0.5
			c0,0.1-0.1,0.2-0.1,0.2c0-0.2,0.1-0.1,0-0.3c0.2-0.1,0.3,0.1,0.4-0.1c0-0.2,0.2-0.4-0.1-0.4c0,0.2,0,0.6-0.1,0.4
			c0.2-0.1-0.1,0-0.1,0.1c0.1-0.4,0.4-0.6,0.1-0.9c-0.1,0.3,0.2,0.5-0.1,0.6c0-0.1,0.1-0.4-0.1-0.4c0,0.8-0.5,1.3-0.6,1.8
			c-0.3-0.3,0.4-0.7,0.3-1.3c0.1,0,0.1-0.2,0.2-0.3c-0.1-0.6,0-1.2-0.2-1.7c0.2,0.1,0.4,0.6,0.4,0.7c0-0.1-0.1-0.2-0.1-0.2
			c0.1,0.3-0.1,0.4,0.1,0.5c0-0.4,0,0.1,0.1,0.1c0-0.5,0.1-1.2,0.1-1.8c0-0.4-0.1-0.9-0.4-1c0.1,0.1,0.2,1.9,0.1,0.9
			c-0.1-0.4-0.2-1.1-0.1-1.4c-0.1-0.1-0.2-0.4-0.1-0.4c0,0.1,0,0.1,0.1,0.1c0-0.5-0.4-0.6-0.4-1.1c-0.1,0-0.1,0-0.2,0
			c-0.2-0.9-0.5-0.7-0.8-1.4c-0.1,0.2-0.3-0.2-0.4,0c0.2-0.1,0.1,0.2,0.3,0.1c0.1,0.7,0.6,0.8,0.7,1.4c-0.5-0.5-0.8-1.3-1.3-1.8
			c0,0.3,0.1,0.5,0.2,0.6c-0.4-0.2-0.2-0.7-0.6-0.8c-0.1,0.3,0.3,0.6,0,0.6c-0.2-0.1,0.1-0.5-0.4-0.6c0,0.1,0.2,0.1,0.1,0.2
			c-0.4,0-0.1-0.4-0.4-0.4c0.1,0.3,0.4,0.6,0.2,0.9c0.1-0.4-0.4-0.3-0.5-0.1c0.9,0.3,0.6,1.9-0.1,2.1c-0.1,0.8,0.8,0.4,1.2,0.5
			c0.5,0.1,0.8,0.3,0.9,0.9c-0.1,0.2-0.4,0.3-0.6,0.5c0.3,0.4,0.7,0.6,0.9,1.2c-0.6,0.7-1.7-0.3-2.4,0.4c-0.2,0.6,0.4,1.1,0.8,1.4
			c0.6,0.5,1.4,0.5,1.9,1.2c0.2,0.2,0.1,0.6,0.5,0.8c0,0.5-0.5,0.9-0.8,1.3c0,0.1,0.1,0.1,0.1,0.1c-0.3,0-0.3,0.2-0.4,0.3
			c0.1,0.2-0.2,1-0.4,0.9c0.1,0,0.1-0.2,0.1-0.3c-0.6,0.1-0.8-0.2-1-0.5c0.3-0.1,0-0.3,0.1-0.4c0.5-0.1,0.6,0.5,0.9,0.4
			c-0.1-0.7-0.8-0.5-1.2-0.7c0.3,0,0.2-0.3,0.4-0.2c0.4,0.1,0.6,0.3,0.9,0.4c0-0.3,0.3-0.2,0.2-0.5c-0.6,0-0.8-0.4-1.4-0.4
			c-1.1,0.7,0.6,2.8-1.2,2.7c-0.3,0-0.4-0.3-0.9-0.3c-0.2,0.2-0.1,0.7-0.3,0.9c0.1,0.1,0.4,0.4,0.3,0.5c-0.1-0.1-0.2-0.2-0.3-0.4
			c-0.4,0.4-0.8,0.3-1.4,0.1c-0.2-0.2-0.2-0.5-0.5-0.5c-0.2,0.2-0.4,0-0.6,0.1c-0.8-0.8-1.1-2-1.2-3.5c0.3,1.2,0.5,2.5,1.2,3.2
			c0.3,0.1,0.4-0.1,0.6-0.1c0.1,0.6,1.3,1,1.7,0.4c0.1-0.4,0-0.9,0.4-1.1c0.7,0.1,1.4,0.6,1.7,0c0.2-0.3,0-0.9-0.1-1.1
			c-0.1-0.5,0.1-0.8,0.3-1.3c0.8-0.1,1.2,0.3,1.9,0.4c0.2,0,0.2-0.3,0.3-0.4c0,0.3,0.1,0.2,0.3,0.1c0.1-0.9-0.5-1.1-0.8-1.6
			c-1-0.5-2.5-1-2.2-2.6c0.7-0.5,2,0.5,2.4-0.4c-0.2-0.4-0.8-0.5-0.8-1.1c0.3-0.1,0.4-0.2,0.6-0.4c-0.2-1-1.5-0.4-2.1-0.8
			c-0.2-0.7,0.7-1.2,0.6-1.9c-0.1-0.6-0.7-1-1.5-0.7c-0.4,0.6-0.7,1.6-1.6,1.3c-0.1-0.3-0.1-0.8-0.4-0.9c0,0.2-0.3,0.2-0.4,0.4
			c-0.1,0.5-0.1,0.7,0,1c0,0.3,0,0.5,0.1,0.8c0,0.1,0.2,0.2,0.2,0.4c0.2,0.8,0.1,1.7-0.9,1.5c-0.4-0.1-0.8-0.6-0.9-1
			c0-0.1-0.2-0.4-0.2-0.6c-0.3-1.3,0-2.8,0.5-3.6c0.3-0.3,0.9-1,1.7-1.3c0.8,0.1,1.7-0.8,3.4-0.1c1.5,0.4,3.6,2.9,3.9,4.4
			c0.6,1.1,0.6,2.2,0.4,4.3c0.1,0.9-0.2,1.3-0.4,1.9c0,0.4-0.9,2.5-1.2,2.9c-0.7,1.1-2,2.7-3.4,3.3C22.1,29.1,19.7,28.6,18.9,27.3
			L18.9,27.3z M26.7,23.2c-0.5,0-0.5,0.3-0.8,0.5c0,0.1,0.1,0.2,0.1,0.3C26.4,23.8,26.5,23.4,26.7,23.2L26.7,23.2L26.7,23.2z
			 M24.4,12.3c0.1,0.2,0.2,0.3,0.4,0.4C24.8,12.5,24.7,12.3,24.4,12.3L24.4,12.3L24.4,12.3z M27.4,23.2c-0.3,0.3-0.4,0.5-0.5,0.9
			C27,24,27,24,27,24c0-0.2,0.3,0,0.4-0.1c0.1,0.2,0-0.2-0.2-0.1C27.2,23.5,27.5,23.5,27.4,23.2L27.4,23.2L27.4,23.2z M27.9,23
			c-0.3-0.1-0.4,0.6-0.6,0.8C27.6,23.6,27.6,23.2,27.9,23L27.9,23L27.9,23z M26.8,25.2c-0.2-0.1-0.4,0.3-0.5,0.5
			C26.6,25.7,26.5,25.3,26.8,25.2L26.8,25.2L26.8,25.2z M25.8,26c-0.2,0.3-0.4,0.6-0.8,0.8c0.2,0.3,0.4-0.2,0.6-0.4
			c0.2-0.2,0.5-0.2,0.4-0.4c-0.1,0-0.1,0.1-0.1,0.1C25.8,26.2,25.8,26.1,25.8,26L25.8,26L25.8,26z M21.9,28.3
			c0.6,0.2,1.2-0.2,1.6-0.5c-0.2-0.1-0.6,0.3-0.9,0.4c0-0.3,0.5-0.1,0.4-0.4c-0.3-0.1-0.5,0.4-0.9,0.4
			C22.1,28.3,22.1,28.3,21.9,28.3L21.9,28.3L21.9,28.3z M24.6,27.3c-0.5,0.3-1.1,0.6-1.6,0.9c0.1,0.2,0.3-0.1,0.6,0
			c0-0.1,0.1-0.1,0.1-0.2C24.2,27.9,24.5,27.6,24.6,27.3L24.6,27.3L24.6,27.3z M20.1,27.2c-0.2,0.1,0.1,0.3,0.2,0.3
			C20.3,27.2,20,27.4,20.1,27.2L20.1,27.2L20.1,27.2z M19.4,13.3c-0.2,0-0.1,0.3-0.2,0.3C19.2,13.8,19.4,13.4,19.4,13.3L19.4,13.3
			L19.4,13.3z M19.4,15.8c-0.1-0.1-0.2-0.4-0.2-0.6c-0.1,1,0.1,2.3,1.2,2.4c0.4-0.4,0.3-1.1,0-1.6c-0.3-1.3,0.1-2.3,0.1-3.3
			c-0.1,0-0.1,0.3-0.3,0.2c0,0.9-0.1,1.4-0.1,2.1c-0.3-0.3,0.1-1.1-0.1-1.7c-0.1,0.7-0.1,1.2-0.1,1.9c-0.1,0-0.1-0.1-0.2-0.1
			c0.2,0.2,0.3,0.4,0.2,0.8c-0.2-0.1,0-0.5-0.1-0.6c-0.1,0.2,0,0.3,0,0.6c-0.1-0.1-0.2-0.2-0.1-0.4C19.4,15.3,19.4,15.7,19.4,15.8
			L19.4,15.8L19.4,15.8z M19.4,14.8c0.2-0.1,0-0.3,0-0.4C19.1,14.5,19.4,14.7,19.4,14.8L19.4,14.8L19.4,14.8z M19.7,14
			c-0.1,0-0.1,0.1-0.1,0.1c0,0,0,0.1,0,0.1C19.7,14.2,19.7,14.1,19.7,14L19.7,14L19.7,14z M19.7,14.2c-0.3,0,0,0.7-0.1,0.7
			C19.8,15.1,19.6,14.5,19.7,14.2L19.7,14.2L19.7,14.2z M19.8,13.5c-0.1-0.3-0.2,0.1-0.1,0.3C19.8,13.9,19.6,13.5,19.8,13.5
			L19.8,13.5L19.8,13.5z M20.6,13.5c0.1,0.2-0.1,0.3-0.1,0.4c0.2,0,0.1-0.4,0.4-0.3c-0.1-0.3-0.1-0.4-0.1-0.8c-0.3,0,0,0.5-0.3,0.4
			c0,0.2,0.2,0.1,0.2,0.2C20.7,13.6,20.7,13.5,20.6,13.5L20.6,13.5L20.6,13.5z M21.1,12.7c-0.1,0.4-0.2,0.7,0,0.9
			C21.3,13.6,21.1,13,21.1,12.7L21.1,12.7L21.1,12.7z M21.6,12.7c-0.5,0.4-0.1,1.3,0,1.9c1,0,0.9-1.2,1.6-1.4c0-0.1-0.1,0-0.1-0.1
			c0.4-0.3,0.9,0.1,1.4,0.1c-0.1-0.7-0.9-0.4-1.4-0.5c0,0.1,0,0.1,0,0.2c-0.2-0.4-0.7-0.2-1.1-0.4c-0.1,0.2-0.3,0.3-0.3,0.6
			c0.2-0.1,0.5-0.1,0.6-0.4c0.3,0,0.1,0.5,0.1,0.8c-0.3,0.1-0.3,0.6-0.6,0.6c-0.6-0.3-0.3-1.9,0.4-1.9c-0.3-0.4-0.4,0.2-0.8,0.1
			C21.5,12.5,21.3,12.6,21.6,12.7L21.6,12.7L21.6,12.7z M22.3,13.1c-0.4-0.1-0.2,0.4-0.6,0.4c0.1,0.1,0.1,0.2,0.1,0.4
			C22,13.7,22.2,13.5,22.3,13.1L22.3,13.1L22.3,13.1z M22.6,12.5c-0.1-0.1,0-0.3-0.2-0.2C22.4,12.3,22.4,12.5,22.6,12.5L22.6,12.5
			L22.6,12.5z M23.7,12.2c0-0.2-0.2-0.2-0.4-0.2C23.3,12.2,23.5,12.2,23.7,12.2L23.7,12.2L23.7,12.2z M23.5,12.3c0,0-0.1,0-0.1,0
			c0,0.1,0,0.1,0,0.2c0,0,0.1,0,0.1,0C23.5,12.5,23.5,12.4,23.5,12.3L23.5,12.3L23.5,12.3z M23.9,12.3c-0.2,0.1-0.1,0.1-0.4,0
			c0,0.3,0.2,0.2,0.4,0.2C24,12.5,23.9,12.4,23.9,12.3L23.9,12.3L23.9,12.3z M24.5,11.6c0-0.2-0.4-0.1-0.6-0.1
			C24,11.7,24.2,11.4,24.5,11.6L24.5,11.6L24.5,11.6z M24.5,12.2C24.4,12,24.1,12,24,11.9C23.8,12,24.2,12.3,24.5,12.2L24.5,12.2
			L24.5,12.2z M25.1,12.6c0-0.1-0.1-0.1-0.1-0.2C24.8,12.4,25,12.7,25.1,12.6L25.1,12.6L25.1,12.6z M25.7,12.9
			c0.1-0.1-0.3-0.4-0.5-0.5C25.3,12.6,25.5,12.7,25.7,12.9L25.7,12.9L25.7,12.9z M26.3,25.8c-0.1-0.1-0.1,0-0.2,0
			C26.1,26,26.2,25.8,26.3,25.8L26.3,25.8L26.3,25.8z M27,24.3C27.3,24.4,27.4,23.9,27,24.3L27,24.3L27,24.3z M28.3,16.9
			c0-0.9-0.6-2.2-1.1-3c0,0.6,0.6,1.1,0.8,1.7c0,0.1-0.1,0.2-0.1,0.2c0,0.1,0.1,0.1,0.1,0.2C28.1,16.3,28.1,16.7,28.3,16.9
			L28.3,16.9L28.3,16.9z M27.8,16.2C28,16.1,27.7,15.8,27.8,16.2L27.8,16.2L27.8,16.2z M28.4,17.8c0.1,1-0.1,1.2-0.1,1.9
			c0.1-0.1,0-0.3,0.1-0.4c0.3,0.1,0.1,0.6,0,0.8c0.2,0.1,0.3-0.8,0.3-1.4c0-0.4-0.2-0.8-0.1-1.1c-0.2,0-0.1,0-0.4,0
			C28.3,17.7,28.3,17.8,28.4,17.8L28.4,17.8L28.4,17.8z M28.2,20.9c0.1,0.2,0.1-0.4,0.3-0.4C28.3,20.2,28.3,20.8,28.2,20.9
			L28.2,20.9L28.2,20.9z M25,24.1c0,0.2,0.2,0.3,0.4,0.4l0,0C25.4,24.2,25.3,24.1,25,24.1z"/>
		<path id="XMLID_16593_" class="st0" d="M21.4,27.7c-0.2-0.4-0.7-0.4-0.9-0.9c-0.3,0,0.1,0.3,0.3,0.4
			C20.9,27.4,21.2,27.7,21.4,27.7z"/>
		<path id="XMLID_16592_" class="st0" d="M18.9,23c-0.1,0.2,0.2,0.7,0.3,0.9c0,0.1,0.1,0.1,0.1,0.1C19.1,23.7,19,23.3,18.9,23z"/>
		<path id="XMLID_16591_" class="st0" d="M19.4,26.7c-0.2,0,0.2,0.2-0.1,0.2c0,0.1,0.1,0,0.2,0C19.5,26.8,19.4,26.8,19.4,26.7z"/>
		<path id="XMLID_16590_" class="st0" d="M19.6,26.4"/>
		<path id="XMLID_16589_" class="st0" d="M20.2,19.3c0.3-0.1,0.3-0.3,0.5-0.5c0.1,0,0.1,0.1,0.1,0.2c0.3-0.1,0.8,0.4,0.9,0.5
			c0,0.1,0.1,0,0.1,0c0.1,0.1,0,0.4,0.1,0.5c0.2,0.2-0.2,0.4-0.7,0.6c-0.1,0-0.2-0.4-0.1-0.4c-0.2,0.1-0.2-0.3-0.5-0.4
			c0.3,0.3,0.5,0.8,0.3,1.3c0.2,0.3,0.6,0.5,0.4,0.9c0.1-0.2,0.2-0.1,0.2,0.1c-0.2,0.2-0.5,0.2-0.9,0.3c-0.1-0.2,0,0.2,0.2,0.1
			c0.1,0.5-0.2,0.9-0.6,0.6c-0.2,0.1,0.2,0.3,0.4,0.2c0.1-0.1,0.1-0.3,0.3-0.3c0-0.1,0-0.3,0-0.4c0.2-0.1,0.4-0.2,0.6-0.3
			c-0.2-0.5,0-0.9-0.1-1.4c-0.1,0.1,0.1,0.3-0.1,0.5c-0.2-0.1-0.1-0.4-0.4-0.4c0-0.2,0.2-0.2,0.2-0.4c0.1,0,0.1,0.1,0.1,0.1
			c0.2,0,0-0.2-0.1-0.2c0.1-0.2,0.4-0.1,0.6-0.2c0.7-0.8-0.4-1.5-0.9-2c-0.1,0,0,0.1,0,0.1c-0.1,0-0.1-0.1-0.2-0.1
			c0-0.2,0.2-0.2,0.3-0.3c-0.5-0.2-0.5,0.7-0.9,0.8c-0.1,0-0.1-0.3-0.3-0.2c0.1,0.2,0.3,0.3,0.4,0.6C20.5,19.5,20.3,19.3,20.2,19.3z
			"/>
		<path id="XMLID_16588_" class="st0" d="M21.6,18c0.1,0.3,0.3-0.3,0.1-0.3c0.2-0.2,0.3-0.4,0.4-0.8c0.2-0.3,0.6,0,0.9,0.1
			c-0.2,0.4-0.6,0.8-0.9,1.2c0.1,0.4,0.8,0.3,0.8,0.9c0.2,0,0.1-0.1,0.2-0.1c-0.1-0.4-0.7-0.3-0.9-0.7c0.2-0.6,0.8-0.7,1-1.3
			c-0.5-0.3-0.9-0.2-1.2-0.6c0.1,0.3-0.1,0.3-0.3,0.4c0.3,0.3-0.2,1-0.6,1.1c0.1,0.2,0.3-0.1,0.4-0.2c0.1,0,0.1,0.1,0.1,0.1
			C21.6,17.8,21.7,17.9,21.6,18z"/>
		<path id="XMLID_16587_" class="st0" d="M21.8,9.1c0.1,0.1,0.6,0.1,0.5-0.1C22.1,9,22,9.1,21.8,9.1z"/>
		<path id="XMLID_16586_" class="st0" d="M22.5,20c0.3-0.2,0.3-0.6,0.5-0.9C22.8,19.3,22.7,19.7,22.5,20z"/>
		<path id="XMLID_16585_" class="st0" d="M23.1,20.8"/>
		<path id="XMLID_16584_" class="st0" d="M23.9,26c0.2,0.3,0.2-0.3,0.4-0.3C24.1,25.4,24,25.9,23.9,26z"/>
		<path id="XMLID_16583_" class="st0" d="M24.2,26.2c-0.1,0-0.1,0.1-0.2,0.1c0.1,0.1,0.2,0,0.4,0c0.1,0-0.1-0.1-0.1,0
			C24.2,26.3,24.2,26.2,24.2,26.2z"/>
		<path id="XMLID_16582_" class="st0" d="M24.3,25.5c0.3,0.1,0.6-0.4,0.6-0.8C24.7,24.9,24.6,25.3,24.3,25.5z"/>
		<path id="XMLID_16581_" class="st0" d="M24.4,26.6c0.2,0.1,0.5-0.2,0.6-0.4c0.4,0,0.5-0.1,0.6-0.4c-0.2,0.1-0.4,0.3-0.3-0.1
			c-0.2,0-0.2,0.2-0.1,0.4C24.8,26,24.7,26.6,24.4,26.6z"/>
		<path id="XMLID_16577_" class="st0" d="M24.6,15.7c-0.2-1.3,1.3-1.6,1.7-1.3C26.1,14.9,25.5,16,24.6,15.7L24.6,15.7z M25.5,15.3
			c-0.1-0.3-0.4,0-0.6,0.1c0,0.1,0,0.1,0,0.2C25.2,15.6,25.3,15.4,25.5,15.3L25.5,15.3L25.5,15.3z M25.1,15.2c0.4-0.2,0.6,0,0.9-0.4
			c0.1-0.2-0.1-0.1-0.1-0.3l0,0C25.5,14.6,25.1,14.7,25.1,15.2z"/>
		<path id="XMLID_16576_" class="st0" d="M24.6,25.5c0.3,0.2,0.3-0.5,0.6-0.5C25,24.7,24.8,25.5,24.6,25.5z"/>
		<path id="XMLID_16575_" class="st0" d="M24.8,26.7c0.1-0.1,0.2-0.2,0.3-0.3C25.1,26.3,24.8,26.5,24.8,26.7z"/>
		<path id="XMLID_16574_" class="st0" d="M25.6,25.2c-0.1,0.1-0.2,0.2-0.3,0.4c0.1,0,0.2,0,0.2,0.1C25.6,25.6,25.5,25.4,25.6,25.2z"
			/>
		<path id="XMLID_16570_" class="st0" d="M26.4,15.6c0.1,0.2,0.3,0.3,0.4,0.4c-0.2,0,0,0.3,0.1,0.3c0.4-0.5,0-1,0.1-1.5
			c0,0.2,0.1-0.1,0.2-0.1c0,0.2-0.1,0.2-0.1,0.4c0.2,0.3,0.7,1.2,0.6,1.4c-0.2,0,0.1-0.4-0.1-0.4c-0.2,0.3,0.1,0.5,0.2,0.7
			c-0.3,0.2,0,0.6,0.1,0.8c-0.1,0-0.1,0.1-0.1,0.1c-0.4-0.2-0.4,0.3-0.6,0.5c0.1-0.6,0.7-1.2,0.3-1.6c0,0.2,0,0.5-0.2,0.6
			c0.1-0.4,0.2-0.7,0-1c0,0.2-0.2,0.6-0.3,0.5c0.1-0.1,0.1-0.4-0.1-0.4C26.8,16,26.2,15.6,26.4,15.6L26.4,15.6z M27.6,17.5
			c-0.1-0.1-0.1-0.2-0.1-0.4c-0.3,0,0,0.2-0.1,0.4C27.4,17.5,27.5,17.5,27.6,17.5L27.6,17.5L27.6,17.5z M27.2,16.1L27.2,16.1
			C27.4,15.8,27,15.5,27.2,16.1z"/>
		<path id="XMLID_16569_" class="st0" d="M27.5,16"/>
		<path id="XMLID_16568_" class="st0" d="M26.4,17.3"/>
		<path id="XMLID_16567_" class="st0" d="M26.5,15.1"/>
		<path id="XMLID_16566_" class="st0" d="M26.9,21.2c0.1,0,0-0.2,0.2-0.2C27.1,20.9,26.8,21.1,26.9,21.2z"/>
		<path id="XMLID_16565_" class="st0" d="M27.2,21.4"/>
		<path id="XMLID_16564_" class="st0" d="M27.6,17.8c-0.4-0.2-0.1,0.6-0.4,0.7c0.2,0.2,0.3,0.5,0.3,0.9c0.2-0.3-0.2-0.9-0.1-1.6
			C27.5,17.8,27.6,17.8,27.6,17.8z"/>
		<path id="XMLID_16563_" class="st0" d="M17.1,13.6c-0.1,0.4,0.1,1.2,0.1,1.7c0.2-0.1,0.2,0.1,0.4,0.1c-0.1-0.3,0-0.4-0.1-0.9
			c-0.3-0.1,0.1,0.3-0.1,0.4C17.2,14.5,17.2,14,17.1,13.6z"/>
	</g>
	<g id="XMLID_16560_">
		<path id="XMLID_16561_" class="st0" d="M49.8,4.8L49,3.9c0,0-0.1,0.1-0.3,0.3c-0.2,0.2-0.4,0.6-0.5,1c-0.1,0.5-0.1,1-0.1,1.5
			c0,0.5,0,0.9-0.2,1.3c-0.2,0.4-0.5,0.8-0.8,1.2C47,9.5,46.9,9.7,46.8,10c0,0.2,0,0.3,0,0.5c0,0.2,0.1,0.3,0.2,0.4
			c0.2,0.2,0.4,0.3,0.5,0.4c0.2,0.1,0.3,0.1,0.4,0.2c0.1,0,0.2,0.1,0.3,0.1c0.1,0,0.1,0,0.1,0s0,0-0.1,0c-0.1,0-0.1-0.1-0.3-0.1
			c-0.1-0.1-0.2-0.1-0.4-0.2c-0.1-0.1-0.3-0.2-0.4-0.4c-0.1-0.1-0.1-0.2-0.1-0.3c0-0.1,0-0.3,0-0.4c0.1-0.2,0.2-0.4,0.4-0.6
			c0.3-0.4,0.7-0.7,1-1.2c0.3-0.5,0.4-1.1,0.4-1.6c0-0.5,0.1-0.9,0.2-1.2C49.4,5,49.8,4.8,49.8,4.8z"/>
	</g>
	<g id="XMLID_16558_">
		<path id="XMLID_16559_" class="st0" d="M45.4,8.3l1.1-0.2c0,0,0-0.1,0-0.2c0-0.1,0-0.3,0-0.6c0-0.2,0.1-0.5,0.3-0.8
			c0.2-0.3,0.4-0.6,0.6-1c0.2-0.3,0.4-0.8,0.5-1.2c0-0.2,0-0.4,0-0.6c0-0.2-0.1-0.4-0.2-0.5c-0.1-0.3-0.3-0.5-0.4-0.7
			C47,2.4,47,2.4,47,2.4s0.1,0.1,0.1,0.2c0.1,0.2,0.2,0.4,0.3,0.7c0,0.1,0.1,0.3,0.1,0.5c0,0.2,0,0.4-0.1,0.5
			c-0.1,0.4-0.3,0.7-0.6,1c-0.3,0.3-0.5,0.6-0.8,0.9c-0.2,0.3-0.4,0.7-0.5,1c-0.1,0.3-0.1,0.6-0.2,0.8C45.4,8.2,45.4,8.3,45.4,8.3z"
			/>
	</g>
	<g id="XMLID_16556_">
		<path id="XMLID_16557_" class="st0" d="M44.2,11.3l0.9-0.6c0,0,0,0-0.1-0.1c0-0.1-0.1-0.1-0.2-0.2c-0.2-0.2-0.5-0.4-1-0.6
			C43,9.5,42,9.6,41.1,9.5c-0.4,0-0.8-0.2-1.1-0.4c-0.2-0.3-0.4-0.6-0.5-0.9c-0.1-0.3-0.1-0.6-0.1-0.8c0-0.2,0-0.3,0-0.3
			s0,0.1,0,0.3c0,0.2,0,0.5,0,0.9c0,0.4,0.1,0.8,0.4,1.2C40,9.7,40.5,10,41,10.1c0.5,0.1,1,0.2,1.5,0.3c0.4,0.1,0.8,0.2,1.1,0.3
			c0.3,0.1,0.4,0.3,0.5,0.4C44.1,11.2,44.1,11.2,44.2,11.3C44.2,11.3,44.2,11.3,44.2,11.3z"/>
	</g>
	<g id="XMLID_16554_">
		<path id="XMLID_16555_" class="st0" d="M46.5,13.4l0.2-1.1c0,0-0.1,0-0.3,0c-0.2,0-0.6,0-1,0c-0.2,0-0.4,0.1-0.7,0.2
			c-0.2,0.1-0.4,0.3-0.6,0.4c-0.2,0.1-0.3,0.3-0.5,0.4c-0.2,0.1-0.4,0.2-0.6,0.4c-0.4,0.2-0.8,0.5-1.1,0.6c-0.4,0.1-0.7,0.2-1.1,0.3
			c-0.3,0-0.6,0.1-0.8,0.1c-0.2,0-0.3,0-0.3,0s0.1,0,0.3,0c0.2,0,0.5,0,0.8,0.1c0.3,0,0.7,0,1.2-0.1c0.4-0.1,0.9-0.3,1.3-0.4
			c0.2-0.1,0.4-0.2,0.6-0.3c0.2-0.1,0.4-0.2,0.6-0.3c0.4-0.2,0.7-0.3,1-0.3c0.3,0,0.5,0.1,0.7,0.1C46.4,13.4,46.5,13.4,46.5,13.4z"
			/>
	</g>
	<g id="XMLID_16552_">
		<path id="XMLID_16553_" class="st0" d="M49.2,12.7l0.4,1.1c0,0,0,0,0.1,0c0.1,0,0.2,0,0.5,0.1c0.5,0.2,1.1,0.6,1.7,1
			c0.6,0.4,1.3,0.9,1.8,1.2c0.3,0.2,0.5,0.3,0.6,0.4c0.1,0,0.2,0.1,0.2,0.1c0,0,0.1,0,0.1,0s0,0-0.1,0c0,0-0.1-0.1-0.2-0.1
			c-0.2-0.1-0.4-0.3-0.6-0.5c-0.4-0.4-1-1-1.5-1.5c-0.6-0.6-1.1-1.1-1.7-1.4c-0.3-0.2-0.6-0.3-0.8-0.3c-0.1,0-0.2,0-0.3,0
			C49.3,12.7,49.2,12.7,49.2,12.7z"/>
	</g>
	<g id="XMLID_16550_">
		<path id="XMLID_16551_" class="st0" d="M50.3,11.2l1.1,0.4c0,0,0.1-0.4,0.4-0.6c0.2-0.1,0.5-0.2,0.9-0.3c0.2-0.1,0.5-0.2,0.7-0.3
			c0.2-0.2,0.4-0.4,0.6-0.6c0.2-0.2,0.3-0.5,0.4-0.7c0.1-0.2,0.2-0.4,0.2-0.6c0.1-0.4,0.3-0.6,0.5-0.7c0.2-0.1,0.5-0.1,0.7-0.1
			c0.2,0,0.3,0,0.3,0s-0.1,0-0.3-0.1c-0.2,0-0.4-0.1-0.7,0c-0.1,0-0.3,0.1-0.4,0.2c-0.1,0.1-0.2,0.3-0.3,0.5
			c-0.2,0.4-0.4,0.8-0.7,1.1c-0.2,0.1-0.3,0.3-0.5,0.4c-0.2,0.1-0.4,0.1-0.6,0.1c-0.4,0-0.8,0.1-1.3,0.3c-0.4,0.2-0.7,0.5-0.8,0.7
			C50.3,11.1,50.3,11.2,50.3,11.2z"/>
	</g>
	<g id="XMLID_16548_">
		<path id="XMLID_16549_" class="st0" d="M47.3,10.8l1.1-0.2c0,0,0-0.1,0-0.2c0-0.1,0-0.4,0-0.6c0-0.2,0.2-0.5,0.4-0.9
			c0.1-0.2,0.2-0.4,0.3-0.6c0-0.1,0.1-0.2,0.1-0.3c0-0.1,0-0.1,0-0.2l0-0.1l0,0c0,0,0,0,0,0l0,0c0,0,0,0,0,0l0,0l0,0l0-0.1
			c0-0.1,0-0.1,0-0.2c0-0.1,0.1-0.2,0.1-0.3c0-0.2,0.1-0.4,0.1-0.6c0-0.4,0.1-0.8,0.1-1.1c0-0.3,0.1-0.6,0.1-0.7
			c0-0.1,0-0.1,0.1-0.2c0,0,0-0.1,0-0.1s0,0,0,0.1c0,0-0.1,0.1-0.1,0.2c-0.1,0.2-0.2,0.4-0.3,0.7c-0.2,0.6-0.3,1.5-0.7,2.2
			c-0.1,0.4-0.4,0.7-0.6,1c-0.2,0.3-0.5,0.7-0.6,1c-0.1,0.4-0.2,0.7-0.2,0.9C47.3,10.7,47.3,10.8,47.3,10.8z"/>
	</g>
	<g id="XMLID_16546_">
		<path id="XMLID_16547_" class="st0" d="M44.9,8.2l0.8-0.7c0,0-0.1-0.1-0.2-0.2c-0.1-0.1-0.1-0.1-0.2-0.2c-0.1-0.1-0.2-0.1-0.3-0.2
			c-0.2-0.1-0.4-0.3-0.7-0.4c-0.3-0.1-0.6-0.2-0.9-0.2c-0.6-0.1-1.2,0-1.7,0.1c-0.1,0-0.2,0.1-0.3,0.1c-0.1,0-0.2,0.1-0.2,0.1
			c-0.1,0.1-0.2,0.1-0.2,0.1s0.1,0,0.2-0.1c0.1,0,0.1,0,0.2-0.1c0.1,0,0.2,0,0.3,0c0.4,0,1,0.1,1.5,0.3c0.2,0.1,0.5,0.3,0.7,0.4
			c0.2,0.2,0.4,0.3,0.5,0.4c0.1,0.1,0.1,0.1,0.2,0.2c0,0.1,0.1,0.1,0.1,0.2C44.9,8.1,44.9,8.2,44.9,8.2z"/>
	</g>
	<g id="XMLID_16544_">
		<path id="XMLID_16545_" class="st0" d="M38.9,9.5L39,8.4c0,0-0.1,0-0.1,0c-0.1,0-0.2,0-0.4,0c-0.4,0-0.9,0.1-1.4,0.4
			c-1.1,0.5-2.1,1.7-2.8,2.9c-0.7,1.2-1.2,2.6-1.5,3.6c-0.3,1-0.3,1.8-0.3,1.8s0.1-0.7,0.5-1.7c0.4-1,1-2.3,1.8-3.4
			c0.8-1.1,1.9-2,2.8-2.3c0.4-0.2,0.8-0.2,1.1-0.2c0.1,0,0.2,0,0.3,0C38.9,9.5,38.9,9.5,38.9,9.5z"/>
	</g>
	<g id="XMLID_16542_">
		<path id="XMLID_16543_" class="st0" d="M42.7,12l-0.1-1.1c0,0-0.1,0-0.4,0.1c-0.1,0-0.1,0-0.2,0c-0.1,0-0.2,0-0.2,0.1
			c-0.2,0-0.4,0.1-0.6,0.2c-0.1,0-0.2,0.1-0.3,0.1c-0.1,0-0.2,0.1-0.3,0.2c-0.2,0.1-0.5,0.2-0.7,0.4c-0.5,0.3-0.9,0.7-1.3,1.1
			c-0.4,0.4-0.7,0.9-1,1.4c-0.2,0.5-0.5,0.9-0.6,1.3c-0.1,0.2-0.1,0.4-0.2,0.5c0,0.2-0.1,0.3-0.1,0.4c0,0.2-0.1,0.4-0.1,0.4
			s0-0.1,0.1-0.4c0-0.1,0.1-0.3,0.2-0.4c0.1-0.2,0.1-0.3,0.2-0.5c0.2-0.4,0.4-0.8,0.7-1.2c0.3-0.4,0.7-0.8,1.1-1.2
			c0.4-0.3,0.8-0.6,1.3-0.8c0.2-0.1,0.4-0.2,0.6-0.2c0.1,0,0.2-0.1,0.3-0.1c0.1,0,0.2,0,0.3-0.1c0.2,0,0.4-0.1,0.5-0.1
			c0.1,0,0.1,0,0.2,0c0.1,0,0.1,0,0.2,0C42.6,12,42.7,12,42.7,12z"/>
	</g>
	<g id="XMLID_16540_">
		<path id="XMLID_16541_" class="st0" d="M42.3,13.3v-1.1c0,0-0.1,0-0.2,0c-0.1,0-0.2,0-0.3,0c-0.1,0-0.2,0.1-0.3,0.1
			c-0.1,0-0.3,0.1-0.4,0.2c-0.1,0.1-0.3,0.2-0.4,0.2c-0.3,0.2-0.6,0.4-0.9,0.7c-0.6,0.6-1.1,1.4-1.5,2.2c-0.2,0.4-0.4,0.9-0.7,1.3
			c-0.1,0.2-0.2,0.5-0.3,0.7c-0.1,0.2-0.2,0.5-0.2,0.7c-0.3,1-0.4,2-0.4,3c0,1,0.2,1.9,0.5,2.6c0.2,0.7,0.5,1.3,0.7,1.7
			c0.2,0.4,0.3,0.6,0.3,0.6s-0.1-0.2-0.3-0.6c-0.2-0.4-0.4-1-0.6-1.7c-0.2-0.7-0.3-1.6-0.3-2.6c0-0.9,0.2-1.9,0.6-2.8
			c0.3-0.9,0.9-1.8,1.3-2.6c0.5-0.8,1-1.4,1.5-1.9c0.5-0.5,1-0.7,1.3-0.8c0.1,0,0.2,0,0.2,0c0.1,0,0.1,0,0.2,0
			C42.3,13.3,42.3,13.3,42.3,13.3z"/>
	</g>
	<g id="XMLID_16538_">
		<path id="XMLID_16539_" class="st0" d="M43.4,15l-0.8-0.8c0,0-0.1,0.1-0.3,0.4c-0.1,0.1-0.2,0.3-0.3,0.4c-0.1,0.2-0.2,0.4-0.4,0.6
			c-0.3,0.4-0.5,0.9-0.7,1.5c-0.2,0.6-0.4,1.2-0.5,1.8c-0.2,1.3-0.3,2.5-0.3,3.5c0,0.9,0,1.6,0,1.6s0-0.6,0.2-1.6
			c0.1-0.9,0.3-2.2,0.7-3.3c0.2-0.6,0.4-1.2,0.7-1.7c0.3-0.5,0.5-0.9,0.8-1.3c0.1-0.2,0.3-0.3,0.4-0.5c0.1-0.1,0.2-0.2,0.3-0.3
			C43.3,15.1,43.4,15,43.4,15z"/>
	</g>
	<g id="XMLID_16536_">
		<path id="XMLID_16537_" class="st0" d="M46.2,13.3l-0.7-0.9c0,0-0.1,0.1-0.2,0.2c-0.1,0.1-0.3,0.2-0.5,0.5c-0.5,0.4-1.1,1-1.6,1.9
			c-0.6,0.9-1.1,2-1.5,3.2c-0.2,0.6-0.3,1.3-0.4,1.9c-0.1,0.7-0.2,1.3-0.2,2c-0.1,2.7,0.6,5.4,1.3,7.3c0.3,0.9,0.7,1.7,1,2.2
			c0.1,0.3,0.3,0.5,0.3,0.6c0.1,0.1,0.1,0.2,0.1,0.2s0-0.1-0.1-0.2c-0.1-0.1-0.2-0.3-0.3-0.6c-0.2-0.5-0.6-1.3-0.9-2.3
			c-0.6-1.9-1.1-4.6-0.9-7.2c0-0.7,0.1-1.3,0.3-1.9c0.1-0.6,0.3-1.2,0.5-1.8c0.4-1.1,1-2.1,1.5-2.9c0.6-0.8,1.1-1.3,1.6-1.6
			c0.2-0.2,0.4-0.3,0.5-0.4C46.2,13.3,46.2,13.3,46.2,13.3z"/>
	</g>
	<g id="XMLID_16534_">
		<path id="XMLID_16535_" class="st0" d="M52.7,9.9l0,1.1c0,0,0.1,0,0.3,0c0.2,0,0.5,0,0.8,0c0.3,0,0.7,0.1,1.2,0.2
			c0.4,0.1,0.8,0.3,1.2,0.5c0.4,0.2,0.7,0.5,1,0.8c0.3,0.3,0.6,0.6,0.8,0.9c0.2,0.3,0.4,0.6,0.5,0.7c0.1,0.2,0.2,0.3,0.2,0.3
			s0-0.1-0.1-0.3c-0.1-0.2-0.2-0.5-0.4-0.8c-0.2-0.3-0.4-0.7-0.6-1.1c-0.3-0.4-0.6-0.8-1-1.1c-0.4-0.3-0.9-0.6-1.3-0.8
			c-0.5-0.2-0.9-0.3-1.3-0.4c-0.4-0.1-0.7-0.1-0.9-0.1C52.8,9.9,52.7,9.9,52.7,9.9z"/>
	</g>
	<g id="XMLID_16532_">
		<path id="XMLID_16533_" class="st0" d="M54.6,8.5l0.1,1.1c0,0,0.1,0,0.2,0c0.1,0,0.3,0,0.6,0c0.2,0,0.5,0,0.8,0.1
			c0.3,0.1,0.6,0.2,0.9,0.4c0.3,0.2,0.5,0.4,0.7,0.7c0.2,0.2,0.4,0.5,0.6,0.7c0.2,0.2,0.3,0.4,0.4,0.5c0.1,0.1,0.1,0.2,0.1,0.2
			s0-0.1-0.1-0.2c-0.1-0.2-0.1-0.4-0.3-0.6c-0.2-0.5-0.6-1.2-1.1-1.7C57.3,9.4,57,9.2,56.6,9c-0.3-0.2-0.7-0.3-1-0.4
			c-0.3-0.1-0.6-0.1-0.7-0.1C54.7,8.5,54.6,8.5,54.6,8.5z"/>
	</g>
	<g id="XMLID_16530_">
		<path id="XMLID_16531_" class="st0" d="M15,11V9.9c0,0-0.1,0-0.2,0c-0.1,0-0.3,0-0.5,0c-0.5,0-1.1,0.1-1.9,0.3
			c-0.8,0.2-1.7,0.4-2.6,0.8c-0.9,0.4-1.9,0.9-2.7,1.6C6.3,13.3,5.5,14.1,5,15c-0.5,0.9-0.8,1.8-0.8,2.6c-0.1,0.8,0,1.5,0.1,1.9
			c0,0.2,0.1,0.4,0.1,0.5c0,0.1,0,0.2,0,0.2s0-0.1,0-0.2c0-0.1-0.1-0.3-0.1-0.5c-0.1-0.5-0.1-1.1,0-1.9c0.1-0.8,0.4-1.7,1-2.5
			c0.5-0.8,1.3-1.5,2.1-2.1c0.8-0.6,1.8-1,2.6-1.3c0.9-0.3,1.7-0.5,2.5-0.6c0.7-0.1,1.4-0.1,1.8-0.1c0.2,0,0.4,0,0.5,0
			C15,11,15,11,15,11z"/>
	</g>
	<g id="XMLID_16528_">
		<path id="XMLID_16529_" class="st0" d="M19.4,8.8l0.5,1c0,0,0.1,0,0.2-0.1c0.1,0,0.2-0.1,0.3-0.1c0.1,0,0.2-0.1,0.4-0.1
			c0.3-0.1,0.6-0.2,1-0.2c0.4-0.1,0.8-0.1,1.2-0.1c0.8,0,1.6,0.2,2.2,0.5c0.1,0.1,0.3,0.1,0.4,0.2c0.1,0.1,0.2,0.1,0.3,0.2
			c0.1,0.1,0.2,0.2,0.2,0.2s-0.1-0.1-0.2-0.2c-0.1-0.1-0.1-0.1-0.2-0.2c-0.1-0.1-0.2-0.2-0.3-0.3c-0.5-0.4-1.3-0.7-2.2-0.9
			c-0.4-0.1-0.9-0.1-1.3-0.1c-0.4,0-0.8,0-1.2,0.1c-0.2,0-0.3,0.1-0.5,0.1c-0.1,0-0.3,0.1-0.4,0.1C19.5,8.8,19.4,8.8,19.4,8.8z"/>
	</g>
	<g id="XMLID_16526_">
		<path id="XMLID_16527_" class="st0" d="M15.5,15.6l1.1,0.1c0,0,0-0.1,0-0.3c0-0.1,0-0.2,0-0.4c0-0.2,0-0.3-0.1-0.5
			c-0.1-0.4-0.2-0.9-0.5-1.4c-0.3-0.5-0.8-0.9-1.4-1.2c-0.6-0.3-1.3-0.5-2-0.6c-0.7-0.1-1.5-0.1-2.4,0.2c-0.4,0.1-0.8,0.4-1.1,0.6
			c-0.3,0.3-0.6,0.6-0.8,1c-0.5,0.7-0.8,1.4-1.1,2.2c-0.2,0.4-0.3,0.7-0.5,1.1c-0.1,0.4-0.3,0.8-0.4,1.2c-0.1,0.4-0.2,0.8-0.2,1.2
			c0,0.4-0.1,0.8,0,1.2C6,20.3,6,20.7,6.1,21c0.1,0.4,0.1,0.7,0.3,1.1c0.1,0.3,0.2,0.7,0.3,1c0.1,0.3,0.2,0.6,0.4,0.9
			c0.5,1.1,1,2,1.4,2.6c0.3,0.6,0.5,0.9,0.5,0.9s-0.2-0.4-0.5-1c-0.3-0.6-0.8-1.5-1.2-2.6C7.1,23.6,7,23.3,6.9,23
			c-0.1-0.3-0.2-0.6-0.3-1c-0.1-0.3-0.1-0.7-0.2-1c0-0.4-0.1-0.7-0.1-1.1c0-0.4,0-0.8,0.1-1.1c0.1-0.4,0.1-0.8,0.3-1.1
			c0.1-0.4,0.3-0.7,0.4-1.1c0.2-0.4,0.3-0.7,0.5-1.1c0.4-0.7,0.7-1.4,1.2-2c0.2-0.3,0.5-0.6,0.8-0.8c0.3-0.2,0.6-0.4,0.9-0.5
			c0.7-0.2,1.3-0.2,2-0.1c0.6,0.1,1.2,0.3,1.7,0.6c0.5,0.3,0.8,0.6,1,0.9c0.2,0.3,0.3,0.7,0.3,1c0,0.1,0,0.3,0,0.4
			c0,0.1,0,0.2,0,0.3C15.5,15.5,15.5,15.6,15.5,15.6z"/>
	</g>
	<g id="XMLID_16524_">
		<path id="XMLID_16525_" class="st0" d="M18.4,16.4l1.1-0.1c0,0,0-0.1,0-0.3c0-0.1,0-0.2,0-0.3c0-0.1,0-0.3,0-0.4
			c0-0.3,0.1-0.7,0.3-1.1c0.2-0.4,0.5-0.8,0.9-1.2c0.4-0.4,1-0.6,1.6-0.8c0.6-0.1,1.3-0.1,2,0.1c0.7,0.2,1.4,0.6,1.9,1.1
			c0.3,0.3,0.5,0.6,0.8,0.9l0.2,0.2c0.1,0.1,0.1,0.2,0.1,0.3l0.3,0.5c0.6,1.5,0.8,3.2,0.5,4.7c-0.1,0.8-0.4,1.5-0.6,2.1
			c-0.2,0.3-0.3,0.6-0.5,0.9c-0.1,0.1-0.2,0.3-0.2,0.4c-0.1,0.1-0.2,0.3-0.3,0.4c-0.3,0.5-0.7,0.9-1.1,1.3c-0.2,0.2-0.4,0.3-0.5,0.5
			c-0.2,0.1-0.3,0.3-0.5,0.4c-0.1,0.1-0.1,0.1-0.2,0.2c-0.1,0-0.1,0.1-0.2,0.1c-0.1,0.1-0.2,0.1-0.3,0.2c-0.2,0.1-0.3,0.2-0.3,0.2
			s0.1-0.1,0.3-0.1c0.1,0,0.2-0.1,0.3-0.2c0.1,0,0.1-0.1,0.2-0.1c0.1,0,0.1-0.1,0.2-0.1c0.1-0.1,0.3-0.2,0.5-0.3
			c0.2-0.1,0.3-0.3,0.5-0.5c0.4-0.3,0.8-0.8,1.1-1.3c0.1-0.1,0.2-0.3,0.3-0.4c0.1-0.1,0.2-0.3,0.3-0.4c0.2-0.3,0.3-0.6,0.5-0.9
			c0.3-0.7,0.6-1.4,0.7-2.2c0.4-1.6,0.3-3.3-0.3-4.9l-0.3-0.6c0-0.1-0.1-0.2-0.1-0.3l-0.2-0.3c-0.2-0.4-0.5-0.7-0.8-1
			c-0.6-0.6-1.4-1.1-2.2-1.3c-0.8-0.3-1.6-0.3-2.4-0.2c-0.8,0.1-1.5,0.4-2,0.9c-0.6,0.4-0.9,1-1.2,1.5c-0.2,0.5-0.4,1-0.4,1.4
			c0,0.2,0,0.4-0.1,0.5c0,0.2,0,0.3,0,0.4C18.4,16.2,18.4,16.4,18.4,16.4z"/>
	</g>
	<g id="XMLID_16522_">
		<path id="XMLID_16523_" class="st0" d="M16.8,15.8l-1.1-0.3c-0.1,0.2-0.2,0.5-0.3,0.6c0,0,0,0.1-0.1,0.1c0,0,0,0,0,0c0,0,0,0,0,0
			c0,0,0,0,0,0l0,0l0,0c0,0-0.1-0.1-0.2-0.2c-0.1-0.2-0.3-0.4-0.4-0.6c-0.1-0.2-0.2-0.5-0.4-0.7l-0.2-0.4c-0.1-0.2-0.2-0.5-0.3-0.7
			c-0.1-0.2-0.2-0.4-0.4-0.5c-0.1-0.1-0.2-0.2-0.4-0.3L13,12.6c-0.1,0,0,0-0.1,0l0,0c0,0-0.2-0.1-0.3-0.1l0,0.8l0,0.3l0,0.2l0,0.1
			l-0.1,0.3c0,0,0,0,0,0.1c0,0,0,0,0,0l0,0c0,0.1-0.1,0.1-0.1,0.2c-0.2,0.2-0.4,0.4-0.7,0.6c-0.1,0.1-0.3,0.2-0.4,0.3l-0.1,0.1l0,0
			c0,0,0,0,0,0l-0.2,0l-0.3,0l-0.1,0c-0.1,0-0.1,0-0.2,0c-0.2,0-0.3,0-0.4,0.1l0.1,0.2c0,0,0,0,0,0l0,0l0,0l-0.1-0.1l-0.1-0.1l0,0
			l0,0l0,0l0,0L10,16h0l0,0l0,0l0,0l0,0c0,0,0,0,0,0c0,0,0,0,0,0l-0.1-0.2l0.1,0.2c0,0.1,0,0.1,0,0.1l0,0c0,0,0,0,0,0L9.9,16
			l-0.2-0.1l0,0c0,0,0,0,0,0l0,0l0,0.1l-0.1,0.2c-0.1,0.1-0.2,0.2-0.3,0.3c-0.1,0.1-0.2,0.2-0.3,0.3L8.8,17L8.7,17l0,0l0,0
			c0,0,0,0,0,0l0.2,0.2L9,17.4c0,0,0,0,0,0l0,0l-0.1,0l0.1,0l-0.4-0.1l-0.1,0.3l-0.1,0.2c0,0.1-0.1,0.3-0.1,0.5c0,0.1,0,0.2,0.1,0.3
			c0,0.1,0,0.1,0.1,0.2c0,0,0.1,0.1,0.1,0.1c0.1,0.2,0.2,0.2,0.3,0.3c0.1,0.1,0.1,0.2,0.2,0.4c0,0.1,0,0.2,0,0.3c0,0,0,0.1,0,0.1
			l0,0.1c-0.1,0.4-0.5,0.7-0.8,1.1c-0.2,0.2-0.4,0.5-0.4,0.8c0,0.1,0,0.2,0,0.3c0,0.1,0,0.2,0,0.3c0,0.1,0,0.2,0.1,0.3
			c0,0.1,0.1,0.2,0.1,0.3c0.1,0.1,0.1,0.2,0.2,0.3c0.1,0.1,0.2,0.1,0.4,0.1c0.1,0,0.1,0,0.2,0c0.1,0,0.1,0,0.2,0c0.1,0,0.2,0,0.2,0
			l0.2,0c0,0,0,0,0.1,0c0.1,0,0.1,0,0.1,0.1c0.1,0.2,0.2,0.5,0.3,0.8c0.1,0.1,0.1,0.3,0.2,0.5c0,0,0,0.1,0.1,0.1
			c0,0,0.1,0.1,0.1,0.1c0.1,0.1,0.2,0.2,0.4,0.3l-0.1,0c0.3,0.2,0.6,0.3,0.9,0.4c0.3,0.1,0.7,0,1-0.1c0.6-0.2,1.1-0.5,1.6-0.6l0,0
			l0,0c0.2-0.1,0.4-0.1,0.6-0.1c0,0,0.1,0,0.1,0l0.1,0c0,0,0.1,0,0.1,0c0.2,0,0.4-0.1,0.6-0.2c0.2-0.1,0.2-0.3,0.3-0.4
			c0.1-0.1,0.2-0.2,0.2-0.3l0.1-0.1c0,0,0.1-0.1,0.1-0.1l0.1-0.2l0.1-0.4c0.2-0.5,0.3-1,0.5-1.5c0.1-0.3,0.1-0.5,0.2-0.8
			c0-0.1,0-0.3,0-0.4l0-0.1l0-0.1c0-0.1,0-0.2-0.1-0.3c0,0.1,0.1,0.2,0.1,0.3l0,0.1l0,0.1c0,0.2,0,0.3-0.1,0.4
			c0,0.3-0.1,0.5-0.2,0.8c-0.1,0.5-0.3,1-0.5,1.5L16,23.7l-0.1,0.2c0,0-0.1,0.1-0.1,0.1l-0.1,0.1c-0.1,0.1-0.2,0.2-0.2,0.3
			c-0.1,0.1-0.2,0.2-0.3,0.3c-0.1,0.1-0.3,0.2-0.5,0.1c-0.1,0-0.2-0.1-0.2-0.1c-0.1,0-0.1,0-0.2-0.1c-0.2-0.1-0.5,0-0.7,0l0,0
			c-0.5,0.1-1,0.4-1.6,0.5c-0.3,0.1-0.6,0.1-0.9,0c-0.3-0.1-0.5-0.2-0.8-0.4l0,0c-0.2-0.1-0.2-0.2-0.3-0.4c-0.1-0.1-0.1-0.3-0.2-0.4
			c-0.1-0.3-0.2-0.6-0.3-0.9c0-0.1-0.1-0.1-0.1-0.2c0,0,0-0.1-0.1-0.1c0,0-0.1,0-0.1,0c-0.2,0-0.3,0-0.5,0c-0.2,0-0.3,0-0.4,0
			c-0.1,0-0.1,0-0.2,0c-0.1,0-0.1-0.1-0.1-0.2C8,22.7,8,22.4,8,22.2c0.1-0.2,0.2-0.4,0.4-0.6c0.3-0.4,0.7-0.7,0.9-1.2l0.1-0.2l0-0.2
			c0-0.1,0-0.3,0-0.4c0-0.3-0.1-0.6-0.3-0.8C9.1,18.7,9,18.6,9,18.5c-0.1-0.1-0.1-0.2-0.1-0.2c0-0.1,0-0.2,0.1-0.3L9,17.8l0-0.1
			l0-0.1c0,0,0,0,0,0c0,0,0,0,0,0c0.3-0.2,0.4-0.4,0.6-0.7c0.1-0.1,0.2-0.2,0.3-0.4l0.1-0.2c0-0.1,0.1-0.1,0.1-0.1c0,0,0,0,0,0
			c0,0,0,0,0,0c0,0,0,0,0,0c0,0,0,0,0,0c0,0,0.1,0,0.1,0l0.2,0l0.2,0l0.3,0l0.2,0l0,0l0,0l0.1-0.1l0.1-0.1l0.1-0.1
			c0.1-0.1,0.3-0.2,0.4-0.3c0.3-0.2,0.6-0.4,0.8-0.7c0.1-0.1,0.1-0.2,0.2-0.3c0,0,0.1-0.1,0.1-0.1l0,0c0,0,0-0.1,0-0.1
			c0,0,0-0.1,0-0.1c0,0,0,0,0,0c0,0,0,0,0,0c0,0.1,0.1,0.1,0.1,0.2l0,0.1l0.1,0.3c0.1,0.2,0.2,0.5,0.3,0.7c0.1,0.2,0.3,0.5,0.4,0.8
			c0.1,0.1,0.2,0.2,0.3,0.4c0,0,0.1,0.1,0.1,0.1c0,0,0.1,0.1,0.2,0.1c0.1,0,0.1,0.1,0.2,0.1c0.1,0,0.1,0,0.2,0.1
			c0.2,0.1,0.5,0,0.7-0.1c0.1-0.1,0.2-0.2,0.3-0.2c0.1-0.1,0.1-0.2,0.2-0.2C16.6,16.3,16.7,16.1,16.8,15.8z"/>
	</g>
	<g id="XMLID_16520_">
		<path id="XMLID_16521_" class="st0" d="M19.9,15.2l-0.4,1.1c0.3,0.1,0.6,0.1,0.9,0.1c0.3,0,0.6-0.1,0.9-0.3c0.5-0.3,0.8-0.8,1-1.1
			l0.4-0.5c0.1-0.1,0.1-0.2,0.2-0.3l0.1-0.1l0-0.1l0,0c0,0,0-0.1,0.1-0.1c0,0,0,0,0,0.1l0,0l0,0l0,0c0,0.1-0.1,0.2-0.1,0.4
			c0,0.1,0,0.3,0,0.5l0-0.1c0,0.4,0.2,0.7,0.3,1c0.1,0.3,0.3,0.5,0.4,0.7c0.1,0.1,0.1,0.2,0.1,0.3c0,0,0,0,0,0c0,0,0,0,0,0
			c0,0,0,0,0.1,0c0,0,0,0,0.1,0l0,0l0,0c0,0-0.3,0-0.2,0l0,0l0,0l0,0.2c0,0.2,0,0.5-0.1,0.7c0,0.1-0.1,0.2-0.1,0.3
			c0,0.1-0.1,0.2-0.1,0.3l-0.1,0.1c0,0.1,0,0.1-0.1,0.2c0,0.1,0,0.2,0,0.3c0,0.2,0.2,0.4,0.4,0.5l0.1,0.1l0.1,0.1
			c0.1,0,0.1,0.1,0.2,0.1c0.1,0.1,0.2,0.1,0.4,0.2l0.1,0.1l0,0l0,0l0,0c0,0,0,0,0,0c0,0,0,0,0,0l0,0.1l0,0.1c0,0,0,0.1-0.1,0.2
			c-0.1,0.1-0.2,0.3-0.4,0.4l0.1,0.1l0.1,0.1l0.2,0.2c0.1,0.1,0.2,0.1,0.2,0.2c0.1,0.1,0.2,0.1,0.2,0.1c0.2,0.1,0.4,0.2,0.7,0.3
			c0.1,0,0.2,0.1,0.3,0.1l0.2,0.1l0.2,0c0,0,0,0.1-0.1,0.1c0,0-0.1,0.1-0.1,0.1c0,0,0,0-0.1,0.1l-0.1,0.1c0,0-0.1,0.1-0.2,0.1
			c-0.1,0.1-0.2,0.2-0.3,0.2c-0.5,0.3-1,0.5-1.6,0.6l-0.4,0.1l-0.1,0l-0.1,0c-0.1,0-0.1,0-0.2,0c-0.3,0-0.5,0-0.9,0
			c-0.2,0-0.3,0-0.6,0c-0.2,0.1-0.4,0.2-0.6,0.4c-0.1,0.1,0,0.1-0.1,0.1c0,0,0,0.1,0,0.1c0,0.1,0,0.1,0,0.2c0,0,0,0,0,0l0,0l0-0.1
			c0,0-0.1-0.1-0.1-0.1l-0.1-0.1c-0.1,0-0.1-0.1-0.2-0.1c-0.1-0.1-0.3-0.1-0.4-0.2c-0.5-0.2-1-0.4-1.5-0.6c-0.5-0.2-0.8-0.5-1.1-0.9
			c-0.2-0.4-0.3-0.9-0.4-1.4c0,0.5,0.1,1,0.4,1.4c0.2,0.4,0.6,0.7,1.1,1c0.5,0.2,1,0.4,1.5,0.7c0.1,0.1,0.2,0.1,0.4,0.2
			c0.1,0,0.1,0.1,0.2,0.1l0.1,0.1c0.1,0.1,0.2,0.1,0.2,0.2l0.1,0.1l0.1,0.1l0,0l0,0l0,0l0,0c0-0.1,0-0.2,0-0.3c0-0.1,0-0.1,0-0.2
			c0-0.1,0-0.1,0.1-0.2c0.1-0.1,0.3-0.3,0.4-0.3c0.2,0,0.3,0,0.5,0c0.3,0,0.6,0.1,0.9,0c0.3,0,0.6-0.1,0.9-0.2
			c0.6-0.2,1.2-0.3,1.7-0.6c0.3-0.2,0.5-0.3,0.7-0.6c0.1-0.1,0.2-0.2,0.3-0.4c0.1-0.1,0.1-0.1,0.2-0.2l0.1-0.1l0-0.1c0,0,0,0,0,0
			c-0.2-0.1-0.5-0.2-0.7-0.2l-0.3-0.1c-0.1,0-0.2-0.1-0.3-0.1c-0.2-0.1-0.4-0.2-0.6-0.3c-0.1,0-0.1-0.1-0.2-0.1c0,0-0.1,0-0.1-0.1
			c0,0,0,0,0,0c0,0,0,0,0,0c0.1-0.1,0.1-0.2,0.2-0.4l0-0.1c0-0.1,0-0.1,0.1-0.2c0.1-0.1,0.2-0.2,0.3-0.3c0,0,0-0.1,0-0.1l-0.1-0.1
			l-0.2-0.1l-0.4-0.2c-0.1-0.1-0.2-0.1-0.3-0.2c-0.1,0-0.1-0.1-0.2-0.1l-0.1,0l-0.1,0c-0.1,0-0.1-0.1-0.1-0.2c0-0.1,0-0.1,0.1-0.2
			c0.1-0.2,0.2-0.5,0.3-0.8c0.1-0.3,0.1-0.6,0.1-0.8l0-0.2l0,0c0,0,0,0,0,0l0,0l0-0.1l0-0.1c-0.1-0.2-0.1-0.3-0.2-0.4
			c-0.1-0.2-0.3-0.5-0.4-0.7c-0.1-0.2-0.2-0.4-0.2-0.6l0-0.1c0-0.1,0-0.1,0.1-0.3l0.1-0.2c0-0.1,0.1-0.1,0.1-0.2
			c0.1-0.1,0.1-0.3,0.2-0.4c0.2-0.5,0.1-0.9-0.1-1.4c-0.3,0.1-0.6,0.1-0.9,0.3c-0.3,0.1-0.6,0.3-0.9,0.6c0,0-0.1,0.1-0.1,0.1
			l-0.1,0.1l-0.1,0.1c-0.1,0.1-0.2,0.2-0.2,0.3l-0.4,0.5c-0.3,0.4-0.5,0.7-0.8,0.8C20.5,15.3,20.3,15.3,19.9,15.2z"/>
	</g>
	<g id="XMLID_16518_">
		<path id="XMLID_16519_" class="st0" d="M13.6,17.7l0.3-1.1c0,0-0.1,0-0.2,0c-0.1,0-0.3-0.1-0.6-0.1c-0.3,0-0.6,0-1,0.1
			c-0.2,0.1-0.4,0.2-0.6,0.3c-0.2,0.2-0.3,0.4-0.3,0.5c-0.1,0.4-0.2,0.6-0.2,0.9c-0.1,0.2-0.2,0.4-0.3,0.5c-0.1,0.1-0.3,0.2-0.4,0.2
			c-0.1,0-0.2,0.1-0.2,0.1s0.1,0,0.2,0c0.1,0,0.3,0,0.5-0.1c0.2-0.1,0.4-0.3,0.5-0.5c0.2-0.2,0.3-0.5,0.4-0.8
			c0.2-0.3,0.4-0.4,0.6-0.4c0.2,0,0.5,0.1,0.7,0.1c0.2,0.1,0.4,0.1,0.5,0.2C13.6,17.7,13.6,17.7,13.6,17.7z"/>
	</g>
	<g id="XMLID_16516_">
		<path id="XMLID_16517_" class="st0" d="M12.1,23.1l1.1-0.2c0,0,0-0.1-0.1-0.3c0-0.2-0.1-0.4,0-0.6c0-0.2,0.2-0.4,0.5-0.7
			c0.3-0.2,0.7-0.5,1-0.7c0.2-0.1,0.4-0.2,0.6-0.2c0.2-0.1,0.4-0.1,0.6-0.2c0.1,0,0.2-0.1,0.2-0.1c0.1,0,0.1-0.1,0.2-0.1
			c0.1-0.1,0.1-0.1,0.1-0.2c0-0.1,0.1-0.2,0.1-0.2c0-0.1,0-0.3,0-0.4c0-0.1,0-0.2,0-0.3c0-0.4-0.1-0.6-0.1-0.8
			c0-0.2-0.1-0.3-0.1-0.3s0,0.1,0,0.3c0,0.2,0,0.5,0,0.8c0,0.1,0,0.2,0,0.3c0,0.1,0,0.2-0.1,0.3c0,0.1,0,0.1-0.1,0.2
			c0,0-0.1,0.1-0.1,0.1c0,0-0.1,0.1-0.2,0.1c-0.1,0-0.1,0-0.2,0c-0.4,0-0.9,0.1-1.3,0.2c-0.5,0.2-0.9,0.4-1.2,0.6
			c-0.2,0.1-0.4,0.3-0.5,0.4c-0.2,0.2-0.3,0.4-0.4,0.6c-0.2,0.4-0.2,0.8-0.2,1C12.1,23,12.1,23.1,12.1,23.1z"/>
	</g>
	<g id="XMLID_16514_">
		<path id="XMLID_16515_" class="st0" d="M19.4,21.6l-0.4,1c0,0,0.1,0,0.3,0.1c0.2,0.1,0.4,0.1,0.7,0.2c0.2,0,0.4,0,0.6,0
			c0.2,0,0.6-0.2,0.8-0.4c0.1-0.1,0.2-0.3,0.2-0.4c0-0.1,0-0.3,0-0.4c0-0.2,0-0.4-0.1-0.6c-0.2-0.8-0.5-1.5-0.6-2
			c-0.1-0.3-0.1-0.5-0.1-0.6c0-0.1,0-0.2,0-0.2c0,0,0,0.1,0,0.2c0,0.1,0,0.4,0,0.6c0,0.5,0.2,1.3,0.2,2c0,0.2,0,0.4,0,0.5
			c0,0.2-0.1,0.3-0.2,0.3c-0.1,0.1-0.1,0.1-0.2,0c-0.1,0-0.2,0-0.3-0.1c-0.2-0.1-0.4-0.2-0.5-0.3C19.5,21.7,19.4,21.6,19.4,21.6z"/>
	</g>
	<g id="XMLID_16512_">
		<path id="XMLID_16513_" class="st0" d="M14.3,9.1V8c0,0-0.8,0.1-1.5,0.1c-0.4,0-0.8,0.1-1.1,0.2c-0.3,0.1-0.5,0.1-0.5,0.1
			s0.2,0,0.5,0.1c0.3,0,0.7,0.1,1.1,0.2c0.4,0.1,0.8,0.2,1.1,0.3C14.1,9,14.3,9.1,14.3,9.1z"/>
	</g>
	<g id="XMLID_16510_">
		<path id="XMLID_16511_" class="st0" d="M7.7,29.5v-1.1c0,0-0.1,0-0.2,0c-0.1,0-0.2,0-0.4,0c-0.4-0.1-0.9-0.2-1.4-0.6
			c-0.3-0.2-0.6-0.5-0.8-0.8c-0.3-0.3-0.5-0.6-0.8-1c-0.5-0.8-0.9-1.7-1.2-2.6c-0.3-0.9-0.5-1.9-0.6-2.8c-0.1-0.9-0.1-1.8,0-2.5
			c0.1-0.7,0.3-1.3,0.5-1.7c0-0.1,0.1-0.2,0.1-0.2c0-0.1,0.1-0.1,0.1-0.2C3,15.8,3,15.8,3,15.8s0,0-0.1,0.1c0,0-0.1,0.1-0.1,0.2
			c0,0.1-0.1,0.1-0.1,0.2C2.4,16.7,2.2,17.2,2,18c-0.2,0.7-0.2,1.6-0.2,2.6c0,1,0.2,2,0.4,3c0.3,1,0.6,2,1.1,2.8
			c0.2,0.4,0.5,0.8,0.8,1.2c0.3,0.4,0.6,0.7,0.9,0.9c0.6,0.5,1.3,0.8,1.8,0.9c0.2,0.1,0.4,0.1,0.6,0.1C7.6,29.5,7.7,29.5,7.7,29.5z"
			/>
	</g>
	<g id="XMLID_16508_">
		<path id="XMLID_16509_" class="st0" d="M19.2,10.6l1.1-0.3c0,0,0-0.1-0.1-0.3c-0.1-0.2-0.2-0.5-0.5-0.8c-0.3-0.3-0.7-0.5-1.2-0.6
			c-0.5-0.1-1-0.1-1.4,0.1c-0.5,0.1-0.9,0.4-1.2,0.6c-0.3,0.3-0.6,0.6-0.8,0.9c-0.2,0.3-0.3,0.6-0.3,0.8c0,0.1,0,0.2,0,0.2
			c0,0.1,0,0.1,0,0.1s0,0,0-0.1c0-0.1,0-0.1,0.1-0.2c0.1-0.2,0.2-0.5,0.4-0.7c0.2-0.3,0.5-0.5,0.9-0.7c0.4-0.2,0.8-0.3,1.2-0.4
			c0.4,0,0.8,0,1.1,0.1c0.3,0.1,0.5,0.3,0.7,0.5c0.1,0.2,0.2,0.4,0.2,0.5C19.2,10.5,19.2,10.6,19.2,10.6z"/>
	</g>
</g>
</svg>
