<?xml version="1.0" encoding="utf-8"?>
<!-- Generator: Adobe Illustrator 19.0.0, SVG Export Plug-In . SVG Version: 6.00 Build 0)  -->
<svg version="1.1" id="Capa_1" xmlns="http://www.w3.org/2000/svg" xmlns:xlink="http://www.w3.org/1999/xlink" x="0px" y="0px"
	 viewBox="0 0 1230.1 312.3" style="enable-background:new 0 0 1230.1 312.3;" xml:space="preserve">
<style type="text/css">
	.st0{opacity:0.5;}
	.st1{fill:#F29394;}
	.st2{fill:#F0B079;}
	.st3{fill:#8ECFEB;}
	.st4{fill:#DC7B9F;}
	.st5{opacity:0.6;}
	.st6{fill:#AEC181;}
</style>
<g id="XMLID_1_">
	<g id="XMLID_4609_" class="st0">
		<path id="XMLID_4622_" class="st1" d="M381.3,17.2c1.7-3.5,4.8-6.2,9-7.2c4.2-1,8.1,1,10,5c1.6,3.4,1.9,7,0.7,10.6
			c-0.5,1.5-2.1,2.3-3.6,1.8c-1.4-0.5-2.5-1.4-3.6-2.4c-3.5-3.1-2.4-2.6-6.9-2.8c-1.2,0-2.4-0.1-3.5-0.4
			C381.2,21.4,380.3,19.6,381.3,17.2z M383.1,18.2c-0.5,1.1-0.3,1.6,1,1.7c1.3,0.2,2.6,0.3,3.9,0.2c2.5-0.1,4.6,0.6,6.3,2.5
			c0.3,0.3,0.6,0.6,0.9,0.8c0.9,0.7,1.8,1.3,2.7,1.9c0.5,0.3,0.9,0.1,1.1-0.4c0.1-0.2,0.2-0.5,0.3-0.7c0.8-2.9,0.4-5.8-0.9-8.5
			c-1-2.1-2.7-3.5-5.1-3.8C389.6,11.4,384.7,14.4,383.1,18.2z"/>
		<path id="XMLID_4619_" class="st1" d="M390.9,3.8c0.7-1.3,1.5-2.6,2.8-3.4c1.5-0.9,2.9-0.4,3.3,1.3c0.5,1.9,0.4,3.8-0.7,5.4
			c-1.2,1.8-3.6,2-4.9,0.5C390.5,6.5,390.5,5.2,390.9,3.8z M395.1,2c-1.2,0.8-2.1,1.8-2.4,3.1c-0.2,0.7,0.2,1.4,0.7,1.5
			c0.7,0.2,1.2-0.3,1.4-0.8C395.4,4.6,395.4,3.4,395.1,2z"/>
		<path id="XMLID_4616_" class="st1" d="M403.3,8.5c-0.8,2.1-2.6,3-4.3,2.5c-1.5-0.5-2.4-2.1-2-3.8c0.5-1.9,1.6-3.4,3.3-4.4
			c1.2-0.7,2.4-0.2,2.9,1.1C403.9,5.4,403.7,7.1,403.3,8.5z M401.4,4.5c-1.1,0.6-2.2,2-2.4,2.9c-0.2,0.8,0.1,1.4,0.6,1.6
			c0.5,0.2,1.2-0.1,1.5-0.8C401.7,7,401.7,5.8,401.4,4.5z"/>
		<path id="XMLID_4613_" class="st1" d="M389.6,7c-0.8,2-2.4,3-3.9,2.5c-1.6-0.5-2.6-2.2-2.3-4c0.2-1.3,0.9-2.4,2-3.2
			c1.3-1,2.8-0.7,3.7,0.7C389.9,4.3,390,5.8,389.6,7z M385.6,5.2c-0.2,0.8-0.3,1.5,0.3,2c0.2,0.2,0.7,0.3,1,0.2c0.7-0.3,0.9-1,1-1.7
			c0-0.9-0.4-2-0.8-1.9C386.2,3.9,385.9,4.6,385.6,5.2z"/>
		<path id="XMLID_4610_" class="st1" d="M408.1,14.1c-0.4,1.1-1.1,2-2.3,2.4c-1.2,0.4-2.4,0.3-3.3-0.7c-0.9-1-1-2.2-0.6-3.5
			c0.6-1.6,1.7-2.6,3.4-3.1c1.5-0.4,2.8,0.4,3.1,1.9c0.1,0.9,0,1.9-0.1,2.9C408.2,14.1,408.2,14.1,408.1,14.1z M406.3,13.3
			c0-0.5,0.1-1.1,0.1-1.6c0-0.4-0.2-0.6-0.6-0.5c-0.8,0.1-2,1.2-2,2.1c0,0.4,0.2,1,0.5,1.2c0.3,0.2,0.9,0,1.2-0.2
			C405.8,14.1,406,13.7,406.3,13.3z"/>
	</g>
	<g id="XMLID_4593_" class="st0">
		<path id="XMLID_4606_" class="st2" d="M1019.9,29.9c-1.3-3.7-1-7.7,1.3-11.5c2.2-3.6,6.4-5,10.6-3.6c3.6,1.3,6.3,3.6,8,7
			c0.7,1.4,0.1,3.1-1.3,3.8c-1.3,0.7-2.8,0.8-4.3,0.9c-4.7,0.3-3.6-0.1-6.9,2.9c-0.9,0.8-1.8,1.6-2.8,2.2
			C1022.8,32.9,1020.9,32.2,1019.9,29.9z M1021.9,29.3c0.5,1.1,0.9,1.3,1.9,0.5c1-0.8,2-1.7,2.9-2.6c1.7-1.8,3.6-2.9,6.1-2.7
			c0.4,0,0.8,0,1.2,0c1.1-0.2,2.2-0.3,3.3-0.6c0.5-0.1,0.7-0.5,0.5-1.1c-0.1-0.2-0.2-0.5-0.3-0.7c-1.5-2.6-3.8-4.4-6.7-5.3
			c-2.2-0.7-4.4-0.6-6.3,0.9C1021.6,19.9,1020.3,25.5,1021.9,29.3z"/>
		<path id="XMLID_4603_" class="st2" d="M1017.2,13.6c-0.5-1.4-0.8-2.9-0.4-4.4c0.4-1.7,1.8-2.4,3.2-1.5c1.7,1,3,2.4,3.3,4.4
			c0.4,2.1-1.1,4-3.1,3.8C1018.7,15.8,1017.8,14.9,1017.2,13.6z M1018.8,9.4c-0.3,1.5-0.2,2.7,0.5,3.9c0.4,0.6,1.1,0.8,1.6,0.5
			c0.6-0.4,0.6-1,0.4-1.6C1020.9,11,1020,10.1,1018.8,9.4z"/>
		<path id="XMLID_4600_" class="st2" d="M1029.1,8.1c0.9,2,0.3,4-1.2,4.8c-1.4,0.7-3.2,0.2-4.1-1.3c-1-1.7-1.3-3.5-0.8-5.5
			c0.3-1.3,1.5-1.9,2.8-1.3C1027.5,5.5,1028.4,6.9,1029.1,8.1z M1025.1,6.7c-0.3,1.2-0.1,3,0.4,3.8c0.4,0.6,1.1,0.9,1.6,0.7
			c0.5-0.2,0.7-0.9,0.5-1.7C1027,8.2,1026.2,7.4,1025.1,6.7z"/>
		<path id="XMLID_4597_" class="st2" d="M1018.4,16.8c0.9,1.9,0.4,3.8-0.9,4.5c-1.5,0.8-3.5,0.3-4.5-1.2c-0.8-1.1-1.1-2.3-0.9-3.7
			c0.2-1.6,1.5-2.5,3.1-2.1C1016.8,14.7,1017.9,15.7,1018.4,16.8z M1014.4,18.4c0.4,0.7,0.8,1.3,1.6,1.2c0.3,0,0.7-0.3,0.8-0.6
			c0.3-0.7,0-1.4-0.6-1.9c-0.6-0.6-1.7-1.1-1.9-0.8C1013.8,17.1,1014.2,17.8,1014.4,18.4z"/>
		<path id="XMLID_4594_" class="st2" d="M1036.6,8.7c0.5,1.1,0.6,2.2,0,3.3c-0.6,1.1-1.5,1.9-2.8,1.9c-1.4,0-2.3-0.8-2.9-2
			c-0.7-1.5-0.6-3.1,0.2-4.5c0.8-1.4,2.3-1.8,3.5-0.8c0.8,0.6,1.4,1.4,2,2.1C1036.7,8.6,1036.6,8.6,1036.6,8.7z M1034.7,9.4
			c-0.4-0.4-0.7-0.8-1.1-1.2c-0.3-0.3-0.6-0.2-0.8,0.1c-0.5,0.7-0.5,2.3,0.1,2.9c0.3,0.3,0.8,0.6,1.2,0.5c0.3-0.1,0.6-0.6,0.7-1
			C1035,10.3,1034.8,9.9,1034.7,9.4z"/>
	</g>
	<g id="XMLID_4577_" class="st0">
		<path id="XMLID_4590_" class="st3" d="M613,84.8c3.6,1.6,6.3,4.5,7.5,8.8c1.1,4.1-0.8,8.1-4.6,10.1c-3.4,1.8-6.9,2.1-10.6,1
			c-1.5-0.4-2.3-2-1.9-3.5c0.4-1.4,1.4-2.6,2.3-3.7c3-3.6,2.5-2.5,2.5-7c0-1.2,0-2.4,0.2-3.5C608.9,84.9,610.6,83.9,613,84.8z
			 M612.1,86.7c-1.2-0.4-1.6-0.2-1.7,1c-0.1,1.3-0.2,2.6-0.1,3.9c0.2,2.5-0.4,4.6-2.2,6.3c-0.3,0.3-0.6,0.6-0.8,0.9
			c-0.6,0.9-1.3,1.8-1.8,2.8c-0.3,0.5-0.1,0.9,0.4,1.1c0.2,0.1,0.5,0.2,0.8,0.3c3,0.7,5.8,0.2,8.5-1.2c2-1.1,3.4-2.8,3.6-5.2
			C619.1,92.9,615.9,88.1,612.1,86.7z"/>
		<path id="XMLID_4587_" class="st3" d="M626.7,94c1.4,0.6,2.6,1.4,3.5,2.7c1,1.4,0.5,2.9-1.1,3.4c-1.9,0.5-3.8,0.5-5.5-0.6
			c-1.8-1.2-2.1-3.6-0.7-4.9C624,93.6,625.3,93.5,626.7,94z M628.7,98.1c-0.9-1.2-1.8-2-3.2-2.3c-0.7-0.1-1.4,0.2-1.5,0.8
			c-0.1,0.7,0.3,1.2,0.9,1.4C626.1,98.5,627.3,98.4,628.7,98.1z"/>
		<path id="XMLID_4584_" class="st3" d="M622.5,106.5c-2.1-0.7-3.1-2.5-2.6-4.2c0.4-1.5,2-2.5,3.7-2.1c1.9,0.4,3.5,1.5,4.5,3.2
			c0.7,1.2,0.3,2.4-0.9,2.9C625.6,107,623.9,106.8,622.5,106.5z M626.4,104.5c-0.6-1-2.1-2.2-3-2.3c-0.8-0.1-1.4,0.2-1.6,0.7
			c-0.2,0.5,0.2,1.2,0.9,1.5C623.9,104.8,625.1,104.8,626.4,104.5z"/>
		<path id="XMLID_4581_" class="st3" d="M623.6,92.7c-2-0.7-3-2.3-2.7-3.8c0.4-1.6,2.1-2.7,3.9-2.5c1.3,0.2,2.4,0.8,3.3,1.8
			c1,1.3,0.8,2.8-0.5,3.7C626.2,92.9,624.8,93.1,623.6,92.7z M625.2,88.6c-0.8-0.2-1.5-0.3-2,0.3c-0.2,0.2-0.2,0.7-0.1,1
			c0.3,0.7,1,0.9,1.8,0.9c0.9,0,1.9-0.5,1.9-0.8C626.5,89.2,625.7,88.9,625.2,88.6z"/>
		<path id="XMLID_4578_" class="st3" d="M617.1,111.5c-1.1-0.4-2-1.1-2.4-2.2c-0.4-1.2-0.4-2.4,0.6-3.3c1-1,2.2-1.1,3.4-0.7
			c1.6,0.5,2.7,1.7,3.2,3.3c0.5,1.5-0.3,2.9-1.8,3.2c-0.9,0.2-1.9,0-2.9,0.1C617.1,111.6,617.1,111.5,617.1,111.5z M617.8,109.7
			c0.5,0,1.1,0,1.6,0c0.4,0,0.5-0.2,0.5-0.7c-0.2-0.8-1.3-1.9-2.2-1.9c-0.4,0-1,0.2-1.2,0.5c-0.2,0.3,0,0.9,0.2,1.2
			C617,109.2,617.4,109.4,617.8,109.7z"/>
	</g>
	<g id="XMLID_4793_" class="st0">
		<path id="XMLID_7927_" class="st3" d="M9.7,84.8c3.6,1.6,6.3,4.5,7.5,8.8c1.1,4.1-0.8,8.1-4.6,10.1c-3.4,1.8-6.9,2.1-10.6,1
			c-1.5-0.4-2.3-2-1.9-3.5c0.4-1.4,1.4-2.6,2.3-3.7c3-3.6,2.5-2.5,2.5-7c0-1.2,0-2.4,0.2-3.5C5.6,84.9,7.3,83.9,9.7,84.8z M8.8,86.7
			c-1.2-0.4-1.6-0.2-1.7,1C7,89,7,90.3,7,91.6c0.2,2.5-0.4,4.6-2.2,6.3c-0.3,0.3-0.6,0.6-0.8,0.9c-0.6,0.9-1.3,1.8-1.8,2.8
			c-0.3,0.5-0.1,0.9,0.4,1.1c0.2,0.1,0.5,0.2,0.8,0.3c3,0.7,5.8,0.2,8.5-1.2c2-1.1,3.4-2.8,3.6-5.2C15.8,92.9,12.6,88.1,8.8,86.7z"
			/>
		<path id="XMLID_7908_" class="st3" d="M23.4,94c1.4,0.6,2.6,1.4,3.5,2.7c1,1.4,0.5,2.9-1.1,3.4c-1.9,0.5-3.8,0.5-5.5-0.6
			c-1.8-1.2-2.1-3.6-0.7-4.9C20.8,93.6,22.1,93.5,23.4,94z M25.4,98.1c-0.9-1.2-1.8-2-3.2-2.3c-0.7-0.1-1.4,0.2-1.5,0.8
			c-0.1,0.7,0.3,1.2,0.9,1.4C22.8,98.5,24,98.4,25.4,98.1z"/>
		<path id="XMLID_4800_" class="st3" d="M19.3,106.5c-2.1-0.7-3.1-2.5-2.6-4.2c0.4-1.5,2-2.5,3.7-2.1c1.9,0.4,3.5,1.5,4.5,3.2
			c0.7,1.2,0.3,2.4-0.9,2.9C22.3,107,20.7,106.8,19.3,106.5z M23.1,104.5c-0.6-1-2.1-2.2-3-2.3c-0.8-0.1-1.4,0.2-1.6,0.7
			c-0.2,0.5,0.2,1.2,0.9,1.5C20.6,104.8,21.8,104.8,23.1,104.5z"/>
		<path id="XMLID_4797_" class="st3" d="M20.3,92.7c-2-0.7-3-2.3-2.7-3.8c0.4-1.6,2.1-2.7,3.9-2.5c1.3,0.2,2.4,0.8,3.3,1.8
			c1,1.3,0.8,2.8-0.5,3.7C22.9,92.9,21.5,93.1,20.3,92.7z M21.9,88.6c-0.8-0.2-1.5-0.3-2,0.3c-0.2,0.2-0.2,0.7-0.1,1
			c0.3,0.7,1,0.9,1.8,0.9c0.9,0,1.9-0.5,1.9-0.8C23.2,89.2,22.5,88.9,21.9,88.6z"/>
		<path id="XMLID_4794_" class="st3" d="M13.8,111.5c-1.1-0.4-2-1.1-2.4-2.2c-0.4-1.2-0.4-2.4,0.6-3.3c1-1,2.2-1.1,3.4-0.7
			c1.6,0.5,2.7,1.7,3.2,3.3c0.5,1.5-0.3,2.9-1.8,3.2c-0.9,0.2-1.9,0-2.9,0.1C13.8,111.6,13.8,111.5,13.8,111.5z M14.5,109.7
			c0.5,0,1.1,0,1.6,0c0.4,0,0.5-0.2,0.5-0.7c-0.2-0.8-1.3-1.9-2.2-1.9c-0.4,0-1,0.2-1.2,0.5c-0.2,0.3,0,0.9,0.2,1.2
			C13.7,109.2,14.1,109.4,14.5,109.7z"/>
	</g>
	<g id="XMLID_4561_" class="st0">
		<path id="XMLID_4574_" class="st2" d="M215,156.5c1.7-3.5,4.8-6.2,9-7.2c4.2-1,8.1,1,10,5c1.6,3.4,1.9,7,0.7,10.6
			c-0.5,1.5-2.1,2.3-3.6,1.8c-1.4-0.5-2.5-1.4-3.6-2.4c-3.5-3.1-2.4-2.6-6.9-2.8c-1.2,0-2.4-0.1-3.5-0.4
			C214.9,160.7,214,158.9,215,156.5z M216.8,157.5c-0.5,1.1-0.3,1.6,1,1.7c1.3,0.2,2.6,0.3,3.9,0.2c2.5-0.1,4.6,0.6,6.3,2.5
			c0.3,0.3,0.6,0.6,0.9,0.8c0.9,0.7,1.8,1.3,2.7,1.9c0.5,0.3,0.9,0.1,1.1-0.4c0.1-0.2,0.2-0.5,0.3-0.7c0.8-2.9,0.4-5.8-0.9-8.5
			c-1-2.1-2.7-3.5-5.1-3.8C223.3,150.8,218.3,153.8,216.8,157.5z"/>
		<path id="XMLID_4571_" class="st2" d="M224.6,143.2c0.7-1.3,1.5-2.6,2.8-3.4c1.5-0.9,2.9-0.4,3.3,1.3c0.5,1.9,0.4,3.8-0.7,5.4
			c-1.2,1.8-3.6,2-4.9,0.5C224.1,145.8,224.1,144.5,224.6,143.2z M228.8,141.3c-1.2,0.8-2.1,1.8-2.4,3.1c-0.2,0.7,0.2,1.4,0.7,1.5
			c0.7,0.2,1.2-0.3,1.4-0.8C229.1,143.9,229.1,142.7,228.8,141.3z"/>
		<path id="XMLID_4568_" class="st2" d="M236.9,147.8c-0.8,2.1-2.6,3-4.3,2.5c-1.5-0.5-2.4-2.1-2-3.8c0.5-1.9,1.6-3.4,3.3-4.4
			c1.2-0.7,2.4-0.2,2.9,1.1C237.6,144.8,237.3,146.4,236.9,147.8z M235.1,143.9c-1.1,0.6-2.2,2-2.4,2.9c-0.2,0.8,0.1,1.4,0.6,1.6
			c0.5,0.2,1.2-0.1,1.5-0.8C235.4,146.4,235.4,145.2,235.1,143.9z"/>
		<path id="XMLID_4565_" class="st2" d="M223.3,146.3c-0.8,2-2.4,3-3.9,2.5c-1.6-0.5-2.6-2.2-2.3-4c0.2-1.3,0.9-2.4,2-3.2
			c1.3-1,2.8-0.7,3.7,0.7C223.6,143.6,223.6,145.1,223.3,146.3z M219.2,144.5c-0.2,0.8-0.3,1.5,0.3,2c0.2,0.2,0.7,0.3,1,0.2
			c0.7-0.3,0.9-1,1-1.7c0-0.9-0.4-2-0.8-1.9C219.8,143.2,219.6,144,219.2,144.5z"/>
		<path id="XMLID_4562_" class="st2" d="M241.8,153.4c-0.4,1.1-1.1,2-2.3,2.4c-1.2,0.4-2.4,0.3-3.3-0.7c-0.9-1-1-2.2-0.6-3.5
			c0.6-1.6,1.7-2.6,3.4-3.1c1.5-0.4,2.8,0.4,3.1,1.9c0.1,0.9,0,1.9-0.1,2.9C241.9,153.4,241.8,153.4,241.8,153.4z M240,152.7
			c0-0.5,0.1-1.1,0.1-1.6c0-0.4-0.2-0.6-0.6-0.5c-0.8,0.1-2,1.2-2,2.1c0,0.4,0.2,1,0.5,1.2c0.3,0.2,0.9,0,1.2-0.2
			C239.5,153.5,239.7,153,240,152.7z"/>
	</g>
	<g id="XMLID_4545_" class="st0">
		<path id="XMLID_4558_" class="st3" d="M974.6,288.1c1.6-3.1,4.5-5.3,8.8-6c4.1-0.7,8.2,1.3,10.3,5c1.8,3.2,2.2,6.4,1.2,9.6
			c-0.4,1.3-2,1.9-3.5,1.4c-1.5-0.5-2.6-1.4-3.8-2.4c-3.7-3-2.6-2.5-7.1-2.9c-1.2-0.1-2.4-0.2-3.6-0.5
			C974.7,291.8,973.7,290.2,974.6,288.1z M976.5,289.1c-0.4,1-0.2,1.4,1.1,1.6c1.3,0.2,2.6,0.4,4,0.4c2.5,0,4.7,0.7,6.4,2.5
			c0.3,0.3,0.6,0.6,0.9,0.8c0.9,0.6,1.9,1.3,2.8,1.9c0.5,0.3,0.9,0.2,1.1-0.3c0.1-0.2,0.2-0.4,0.3-0.7c0.6-2.6,0.2-5.2-1.3-7.7
			c-1.2-1.9-2.9-3.3-5.3-3.7C982.7,283.3,977.9,285.8,976.5,289.1z"/>
		<path id="XMLID_4555_" class="st3" d="M983.7,276.5c0.6-1.2,1.4-2.2,2.7-2.9c1.4-0.8,2.9-0.2,3.4,1.3c0.6,1.7,0.6,3.4-0.5,4.9
			c-1.2,1.6-3.6,1.6-5,0.2C983.3,278.9,983.2,277.8,983.7,276.5z M987.8,275.1c-1.2,0.7-2,1.5-2.3,2.7c-0.1,0.6,0.2,1.2,0.8,1.4
			c0.7,0.2,1.2-0.2,1.4-0.7C988.2,277.5,988.2,276.4,987.8,275.1z"/>
		<path id="XMLID_4552_" class="st3" d="M996.3,281.3c-0.7,1.8-2.5,2.6-4.2,2c-1.5-0.5-2.5-2-2.2-3.5c0.4-1.7,1.5-3,3.1-3.8
			c1.2-0.6,2.4-0.1,3,1.1C996.8,278.6,996.6,280.1,996.3,281.3z M994.3,277.7c-1,0.5-2.2,1.7-2.3,2.5c-0.1,0.7,0.2,1.3,0.7,1.5
			c0.5,0.2,1.2-0.1,1.5-0.7C994.7,280,994.6,278.9,994.3,277.7z"/>
		<path id="XMLID_4549_" class="st3" d="M982.5,279.3c-0.7,1.7-2.3,2.5-3.8,2.1c-1.7-0.5-2.8-2.1-2.5-3.7c0.2-1.2,0.8-2.1,1.8-2.8
			c1.3-0.8,2.8-0.5,3.8,0.8C982.6,276.9,982.8,278.2,982.5,279.3z M978.3,277.5c-0.2,0.7-0.2,1.3,0.4,1.8c0.2,0.2,0.7,0.3,1,0.2
			c0.7-0.2,0.9-0.8,0.9-1.5c0-0.8-0.5-1.8-0.9-1.7C978.8,276.4,978.6,277,978.3,277.5z"/>
		<path id="XMLID_4546_" class="st3" d="M1001.5,286.7c-0.4,1-1,1.7-2.2,2c-1.2,0.3-2.4,0.2-3.3-0.8c-1-1-1.2-2.1-0.8-3.2
			c0.5-1.4,1.6-2.3,3.2-2.6c1.5-0.3,2.9,0.5,3.2,1.9c0.2,0.9,0.1,1.8,0.1,2.6C1001.6,286.7,1001.5,286.7,1001.5,286.7z M999.6,285.9
			c0-0.5,0-1,0-1.5c0-0.3-0.3-0.5-0.7-0.5c-0.8,0.1-1.9,1-1.9,1.8c0,0.4,0.2,0.9,0.5,1.1c0.3,0.2,0.9,0.1,1.2-0.1
			C999.2,286.6,999.3,286.2,999.6,285.9z"/>
	</g>
	<g id="XMLID_4529_" class="st0">
		<path id="XMLID_4542_" class="st4" d="M791.5,66.1c-3.6-3.2-5.6-7.6-5.4-13c0.2-5.2,3.9-9.1,9.2-10c4.6-0.8,8.8,0.1,12.7,2.7
			c1.6,1.1,2,3.2,0.9,4.8c-1,1.5-2.5,2.5-4,3.4c-4.8,3.1-3.9,2-5.6,7.2c-0.4,1.4-0.9,2.8-1.6,4C796.3,67.6,793.9,68.1,791.5,66.1z
			 M793.2,64.4c1.2,0.9,1.8,0.8,2.4-0.6c0.6-1.5,1.2-3,1.6-4.5c0.7-2.9,2.2-5.2,4.9-6.5c0.4-0.2,0.9-0.5,1.3-0.8
			c1.1-0.8,2.1-1.6,3.2-2.5c0.5-0.4,0.5-1-0.1-1.4c-0.2-0.2-0.5-0.4-0.8-0.6c-3.2-1.9-6.6-2.4-10.2-1.8c-2.8,0.5-5,2-6.2,4.7
			C787.4,54.6,789.3,61.3,793.2,64.4z"/>
		<path id="XMLID_4539_" class="st4" d="M779,50.5c-1.3-1.2-2.5-2.6-3-4.4c-0.6-2,0.5-3.6,2.6-3.5c2.4,0.1,4.6,0.8,6.1,2.7
			c1.7,2,1.1,4.9-1.1,5.9C782,51.9,780.5,51.5,779,50.5z M778.2,44.9c0.5,1.7,1.4,3,2.8,3.8c0.8,0.4,1.7,0.2,2-0.3
			c0.4-0.8,0.1-1.5-0.5-2C781.4,45.5,780,45.1,778.2,44.9z"/>
		<path id="XMLID_4536_" class="st4" d="M788.5,37.6c2.2,1.6,2.7,4.1,1.5,5.8c-1.1,1.6-3.3,2.1-5.1,1c-2.1-1.2-3.4-3-4-5.4
			c-0.4-1.6,0.5-2.9,2.2-3.1C785.2,35.8,787,36.6,788.5,37.6z M783.3,38.4c0.3,1.4,1.6,3.3,2.6,3.8c0.8,0.4,1.7,0.3,2.1-0.2
			c0.4-0.6,0.2-1.4-0.5-2C786.3,38.9,784.9,38.5,783.3,38.4z"/>
		<path id="XMLID_4533_" class="st4" d="M782.2,53.1c2.1,1.6,2.7,3.8,1.7,5.4c-1.1,1.8-3.5,2.4-5.5,1.4c-1.5-0.7-2.5-1.9-3.1-3.4
			c-0.7-1.8,0.1-3.6,2-4.1C779.2,51.8,780.9,52.2,782.2,53.1z M778.8,57.2c0.8,0.5,1.6,0.9,2.4,0.4c0.3-0.2,0.5-0.7,0.5-1.1
			c-0.1-1-0.8-1.4-1.7-1.7c-1-0.3-2.4-0.2-2.5,0.3C777.5,56.1,778.3,56.6,778.8,57.2z"/>
		<path id="XMLID_4530_" class="st4" d="M796.7,33.8c1.1,0.9,1.9,2,2,3.5c0,1.5-0.4,2.9-1.9,3.6c-1.5,0.8-3,0.5-4.3-0.5
			c-1.7-1.2-2.5-2.9-2.5-5c0-1.9,1.4-3.2,3.3-3c1.2,0.1,2.3,0.7,3.4,1C796.8,33.6,796.7,33.7,796.7,33.8z M795.2,35.6
			c-0.6-0.2-1.2-0.5-1.9-0.6c-0.4-0.1-0.7,0.1-0.8,0.6c-0.1,1,0.8,2.7,1.8,3c0.5,0.1,1.2,0.1,1.5-0.2c0.3-0.3,0.3-1,0.2-1.5
			C796,36.4,795.6,36.1,795.2,35.6z"/>
	</g>
	<g id="XMLID_4513_" class="st5">
		<path id="XMLID_4526_" class="st6" d="M512.6,311c-3.6-3.2-5.7-7.6-5.4-13c0.2-5.2,3.9-9.2,9.2-10.1c4.6-0.8,8.8,0.1,12.7,2.8
			c1.6,1.1,2,3.2,0.9,4.8c-1,1.5-2.5,2.5-4,3.4c-4.8,3.1-3.9,2-5.6,7.2c-0.4,1.4-0.9,2.8-1.6,4C517.5,312.5,515.1,313,512.6,311z
			 M514.4,309.2c1.2,0.9,1.8,0.8,2.4-0.6c0.6-1.5,1.2-3,1.6-4.5c0.7-2.9,2.2-5.2,5-6.5c0.5-0.2,0.9-0.5,1.3-0.8
			c1.1-0.8,2.1-1.7,3.2-2.5c0.5-0.4,0.5-1-0.1-1.5c-0.2-0.2-0.5-0.4-0.8-0.6c-3.2-1.9-6.7-2.4-10.3-1.8c-2.8,0.5-5,2-6.2,4.7
			C508.6,299.4,510.5,306.2,514.4,309.2z"/>
		<path id="XMLID_4523_" class="st6" d="M500.1,295.3c-1.3-1.2-2.5-2.6-3-4.5c-0.6-2,0.5-3.6,2.6-3.5c2.4,0.1,4.6,0.8,6.2,2.7
			c1.7,2,1.1,5-1.1,6C503.1,296.7,501.6,296.3,500.1,295.3z M499.4,289.8c0.5,1.7,1.4,3,2.8,3.9c0.8,0.4,1.7,0.2,2-0.3
			c0.4-0.8,0.1-1.5-0.5-2C502.5,290.3,501.1,289.9,499.4,289.8z"/>
		<path id="XMLID_4520_" class="st6" d="M509.7,282.4c2.2,1.7,2.7,4.1,1.5,5.8c-1.1,1.6-3.3,2.1-5.1,1.1c-2.1-1.2-3.4-3-4-5.4
			c-0.4-1.6,0.5-2.9,2.2-3.1C506.3,280.6,508.2,281.4,509.7,282.4z M504.4,283.2c0.3,1.4,1.7,3.3,2.6,3.8c0.8,0.4,1.7,0.3,2.1-0.2
			c0.4-0.6,0.2-1.4-0.5-2C507.5,283.7,506,283.3,504.4,283.2z"/>
		<path id="XMLID_4517_" class="st6" d="M503.4,297.9c2.1,1.6,2.7,3.8,1.7,5.4c-1.1,1.8-3.5,2.4-5.5,1.4c-1.5-0.7-2.5-1.9-3.1-3.4
			c-0.7-1.9,0.1-3.6,2-4.1C500.3,296.7,502.1,297.1,503.4,297.9z M500,302.1c0.8,0.5,1.6,0.9,2.5,0.4c0.3-0.2,0.5-0.7,0.5-1.1
			c-0.1-1-0.8-1.4-1.7-1.7c-1-0.3-2.4-0.2-2.5,0.3C498.6,300.9,499.4,301.5,500,302.1z"/>
		<path id="XMLID_4514_" class="st6" d="M517.9,278.6c1.1,0.9,2,2,2,3.5c0,1.6-0.4,2.9-1.9,3.6c-1.5,0.8-3,0.5-4.3-0.5
			c-1.7-1.2-2.5-2.9-2.5-5c0-1.9,1.4-3.2,3.3-3c1.2,0.1,2.3,0.7,3.4,1C518,278.4,517.9,278.5,517.9,278.6z M516.4,280.4
			c-0.6-0.2-1.2-0.5-1.9-0.6c-0.4-0.1-0.7,0.1-0.8,0.6c-0.1,1,0.8,2.7,1.8,3c0.5,0.1,1.2,0.1,1.5-0.2c0.3-0.3,0.3-1,0.2-1.5
			C517.2,281.2,516.7,280.9,516.4,280.4z"/>
	</g>
	<g id="XMLID_4497_" class="st0">
		<path id="XMLID_4510_" class="st6" d="M1217.8,152.5c-2.5-2.2-3.9-5.2-3.7-8.9c0.2-3.6,2.7-6.3,6.3-6.9c3.1-0.5,6.1,0.1,8.7,1.9
			c1.1,0.7,1.3,2.2,0.6,3.3c-0.7,1-1.7,1.7-2.8,2.4c-3.3,2.1-2.7,1.4-3.8,4.9c-0.3,0.9-0.6,1.9-1.1,2.8
			C1221.1,153.5,1219.5,153.8,1217.8,152.5z M1219,151.3c0.8,0.6,1.2,0.6,1.6-0.4c0.4-1,0.8-2,1.1-3.1c0.5-2,1.5-3.6,3.4-4.5
			c0.3-0.1,0.6-0.3,0.9-0.5c0.7-0.6,1.5-1.1,2.2-1.7c0.4-0.3,0.3-0.7,0-1c-0.2-0.1-0.3-0.3-0.5-0.4c-2.2-1.3-4.6-1.7-7-1.2
			c-1.9,0.4-3.4,1.4-4.2,3.2C1215,144.5,1216.3,149.2,1219,151.3z"/>
		<path id="XMLID_4507_" class="st6" d="M1209.2,141.7c-0.9-0.8-1.7-1.8-2.1-3.1c-0.4-1.4,0.3-2.4,1.8-2.4c1.6,0.1,3.1,0.5,4.2,1.8
			c1.2,1.4,0.8,3.4-0.7,4.1C1211.2,142.7,1210.2,142.4,1209.2,141.7z M1208.7,137.9c0.4,1.2,1,2.1,1.9,2.6c0.5,0.3,1.1,0.2,1.4-0.2
			c0.3-0.5,0.1-1-0.3-1.4C1210.9,138.3,1209.9,138,1208.7,137.9z"/>
		<path id="XMLID_4504_" class="st6" d="M1215.7,132.8c1.5,1.1,1.8,2.8,1,4c-0.7,1.1-2.2,1.4-3.5,0.7c-1.5-0.8-2.4-2.1-2.8-3.7
			c-0.3-1.1,0.4-2,1.5-2.1C1213.5,131.6,1214.7,132.2,1215.7,132.8z M1212.2,133.4c0.2,1,1.1,2.3,1.8,2.6c0.6,0.3,1.2,0.2,1.4-0.1
			c0.3-0.4,0.2-1-0.3-1.4C1214.2,133.8,1213.3,133.5,1212.2,133.4z"/>
		<path id="XMLID_4501_" class="st6" d="M1211.4,143.5c1.4,1.1,1.8,2.6,1.2,3.7c-0.8,1.2-2.4,1.6-3.8,0.9c-1-0.5-1.7-1.3-2.1-2.3
			c-0.5-1.3,0.1-2.4,1.4-2.8C1209.3,142.7,1210.5,142.9,1211.4,143.5z M1209.1,146.4c0.6,0.4,1.1,0.6,1.7,0.2
			c0.2-0.1,0.4-0.5,0.3-0.8c-0.1-0.7-0.6-1-1.2-1.2c-0.7-0.2-1.7-0.1-1.7,0.2C1208.2,145.6,1208.7,146,1209.1,146.4z"/>
		<path id="XMLID_4498_" class="st6" d="M1221.4,130.2c0.8,0.6,1.3,1.4,1.4,2.4c0,1.1-0.3,2-1.3,2.5c-1,0.5-2,0.3-2.9-0.3
			c-1.1-0.8-1.7-2-1.7-3.4c0-1.3,0.9-2.2,2.3-2c0.8,0.1,1.6,0.5,2.3,0.7C1221.4,130.1,1221.4,130.2,1221.4,130.2z M1220.4,131.5
			c-0.4-0.1-0.9-0.3-1.3-0.4c-0.3-0.1-0.5,0.1-0.5,0.4c-0.1,0.7,0.5,1.9,1.2,2.1c0.3,0.1,0.8,0.1,1.1-0.1c0.2-0.2,0.2-0.7,0.1-1
			C1220.9,132.1,1220.6,131.8,1220.4,131.5z"/>
	</g>
</g>
</svg>
