<?xml version="1.0" encoding="utf-8"?>
<!-- Generator: Adobe Illustrator 23.0.5, SVG Export Plug-In . SVG Version: 6.00 Build 0)  -->
<svg version="1.1" id="Capa_1" xmlns="http://www.w3.org/2000/svg" xmlns:xlink="http://www.w3.org/1999/xlink" x="0px" y="0px"
	 viewBox="0 0 1258.9 252.6" style="enable-background:new 0 0 1258.9 252.6;" xml:space="preserve">
<style type="text/css">
	.st0{opacity:0.3;}
	.st1{fill:#C4124D;}
	.st2{fill:#E83E3D;}
	.st3{fill:#2EABE2;}
	.st4{fill:#6B922D;}
	.st5{fill:none;stroke:#C4124D;stroke-width:4;stroke-miterlimit:10;}
	.st6{fill:#FFD844;}
	.st7{fill:#F19A13;}
	.st8{fill:#ED6C09;}
	.st9{fill:none;stroke:#2EABE2;stroke-width:4;stroke-miterlimit:10;}
	.st10{fill:none;stroke:#8E3089;stroke-width:5;stroke-miterlimit:10;}
</style>
<g id="XMLID_133_" class="st0">
	<g id="XMLID_5724_">
		<g id="XMLID_5734_">
			<path id="XMLID_5735_" class="st1" d="M979.9,60.6c-1.1-0.1-5-0.4-7.6,2.1c-2.5,2.5-2.3,6.4-2.1,7.6c1.1,0.1,5,0.4,7.6-2.1
				C980.3,65.6,980,61.7,979.9,60.6z"/>
		</g>
		<g id="XMLID_5732_">
			<path id="XMLID_5733_" class="st1" d="M970.9,62.9c-0.1-0.1-0.1-0.1-0.2-0.2c-2.5-2.5-6.4-2.3-7.6-2.1c-0.1,1.1-0.4,5,2.1,7.6
				c1.1,1.1,2.6,1.7,3.9,2C969.1,68.8,969,65.5,970.9,62.9z"/>
		</g>
		<g id="XMLID_5730_">
			<path id="XMLID_5731_" class="st1" d="M971.5,62.2l0.1-0.1c0.4-0.4,0.8-0.7,1.2-1c-0.3-0.9-0.7-1.9-1.5-2.6
				c-2.1-2.1-5.4-1.9-6.4-1.8c-0.1,0.5-0.1,1.7,0.1,2.9c1.9,0,4.5,0.5,6.5,2.5C971.5,62.1,971.5,62.1,971.5,62.2z"/>
		</g>
		<g id="XMLID_5728_">
			<path id="XMLID_5729_" class="st1" d="M977.8,56.6c-0.9-0.1-3.6-0.3-5.7,1.2c0.8,0.8,1.3,1.8,1.6,2.7c1.4-0.7,2.8-1,4-1
				C977.9,58.3,977.9,57.2,977.8,56.6z"/>
		</g>
		<g id="XMLID_5725_">
			<path id="XMLID_5726_" class="st1" d="M971.5,50.4c-0.8,0.6-3.5,2.5-3.8,5.4c1.2,0.2,2.4,0.6,3.6,1.5c1.3-1,2.7-1.4,4-1.5
				C975,52.9,972.4,50.9,971.5,50.4z"/>
		</g>
	</g>
	<g id="XMLID_5684_">
		<g id="XMLID_5722_">
			<path id="XMLID_5723_" class="st1" d="M290.6,115.3c-1-0.5-4.6-2.1-7.9-0.6s-4.4,5.2-4.6,6.4c1,0.5,4.6,2.1,7.9,0.6
				C289.2,120.2,290.3,116.4,290.6,115.3z"/>
		</g>
		<g id="XMLID_5720_">
			<path id="XMLID_5721_" class="st1" d="M281.4,114.3c0-0.1-0.1-0.1-0.1-0.2c-1.5-3.3-5.2-4.4-6.4-4.6c-0.5,1-2.1,4.6-0.6,7.9
				c0.7,1.5,1.8,2.5,3,3.2C277.6,119.2,278.6,116.1,281.4,114.3z"/>
		</g>
		<g id="XMLID_5693_">
			<path id="XMLID_5707_" class="st1" d="M282.2,113.9c0,0,0.1,0,0.1-0.1c0.5-0.2,1-0.4,1.4-0.5c0.1-1-0.1-2-0.5-3
				c-1.3-2.7-4.4-3.7-5.4-3.9c-0.2,0.5-0.7,1.5-0.9,2.8c1.7,0.7,4,2,5.2,4.6C282.2,113.8,282.2,113.8,282.2,113.9z"/>
		</g>
		<g id="XMLID_5687_">
			<path id="XMLID_5690_" class="st1" d="M290,110.9c-0.8-0.4-3.3-1.5-5.8-0.8c0.5,1.1,0.6,2.1,0.6,3.1c1.5-0.2,3,0.1,4.1,0.4
				C289.5,112.5,289.9,111.4,290,110.9z"/>
		</g>
		<g id="XMLID_5685_">
			<path id="XMLID_5686_" class="st1" d="M286.3,102.8c-1,0.2-4.1,1.2-5.4,3.7c1,0.6,2.1,1.4,2.8,2.6c1.5-0.5,3-0.4,4.3-0.1
				C288.7,106.4,286.9,103.6,286.3,102.8z"/>
		</g>
	</g>
	<g id="XMLID_5682_">
		<path id="XMLID_5683_" class="st2" d="M709.6,25.7c-3.5-4.4-9.7-5.3-13.5-1.8c-2.8,2.5-3.4,6.8-1.8,10.6c0.7,1.6,1.7,2.8,2.9,3.8
			l0,0l24.6,19.5c0.7,0.6,1.7-0.1,1.3-1l-12.3-29.3C710.5,26.8,710.1,26.2,709.6,25.7z"/>
	</g>
	<g id="XMLID_5680_">
		<path id="XMLID_5681_" class="st2" d="M1255,111.5c4.4-3.5,5.3-9.7,1.8-13.5c-2.5-2.8-6.8-3.4-10.6-1.8c-1.6,0.7-2.8,1.7-3.8,2.9
			l0,0l-19.5,24.6c-0.6,0.7,0.1,1.7,1,1.3l29.3-12.3C1253.8,112.3,1254.4,111.9,1255,111.5z"/>
	</g>
	<circle id="XMLID_5679_" class="st3" cx="690.9" cy="106" r="6"/>
	<circle id="XMLID_5676_" class="st4" cx="472.5" cy="188.2" r="6"/>
	<circle id="XMLID_5675_" class="st5" cx="530.7" cy="39.9" r="8.4"/>
	<circle id="XMLID_197_" class="st5" cx="21.4" cy="106.4" r="8.4"/>
	<circle id="XMLID_5672_" class="st4" cx="762.8" cy="194.2" r="8.4"/>
	<circle id="XMLID_5671_" class="st6" cx="1222" cy="27.3" r="8.4"/>
	<g id="XMLID_5667_">
		<g id="XMLID_5668_">
			<path id="XMLID_5670_" class="st7" d="M1030.8,249.9c-7.5,4.9-17.7,2.8-22.6-4.7c-4.9-7.5-2.8-17.7,4.7-22.6L1030.8,249.9z"/>
			<path id="XMLID_5669_" class="st8" d="M1028.4,246.3c-5.6,3.7-13.1,2.1-16.7-3.5c-3.7-5.6-2.1-13.1,3.5-16.7L1028.4,246.3z"/>
		</g>
	</g>
	<g id="XMLID_5663_">
		<g id="XMLID_5664_">
			<path id="XMLID_5666_" class="st7" d="M464.4,74.3c3.6,8.3-0.3,17.9-8.6,21.4c-8.3,3.6-17.9-0.3-21.4-8.6L464.4,74.3z"/>
			<path id="XMLID_5665_" class="st8" d="M460.5,75.9c2.6,6.1-0.2,13.2-6.3,15.9c-6.1,2.6-13.2-0.2-15.9-6.3L460.5,75.9z"/>
		</g>
	</g>
	<path id="XMLID_5662_" class="st9" d="M284.6,36.8l-10.9-28c-1-2.6,0.3-5.5,2.8-6.5l0,0c2.6-1,5.5,0.3,6.5,2.8l10.9,28
		c1,2.6-0.3,5.5-2.8,6.5l0,0C288.5,40.6,285.6,39.3,284.6,36.8z"/>
	<path id="XMLID_5661_" class="st10" d="M777.2,77.8l16.3-27.4c1.5-2.4,4.6-3.3,7.1-1.8l0,0c2.4,1.5,3.3,4.6,1.8,7.1l-16.3,27.4
		c-1.5,2.4-4.6,3.3-7.1,1.8l0,0C776.6,83.5,775.8,80.3,777.2,77.8z"/>
	<path id="XMLID_5658_" class="st8" d="M1023.1,121.5c0.1-0.1,0.2-0.3,0.2-0.5c-0.8-2.9-3-5.4-6.1-6.4s-6.4-0.2-8.7,1.8
		c-0.1,0.1-0.2,0.3-0.2,0.5c0.8,2.9,3,5.4,6.1,6.4C1017.5,124.2,1020.8,123.4,1023.1,121.5z"/>
	<path id="XMLID_198_" class="st8" d="M220.6,201.6c0.1-0.1,0.2-0.3,0.2-0.5c-0.8-2.9-3-5.4-6.1-6.4s-6.4-0.2-8.7,1.8
		c-0.1,0.1-0.2,0.3-0.2,0.5c0.8,2.9,3,5.4,6.1,6.4C215.1,204.3,218.3,203.5,220.6,201.6z"/>
	<path id="XMLID_5657_" class="st8" d="M510.8,136.4c0,0.3,0.1,0.5,0.3,0.7c3.6,2.2,8.1,2.5,12.1,0.5s6.4-5.9,6.8-10
		c0-0.3-0.1-0.5-0.3-0.7c-3.6-2.2-8.1-2.5-12.1-0.5C513.7,128.4,511.2,132.2,510.8,136.4z"/>
	<path id="XMLID_5654_" class="st4" d="M1061.6,28c-0.1-0.4-0.5-0.6-0.9-0.6c-5.9-0.5-12,2-15.8,7.1s-4.5,11.6-2.4,17.2
		c0.1,0.4,0.5,0.6,0.9,0.6c5.9,0.5,12-2,15.8-7.1C1063.1,40.1,1063.7,33.6,1061.6,28z"/>
	<g id="XMLID_4630_">
		<path id="XMLID_4636_" class="st2" d="M213.6,111.5c4.4-3.5,5.3-9.7,1.8-13.5c-2.5-2.8-6.8-3.4-10.6-1.8c-1.6,0.7-2.8,1.7-3.8,2.9
			l0,0l-19.5,24.6c-0.6,0.7,0.1,1.7,1,1.3l29.3-12.3C212.4,112.3,213,111.9,213.6,111.5z"/>
	</g>
	<circle id="XMLID_4629_" class="st6" cx="180.6" cy="27.3" r="8.4"/>
	<path id="XMLID_23_" class="st4" d="M20.2,28c-0.1-0.4-0.5-0.6-0.9-0.6c-5.9-0.5-12,2-15.8,7.1S-1,46.1,1.1,51.7
		c0.1,0.4,0.5,0.6,0.9,0.6c5.9,0.5,12-2,15.8-7.1C21.7,40.1,22.4,33.6,20.2,28z"/>
</g>
</svg>
