<?xml version="1.0" encoding="utf-8"?>
<!-- Generator: Adobe Illustrator 23.0.5, SVG Export Plug-In . SVG Version: 6.00 Build 0)  -->
<svg version="1.1" id="Capa_1" xmlns="http://www.w3.org/2000/svg" xmlns:xlink="http://www.w3.org/1999/xlink" x="0px" y="0px"
	 viewBox="0 0 1267.6 191.5" style="enable-background:new 0 0 1267.6 191.5;" xml:space="preserve">
<style type="text/css">
	.st0{opacity:0.3;}
	.st1{fill:#C4124D;}
	.st2{fill:#E83E3D;}
	.st3{fill:#6B922D;}
	.st4{fill:none;stroke:#C4124D;stroke-width:4;stroke-miterlimit:10;}
	.st5{fill:#FFD844;}
	.st6{fill:#F19A13;}
	.st7{fill:#ED6C09;}
	.st8{fill:none;stroke:#2EABE2;stroke-width:4;stroke-miterlimit:10;}
	.st9{fill:none;stroke:#8E3089;stroke-width:5;stroke-miterlimit:10;}
</style>
<g id="XMLID_23_" class="st0">
	<g id="XMLID_4803_">
		<g id="XMLID_5652_">
			<path id="XMLID_5653_" class="st1" d="M976.8,60.3c-1.1-0.1-5-0.4-7.6,2.1c-2.5,2.5-2.3,6.4-2.1,7.6c1.1,0.1,5,0.4,7.6-2.1
				C977.2,65.4,977,61.5,976.8,60.3z"/>
		</g>
		<g id="XMLID_5650_">
			<path id="XMLID_5651_" class="st1" d="M967.8,62.6c-0.1-0.1-0.1-0.1-0.2-0.2c-2.5-2.5-6.4-2.3-7.6-2.1c-0.1,1.1-0.4,5,2.1,7.6
				c1.1,1.1,2.6,1.7,3.9,2C966,68.5,965.9,65.3,967.8,62.6z"/>
		</g>
		<g id="XMLID_4808_">
			<path id="XMLID_5649_" class="st1" d="M968.5,61.9l0.1-0.1c0.4-0.4,0.8-0.7,1.2-1c-0.3-0.9-0.7-1.9-1.5-2.6
				c-2.1-2.1-5.4-1.9-6.4-1.8c-0.1,0.5-0.1,1.7,0.1,2.9c1.9,0,4.5,0.5,6.5,2.5C968.4,61.8,968.4,61.9,968.5,61.9z"/>
		</g>
		<g id="XMLID_4806_">
			<path id="XMLID_4807_" class="st1" d="M974.7,56.4c-0.9-0.1-3.6-0.3-5.7,1.2c0.8,0.8,1.3,1.8,1.6,2.7c1.4-0.7,2.8-1,4-1
				C974.9,58.1,974.8,56.9,974.7,56.4z"/>
		</g>
		<g id="XMLID_4804_">
			<path id="XMLID_4805_" class="st1" d="M968.5,50.1c-0.8,0.6-3.5,2.5-3.8,5.4c1.2,0.2,2.4,0.6,3.6,1.5c1.3-1,2.7-1.4,4-1.5
				C971.9,52.7,969.3,50.7,968.5,50.1z"/>
		</g>
	</g>
	<g id="XMLID_4790_">
		<path id="XMLID_4791_" class="st2" d="M706.5,40.1c-3.5-4.4-9.7-5.3-13.5-1.8c-2.8,2.5-3.4,6.8-1.8,10.6c0.7,1.6,1.7,2.8,2.9,3.8
			l0,0l24.6,19.5c0.7,0.6,1.7-0.1,1.3-1l-12.3-29.3C707.3,41.2,707,40.6,706.5,40.1z"/>
	</g>
	<g id="XMLID_4788_">
		<path id="XMLID_4789_" class="st2" d="M1263.7,90.4c4.4-3.5,5.3-9.7,1.8-13.5c-2.5-2.8-6.8-3.4-10.6-1.8c-1.6,0.7-2.8,1.7-3.8,2.9
			l0,0l-19.5,24.6c-0.6,0.7,0.1,1.7,1,1.3l29.3-12.3C1262.5,91.2,1263.1,90.9,1263.7,90.4z"/>
	</g>
	<g id="XMLID_7916_">
		<path id="XMLID_7918_" class="st2" d="M41,27c4.4-3.5,5.3-9.7,1.8-13.5c-2.5-2.8-6.8-3.4-10.6-1.8c-1.6,0.7-2.8,1.7-3.8,2.9l0,0
			L8.9,39.1c-0.6,0.7,0.1,1.7,1,1.3l29.3-12.3C39.8,27.8,40.4,27.5,41,27z"/>
	</g>
	<circle id="XMLID_4784_" class="st3" cx="455.5" cy="83" r="6"/>
	<circle id="XMLID_4783_" class="st4" cx="562.4" cy="42.8" r="8.4"/>
	<circle id="XMLID_4792_" class="st4" cx="261.3" cy="181.1" r="8.4"/>
	<circle id="XMLID_4780_" class="st3" cx="798.6" cy="113.3" r="8.4"/>
	<circle id="XMLID_4779_" class="st5" cx="1222.9" cy="13" r="8.4"/>
	<g id="XMLID_4775_">
		<g id="XMLID_4776_">
			<path id="XMLID_4778_" class="st6" d="M1023.5,125.6c-7.5,4.9-17.7,2.8-22.6-4.7s-2.8-17.7,4.7-22.6L1023.5,125.6z"/>
			<path id="XMLID_4777_" class="st7" d="M1021.2,122.1c-5.6,3.7-13.1,2.1-16.7-3.5c-3.7-5.6-2.1-13.1,3.5-16.7L1021.2,122.1z"/>
		</g>
	</g>
	<g id="XMLID_4661_">
		<g id="XMLID_7914_">
			<path id="XMLID_7915_" class="st1" d="M186.6,60.3c-1.1-0.1-5-0.4-7.6,2.1c-2.5,2.5-2.3,6.4-2.1,7.6c1.1,0.1,5,0.4,7.6-2.1
				S186.8,61.5,186.6,60.3z"/>
		</g>
		<g id="XMLID_7900_">
			<path id="XMLID_7901_" class="st1" d="M177.7,62.6c-0.1-0.1-0.1-0.1-0.2-0.2c-2.5-2.5-6.4-2.3-7.6-2.1c-0.1,1.1-0.4,5,2.1,7.6
				c1.1,1.1,2.6,1.7,3.9,2C175.8,68.5,175.7,65.3,177.7,62.6z"/>
		</g>
		<g id="XMLID_4677_">
			<path id="XMLID_7891_" class="st1" d="M178.3,61.9l0.1-0.1c0.4-0.4,0.8-0.7,1.2-1c-0.3-0.9-0.7-1.9-1.5-2.6
				c-2.1-2.1-5.4-1.9-6.4-1.8c-0.1,0.5-0.1,1.7,0.1,2.9c1.9,0,4.5,0.5,6.5,2.5C178.2,61.8,178.2,61.9,178.3,61.9z"/>
		</g>
		<g id="XMLID_4674_">
			<path id="XMLID_4676_" class="st1" d="M184.5,56.4c-0.9-0.1-3.6-0.3-5.7,1.2c0.8,0.8,1.3,1.8,1.6,2.7c1.4-0.7,2.8-1,4-1
				C184.7,58.1,184.6,56.9,184.5,56.4z"/>
		</g>
		<g id="XMLID_4663_">
			<path id="XMLID_4668_" class="st1" d="M178.3,50.1c-0.8,0.6-3.5,2.5-3.8,5.4c1.2,0.2,2.4,0.6,3.6,1.5c1.3-1,2.7-1.4,4-1.5
				C181.7,52.7,179.1,50.7,178.3,50.1z"/>
		</g>
	</g>
	<circle id="XMLID_4655_" class="st3" cx="8.4" cy="113.3" r="8.4"/>
	<g id="XMLID_4644_">
		<g id="XMLID_4645_">
			<path id="XMLID_4652_" class="st6" d="M233.3,125.6c-7.5,4.9-17.7,2.8-22.6-4.7s-2.8-17.7,4.7-22.6L233.3,125.6z"/>
			<path id="XMLID_4648_" class="st7" d="M231,122.1c-5.6,3.7-13.1,2.1-16.7-3.5c-3.7-5.6-2.1-13.1,3.5-16.7L231,122.1z"/>
		</g>
	</g>
	<g id="XMLID_4768_">
		<g id="XMLID_4769_">
			<path id="XMLID_4774_" class="st6" d="M445.2,11.3c3.6,8.3-0.3,17.9-8.6,21.4s-17.9-0.3-21.4-8.6L445.2,11.3z"/>
			<path id="XMLID_4770_" class="st7" d="M441.3,13c2.6,6.1-0.2,13.2-6.3,15.9c-6.1,2.6-13.2-0.2-15.9-6.3L441.3,13z"/>
		</g>
	</g>
	<path id="XMLID_4767_" class="st8" d="M280.6,76.4l-10.9-28c-1-2.6,0.3-5.5,2.8-6.5l0,0c2.6-1,5.5,0.3,6.5,2.8l10.9,28
		c1,2.6-0.3,5.5-2.8,6.5l0,0C284.5,80.3,281.6,79,280.6,76.4z"/>
	<path id="XMLID_4766_" class="st9" d="M799.3,32.5L815.6,5c1.5-2.4,4.6-3.3,7.1-1.8l0,0c2.4,1.5,3.3,4.6,1.8,7.1l-16.3,27.4
		c-1.5,2.4-4.6,3.3-7.1,1.8l0,0C798.7,38.1,797.9,34.9,799.3,32.5z"/>
	<path id="XMLID_4762_" class="st7" d="M506.5,136.8c0,0.3,0.1,0.5,0.3,0.7c3.6,2.2,8.1,2.5,12.1,0.5s6.4-5.9,6.8-10
		c0-0.3-0.1-0.5-0.3-0.7c-3.6-2.2-8.1-2.5-12.1-0.5C509.4,128.8,506.9,132.7,506.5,136.8z"/>
	<path id="XMLID_4759_" class="st3" d="M1070.6,13.9c-0.1-0.4-0.5-0.6-0.9-0.6c-5.9-0.5-12,2-15.8,7.1s-4.5,11.6-2.4,17.2
		c0.1,0.4,0.5,0.6,0.9,0.6c5.9,0.5,12-2,15.8-7.1C1072.1,25.9,1072.7,19.4,1070.6,13.9z"/>
</g>
</svg>
