<svg xmlns="http://www.w3.org/2000/svg" viewBox="0 0 62.16 62.16">
  <defs>
    <style>
      .circle{
      stroke-width:2px !important;
      }
    </style>
  </defs>
  <title></title>
  <g id="Capa_2" data-name="Capa 2">
    <g id="Layer_1" data-name="Layer 1">
      <path
        d="M26.51,13.89v3.26l-4.35,7.49A2.58,2.58,0,0,0,21.8,26V49.68a2.59,2.59,0,0,0,2.59,2.6H37.3a2.59,2.59,0,0,0,2.59-2.6V25.91a2.63,2.63,0,0,0-.3-1.23l-4-7.72V13.89Z"
        style="fill:none;stroke:#6b9111;stroke-miterlimit:10;stroke-width:2px"/>
      <rect x="24.53" y="10.46" width="13.1" height="3.43" rx="1.06"
            style="fill:none;stroke:#6b9111;stroke-miterlimit:10;stroke-width:2px"/>
      <path d="M23.56,22.47s2.83-2.83,5.82-1.23,3.35,2.16,5.4,2.16a4.28,4.28,0,0,0,3.45-1.74"
            style="fill:none;stroke:#6b9111;stroke-miterlimit:10;stroke-width:2px"/>
      <circle id="svgCircle1" cx="31.08" cy="31.08" r="30.08" style="fill:none;stroke:#6b9111;stroke-miterlimit:10;stroke-width:0px"/>
      <line x1="18.76" y1="42.65" x2="8.9" y2="51.39"
            style="fill:none;stroke:#6b9111;stroke-linecap:round;stroke-miterlimit:10;stroke-width:2px"/>
      <line x1="53.81" y1="11.39" x2="41.59" y2="22.07"
            style="fill:none;stroke:#6b9111;stroke-linecap:round;stroke-miterlimit:10;stroke-width:2px"/>
    </g>
  </g>
</svg>
