<svg xmlns="http://www.w3.org/2000/svg" viewBox="0 0 80.42 62.16">
  <title></title>
  <g id="double-anim11" data-name="Capa 2">
    <g id="Layer_1" data-name="Layer 1">
      <path class="double-anim-true"
        d="M49.94,45.6a1.12,1.12,0,0,0-1.2-1.87,14.8,14.8,0,0,1-9.89,1.08,14.36,14.36,0,0,1-8.36-5.43,14.72,14.72,0,0,1-.64-16.8,14.45,14.45,0,0,1,8.46-6.19,14.89,14.89,0,0,1,10.45,1A1.12,1.12,0,0,0,50,15.51,18.55,18.55,0,0,0,37.65,11,19.57,19.57,0,0,0,23.28,43.75,19.44,19.44,0,0,0,49.94,45.6Zm-25-3.38a17.32,17.32,0,0,1-4.5-12.56,17,17,0,0,1,5.65-12,17.28,17.28,0,0,1,11.6-4.39,18.22,18.22,0,0,1,2.66.2l.93.14-.93.11a17.93,17.93,0,0,0-2.59.5A16.63,16.63,0,0,0,28,21.35a17,17,0,0,0,.73,19.38A16.65,16.65,0,0,0,38.33,47a17.08,17.08,0,0,0,2,.35l.91.11-.91.14a17.46,17.46,0,0,1-2.78.22A17.13,17.13,0,0,1,24.91,42.22Z"
            style="fill:#6b9111; visibility: hidden"/>
      <path class="double-anim-true"
        d="M53.85,38l-3.8-5a.22.22,0,0,0-.22-.07l-6,1.68a.2.2,0,0,1-.22-.31l3.55-5.15a.18.18,0,0,0,0-.22l-3.46-5.21a.2.2,0,0,1,.23-.31l6,1.79a.22.22,0,0,0,.22-.07L54,20.24a.2.2,0,0,1,.36.12l.15,6.25a.23.23,0,0,0,.14.19L60.51,29a.2.2,0,0,1,0,.38l-5.89,2.07a.2.2,0,0,0-.14.19l-.26,6.24A.2.2,0,0,1,53.85,38Z"
        style="visibility: hidden; fill:none;stroke:#6b9111;stroke-miterlimit:10;stroke-width:1.75px"/>
      <circle class="double-anim-true" cx="38.41" cy="31.08" r="30.08" style="visibility: hidden; fill:none;stroke:#6b9111;stroke-miterlimit:10;stroke-width:2px"/>
      <path class="double-anim-false"
        d="M54,40.15A11.48,11.48,0,0,1,58.48,34a3.7,3.7,0,0,1,1.44-.47,10,10,0,0,1,6.85,2l2.48,1.64c.7.47,1.41.92,2.14,1.33,1.89,1.35,7.42,2.39,7.42,2.39-.65,1.08-2.19,3.47-2.8,4.5-.25.42-4.84-1.73-8.37,1.55-6,5.56-15.41,5.22-19-2.29-1.2-2.5-1.83-6.74-2.52-12.55,0-.14-.19-.17-.23,0a40.9,40.9,0,0,1-3.11,7.57c-5.28,9.34-16,10.57-21.23,9.86-.05,0-.13-.18-.12-.27s.11-.17.19-.2a6.45,6.45,0,0,1,1.59-.47c10-2,15.6-9.56,18.25-14.31.94-1.67,2.42-6.7,3.13-9.65C45,22.73,47.15,12.88,47.52,11l1.86,2c0,.85-.31,6.9-.31,6.9a65.67,65.67,0,0,0,1.28,17.84c.53,2.46,2.38,7.08,5,7.66,5.87,1.29,9.9-2.44,10.95-3.23h0C66.21,42,61.49,33.47,54,40.15Z"
        style="visibility: visible;fill:none;stroke:#6b9111;stroke-miterlimit:10;stroke-width:2px"/>
      <path class="double-anim-false"
        d="M5.39,30.83c-.62,1.37-2.33,6-2,8.25a5.8,5.8,0,0,0,2,3.53c5,3.89,13.25.19,13.57-4.32.16-2.33.46-21.12-.35-25.39a8.21,8.21,0,0,0-1.2-2.45A37.34,37.34,0,0,0,21,4c.78,1.76,3.58,7.86,3.58,7.86s-1.91,3.5-1.9,4.6c0,5.39.47,20.84.46,21.53-.14,7.5-7.62,10.87-8.86,11.26-1.06.33-4.75,1-7.5-.07A9.85,9.85,0,0,1,3.44,47,8.39,8.39,0,0,1,1.29,43c-.22-.94-.86-3.67,1-7.85a22.26,22.26,0,0,1,2.92-4.51Z"
        style="visibility: visible;fill:none;stroke:#6b9111;stroke-miterlimit:10;stroke-width:2px"/>
      <path class="double-anim-false"
        d="M27.85,18.61l.48.35a41.86,41.86,0,0,1,3.4,3.26,13,13,0,0,1,1.92,3.06l.06.14a8.27,8.27,0,0,0-1.39-.94c-.53-.28-1.06-.55-1.6-.81s-1.16-.57-1.71-.88a2.31,2.31,0,0,1-1.18-2.27c0-.43,0-1.15,0-1.91M26,15.42c-.07.46-.25,3.92-.19,5.19A4.34,4.34,0,0,0,28,24.54c1.1.61,2.23,1.11,3.34,1.71A7.78,7.78,0,0,1,34.64,30a43.93,43.93,0,0,1,2.41,6.44c.12-1.86.16-2.86.16-3.37a20.11,20.11,0,0,0-.37-4.36,19.66,19.66,0,0,0-1.36-4.18A15.06,15.06,0,0,0,33.28,21a44,44,0,0,0-3.73-3.58,14.28,14.28,0,0,0-3.53-2Z"
        style="visibility: visible; fill:#6b9111"/>
    </g>
  </g>
</svg>
