<svg xmlns="http://www.w3.org/2000/svg" viewBox="0 0 62.16 62.16">
  <title></title>
  <defs>
    <style>
      .circle{
      stroke-width:2px !important;
      }
    </style>
  </defs>
  <g id="Capa_2" data-name="Capa 2">
    <g id="Layer_1" data-name="Layer 1">
      <circle id="svgCircle3" cx="31.08" cy="31.08" r="30.08" style="fill:none;stroke:#6b9111;stroke-miterlimit:10;stroke-width:0px"/>
      <line x1="23.14" y1="38.46" x2="9.13" y2="51.47"
            style="fill:none;stroke:#6b9111;stroke-linecap:round;stroke-miterlimit:10;stroke-width:2px"/>
      <line x1="53.03" y1="10.69" x2="40.43" y2="22.4"
            style="fill:none;stroke:#6b9111;stroke-linecap:round;stroke-miterlimit:10;stroke-width:2px"/>
      <path
        d="M14.72,20.22l7.35-7.15a4.07,4.07,0,0,1,6,.09l15.08,19a2.05,2.05,0,0,1-.29,2.73l-7.19,7A2.06,2.06,0,0,1,33,42L14.61,26.23A4.07,4.07,0,0,1,14.72,20.22Z"
        style="fill:none;stroke:#6b9111;stroke-miterlimit:10;stroke-width:2px"/>
      <path d="M35.08,42.33a5.85,5.85,0,1,0,8.39-8.16"
            style="fill:none;stroke:#6b9111;stroke-miterlimit:10;stroke-width:2px"/>
      <circle cx="48.26" cy="42.91" r="0.43"
              style="fill:none;stroke:#6b9111;stroke-linecap:round;stroke-miterlimit:10;stroke-width:2px"/>
      <circle cx="44.86" cy="47.56" r="0.43"
              style="fill:none;stroke:#6b9111;stroke-linecap:round;stroke-miterlimit:10;stroke-width:2px"/>
      <circle cx="49.15" cy="48.99" r="0.43"
              style="fill:none;stroke:#6b9111;stroke-linecap:round;stroke-miterlimit:10;stroke-width:2px"/>
    </g>
  </g>
</svg>
