<svg xmlns="http://www.w3.org/2000/svg" viewBox="0 0 62.16 62.16">
  <title></title>
  <defs>
    <style>
      .circle{
      stroke-width:2px !important;
      }
    </style>
  </defs>
  <g id="Capa_2" data-name="Capa 2">
    <g id="Layer_1" data-name="Layer 1">
      <ellipse cx="31.12" cy="30.5" rx="8.4" ry="10.88" transform="translate(-12.45 30.94) rotate(-45)"
               style="fill:none;stroke:#6b9111;stroke-miterlimit:10;stroke-width:2px"/>
      <path
        d="M41.08,35.45l2.24.69,6.22,1.92c.93.29,1.86,1.73,1,2.21-3.76,2.11-8.1,6-10.07,9.92-.4.81-1.78,0-2-.9l-2.79-9.22"
        style="fill:none;stroke:#6b9111;stroke-miterlimit:10;stroke-width:2px"/>
      <path d="M43.55,36.18s-.12,5-7.07,7.07" style="fill:none;stroke:#6b9111;stroke-miterlimit:10;stroke-width:2px"/>
      <path
        d="M21.83,26.18,12.17,23c-.93-.29-1.88-1.77-1-2.21,3.64-1.82,7.59-5.86,10.07-9.92.47-.77,1.79,0,2.05.9L26.07,21"
        style="fill:none;stroke:#6b9111;stroke-miterlimit:10;stroke-width:2px"/>
      <path d="M18.51,25.18s-.09-4.95,6.77-7.36"
            style="fill:none;stroke:#6b9111;stroke-miterlimit:10;stroke-width:2px"/>
      <circle id="svgCircle4" cx="31.08" cy="31.08" r="30.08" style="fill:none;stroke:#6b9111;stroke-miterlimit:10;stroke-width:0px"/>
      <line x1="23.14" y1="38.46" x2="9.13" y2="51.47"
            style="fill:none;stroke:#6b9111;stroke-linecap:round;stroke-miterlimit:10;stroke-width:2px"/>
      <line x1="53.03" y1="10.69" x2="39.6" y2="23"
            style="fill:none;stroke:#6b9111;stroke-linecap:round;stroke-miterlimit:10;stroke-width:2px"/>
    </g>
  </g>
</svg>
