<svg xmlns="http://www.w3.org/2000/svg" viewBox="0 0 62.16 62.16">
  <title></title>
  <defs>
    <style>
      .circle{
      stroke-width:2px !important;
      }
    </style>
  </defs>
  <g id="Capa_2" data-name="Capa 2">
    <g id="Layer_1" data-name="Layer 1">
      <path
        d="M31.61,32c3.93-1.64,4.83-7.09,5-9.15a.39.39,0,0,1,.64-.27,9.08,9.08,0,0,0,4.1,1.74A10.71,10.71,0,0,0,47,23.82a.6.6,0,0,0,.36-.68c-.36-1.53-2-6.29-8.73-8.53-2.06-.69-7.59-.69-7.59-.69h0s-5.53,0-7.59.69c-6.75,2.24-8.37,7-8.73,8.53a.6.6,0,0,0,.36.68,10.74,10.74,0,0,0,5.66.48,9.13,9.13,0,0,0,4.1-1.74.39.39,0,0,1,.63.27c.21,2.06,1.12,7.51,5,9.15A1.39,1.39,0,0,0,31.61,32Z"
        style="fill:none;stroke:#6b9111;stroke-miterlimit:10;stroke-width:2px"/>
      <path d="M45.25,24.28S49.83,38.65,31.38,49.4a.64.64,0,0,1-.6,0C12.33,38.65,16.92,24.28,16.92,24.28"
            style="fill:none;stroke:#6b9111;stroke-miterlimit:10;stroke-width:2px"/>
      <path
        d="M38.62,35.22a7.33,7.33,0,0,1-1.27,5.36c-1.52,2.35-1.5,2.45-5.75,7.61a.41.41,0,0,1-.63,0c-4.25-5.16-4.24-5.26-5.75-7.61A7.33,7.33,0,0,1,24,35.22"
        style="fill:none;stroke:#6b9111;stroke-linecap:round;stroke-miterlimit:10;stroke-width:1.5px"/>
      <path d="M30,39.06a28.7,28.7,0,0,0,1.27,9.28"
            style="fill:none;stroke:#6b9111;stroke-linecap:round;stroke-miterlimit:10;stroke-width:1.5px"/>
      <circle id="svgCircle5" cx="31.08" cy="31.08" r="30.08" style="fill:none;stroke:#6b9111;stroke-miterlimit:10;stroke-width:0px"/>
      <line x1="18.83" y1="42.46" x2="9.13" y2="51.47"
            style="fill:none;stroke:#6b9111;stroke-linecap:round;stroke-miterlimit:10;stroke-width:2px"/>
      <line x1="53.03" y1="10.69" x2="46.46" y2="16.8"
            style="fill:none;stroke:#6b9111;stroke-linecap:round;stroke-miterlimit:10;stroke-width:2px"/>
    </g>
  </g>
</svg>
