<svg xmlns="http://www.w3.org/2000/svg" viewBox="0 0 62.16 62.16">
  <title></title>
  <defs>
    <style>
      .circle{
      stroke-width:2px !important;
      }
    </style>
  </defs>
  <g id="Capa_2" data-name="Capa 2">
    <g id="Layer_1" data-name="Layer 1">
      <path
        d="M30.63,42.23A1.12,1.12,0,0,1,30.1,42a1.07,1.07,0,0,1-.31-.52,18.47,18.47,0,0,1,21-22.85,1.42,1.42,0,0,1,1.13,1.05A18.48,18.48,0,0,1,30.63,42.23Z"
        style="fill:none;stroke:#6b9111;stroke-miterlimit:10;stroke-width:2px"/>
      <path
        d="M22.16,28.41a14.1,14.1,0,0,1,3.36,13,1.06,1.06,0,0,1-.86.8,14.13,14.13,0,0,1-16-17.48.76.76,0,0,1,.24-.39.77.77,0,0,1,.41-.21A14.09,14.09,0,0,1,22.16,28.41Z"
        style="fill:none;stroke:#6b9111;stroke-miterlimit:10;stroke-width:2px"/>
      <line x1="42.76" y1="27.93" x2="30.1" y2="41.96"
            style="fill:none;stroke:#6b9111;stroke-linecap:round;stroke-miterlimit:10;stroke-width:2px"/>
      <line x1="25.17" y1="41.96" x2="18.88" y2="35.46"
            style="fill:none;stroke:#6b9111;stroke-linecap:round;stroke-miterlimit:10;stroke-width:2px"/>
      <circle id="svgCircle6" cx="31.08" cy="31.08" r="30.08" style="fill:none;stroke:#6b9111;stroke-miterlimit:10;stroke-width:0px"/>
    </g>
  </g>
</svg>
