<svg xmlns="http://www.w3.org/2000/svg" viewBox="0 0 62.16 62.16">
  <title></title>
  <defs>
    <style>
      .circle{
      stroke-width:2px !important;
      }
    </style>
  </defs>
  <g id="Capa_2" data-name="Capa 2">
    <g id="Layer_1" data-name="Layer 1">
      <path
        d="M23.51,49.15a6,6,0,0,1-1.42-5.48.45.45,0,0,1,.36-.34,6,6,0,0,1,6.76,7.37.33.33,0,0,1-.27.25A5.93,5.93,0,0,1,23.51,49.15Z"
        style="fill:none;stroke:#6b9111;stroke-miterlimit:10;stroke-width:2px"/>
      <path
        d="M39.67,43.34a.38.38,0,0,1,.18.09.4.4,0,0,1,.1.17A6,6,0,0,1,33.19,51a.46.46,0,0,1-.37-.34,6,6,0,0,1,6.85-7.29Z"
        style="fill:none;stroke:#6b9111;stroke-miterlimit:10;stroke-width:2px"/>
      <path
        d="M23.51,39a5.94,5.94,0,0,1-1.42-5.48.45.45,0,0,1,.36-.33,6,6,0,0,1,6.76,7.37.27.27,0,0,1-.1.16.26.26,0,0,1-.17.09A5.91,5.91,0,0,1,23.51,39Z"
        style="fill:none;stroke:#6b9111;stroke-miterlimit:10;stroke-width:2px"/>
      <path
        d="M39.67,33.15a.31.31,0,0,1,.18.09.44.44,0,0,1,.1.16,6,6,0,0,1-6.76,7.37.46.46,0,0,1-.37-.33,6,6,0,0,1,6.85-7.29Z"
        style="fill:none;stroke:#6b9111;stroke-miterlimit:10;stroke-width:2px"/>
      <path
        d="M23.51,28.86a5.94,5.94,0,0,1-1.42-5.48.45.45,0,0,1,.36-.33,6,6,0,0,1,6.76,7.37.27.27,0,0,1-.1.16.26.26,0,0,1-.17.09A5.91,5.91,0,0,1,23.51,28.86Z"
        style="fill:none;stroke:#6b9111;stroke-miterlimit:10;stroke-width:2px"/>
      <path
        d="M28.14,18a5.92,5.92,0,0,1,2.7-5,.45.45,0,0,1,.5,0,6,6,0,0,1-.09,10,.35.35,0,0,1-.19.06.33.33,0,0,1-.19-.06A5.9,5.9,0,0,1,28.14,18Z"
        style="fill:none;stroke:#6b9111;stroke-miterlimit:10;stroke-width:2px"/>
      <path
        d="M39.67,23.06a.31.31,0,0,1,.18.09.44.44,0,0,1,.1.16,6,6,0,0,1-6.76,7.37.46.46,0,0,1-.37-.33,6,6,0,0,1,6.85-7.29Z"
        style="fill:none;stroke:#6b9111;stroke-miterlimit:10;stroke-width:2px"/>
      <line x1="21.92" y1="23.67" x2="21.92" y2="10.72"
            style="fill:none;stroke:#6b9111;stroke-linecap:round;stroke-linejoin:round;stroke-width:1.5px"/>
      <line x1="25.28" y1="23.35" x2="25.28" y2="11.27"
            style="fill:none;stroke:#6b9111;stroke-linecap:round;stroke-linejoin:round;stroke-width:1.5px"/>
      <line x1="36.9" y1="23.35" x2="36.9" y2="11.27"
            style="fill:none;stroke:#6b9111;stroke-linecap:round;stroke-linejoin:round;stroke-width:1.5px"/>
      <line x1="40.14" y1="23.81" x2="40.14" y2="10.72"
            style="fill:none;stroke:#6b9111;stroke-linecap:round;stroke-linejoin:round;stroke-width:1.5px"/>
      <circle id="svgCircle7" cx="31.08" cy="31.08" r="30.08" style="fill:none;stroke:#6b9111;stroke-miterlimit:10;stroke-width:0px"/>
      <line x1="20.06" y1="42.03" x2="10.19" y2="50.77"
            style="fill:none;stroke:#6b9111;stroke-linecap:round;stroke-miterlimit:10;stroke-width:2px"/>
      <line x1="54.07" y1="11.68" x2="42.89" y2="21.45"
            style="fill:none;stroke:#6b9111;stroke-linecap:round;stroke-miterlimit:10;stroke-width:2px"/>
    </g>
  </g>
</svg>
