<svg xmlns="http://www.w3.org/2000/svg" viewBox="0 0 62.16 62.16">
  <title></title>
  <defs>
    <style>
      .circle{
      stroke-width:2px !important;
      }
    </style>
  </defs>
  <g id="Capa_2" data-name="Capa 2">
    <g id="Layer_1" data-name="Layer 1">
      <path
        d="M49.14,40.78a1.74,1.74,0,0,1,1.74,1.74v3.66a1.75,1.75,0,0,1-1.74,1.75H13.76A1.75,1.75,0,0,1,12,46.18V42.52a1.74,1.74,0,0,1,1.74-1.74"
        style="fill:none;stroke:#6b9111;stroke-miterlimit:10;stroke-width:1.75px"/>
      <rect x="12.02" y="33.33" width="38.87" height="7.45" rx="2"
            style="fill:none;stroke:#6b9111;stroke-miterlimit:10;stroke-width:1.75px"/>
      <path
        d="M14.56,25.52c0-2.78,1.31-4.35,4.16-4.58v-.63c0-.18,0-.37,0-.59-.13,0-.24-.12-.37-.16a3.32,3.32,0,0,1-2.52-3.7.71.71,0,0,1,.76-.74,3.52,3.52,0,0,1,3.44,1.75l1.15-1.45,1,.74c-.47.67-1,1.28-1.36,2A9.58,9.58,0,0,0,20,20.33a5.57,5.57,0,0,1,6.36-.57c1.28-3.12,4-4,6.68-2.82L34,15.38,32.69,15c-2.86-.95-3.35-3.35-2.48-5.84a.66.66,0,0,1,.9-.42c.59.16,1.19.28,1.76.46,2.42.76,3,1.48,3.28,4l.82-.49c.12.16.25.32.36.49l.27.44c-.87.89-1.71,1.73-2.53,2.59a7,7,0,0,0-.59.9A5.8,5.8,0,0,1,39,18.74a4,4,0,0,1,2.92-2.25c0-1.59-.75-3.31-2.42-5.48l.94-.89L41.85,12c.42-.39.83-.83,1.3-1.19a4.64,4.64,0,0,1,3.11-.86c.57,0,.82.3.83.89.07,2.48-1.1,4-3.8,4.95-.11.43,0,.69.48.86a3.9,3.9,0,0,1,2.56,4.7,1,1,0,0,0,.14.72,5.88,5.88,0,0,1,1.89,3.43.65.65,0,0,0,.21.07C50.49,25.67,12.42,25.71,14.56,25.52Zm14.22,0h5.93c.14,0,.32.06.41,0a1.14,1.14,0,0,0,.4-.53,5.88,5.88,0,0,1,2.56-3.56c.73-.48.81-.84.23-1.53a4.21,4.21,0,0,0-4-1.48,1,1,0,0,0-.63.59,7.62,7.62,0,0,0-.34,1.37l-1.27-.16c.11-.54.17-1,.31-1.49s0-.62-.38-.79a3.26,3.26,0,0,0-4.32,2.17,1.53,1.53,0,0,0,.21,1.08,5.7,5.7,0,0,1,.95,3C28.9,24.61,28.82,25.05,28.78,25.56ZM42,18.92V17.87a2.48,2.48,0,0,0-2,2.83c.16,1.1.16,1.1-.83,1.64a1.78,1.78,0,0,0-.3.17,4.44,4.44,0,0,0-2.08,3H47a4.31,4.31,0,0,0-1.57-2.64c-.84-.68-.84-.67-.47-1.71A2.41,2.41,0,0,0,43.33,18l-.16,1.16ZM21,25a21.46,21.46,0,0,1-1.51-1.89c-.47-.72-.78-.92-1.63-.72a2.69,2.69,0,0,0-2,2.58c0,.42.11.64.59.63q5.21,0,10.39,0a.54.54,0,0,0,.63-.47,3.92,3.92,0,0,0-2-4.32,3.8,3.8,0,0,0-4.7.92,1,1,0,0,0-.08.85,10.21,10.21,0,0,0,1,1.26ZM34.64,14.2c.59-2.84-.67-3.69-3.31-4.06a2.53,2.53,0,0,0,1.53,3.47C33.44,13.84,34,14,34.64,14.2Zm8.31.21c1.64-.14,3-1.73,2.73-3.13C43.78,11.28,42.26,13,43,14.41ZM19.06,18.36a1.72,1.72,0,0,0-1.81-1.84A1.8,1.8,0,0,0,19.06,18.36Z"
        style="fill:#6b9111"/>
      <path d="M35.52,22l-1.14-1.18.89-.87,1.15,1.25Z" style="fill:#6b9111"/>
      <path d="M26.21,24.22H25.12l.1-.12A9.15,9.15,0,0,1,23.9,23a3.07,3.07,0,0,1-.27-1.2A2.4,2.4,0,0,1,26.21,24.22Z"
            style="fill:#6b9111"/>
      <path
        d="M13.76,33.33A1.75,1.75,0,0,1,12,31.58V27.92a1.75,1.75,0,0,1,1.74-1.75H49.14a1.75,1.75,0,0,1,1.74,1.75v3.66a1.75,1.75,0,0,1-1.74,1.75"
        style="fill:none;stroke:#6b9111;stroke-miterlimit:10;stroke-width:1.75px"/>
      <circle cx="31.45" cy="40.78" r="9.64"
              style="fill:#fff;stroke:#6b9111;stroke-miterlimit:10;stroke-width:1.70000004768372px"/>
      <path
        d="M32.11,41.52a3.93,3.93,0,0,1,2.55-1.14c.76,0,1,.16.91.91a4.35,4.35,0,0,1-3.52,4.37v1.13H30.89l-.06-1.11c-2.44-.9-3.49-2.28-3.51-4.52,0-.56.2-.8.79-.8a4,4,0,0,1,2.67,1.13.87.87,0,0,0-.33-1.14,2.43,2.43,0,0,1-.38-.34,2.48,2.48,0,0,1-.18-3.82c1.48-1.55,1.62-1.53,3.08,0,1.28,1.32,1.09,2.84-.45,4.12A1.07,1.07,0,0,0,32.11,41.52Zm-.63-1.94c1.51-1.12,1.48-2.33-.06-3.16C29.91,37.44,29.92,38.56,31.48,39.58Zm2.84,2.12a2.53,2.53,0,0,0-2.13,2.62C33.3,44.16,34,43.29,34.32,41.7Zm-3.59,2.61a2.63,2.63,0,0,0-2.08-2.61A2.64,2.64,0,0,0,30.73,44.31Z"
        style="fill:#6b9111"/>
      <path d="M15,29.14H17.5v1.22H15Z" style="fill:#6b9111"/>
      <path d="M15,36.44H17.5v1.22H15Z" style="fill:#6b9111"/>
      <path d="M15,43.7H17.5v1.22H15Z" style="fill:#6b9111"/>
      <path d="M45.28,29.14h2.53v1.22H45.28Z" style="fill:#6b9111"/>
      <path d="M45.28,36.44h2.53v1.22H45.28Z" style="fill:#6b9111"/>
      <path d="M45.28,43.7h2.53v1.22H45.28Z" style="fill:#6b9111"/>
      <circle id="svgCircle8" cx="31.08" cy="31.08" r="30.08" style="fill:none;stroke:#6b9111;stroke-miterlimit:10;stroke-width:0px"/>
    </g>
  </g>
</svg>
