<svg xmlns="http://www.w3.org/2000/svg" viewBox="0 0 62.16 62.16">
  <title></title>
  <defs>
    <style>
      .circle{
      stroke-width:2px !important;
      }
    </style>
  </defs>
  <g id="Capa_2" data-name="Capa 2">
    <g id="Layer_1" data-name="Layer 1">
      <path
        d="M48.44,15.6a42.62,42.62,0,0,0-1.06,5.93c-.29,3.17-2.18,5-4.89,6.17a11.24,11.24,0,0,1-2.78.76c-.94.15-1,.07-1.4.88a55.67,55.67,0,0,0-3.68,10.4c-.79,3.36-1.18,5.21-1.84,8.6,0,0,0,.11,0,.15-.41,1.94-.33,2.07-1.59,2.07h-1a.85.85,0,0,1-1-.78c-.73-3.3-1.42-6.61-2.28-9.88C25.64,34.79,24.26,29.68,21.64,25a43.42,43.42,0,0,0-5.23-7.31c-.24-.27-.46-.54-.69-.81a6.12,6.12,0,0,1,3.42,1.72A28.08,28.08,0,0,1,26.8,29.72a90.09,90.09,0,0,1,4,13.17h0c.14-.59,2-8,4.28-12.37,1.62-3.13,3.06-6.17,5.53-8.76a3.12,3.12,0,0,0,.55-1.11c-2.6,1.49-4.27,3.56-6.05,7a8.39,8.39,0,0,1,0-5,8,8,0,0,1,6.26-5.24,41,41,0,0,0,7-1.75m2.91-3.28-3.64,1.42a38.74,38.74,0,0,1-6.51,1.62l-.16,0a9.92,9.92,0,0,0-7.73,6.45,10.43,10.43,0,0,0-.12,6.3l.3,1.13-.17.33a44.5,44.5,0,0,0-2.4,5.88c-.74-2.39-1.57-4.83-2.27-6.52a29.85,29.85,0,0,0-8.21-11.87,8,8,0,0,0-4.54-2.2l-4.85-.43,3.14,3.72.21.25.5.58a41.31,41.31,0,0,1,5,7c2.57,4.6,3.94,9.82,5.15,14.42.68,2.58,1.27,5.25,1.84,7.83.14.66.28,1.31.43,2a2.81,2.81,0,0,0,2.92,2.35h1c2.59,0,3.06-1.34,3.45-3.22l.09-.43a2.32,2.32,0,0,0,.05-.3c.61-3.13,1-5,1.8-8.41A54.87,54.87,0,0,1,40,30.44h0a13.35,13.35,0,0,0,3.28-.91c3.71-1.61,5.76-4.24,6.08-7.81a41.54,41.54,0,0,1,1-5.62l1-3.78Z"
        style="fill:#6b9111"/>
      <circle id="svgCircle9" cx="31.08" cy="31.08" r="30.08" style="fill:none;stroke:#6b9111;stroke-miterlimit:10;stroke-width:0px"/>
    </g>
  </g>
</svg>
