<svg xmlns="http://www.w3.org/2000/svg" viewBox="0 0 45 45"><title>icon_4</title><g id="Capa_2" data-name="Capa 2"><g id="Capa_2-2" data-name="Capa 2"><g id="_Grupo_" data-name="&lt;Grupo&gt;"><circle id="_Trazado_" data-name="&lt;Trazado&gt;" cx="22.5" cy="22.5" r="22.5" style="fill:#fff"/><g id="_Grupo_2" data-name="&lt;Grupo&gt;"><path d="M19.45,22.08a2.79,2.79,0,1,1-2.79,2.79,2.79,2.79,0,0,1,2.79-2.79m0-1a3.79,3.79,0,1,0,3.79,3.79,3.79,3.79,0,0,0-3.79-3.79Z" style="fill:#ccc"/></g><path id="_Trazado_2" data-name="&lt;Trazado&gt;" d="M30.12,31.19H8.78A1.28,1.28,0,0,1,7.5,29.92V19.73a1.28,1.28,0,0,1,1.28-1.28H30.12a1.28,1.28,0,0,1,1.28,1.28V29.92A1.28,1.28,0,0,1,30.12,31.19Z" style="fill:none;stroke:#ccc;stroke-miterlimit:10"/><circle id="_Trazado_3" data-name="&lt;Trazado&gt;" cx="19.45" cy="24.87" r="2.1" style="fill:#ee6c01"/><rect id="_Rectángulo_" data-name="&lt;Rectángulo&gt;" x="9.21" y="18.72" width="1.36" height="10.48" style="fill:#ee6c01"/><rect id="_Rectángulo_2" data-name="&lt;Rectángulo&gt;" x="28.37" y="20.53" width="1.36" height="10.36" style="fill:#ee6c01"/><rect id="_Rectángulo_3" data-name="&lt;Rectángulo&gt;" x="13.6" y="14.17" width="23.9" height="17.03" rx="2" ry="2" style="fill:#fff;stroke:#ccc;stroke-miterlimit:10"/><g id="_Grupo_3" data-name="&lt;Grupo&gt;"><path d="M20.24,17a1.1,1.1,0,1,1-1.1,1.1,1.1,1.1,0,0,1,1.1-1.1m0-1a2.1,2.1,0,1,0,2.1,2.1,2.1,2.1,0,0,0-2.1-2.1Z" style="fill:#ccc"/></g><line id="_Trazado_4" data-name="&lt;Trazado&gt;" x1="15.68" y1="23.65" x2="35" y2="23.65" style="fill:none;stroke:#ccc;stroke-linecap:round;stroke-linejoin:round"/><rect id="_Rectángulo_4" data-name="&lt;Rectángulo&gt;" x="28.03" y="26.42" width="6.97" height="2.39" style="fill:#ee6c01"/><circle id="_Trazado_5" data-name="&lt;Trazado&gt;" cx="17.78" cy="18.14" r="2.1" style="fill:#ee6c01"/></g></g></g></svg>