<svg xmlns="http://www.w3.org/2000/svg" viewBox="0 0 45 45"><title>icon_3</title><g id="Capa_2" data-name="Capa 2"><g id="Capa_2-2" data-name="Capa 2"><g id="_Grupo_" data-name="&lt;Grupo&gt;"><circle id="_Trazado_" data-name="&lt;Trazado&gt;" cx="22.5" cy="22.5" r="22.5" style="fill:#fff"/><circle id="_Trazado_2" data-name="&lt;Trazado&gt;" cx="24.58" cy="18.84" r="1.51" transform="translate(-3.3 32.3) rotate(-63.25)" style="fill:none;stroke:#ccc;stroke-linecap:round;stroke-linejoin:round"/><g id="_Grupo_2" data-name="&lt;Grupo&gt;"><path id="_Trazado_3" data-name="&lt;Trazado&gt;" d="M26.77,15.57l.94-4.67a2.68,2.68,0,0,1,2-2.09h0a2.18,2.18,0,0,1,2.64,1.77h0a2.4,2.4,0,0,1-1.19,2.48Z" style="fill:none;stroke:#ccc;stroke-linecap:round;stroke-linejoin:round"/><path id="_Trazado_4" data-name="&lt;Trazado&gt;" d="M20.31,36.54l-11-7.92a1.16,1.16,0,0,1-.21-1.69L21.32,12.57a1.16,1.16,0,0,1,1.56-.19l8.5,6.12A1.16,1.16,0,0,1,31.7,20L22,36.19A1.16,1.16,0,0,1,20.31,36.54Z" style="fill:#fff;stroke:#ccc;stroke-linecap:round;stroke-linejoin:round"/><g id="_Grupo_3" data-name="&lt;Grupo&gt;"><path id="_Trazado_compuesto_" data-name="&lt;Trazado compuesto&gt;" d="M24.21,23.56A2.29,2.29,0,0,0,23.32,22c-.58-.42-1.07-.42-1.46.13-.83,1.16,2.45,3.37.78,5.7a2.77,2.77,0,0,1-3.58,1l-.91,1.27L17,29.21,17.84,28a5,5,0,0,1-1.48-2.47L18,24.88a3.56,3.56,0,0,0,1.23,2c.68.49,1.19.43,1.59-.13.9-1.25-2.33-3.54-.75-5.73a2.68,2.68,0,0,1,3.47-.92l.9-1.25,1.18.85-.88,1.23a3.72,3.72,0,0,1,1.1,2.3Z" style="fill:#ee6c01"/></g></g></g></g></g></svg>