<!-- Generator: Adobe Illustrator 17.0.0, SVG Export Plug-In  -->
<svg version="1.1"
	 xmlns="http://www.w3.org/2000/svg" xmlns:xlink="http://www.w3.org/1999/xlink" xmlns:a="http://ns.adobe.com/AdobeSVGViewerExtensions/3.0/"
	 x="0px" y="0px" width="90.431px" height="93.575px" viewBox="0 0 90.431 93.575" enable-background="new 0 0 90.431 93.575"
	 xml:space="preserve">
<defs>
</defs>
<g id="XMLID_51_">
	
		<path id="XMLID_56_" fill="none" stroke="#333333" stroke-width="3.2" stroke-linecap="round" stroke-linejoin="round" stroke-miterlimit="10" d="
		M9.298,23.863h8.097c2.832,0,5.215,2.122,5.542,4.934l4.045,37.555c0.327,2.813,2.71,4.934,5.542,4.934h38.146"/>
	
		<path id="XMLID_55_" fill="none" stroke="#333333" stroke-width="3.2" stroke-linecap="round" stroke-linejoin="round" stroke-miterlimit="10" d="
		M24.355,35.021h49.789c1.715,0,3.024,1.443,2.755,3.036l-3.92,23.21H28.826"/>
	
		<line id="XMLID_54_" fill="none" stroke="#333333" stroke-width="3.2" stroke-linecap="round" stroke-linejoin="round" stroke-miterlimit="10" x1="26.67" y1="43.865" x2="75.565" y2="43.865"/>
	<circle id="XMLID_53_" fill="#333333" cx="37.747" cy="87.363" r="6.212"/>
	<circle id="XMLID_52_" fill="#333333" cx="60.732" cy="87.363" r="6.212"/>
</g>
<g id="XMLID_48_">
	<path id="XMLID_50_" fill="none" d="M21.006,25.061"/>
</g>
<g id="XMLID_42_">
	<g id="XMLID_44_">
		
			<line id="XMLID_47_" fill="none" stroke="#333333" stroke-width="4" stroke-linecap="round" stroke-linejoin="round" x1="7.29" y1="48.527" x2="7.29" y2="48.527"/>
		
			<path id="XMLID_46_" fill="none" stroke="#333333" stroke-width="4" stroke-linecap="round" stroke-linejoin="round" stroke-dasharray="0,6.9696" d="
			M7.881,41.587c0.199-1.152,0.446-2.288,0.739-3.404"/>
		
			<line id="XMLID_45_" fill="none" stroke="#333333" stroke-width="4" stroke-linecap="round" stroke-linejoin="round" x1="9.651" y1="34.854" x2="9.651" y2="34.854"/>
	</g>
</g>
<g id="XMLID_39_">
	<path id="XMLID_41_" fill="none" d="M7.29,48.527"/>
</g>
<g id="XMLID_36_">
	<path id="XMLID_38_" fill="none" d="M11.268,70.721"/>
</g>
<g id="XMLID_30_">
	<g id="XMLID_32_">
		
			<line id="XMLID_35_" fill="none" stroke="#333333" stroke-width="4" stroke-linecap="round" stroke-linejoin="round" x1="27.704" y1="83.745" x2="27.704" y2="83.745"/>
		
			<path id="XMLID_34_" fill="none" stroke="#333333" stroke-width="4" stroke-linecap="round" stroke-linejoin="round" stroke-dasharray="0,8.0931" d="
			M21.128,79.046c-1.015-0.89-1.985-1.829-2.906-2.814"/>
		
			<line id="XMLID_33_" fill="none" stroke="#333333" stroke-width="4" stroke-linecap="round" stroke-linejoin="round" x1="15.607" y1="73.141" x2="15.607" y2="73.141"/>
	</g>
</g>
<g id="XMLID_24_">
	<g id="XMLID_26_">
		
			<line id="XMLID_29_" fill="none" stroke="#333333" stroke-width="4" stroke-linecap="round" stroke-linejoin="round" x1="82.742" y1="27.797" x2="82.742" y2="27.797"/>
		
			<path id="XMLID_28_" fill="none" stroke="#333333" stroke-width="4" stroke-linecap="round" stroke-linejoin="round" stroke-dasharray="0,7.6571" d="
			M86.016,34.705c1.563,4.314,2.415,8.968,2.415,13.821c0,12.574-5.72,23.812-14.7,31.254"/>
		
			<line id="XMLID_27_" fill="none" stroke="#333333" stroke-width="4" stroke-linecap="round" stroke-linejoin="round" x1="70.672" y1="82.081" x2="70.672" y2="82.081"/>
	</g>
</g>
<g id="XMLID_21_">
	<path id="XMLID_23_" fill="none" d="M82.743,27.797"/>
</g>
<g id="XMLID_15_">
	<g id="XMLID_17_">
		
			<line id="XMLID_20_" fill="none" stroke="#333333" stroke-width="4" stroke-linecap="round" stroke-linejoin="round" x1="21.006" y1="18.115" x2="21.006" y2="18.115"/>
		
			<path id="XMLID_19_" fill="none" stroke="#333333" stroke-width="4" stroke-linecap="round" stroke-linejoin="round" stroke-dasharray="0,7.1717" d="
			M26.768,13.863c6.146-3.748,13.367-5.907,21.092-5.907c0.983,0,1.958,0.035,2.923,0.104"/>
		
			<line id="XMLID_18_" fill="none" stroke="#333333" stroke-width="4" stroke-linecap="round" stroke-linejoin="round" x1="54.352" y1="8.473" x2="54.352" y2="8.473"/>
	</g>
</g>
<g id="XMLID_11_">
	<path id="XMLID_12_" fill="#333333" d="M4.736,52.901c2.165-2.044,5.401-2.683,8.24-1.467c-0.878,0.311-1.693,0.802-2.384,1.455
		c-0.522,0.493-0.974,1.079-1.329,1.749c-1.746,3.295-0.49,7.381,2.805,9.127c0.812,0.43,1.673,0.678,2.534,0.758
		c-2.294,1.745-5.483,2.11-8.198,0.672c-3.724-1.973-5.144-6.592-3.17-10.316C3.634,54.121,4.145,53.459,4.736,52.901 M3.13,51.2
		c-0.791,0.746-1.452,1.616-1.965,2.584c-1.247,2.353-1.503,5.052-0.72,7.597c0.782,2.546,2.509,4.634,4.863,5.881
		c3.423,1.813,7.627,1.469,10.71-0.877c0.067-0.051,0.13-0.105,0.19-0.161c0.63-0.595,0.885-1.498,0.643-2.344
		c-0.265-0.927-1.072-1.596-2.032-1.686c-0.58-0.054-1.138-0.221-1.656-0.496c-1.042-0.552-1.806-1.476-2.152-2.603
		c-0.346-1.127-0.233-2.32,0.319-3.362c0.228-0.43,0.52-0.814,0.868-1.144c0.448-0.423,0.973-0.743,1.559-0.951
		c0.314-0.111,0.593-0.285,0.825-0.504c0.44-0.416,0.712-0.996,0.733-1.626c0.031-0.963-0.531-1.846-1.417-2.226
		C10.246,47.719,6.02,48.471,3.13,51.2L3.13,51.2z"/>
</g>
<g id="XMLID_1_">
	
		<line id="XMLID_10_" fill="none" stroke="#333333" stroke-width="3" stroke-linecap="round" stroke-linejoin="round" stroke-miterlimit="10" x1="63.075" y1="8.704" x2="58.819" y2="4.807"/>
	
		<line id="XMLID_9_" fill="none" stroke="#333333" stroke-width="3" stroke-linecap="round" stroke-linejoin="round" stroke-miterlimit="10" x1="79.961" y1="13.598" x2="73.961" y2="13.598"/>
	
		<line id="XMLID_8_" fill="none" stroke="#333333" stroke-width="3" stroke-linecap="round" stroke-linejoin="round" stroke-miterlimit="10" x1="62.939" y1="18.301" x2="58.714" y2="22.288"/>
	
		<line id="XMLID_7_" fill="none" stroke="#333333" stroke-width="3" stroke-linecap="round" stroke-linejoin="round" stroke-miterlimit="10" x1="76.299" y1="4.56" x2="72.437" y2="8.222"/>
	
		<line id="XMLID_6_" fill="none" stroke="#333333" stroke-width="3" stroke-linecap="round" stroke-linejoin="round" stroke-miterlimit="10" x1="67.458" y1="1.5" x2="67.425" y2="6.642"/>
	
		<line id="XMLID_5_" fill="none" stroke="#333333" stroke-width="3" stroke-linecap="round" stroke-linejoin="round" stroke-miterlimit="10" x1="67.458" y1="20.376" x2="67.425" y2="25.518"/>
	
		<circle id="XMLID_4_" fill="none" stroke="#333333" stroke-width="3" stroke-linecap="round" stroke-linejoin="round" stroke-miterlimit="10" cx="67.544" cy="13.857" r="6.502"/>
	
		<line id="XMLID_3_" fill="none" stroke="#333333" stroke-width="3" stroke-linecap="round" stroke-linejoin="round" stroke-miterlimit="10" x1="54.961" y1="13.598" x2="60.961" y2="13.598"/>
	
		<line id="XMLID_2_" fill="none" stroke="#333333" stroke-width="3" stroke-linecap="round" stroke-linejoin="round" stroke-miterlimit="10" x1="73.102" y1="18.301" x2="77.326" y2="22.288"/>
</g>
</svg>
