<!-- Generator: Adobe Illustrator 17.0.0, SVG Export Plug-In  -->
<svg version="1.1"
	 xmlns="http://www.w3.org/2000/svg" xmlns:xlink="http://www.w3.org/1999/xlink" xmlns:a="http://ns.adobe.com/AdobeSVGViewerExtensions/3.0/"
	 x="0px" y="0px" width="103.729px" height="74.258px" viewBox="0 0 103.729 74.258" enable-background="new 0 0 103.729 74.258"
	 xml:space="preserve">
<defs>
</defs>
<g id="XMLID_1_">
	<path id="XMLID_14_" fill="none" stroke="#000000" stroke-width="3" stroke-miterlimit="10" d="M89.464,64.462H14.716
		c-3.866,0-7-3.134-7-7V8.5c0-3.866,3.134-7,7-7h74.747c3.866,0,7,3.134,7,7v48.962C96.464,61.328,93.33,64.462,89.464,64.462z"/>
	<path id="XMLID_13_" fill="none" stroke="#000000" stroke-width="3" stroke-miterlimit="10" d="M87.694,59.129H16.485
		c-1.657,0-3-1.343-3-3V9.833c0-1.657,1.343-3,3-3h71.209c1.657,0,3,1.343,3,3v46.297C90.694,57.786,89.351,59.129,87.694,59.129z"
		/>
	<path id="XMLID_12_" fill="none" stroke="#000000" stroke-width="3" stroke-miterlimit="10" d="M98.783,64.462H5.123
		c-3.028,0-4.716,3.499-2.83,5.869l0,0c1.22,1.534,3.073,2.427,5.033,2.427h89.456c2.353,0,4.452-1.479,5.243-3.695v0
		C102.826,66.821,101.164,64.462,98.783,64.462z"/>
	<path id="XMLID_11_" d="M17.517,70.63H9.296c-0.869,0-1.58-0.711-1.58-1.58l0,0c0-0.869,0.711-1.58,1.58-1.58h8.221
		c0.869,0,1.58,0.711,1.58,1.58l0,0C19.097,69.919,18.386,70.63,17.517,70.63z"/>
	<path id="XMLID_10_" d="M87.277,70.63h-2.765c-0.869,0-1.58-0.711-1.58-1.58l0,0c0-0.869,0.711-1.58,1.58-1.58h2.765
		c0.869,0,1.58,0.711,1.58,1.58l0,0C88.857,69.919,88.146,70.63,87.277,70.63z"/>
	<path id="XMLID_9_" d="M21.88,54.886L21.88,54.886c-0.869,0-1.58-0.711-1.58-1.58v0c0-0.869,0.711-1.58,1.58-1.58h0
		c0.869,0,1.58,0.711,1.58,1.58v0C23.46,54.175,22.749,54.886,21.88,54.886z"/>
	<path id="XMLID_8_" d="M37.632,36.802L37.632,36.802c-0.869,0-1.58-0.711-1.58-1.58l0,0c0-0.869,0.711-1.58,1.58-1.58h0
		c0.869,0,1.58,0.711,1.58,1.58l0,0C39.212,36.091,38.501,36.802,37.632,36.802z"/>
	<path id="XMLID_7_" d="M56.132,27.16L56.132,27.16c-0.869,0-1.58-0.711-1.58-1.58v0c0-0.869,0.711-1.58,1.58-1.58h0
		c0.869,0,1.58,0.711,1.58,1.58v0C57.712,26.449,57.001,27.16,56.132,27.16z"/>
	<path id="XMLID_6_" d="M42.465,48.747L42.465,48.747c-0.869,0-1.58-0.711-1.58-1.58v0c0-0.869,0.711-1.58,1.58-1.58h0
		c0.869,0,1.58,0.711,1.58,1.58v0C44.045,48.036,43.334,48.747,42.465,48.747z"/>
	<path id="XMLID_5_" d="M59.965,41.678L59.965,41.678c-0.869,0-1.58-0.711-1.58-1.58v0c0-0.869,0.711-1.58,1.58-1.58h0
		c0.869,0,1.58,0.711,1.58,1.58v0C61.545,40.966,60.834,41.678,59.965,41.678z"/>
	<path id="XMLID_4_" d="M94.884,70.63h-2.765c-0.869,0-1.58-0.711-1.58-1.58l0,0c0-0.869,0.711-1.58,1.58-1.58h2.765
		c0.869,0,1.58,0.711,1.58,1.58l0,0C96.464,69.919,95.753,70.63,94.884,70.63z"/>
	
		<polyline id="XMLID_3_" fill="none" stroke="#000000" stroke-width="3" stroke-linecap="round" stroke-linejoin="round" stroke-miterlimit="10" points="
		76.518,20.632 59.821,34.78 56.481,30.505 41.997,42.56 38.433,39.036 25.263,49.812 	"/>
	
		<polyline id="XMLID_2_" fill="none" stroke="#000000" stroke-width="3" stroke-linecap="round" stroke-linejoin="round" stroke-miterlimit="10" points="
		76.632,28 76.632,20.5 76.056,20.5 68.132,20.5 	"/>
</g>
</svg>
