<!-- Generator: Adobe Illustrator 17.0.0, SVG Export Plug-In  -->
<svg version="1.1"
	 xmlns="http://www.w3.org/2000/svg" xmlns:xlink="http://www.w3.org/1999/xlink" xmlns:a="http://ns.adobe.com/AdobeSVGViewerExtensions/3.0/"
	 x="0px" y="0px" width="79.403px" height="75.459px" viewBox="0 0 79.403 75.459" enable-background="new 0 0 79.403 75.459"
	 xml:space="preserve">
<defs>
</defs>
<g id="XMLID_1_">

		<path id="XMLID_14_" fill="none" class="color-stroke" stroke-width="3" stroke-linecap="round" stroke-linejoin="round" stroke-miterlimit="10" d="
		M52.906,63.023H7.539c-3.335,0-6.039-2.704-6.039-6.039V7.539C1.5,4.204,4.204,1.5,7.539,1.5h58.653
		c3.335,0,6.039,2.704,6.039,6.039v44.614"/>

		<line id="XMLID_13_" fill="none" class="color-stroke" stroke-width="3" stroke-miterlimit="10" x1="1.605" y1="18.665" x2="71.605" y2="18.665"/>

		<polygon id="XMLID_12_" fill="none" class="color-stroke" stroke-width="3" stroke-linecap="round" stroke-linejoin="round" stroke-miterlimit="10" points="
		54.353,52.081 61.786,73.959 66.691,63.338 75.751,58.307 	"/>

		<line id="XMLID_11_" fill="none" class="color-stroke" stroke-width="3" stroke-linecap="round" stroke-linejoin="round" stroke-miterlimit="10" x1="71.155" y1="65.165" x2="77.903" y2="71.37"/>
	<path id="XMLID_10_" class="color-fill" d="M18.306,13.065h-0.822c-1.088,0-1.978-0.89-1.978-1.978v-0.822c0-1.088,0.89-1.978,1.978-1.978h0.822
		c1.088,0,1.978,0.89,1.978,1.978v0.822C20.284,12.175,19.394,13.065,18.306,13.065z"/>
	<path id="XMLID_9_" class="color-fill" d="M26.356,13.065h-0.822c-1.088,0-1.978-0.89-1.978-1.978v-0.822c0-1.088,0.89-1.978,1.978-1.978h0.822
		c1.088,0,1.978,0.89,1.978,1.978v0.822C28.334,12.175,27.444,13.065,26.356,13.065z"/>
	<path id="XMLID_8_" class="color-fill" d="M63.888,29.735H53.674c-0.845,0-1.536-0.691-1.536-1.536v-0.638c0-0.845,0.691-1.536,1.536-1.536h10.214
		c0.845,0,1.536,0.691,1.536,1.536v0.638C65.423,29.044,64.732,29.735,63.888,29.735z"/>
	<path id="XMLID_7_" class="color-fill" d="M63.888,36.437H53.674c-0.845,0-1.536-0.691-1.536-1.536v-0.638c0-0.845,0.691-1.536,1.536-1.536h10.214
		c0.845,0,1.536,0.691,1.536,1.536v0.638C65.423,35.746,64.732,36.437,63.888,36.437z"/>
	<path id="XMLID_6_" class="color-fill" d="M63.888,43.139H53.674c-0.845,0-1.536-0.691-1.536-1.536v-0.638c0-0.845,0.691-1.536,1.536-1.536h10.214
		c0.845,0,1.536,0.691,1.536,1.536v0.638C65.423,42.448,64.732,43.139,63.888,43.139z"/>
	<path id="XMLID_5_" class="color-fill" d="M10.607,13.065H9.785c-1.088,0-1.978-0.89-1.978-1.978v-0.822c0-1.088,0.89-1.978,1.978-1.978h0.822
		c1.088,0,1.978,0.89,1.978,1.978v0.822C12.584,12.175,11.695,13.065,10.607,13.065z"/>
	<g id="XMLID_2_">
		<path id="XMLID_4_" fill="none" class="color-stroke" stroke-width="3" stroke-miterlimit="10" d="M21.883,49.273
			c4.857,4.106,12.282,3.547,17.126-2.232c0.181-0.216-2.638-0.883-2.433-1.117c1.913-2.186,4.034-5.62,4.56-8.182
			c0.064-0.312-0.158-0.594-0.476-0.627c-0.858-0.089-2.027-0.153-2.648-0.184c-0.23-0.011-0.401-0.207-0.375-0.436
			c0.205-1.764,2.429-7.823,0.584-9.208c-1.939-1.455-6.894,2.881-8.481,3.677c-0.206,0.103-0.448,0.009-0.538-0.203
			c-0.241-0.573-0.7-1.65-1.077-2.426c-0.139-0.287-0.48-0.4-0.752-0.233c-2.228,1.369-4.731,4.536-6.132,7.081
			c-0.15,0.273-1.74-2.148-1.881-1.905C15.586,39.806,18.213,46.515,21.883,49.273"/>

			<line id="XMLID_3_" fill="none" class="color-stroke" stroke-width="3" stroke-miterlimit="10" x1="28.378" y1="41.157" x2="18.255" y2="55.474"/>
	</g>
</g>
</svg>
