<!-- Generator: Adobe Illustrator 17.0.0, SVG Export Plug-In  -->
<svg version="1.1"
	 xmlns="http://www.w3.org/2000/svg" xmlns:xlink="http://www.w3.org/1999/xlink" xmlns:a="http://ns.adobe.com/AdobeSVGViewerExtensions/3.0/"
	 x="0px" y="0px" width="98.446px" height="77.534px" viewBox="0 0 98.446 77.534" enable-background="new 0 0 98.446 77.534"
	 xml:space="preserve">
<defs>
</defs>
<path id="XMLID_16_" d="M67.521,74.411h-0.43c-0.741,0-1.347-0.606-1.347-1.347v-0.43c0-0.741,0.606-1.347,1.347-1.347h0.43
	c0.741,0,1.347,0.606,1.347,1.347v0.43C68.868,73.805,68.262,74.411,67.521,74.411z"/>
<path id="XMLID_15_" fill="none" stroke="#000000" stroke-width="3" stroke-miterlimit="10" d="M5.972,6.447l11.88-4.497
	c3.732-1.412,7.881,0.616,9.059,4.428l11.935,38.616l-20.105,7.61L2.115,15.764C0.473,12.127,2.24,7.86,5.972,6.447z"/>
<path id="XMLID_14_" fill="none" stroke="#000000" stroke-width="3" stroke-miterlimit="10" d="M17.699,52.793l22.189-8.399
	c1.033-0.391,2.187,0.129,2.578,1.162l2.083,5.503c0.391,1.033-0.129,2.187-1.162,2.578l-22.189,8.399
	c-1.033,0.391-2.187-0.129-2.578-1.162l-2.083-5.503C16.146,54.338,16.666,53.184,17.699,52.793z"/>
<line id="XMLID_13_" fill="none" stroke="#000000" stroke-width="3" stroke-miterlimit="10" x1="29.796" y1="13.546" x2="4.838" y2="22.992"/>
<line id="XMLID_12_" fill="none" stroke="#000000" stroke-width="3" stroke-miterlimit="10" x1="27.697" y1="7.999" x2="2.739" y2="17.446"/>
<path id="XMLID_11_" fill="none" stroke="#000000" stroke-width="3" stroke-miterlimit="10" d="M79.959,2.598l12.127,3.783
	c3.809,1.188,5.826,5.343,4.404,9.071L82.083,53.215l-20.522-6.401l9.618-39.258C72.128,3.681,76.15,1.41,79.959,2.598z"/>
<path id="XMLID_10_" fill="none" stroke="#000000" stroke-width="3" stroke-miterlimit="10" d="M60.498,46.482l22.649,7.065
	c1.054,0.329,1.643,1.45,1.314,2.505l-1.752,5.617c-0.329,1.054-1.45,1.643-2.505,1.314l-22.649-7.065
	c-1.054-0.329-1.643-1.45-1.314-2.505l1.752-5.617C58.322,46.742,59.443,46.153,60.498,46.482z"/>
<line id="XMLID_9_" fill="none" stroke="#000000" stroke-width="3" stroke-miterlimit="10" x1="94.343" y1="22.873" x2="68.868" y2="14.927"/>
<line id="XMLID_8_" fill="none" stroke="#000000" stroke-width="3" stroke-miterlimit="10" x1="96.109" y1="17.212" x2="70.633" y2="9.266"/>
<path id="XMLID_7_" d="M61.776,65.349h-0.43c-0.741,0-1.347-0.606-1.347-1.347v-0.43c0-0.741,0.606-1.347,1.347-1.347h0.43
	c0.741,0,1.347,0.606,1.347,1.347v0.43C63.123,64.743,62.517,65.349,61.776,65.349z"/>
<path id="XMLID_6_" d="M73.972,68.317h-0.43c-0.741,0-1.347-0.606-1.347-1.347v-0.43c0-0.741,0.606-1.347,1.347-1.347h0.43
	c0.741,0,1.347,0.606,1.347,1.347v0.43C75.319,67.711,74.713,68.317,73.972,68.317z"/>
<path id="XMLID_5_" d="M60.214,77.534h-0.43c-0.741,0-1.347-0.606-1.347-1.347v-0.43c0-0.741,0.606-1.347,1.347-1.347h0.43
	c0.741,0,1.347,0.606,1.347,1.347v0.43C61.561,76.928,60.955,77.534,60.214,77.534z"/>
<path id="XMLID_4_" d="M36.623,64.509h-0.43c-0.741,0-1.347-0.606-1.347-1.347v-0.43c0-0.741,0.606-1.347,1.347-1.347h0.43
	c0.741,0,1.347,0.606,1.347,1.347v0.43C37.97,63.903,37.364,64.509,36.623,64.509z"/>
<path id="XMLID_3_" d="M41.185,64.788h-0.43c-0.741,0-1.347-0.606-1.347-1.347v-0.43c0-0.741,0.606-1.347,1.347-1.347h0.43
	c0.741,0,1.347,0.606,1.347,1.347v0.43C42.531,64.182,41.925,64.788,41.185,64.788z"/>
<path id="XMLID_2_" d="M41.185,75.973h-0.43c-0.741,0-1.347-0.606-1.347-1.347v-0.43c0-0.741,0.606-1.347,1.347-1.347h0.43
	c0.741,0,1.347,0.606,1.347,1.347v0.43C42.531,75.367,41.925,75.973,41.185,75.973z"/>
<path id="XMLID_1_" d="M28.32,71.294h-0.43c-0.741,0-1.347-0.606-1.347-1.347v-0.43c0-0.741,0.606-1.347,1.347-1.347h0.43
	c0.741,0,1.347,0.606,1.347,1.347v0.43C29.667,70.688,29.061,71.294,28.32,71.294z"/>
</svg>
