<!-- Generator: Adobe Illustrator 17.0.0, SVG Export Plug-In  -->
<svg version="1.1"
	 xmlns="http://www.w3.org/2000/svg" xmlns:xlink="http://www.w3.org/1999/xlink" xmlns:a="http://ns.adobe.com/AdobeSVGViewerExtensions/3.0/"
	 x="0px" y="0px" width="64.846px" height="78px" viewBox="0 0 64.846 78" enable-background="new 0 0 64.846 78"
	 xml:space="preserve">
<defs>
</defs>
<g id="XMLID_1_">
	
		<circle id="XMLID_7_" fill="none" stroke="#000000" stroke-width="3" stroke-linecap="round" stroke-linejoin="round" stroke-miterlimit="10" cx="32.604" cy="32.822" r="18.724"/>
	
		<path id="XMLID_6_" fill="none" stroke="#000000" stroke-width="3" stroke-linecap="round" stroke-linejoin="round" stroke-miterlimit="10" d="
		M34.652,2.556l4.663,3.608c0.939,0.726,2.103,1.099,3.289,1.052l5.891-0.233c2.448-0.097,4.612,1.578,5.133,3.971l1.253,5.761
		c0.252,1.16,0.905,2.193,1.844,2.92l4.663,3.608c1.938,1.499,2.519,4.173,1.379,6.341l-2.743,5.219
		c-0.552,1.05-0.717,2.262-0.465,3.422l1.253,5.761c0.521,2.394-0.753,4.816-3.02,5.744l-5.456,2.234
		c-1.098,0.45-2.003,1.272-2.555,2.323l-2.743,5.219c-1.14,2.168-3.672,3.205-6.006,2.459l-5.616-1.796
		c-1.13-0.361-2.352-0.313-3.45,0.137l-5.456,2.234c-2.267,0.928-4.873,0.095-6.181-1.976l-3.148-4.985
		c-0.634-1.004-1.601-1.752-2.731-2.113l-5.616-1.796c-2.333-0.746-3.794-3.06-3.465-5.487l0.793-5.842
		c0.16-1.176-0.1-2.371-0.734-3.374L2.28,31.98c-1.308-2.071-0.94-4.783,0.873-6.431l4.363-3.966
		c0.878-0.798,1.447-1.88,1.607-3.056l0.793-5.842c0.33-2.428,2.354-4.268,4.802-4.365l5.891-0.233
		c1.186-0.047,2.317-0.51,3.196-1.309l4.363-3.966C29.98,1.165,32.714,1.056,34.652,2.556z"/>
	
		<path id="XMLID_5_" fill="none" stroke="#000000" stroke-width="3" stroke-linecap="round" stroke-linejoin="round" stroke-miterlimit="10" d="
		M17.18,55.577l-5.25,18.852c-0.295,1.07,0.817,2.07,2.302,2.07h12.203c1.178,0,2.174-0.642,2.329-1.5l3.201-14.695l4.5,14.677
		c0.143,0.867,1.144,1.519,2.332,1.519H51.42c1.499,0,2.614-1.018,2.296-2.094l-5.401-17.334"/>
	<g id="XMLID_2_">
		<path id="XMLID_3_" d="M31.493,38.655h0.003V27.87h-3.497v-2.675c2.028-0.381,3.32-0.91,4.643-1.703h3.173v15.162H35.8v3.496
			h-4.307V38.655z"/>
	</g>
</g>
</svg>
