<!-- Generator: Adobe Illustrator 17.0.0, SVG Export Plug-In  -->
<svg version="1.1"
	 xmlns="http://www.w3.org/2000/svg" xmlns:xlink="http://www.w3.org/1999/xlink" xmlns:a="http://ns.adobe.com/AdobeSVGViewerExtensions/3.0/"
	 x="0px" y="0px" width="105.838px" height="75.2px" viewBox="0 0 105.838 75.2" enable-background="new 0 0 105.838 75.2"
	 xml:space="preserve">
<defs>
</defs>
<path id="XMLID_11_" fill="none" stroke="#000000" stroke-width="3" stroke-miterlimit="10" d="M15.436,46.721L8.979,47.61
	c-2.547,0.351-4.896-1.43-5.247-3.977L1.544,27.741c-0.351-2.547,1.43-4.896,3.977-5.247l6.456-0.889l4.612-0.635l3.459,25.115
	L15.436,46.721z"/>
<path id="XMLID_10_" fill="none" stroke="#000000" stroke-width="3" stroke-miterlimit="10" d="M68.445,3.98l6.254,45.412
	c0.253,1.837-0.972,3.358-2.457,3.05l-52.195-6.357L16.589,20.97L65.349,1.663C66.684,1.061,68.2,2.195,68.445,3.98z"/>
<path id="XMLID_9_" fill="none" stroke="#000000" stroke-width="3" stroke-miterlimit="10" d="M8.916,47.149l2.73,19.821
	c0.117,0.851,0.712,1.56,1.531,1.823l14.946,4.799c1.567,0.503,3.121-0.802,2.897-2.432l-0.923-6.702
	c-0.118-0.856-0.718-1.567-1.542-1.826l-9.655-3.042l-1.765-12.819"/>
<line id="XMLID_8_" fill="none" stroke="#000000" stroke-width="3" stroke-miterlimit="10" x1="61.147" y1="3.233" x2="67.752" y2="51.195"/>
<line id="XMLID_7_" fill="none" stroke="#000000" stroke-width="3" stroke-linecap="round" stroke-linejoin="round" stroke-miterlimit="10" x1="54.022" y1="6.094" x2="56.309" y2="22.696"/>
<path id="XMLID_6_" d="M57.123,28.676L57.123,28.676c-0.802,0.11-1.548-0.455-1.658-1.257l0,0c-0.11-0.802,0.455-1.548,1.257-1.658
	l0,0c0.802-0.11,1.548,0.455,1.658,1.257v0C58.49,27.82,57.924,28.566,57.123,28.676z"/>
<path id="XMLID_5_" d="M58.033,35.291L58.033,35.291c-0.802,0.11-1.548-0.455-1.658-1.257v0c-0.11-0.802,0.455-1.548,1.257-1.658
	l0,0c0.802-0.11,1.548,0.455,1.658,1.257v0C59.401,34.434,58.835,35.18,58.033,35.291z"/>
<line id="XMLID_4_" fill="none" stroke="#000000" stroke-width="3" stroke-linecap="round" stroke-linejoin="round" stroke-miterlimit="10" x1="73.303" y1="10.494" x2="85.872" y2="2.431"/>
<line id="XMLID_3_" fill="none" stroke="#000000" stroke-width="3" stroke-linecap="round" stroke-linejoin="round" stroke-miterlimit="10" x1="79.82" y1="42.46" x2="91.924" y2="42.77"/>
<line id="XMLID_2_" fill="none" stroke="#000000" stroke-width="3" stroke-linecap="round" stroke-linejoin="round" stroke-miterlimit="10" x1="75.733" y1="18.602" x2="98.751" y2="10.494"/>
<line id="XMLID_1_" fill="none" stroke="#000000" stroke-width="3" stroke-linecap="round" stroke-linejoin="round" stroke-miterlimit="10" x1="79.018" y1="33.293" x2="104.338" y2="29.621"/>
</svg>
