<!-- Generator: Adobe Illustrator 17.0.0, SVG Export Plug-In  -->
<svg version="1.1"
	 xmlns="http://www.w3.org/2000/svg" xmlns:xlink="http://www.w3.org/1999/xlink" xmlns:a="http://ns.adobe.com/AdobeSVGViewerExtensions/3.0/"
	 x="0px" y="0px" width="85.304px" height="75.041px" viewBox="0 0 85.304 75.041" enable-background="new 0 0 85.304 75.041"
	 xml:space="preserve">
<defs>
</defs>
<path id="XMLID_13_" fill="none" stroke="#000000" stroke-width="3" stroke-miterlimit="10" d="M13.164,1.649L74.239,1.5
	c3.159-0.008,5.727,3.132,5.737,7.012l0.12,49.146c0.009,3.88-2.544,7.032-5.702,7.04l-61.075,0.149
	c-3.159,0.008-5.727-3.132-5.737-7.012L7.462,8.69C7.452,4.809,10.005,1.657,13.164,1.649z"/>
<path id="XMLID_12_" fill="none" stroke="#000000" stroke-width="3" stroke-miterlimit="10" d="M14.623,6.999l58.184-0.142
	c1.354-0.003,2.455,1.342,2.459,3.005l0.114,46.47c0.004,1.663-1.09,3.014-2.444,3.017l-58.184,0.142
	c-1.354,0.003-2.455-1.342-2.459-3.005l-0.114-46.47C12.175,8.353,13.269,7.002,14.623,6.999z"/>
<path id="XMLID_11_" fill="none" stroke="#000000" stroke-width="3" stroke-miterlimit="10" d="M80.989,65.215H4.461
	c-2.474,0-3.853,3.512-2.312,5.891l0,0c0.997,1.539,2.511,2.436,4.112,2.436h73.094c1.922,0,3.637-1.485,4.284-3.709v0
	C84.292,67.582,82.934,65.215,80.989,65.215z"/>
<path id="XMLID_10_" d="M14.588,71.405H7.87c-0.71,0-1.291-0.714-1.291-1.586l0,0c0-0.872,0.581-1.586,1.291-1.586h6.717
	c0.71,0,1.291,0.714,1.291,1.586l0,0C15.879,70.692,15.298,71.405,14.588,71.405z"/>
<path id="XMLID_9_" d="M71.587,71.405h-2.259c-0.71,0-1.291-0.714-1.291-1.586l0,0c0-0.872,0.581-1.586,1.291-1.586h2.259
	c0.71,0,1.291,0.714,1.291,1.586l0,0C72.879,70.692,72.298,71.405,71.587,71.405z"/>
<path id="XMLID_8_" d="M68.409,11.127L68.409,11.127c0.71-0.002,1.293,0.711,1.295,1.583v0c0.002,0.872-0.577,1.587-1.287,1.589l0,0
	c-0.71,0.002-1.293-0.711-1.295-1.583v0C67.12,11.844,67.699,11.128,68.409,11.127z"/>
<path id="XMLID_7_" d="M55.583,29.31L55.583,29.31c0.71-0.002,1.293,0.711,1.295,1.583v0c0.002,0.872-0.577,1.587-1.287,1.589h0
	c-0.71,0.002-1.293-0.711-1.295-1.583v0C54.294,30.027,54.873,29.312,55.583,29.31z"/>
<path id="XMLID_6_" d="M40.491,39.025L40.491,39.025c0.71-0.002,1.293,0.711,1.295,1.583v0c0.002,0.872-0.577,1.587-1.287,1.589h0
	c-0.71,0.002-1.293-0.711-1.295-1.583v0C39.201,39.742,39.781,39.026,40.491,39.025z"/>
<path id="XMLID_5_" d="M51.604,17.33L51.604,17.33c0.71-0.002,1.293,0.711,1.295,1.583v0c0.002,0.872-0.577,1.587-1.287,1.589h0
	c-0.71,0.002-1.293-0.711-1.295-1.583v0C50.315,18.047,50.894,17.332,51.604,17.33z"/>
<path id="XMLID_4_" d="M37.323,24.461L37.323,24.461c0.71-0.002,1.293,0.711,1.295,1.583v0c0.002,0.872-0.577,1.587-1.287,1.589h0
	c-0.71,0.002-1.293-0.711-1.295-1.583v0C36.033,25.178,36.613,24.462,37.323,24.461z"/>
<path id="XMLID_3_" d="M77.803,71.405h-2.259c-0.71,0-1.291-0.714-1.291-1.586l0,0c0-0.872,0.581-1.586,1.291-1.586h2.259
	c0.71,0,1.291,0.714,1.291,1.586l0,0C79.094,70.692,78.513,71.405,77.803,71.405z"/>
<polyline id="XMLID_2_" fill="none" stroke="#000000" stroke-width="3" stroke-linecap="round" stroke-linejoin="round" stroke-miterlimit="10" points="
	23.849,45.618 37.458,31.384 40.197,35.668 52.002,23.538 54.923,27.069 65.658,16.227 "/>
<polyline id="XMLID_1_" fill="none" stroke="#000000" stroke-width="3" stroke-linecap="round" stroke-linejoin="round" stroke-miterlimit="10" points="
	24.162,37.919 24.181,45.417 24.226,45.417 30.681,45.402 "/>
</svg>
