<!-- Generator: Adobe Illustrator 17.0.0, SVG Export Plug-In  -->
<svg version="1.1"
	 xmlns="http://www.w3.org/2000/svg" xmlns:xlink="http://www.w3.org/1999/xlink" xmlns:a="http://ns.adobe.com/AdobeSVGViewerExtensions/3.0/"
	 x="0px" y="0px" width="87.417px" height="74.243px" viewBox="0 0 87.417 74.243" enable-background="new 0 0 87.417 74.243"
	 xml:space="preserve">
<defs>
</defs>
<g id="XMLID_1_">
	<g id="XMLID_5_">
		<g id="XMLID_12_">

				<path id="XMLID_17_" fill="none" class="color-stroke" stroke-width="3" stroke-linecap="round" stroke-linejoin="round" stroke-miterlimit="10" d="
				M57.918,30.25H81.23c2.588,0,4.687,1.867,4.687,4.171v30.815v3.553c0,2.184-1.989,3.954-4.443,3.954H35.71
				c-2.588,0-4.687-1.867-4.687-4.171V55.5"/>

				<line id="XMLID_16_" fill="none" class="color-stroke" stroke-width="3" stroke-miterlimit="10" x1="31.442" y1="63" x2="85.442" y2="63"/>
			<path id="XMLID_15_" class="color-fill" d="M79.102,45.25h-7.247c-0.843,0-1.532-0.689-1.532-1.532v0
				c0-0.843,0.689-1.532,1.532-1.532h7.247c0.843,0,1.532,0.689,1.532,1.532v0C80.634,44.56,79.945,45.25,79.102,45.25z"/>
			<path id="XMLID_14_" class="color-fill" d="M79.102,50.785h-7.247c-0.843,0-1.532-0.689-1.532-1.532v0
				c0-0.843,0.689-1.532,1.532-1.532h7.247c0.843,0,1.532,0.689,1.532,1.532v0C80.634,50.096,79.945,50.785,79.102,50.785z"/>
			<path id="XMLID_13_" class="color-fill" d="M79.102,56.321h-7.247c-0.843,0-1.532-0.689-1.532-1.532l0,0
				c0-0.843,0.689-1.532,1.532-1.532h7.247c0.843,0,1.532,0.689,1.532,1.532v0C80.634,55.632,79.945,56.321,79.102,56.321z"/>
		</g>
		<g id="XMLID_6_">

				<path id="XMLID_11_" fill="none" class="color-stroke" stroke-width="3" stroke-linecap="round" stroke-linejoin="round" stroke-miterlimit="10" d="
				M53.35,54.743H6.317c-2.66,0-4.817-1.975-4.817-4.41V14.22c0-2.436,2.157-4.41,4.817-4.41H53.1c2.66,0,4.817,1.975,4.817,4.41
				v32.584v3.757C57.917,52.871,55.872,54.743,53.35,54.743z"/>
			<path id="XMLID_10_" class="color-fill" d="M22.612,45.497H6.439c-0.845,0-1.536-0.691-1.536-1.536v-0.168
				c0-0.845,0.691-1.536,1.536-1.536h16.173c0.845,0,1.536,0.691,1.536,1.536l0,0.168C24.148,44.806,23.457,45.497,22.612,45.497z"
				/>
			<path id="XMLID_9_" class="color-fill" d="M34.939,45.291h-7.525c-0.845,0-1.536-0.691-1.536-1.536v-0.168
				c0-0.845,0.691-1.536,1.536-1.536h7.525c0.845,0,1.536,0.691,1.536,1.536v0.168C36.474,44.6,35.783,45.291,34.939,45.291z"/>
			<path id="XMLID_8_" class="color-fill" d="M48.83,45.291h-7.525c-0.845,0-1.536-0.691-1.536-1.536v-0.168
				c0-0.845,0.691-1.536,1.536-1.536h7.525c0.845,0,1.536,0.691,1.536,1.536v0.168C50.366,44.6,49.675,45.291,48.83,45.291z"/>
			<path id="XMLID_7_" class="color-fill" d="M16.462,26.99H8.369c-1.088,0-1.978-0.89-1.978-1.978l0-4.718
				c0-1.088,0.89-1.978,1.978-1.978h8.093c1.088,0,1.978,0.89,1.978,1.978l0,4.718C18.44,26.1,17.55,26.99,16.462,26.99z"/>
		</g>
	</g>
	<g id="XMLID_2_">
		<path id="XMLID_3_" class="color-fill" d="M77.038,6.164c-0.459,0.521-1.228,0.581-1.799,0.186c-0.718-0.497-1.451-0.764-2.423-0.764
			c-1.571,0-2.532,0.814-2.532,2.327c0,3.49,7.912,2.793,7.912,8.668c0,2.764-1.629,4.8-4.508,5.323V24.9h-2.327v-2.909
			c-1.343-0.131-2.786-0.63-3.976-1.394c-0.62-0.399-0.771-1.246-0.362-1.859l0.058-0.087c0.404-0.605,1.214-0.765,1.829-0.378
			c1.022,0.643,2.073,1.042,3.235,1.042c1.891,0,2.822-0.931,2.822-2.502c0-3.839-7.912-3.286-7.912-8.755
			c0-2.706,1.687-4.626,4.306-5.091V0h2.327v2.908c1.276,0.16,2.278,0.633,3.129,1.281C77.448,4.668,77.561,5.57,77.038,6.164
			L77.038,6.164z"/>
	</g>
</g>
</svg>
