<!-- Generator: Adobe Illustrator 17.0.0, SVG Export Plug-In  -->
<svg version="1.1"
	 xmlns="http://www.w3.org/2000/svg" xmlns:xlink="http://www.w3.org/1999/xlink" xmlns:a="http://ns.adobe.com/AdobeSVGViewerExtensions/3.0/"
	 x="0px" y="0px" width="58.496px" height="80.904px" viewBox="0 0 58.496 80.904" enable-background="new 0 0 58.496 80.904"
	 xml:space="preserve">
<defs>
</defs>
<g id="XMLID_4_">
	<path id="XMLID_14_" fill="none" class="color-stroke" stroke-width="3" stroke-miterlimit="10" d="M3.741,73.903
		c-1.315-0.97-2.384-2.351-2.225-3.978C2.879,55.97,7.33,44.721,29.237,44.721h0c21.634,0,26.522,10.475,27.748,25.345
		c0.128,1.553-0.805,2.95-2.056,3.876C44.952,81.329,13.543,81.131,3.741,73.903z"/>

		<path id="XMLID_13_" fill="none" class="color-stroke" stroke-width="3" stroke-linecap="round" stroke-linejoin="round" stroke-miterlimit="10" d="
		M23.494,38.485c-5.351-3.002-9.109-9.809-9.109-15.984c0-8.217,2.6-17.799,14.862-11.955c11.246,5.36,15.704-5.884,14.862,11.955
		c0,5.778-3.29,12.109-8.096,15.358"/>
	<g id="XMLID_7_">
		<path id="XMLID_12_" fill="none" class="color-stroke" stroke-width="3" stroke-miterlimit="10" d="M47.475,28.261
			c0,0,0.148,10.551-13.845,12.051"/>
		<path id="XMLID_11_" fill="none" class="color-stroke" stroke-width="3" stroke-miterlimit="10" d="M10.722,19.066
			c0-9.701,8.388-17.566,18.736-17.566s18.736,7.864,18.736,17.566"/>
		<path id="XMLID_10_" fill="none" class="color-stroke" stroke-width="3" stroke-miterlimit="10" d="M12.295,18.35
			c3.076,0,3.076,10.442,0,10.442s-5.569-2.338-5.569-5.221S9.22,18.35,12.295,18.35z"/>
		<path id="XMLID_9_" fill="none" class="color-stroke" stroke-width="3" stroke-miterlimit="10" d="M45.993,28.792
			c-3.076,0-3.076-10.442,0-10.442s5.569,2.338,5.569,5.221S49.068,28.792,45.993,28.792z"/>

			<circle id="XMLID_8_" fill="#F0F0F0" class="color-stroke" stroke-width="3" stroke-miterlimit="10" cx="30.167" cy="38.765" r="3.795"/>
	</g>

		<polygon id="XMLID_6_" fill="none" class="color-stroke" stroke-width="3" stroke-linecap="round" stroke-linejoin="round" stroke-miterlimit="10" points="
		22.109,54.617 22.109,47.695 28.066,51.156 	"/>

		<polygon id="XMLID_5_" fill="none" class="color-stroke" stroke-width="3" stroke-linecap="round" stroke-linejoin="round" stroke-miterlimit="10" points="
		36.109,54.617 36.109,47.695 30.152,51.156 	"/>
</g>
<path id="XMLID_3_" class="color-fill" d="M29.633,60.386L29.633,60.386c-0.869,0-1.58-0.711-1.58-1.58l0,0c0-0.869,0.711-1.58,1.58-1.58h0
	c0.869,0,1.58,0.711,1.58,1.58l0,0C31.213,59.675,30.502,60.386,29.633,60.386z"/>
<path id="XMLID_2_" class="color-fill" d="M29.633,67.639L29.633,67.639c-0.869,0-1.58-0.711-1.58-1.58v0c0-0.869,0.711-1.58,1.58-1.58h0
	c0.869,0,1.58,0.711,1.58,1.58v0C31.213,66.928,30.502,67.639,29.633,67.639z"/>
<path id="XMLID_1_" class="color-fill" d="M29.633,74.892L29.633,74.892c-0.869,0-1.58-0.711-1.58-1.58l0,0c0-0.869,0.711-1.58,1.58-1.58h0
	c0.869,0,1.58,0.711,1.58,1.58l0,0C31.213,74.181,30.502,74.892,29.633,74.892z"/>
</svg>
