<!-- Generator: Adobe Illustrator 17.0.0, SVG Export Plug-In  -->
<svg version="1.1"
	 xmlns="http://www.w3.org/2000/svg" xmlns:xlink="http://www.w3.org/1999/xlink" xmlns:a="http://ns.adobe.com/AdobeSVGViewerExtensions/3.0/"
	 x="0px" y="0px" width="82.744px" height="70.014px" viewBox="0 0 82.744 70.014" enable-background="new 0 0 82.744 70.014"
	 xml:space="preserve">
<defs>
</defs>
<g id="XMLID_6_">
	<path id="XMLID_16_" fill="none" class="color-stroke" stroke-width="3" stroke-miterlimit="10" d="M1.5,49.951V6.947
		C1.5,3.939,3.939,1.5,6.947,1.5h36.137c3.008,0,5.447,2.439,5.447,5.447V50.04"/>
	<path id="XMLID_15_" fill="none" class="color-stroke" stroke-width="3" stroke-miterlimit="10" d="M48.793,16.206h10.608
		c1.709,0,3.293,1.021,4.176,2.692l5.606,10.612c0.743,1.407,1.925,2.442,3.308,2.897l4.735,1.559
		c2.38,0.783,4.018,3.269,4.018,6.095v9.89"/>
	<path id="XMLID_14_" fill="none" class="color-stroke" stroke-width="3" stroke-miterlimit="10" d="M15.051,62.392H4.59
		c-1.707,0-3.09-1.384-3.09-3.09v-9.293h79.744v9.293c0,1.707-1.384,3.09-3.09,3.09h-9.206"/>
	<path id="XMLID_13_" fill="none" class="color-stroke" stroke-width="3" stroke-miterlimit="10" d="M15.83,63.046"/>
	<path id="XMLID_12_" fill="none" class="color-stroke" stroke-width="3" stroke-miterlimit="10" d="M28.925,63.046"/>

		<line id="XMLID_11_" fill="none" class="color-stroke" stroke-width="3" stroke-miterlimit="10" x1="57.223" y1="63.046" x2="27.836" y2="63.046"/>
	<path id="XMLID_10_" fill="none" class="color-stroke" stroke-width="3" stroke-miterlimit="10" d="M59.401,63.046"/>
	<path id="XMLID_9_" fill="none" class="color-stroke" stroke-width="3" stroke-miterlimit="10" d="M72.827,63.046"/>
	<circle id="XMLID_8_" fill="none" class="color-stroke" stroke-width="3" stroke-miterlimit="10" cx="21.242" cy="62.323" r="6.192"/>
	<circle id="XMLID_7_" fill="none" class="color-stroke" stroke-width="3" stroke-miterlimit="10" cx="62.445" cy="62.323" r="6.192"/>
</g>
<path id="XMLID_5_" fill="none" class="color-stroke" stroke-width="3" stroke-linecap="round" stroke-linejoin="round" stroke-miterlimit="10" d="
	M10.681,14.026h3.246c1.135,0,2.091,0.851,2.222,1.978l1.622,15.057c0.131,1.128,1.087,1.978,2.222,1.978h15.293"/>
<path id="XMLID_4_" fill="none" class="color-stroke" stroke-width="3" stroke-linecap="round" stroke-linejoin="round" stroke-miterlimit="10" d="
	M16.717,18.5h19.962c0.688,0,1.212,0.578,1.105,1.217l-1.571,9.305H18.51"/>
<line id="XMLID_3_" fill="none" class="color-stroke" stroke-width="3" stroke-linecap="round" stroke-linejoin="round" stroke-miterlimit="10" x1="17.646" y1="22.885" x2="37.249" y2="22.885"/>
<circle id="XMLID_2_" class="color-fill" cx="22.087" cy="39.416" r="2.49"/>
<circle id="XMLID_1_" class="color-fill" cx="31.302" cy="39.416" r="2.49"/>
</svg>
