<!-- Generator: Adobe Illustrator 17.0.0, SVG Export Plug-In  -->
<svg version="1.1"
	 xmlns="http://www.w3.org/2000/svg" xmlns:xlink="http://www.w3.org/1999/xlink" xmlns:a="http://ns.adobe.com/AdobeSVGViewerExtensions/3.0/"
	 x="0px" y="0px" width="57.353px" height="71.356px" viewBox="0 0 57.353 71.356" enable-background="new 0 0 57.353 71.356"
	 xml:space="preserve">
<defs>
</defs>
<g id="XMLID_1_">
	<circle id="XMLID_7_" fill="none" class="color-stroke" stroke-width="3" stroke-miterlimit="10" cx="15.977" cy="8.645" r="7.145"/>

		<path id="XMLID_6_" fill="none" class="color-stroke" stroke-width="3" stroke-linecap="round" stroke-linejoin="round" stroke-miterlimit="10" d="
		M9.073,21.147H7.032c-3.166,0-5.687,2.652-5.525,5.815l0.784,15.341c0.092,1.792,1.572,3.199,3.366,3.199h0
		c1.247,0,2.293,0.941,2.424,2.182l2.027,19.2c0.178,1.69,1.603,2.972,3.303,2.972h2.603c1.664,0,3.072-1.232,3.292-2.882
		l4.896-36.694l15.592-0.398c2.245-0.057,4.036-1.894,4.036-4.14v0c0-2.248-1.793-4.085-4.04-4.14l-18.654-0.455l-5.673,6.504
		l-4.736-5.763C10.306,21.416,9.705,21.147,9.073,21.147z"/>
	<g id="XMLID_4_">

			<line id="XMLID_5_" fill="none" class="color-stroke" stroke-width="3" stroke-linecap="round" stroke-linejoin="round" stroke-miterlimit="10" x1="39.646" y1="57.851" x2="48.82" y2="40.805"/>
	</g>
	<circle id="XMLID_3_" fill="none" class="color-stroke" stroke-width="3" stroke-miterlimit="10" cx="36.968" cy="44.976" r="3.555"/>
	<circle id="XMLID_2_" fill="none" class="color-stroke" stroke-width="3" stroke-miterlimit="10" cx="52.298" cy="53.525" r="3.555"/>
</g>
</svg>
