<!-- Generator: Adobe Illustrator 17.0.0, SVG Export Plug-In  -->
<svg version="1.1"
	 xmlns="http://www.w3.org/2000/svg" xmlns:xlink="http://www.w3.org/1999/xlink" xmlns:a="http://ns.adobe.com/AdobeSVGViewerExtensions/3.0/"
	 x="0px" y="0px" width="67.036px" height="67.76px" viewBox="0 0 67.036 67.76" enable-background="new 0 0 67.036 67.76"
	 xml:space="preserve">
<defs>
</defs>
<path id="XMLID_4_" fill="none" class="color-stroke" stroke-width="3" stroke-miterlimit="10" d="M35.55,2.239
	c3.16,2.575,10.489,7.076,25.686,10.416c2.83,0.622,4.697,3.35,4.227,6.209C61.616,42.273,45.536,58.361,37.662,64.68
	c-2.738,2.197-5.684,2.016-8.371-0.006C21.233,58.611,5.413,42.265,1.572,18.862c-0.469-2.858,1.398-5.585,4.227-6.207
	C20.974,9.319,28.265,4.823,31.406,2.247C32.616,1.254,34.337,1.25,35.55,2.239z"/>
<g id="XMLID_1_">

		<path id="XMLID_3_" fill="none" class="color-stroke" stroke-width="3" stroke-linecap="round" stroke-linejoin="round" stroke-miterlimit="10" d="
		M33.131,44.555c6.652,0.637,12.728-4.291,13.451-12.18c0.027-0.294-2.806,0.817-2.769,0.492c0.343-3.033,0.118-7.268-0.961-9.794
		c-0.132-0.308-0.492-0.418-0.786-0.257c-0.794,0.436-1.842,1.081-2.396,1.427c-0.206,0.128-0.47,0.062-0.584-0.152
		c-0.879-1.645-2.586-8.209-5.008-8.3c-2.545-0.095-4.227,6.615-5.121,8.252c-0.116,0.213-0.381,0.276-0.586,0.146
		c-0.551-0.351-1.592-1.006-2.382-1.45c-0.292-0.164-0.654-0.058-0.788,0.249c-1.104,2.516-1.369,6.748-1.055,9.785
		c0.034,0.325-2.788-0.813-2.764-0.519C22.026,40.15,28.31,44.371,33.131,44.555"/>

		<line id="XMLID_2_" fill="none" class="color-stroke" stroke-width="3" stroke-linecap="round" stroke-linejoin="round" stroke-miterlimit="10" x1="33.879" y1="33.659" x2="33.711" y2="52.081"/>
</g>
</svg>
